<svg width="355" height="128" viewBox="0 0 355 128" fill="none" xmlns="http://www.w3.org/2000/svg">
<g filter="url(#filter0_d)">
<path d="M91.84 32.888H89.2V28.904H96.544V47H91.84V32.888ZM103.828 42.416H107.908L103.492 50.36H100.708L103.828 42.416ZM124.392 47H109.824L114.312 42.344C115.496 41.112 116.424 40.072 117.096 39.224C117.768 38.36 118.264 37.632 118.584 37.04C118.92 36.448 119.128 35.968 119.208 35.6C119.288 35.232 119.328 34.92 119.328 34.664C119.328 34.392 119.28 34.128 119.184 33.872C119.104 33.616 118.976 33.392 118.8 33.2C118.624 32.992 118.408 32.832 118.152 32.72C117.912 32.592 117.624 32.528 117.288 32.528C116.648 32.528 116.144 32.736 115.776 33.152C115.424 33.568 115.248 34.088 115.248 34.712C115.248 34.888 115.272 35.144 115.32 35.48H110.184C110.184 34.424 110.352 33.464 110.688 32.6C111.04 31.736 111.528 30.992 112.152 30.368C112.776 29.744 113.512 29.264 114.36 28.928C115.224 28.592 116.168 28.424 117.192 28.424C118.2 28.424 119.128 28.584 119.976 28.904C120.84 29.224 121.584 29.672 122.208 30.248C122.832 30.824 123.32 31.512 123.672 32.312C124.024 33.096 124.2 33.952 124.2 34.88C124.2 35.872 123.984 36.792 123.552 37.64C123.136 38.472 122.464 39.328 121.536 40.208L118.536 43.016H124.392V47ZM140.704 47H126.136L130.624 42.344C131.808 41.112 132.736 40.072 133.408 39.224C134.08 38.36 134.576 37.632 134.896 37.04C135.232 36.448 135.44 35.968 135.52 35.6C135.6 35.232 135.64 34.92 135.64 34.664C135.64 34.392 135.592 34.128 135.496 33.872C135.416 33.616 135.288 33.392 135.112 33.2C134.936 32.992 134.72 32.832 134.464 32.72C134.224 32.592 133.936 32.528 133.6 32.528C132.96 32.528 132.456 32.736 132.088 33.152C131.736 33.568 131.56 34.088 131.56 34.712C131.56 34.888 131.584 35.144 131.632 35.48H126.496C126.496 34.424 126.664 33.464 127 32.6C127.352 31.736 127.84 30.992 128.464 30.368C129.088 29.744 129.824 29.264 130.672 28.928C131.536 28.592 132.48 28.424 133.504 28.424C134.512 28.424 135.44 28.584 136.288 28.904C137.152 29.224 137.896 29.672 138.52 30.248C139.144 30.824 139.632 31.512 139.984 32.312C140.336 33.096 140.512 33.952 140.512 34.88C140.512 35.872 140.296 36.792 139.864 37.64C139.448 38.472 138.776 39.328 137.848 40.208L134.848 43.016H140.704V47ZM155.217 32.888H148.953L148.641 34.88C148.929 34.848 149.193 34.824 149.433 34.808C149.673 34.776 149.921 34.76 150.177 34.76C151.089 34.76 151.937 34.92 152.721 35.24C153.505 35.56 154.177 36 154.737 36.56C155.297 37.12 155.737 37.792 156.057 38.576C156.377 39.36 156.537 40.216 156.537 41.144C156.537 42.12 156.353 43 155.985 43.784C155.633 44.568 155.129 45.24 154.473 45.8C153.817 46.344 153.017 46.76 152.073 47.048C151.129 47.352 150.081 47.504 148.929 47.504C147.841 47.504 146.801 47.368 145.809 47.096C144.833 46.84 143.913 46.44 143.049 45.896L143.745 41.48C144.545 42.168 145.361 42.696 146.193 43.064C147.025 43.416 147.817 43.592 148.569 43.592C149.529 43.592 150.289 43.336 150.849 42.824C151.409 42.296 151.689 41.648 151.689 40.88C151.689 39.984 151.313 39.264 150.561 38.72C149.809 38.16 148.825 37.88 147.609 37.88C147.065 37.88 146.505 37.944 145.929 38.072C145.353 38.184 144.785 38.368 144.225 38.624L145.737 28.904H155.217V32.888ZM160.921 42.416H165.001L160.585 50.36H157.801L160.921 42.416ZM171.382 37.928C171.382 38.728 171.454 39.456 171.598 40.112C171.742 40.768 171.942 41.336 172.198 41.816C172.47 42.296 172.79 42.672 173.158 42.944C173.526 43.2 173.942 43.328 174.406 43.328C174.854 43.328 175.262 43.2 175.63 42.944C176.014 42.672 176.334 42.296 176.59 41.816C176.846 41.336 177.046 40.768 177.19 40.112C177.334 39.456 177.406 38.728 177.406 37.928C177.406 37.144 177.334 36.424 177.19 35.768C177.046 35.096 176.846 34.528 176.59 34.064C176.334 33.584 176.014 33.216 175.63 32.96C175.262 32.688 174.854 32.552 174.406 32.552C173.942 32.552 173.526 32.688 173.158 32.96C172.79 33.216 172.47 33.584 172.198 34.064C171.942 34.528 171.742 35.096 171.598 35.768C171.454 36.424 171.382 37.144 171.382 37.928ZM166.726 37.928C166.726 36.488 166.91 35.184 167.278 34.016C167.662 32.832 168.19 31.824 168.862 30.992C169.55 30.16 170.358 29.52 171.286 29.072C172.23 28.608 173.27 28.376 174.406 28.376C175.526 28.376 176.558 28.608 177.502 29.072C178.446 29.52 179.254 30.16 179.926 30.992C180.598 31.824 181.118 32.832 181.486 34.016C181.87 35.184 182.062 36.488 182.062 37.928C182.062 39.368 181.87 40.68 181.486 41.864C181.118 43.032 180.598 44.04 179.926 44.888C179.254 45.72 178.446 46.368 177.502 46.832C176.558 47.28 175.526 47.504 174.406 47.504C173.27 47.504 172.23 47.28 171.286 46.832C170.358 46.368 169.55 45.72 168.862 44.888C168.19 44.04 167.662 43.032 167.278 41.864C166.91 40.68 166.726 39.368 166.726 37.928ZM187.694 37.928C187.694 38.728 187.766 39.456 187.91 40.112C188.054 40.768 188.254 41.336 188.51 41.816C188.782 42.296 189.102 42.672 189.47 42.944C189.838 43.2 190.254 43.328 190.718 43.328C191.166 43.328 191.574 43.2 191.942 42.944C192.326 42.672 192.646 42.296 192.902 41.816C193.158 41.336 193.358 40.768 193.502 40.112C193.646 39.456 193.718 38.728 193.718 37.928C193.718 37.144 193.646 36.424 193.502 35.768C193.358 35.096 193.158 34.528 192.902 34.064C192.646 33.584 192.326 33.216 191.942 32.96C191.574 32.688 191.166 32.552 190.718 32.552C190.254 32.552 189.838 32.688 189.47 32.96C189.102 33.216 188.782 33.584 188.51 34.064C188.254 34.528 188.054 35.096 187.91 35.768C187.766 36.424 187.694 37.144 187.694 37.928ZM183.038 37.928C183.038 36.488 183.222 35.184 183.59 34.016C183.974 32.832 184.502 31.824 185.174 30.992C185.862 30.16 186.67 29.52 187.598 29.072C188.542 28.608 189.582 28.376 190.718 28.376C191.838 28.376 192.87 28.608 193.814 29.072C194.758 29.52 195.566 30.16 196.238 30.992C196.91 31.824 197.43 32.832 197.798 34.016C198.182 35.184 198.374 36.488 198.374 37.928C198.374 39.368 198.182 40.68 197.798 41.864C197.43 43.032 196.91 44.04 196.238 44.888C195.566 45.72 194.758 46.368 193.814 46.832C192.87 47.28 191.838 47.504 190.718 47.504C189.582 47.504 188.542 47.28 187.598 46.832C186.67 46.368 185.862 45.72 185.174 44.888C184.502 44.04 183.974 43.032 183.59 41.864C183.222 40.68 183.038 39.368 183.038 37.928ZM204.007 37.928C204.007 38.728 204.079 39.456 204.223 40.112C204.367 40.768 204.567 41.336 204.823 41.816C205.095 42.296 205.415 42.672 205.783 42.944C206.151 43.2 206.567 43.328 207.031 43.328C207.479 43.328 207.887 43.2 208.255 42.944C208.639 42.672 208.959 42.296 209.215 41.816C209.471 41.336 209.671 40.768 209.815 40.112C209.959 39.456 210.031 38.728 210.031 37.928C210.031 37.144 209.959 36.424 209.815 35.768C209.671 35.096 209.471 34.528 209.215 34.064C208.959 33.584 208.639 33.216 208.255 32.96C207.887 32.688 207.479 32.552 207.031 32.552C206.567 32.552 206.151 32.688 205.783 32.96C205.415 33.216 205.095 33.584 204.823 34.064C204.567 34.528 204.367 35.096 204.223 35.768C204.079 36.424 204.007 37.144 204.007 37.928ZM199.351 37.928C199.351 36.488 199.535 35.184 199.903 34.016C200.287 32.832 200.815 31.824 201.487 30.992C202.175 30.16 202.983 29.52 203.911 29.072C204.855 28.608 205.895 28.376 207.031 28.376C208.151 28.376 209.183 28.608 210.127 29.072C211.071 29.52 211.879 30.16 212.551 30.992C213.223 31.824 213.743 32.832 214.111 34.016C214.495 35.184 214.687 36.488 214.687 37.928C214.687 39.368 214.495 40.68 214.111 41.864C213.743 43.032 213.223 44.04 212.551 44.888C211.879 45.72 211.071 46.368 210.127 46.832C209.183 47.28 208.151 47.504 207.031 47.504C205.895 47.504 204.855 47.28 203.911 46.832C202.983 46.368 202.175 45.72 201.487 44.888C200.815 44.04 200.287 43.032 199.903 41.864C199.535 40.68 199.351 39.368 199.351 37.928ZM153.673 65.96L152.089 61.442L150.505 65.96H153.673ZM154.609 68.642H149.569L148.759 71H144.997L150.163 57.428H154.015L159.181 71H155.419L154.609 68.642ZM164.252 63.656H165.422C166.718 63.656 167.366 63.092 167.366 61.964C167.366 60.836 166.718 60.272 165.422 60.272H164.252V63.656ZM164.252 71H160.724V57.428H166.34C167.864 57.428 169.028 57.824 169.832 58.616C170.648 59.408 171.056 60.524 171.056 61.964C171.056 63.404 170.648 64.52 169.832 65.312C169.028 66.104 167.864 66.5 166.34 66.5H164.252V71ZM176.452 63.656H177.622C178.918 63.656 179.566 63.092 179.566 61.964C179.566 60.836 178.918 60.272 177.622 60.272H176.452V63.656ZM176.452 71H172.924V57.428H178.54C180.064 57.428 181.228 57.824 182.032 58.616C182.848 59.408 183.256 60.524 183.256 61.964C183.256 63.404 182.848 64.52 182.032 65.312C181.228 66.104 180.064 66.5 178.54 66.5H176.452V71ZM188.651 57.428V68.012H192.881V71H185.123V57.428H188.651ZM202.425 60.416H198.231V62.684H202.191V65.672H198.231V68.012H202.425V71H194.703V57.428H202.425V60.416ZM212.42 60.902C212.036 60.59 211.652 60.362 211.268 60.218C210.884 60.062 210.512 59.984 210.152 59.984C209.696 59.984 209.324 60.092 209.036 60.308C208.748 60.524 208.604 60.806 208.604 61.154C208.604 61.394 208.676 61.592 208.82 61.748C208.964 61.904 209.15 62.042 209.378 62.162C209.618 62.27 209.882 62.366 210.17 62.45C210.47 62.534 210.764 62.624 211.052 62.72C212.204 63.104 213.044 63.62 213.572 64.268C214.112 64.904 214.382 65.738 214.382 66.77C214.382 67.466 214.262 68.096 214.022 68.66C213.794 69.224 213.452 69.71 212.996 70.118C212.552 70.514 212 70.82 211.34 71.036C210.692 71.264 209.954 71.378 209.126 71.378C207.41 71.378 205.82 70.868 204.356 69.848L205.868 67.004C206.396 67.472 206.918 67.82 207.434 68.048C207.95 68.276 208.46 68.39 208.964 68.39C209.54 68.39 209.966 68.258 210.242 67.994C210.53 67.73 210.674 67.43 210.674 67.094C210.674 66.89 210.638 66.716 210.566 66.572C210.494 66.416 210.374 66.278 210.206 66.158C210.038 66.026 209.816 65.906 209.54 65.798C209.276 65.69 208.952 65.57 208.568 65.438C208.112 65.294 207.662 65.138 207.218 64.97C206.786 64.79 206.396 64.556 206.048 64.268C205.712 63.98 205.436 63.62 205.22 63.188C205.016 62.744 204.914 62.186 204.914 61.514C204.914 60.842 205.022 60.236 205.238 59.696C205.466 59.144 205.778 58.676 206.174 58.292C206.582 57.896 207.074 57.59 207.65 57.374C208.238 57.158 208.892 57.05 209.612 57.05C210.284 57.05 210.986 57.146 211.718 57.338C212.45 57.518 213.152 57.788 213.824 58.148L212.42 60.902Z" fill="white"/>
</g>
<g filter="url(#filter1_d)">
<path d="M289.301 50.5374C289.301 50.5374 287.088 24.5182 293.85 12.7449C293.85 12.7449 298.955 11.3731 301.333 15.5421C301.333 15.5421 297.373 25.0831 296.405 49.7819C296.405 49.7819 292.73 56.8054 289.301 50.5374Z" fill="#D0844B"/>
<path d="M303.871 119.909L293.691 119.105L284.124 119.874C269.545 121.045 264.456 114.021 258.101 98.7675C251.746 83.5143 250.676 65.3649 250.676 65.3649C249.566 49.3798 261.881 36.1314 277.163 35.2986C279.929 35.1479 282.699 35.5138 285.352 36.3079L293.373 38.7082L302.939 36.0407C305.08 35.4434 307.293 35.1115 309.517 35.1352C325.403 35.3059 338.421 48.8993 337.222 65.3379C337.222 65.3379 335.483 81.1177 332.14 95.9077C328.796 110.697 318.459 121.061 303.871 119.909Z" fill="#EB4646"/>
<path d="M309.516 35.1352C307.463 35.1132 305.421 35.3973 303.434 35.9106C313.471 38.6288 320.861 48.1671 320.045 59.3487C320.045 59.3487 318.651 71.9995 315.971 83.8566C313.291 95.7135 305.003 104.022 293.308 103.099L285.146 102.454L277.477 103.07C265.789 104.01 261.709 98.378 256.614 86.1494C252.375 75.9751 251.069 64.1951 250.75 60.5239C250.591 62.1018 250.56 63.7186 250.675 65.3652C250.675 65.3652 251.745 83.5146 258.101 98.768C264.456 114.021 269.544 121.046 284.123 119.874L293.69 119.106L303.87 119.909C318.458 121.061 328.796 110.698 332.139 95.908C335.483 81.1183 337.221 65.3385 337.221 65.3385C338.42 48.8996 325.402 35.3059 309.516 35.1352Z" fill="#BD2E2E"/>
<path d="M292.743 38.9491C292.743 38.9491 305.784 23.5596 321.871 23.5596C337.959 23.5596 351 35.1017 351 38.9491C351 42.7965 337.959 54.3386 321.871 54.3386C305.784 54.3384 292.743 38.9491 292.743 38.9491Z" fill="#8FB678"/>
<path d="M321.872 23.5596C317.508 23.5596 313.369 24.6933 309.652 26.3438C311.923 25.553 314.358 25.0552 316.892 25.0552C329.238 25.0552 339.247 33.9131 339.247 36.8659C339.247 39.8185 329.238 48.6766 316.892 48.6766C305.177 48.6766 295.567 38.0434 294.616 36.9568C293.406 38.167 292.743 38.9493 292.743 38.9493C292.743 38.9493 305.784 54.3389 321.871 54.3389C337.959 54.3389 351 42.7968 351 38.9493C351 35.1017 337.959 23.5596 321.872 23.5596Z" fill="#367A17"/>
<path d="M264.651 80.8977C263.466 80.8977 262.43 80.026 262.258 78.8184C261.294 72.0567 260.688 63.3055 264.583 55.5885C265.185 54.3955 266.64 53.9161 267.834 54.5185C269.027 55.1209 269.506 56.5764 268.904 57.7699C265.616 64.2832 266.186 72.075 267.05 78.1355C267.239 79.4588 266.319 80.6844 264.996 80.8731C264.88 80.8895 264.765 80.8977 264.651 80.8977Z" fill="white"/>
<path d="M273.036 50.5787C272.38 50.5787 271.726 50.3132 271.248 49.7901C270.347 48.8026 270.417 47.2719 271.404 46.371C271.539 46.2479 271.673 46.1244 271.806 46.0011C272.758 45.1236 273.836 44.1287 275.276 43.2786C276.427 42.5992 277.91 42.9807 278.59 44.1315C279.27 45.2823 278.888 46.7664 277.737 47.4463C276.74 48.0351 275.975 48.7415 275.088 49.5592C274.948 49.6881 274.808 49.817 274.667 49.9457C274.203 50.3697 273.619 50.5787 273.036 50.5787Z" fill="white"/>
<path d="M310.866 82.7596C310.064 82.7596 309.414 82.1094 309.414 81.3073V78.3789C309.414 77.5769 310.064 76.9267 310.866 76.9267C311.668 76.9267 312.319 77.5769 312.319 78.3789V81.3073C312.319 82.1094 311.668 82.7596 310.866 82.7596Z" fill="#AA2121"/>
<path d="M303.196 92.0476C302.394 92.0476 301.744 91.3974 301.744 90.5953V87.6669C301.744 86.8648 302.394 86.2146 303.196 86.2146C303.998 86.2146 304.648 86.8648 304.648 87.6669V90.5956C304.648 91.3974 303.998 92.0476 303.196 92.0476Z" fill="#AA2121"/>
<path d="M316.729 93.0018C315.927 93.0018 315.277 92.3516 315.277 91.5496V88.6212C315.277 87.8194 315.927 87.1689 316.729 87.1689C317.531 87.1689 318.182 87.8191 318.182 88.6212V91.5496C318.181 92.3516 317.531 93.0018 316.729 93.0018Z" fill="#AA2121"/>
<path d="M263.209 0.633016L265.334 6.60843C265.425 6.86414 265.605 7.06689 265.832 7.16931L271.141 9.56121C271.891 9.8992 271.891 11.0941 271.141 11.4321L265.832 13.824C265.605 13.9264 265.425 14.1291 265.334 14.3849L263.209 20.3603C262.908 21.2045 261.847 21.2045 261.546 20.3603L259.421 14.3849C259.33 14.1289 259.15 13.9264 258.923 13.824L253.614 11.4321C252.864 11.0941 252.864 9.8992 253.614 9.56121L258.923 7.16931C259.15 7.06689 259.33 6.86414 259.421 6.60843L261.546 0.633016C261.847 -0.211005 262.908 -0.211005 263.209 0.633016Z" fill="#FEF2A8"/>
<path d="M238.534 25.1859L240.111 29.6184C240.178 29.8083 240.312 29.9585 240.48 30.0344L244.418 31.8088C244.975 32.0593 244.975 32.9458 244.418 33.1966L240.48 34.9709C240.312 35.0469 240.178 35.1973 240.111 35.387L238.534 39.8195C238.311 40.4458 237.524 40.4458 237.301 39.8195L235.725 35.387C235.657 35.1971 235.524 35.0469 235.355 34.9709L231.417 33.1966C230.861 32.946 230.861 32.0596 231.417 31.8088L235.355 30.0344C235.524 29.9585 235.657 29.808 235.725 29.6184L237.301 25.1859C237.524 24.5598 238.311 24.5598 238.534 25.1859Z" fill="#FEF2A8"/>
<path d="M322.676 13.8651C324.574 13.8651 326.112 12.3268 326.112 10.4292C326.112 8.53158 324.574 6.99329 322.676 6.99329C320.779 6.99329 319.24 8.53158 319.24 10.4292C319.24 12.3268 320.779 13.8651 322.676 13.8651Z" fill="#EB4646"/>
</g>
<defs>
<filter id="filter0_d" x="85.2" y="28.376" width="133.487" height="51.002" filterUnits="userSpaceOnUse" color-interpolation-filters="sRGB">
<feFlood flood-opacity="0" result="BackgroundImageFix"/>
<feColorMatrix in="SourceAlpha" type="matrix" values="0 0 0 0 0 0 0 0 0 0 0 0 0 0 0 0 0 0 127 0"/>
<feOffset dy="4"/>
<feGaussianBlur stdDeviation="2"/>
<feColorMatrix type="matrix" values="0 0 0 0 0.120716 0 0 0 0 0.279167 0 0 0 0 0.117483 0 0 0 0.75 0"/>
<feBlend mode="normal" in2="BackgroundImageFix" result="effect1_dropShadow"/>
<feBlend mode="normal" in="SourceGraphic" in2="effect1_dropShadow" result="shape"/>
</filter>
<filter id="filter1_d" x="227" y="0" width="128" height="128" filterUnits="userSpaceOnUse" color-interpolation-filters="sRGB">
<feFlood flood-opacity="0" result="BackgroundImageFix"/>
<feColorMatrix in="SourceAlpha" type="matrix" values="0 0 0 0 0 0 0 0 0 0 0 0 0 0 0 0 0 0 127 0"/>
<feOffset dy="4"/>
<feGaussianBlur stdDeviation="2"/>
<feColorMatrix type="matrix" values="0 0 0 0 0 0 0 0 0 0 0 0 0 0 0 0 0 0 0.25 0"/>
<feBlend mode="normal" in2="BackgroundImageFix" result="effect1_dropShadow"/>
<feBlend mode="normal" in="SourceGraphic" in2="effect1_dropShadow" result="shape"/>
</filter>
</defs>
</svg>
