<?xml version="1.0" encoding="utf-8"?>
<!-- Generator: Adobe Illustrator 25.0.0, SVG Export Plug-In . SVG Version: 6.00 Build 0)  -->
<svg version="1.1" id="Capa_1" xmlns="http://www.w3.org/2000/svg" xmlns:xlink="http://www.w3.org/1999/xlink" x="0px" y="0px"
	 viewBox="0 0 512 512" style="enable-background:new 0 0 512 512;" xml:space="preserve">
<style type="text/css">
	.st0{fill:#FFB357;}
	.st1{fill:#FFCE71;}
	.st2{fill:#2D910D;}
	.st3{fill:#186006;}
	.st4{fill:#048E0E;}
	.st5{fill:#E8B5B1;}
	.st6{fill:#D6948C;}
	.st7{fill:#CE857A;}
	.st8{fill:#FCE3A0;}
</style>
<g>
	<g>
		<path class="st0" d="M137.3,240.2c-16.9,7.9-34.6,12.3-52.2,13.4c-18.2,1.2-22.3,26-5.4,32.9c24.3,9.8,52.5,9.9,78.2-2
			L137.3,240.2z"/>
		<path class="st1" d="M425.7,253.7c-17.6-1.2-35.3-5.5-52.2-13.4l-20.6,44.3c25.7,12,53.9,11.9,78.2,2
			C448,279.7,443.9,254.9,425.7,253.7L425.7,253.7z"/>
	</g>
	<g>
		<path class="st2" d="M185.6,137.2c58.4,58.4,55.5,99.6,28.2,126.9c-27.3,27.3-68.5,30.2-126.9-28.2S-10.8,94,16.4,66.7
			S127.2,78.8,185.6,137.2z"/>
		<path class="st2" d="M326.4,137.2c-58.4,58.4-55.5,99.6-28.2,126.9c27.3,27.3,68.5,30.2,126.9-28.2S522.9,94,495.6,66.7
			C468.4,39.5,384.8,78.8,326.4,137.2z"/>
	</g>
	<g>
		<path class="st3" d="M396.4,161.2c-6.1-5.6-15.6-5.1-21.1,1l-76.8,82.4l21.2,21.2l77.7-83.4C402.9,176.3,402.5,166.8,396.4,161.2
			L396.4,161.2z"/>
		<path class="st3" d="M114.4,161.2c-6.1,5.6-6.6,15-1,21.1l77.7,83.4l21.2-21.2l-76.8-82.4C129.9,156.1,120.5,155.7,114.4,161.2z"
			/>
	</g>
	<g>
		<path class="st4" d="M325.2,177.7c0,82.6-31.2,109.7-69.8,109.7s-69.8-27.1-69.8-109.7S216.8,8.2,255.4,8.2
			S325.2,95.1,325.2,177.7z"/>
		<path class="st3" d="M270.3,160.6c0-8.3-6.7-15-15-15c-8.3,0-15,6.7-15,15l-19.9,269.8h69.8C290.3,424.2,270.3,163.1,270.3,160.6z
			"/>
	</g>
	<g>
		<g>
			<g>
				<path class="st5" d="M262,387.8l25.5-11.4c8.2-3.7,17.7,0.7,20.3,9.3l10,65.4h-64.6v-49.7C253.3,395.5,256.7,390.2,262,387.8
					L262,387.8z"/>
			</g>
			<path class="st6" d="M255.7,385.6l-31.2-14c-10.3-4.6-23.3,1.1-25.2,13.9L187.4,461h79v-58.9C266.4,395,262.2,388.5,255.7,385.6z
				"/>
		</g>
		<path class="st6" d="M265,431.7l34.2-15.3c11-4.9,23.8,0.9,27.3,12.5l13.4,74.9h-86.7v-53.8C253.3,442.1,257.9,434.9,265,431.7
			L265,431.7z"/>
		<path class="st7" d="M261.5,472.6V466c0-9.8-5.7-18.6-14.7-22.6l-32.6-16.1c-13.7-6.1-29.6,1.2-33.9,15.5l-16.7,60.9h110.7
			C266.1,495.5,261.5,484.3,261.5,472.6L261.5,472.6z"/>
	</g>
	<g>
		<path class="st8" d="M203.5,267.9c5.7-17.5-16.4-30.7-29.2-17.5c-12.4,13-27.4,23.9-44.7,31.9S94.3,294.8,76.4,296
			c-18.3,1.2-22.4,26.7-5.4,33.6c24.8,10,53.5,10,79.6-2.1C176.8,315.3,195.2,293.2,203.5,267.9z"/>
		<path class="st8" d="M307.3,267.9c-5.7-17.5,16.4-30.7,29.2-17.5c12.4,13,27.4,23.9,44.7,31.9c17.3,8,35.3,12.5,53.2,13.7
			c18.3,1.2,22.4,26.7,5.4,33.6c-24.8,10-53.5,10-79.6-2.1C334,315.3,315.6,293.2,307.3,267.9L307.3,267.9z"/>
	</g>
	<path class="st1" d="M239.1,256.9c-0.7-20.5-28.5-25.7-36.7-7c-8,18.1-19.4,35-34.2,49.9c-10.7,10.7-22.6,19.7-35.2,26.8
		c-8.6,4.9-13.2,14.6-11.4,24.3c2.4,12.3,14.2,20.3,26.5,18.2c21.5-3.8,42.2-14,58.8-30.6C229.4,316.1,240.1,286.4,239.1,256.9
		L239.1,256.9z"/>
	<path class="st0" d="M271.6,256.9c0.7-20.5,28.5-25.7,36.7-7c8,18.1,19.4,35,34.2,49.9c10.7,10.7,22.6,19.7,35.2,26.8
		c8.6,4.9,13.2,14.6,11.4,24.3c-2.4,12.3-14.2,20.3-26.5,18.2c-21.5-3.8-42.2-14-58.8-30.6C281.3,316.1,270.6,286.4,271.6,256.9
		L271.6,256.9z"/>
	<path d="M469.5,50.4c-37.4,0.3-94.9,30.9-140.9,74.3c-5.9-38.2-17.4-73.1-31.8-95.3c-15.4-23.7-31-28.7-41.4-28.7
		c-10.4,0-26,5-41.4,28.7c-14.3,22-25.7,56.4-31.6,94.2C136.2,80.7,79,50.4,42.1,50.4c-27,0-42.1,16-42.1,42
		c0,24.5,12.9,52.9,23.8,72.4c1.4,2.5,3.9,3.8,6.5,3.8c1.2,0,2.5-0.3,3.6-0.9c3.6-2,4.9-6.6,2.9-10.2C22.7,132.2,15,109,15,92.4
		c0-58.8,102.2-12.8,165,49.7c-2.1,19.7-2.4,38.5-1.2,55.5l-33.2-35.6c-2.8-3-7.5-3.2-10.6-0.4c-3,2.8-3.2,7.5-0.4,10.6l47.4,50.9
		c1,5.1,2.1,9.9,3.5,14.4c-3,0.1-5.9,0.8-8.6,2l-58-62.3c-2.8-3-7.5-3.2-10.6-0.4c-3,2.8-3.2,7.5-0.4,10.6l57.3,61.5
		c-7.3,7.1-15.4,13.3-24.1,18.7c-28.2-13.6-61.8-45.8-88.7-85.2c-2.3-3.4-7-4.3-10.4-1.9c-3.4,2.3-4.3,7-1.9,10.4
		c14.2,20.7,30.2,39.6,46.6,55.2c-0.7,0.1-1.3,0.1-2,0.2c-23,1.5-30.8,29.9-14.3,43.4c-21.7,6.4-24.3,38-2,47
		c14.2,5.7,29.6,8.4,45.6,7.6c-1.6,19,15.2,35.9,35.6,32.4c27.7-4.8,52.7-19.5,70.6-41.2l-2,27.3c-13-0.5-24.1,8.6-26.1,21.7
		l-6.1,39.1c-6,4.1-10.5,10.2-12.6,17.3c0,0.1,0,0.1,0,0.2l-16.7,60.9c-1.3,4.8,2.3,9.5,7.2,9.5H340c4.7,0,8.2-4.2,7.4-8.8
		l-4.3-23.8c-0.7-4.1-4.6-6.8-8.7-6c-4.1,0.7-6.8,4.6-6,8.7l2.7,15h-53.4c-5.6-6.6-8.7-14.9-8.7-23.7V466c0-7.6-2.7-14.8-7.4-20.5
		c1.6-4.1,4.3-6,7.8-7.6h0l33-14.8c6.7-3,14.6,0.4,16.9,7.4l3.8,21.2c0.7,4.1,4.6,6.8,8.7,6c4.1-0.7,6.8-4.6,6-8.7
		c-4.1-23.1-3.9-21.8-4.1-22.5c-2.3-7.6-7.7-13.6-14.6-16.9l-3.9-25.3c-0.1-0.3-0.1-0.7-0.2-1c-2.8-9.3-11.3-16.1-21.7-15.8
		c-0.7-10.1-1.6-20.9-2.4-32.2c17.8,21.7,42.8,36.2,70.4,41c20.4,3.6,37.2-13.4,35.6-32.4c16,0.8,31.4-1.9,45.6-7.6
		c22.3-9,19.7-40.5-2-47c16.6-13.5,8.7-41.9-14.3-43.4c-0.2,0-0.4,0-0.7-0.1c11.3-10.7,22.5-23.2,33.2-36.8
		c26.8-34.4,46.1-71.9,51.7-100.3C517,74.9,503.9,50.3,469.5,50.4L469.5,50.4z M226.5,37.6c6.5-10,16.7-21.9,28.9-21.9
		c12.1,0,22.4,11.9,28.8,21.9c28.5,44,44.4,145.6,25.1,200.8c-6.7-6.5-16.4-9.2-26.2-6.4c-2.6-34.5-5.2-69.3-5.3-71.7
		c-0.1-4-3.4-7.3-7.5-7.3c-4.1,0-7.5,3.3-7.5,7.5c0,1,0.8,11.3,6,81.6c-2.8,4.1-4.5,9.1-4.7,14.5c-0.6,17.6,2.7,35,9.7,50.9
		c1.7,22.9,3.4,45.3,4.8,64.6l-17.5,7.8c-0.8-0.4-1.6-0.9-2.4-1.2c-0.4-0.2-17.4-7.8-26.1-11.7l4.4-59.8
		c6.8-15.8,10.1-33.1,9.5-50.6c-0.2-5.4-1.9-10.4-4.7-14.4l4.8-64.3c0.3-4.1-2.8-7.7-6.9-8c-4.1-0.3-7.7,2.8-8,6.9l-4.1,55.2
		c-9.7-2.8-19.4-0.3-26.2,6.3C182.1,183.2,198,81.6,226.5,37.6L226.5,37.6z M85.6,261.1c5.3-0.3,10.6-1,15.8-1.9
		c8.1,6.6,16,12.3,23.8,16.8c-8,3.7-16.4,6.6-25,8.7c-6.1-1.1-12-2.8-17.7-5.1C72.9,275.7,75.2,261.8,85.6,261.1L85.6,261.1z
		 M73.9,322.7c-9.7-3.9-7.4-18.5,3.1-19.2c39.1-2.6,75.6-19.6,102.8-47.9c3.6-3.7,8.4-3.9,12.4-1.4c-13.9,27.5-35.9,50.7-62.8,66
		c-3.8,2.1-7,5-9.6,8.5C104.2,330.6,88.4,328.5,73.9,322.7L73.9,322.7z M146.9,361.8c-16.9,3-25.5-19.9-10.2-28.6
		c32-18.1,57.8-46.6,72.6-80.2c5.1-11.6,22-8.3,22.4,4.2C233.4,308.1,197,353.1,146.9,361.8z M206.7,386.6
		c1.2-7.8,8.9-10.8,14.8-8.1c0.5,0.2,30.7,13.7,31.2,14c3.8,1.7,6.3,5.5,6.3,9.8v24.3c-4,2.4-7.3,5.9-9.6,9.9l-31.9-15.7
		c-0.1,0-0.2-0.1-0.3-0.1c-4.9-2.2-10.2-3.1-15.5-2.7L206.7,386.6z M173.4,496.3l14.1-51.3c3-9.9,14-15,23.5-10.8l32.4,16
		c0.1,0,0.2,0.1,0.3,0.1c6.2,2.8,10.2,9,10.2,15.8v6.6c0,8.4,2,16.5,5.7,23.7L173.4,496.3z M300.6,387.4l3.1,20
		c-2.5,0.4-5,1.1-7.4,2.1l-22.3,10v-17.4c0-3.7-0.8-7.3-2.3-10.5l17.9-8C295,381.2,299.2,383.5,300.6,387.4L300.6,387.4z
		 M363.9,361.8c-50.1-8.7-86.5-53.7-84.8-104.6c0.4-12.5,17.3-15.7,22.4-4.2c14,31.8,37.9,59.4,68.1,77.4c6,3.6,8.5,5.2,10.5,8.8
		C386.3,350.5,376.8,364.1,363.9,361.8L363.9,361.8z M436.9,322.7c-14.6,5.9-30.4,7.9-45.9,6c-3.8-5.1-8.5-7.9-13.8-11.1
		c-25.5-15.3-45.9-37.9-58.7-63.4c3.6-2.3,8.2-2.4,11.6,0.6c2.6,2.3,18.3,20.6,47.7,34.3c17.7,8.3,36.5,13.1,55.9,14.4
		C444.3,304.2,446.6,318.8,436.9,322.7z M425.2,261.1c10.4,0.7,12.7,14.6,3.1,18.5c-5.7,2.3-11.7,4-17.9,5.2
		c-8.2-2-16.3-4.8-24.1-8.3c7.9-4.6,16-10.3,24.3-17C415.4,260.2,420.3,260.8,425.2,261.1L425.2,261.1z M495.7,106.1
		c-5.1,26.2-23.3,61.3-48.8,94c-25,32.1-52.8,56.6-76.7,67.9c-11.6-7.1-19.8-14.3-24.7-19.1l47-50.5c2.8-3,2.6-7.8-0.4-10.6
		c-3-2.8-7.8-2.6-10.6,0.4l-47.8,51.3c-2.7-1.2-5.6-1.9-8.6-2c1.3-4.5,2.5-9.3,3.5-14.4l52-55.8c2.8-3,2.6-7.8-0.4-10.6
		c-3-2.8-7.8-2.6-10.6,0.4L332,197.7c1.2-16.7,0.9-35.1-1.1-54.3C375,99,434.1,65.7,469.6,65.4C494.4,65.1,500.4,81.8,495.7,106.1
		L495.7,106.1z"/>
</g>
</svg>
