<svg width="335" height="122" viewBox="0 0 335 122" fill="none" xmlns="http://www.w3.org/2000/svg">
<g filter="url(#filter0_d)">
<path d="M155.322 32.888H149.058L148.746 34.88C149.034 34.848 149.298 34.824 149.538 34.808C149.778 34.776 150.026 34.76 150.282 34.76C151.194 34.76 152.042 34.92 152.826 35.24C153.61 35.56 154.282 36 154.842 36.56C155.402 37.12 155.842 37.792 156.162 38.576C156.482 39.36 156.642 40.216 156.642 41.144C156.642 42.12 156.458 43 156.09 43.784C155.738 44.568 155.234 45.24 154.578 45.8C153.922 46.344 153.122 46.76 152.178 47.048C151.234 47.352 150.186 47.504 149.034 47.504C147.946 47.504 146.906 47.368 145.914 47.096C144.938 46.84 144.018 46.44 143.154 45.896L143.85 41.48C144.65 42.168 145.466 42.696 146.298 43.064C147.13 43.416 147.922 43.592 148.674 43.592C149.634 43.592 150.394 43.336 150.954 42.824C151.514 42.296 151.794 41.648 151.794 40.88C151.794 39.984 151.418 39.264 150.666 38.72C149.914 38.16 148.93 37.88 147.714 37.88C147.17 37.88 146.61 37.944 146.034 38.072C145.458 38.184 144.89 38.368 144.33 38.624L145.842 28.904H155.322V32.888ZM171.634 32.888H165.37L165.058 34.88C165.346 34.848 165.61 34.824 165.85 34.808C166.09 34.776 166.338 34.76 166.594 34.76C167.506 34.76 168.354 34.92 169.138 35.24C169.922 35.56 170.594 36 171.154 36.56C171.714 37.12 172.154 37.792 172.474 38.576C172.794 39.36 172.954 40.216 172.954 41.144C172.954 42.12 172.77 43 172.402 43.784C172.05 44.568 171.546 45.24 170.89 45.8C170.234 46.344 169.434 46.76 168.49 47.048C167.546 47.352 166.498 47.504 165.346 47.504C164.258 47.504 163.218 47.368 162.226 47.096C161.25 46.84 160.33 46.44 159.466 45.896L160.162 41.48C160.962 42.168 161.778 42.696 162.61 43.064C163.442 43.416 164.234 43.592 164.986 43.592C165.946 43.592 166.706 43.336 167.266 42.824C167.826 42.296 168.106 41.648 168.106 40.88C168.106 39.984 167.73 39.264 166.978 38.72C166.226 38.16 165.242 37.88 164.026 37.88C163.482 37.88 162.922 37.944 162.346 38.072C161.77 38.184 161.202 38.368 160.642 38.624L162.154 28.904H171.634V32.888ZM187.947 32.888H181.683L181.371 34.88C181.659 34.848 181.923 34.824 182.163 34.808C182.403 34.776 182.651 34.76 182.907 34.76C183.819 34.76 184.667 34.92 185.451 35.24C186.235 35.56 186.907 36 187.467 36.56C188.027 37.12 188.467 37.792 188.787 38.576C189.107 39.36 189.267 40.216 189.267 41.144C189.267 42.12 189.083 43 188.715 43.784C188.363 44.568 187.859 45.24 187.203 45.8C186.547 46.344 185.747 46.76 184.803 47.048C183.859 47.352 182.811 47.504 181.659 47.504C180.571 47.504 179.531 47.368 178.539 47.096C177.563 46.84 176.643 46.44 175.779 45.896L176.475 41.48C177.275 42.168 178.091 42.696 178.923 43.064C179.755 43.416 180.547 43.592 181.299 43.592C182.259 43.592 183.019 43.336 183.579 42.824C184.139 42.296 184.419 41.648 184.419 40.88C184.419 39.984 184.043 39.264 183.291 38.72C182.539 38.16 181.555 37.88 180.339 37.88C179.795 37.88 179.235 37.944 178.659 38.072C178.083 38.184 177.515 38.368 176.955 38.624L178.467 28.904H187.947V32.888ZM193.651 42.416H197.731L193.315 50.36H190.531L193.651 42.416ZM204.111 37.928C204.111 38.728 204.183 39.456 204.327 40.112C204.471 40.768 204.671 41.336 204.927 41.816C205.199 42.296 205.519 42.672 205.887 42.944C206.255 43.2 206.671 43.328 207.135 43.328C207.583 43.328 207.991 43.2 208.359 42.944C208.743 42.672 209.063 42.296 209.319 41.816C209.575 41.336 209.775 40.768 209.919 40.112C210.063 39.456 210.135 38.728 210.135 37.928C210.135 37.144 210.063 36.424 209.919 35.768C209.775 35.096 209.575 34.528 209.319 34.064C209.063 33.584 208.743 33.216 208.359 32.96C207.991 32.688 207.583 32.552 207.135 32.552C206.671 32.552 206.255 32.688 205.887 32.96C205.519 33.216 205.199 33.584 204.927 34.064C204.671 34.528 204.471 35.096 204.327 35.768C204.183 36.424 204.111 37.144 204.111 37.928ZM199.455 37.928C199.455 36.488 199.639 35.184 200.007 34.016C200.391 32.832 200.919 31.824 201.591 30.992C202.279 30.16 203.087 29.52 204.015 29.072C204.959 28.608 205.999 28.376 207.135 28.376C208.255 28.376 209.287 28.608 210.231 29.072C211.175 29.52 211.983 30.16 212.655 30.992C213.327 31.824 213.847 32.832 214.215 34.016C214.599 35.184 214.791 36.488 214.791 37.928C214.791 39.368 214.599 40.68 214.215 41.864C213.847 43.032 213.327 44.04 212.655 44.888C211.983 45.72 211.175 46.368 210.231 46.832C209.287 47.28 208.255 47.504 207.135 47.504C205.999 47.504 204.959 47.28 204.015 46.832C203.087 46.368 202.279 45.72 201.591 44.888C200.919 44.04 200.391 43.032 200.007 41.864C199.639 40.68 199.455 39.368 199.455 37.928ZM220.424 37.928C220.424 38.728 220.496 39.456 220.64 40.112C220.784 40.768 220.984 41.336 221.24 41.816C221.512 42.296 221.832 42.672 222.2 42.944C222.568 43.2 222.984 43.328 223.448 43.328C223.896 43.328 224.304 43.2 224.672 42.944C225.056 42.672 225.376 42.296 225.632 41.816C225.888 41.336 226.088 40.768 226.232 40.112C226.376 39.456 226.448 38.728 226.448 37.928C226.448 37.144 226.376 36.424 226.232 35.768C226.088 35.096 225.888 34.528 225.632 34.064C225.376 33.584 225.056 33.216 224.672 32.96C224.304 32.688 223.896 32.552 223.448 32.552C222.984 32.552 222.568 32.688 222.2 32.96C221.832 33.216 221.512 33.584 221.24 34.064C220.984 34.528 220.784 35.096 220.64 35.768C220.496 36.424 220.424 37.144 220.424 37.928ZM215.768 37.928C215.768 36.488 215.952 35.184 216.32 34.016C216.704 32.832 217.232 31.824 217.904 30.992C218.592 30.16 219.4 29.52 220.328 29.072C221.272 28.608 222.312 28.376 223.448 28.376C224.568 28.376 225.6 28.608 226.544 29.072C227.488 29.52 228.296 30.16 228.968 30.992C229.64 31.824 230.16 32.832 230.528 34.016C230.912 35.184 231.104 36.488 231.104 37.928C231.104 39.368 230.912 40.68 230.528 41.864C230.16 43.032 229.64 44.04 228.968 44.888C228.296 45.72 227.488 46.368 226.544 46.832C225.6 47.28 224.568 47.504 223.448 47.504C222.312 47.504 221.272 47.28 220.328 46.832C219.4 46.368 218.592 45.72 217.904 44.888C217.232 44.04 216.704 43.032 216.32 41.864C215.952 40.68 215.768 39.368 215.768 37.928ZM236.736 37.928C236.736 38.728 236.808 39.456 236.952 40.112C237.096 40.768 237.296 41.336 237.552 41.816C237.824 42.296 238.144 42.672 238.512 42.944C238.88 43.2 239.296 43.328 239.76 43.328C240.208 43.328 240.616 43.2 240.984 42.944C241.368 42.672 241.688 42.296 241.944 41.816C242.2 41.336 242.4 40.768 242.544 40.112C242.688 39.456 242.76 38.728 242.76 37.928C242.76 37.144 242.688 36.424 242.544 35.768C242.4 35.096 242.2 34.528 241.944 34.064C241.688 33.584 241.368 33.216 240.984 32.96C240.616 32.688 240.208 32.552 239.76 32.552C239.296 32.552 238.88 32.688 238.512 32.96C238.144 33.216 237.824 33.584 237.552 34.064C237.296 34.528 237.096 35.096 236.952 35.768C236.808 36.424 236.736 37.144 236.736 37.928ZM232.08 37.928C232.08 36.488 232.264 35.184 232.632 34.016C233.016 32.832 233.544 31.824 234.216 30.992C234.904 30.16 235.712 29.52 236.64 29.072C237.584 28.608 238.624 28.376 239.76 28.376C240.88 28.376 241.912 28.608 242.856 29.072C243.8 29.52 244.608 30.16 245.28 30.992C245.952 31.824 246.472 32.832 246.84 34.016C247.224 35.184 247.416 36.488 247.416 37.928C247.416 39.368 247.224 40.68 246.84 41.864C246.472 43.032 245.952 44.04 245.28 44.888C244.608 45.72 243.8 46.368 242.856 46.832C241.912 47.28 240.88 47.504 239.76 47.504C238.624 47.504 237.584 47.28 236.64 46.832C235.712 46.368 234.904 45.72 234.216 44.888C233.544 44.04 233.016 43.032 232.632 41.864C232.264 40.68 232.08 39.368 232.08 37.928ZM146.832 68.264H147.606C148.494 68.264 149.13 68.15 149.514 67.922C149.898 67.694 150.09 67.328 150.09 66.824C150.09 66.32 149.898 65.954 149.514 65.726C149.13 65.498 148.494 65.384 147.606 65.384H146.832V68.264ZM146.832 62.756H147.48C148.584 62.756 149.136 62.318 149.136 61.442C149.136 60.566 148.584 60.128 147.48 60.128H146.832V62.756ZM143.304 57.428H148.56C149.808 57.428 150.756 57.728 151.404 58.328C152.052 58.928 152.376 59.792 152.376 60.92C152.376 61.604 152.25 62.174 151.998 62.63C151.758 63.074 151.386 63.452 150.882 63.764C151.386 63.86 151.812 64.01 152.16 64.214C152.52 64.406 152.808 64.646 153.024 64.934C153.252 65.222 153.414 65.546 153.51 65.906C153.606 66.266 153.654 66.65 153.654 67.058C153.654 67.694 153.54 68.258 153.312 68.75C153.096 69.242 152.784 69.656 152.376 69.992C151.98 70.328 151.494 70.58 150.918 70.748C150.342 70.916 149.694 71 148.974 71H143.304V57.428ZM162.953 65.96L161.369 61.442L159.785 65.96H162.953ZM163.889 68.642H158.849L158.039 71H154.277L159.443 57.428H163.295L168.461 71H164.699L163.889 68.642ZM170.005 71V57.428H173.533L180.049 65.726V57.428H183.559V71H180.049L173.533 62.702V71H170.005ZM193.82 65.96L192.236 61.442L190.652 65.96H193.82ZM194.756 68.642H189.716L188.906 71H185.144L190.31 57.428H194.162L199.328 71H195.566L194.756 68.642ZM200.872 71V57.428H204.4L210.916 65.726V57.428H214.426V71H210.916L204.4 62.702V71H200.872ZM224.687 65.96L223.103 61.442L221.519 65.96H224.687ZM225.623 68.642H220.583L219.773 71H216.011L221.177 57.428H225.029L230.195 71H226.433L225.623 68.642ZM239.191 60.902C238.807 60.59 238.423 60.362 238.039 60.218C237.655 60.062 237.283 59.984 236.923 59.984C236.467 59.984 236.095 60.092 235.807 60.308C235.519 60.524 235.375 60.806 235.375 61.154C235.375 61.394 235.447 61.592 235.591 61.748C235.735 61.904 235.921 62.042 236.149 62.162C236.389 62.27 236.653 62.366 236.941 62.45C237.241 62.534 237.535 62.624 237.823 62.72C238.975 63.104 239.815 63.62 240.343 64.268C240.883 64.904 241.153 65.738 241.153 66.77C241.153 67.466 241.033 68.096 240.793 68.66C240.565 69.224 240.223 69.71 239.767 70.118C239.323 70.514 238.771 70.82 238.111 71.036C237.463 71.264 236.725 71.378 235.897 71.378C234.181 71.378 232.591 70.868 231.127 69.848L232.639 67.004C233.167 67.472 233.689 67.82 234.205 68.048C234.721 68.276 235.231 68.39 235.735 68.39C236.311 68.39 236.737 68.258 237.013 67.994C237.301 67.73 237.445 67.43 237.445 67.094C237.445 66.89 237.409 66.716 237.337 66.572C237.265 66.416 237.145 66.278 236.977 66.158C236.809 66.026 236.587 65.906 236.311 65.798C236.047 65.69 235.723 65.57 235.339 65.438C234.883 65.294 234.433 65.138 233.989 64.97C233.557 64.79 233.167 64.556 232.819 64.268C232.483 63.98 232.207 63.62 231.991 63.188C231.787 62.744 231.685 62.186 231.685 61.514C231.685 60.842 231.793 60.236 232.009 59.696C232.237 59.144 232.549 58.676 232.945 58.292C233.353 57.896 233.845 57.59 234.421 57.374C235.009 57.158 235.663 57.05 236.383 57.05C237.055 57.05 237.757 57.146 238.489 57.338C239.221 57.518 239.923 57.788 240.595 58.148L239.191 60.902Z" fill="white"/>
</g>
<path d="M81.8716 92.2263C53.5743 121.401 8.9214 121.77 3.82656 105.963C-0.559534 92.3559 20.4461 92.8286 48.7434 63.6539C77.0409 34.4793 75.6538 -1.29448 87.9236 1.24614C104.602 4.69989 110.169 63.0515 81.8716 92.2263Z" fill="#FEF2A8"/>
<path d="M92.0856 3.40723C101.251 13.6635 96.7687 56.5576 71.7213 82.3818C44.0441 110.917 7.48681 116.91 3.4715 104.642C3.5622 105.068 3.67845 105.507 3.8254 105.963C8.92025 121.77 53.5731 121.401 81.8706 92.2262C107.656 65.6415 105.322 14.8328 92.0856 3.40723Z" fill="#EEB6A8"/>
<path d="M81.7701 93.2654C52.7268 121.698 8.92044 121.77 3.8256 105.963C-0.183154 93.5265 16.652 92.4828 41.4939 70.6604C42.8493 69.4698 67.1176 72.3631 67.1176 72.3631C70.5943 73.3541 106.305 69.2467 81.7701 93.2654Z" fill="#FFE266"/>
<path d="M67.1176 72.3633C67.1176 72.3633 42.8493 69.4699 41.4939 70.6608C39.4459 72.4598 37.4537 74.115 35.5218 75.6497C39.3763 75.4898 52.108 77.0076 52.108 77.0076C54.5012 77.6899 79.0839 74.8622 62.1946 91.3966C42.2017 110.969 12.0456 111.018 8.53841 100.138C7.04005 95.4897 9.77263 93.1528 15.3189 89.5842C6.1663 95.385 1.50575 98.7668 3.8256 105.964C8.92044 121.77 52.7268 121.698 81.77 93.266C106.305 69.2468 70.5943 73.3542 67.1176 72.3633Z" fill="#EFAA66"/>
<path d="M69.6191 71.7725C72.6716 65.469 55.7861 40.325 45.8657 41.8642C35.9453 43.4031 4.81792 66.261 8.90566 71.9743C12.2031 76.5828 26.619 71.0877 41.7751 71.2149C54.5286 71.3218 67.5723 75.9992 69.6191 71.7725Z" fill="#FFE266"/>
<path d="M69.5746 70.2761C75.8781 67.2236 101.345 75.8983 99.8061 85.8184C98.2672 95.7388 87.8094 123.138 80.8555 121C77.6108 120.002 76.4874 106.716 73.1731 95.5656C69.6289 83.6408 64.7945 72.5908 69.5746 70.2761Z" fill="#FFE266"/>
<path d="M25.9813 107.033C25.3497 107.033 24.7738 106.607 24.6095 105.967C24.415 105.209 24.8723 104.437 25.6302 104.242C34.2384 102.035 50.1161 96.3512 59.7381 83.0937C60.1982 82.4602 61.0844 82.3196 61.7177 82.7792C62.3512 83.2391 62.4918 84.1252 62.0322 84.7588C57.6152 90.8445 51.5828 96.0015 44.103 100.087C38.7337 103.019 32.7555 105.341 26.3343 106.988C26.2164 107.018 26.0978 107.033 25.9813 107.033Z" fill="#D0844B"/>
<path d="M17.3853 108.703C16.6674 108.703 16.0517 108.16 15.9772 107.43C15.8975 106.651 16.464 105.955 17.2424 105.876C17.2529 105.875 18.3113 105.764 20.0874 105.449C20.8585 105.313 21.5938 105.827 21.7302 106.598C21.8668 107.368 21.3528 108.104 20.582 108.24C18.6917 108.576 17.5775 108.691 17.5309 108.696C17.4821 108.701 17.4334 108.703 17.3853 108.703Z" fill="#D0844B"/>
<path d="M85.4926 17.6833C85.4661 17.6833 85.4397 17.6828 85.4127 17.6821C84.1089 17.6388 83.087 16.5466 83.1304 15.2428C83.1561 14.4649 83.1693 13.6729 83.1693 12.8887C83.1693 11.5842 84.2268 10.5267 85.5313 10.5267C86.8358 10.5267 87.8933 11.5842 87.8933 12.8887C87.8933 13.725 87.8795 14.5696 87.8518 15.3996C87.8096 16.6767 86.7608 17.6833 85.4926 17.6833Z" fill="white"/>
<path d="M70.5951 55.9895C69.9515 55.9895 69.3105 55.7282 68.8443 55.214C67.9694 54.2488 68.0411 52.7582 69.0034 51.8814C69.1089 51.7848 79.5857 42.0004 82.4427 22.8714C82.6354 21.5811 83.8389 20.6926 85.1277 20.8841C86.418 21.0768 87.3076 22.2791 87.115 23.5691C83.995 44.4594 72.6616 54.9416 72.1806 55.3775C71.7285 55.7875 71.1609 55.9895 70.5951 55.9895Z" fill="white"/>
<path d="M58.1886 98.3685C57.7693 98.3685 57.3545 98.1834 57.0746 97.8285C56.5902 97.214 56.6954 96.3229 57.31 95.8382C57.3428 95.8122 60.6226 93.2125 62.4615 90.6965C62.9237 90.0646 63.8101 89.9268 64.4422 90.3885C65.0741 90.8505 65.2119 91.7371 64.7502 92.3692C62.6792 95.2026 59.2112 97.949 59.0647 98.0645C58.8048 98.2694 58.4954 98.3685 58.1886 98.3685Z" fill="#D0844B"/>
<path d="M48.4638 104.844C47.9613 104.844 47.4745 104.576 47.2176 104.104C46.8435 103.416 47.0978 102.556 47.7853 102.182C48.8484 101.604 50.5387 100.61 50.9678 100.213C51.5425 99.6819 52.4392 99.7166 52.9706 100.291C53.5021 100.866 53.4672 101.762 52.8927 102.294C52.0523 103.071 49.6188 104.411 49.1397 104.672C48.9245 104.789 48.6925 104.844 48.4638 104.844Z" fill="#D0844B"/>
<path d="M44.1585 6.8897L46.1106 12.3788C46.1943 12.6138 46.3595 12.7999 46.5684 12.8942L51.4452 15.0914C52.1343 15.4017 52.1343 16.4995 51.4452 16.8101L46.5684 19.0074C46.3595 19.1013 46.1941 19.2877 46.1106 19.5228L44.1585 25.0118C43.8827 25.7874 42.9074 25.7874 42.6316 25.0118L40.6795 19.5228C40.5958 19.2877 40.4305 19.1016 40.2215 19.0074L35.3446 16.8101C34.6556 16.4998 34.6556 15.402 35.3446 15.0914L40.2215 12.8942C40.4303 12.8002 40.5958 12.6138 40.6795 12.3788L42.6316 6.8897C42.9074 6.11416 43.8829 6.11416 44.1585 6.8897Z" fill="#FEF2A8"/>
<path d="M6.92127 30.6833L8.36924 34.7551C8.43135 34.9294 8.55393 35.0675 8.70885 35.1373L12.3264 36.7672C12.8376 36.9973 12.8376 37.8118 12.3264 38.0419L8.70885 39.6718C8.55393 39.7416 8.43111 39.8797 8.36924 40.054L6.92127 44.1258C6.71666 44.701 5.99315 44.701 5.78854 44.1258L4.34057 40.054C4.27846 39.8797 4.15588 39.7416 4.00096 39.6718L0.383379 38.0419C-0.127793 37.8118 -0.127793 36.9973 0.383379 36.7672L4.00096 35.1373C4.15588 35.0675 4.27869 34.9294 4.34057 34.7551L5.78854 30.6833C5.99338 30.1081 6.71666 30.1081 6.92127 30.6833Z" fill="#FEF2A8"/>
<path d="M19.1129 26.2559C19.4788 24.7145 18.526 23.1684 16.9846 22.8025C15.4433 22.4365 13.8972 23.3894 13.5312 24.9307C13.1653 26.4721 14.1182 28.0182 15.6595 28.3841C17.2008 28.7501 18.747 27.7972 19.1129 26.2559Z" fill="#FFE266"/>
<defs>
<filter id="filter0_d" x="139.154" y="28.376" width="112.263" height="51.002" filterUnits="userSpaceOnUse" color-interpolation-filters="sRGB">
<feFlood flood-opacity="0" result="BackgroundImageFix"/>
<feColorMatrix in="SourceAlpha" type="matrix" values="0 0 0 0 0 0 0 0 0 0 0 0 0 0 0 0 0 0 127 0"/>
<feOffset dy="4"/>
<feGaussianBlur stdDeviation="2"/>
<feColorMatrix type="matrix" values="0 0 0 0 0.120716 0 0 0 0 0.279167 0 0 0 0 0.117483 0 0 0 0.75 0"/>
<feBlend mode="normal" in2="BackgroundImageFix" result="effect1_dropShadow"/>
<feBlend mode="normal" in="SourceGraphic" in2="effect1_dropShadow" result="shape"/>
</filter>
</defs>
</svg>
