<svg width="102" height="102" viewBox="0 0 102 102" fill="none" xmlns="http://www.w3.org/2000/svg">
<g filter="url(#filter0_d)">
<g clip-path="url(#clip0)">
<path d="M62.1483 8.43723C61.3723 7.68545 60.1338 7.70526 59.382 8.48125C58.6486 9.23835 58.6469 10.4404 59.3782 11.1995C61.0881 12.9367 60.9628 19.3965 60.8375 26.232C60.7944 28.4388 60.7515 30.7981 60.7515 33.2748C60.7515 46.5543 51.0246 57.5528 34.7322 62.7098C14.5585 69.0797 10.5755 74.6553 10.192 75.2695C9.9948 75.5822 9.89044 75.9444 9.89063 76.3142V80.2268C9.89063 81.3072 10.7666 82.1832 11.847 82.1832C40.7538 82.1401 72.4933 58.5937 72.4933 37.1876C72.4778 21.9752 68.35 14.6897 62.1483 8.43723Z" fill="#FFA000"/>
<path d="M92.0414 33.2748C91.3947 26.2494 88.4837 19.6243 83.7465 14.3963C81.1289 11.3132 77.6871 9.0399 73.824 7.84263C71.6501 7.20603 69.6561 6.06836 68.002 4.52078C67.3419 3.8563 66.3035 3.75304 65.5253 4.27428L59.6563 8.18688C58.7571 8.78589 58.5139 10.0004 59.1129 10.8996C59.1837 11.006 59.2649 11.1052 59.355 11.1957C65.04 16.9042 68.5654 23.2506 68.5654 37.1874C68.5654 56.3594 38.3401 78.2313 11.8319 78.2704C10.7514 78.2704 9.87549 79.1463 9.87549 80.2268V84.1394C9.87567 84.8526 10.2639 85.5092 10.8888 85.8531C12.5556 86.7648 13.968 87.6217 15.2592 88.4003C21.1139 92.4792 28.19 94.4279 35.3077 93.921C52.1579 93.1884 68.0739 85.9749 79.7321 73.7865C88.5004 65.022 92.6439 51.7974 92.0726 34.4877C92.057 33.9714 92.0414 33.5606 92.0414 33.2748Z" fill="#FFC107"/>
<path d="M60.7246 0.0172381C59.4602 -0.0953732 58.2092 0.347186 57.2971 1.2301C56.5757 2.23829 56.354 3.52048 56.6946 4.71243C56.7626 5.10034 56.8019 5.49264 56.812 5.88623C56.4919 8.80752 58.6007 11.4352 61.5222 11.7552C61.9074 11.7974 62.296 11.7974 62.681 11.7552C65.6023 12.0753 68.2299 9.96647 68.55 7.04499C68.5922 6.65984 68.5922 6.2712 68.55 5.88623C68.55 2.59574 65.1107 0.0172381 60.7246 0.0172381Z" fill="#8D6E63"/>
</g>
</g>
<defs>
<filter id="filter0_d" x="0" y="0" width="102" height="102" filterUnits="userSpaceOnUse" color-interpolation-filters="sRGB">
<feFlood flood-opacity="0" result="BackgroundImageFix"/>
<feColorMatrix in="SourceAlpha" type="matrix" values="0 0 0 0 0 0 0 0 0 0 0 0 0 0 0 0 0 0 127 0"/>
<feOffset dy="4"/>
<feGaussianBlur stdDeviation="2"/>
<feColorMatrix type="matrix" values="0 0 0 0 0 0 0 0 0 0 0 0 0 0 0 0 0 0 0.25 0"/>
<feBlend mode="normal" in2="BackgroundImageFix" result="effect1_dropShadow"/>
<feBlend mode="normal" in="SourceGraphic" in2="effect1_dropShadow" result="shape"/>
</filter>
<clipPath id="clip0">
<rect x="4" width="94" height="94" rx="15" fill="white"/>
</clipPath>
</defs>
</svg>
