<?xml version="1.0" encoding="utf-8"?>
<!-- Generator: Adobe Illustrator 25.0.0, SVG Export Plug-In . SVG Version: 6.00 Build 0)  -->
<svg version="1.1" id="Layer_1" xmlns="http://www.w3.org/2000/svg" xmlns:xlink="http://www.w3.org/1999/xlink" x="0px" y="0px"
	 viewBox="0 0 648.7 833.1" style="enable-background:new 0 0 648.7 833.1;" xml:space="preserve">
<style type="text/css">
	.st0{fill:none;stroke:#000000;stroke-width:10.83;stroke-linecap:round;stroke-miterlimit:10;}
	.st1{fill:#7AD35E;stroke:#000000;stroke-width:10.83;stroke-linecap:round;stroke-miterlimit:10;}
	.st2{fill:#7AD35E;stroke:#000000;stroke-width:6.34;stroke-linecap:round;stroke-miterlimit:10;}
	.st3{fill:none;stroke:#000000;stroke-width:6.34;stroke-linecap:round;stroke-miterlimit:10;}
	.st4{fill:#7AD35E;stroke:#000000;stroke-width:6.98;stroke-linecap:round;stroke-miterlimit:10;}
	.st5{fill:none;stroke:#000000;stroke-width:6.98;stroke-linecap:round;stroke-miterlimit:10;}
	.st6{fill:#7AD35E;stroke:#000000;stroke-width:9;stroke-linecap:round;stroke-miterlimit:10;}
	.st7{fill:#7AD35E;stroke:#000000;stroke-width:8.77;stroke-linecap:round;stroke-miterlimit:10;}
	.st8{fill:none;stroke:#000000;stroke-width:8.77;stroke-linecap:round;stroke-miterlimit:10;}
	.st9{fill:#7AD35E;stroke:#000000;stroke-width:5.02;stroke-linecap:round;stroke-miterlimit:10;}
	.st10{fill:none;stroke:#000000;stroke-width:5.02;stroke-linecap:round;stroke-miterlimit:10;}
	.st11{fill:none;stroke:#000000;stroke-width:7.59;stroke-linecap:round;stroke-miterlimit:10;}
	.st12{fill:#7AD35E;stroke:#000000;stroke-width:7.59;stroke-linecap:round;stroke-miterlimit:10;}
	.st13{fill:#7AD35E;stroke:#000000;stroke-width:4.44;stroke-linecap:round;stroke-miterlimit:10;}
	.st14{fill:none;stroke:#000000;stroke-width:4.44;stroke-linecap:round;stroke-miterlimit:10;}
	.st15{fill:#7AD35E;stroke:#000000;stroke-width:4.9;stroke-linecap:round;stroke-miterlimit:10;}
	.st16{fill:none;stroke:#000000;stroke-width:4.9;stroke-linecap:round;stroke-miterlimit:10;}
	.st17{fill:#7AD35E;stroke:#000000;stroke-width:6.15;stroke-linecap:round;stroke-miterlimit:10;}
	.st18{fill:none;stroke:#000000;stroke-width:6.15;stroke-linecap:round;stroke-miterlimit:10;}
	.st19{fill:#7AD35E;stroke:#000000;stroke-width:3.52;stroke-linecap:round;stroke-miterlimit:10;}
	.st20{fill:none;stroke:#000000;stroke-width:3.52;stroke-linecap:round;stroke-miterlimit:10;}
	.st21{fill:none;stroke:#000000;stroke-width:8.52;stroke-linecap:round;stroke-miterlimit:10;}
	.st22{fill:#7AD35E;stroke:#000000;stroke-width:8.52;stroke-linecap:round;stroke-miterlimit:10;}
	.st23{fill:#7AD35E;stroke:#000000;stroke-width:4.99;stroke-linecap:round;stroke-miterlimit:10;}
	.st24{fill:none;stroke:#000000;stroke-width:4.99;stroke-linecap:round;stroke-miterlimit:10;}
	.st25{fill:#7AD35E;stroke:#000000;stroke-width:5.49;stroke-linecap:round;stroke-miterlimit:10;}
	.st26{fill:none;stroke:#000000;stroke-width:5.49;stroke-linecap:round;stroke-miterlimit:10;}
	.st27{fill:#7AD35E;stroke:#000000;stroke-width:6.9;stroke-linecap:round;stroke-miterlimit:10;}
	.st28{fill:none;stroke:#000000;stroke-width:6.9;stroke-linecap:round;stroke-miterlimit:10;}
	.st29{fill:#7AD35E;stroke:#000000;stroke-width:3.95;stroke-linecap:round;stroke-miterlimit:10;}
	.st30{fill:none;stroke:#000000;stroke-width:3.95;stroke-linecap:round;stroke-miterlimit:10;}
</style>
<g id="Layer_2_1_">
	<g id="basil">
		<path class="st0" d="M148.5,206.9c24.6,18.8,51.8,55.9,68.5,94.9s56.3,76.6,56.3,76.6C223.6,629.9,500.5,802,529.1,827.7"/>
		<path class="st1" d="M272.2,373.4c0,0-34.3-18.6-35.4-93.7s58.8-99.8,58.8-99.8s37.7,27.7,26.4,103.2S272.2,373.4,272.2,373.4z"/>
		<path class="st0" d="M292.5,189.1c-2.3,5.1-21,149-20.7,166.7l0.4,17.6"/>
		<path class="st0" d="M262.4,228.4c2.5,8.4,19.7,32.2,19.7,32.2"/>
		<path class="st0" d="M310.6,231.2c-4,7.8-25.1,28.2-25.1,28.2"/>
		<path class="st0" d="M309.7,276.2c-4,7.8-28.2,20-28.2,20"/>
		<path class="st0" d="M303,305.9c-4,7.8-28.2,20-28.2,20"/>
		<path class="st0" d="M248.2,264.1c3,5.6,21,26.6,25.2,29.3"/>
		<path class="st0" d="M247.9,309c7.4,7.4,24.1,18,24.1,18"/>
		<path class="st1" d="M422.2,731.1c0,0-34.3-18.6-35.4-93.7s58.7-99.8,58.7-99.8s37.7,27.7,26.5,103.2S422.2,731.1,422.2,731.1z"/>
		<path class="st0" d="M442.5,546.8c-2.3,5.1-21,149-20.7,166.7l0.4,17.7"/>
		<path class="st0" d="M412.4,586c2.5,8.3,19.7,32.2,19.7,32.2"/>
		<path class="st0" d="M460.5,588.9c-4,7.8-25.1,28.2-25.1,28.2"/>
		<path class="st0" d="M459.7,633.9c-4,7.8-28.2,20-28.2,20"/>
		<path class="st0" d="M453,663.6c-4,7.8-28.2,20-28.2,20"/>
		<path class="st0" d="M398.2,621.8c3,5.6,21,26.5,25.2,29.3"/>
		<path class="st0" d="M397.9,666.7c7.4,7.3,24.1,17.9,24.1,17.9"/>
		<path class="st2" d="M258.1,374c0,0-16.3,16-58.5,3.7s-45.7-50.1-45.7-50.1s22-16.3,62.3,3S258.1,374,258.1,374z"/>
		<path class="st3" d="M158.5,330.9c2.4,2.2,79.7,37.4,89.7,40.3l9.9,2.9"/>
		<path class="st3" d="M175.3,354.5c5.1,0,21.4-5.5,21.4-5.5"/>
		<path class="st3" d="M185.2,328c3.7,3.5,11.4,18.9,11.4,18.9"/>
		<path class="st3" d="M210.2,336.3c3.7,3.5,6.3,19.2,6.3,19.2"/>
		<path class="st3" d="M225.6,345.1c3.7,3.5,6.3,19.2,6.3,19.2"/>
		<path class="st3" d="M192.8,368.6c3.7-0.7,18.5-7.2,20.8-9.1"/>
		<path class="st3" d="M217.9,376.5c5.4-2.9,14.2-10.4,14.2-10.4"/>
		<path class="st4" d="M267.1,374c0,0,16.7-18.9,64-8.7s54.2,51.4,54.2,51.4s-22.9,19.7-68.7,1.6S267.1,374,267.1,374z"/>
		<path class="st5" d="M380,413.5c-2.9-2.2-90.6-34.8-101.8-37.1l-11.1-2.3"/>
		<path class="st5" d="M359.7,388.9c-5.6,0.4-23.1,7.7-23.1,7.7"/>
		<path class="st5" d="M350.9,418.8c-4.3-3.6-14.1-19.9-14.1-19.9"/>
		<path class="st5" d="M322.7,411.7c-4.3-3.6-8.5-20.6-8.5-20.6"/>
		<path class="st5" d="M305,403.2c-4.3-3.6-8.5-20.6-8.5-20.6"/>
		<path class="st5" d="M339.2,374.8c-4,1-19.7,9.4-22.1,11.6"/>
		<path class="st5" d="M311.1,368.1c-5.7,3.6-14.8,12.5-14.8,12.5"/>
		<path class="st6" d="M272.4,369.5c0,0,29.6,25.4,15,99s-78.3,85.3-78.3,85.3s-31.1-35-4.3-106.5S272.4,369.5,272.4,369.5z"/>
		<path class="st0" d="M214,545.5c3.3-4.5,51.7-141.3,55-158.7l3.3-17.3"/>
		<path class="st0" d="M251.7,513.3c-0.7-8.7-12.6-35.6-12.6-35.6"/>
		<path class="st0" d="M205.2,500.5c5.5-6.8,30.5-22.3,30.5-22.3"/>
		<path class="st0" d="M215.4,456.6c5.5-6.8,31.8-13.7,31.8-13.7"/>
		<path class="st0" d="M228.1,429c5.5-6.8,31.8-13.7,31.8-13.7"/>
		<path class="st0" d="M273,481.3c-1.7-6.1-15-30.4-18.6-34"/>
		<path class="st0" d="M282.7,437.5c-5.7-8.7-19.8-22.6-19.8-22.6"/>
		<path class="st1" d="M413.8,732.7c0,0-21.8,32.4-96.6,26.3s-93.7-68-93.7-68s31.1-34.9,105.3-16.5S413.8,732.7,413.8,732.7z"/>
		<path class="st0" d="M232.3,694.9c4.9,2.8,146.3,35.1,163.9,36.5l17.6,1.3"/>
		<path class="st0" d="M268.5,728.7c8.5-1.7,33.9-16.6,33.9-16.6"/>
		<path class="st0" d="M276,681c7.4,4.7,25.6,27.7,25.6,27.7"/>
		<path class="st0" d="M320.7,686.1c7.4,4.7,17.2,30,17.2,30"/>
		<path class="st0" d="M349.6,695.6c7.4,4.7,17.2,30,17.2,30"/>
		<path class="st0" d="M302.8,746.2c5.9-2.4,28.4-18.4,31.6-22.3"/>
		<path class="st0" d="M347.4,750.8c8-6.7,20.1-22.3,20.1-22.3"/>
		<path class="st7" d="M156.9,209.9c0,0-13.6-28.5,21.3-78.3s85.9-37.6,85.9-37.6s11.6,36.1-31.7,80.3S156.9,209.9,156.9,209.9z"/>
		<path class="st8" d="M257.7,98.6c-3.9,2.2-84.6,87.8-92.7,99.5l-8.2,11.7"/>
		<path class="st8" d="M219.3,110.1c-2.3,6.7-2.3,30.5-2.3,30.5"/>
		<path class="st8" d="M249.6,134.9c-6.3,3.2-29.9,6.6-29.9,6.6"/>
		<path class="st8" d="M227.6,164c-6.3,3.2-28-0.3-28-0.3"/>
		<path class="st8" d="M209.1,180.3c-6.3,3.2-28-0.3-28-0.3"/>
		<path class="st8" d="M193,126.8c-0.7,5.1,1.2,27.4,2.6,31.2"/>
		<path class="st8" d="M171.5,156.1c1.4,8.3,7.3,23.2,7.3,23.2"/>
		<path class="st7" d="M162,208.2c0,0-8.6-30.4-67.7-44.6S5,192.3,5,192.3s15.2,34.7,76.9,39.2S162,208.2,162,208.2z"/>
		<path class="st8" d="M12.8,191.5c4.4-0.9,121.5,9.9,135.4,13.3l13.9,3.4"/>
		<path class="st8" d="M49.2,174.7c6.1,3.5,21.9,21.3,21.9,21.3"/>
		<path class="st8" d="M42.9,213.3c6.8-1.8,26.7-14.9,26.7-14.9"/>
		<path class="st8" d="M78.6,220.6c6.8-1.7,20.8-18.7,20.8-18.7"/>
		<path class="st8" d="M103.2,220.6c6.8-1.7,20.8-18.7,20.8-18.7"/>
		<path class="st8" d="M80,169.9c3.9,3.4,17.2,21.3,18.7,25.2"/>
		<path class="st8" d="M115.5,177.6c4.5,7.2,9.9,22.2,9.9,22.2"/>
		<path class="st9" d="M160.7,212.2c0,0,16.6,7.2,20.1,41.8s-23.1,48.4-23.1,48.4s-18.5-11.3-16.4-46.6S160.7,212.2,160.7,212.2z"/>
		<path class="st10" d="M158.8,298.1c0.9-2.5,3.7-69.6,2.8-77.8l-0.9-8.1"/>
		<path class="st10" d="M171.1,278.7c-1.5-3.8-10.4-14.1-10.4-14.1"/>
		<path class="st10" d="M148.7,279.3c1.5-3.7,10.5-14,10.5-14"/>
		<path class="st10" d="M147.3,258.5c1.5-3.8,12.2-10.4,12.2-10.4"/>
		<path class="st10" d="M149.2,244.6c1.5-3.8,12.2-10.4,12.2-10.4"/>
		<path class="st10" d="M176.2,261.6c-1.6-2.5-10.8-11.4-12.8-12.5"/>
		<path class="st10" d="M174.5,240.9c-3.7-3.1-11.8-7.3-11.8-7.3"/>
		<path class="st11" d="M360,102c11.5,18.5,20.1,49.5,21.4,79.2s17.9,64.2,17.9,64.2c-94.9,152.6,44,334.1,56.4,358"/>
		<path class="st12" d="M399.9,241.9c0,0-17.9-20.7,0-70.2s63.2-50.9,63.2-50.9s17.9,27.5-8.2,74.2S399.9,241.9,399.9,241.9z"/>
		<path class="st11" d="M458.9,126c-2.8,2.8-50.7,92.5-54.9,104.2l-4.1,11.7"/>
		<path class="st11" d="M429.4,144.3c-0.4,6.1,5,26,5,26"/>
		<path class="st11" d="M460.3,158.1c-4.5,4.1-23.5,12.2-23.5,12.2"/>
		<path class="st11" d="M448.6,187.4c-4.5,4.1-23.5,6.1-23.5,6.1"/>
		<path class="st11" d="M436.9,205.2c-4.5,4.1-23.5,6.1-23.5,6.1"/>
		<path class="st11" d="M411.3,164.2c0.6,4.4,7.2,22.6,9.3,25.5"/>
		<path class="st11" d="M399.9,193.6c3,6.6,11.3,17.7,11.3,17.7"/>
		<path class="st12" d="M409.6,513.6c0,0-17.9-20.7,0-70.2s63.2-50.9,63.2-50.9s17.9,27.5-8.2,74.2S409.6,513.6,409.6,513.6z"/>
		<path class="st11" d="M468.6,397.7c-2.8,2.8-50.7,92.5-54.9,104.2l-4.1,11.7"/>
		<path class="st11" d="M439.1,416c-0.4,6.1,5,26,5,26"/>
		<path class="st11" d="M470,429.8c-4.5,4.1-23.5,12.2-23.5,12.2"/>
		<path class="st11" d="M458.3,459.1c-4.5,4.1-23.5,6.1-23.5,6.1"/>
		<path class="st11" d="M446.5,476.9c-4.5,4.1-23.5,6.1-23.5,6.1"/>
		<path class="st11" d="M421,436c0.6,4.4,7.2,22.6,9.3,25.5"/>
		<path class="st11" d="M409.6,465.3c3,6.6,11.4,17.7,11.4,17.7"/>
		<path class="st13" d="M390.5,238.7c0,0-14.7,6.4-39.3-12.1s-17.6-44.2-17.6-44.2s18.5-5.3,40.1,17.4S390.5,238.7,390.5,238.7z"/>
		<path class="st14" d="M335.9,185.8c1.1,2,43,44.3,48.8,48.6l5.8,4.3"/>
		<path class="st14" d="M341,205.4c3.3,1.3,15.4,1.7,15.4,1.7"/>
		<path class="st14" d="M354.1,190.5c1.5,3.2,2.8,15.2,2.8,15.2"/>
		<path class="st14" d="M368.5,202.1c1.5,3.2-0.6,14.2-0.6,14.2"/>
		<path class="st14" d="M376.4,211.8c1.5,3.2-0.6,14.2-0.6,14.2"/>
		<path class="st14" d="M349.1,219c2.6,0.5,13.9-0.1,15.9-0.8"/>
		<path class="st14" d="M363.5,230.4c4.2-0.6,11.9-3.3,11.9-3.3"/>
		<path class="st15" d="M396.4,241c0,0,15.6-8.2,44.1,10.2s22.8,47.1,22.8,47.1s-19.9,7.2-45.5-15.9S396.4,241,396.4,241z"/>
		<path class="st16" d="M460.6,294.9c-1.3-2.1-50.8-45.3-57.5-49.6l-6.7-4.3"/>
		<path class="st16" d="M453.4,273.7c-3.8-1.1-17.1-0.6-17.1-0.6"/>
		<path class="st16" d="M440.3,291.1c-1.9-3.4-4.3-16.5-4.3-16.5"/>
		<path class="st16" d="M423.5,279.5c-1.9-3.4-0.5-15.6-0.5-15.6"/>
		<path class="st16" d="M414.1,269.5c-1.9-3.4-0.5-15.6-0.5-15.6"/>
		<path class="st16" d="M443.5,259.4c-2.9-0.3-15.3,1.2-17.4,2.1"/>
		<path class="st16" d="M426.7,248c-4.6,0.9-12.8,4.6-12.8,4.6"/>
		<path class="st12" d="M401,239.3c0,0,13.1,24-14.7,68.7s-72.5,36.5-72.5,36.5s-11.7-30.6,23.6-70.9S401,239.3,401,239.3z"/>
		<path class="st11" d="M319.1,340.2c3.3-2.1,68.9-79.9,75.4-90.4l6.5-10.5"/>
		<path class="st11" d="M351.8,328.5c1.7-5.9,0.6-26.5,0.6-26.5"/>
		<path class="st11" d="M324.5,308.6c5.3-3.1,25.5-7.1,25.5-7.1"/>
		<path class="st11" d="M342,282.4c5.3-3.1,24.2-1.1,24.2-1.1"/>
		<path class="st11" d="M357.2,267.4c5.3-3.1,24.2-1.1,24.2-1.1"/>
		<path class="st11" d="M373.7,312.8c0.4-4.5-2.3-23.6-3.7-26.9"/>
		<path class="st11" d="M390.9,286.5c-1.6-7.1-7.4-19.7-7.4-19.7"/>
		<path class="st12" d="M403.7,512.6c0,0-22.3,15.8-69.9-6.7S289.2,438,289.2,438s29.1-15.2,73.1,15.3S403.7,512.6,403.7,512.6z"/>
		<path class="st11" d="M294.1,442.8c2.5,3,87.2,59.3,98.5,64.5l11.2,5.2"/>
		<path class="st11" d="M309.5,473.9c6,1,26.4-2.5,26.4-2.5"/>
		<path class="st11" d="M326.2,444.5c3.7,4.9,10,24.5,10,24.5"/>
		<path class="st11" d="M354.2,458.9c3.7,4.9,3.9,23.9,3.9,23.9"/>
		<path class="st11" d="M370.8,472.3c3.7,4.9,3.9,23.9,3.9,23.9"/>
		<path class="st11" d="M327.6,493.9c4.5-0.1,23.2-5,26.3-6.8"/>
		<path class="st11" d="M355.7,508c6.9-2.4,18.7-9.6,18.7-9.6"/>
		<path class="st17" d="M364.8,106.1c0,0-1.9-22.1,33.4-46.1s65.7-3.3,65.7-3.3s-1.3,26.5-40.7,44.8S364.8,106.1,364.8,106.1z"/>
		<path class="st18" d="M458.5,58.1c-3.1,0.5-77.2,36.6-85.5,42.3l-8.3,5.7"/>
		<path class="st18" d="M430.5,56.1c-3.2,3.8-9.1,19.4-9.1,19.4"/>
		<path class="st18" d="M444.2,79.8c-4.9,0.6-21.2-3.1-21.2-3.1"/>
		<path class="st18" d="M422.6,93.5c-4.9,0.6-18.3-7.1-18.3-7.1"/>
		<path class="st18" d="M406.4,99.6c-4.9,0.6-18.3-7.1-18.3-7.1"/>
		<path class="st18" d="M409.1,60.5c-1.7,3.2-6,18.3-6,21.1"/>
		<path class="st18" d="M387.7,74.4c-1.2,5.8-1,17-1,17"/>
		<path class="st17" d="M368.6,106.3c0,0,1.9-22.1-33.4-46.1s-65.7-3.3-65.7-3.3s1.3,26.5,40.7,44.8S368.6,106.3,368.6,106.3z"/>
		<path class="st18" d="M274.9,58.3c3.1,0.5,77.2,36.6,85.5,42.3l8.3,5.7"/>
		<path class="st18" d="M302.9,56.3c3.2,3.8,9.1,19.4,9.1,19.4"/>
		<path class="st18" d="M289.2,80c4.9,0.6,21.2-3.1,21.2-3.1"/>
		<path class="st18" d="M310.8,93.7c4.9,0.6,18.3-7.1,18.3-7.1"/>
		<path class="st18" d="M327,99.8c4.9,0.6,18.3-7.1,18.3-7.1"/>
		<path class="st18" d="M324.3,60.7c1.7,3.2,6,18.3,6,21.1"/>
		<path class="st18" d="M345.7,74.6c1.2,5.8,1,17,1,17"/>
		<path class="st19" d="M366.8,108.5c0,0,9.1,8.8,2.8,32.4s-27.1,26-27.1,26s-9.4-12,0.8-34.6S366.8,108.5,366.8,108.5z"/>
		<path class="st20" d="M344.2,164.3c1.2-1.4,19.7-44.7,21.1-50.3l1.5-5.6"/>
		<path class="st20" d="M357.1,154.7c0-2.8-3.3-11.8-3.3-11.8"/>
		<path class="st20" d="M342.3,149.6c1.9-2.1,10.3-6.6,10.3-6.6"/>
		<path class="st20" d="M346.5,135.6c1.9-2.1,10.6-3.8,10.6-3.8"/>
		<path class="st20" d="M351.2,126.9c1.9-2.1,10.6-3.8,10.6-3.8"/>
		<path class="st20" d="M364.6,144.8c-0.4-2-4.2-10.1-5.3-11.4"/>
		<path class="st20" d="M368.7,130.8c-1.8-2.7-3.8-5.3-6-7.7"/>
		<path class="st21" d="M543.7,63.6c-12.9,20.7-22.6,55.5-24,88.9s-20.1,72-20.1,72c106.5,171.3-49.4,375-63.3,401.8"/>
		<path class="st22" d="M498.9,220.6c0,0,20.1-23.2,0-78.8s-71-57.1-71-57.1s-20.1,30.9,9.2,83.3S498.9,220.6,498.9,220.6z"/>
		<path class="st21" d="M432.7,90.6c3.1,3.1,56.9,103.8,61.5,116.9l4.6,13.1"/>
		<path class="st21" d="M465.8,111.1c0.5,6.8-5.6,29.2-5.6,29.2"/>
		<path class="st21" d="M431.1,126.6c5.1,4.6,26.3,13.7,26.3,13.7"/>
		<path class="st21" d="M444.3,159.5c5.1,4.6,26.3,6.9,26.3,6.9"/>
		<path class="st21" d="M457.5,179.4c5.1,4.6,26.3,6.9,26.3,6.9"/>
		<path class="st21" d="M486.2,133.5c-0.6,5-8.1,25.4-10.4,28.6"/>
		<path class="st21" d="M498.9,166.4c-3.4,7.5-12.7,19.9-12.7,19.9"/>
		<path class="st22" d="M488,525.5c0,0,20.1-23.2,0-78.8s-71-57.1-71-57.1s-20.1,30.9,9.3,83.3S488,525.5,488,525.5z"/>
		<path class="st21" d="M421.8,395.5c3.1,3.1,56.9,103.8,61.6,116.9l4.6,13.1"/>
		<path class="st21" d="M454.9,416c0.5,6.8-5.6,29.2-5.6,29.2"/>
		<path class="st21" d="M420.3,431.5c5.1,4.6,26.3,13.7,26.3,13.7"/>
		<path class="st21" d="M433.4,464.4c5.1,4.6,26.3,6.9,26.3,6.9"/>
		<path class="st21" d="M446.6,484.4c5.1,4.6,26.3,6.9,26.3,6.9"/>
		<path class="st21" d="M475.3,438.4c-0.6,5-8.1,25.4-10.4,28.6"/>
		<path class="st21" d="M488,471.4c-3.4,7.5-12.7,19.9-12.7,19.9"/>
		<path class="st23" d="M509.5,217.1c0,0,16.5,7.2,44.1-13.6s19.7-49.6,19.7-49.6s-20.7-5.9-45,19.5S509.5,217.1,509.5,217.1z"/>
		<path class="st24" d="M570.8,157.6c-1.2,2.3-48.3,49.7-54.8,54.6l-6.5,4.9"/>
		<path class="st24" d="M565,179.7c-3.8,1.4-17.3,1.9-17.3,1.9"/>
		<path class="st24" d="M550.4,163c-1.7,3.6-3.2,17.1-3.2,17.1"/>
		<path class="st24" d="M534.2,176c-1.7,3.6,0.7,15.9,0.7,15.9"/>
		<path class="st24" d="M525.3,186.8c-1.7,3.6,0.7,15.9,0.7,15.9"/>
		<path class="st24" d="M556,194.9c-2.9,0.5-15.6-0.1-17.8-0.9"/>
		<path class="st24" d="M539.8,207.7c-4.8-0.6-13.3-3.7-13.3-3.7"/>
		<path class="st25" d="M502.9,219.6c0,0-17.5-9.2-49.5,11.4s-25.6,52.9-25.6,52.9s22.3,8.1,51-17.9S502.9,219.6,502.9,219.6z"/>
		<path class="st26" d="M430.8,280.1c1.5-2.4,57-50.8,64.6-55.6l7.6-4.8"/>
		<path class="st26" d="M438.9,256.3c4.2-1.3,19.1-0.7,19.1-0.7"/>
		<path class="st26" d="M453.6,275.8c2.2-3.9,4.8-18.5,4.8-18.5"/>
		<path class="st26" d="M472.4,262.8c2.2-3.9,0.5-17.5,0.5-17.5"/>
		<path class="st26" d="M483.1,251.6c2.2-3.9,0.5-17.5,0.5-17.5"/>
		<path class="st26" d="M450,240.2c3.2-0.3,17.1,1.4,19.5,2.4"/>
		<path class="st26" d="M468.9,227.4c5.2,1.1,14.4,5.1,14.4,5.1"/>
		<path class="st22" d="M497.7,217.7c0,0-14.8,26.9,16.5,77s81.3,41,81.3,41s13.2-34.4-26.5-79.5S497.7,217.7,497.7,217.7z"/>
		<path class="st21" d="M589.6,331c-3.7-2.4-77.3-89.6-84.6-101.4l-7.3-11.8"/>
		<path class="st21" d="M553,317.8c-1.9-6.6-0.7-29.7-0.7-29.7"/>
		<path class="st21" d="M583.6,295.4c-5.9-3.4-28.6-7.9-28.6-7.9"/>
		<path class="st21" d="M563.9,266c-5.9-3.5-27.2-1.2-27.2-1.2"/>
		<path class="st21" d="M546.8,249.2c-5.9-3.4-27.2-1.2-27.2-1.2"/>
		<path class="st21" d="M528.4,300.2c-0.4-5,2.6-26.5,4.2-30.1"/>
		<path class="st21" d="M509,270.6c1.8-8,8.3-22.1,8.3-22.1"/>
		<path class="st22" d="M494.6,524.3c0,0,25.1,17.8,78.4-7.5s50-76.1,50-76.1s-32.6-17-82.1,17.2S494.6,524.3,494.6,524.3z"/>
		<path class="st21" d="M617.7,446c-2.8,3.4-97.9,66.5-110.5,72.4l-12.6,5.9"/>
		<path class="st21" d="M600.5,481c-6.8,1.1-29.6-2.8-29.6-2.8"/>
		<path class="st21" d="M581.7,447.9c-4.1,5.5-11.2,27.5-11.2,27.5"/>
		<path class="st21" d="M550.2,464.2c-4.1,5.5-4.3,26.9-4.3,26.9"/>
		<path class="st21" d="M531.6,479.2c-4.1,5.5-4.3,26.9-4.3,26.9"/>
		<path class="st21" d="M580.1,503.4c-5-0.1-26-5.6-29.5-7.6"/>
		<path class="st21" d="M548.5,519.2c-7.8-2.7-21-10.8-21-10.8"/>
		<path class="st27" d="M538.3,68.2c0,0,2.1-24.8-37.4-51.7s-73.7-3.7-73.7-3.7s1.5,29.8,45.7,50.3S538.3,68.2,538.3,68.2z"/>
		<path class="st28" d="M433.2,14.3c3.5,0.6,86.6,41.1,95.9,47.4l9.3,6.4"/>
		<path class="st28" d="M464.6,12.1c3.6,4.3,10.2,21.8,10.2,21.8"/>
		<path class="st28" d="M449.3,38.7c5.5,0.6,23.8-3.5,23.8-3.5"/>
		<path class="st28" d="M473.5,54c5.5,0.6,20.5-8,20.5-8"/>
		<path class="st28" d="M491.6,60.9c5.5,0.6,20.5-8,20.5-8"/>
		<path class="st28" d="M488.6,17.1c2,3.5,6.8,20.5,6.8,23.7"/>
		<path class="st28" d="M512.6,32.7c1.3,6.5,1.1,19.1,1.1,19.1"/>
		<path class="st27" d="M534.1,68.4c0,0-2.1-24.8,37.4-51.7s73.7-3.7,73.7-3.7s-1.5,29.8-45.7,50.3S534.1,68.4,534.1,68.4z"/>
		<path class="st28" d="M639.2,14.5c-3.5,0.6-86.6,41.1-95.9,47.5l-9.3,6.4"/>
		<path class="st28" d="M607.8,12.3c-3.6,4.3-10.2,21.8-10.2,21.8"/>
		<path class="st28" d="M623.2,38.9c-5.5,0.6-23.8-3.5-23.8-3.5"/>
		<path class="st28" d="M598.9,54.2c-5.5,0.6-20.5-8-20.5-8"/>
		<path class="st28" d="M580.8,61.1c-5.5,0.6-20.5-8-20.5-8"/>
		<path class="st28" d="M583.8,17.3c-1.9,3.6-6.8,20.5-6.8,23.7"/>
		<path class="st28" d="M559.8,32.9c-1.3,6.5-1.1,19.1-1.1,19.1"/>
		<path class="st29" d="M536.1,70.9c0,0-10.2,9.9-3.2,36.4s30.5,29.2,30.5,29.2s10.5-13.4-0.9-38.8S536.1,70.9,536.1,70.9z"/>
		<path class="st30" d="M561.5,133.6c-1.3-1.6-22.1-50.2-23.7-56.4l-1.6-6.2"/>
		<path class="st30" d="M547,122.8c0-3.2,3.7-13.2,3.7-13.2"/>
		<path class="st30" d="M563.6,117c-2.2-2.3-11.6-7.4-11.6-7.4"/>
		<path class="st30" d="M558.9,101.3C556.7,98.9,547,97,547,97"/>
		<path class="st30" d="M553.6,91.5c-2.2-2.3-11.9-4.2-11.9-4.2"/>
		<path class="st30" d="M538.5,111.6c0.5-2.3,4.8-11.4,6-12.8"/>
		<path class="st30" d="M534,95.9c1.9-3.3,6.7-8.7,6.7-8.7"/>
	</g>
</g>
</svg>
