<?xml version="1.0" encoding="utf-8"?>
<!-- Generator: Adobe Illustrator 25.0.0, SVG Export Plug-In . SVG Version: 6.00 Build 0)  -->
<svg version="1.1" id="Capa_1" xmlns="http://www.w3.org/2000/svg" xmlns:xlink="http://www.w3.org/1999/xlink" x="0px" y="0px"
	 viewBox="0 0 512 512" style="enable-background:new 0 0 512 512;" xml:space="preserve">
<style type="text/css">
	.st0{fill:#FFFFFF;}
</style>
<g>
	<g>
		<path class="st0" d="M322.9,290.2c-4.1,0-7.5,3.4-7.5,7.5v12.8c0,4.1,3.4,7.5,7.5,7.5s7.5-3.4,7.5-7.5v-12.8
			C330.4,293.6,327,290.2,322.9,290.2z"/>
	</g>
</g>
<g>
	<g>
		<path class="st0" d="M464.5,290.2c-4.1,0-7.5,3.4-7.5,7.5v12.8c0,4.1,3.4,7.5,7.5,7.5s7.5-3.4,7.5-7.5v-12.8
			C472,293.6,468.7,290.2,464.5,290.2z"/>
	</g>
</g>
<g>
	<g>
		<path class="st0" d="M416.1,304c-3.1-2.7-7.9-2.4-10.6,0.7c-2.9,3.3-7.2,5.2-11.8,5.2s-9-1.9-11.8-5.2c-2.7-3.1-7.5-3.4-10.6-0.7
			s-3.4,7.5-0.7,10.6c5.7,6.5,14.2,10.3,23.1,10.3s17.4-3.8,23.1-10.3C419.6,311.5,419.2,306.8,416.1,304z"/>
	</g>
</g>
<g>
	<g>
		<path class="st0" d="M476.6,204.8c-9.1-11.3-19.6-21.4-31.2-30.1c-5.1-3.8-10.4-7.4-15.8-10.8c1.3-12,4.7-30.5,13.1-48.1
			c2.1,0.6,4.2,0.9,6.5,0.9c14.9,0,26.9-13.5,25-28.3c-1.6-12.6-12.3-22.1-25-22.1c-14.9,0-26.9,13.5-25,28.3
			c0.6,5,2.7,9.5,5.8,13.1c-8.5,17.1-12.6,34.9-14.5,48.2c-14.1-7.4-29.3-13.4-45.4-18.1c1.9-10.1,5.3-22.6,11.1-34.6
			c2.1,0.6,4.2,0.9,6.5,0.9c7.7,0,15.1-3.6,19.9-9.7c4.1-5.3,6-11.9,5.1-18.6c-1.6-12.6-12.3-22.1-25-22.1
			c-14.9,0-26.9,13.5-25,28.3c0.6,5,2.7,9.5,5.8,13.1c-6.7,13.6-10.6,27.6-12.9,38.9c-9.9-2.3-20.2-4.1-30.6-5.3
			c0.3-0.8,0.6-1.6,0.8-2.4c5.4-17.9,4.1-36.8-3.8-53.1c-8-16.5-21.7-28.4-38.7-33.5c-30.4-9.2-62.5,6.7-77.4,33.9
			c-14.5-17.5-35.7-28.3-58.1-28.3c-6.9,0-13.7,1-20.2,3c-39.1,11.9-60.6,55.7-47.9,97.6c5.3,17.3,15.5,32,29.4,42.4
			c-11.2,9.8-20.9,20.6-28.9,31.9c-11.9,17-20,35.5-23.8,54.6L8.7,289.7c-5.2,1.2-8.7,5.7-8.7,11.1c0,5.4,3.6,9.8,8.7,11.1
			l47.6,14.9c3.8,19.1,11.9,37.6,23.8,54.6c16.5,23.6,40.6,44.4,69.6,60.1c24.4,13.3,51.7,22.8,80.9,28.3
			c18.7,3.5,38.1,5.3,57.7,5.3c26.9,0,52.9-3.4,77.3-10c53.2-14.4,96.7-43.9,122.3-82.9c0,0,0-0.1,0.1-0.1
			C524.7,326.4,518.1,255.9,476.6,204.8z M441.2,85.2c1.7-2.1,4.1-3.5,6.8-3.8c0.4-0.1,0.8-0.1,1.3-0.1c5.1,0,9.5,3.8,10.1,8.9
			c0.7,5.6-3.3,10.7-8.9,11.3c-0.4,0.1-0.8,0.1-1.3,0.1c-5.1,0-9.4-3.8-10.1-8.9C438.8,90,439.5,87.3,441.2,85.2z M386.4,68.7
			c5.5-0.7,10.7,3.4,11.3,8.8c0.7,6-4.1,11.4-10.1,11.4c-5.1,0-9.4-3.8-10.1-8.9C376.9,74.5,381.1,69.4,386.4,68.7z M54,310.3
			l-30.4-9.5l30.4-9.5c-0.1,1.1-0.1,2.1-0.2,3.2C53.6,299.7,53.6,305,54,310.3z M265.3,52c4.6,0,9.2,0.7,13.6,2
			c12.9,3.9,23.4,13,29.5,25.7c6.3,12.9,7.3,27.8,3,42.1c-0.5,1.8-1.2,3.6-1.9,5.3c-0.9-0.1-8.9-0.5-12.1-0.6
			c-10.4-0.3-20.9-0.1-31.3,0.6c-4.9,0.3-14.9,1.4-15,1.4c4.4-13.2,12.5-32,25.8-44.9c3-2.9,3-7.7,0.1-10.6c-2.9-3-7.7-3-10.6-0.1
			c-8,7.8-22.5,25.6-31.8,58.1c-3.2,0.6-6.4,1.2-9.5,1.8c0.4-6.4,0.1-12.9-1-19.3c-1.5-8.8-4.3-17.5-8.5-25.4
			C223.9,66.7,243.9,52,265.3,52z M94,141.5c-10.3-34,6.7-69.4,37.8-78.9c27.5-8.3,56.1,6.7,69.6,31c7.1,12.9,10.1,28,8.2,42.6
			c0,0.1,0,0.2,0,0.3c-10,2.6-19.9,5.8-29.6,9.6c-5.5-17.2-16.1-42.3-34.2-60c-3-2.9-7.7-2.8-10.6,0.1c-2.9,3-2.8,7.7,0.1,10.6
			c16.3,16,25.9,39.4,30.8,55.1c-9,4.1-17.8,8.7-26.3,13.8c-3.7,2.3-18.4,12.8-18.7,12.6C108.2,169.9,98.7,156.9,94,141.5z
			 M92.5,372.7c-11.1-15.7-19-33.5-22.2-52.7c0-0.1,0-0.2,0-0.2c-2.1-12.5-2.1-25.4,0-37.9c0-0.1,0-0.2,0-0.2
			c4.7-35.6,29-66.9,56.5-88.6c0.8-0.7,3.4-2.6,3.5-2.7c-0.1,0.1-1.9,3.9-2.8,5.6c-15.6,32.4-23.7,68.7-23.7,104.9
			c0,38.2,8.9,76.2,26.3,110.2c0.1,0.1,0.1,0.2,0.2,0.3C116,400.4,102.9,387.5,92.5,372.7z M158.4,429.1c-0.7-1-1.4-2-2-3
			c-6.3-9.5-11.9-19.5-16.6-29.8c-13.8-29.9-20.8-62.6-20.8-95.5c0-41.8,11.6-83.5,33.5-119.2c1.3-2.1,5.7-8.9,6-9.2
			c0.2-0.1,0.3-0.2,0.5-0.3c16.2-8.6,33.5-15.3,51.2-20.2c0.4-0.1,0.7-0.2,1.1-0.3c-3.8,4.8-7.4,9.8-10.7,14.9
			c-26.3,39.5-40.4,86.9-40.4,134.3c0,50.1,15.6,99.8,44.7,140.6c0.7,1,5.3,7.2,6.4,8.6C192.5,444.8,174.8,437.9,158.4,429.1z
			 M361.6,450.6c-23.1,6.3-47.8,9.5-73.4,9.5c-17.8,0-35.4-1.5-52.5-4.6c-16.7-17.9-30.5-38.6-40.6-61c-14-31-20.7-65.1-19.9-99.1
			c0.9-39,12-77.9,32.1-111.4c8.1-13.5,17.7-26.2,28.4-37.7c0.8-0.1,1.5-0.3,2.3-0.4c24.7-4.2,50-5.3,75-3.2
			c44.8,3.8,85.9,17.8,118.2,40.4c-13.9,0-27.1,4.8-37.6,13.7c-18.4-16.5-42.1-25.5-67.1-25.5c-33.3,0-64.6,16.2-83.9,43.3
			c-18.5,25.9-28.2,55.8-28.2,86.4c0,22.2,5.2,44.3,15,64.2c25,51,77.4,83.1,134.2,83.1c1.4,0,6.6-0.1,7.1-0.2
			C367.7,448.8,364.7,449.7,361.6,450.6z M475.4,373.8c-24.8,37.2-67.2,59.3-111.8,59.3c-51.1,0-98.2-28.8-120.7-74.7
			c-21.5-43.8-16.2-95.7,12-135.3c30.2-42.4,94-49.6,131.5-12.7c2.1,2.1,4,4.1,7.2,4.1c3.2,0,5.4-2.4,7.6-4.4
			c8.7-8.4,20.6-12.7,32.6-12.1c12.2,0.7,23.5,6.3,31.3,15.8c20.8,24.9,32.4,55.8,32.6,87C497.9,326.7,489.7,352.3,475.4,373.8z"/>
	</g>
</g>
</svg>
