<svg id="Layer_1" data-name="Layer 1" xmlns="http://www.w3.org/2000/svg" viewBox="0 0 506.83 383.49"><defs><style>.cls-1{fill:#51b756;}.cls-2{fill:#7cd683;}.cls-3{fill:#2f22aa;}.cls-4{fill:#5752b2;}</style></defs><path class="cls-1" d="M117.32,118a36.4,36.4,0,0,0,27.44-57.59,36.43,36.43,0,0,0-34.23,38.45" transform="translate(-2.58 -60.37)"/><path class="cls-2" d="M117.32,118A36.4,36.4,0,0,0,59.74,90.51,36.4,36.4,0,0,0,117.32,118Z" transform="translate(-2.58 -60.37)"/><path class="cls-2" d="M509.42,312.6A131.27,131.27,0,0,1,378.15,443.87H100.86a98.29,98.29,0,0,1-34-190.51A170,170,0,0,1,79.5,206a31.1,31.1,0,0,1,15.26-60.27c0-.25,0-.49,0-.74a31.1,31.1,0,0,1,55.61-19.14,170.57,170.57,0,0,1,229.74,55.48,131.36,131.36,0,0,1,33.4,4.81h0a27.66,27.66,0,0,1,52.89,15.33A27.8,27.8,0,0,1,493.54,250,130.76,130.76,0,0,1,509.42,312.6Z" transform="translate(-2.58 -60.37)"/><path class="cls-1" d="M272.85,106.57c-44.51-7.31-66.26,30.8-71.55,78.2a51.62,51.62,0,0,0-66.82,49.28S97,238.11,101.36,277.29c0,0-92,64.25-.5,166.57a98.28,98.28,0,0,1-34-190.5A169.62,169.62,0,0,1,79.5,206a31.1,31.1,0,0,1,15.25-60.27c0-.25,0-.49,0-.74a31.1,31.1,0,0,1,55.62-19.14,169.79,169.79,0,0,1,86-23.23A171.62,171.62,0,0,1,272.85,106.57Z" transform="translate(-2.58 -60.37)"/><path class="cls-1" d="M253.51,303.13a7.76,7.76,0,1,1,0-15.51,21.3,21.3,0,1,0-12.16-38.77,7.75,7.75,0,0,1-12.09-7.63,44.83,44.83,0,0,0,.59-7.17,43.81,43.81,0,1,0-87.61,0,7.76,7.76,0,0,1-15.52,0,59.32,59.32,0,0,1,118.54-3.61,36.81,36.81,0,1,1,8.25,72.69Z" transform="translate(-2.58 -60.37)"/><path class="cls-1" d="M285.48,370a7.75,7.75,0,0,1-7.76-7.75,42.18,42.18,0,0,1,42.13-42.14c.59,0,1.18,0,1.77,0a47.93,47.93,0,0,1,92.92,16.55,7.76,7.76,0,1,1-15.51,0,32.42,32.42,0,0,0-64.19-6.48,7.75,7.75,0,0,1-9.26,6,27.1,27.1,0,0,0-5.73-.62,26.65,26.65,0,0,0-26.61,26.62A7.76,7.76,0,0,1,285.48,370Z" transform="translate(-2.58 -60.37)"/><path class="cls-1" d="M454.84,173.56c-18.06,0-28.37,8.33-34.2,17-2.87,4.26-9.49.47-7.27-4.17l.12-.25h0a27.66,27.66,0,0,1,41.34-12.61Z" transform="translate(-2.58 -60.37)"/><circle class="cls-3" cx="122.35" cy="256.09" r="19.2"/><circle class="cls-3" cx="210.12" cy="324.66" r="19.2"/><circle class="cls-3" cx="268.68" cy="161.39" r="19.2" transform="matrix(0.16, -0.99, 0.99, 0.16, 63.75, 340.37)"/><circle class="cls-3" cx="366.08" cy="177.3" r="19.2"/><path class="cls-3" d="M397,390a19.2,19.2,0,0,1-13.95,18.47,19,19,0,0,1-5.25.73A19.2,19.2,0,1,1,397,390Z" transform="translate(-2.58 -60.37)"/><path class="cls-4" d="M397,390a19.2,19.2,0,0,1-13.95,18.47,19.2,19.2,0,0,1,0-36.94A19.19,19.19,0,0,1,397,390Z" transform="translate(-2.58 -60.37)"/><path class="cls-4" d="M231.9,385a19.22,19.22,0,0,1-14,18.48,19.2,19.2,0,0,1,0-36.94A19.18,19.18,0,0,1,231.9,385Z" transform="translate(-2.58 -60.37)"/><path class="cls-4" d="M144.13,316.46a19.22,19.22,0,0,1-13.95,18.48,19.2,19.2,0,0,1,0-36.94A19.18,19.18,0,0,1,144.13,316.46Z" transform="translate(-2.58 -60.37)"/><path class="cls-4" d="M387.87,237.67a19.2,19.2,0,0,1-14,18.47,19.2,19.2,0,0,1,0-36.93A19.18,19.18,0,0,1,387.87,237.67Z" transform="translate(-2.58 -60.37)"/><path class="cls-4" d="M287.87,161.39a19.22,19.22,0,0,1-13.95,18.48,19.2,19.2,0,0,1,0-36.94A19.17,19.17,0,0,1,287.87,161.39Z" transform="translate(-2.58 -60.37)"/><path class="cls-1" d="M439.2,104.93a36.4,36.4,0,0,0,0,63.79,36.4,36.4,0,0,0,0-63.79Z" transform="translate(-2.58 -60.37)"/></svg>