<?xml version="1.0" encoding="utf-8"?>
<!-- Generator: Adobe Illustrator 25.0.0, SVG Export Plug-In . SVG Version: 6.00 Build 0)  -->
<svg version="1.1" id="Layer_1" xmlns="http://www.w3.org/2000/svg" xmlns:xlink="http://www.w3.org/1999/xlink" x="0px" y="0px"
	 viewBox="0 0 506.8 383.5" style="enable-background:new 0 0 506.8 383.5;" xml:space="preserve">
<style type="text/css">
	.st0{fill:#388425;stroke:#000000;stroke-width:5;stroke-miterlimit:10;}
	.st1{fill:#7DBC6C;stroke:#000000;stroke-width:5;stroke-miterlimit:10;}
	.st2{fill:#2F22AA;stroke:#000000;stroke-miterlimit:10;}
	.st3{fill:#5752B2;stroke:#000000;stroke-miterlimit:10;}
</style>
<path class="st0" d="M114.7,57.6c20.1-1.2,35.4-18.4,34.2-38.5c-0.4-6.9-2.8-13.5-6.8-19.1c-20.1,1.2-35.4,18.4-34.2,38.5"/>
<path class="st1" d="M114.7,57.6c-1.1-20.1-18.3-35.4-38.4-34.3c-6.9,0.4-13.6,2.7-19.2,6.8c1.1,20.1,18.3,35.4,38.4,34.3
	C102.5,64,109.1,61.7,114.7,57.6z"/>
<path class="st1" d="M506.8,252.2c0,72.5-58.8,131.3-131.3,131.3H98.3C44,383.5,0,339.5,0,285.2c0-41.2,25.7-78,64.3-92.2
	c1.9-16.3,6.2-32.3,12.6-47.4c-16.5-4.7-26.1-21.9-21.4-38.4c4.5-15.8,20.6-25.4,36.6-21.8c0-0.2,0-0.5,0-0.7
	c0-17.2,13.9-31.1,31.1-31.1c9.6,0,18.6,4.4,24.5,12c79.1-46.2,180.5-21.7,229.7,55.5c11.3,0.2,22.5,1.8,33.4,4.8l0,0
	c5.6-14.2,21.7-21.1,35.9-15.5c12.3,4.9,19.4,17.8,17,30.8c13.4-7.5,30.3-2.7,37.8,10.7c7.5,13.4,2.7,30.3-10.7,37.8l0,0
	C501.4,208.8,506.9,230.4,506.8,252.2z"/>
<path class="st0" d="M198.4,245.8c-4.3,0.2-7.9-3.2-8-7.5c-0.2-4.3,3.2-7.9,7.5-8c0.2,0,0.4,0,0.6,0c11.8,0,21.3-9.5,21.3-21.3
	c0-11.8-9.5-21.3-21.3-21.3c-4.4,0-8.6,1.3-12.2,3.8c-3.5,2.5-8.3,1.6-10.8-1.9c-1.2-1.7-1.6-3.7-1.3-5.7c0.4-2.4,0.6-4.8,0.6-7.2
	c0.4-24.2-19-44.1-43.1-44.5s-44.1,19-44.5,43.1c0,0.4,0,0.9,0,1.3c0,4.3-3.5,7.8-7.8,7.8c-4.3,0-7.8-3.5-7.8-7.8
	c-0.1-32.8,26.4-59.4,59.1-59.5c31.5-0.1,57.6,24.4,59.4,55.9c19.8-4.5,39.6,7.8,44.1,27.7c4.5,19.8-7.8,39.6-27.7,44.1
	C203.9,245.5,201.2,245.8,198.4,245.8L198.4,245.8z"/>
<path class="st0" d="M143.7,333.2c-4.3,0.2-7.9-3.2-8-7.5c-0.2-4.3,3.2-7.9,7.5-8c0.2,0,0.4,0,0.6,0c11.8,0,21.3-9.5,21.3-21.3
	c0-11.8-9.5-21.3-21.3-21.3c-4.4,0-8.6,1.3-12.2,3.8c-3.5,2.5-8.3,1.6-10.8-1.9c-1.2-1.7-1.6-3.7-1.3-5.7c0.4-2.4,0.6-4.8,0.6-7.2
	c0.4-24.2-19-44.1-43.1-44.5s-44.1,19-44.5,43.1c0,0.4,0,0.9,0,1.3c0,4.3-3.5,7.8-7.8,7.8c-4.3,0-7.8-3.5-7.8-7.8
	c-0.1-32.8,26.4-59.4,59.1-59.5c31.5-0.1,57.6,24.4,59.4,55.9c19.8-4.5,39.6,7.8,44.1,27.7c4.5,19.8-7.8,39.6-27.7,44.1
	C149.2,332.9,146.4,333.2,143.7,333.2L143.7,333.2z"/>
<path class="st0" d="M270.3,46.2c-44.5-7.3-66.3,30.8-71.6,78.2c-27.2-8.4-56.1,6.9-64.5,34.1c-1.5,4.9-2.3,10-2.3,15.1
	c0,0-37.5,4.1-33.1,43.2c0,0-92,64.2-0.5,166.6C44,383.5,0,339.5,0,285.2c0-41.2,25.7-78,64.3-92.2c1.9-16.3,6.2-32.3,12.6-47.4
	c-16.5-4.7-26.1-22-21.3-38.5c4.5-15.8,20.5-25.3,36.6-21.8c0-0.2,0-0.5,0-0.7c0-17.2,13.9-31.1,31.1-31.1c9.6,0,18.6,4.4,24.5,12
	c26.1-15.3,55.8-23.3,86-23.2C246.1,42.3,258.3,43.6,270.3,46.2z"/>
<path class="st0" d="M282.9,309.6c-4.3,0-7.8-3.5-7.8-7.7c0,0,0,0,0,0c0-23.3,18.9-42.1,42.1-42.1c0.6,0,1.2,0,1.8,0
	c9.1-24.8,36.7-37.6,61.5-28.5c18.9,6.9,31.4,24.9,31.4,45c0.2,4.3-3.2,7.9-7.5,8c-4.3,0.2-7.9-3.2-8-7.5c0-0.2,0-0.4,0-0.6
	c0-17.9-14.5-32.4-32.4-32.4c-15.4,0-28.7,10.8-31.8,26c-0.9,4.2-5,6.9-9.2,6c0,0-0.1,0-0.1,0c-1.9-0.4-3.8-0.6-5.7-0.6
	c-14.7,0-26.6,11.9-26.6,26.6C290.7,306.1,287.2,309.6,282.9,309.6C282.9,309.6,282.9,309.6,282.9,309.6z"/>
<path class="st0" d="M298.5,224.7c-4.3,0-7.8-3.5-7.8-7.7c0,0,0,0,0,0c0-23.3,18.9-42.1,42.1-42.1c0.6,0,1.2,0,1.8,0
	c9.1-24.8,36.7-37.6,61.5-28.5c18.9,6.9,31.4,24.9,31.4,45c0.2,4.3-3.2,7.9-7.5,8c-4.3,0.2-7.9-3.2-8-7.5c0-0.2,0-0.4,0-0.6
	c0-17.9-14.5-32.4-32.4-32.4c-15.4,0-28.7,10.8-31.8,26c-0.9,4.2-5,6.9-9.2,6c0,0-0.1,0-0.1,0c-1.9-0.4-3.8-0.6-5.7-0.6
	c-14.7,0-26.6,11.9-26.6,26.6C306.3,221.2,302.9,224.7,298.5,224.7C298.6,224.7,298.5,224.7,298.5,224.7z"/>
<circle class="st2" cx="122.3" cy="256.1" r="19.2"/>
<circle class="st2" cx="210.1" cy="324.7" r="19.2"/>
<ellipse transform="matrix(0.3156 -0.9489 0.9489 0.3156 87.3208 321.4672)" class="st2" cx="266.5" cy="100.2" rx="19.3" ry="19.3"/>
<circle class="st2" cx="366.1" cy="177.3" r="19.2"/>
<path class="st2" d="M394.4,329.6c0,8.6-5.7,16.1-14,18.5c-1.7,0.5-3.5,0.7-5.2,0.7c-10.6,0-19.2-8.6-19.2-19.2s8.6-19.2,19.2-19.2
	C385.8,310.4,394.4,319,394.4,329.6z"/>
<path class="st3" d="M394.4,329.6c0,8.6-5.7,16.1-14,18.5c-10.2-2.9-16.1-13.5-13.2-23.7c1.8-6.4,6.8-11.4,13.2-13.2
	C388.7,313.5,394.4,321,394.4,329.6z"/>
<path class="st2" d="M375.2,260c0,8.6-5.7,16.1-14,18.5c-1.7,0.5-3.5,0.7-5.2,0.7c-10.6,0-19.2-8.6-19.2-19.2s8.6-19.2,19.2-19.2
	C366.6,240.8,375.2,249.4,375.2,260z"/>
<path class="st3" d="M375.2,260c0,8.6-5.7,16.1-14,18.5c-10.2-2.9-16.1-13.5-13.2-23.7c1.8-6.4,6.8-11.4,13.2-13.2
	C369.5,243.9,375.2,251.5,375.2,260z"/>
<path class="st3" d="M229.3,324.6c0,8.6-5.7,16.1-14,18.5c-10.2-2.9-16.1-13.5-13.2-23.7c1.8-6.4,6.8-11.4,13.2-13.2
	C223.6,308.5,229.3,316,229.3,324.6z"/>
<path class="st3" d="M141.6,256.1c0,8.6-5.7,16.1-13.9,18.5c-10.2-2.9-16.1-13.5-13.2-23.7c1.8-6.4,6.8-11.4,13.2-13.2
	C135.9,240,141.6,247.5,141.6,256.1z"/>
<path class="st3" d="M385.3,177.3c0,8.6-5.7,16.1-14,18.5c-10.2-2.9-16.1-13.5-13.2-23.7c1.8-6.4,6.8-11.4,13.2-13.2
	C379.6,161.2,385.3,168.7,385.3,177.3z"/>
<path class="st3" d="M285.3,101c0,8.6-5.7,16.1-14,18.5c-10.2-2.9-16.1-13.5-13.2-23.7c1.8-6.4,6.8-11.4,13.2-13.2
	C279.6,84.9,285.3,92.4,285.3,101z"/>
<ellipse transform="matrix(0.3156 -0.9489 0.9489 0.3156 -50.0306 285.2002)" class="st2" cx="172.7" cy="177.3" rx="19.3" ry="19.3"/>
<path class="st3" d="M191.5,178.1c0,8.6-5.7,16.1-14,18.5c-10.2-2.9-16.1-13.5-13.2-23.7c1.8-6.4,6.8-11.4,13.2-13.2
	C185.8,162,191.5,169.5,191.5,178.1z"/>
<ellipse transform="matrix(0.3156 -0.9489 0.9489 0.3156 -52.732 328.493)" class="st2" cx="201.4" cy="200.8" rx="19.3" ry="19.3"/>
<path class="st3" d="M220.1,201.6c0,8.6-5.7,16.1-14,18.5c-10.2-2.9-16.1-13.5-13.2-23.7c1.8-6.4,6.8-11.4,13.2-13.2
	C214.4,185.5,220.1,193,220.1,201.6z"/>
<ellipse transform="matrix(0.3156 -0.9489 0.9489 0.3156 -153.4956 325.093)" class="st2" cx="148.6" cy="269" rx="19.3" ry="19.3"/>
<path class="st3" d="M167.4,269.8c0,8.6-5.7,16.1-14,18.5c-10.2-2.9-16.1-13.5-13.2-23.7c1.8-6.4,6.8-11.4,13.2-13.2
	C161.7,253.7,167.4,261.2,167.4,269.8z"/>
<ellipse transform="matrix(0.3156 -0.9489 0.9489 0.3156 67.8037 464.6548)" class="st2" cx="356" cy="185.3" rx="19.3" ry="19.3"/>
<path class="st3" d="M374.8,186.1c0,8.6-5.7,16.1-14,18.5c-10.2-2.9-16.1-13.5-13.2-23.7c1.8-6.4,6.8-11.4,13.2-13.2
	C369.1,170,374.8,177.6,374.8,186.1z"/>
<path class="st0" d="M436.6,44.6c-17.6,9.7-24,31.8-14.4,49.4c3.3,6,8.3,11,14.4,14.4c17.6-9.7,24-31.8,14.4-49.4
	C447.6,52.9,442.7,47.9,436.6,44.6z"/>
</svg>
