<svg width="512" height="419" viewBox="0 0 512 419" fill="none" xmlns="http://www.w3.org/2000/svg">
<path d="M490.154 341.101L497.706 332.065V259.138L492.214 249.109L497.706 243.686V75.1182H343.998H168.002H14.2939V243.687L21.6899 252.509L14.2939 259.138V332.065L19.7529 339.327L14.2939 347.517V381.734C14.2939 401.819 30.5749 418.1 50.6599 418.1H160.275L168.223 412.869L175.728 418.1H336.271L342.322 411.839L351.723 418.1H461.34C481.424 418.1 497.706 401.819 497.706 381.734V347.518L490.154 341.101Z" fill="#FF5E6B"/>
<path d="M65.8029 381.735V75.1191H14.2939V243.688L21.6899 252.51L14.2939 259.139V332.066L19.7529 339.328L14.2939 347.518V381.735C14.2939 401.82 30.5749 418.101 50.6599 418.101H102.169C82.0839 418.101 65.8029 401.82 65.8029 381.735Z" fill="#E63E4C"/>
<path d="M497.706 259.14V243.687H351.724V75.1191H336.271V243.687H175.728V75.1191H160.275V243.687H14.2939V259.14H72.2659V332.066H14.2939V347.519H160.276V418.103H175.729V347.519H336.272V418.103H351.725V347.519H497.707V332.066H439.735V259.14H497.707H497.706ZM87.7189 259.14H248.274V332.066H87.7189V259.14ZM424.281 332.065H263.726V259.139H424.281V332.065Z" fill="#F0F0F0"/>
<path d="M0 130.66C0 146.369 12.735 159.104 28.444 159.104C44.153 159.104 56.888 146.369 56.888 130.66V145.683C56.888 161.392 69.623 174.127 85.332 174.127C101.041 174.127 113.776 161.392 113.776 145.683V160.706C113.776 176.415 126.511 189.15 142.22 189.15C157.929 189.15 170.664 176.415 170.664 160.706V175.729C170.664 191.438 183.399 204.173 199.108 204.173C214.817 204.173 227.552 191.438 227.552 175.729V190.752C227.552 206.461 240.287 219.196 255.996 219.196C271.705 219.196 284.44 206.461 284.44 190.752V175.729C284.44 191.438 297.175 204.173 312.884 204.173C328.593 204.173 341.328 191.438 341.328 175.729V160.706C341.328 176.415 354.063 189.15 369.772 189.15C385.481 189.15 398.216 176.415 398.216 160.706V145.684C398.216 161.393 410.951 174.128 426.66 174.128C442.369 174.128 455.104 161.393 455.104 145.684V130.661C455.104 146.37 467.839 159.105 483.548 159.105C499.257 159.105 511.992 146.37 511.992 130.661V39.283C511.992 17.588 494.405 0.000976605 472.71 0.000976605H39.282C17.587 -2.33949e-05 0 17.588 0 39.283V130.66Z" fill="#2FC8B4"/>
<path d="M51.509 130.66V39.282C51.509 17.587 69.096 0 90.791 0H39.282C17.587 0 0 17.588 0 39.283V130.661C0 146.37 12.735 159.105 28.444 159.105C39.835 159.105 49.656 152.408 54.199 142.739C52.476 139.071 51.509 134.98 51.509 130.66Z" fill="#00AE95"/>
<path d="M132.076 82.3849C145.412 69.3859 138.053 46.7389 119.624 44.0609C111.383 27.3619 87.5691 27.3619 79.3271 44.0609C60.8981 46.7379 53.5401 69.3869 66.8751 82.3849C63.7271 100.74 82.9921 114.737 99.4751 106.071C115.959 114.737 135.225 100.74 132.076 82.3849Z" fill="#FF5E6B"/>
<path d="M99.4741 82.868C106.514 82.868 112.221 77.161 112.221 70.121C112.221 63.0811 106.514 57.374 99.4741 57.374C92.4341 57.374 86.7271 63.0811 86.7271 70.121C86.7271 77.161 92.4341 82.868 99.4741 82.868Z" fill="#FAA330"/>
<path d="M379.924 82.3849C366.588 69.3859 373.947 46.7389 392.376 44.0609C400.617 27.3619 424.431 27.3619 432.673 44.0609C451.102 46.7379 458.461 69.3869 445.125 82.3849C448.273 100.74 429.008 114.737 412.525 106.071C396.041 114.737 376.775 100.74 379.924 82.3849Z" fill="#FF5E6B"/>
<path d="M412.526 82.868C419.566 82.868 425.273 77.161 425.273 70.121C425.273 63.0811 419.566 57.374 412.526 57.374C405.486 57.374 399.779 63.0811 399.779 70.121C399.779 77.161 405.486 82.868 412.526 82.868Z" fill="#FAA330"/>
<path d="M288.601 118.473C301.937 105.474 294.578 82.827 276.149 80.149C267.908 63.45 244.094 63.45 235.852 80.149C217.423 82.826 210.065 105.475 223.399 118.473C220.251 136.828 239.516 150.825 255.999 142.159C272.484 150.824 291.748 136.828 288.601 118.473Z" fill="#FF5E6B"/>
<path d="M256 118.955C263.04 118.955 268.747 113.248 268.747 106.208C268.747 99.168 263.04 93.4609 256 93.4609C248.96 93.4609 243.253 99.168 243.253 106.208C243.253 113.248 248.96 118.955 256 118.955Z" fill="#FAA330"/>
</svg>
