<svg width="188" height="188" viewBox="0 0 188 188" fill="none" xmlns="http://www.w3.org/2000/svg">
<path d="M133.052 61.6556C133.048 61.6556 133.043 61.6556 133.039 61.6556C131.473 61.6482 130.209 60.3759 130.215 58.8102C130.218 57.9929 130.412 38.6428 141.414 25.2651C142.41 24.0548 144.198 23.8808 145.408 24.8762C146.618 25.8713 146.792 27.6592 145.797 28.8698C136.099 40.6609 135.89 58.6531 135.889 58.8337C135.88 60.3943 134.612 61.6556 133.052 61.6556Z" fill="#333E40"/>
<path d="M156.3 66.4169C156.296 66.4169 156.291 66.4169 156.287 66.4169C154.721 66.4096 153.457 65.1373 153.463 63.5716C153.466 62.7542 153.66 43.4042 164.662 30.0265C165.658 28.8162 167.446 28.6422 168.656 29.6376C169.866 30.6327 170.04 32.4205 169.045 33.6311C159.347 45.4223 159.138 63.4144 159.137 63.5951C159.128 65.1556 157.86 66.4169 156.3 66.4169Z" fill="#333E40"/>
<path d="M1.18528 109.461C-0.395094 109.764 -0.395094 112.026 1.18528 112.329L24.4462 119.629V102.157L1.18528 109.461Z" fill="#333E40"/>
<path d="M75.3356 31.341C71.5164 43.9213 77.8604 56.9856 89.5052 60.5208C101.15 64.056 113.686 56.7234 117.505 44.143C121.325 31.5627 114.981 18.4984 103.336 14.9632C91.6909 11.428 79.1549 18.7606 75.3356 31.341Z" fill="#D9D9D9"/>
<path d="M87.4552 54.5773C87.2808 54.5773 87.1042 54.5615 86.9272 54.5277C85.3883 54.2376 84.3752 52.7568 84.6642 51.2179C84.7913 50.5401 87.8929 34.502 97.7585 24.8534C98.8788 23.7578 100.675 23.778 101.77 24.8982C102.866 26.0182 102.846 27.8148 101.726 28.9101C93.1562 37.2912 90.2682 52.1179 90.2403 52.2666C89.9822 53.6277 88.7918 54.5773 87.4552 54.5773Z" fill="#F0F0F0"/>
<path d="M78.1358 36.9216C73.7724 22.5488 59.4501 14.1715 46.1459 18.2105C32.8417 22.2494 25.5937 37.1751 29.9571 51.548C34.3205 65.9208 48.6428 74.2981 61.947 70.2591C75.2512 66.2202 82.4992 51.2945 78.1358 36.9216Z" fill="#F0F0F0"/>
<path d="M64.2883 63.067C62.9507 63.067 61.7599 62.1167 61.504 60.7541C61.4691 60.5705 58.1482 43.5198 48.2676 33.8562C47.1477 32.7608 47.1275 30.9642 48.2228 29.8443C49.3181 28.7251 51.1144 28.7034 52.2347 29.7995C63.4159 40.735 66.9354 58.9362 67.0797 59.7058C67.3687 61.2458 66.3545 62.7281 64.8145 63.0171C64.6379 63.0509 64.4617 63.067 64.2883 63.067Z" fill="#D9D9D9"/>
<path d="M73.057 125.056V90.9402L88.0239 61.6666L84.7794 49.8464C73.8883 51.8843 63.8284 55.4589 55.0549 60.2287L39.5974 71.0534L30.7974 98.6438V124.836L41.582 149.707L55.0545 161.561C63.8281 166.331 73.8879 169.905 84.7791 171.943L90.2245 158.951L73.057 125.056Z" fill="#FFCE1C"/>
<path d="M89.2278 161.331C87.7315 161.112 86.2466 160.871 84.7793 160.595C73.8881 158.557 63.8283 154.983 55.0547 150.213C47.3717 146.034 40.676 140.932 35.2629 135.135L41.5822 149.708L55.0547 161.561C55.6033 161.86 56.1563 162.153 56.7144 162.442C58.3895 163.308 60.1083 164.131 61.8686 164.909C66.6083 167.005 71.6938 168.778 76.7735 170.133C79.3849 170.829 82.0558 171.434 84.7789 171.944L89.2278 161.331Z" fill="#FAA330"/>
<path d="M39.2461 110.893C39.2461 129.776 45.1013 147.262 55.055 161.561C33.9524 150.082 20.2725 131.662 20.2725 110.893C20.2725 90.128 33.9524 71.7047 55.055 60.2294C45.1013 74.528 39.2461 92.0146 39.2461 110.893Z" fill="#3B484A"/>
<path d="M179.105 140.06C169.953 153.998 154.261 164.866 134.494 170.225C125.736 172.601 116.177 173.895 106.034 173.895C98.6984 173.895 91.5757 173.219 84.7791 171.944C69.7556 156.173 60.4966 134.637 60.4966 110.894C60.4966 87.1538 69.7559 65.6187 84.7791 49.8476C91.5753 48.5724 98.6984 47.8971 106.034 47.8971C129.151 47.8971 149.226 54.6137 163.722 65.539C167.995 68.7607 171.786 72.343 175.023 76.2289L179.105 140.06Z" fill="#3B484A"/>
<path d="M134.494 158.876C125.736 161.252 116.177 162.546 106.033 162.546C98.6981 162.546 91.5754 161.87 84.7788 160.595C81.0658 159.901 77.4516 159.023 73.9497 157.985C77.0954 163.01 80.725 167.688 84.7788 171.944C85.6285 172.103 86.4829 172.253 87.3429 172.393C102.955 174.945 119.203 174.372 134.494 170.224C150.578 165.862 166.026 157.209 176.361 143.897C177.331 142.646 178.247 141.366 179.105 140.06L178.442 129.693C169.205 143.159 153.794 153.645 134.494 158.876Z" fill="#333E40"/>
<path d="M187.998 110.893C188.079 121.234 184.786 131.457 179.105 140.06C157.005 173.529 104.762 171.473 86.361 133.897C82.8698 126.77 80.9875 119.01 80.9875 110.893C80.9875 99.6342 84.6113 89.0621 91.1234 79.9129C103.794 62.1039 129.47 59.4782 145.104 74.7484C145.351 74.9911 145.597 75.2342 145.84 75.4846C146.087 75.2342 146.333 74.9915 146.576 74.7484C146.626 74.6992 146.675 74.6533 146.724 74.6045C154.804 66.8102 167.834 67.607 175.022 76.2289C183.135 85.9594 187.899 98.1214 187.998 110.893Z" fill="#FFCE1C"/>
<path d="M187.97 109.587C187.926 108.22 187.826 106.853 187.674 105.493C186.72 113.762 183.693 121.765 179.105 128.712C169.952 142.65 154.261 153.518 134.494 158.877C129.813 160.146 124.902 161.104 119.796 161.723C141.126 167.613 165.678 160.394 179.105 140.06C184.268 132.24 187.445 123.072 187.932 113.696C188.003 112.351 188.014 110.969 187.97 109.587Z" fill="#FAA330"/>
<path d="M20.6176 105.219C20.5526 105.754 20.4978 106.292 20.4516 106.831C20.4354 107.019 20.4229 107.207 20.409 107.394C19.9867 113.029 20.5915 118.713 22.1711 124.138C25.3319 134.99 32.2251 144.397 40.7181 151.722C44.9683 155.388 49.7799 158.692 55.0557 161.561C51.3438 156.229 48.2025 150.453 45.7218 144.327C31.7261 134.153 22.4704 120.471 20.6176 105.219Z" fill="#333E40"/>
<path d="M119.125 117.445C117.558 117.445 116.289 116.174 116.289 114.608V109.766C116.289 108.199 117.558 106.929 119.125 106.929C120.693 106.929 121.962 108.199 121.962 109.766V114.608C121.963 116.174 120.693 117.445 119.125 117.445Z" fill="#3B484A"/>
<path d="M172.633 117.445C171.066 117.445 169.796 116.174 169.796 114.608V109.766C169.796 108.199 171.066 106.929 172.633 106.929C174.2 106.929 175.47 108.199 175.47 109.766V114.608C175.47 116.174 174.2 117.445 172.633 117.445Z" fill="#3B484A"/>
<path d="M145.879 120.029C142.487 120.029 139.302 118.611 137.14 116.138C136.109 114.958 136.229 113.166 137.409 112.135C138.589 111.104 140.381 111.224 141.412 112.404C142.496 113.644 144.124 114.355 145.879 114.355C147.634 114.355 149.262 113.644 150.346 112.404C151.377 111.224 153.17 111.103 154.349 112.135C155.529 113.166 155.65 114.958 154.618 116.138C152.457 118.611 149.272 120.029 145.879 120.029Z" fill="#3B484A"/>
<path d="M143.606 33.7493C147.296 33.7493 150.287 30.7581 150.287 27.0683C150.287 23.3785 147.296 20.3873 143.606 20.3873C139.916 20.3873 136.925 23.3785 136.925 27.0683C136.925 30.7581 139.916 33.7493 143.606 33.7493Z" fill="#FFCE1C"/>
<path d="M150.009 25.1846C149.275 27.6529 147.143 29.5791 144.424 29.9144C141.128 30.3208 138.105 28.251 137.202 25.1652C136.948 26.0211 136.858 26.9412 136.974 27.8842C137.426 31.5461 140.761 34.1488 144.423 33.6971C148.085 33.2451 150.688 29.9103 150.236 26.248C150.191 25.8815 150.109 25.5287 150.009 25.1846Z" fill="#FAA330"/>
<path d="M166.855 38.5077C170.545 38.5077 173.536 35.5165 173.536 31.8267C173.536 28.1369 170.545 25.1458 166.855 25.1458C163.165 25.1458 160.174 28.1369 160.174 31.8267C160.174 35.5165 163.165 38.5077 166.855 38.5077Z" fill="#FFCE1C"/>
<path d="M173.257 29.9463C172.522 32.4146 170.39 34.3408 167.671 34.6761C164.376 35.0826 161.353 33.0127 160.45 29.9269C160.195 30.7828 160.106 31.703 160.222 32.6459C160.674 36.3079 164.009 38.9105 167.671 38.4588C171.333 38.0068 173.936 34.672 173.484 31.0097C173.439 30.6429 173.357 30.29 173.257 29.9463Z" fill="#FAA330"/>
</svg>
