<svg xmlns="http://www.w3.org/2000/svg" viewBox="0 0 474.23 438.7"><defs><style>.cls-1{fill:#ed8ee0;}.cls-1,.cls-2,.cls-3,.cls-4,.cls-5,.cls-6{stroke:#000;stroke-miterlimit:10;stroke-width:7px;}.cls-1,.cls-2,.cls-3,.cls-6{isolation:isolate;}.cls-2,.cls-4{fill:#1f841c;}.cls-3{fill:#cc60bd;}.cls-5{fill:none;stroke-linecap:round;}.cls-6{fill:#af4b23;}</style></defs><g id="Layer_2" data-name="Layer 2"><g id="Layer_1-2" data-name="Layer 1"><path class="cls-1" d="M191,74.31s-49.14,108-150,110.36C65.35,101.78,179.45,57,179.45,57S184.7,67.56,191,74.31Z"/><rect class="cls-2" x="228.21" y="204.32" width="18.13" height="230.87"/><path class="cls-3" d="M204.52,83.25S186.89,200.6,90.6,230.52c.67-86.39,98.08-160.8,98.08-160.8S196.64,78.48,204.52,83.25Z"/><path class="cls-3" d="M238.85,92.79s33.51,113.83-41.18,181.57C161.84,195.76,218.78,87.2,218.78,87.2S229.7,91.79,238.85,92.79Z"/><path class="cls-1" d="M212.08,87.92s8.73,118.34-78.57,168.79c-18.43-84.4,60.14-178.49,60.14-178.49S203.35,85,212.08,87.92Z"/><path class="cls-1" d="M283.59,74.31s49.15,108,150,110.36C409.2,101.78,295.11,57,295.11,57S289.86,67.56,283.59,74.31Z"/><path class="cls-3" d="M270,83.25S287.67,200.6,384,230.52c-.66-86.39-98.08-160.8-98.08-160.8S277.91,78.48,270,83.25Z"/><path class="cls-3" d="M235.71,92.79s-33.52,113.83,41.17,181.57c35.83-78.6-21.11-187.16-21.11-187.16S244.86,91.79,235.71,92.79Z"/><path class="cls-1" d="M262.47,87.92s-8.73,118.34,78.58,168.79c18.43-84.4-60.15-178.49-60.15-178.49S271.2,85,262.47,87.92Z"/><path class="cls-4" d="M247.34,392.51s97.6-124.16,221.8-103.79c-52.35,114.46-179,100.88-189.91,96l-31.89,35.89Z"/><line class="cls-5" x1="422.55" y1="309.1" x2="327" y2="353.55"/><path class="cls-4" d="M226.89,392.51S129.29,268.35,5.09,288.72c52.35,114.46,179,100.88,189.91,96l31.89,35.89Z"/><line class="cls-5" x1="50.68" y1="309.1" x2="146.23" y2="353.55"/><path class="cls-6" d="M179.45,55.9s.24-52.4,58.19-52.4,57.47,52.4,57.47,52.4-8.34,35.84-56.26,35.84S179.45,55.9,179.45,55.9Z"/></g></g></svg>