<svg xmlns="http://www.w3.org/2000/svg" viewBox="0 0 559.42 476.05"><defs><style>.cls-1{fill:#ed8ee0;}.cls-1,.cls-2,.cls-3,.cls-4,.cls-5,.cls-6{stroke:#000;stroke-miterlimit:10;stroke-width:7px;}.cls-1,.cls-2,.cls-3,.cls-6{isolation:isolate;}.cls-2,.cls-4{fill:#1f841c;}.cls-3{fill:#cc60bd;}.cls-5{fill:none;stroke-linecap:round;}.cls-6{fill:#af4b23;}</style></defs><g id="Layer_2" data-name="Layer 2"><g id="Layer_1-2" data-name="Layer 1"><path class="cls-1" d="M276.15,74.31S227,182.32,126.2,184.67C150.54,101.78,264.64,57,264.64,57S269.89,67.56,276.15,74.31Z"/><rect class="cls-2" x="313.4" y="204.32" width="18.13" height="230.87"/><path class="cls-3" d="M289.7,83.25S272.08,200.6,175.79,230.52c.66-86.39,98.08-160.8,98.08-160.8S281.83,78.48,289.7,83.25Z"/><path class="cls-3" d="M324,92.79s33.52,113.83-41.17,181.57C247,195.76,304,87.2,304,87.2S314.89,91.79,324,92.79Z"/><path class="cls-1" d="M297.27,87.92S306,206.26,218.7,256.71c-18.44-84.4,60.14-178.49,60.14-178.49S288.54,85,297.27,87.92Z"/><path class="cls-1" d="M368.78,74.31s49.15,108,150,110.36C494.39,101.78,380.29,57,380.29,57S375,67.56,368.78,74.31Z"/><path class="cls-3" d="M355.23,83.25S372.85,200.6,469.14,230.52c-.66-86.39-98.08-160.8-98.08-160.8S363.1,78.48,355.23,83.25Z"/><path class="cls-3" d="M320.9,92.79s-33.52,113.83,41.17,181.57C397.9,195.76,341,87.2,341,87.2S330.05,91.79,320.9,92.79Z"/><path class="cls-1" d="M347.66,87.92s-8.73,118.34,78.58,168.79c18.43-84.4-60.15-178.49-60.15-178.49S356.39,85,347.66,87.92Z"/><path class="cls-4" d="M332.53,392.51s97.6-124.16,221.8-103.79C502,403.18,375.28,389.6,364.42,384.75l-31.89,35.89Z"/><line class="cls-5" x1="507.74" y1="309.1" x2="412.19" y2="353.55"/><path class="cls-4" d="M312.07,392.51S214.48,268.35,90.28,288.72c52.34,114.46,179,100.88,189.91,96l31.88,35.89Z"/><line class="cls-5" x1="135.87" y1="309.1" x2="231.42" y2="353.55"/><path class="cls-6" d="M264.64,55.9s.23-52.4,58.19-52.4,57.46,52.4,57.46,52.4S372,91.74,324,91.74,264.64,55.9,264.64,55.9Z"/><path class="cls-1" d="M191,111.67S141.82,219.68,41,222C65.35,139.14,179.45,94.31,179.45,94.31S184.7,104.92,191,111.67Z"/><rect class="cls-2" x="228.21" y="241.68" width="18.13" height="230.87"/><path class="cls-3" d="M204.52,120.61S186.89,238,90.6,267.87c.67-86.38,98.08-160.79,98.08-160.79S196.64,115.84,204.52,120.61Z"/><path class="cls-3" d="M238.85,130.14S272.36,244,197.67,311.72c-35.83-78.61,21.11-187.17,21.11-187.17S229.7,129.14,238.85,130.14Z"/><path class="cls-1" d="M212.08,125.28s8.73,118.34-78.57,168.78c-18.43-84.39,60.14-178.49,60.14-178.49S203.35,122.37,212.08,125.28Z"/><path class="cls-1" d="M283.59,111.67s49.15,108,150,110.35C409.2,139.14,295.11,94.31,295.11,94.31S289.86,104.92,283.59,111.67Z"/><path class="cls-3" d="M270,120.61S287.67,238,384,267.87c-.66-86.38-98.08-160.79-98.08-160.79S277.91,115.84,270,120.61Z"/><path class="cls-3" d="M235.71,130.14S202.19,244,276.88,311.72c35.83-78.61-21.11-187.17-21.11-187.17S244.86,129.14,235.71,130.14Z"/><path class="cls-1" d="M262.47,125.28s-8.73,118.34,78.58,168.78c18.43-84.39-60.15-178.49-60.15-178.49S271.2,122.37,262.47,125.28Z"/><path class="cls-4" d="M247.34,429.87s97.6-124.17,221.8-103.79c-52.35,114.46-179,100.88-189.91,96L247.34,458Z"/><line class="cls-5" x1="422.55" y1="346.46" x2="327" y2="390.91"/><path class="cls-4" d="M226.89,429.87S129.29,305.7,5.09,326.08c52.35,114.46,179,100.88,189.91,96L226.89,458Z"/><line class="cls-5" x1="50.68" y1="346.46" x2="146.23" y2="390.91"/><path class="cls-6" d="M179.45,93.26s.24-52.4,58.19-52.4,57.47,52.4,57.47,52.4-8.34,35.83-56.26,35.83S179.45,93.26,179.45,93.26Z"/></g></g></svg>