<svg xmlns="http://www.w3.org/2000/svg" viewBox="0 0 322.02 307.18"><defs><style>.cls-1{fill:#d5ea79;}.cls-2{fill:#fff;}.cls-3{fill:#ffee80;}</style></defs><g id="Layer_2" data-name="Layer 2"><g id="Layer_1-2" data-name="Layer 1"><path class="cls-1" d="M163.34,153.36H183.7v78.87H163.34Z"/><path class="cls-2" d="M185.33,100l9.82,17a25,25,0,1,1-43.27,0l9.82-17Z"/><path class="cls-2" d="M185.33,59.11l9.82-17a25,25,0,1,0-43.27,0l9.82,17Z"/><path class="cls-2" d="M185.33,59.11l9.82-17a25,25,0,1,1,21.64,37.47H197.15Z"/><path class="cls-2" d="M149.89,79.57H130.25A25,25,0,1,0,151.89,117l9.81-17Z"/><path class="cls-2" d="M149.89,79.57H130.25A25,25,0,1,1,151.89,42.1l9.81,17Z"/><path class="cls-2" d="M185.33,100l9.82,17a25,25,0,1,0,21.64-37.47H197.15Z"/><circle class="cls-3" cx="173.52" cy="79.57" r="23.63"/><path class="cls-1" d="M243.14,162.15h-18.3a41.14,41.14,0,0,0-41.14,41.14v18.3H202a41.14,41.14,0,0,0,41.14-41.14Z"/><path class="cls-1" d="M103.9,162.15h18.3a41.14,41.14,0,0,1,41.14,41.14v18.3H145a41.14,41.14,0,0,1-41.14-41.14Z"/><path d="M243.14,157.52h-18.3a45.75,45.75,0,0,0-36.52,18.21v-20.5a30,30,0,0,0,14.82-24.36,29.65,29.65,0,0,0,29.62-51.3,29.65,29.65,0,0,0-29.62-51.3,29.71,29.71,0,0,0-4-13.47,29.61,29.61,0,0,0-51.28,0,29.58,29.58,0,0,0-4,13.47A29.64,29.64,0,0,0,130.25,25a29.66,29.66,0,0,0-16,54.59,29.65,29.65,0,0,0,29.62,51.3,30,30,0,0,0,14.82,24.36v20.5a45.75,45.75,0,0,0-36.52-18.21H103.9a4.63,4.63,0,0,0-4.63,4.63v18.3A45.82,45.82,0,0,0,145,226.22h13.68v6a4.62,4.62,0,0,0,4.62,4.63H183.7a4.62,4.62,0,0,0,4.62-4.63v-6H202a46,46,0,0,0,11.41-1.43,4.63,4.63,0,0,0-2.3-9A36.69,36.69,0,0,1,202,217h-7.13l16-16a4.62,4.62,0,0,0-6.54-6.54l-16,16v-7.14a36.56,36.56,0,0,1,36.52-36.52h13.68v13.68a36.52,36.52,0,0,1-1.59,10.67,4.63,4.63,0,0,0,8.85,2.7,45.72,45.72,0,0,0,2-13.37v-18.3a4.63,4.63,0,0,0-4.63-4.63Zm-8.72-63.15a20.36,20.36,0,1,1-35.26,20.36l-7.7-13.34a28.31,28.31,0,0,0,9.93-17.19h15.4a20.15,20.15,0,0,1,17.63,10.17Zm-79.91-14.8a19,19,0,1,1,19,19,19,19,0,0,1-19-19Zm79.91-35.16a20.35,20.35,0,0,1-17.63,30.53h-15.4a28.31,28.31,0,0,0-9.93-17.19l7.7-13.34a20.36,20.36,0,0,1,35.26,0Zm-78.53-25a20.36,20.36,0,0,1,35.26,20.36l-7.7,13.33a28.14,28.14,0,0,0-19.86,0l-7.7-13.33a20.15,20.15,0,0,1,0-20.36ZM112.62,64.77a20.36,20.36,0,1,1,35.26-20.36l7.7,13.34a28.27,28.27,0,0,0-9.93,17.19h-15.4A20.15,20.15,0,0,1,112.62,64.77Zm0,50A20.35,20.35,0,0,1,130.25,84.2h15.4a28.27,28.27,0,0,0,9.93,17.19l-7.7,13.34a20.36,20.36,0,0,1-35.26,0Zm43.27,4.63,7.7-13.34a28.14,28.14,0,0,0,19.86,0l7.7,13.34a20.36,20.36,0,1,1-35.26,0Zm-47.37,61.09V166.77H122.2a36.57,36.57,0,0,1,36.52,36.52v7.14l-16-16A4.63,4.63,0,0,0,136.2,201l16,16H145A36.56,36.56,0,0,1,108.52,180.45Zm70.55,47.16H168v-69a30.45,30.45,0,0,0,11.1,0Z"/><path d="M230.43,205.56a4.64,4.64,0,1,0,3.27,1.36A4.66,4.66,0,0,0,230.43,205.56Z"/><path class="cls-1" d="M64.07,192.22H84.43v78.87H64.07Z"/><path class="cls-2" d="M86.07,138.9l9.81,17a25,25,0,1,1-43.26,0l9.81-17Z"/><path class="cls-2" d="M86.07,98l9.81-17a25,25,0,1,0-43.26,0l9.81,17Z"/><path class="cls-2" d="M86.07,98l9.81-17a25,25,0,1,1,21.64,37.47H97.88Z"/><path class="cls-2" d="M50.62,118.43H31A25,25,0,1,0,52.62,155.9l9.82-17Z"/><path class="cls-2" d="M50.62,118.43H31A25,25,0,1,1,52.62,81l9.82,17Z"/><path class="cls-2" d="M86.07,138.9l9.81,17a25,25,0,1,0,21.64-37.47H97.88Z"/><circle class="cls-3" cx="74.25" cy="118.43" r="23.63"/><path class="cls-1" d="M143.87,201h-18.3a41.14,41.14,0,0,0-41.14,41.14v18.3h18.3a41.14,41.14,0,0,0,41.14-41.14Z"/><path class="cls-1" d="M4.63,201h18.3a41.14,41.14,0,0,1,41.14,41.14v18.3H45.77A41.14,41.14,0,0,1,4.63,219.31Z"/><path d="M143.87,196.38h-18.3a45.75,45.75,0,0,0-36.52,18.21v-20.5a30,30,0,0,0,14.82-24.36,29.65,29.65,0,0,0,29.62-51.3,29.65,29.65,0,0,0-29.62-51.3,29.65,29.65,0,0,0-59.24,0A29.64,29.64,0,0,0,31,63.84a29.66,29.66,0,0,0-16,54.59,29.53,29.53,0,0,0-9.67,10.18A29.61,29.61,0,0,0,31,173a29.52,29.52,0,0,0,13.65-3.29,30,30,0,0,0,14.82,24.36v20.5a45.75,45.75,0,0,0-36.52-18.21H4.63A4.63,4.63,0,0,0,0,201v18.3a45.82,45.82,0,0,0,45.77,45.77H59.45v6a4.62,4.62,0,0,0,4.62,4.62H84.43a4.62,4.62,0,0,0,4.62-4.62v-6h13.68a46,46,0,0,0,11.41-1.43,4.63,4.63,0,0,0-2.3-9,36.63,36.63,0,0,1-9.11,1.15H95.6l16-16a4.63,4.63,0,0,0-6.55-6.54l-16,16v-7.14a36.57,36.57,0,0,1,36.52-36.52h13.68v13.68A36.51,36.51,0,0,1,137.67,230a4.62,4.62,0,1,0,8.84,2.7,45.72,45.72,0,0,0,2-13.37V201a4.63,4.63,0,0,0-4.63-4.63Zm-8.72-63.15a20.36,20.36,0,1,1-35.26,20.36l-7.7-13.34a28.31,28.31,0,0,0,9.93-17.19h15.4a20.15,20.15,0,0,1,17.63,10.17Zm-79.9-14.8a19,19,0,1,1,19,19,19,19,0,0,1-19-19Zm79.9-35.16a20.35,20.35,0,0,1-17.63,30.53h-15.4a28.31,28.31,0,0,0-9.93-17.19l7.7-13.34a20.36,20.36,0,0,1,35.26,0Zm-78.53-25A20.36,20.36,0,1,1,91.88,78.65L84.18,92a28.14,28.14,0,0,0-19.86,0l-7.7-13.33a20.15,20.15,0,0,1,0-20.36ZM13.35,103.63A20.36,20.36,0,0,1,31,73.09,20.16,20.16,0,0,1,48.61,83.27l7.7,13.34a28.31,28.31,0,0,0-9.93,17.19H31A20.15,20.15,0,0,1,13.35,103.63Zm0,50A20.35,20.35,0,0,1,31,123.06h15.4a28.31,28.31,0,0,0,9.93,17.19l-7.7,13.34a20.36,20.36,0,0,1-35.26,0Zm43.27,4.63,7.7-13.34a28.14,28.14,0,0,0,19.86,0l7.7,13.34a20.36,20.36,0,1,1-35.26,0ZM9.25,219.31V205.63H22.93a36.57,36.57,0,0,1,36.52,36.52v7.14l-16-16a4.63,4.63,0,0,0-6.55,6.54l16,16H45.77A36.56,36.56,0,0,1,9.25,219.31ZM79.8,266.47H68.7v-69a30.45,30.45,0,0,0,11.1,0Z"/><path d="M131.16,244.42a4.64,4.64,0,1,0,3.27,1.36A4.66,4.66,0,0,0,131.16,244.42Z"/><path class="cls-1" d="M237.59,223.68H258v78.87H237.59Z"/><path class="cls-2" d="M259.58,170.35l9.82,17a25,25,0,1,1-43.27,0l9.82-17Z"/><path class="cls-2" d="M259.58,129.42l9.82-17a25,25,0,1,0-43.27,0l9.82,17Z"/><path class="cls-2" d="M259.58,129.42l9.82-17A25,25,0,1,1,291,149.89H271.4Z"/><path class="cls-2" d="M224.14,149.89H204.5a25,25,0,1,0,21.64,37.47l9.81-17Z"/><path class="cls-2" d="M224.14,149.89H204.5a25,25,0,1,1,21.64-37.47l9.81,17Z"/><path class="cls-2" d="M259.58,170.35l9.82,17A25,25,0,1,0,291,149.89H271.4Z"/><circle class="cls-3" cx="247.77" cy="149.89" r="23.63"/><path class="cls-1" d="M317.39,232.47h-18.3A41.14,41.14,0,0,0,258,273.61v18.3h18.3a41.14,41.14,0,0,0,41.14-41.14Z"/><path class="cls-1" d="M178.15,232.47h18.3a41.14,41.14,0,0,1,41.14,41.14v18.3h-18.3a41.14,41.14,0,0,1-41.14-41.14Z"/><path d="M317.39,227.84h-18.3a45.75,45.75,0,0,0-36.52,18.21v-20.5a30,30,0,0,0,14.82-24.36A29.64,29.64,0,0,0,291,204.48a29.66,29.66,0,0,0,16-54.59,29.66,29.66,0,0,0-29.62-51.31,29.7,29.7,0,0,0-4-13.46,29.65,29.65,0,0,0-55.26,13.46A29.63,29.63,0,0,0,204.5,95.3a29.66,29.66,0,0,0-16,54.59,29.65,29.65,0,0,0,29.62,51.3A30,30,0,0,0,233,225.55v20.5a45.75,45.75,0,0,0-36.52-18.21h-18.3a4.63,4.63,0,0,0-4.63,4.63v18.3a45.82,45.82,0,0,0,45.77,45.77H233v6a4.62,4.62,0,0,0,4.62,4.63H258a4.62,4.62,0,0,0,4.62-4.63v-6h13.68a45.58,45.58,0,0,0,11.41-1.44,4.63,4.63,0,1,0-2.3-9,36.69,36.69,0,0,1-9.11,1.15h-7.13l16-16a4.63,4.63,0,1,0-6.54-6.55l-16,16v-7.13a36.56,36.56,0,0,1,36.52-36.52h13.68v13.68a36.52,36.52,0,0,1-1.59,10.67,4.63,4.63,0,0,0,8.85,2.7,45.72,45.72,0,0,0,2-13.37v-18.3a4.63,4.63,0,0,0-4.63-4.63Zm-8.72-63.15a20.36,20.36,0,0,1-35.26,20.36l-7.7-13.35a28.26,28.26,0,0,0,9.93-17.19H291a20.16,20.16,0,0,1,17.63,10.18Zm-79.91-14.8a19,19,0,1,1,19,19,19,19,0,0,1-19-19Zm79.91-35.16A20.36,20.36,0,0,1,291,145.26h-15.4a28.31,28.31,0,0,0-9.93-17.19l7.7-13.34a20.36,20.36,0,0,1,35.26,0Zm-78.53-25A20.36,20.36,0,0,1,265.4,110.1l-7.7,13.34a28.14,28.14,0,0,0-19.86,0l-7.7-13.34a20.14,20.14,0,0,1,0-20.35Zm-43.27,45.33a20.36,20.36,0,0,1,35.26-20.35l7.7,13.34a28.27,28.27,0,0,0-9.93,17.19H204.5A20.14,20.14,0,0,1,186.87,135.08Zm0,50a20.36,20.36,0,0,1,17.63-30.54h15.4a28.21,28.21,0,0,0,9.93,17.19l-7.7,13.35a20.37,20.37,0,0,1-35.26,0Zm43.27,4.62,7.7-13.33a28.14,28.14,0,0,0,19.86,0l7.7,13.33a20.36,20.36,0,1,1-35.26,0Zm-47.37,61.1V237.09h13.68A36.56,36.56,0,0,1,233,273.61v7.13l-16-16a4.63,4.63,0,1,0-6.55,6.55l16,16h-7.13A36.56,36.56,0,0,1,182.77,250.77Zm70.55,47.16h-11.1V229a30.45,30.45,0,0,0,11.1,0Z"/><path d="M304.68,275.88a4.64,4.64,0,1,0,3.27,1.36A4.66,4.66,0,0,0,304.68,275.88Z"/></g></g></svg>