<svg id="Capa_1" enable-background="new 0 0 512 512" height="512" viewBox="0 0 512 512" width="512" xmlns="http://www.w3.org/2000/svg"><g id="XMLID_1202_"><path id="XMLID_974_" d="m234 331.5h44v170.5h-44z" fill="#d5ea79"/><g fill="#fff"><path id="XMLID_973_" d="m281.54 216.237 21.225 36.763c20.785 36-5.196 81-46.765 81-41.569 0-67.55-45-46.765-81l21.225-36.763z"/><path id="XMLID_972_" d="m281.54 127.763 21.225-36.763c20.785-36-5.196-81-46.765-81-41.569 0-67.55 45-46.765 81l21.225 36.763z"/><path id="XMLID_968_" d="m281.54 127.763 21.225-36.763c20.785-36 72.746-36 93.531 0 20.785 36-5.196 81-46.765 81h-42.45z"/><path id="XMLID_959_" d="m204.92 172h-42.45c-41.569 0-67.55 45-46.765 81 20.785 36 72.746 36 93.531 0l21.225-36.763z"/><path id="XMLID_955_" d="m204.92 172h-42.45c-41.569 0-67.55-45-46.765-81 20.785-36 72.746-36 93.531 0l21.225 36.763z"/><path id="XMLID_954_" d="m281.54 216.237 21.225 36.763c20.785 36 72.746 36 93.531 0 20.785-36-5.196-81-46.765-81h-42.45z"/></g><circle id="XMLID_230_" cx="256" cy="172" fill="#ffee80" r="51.08"/><path id="XMLID_1017_" d="m406.5 350.5h-39.563c-49.119 0-88.937 39.819-88.937 88.937v39.563h39.563c49.119 0 88.937-39.819 88.937-88.937z" fill="#d5ea79"/><path id="XMLID_1556_" d="m105.5 350.5h39.563c49.119 0 88.937 39.819 88.937 88.937v39.563h-39.563c-49.119 0-88.937-39.819-88.937-88.937z" fill="#d5ea79"/><g id="XMLID_1162_"><path id="XMLID_1232_" d="m406.5 340.5h-39.563c-32.204 0-60.859 15.469-78.937 39.363v-44.321c9.54-5.496 17.631-13.506 23.425-23.542 5.276-9.138 8.138-19.084 8.601-29.102 8.907 4.607 18.952 7.102 29.504 7.102 23.137 0 43.857-11.963 55.426-32s11.569-43.963 0-64c-5.276-9.138-12.459-16.589-20.903-22 8.444-5.411 15.627-12.862 20.903-22 11.569-20.037 11.569-43.963 0-64-11.568-20.037-32.289-32-55.426-32-10.551 0-20.596 2.495-29.504 7.102-.464-10.018-3.326-19.965-8.601-29.102-11.568-20.037-32.288-32-55.425-32s-43.857 11.963-55.426 32c-5.276 9.138-8.138 19.084-8.601 29.102-8.908-4.607-18.952-7.102-29.504-7.102-23.137 0-43.857 11.963-55.426 32s-11.569 43.963 0 64c5.276 9.138 12.459 16.589 20.903 22-8.444 5.411-15.627 12.862-20.903 22-11.569 20.037-11.569 43.963 0 64 11.568 20.037 32.289 32 55.426 32 10.551 0 20.596-2.495 29.504-7.102.464 10.018 3.326 19.965 8.601 29.102 5.794 10.036 13.885 18.046 23.426 23.542v44.321c-18.078-23.894-46.733-39.363-78.937-39.363h-39.563c-5.523 0-10 4.478-10 10v39.563c0 54.555 44.383 98.938 98.937 98.938h29.563v13c0 5.522 4.477 10 10 10h44c5.523 0 10-4.478 10-10v-13h29.562c8.348 0 16.646-1.043 24.664-3.101 5.35-1.373 8.573-6.822 7.2-12.172-1.372-5.35-6.82-8.574-12.172-7.201-6.395 1.642-13.021 2.474-19.692 2.474h-15.42l34.519-34.519c3.905-3.905 3.905-10.237 0-14.143-3.905-3.904-10.237-3.904-14.143 0l-34.518 34.518v-15.42c0-43.526 35.411-78.938 78.937-78.938h29.563v29.563c0 7.864-1.151 15.625-3.421 23.066-1.611 5.283 1.365 10.871 6.647 12.482 5.281 1.611 10.871-1.365 12.482-6.646 2.847-9.335 4.291-19.059 4.291-28.902v-39.562c.001-5.522-4.476-10-9.999-10zm-18.864-136.5c7.954 13.775 7.954 30.225 0 44s-22.198 22-38.105 22-30.151-8.225-38.105-22l-16.651-28.841c11.168-9.198 19.012-22.282 21.474-37.159h33.283c15.905 0 30.151 8.225 38.104 22zm-172.717-32c0-22.651 18.429-41.08 41.081-41.08s41.08 18.429 41.08 41.08-18.428 41.08-41.08 41.08-41.081-18.429-41.081-41.08zm172.717-76c7.954 13.775 7.954 30.225 0 44-7.953 13.775-22.198 22-38.105 22h-33.283c-2.461-14.877-10.306-27.961-21.474-37.159l16.651-28.841c7.954-13.775 22.198-22 38.105-22s30.152 8.225 38.106 22zm-169.741-54c7.954-13.775 22.199-22 38.105-22s30.152 8.225 38.105 22c7.954 13.775 7.953 30.225 0 44l-16.641 28.823c-6.682-2.517-13.913-3.904-21.464-3.904s-14.782 1.387-21.464 3.904l-16.641-28.823c-7.954-13.775-7.954-30.225 0-44zm-93.531 98c-7.953-13.775-7.953-30.225 0-44 7.954-13.775 22.198-22 38.105-22s30.151 8.225 38.105 22l16.651 28.841c-11.168 9.198-19.012 22.282-21.474 37.159h-33.283c-15.906 0-30.151-8.225-38.104-22zm0 108c-7.953-13.775-7.953-30.225 0-44 7.954-13.775 22.199-22 38.105-22h33.283c2.461 14.877 10.306 27.96 21.474 37.159l-16.652 28.841c-7.954 13.775-22.198 22-38.105 22s-30.152-8.225-38.105-22zm93.531 10 16.642-28.823c6.682 2.517 13.913 3.904 21.464 3.904s14.782-1.387 21.464-3.904l16.64 28.823c7.953 13.775 7.954 30.225 0 44-7.953 13.775-22.198 22-38.105 22s-30.152-8.225-38.105-22c-7.954-13.775-7.954-30.225 0-44zm-102.395 132.063v-29.563h29.563c43.526 0 78.937 35.411 78.937 78.938v15.42l-34.519-34.519c-3.905-3.904-10.237-3.904-14.143 0-3.905 3.905-3.905 10.237 0 14.143l34.519 34.518h-15.42c-43.526 0-78.937-35.411-78.937-78.937zm152.5 101.937h-24v-149.107c3.901.726 7.911 1.107 12 1.107s8.099-.381 12-1.107z"/><path id="XMLID_1377_" d="m379.02 444.35c-2.64 0-5.21 1.07-7.07 2.931-1.87 1.859-2.93 4.439-2.93 7.069s1.06 5.21 2.93 7.07c1.86 1.86 4.44 2.93 7.07 2.93s5.2-1.069 7.07-2.93c1.86-1.86 2.93-4.44 2.93-7.07s-1.07-5.21-2.93-7.069c-1.86-1.861-4.44-2.931-7.07-2.931z"/></g></g></svg>