<?xml version="1.0" encoding="utf-8"?>
<!-- Generator: Adobe Illustrator 25.0.0, SVG Export Plug-In . SVG Version: 6.00 Build 0)  -->
<svg version="1.1" id="Layer_1" xmlns="http://www.w3.org/2000/svg" xmlns:xlink="http://www.w3.org/1999/xlink" x="0px" y="0px"
	 viewBox="0 0 511 511" style="enable-background:new 0 0 511 511;" xml:space="preserve">
<path d="M217.4,262c-3.3,0-6.2-2.2-7.2-5.3L187.5,182h-68.1c-4.1,0-7.5-3.3-7.5-7.5c0-4.1,3.3-7.5,7.5-7.5H193
	c3.3,0,6.2,2.2,7.2,5.3l17.2,56.4l25.1-82.4c1-3.2,3.9-5.3,7.2-5.3s6.2,2.2,7.2,5.3l10.9,35.7h65.8c4.1,0,7.5,3.3,7.5,7.5
	c0,4.1-3.3,7.5-7.5,7.5h-71.3c-3.3,0-6.2-2.2-7.2-5.3l-5.3-17.5l-25.1,82.4C223.6,259.8,220.7,262,217.4,262z"/>
<path d="M494.2,119.8c-2-3.6-6.6-4.9-10.2-2.8c-3.6,2-4.9,6.6-2.8,10.2c9,16,13.8,34.2,13.8,52.6c0.1,49-28.1,103.5-83.7,162.1
	c-45.3,47.6-96.1,84-115.9,97.5c-3.3,2.2-7.6,2.2-10.9,0c-17.5-11.9-60.1-42.3-101.3-82.7H253V387c0,9.6,7.8,17.5,17.5,17.5h16.3
	c9.6,0,17.5-7.8,17.5-17.5v-0.6c0.8,0.1,1.6,0.2,2.5,0.2H323c9.6,0,17.5-7.8,17.5-17.5v-85.4c0-9.6-7.8-17.5-17.5-17.5h-16.3
	c-0.8,0-1.7,0.1-2.5,0.2v-0.6c0-9.6-7.8-17.5-17.5-17.5h-16.3c-9.6,0-17.5,7.8-17.5,17.5v29.6h-23.6c-4.1,0-7.5,3.3-7.5,7.5
	c0,4.1,3.3,7.5,7.5,7.5h23.6v31.3H86.4v-31.3h109.2c4.1,0,7.5-3.3,7.5-7.5c0-4.1-3.3-7.5-7.5-7.5h-65.9
	C100,254.2,84.9,215.3,85,179.8c0.1-59.5,48.6-107.9,108.2-107.9h0.2c32.9,0,63.6,14.8,84.2,40.5c3.1,3.8,7.6,6,12.5,6
	s9.4-2.2,12.5-6c20.6-25.7,51.3-40.5,84.2-40.5h0.2c27.6,0,54,10.5,74.2,29.7c3,2.8,7.7,2.7,10.6-0.3c2.8-3,2.7-7.7-0.3-10.6
	c-23-21.8-53-33.7-84.5-33.7c-0.1,0-0.1,0-0.2,0c-37.4,0.1-72.4,16.9-95.9,46.1c-0.4,0.5-1.2,0.5-1.7,0
	C265.7,73.8,230.8,57,193.3,57c-0.1,0-0.1,0-0.2,0c-67.8,0-123,55.1-123.1,122.8c-0.1,36.2,13.9,75,41.5,115.7H86.4v-29.6
	c0-9.6-7.8-17.5-17.5-17.5H52.7c-9.6,0-17.5,7.8-17.5,17.5v0.6c-0.8-0.1-1.6-0.2-2.5-0.2H16.5c-9.6,0-17.5,7.8-17.5,17.5v85.4
	c0,9.6,7.8,17.5,17.5,17.5h16.3c0.8,0,1.7-0.1,2.5-0.2v0.6c0,9.6,7.8,17.5,17.5,17.5H69c9.6,0,17.5-7.8,17.5-17.5v-30.3h75.7
	c45.2,46.5,94.6,81.9,114,95c4.2,2.9,9,4.3,13.8,4.3s9.6-1.4,13.9-4.3c20.2-13.7,72-50.8,118.3-99.5
	c58.4-61.4,87.9-119.4,87.8-172.4C510,158.8,504.5,138.1,494.2,119.8z M306.8,281.2h16.3c1.4,0,2.5,1.1,2.5,2.5v85.4
	c0,1.4-1.1,2.5-2.5,2.5h-16.3c-1.4,0-2.5-1.1-2.5-2.5v-85.4C304.3,282.3,305.4,281.2,306.8,281.2z M268,265.8c0-1.4,1.1-2.5,2.5-2.5
	h16.3c1.4,0,2.5,1.1,2.5,2.5v121.1c0,1.4-1.1,2.5-2.5,2.5h-16.3c-1.4,0-2.5-1.1-2.5-2.5V265.8z M71.5,386.9c0,1.4-1.1,2.5-2.5,2.5
	H52.7c-1.4,0-2.5-1.1-2.5-2.5v-59.1c0-4.1-3.3-7.5-7.5-7.5c-4.1,0-7.5,3.3-7.5,7.5v41.3c0,1.4-1.1,2.5-2.5,2.5H16.5
	c-1.4,0-2.5-1.1-2.5-2.5v-85.4c0-1.4,1.1-2.5,2.5-2.5h16.3c1.4,0,2.5,1.1,2.5,2.5v9.2c0,4.1,3.3,7.5,7.5,7.5c4.1,0,7.5-3.3,7.5-7.5
	v-27.1c0-1.4,1.1-2.5,2.5-2.5H69c1.4,0,2.5,1.1,2.5,2.5V386.9z"/>
</svg>
