<svg width="436" height="512" viewBox="0 0 436 512" fill="none" xmlns="http://www.w3.org/2000/svg">
<path d="M124.009 315.983H310.074V285.927H127.599L124.009 315.983Z" fill="#FFCE1C"/>
<path d="M281.245 276.344C307.293 250.953 292.92 206.715 256.921 201.484C240.822 168.864 194.308 168.864 178.209 201.484C142.211 206.714 127.837 250.953 153.885 276.344C147.736 312.196 185.367 339.537 217.565 322.609C249.764 339.537 287.394 312.196 281.245 276.344Z" fill="#FF5E6B"/>
<path d="M217.565 278.843C232.178 278.843 244.024 266.997 244.024 252.384C244.024 237.771 232.178 225.925 217.565 225.925C202.952 225.925 191.106 237.771 191.106 252.384C191.106 266.997 202.952 278.843 217.565 278.843Z" fill="#FFCE1C"/>
<path d="M384.22 338.33C372.966 338.33 363.844 329.208 363.844 317.954V187.029C363.844 106.371 298.224 40.75 217.565 40.75C136.906 40.75 71.2859 106.37 71.2859 187.029V317.954C71.2859 329.208 62.1639 338.33 50.9099 338.33C39.6559 338.33 30.5339 329.208 30.5339 317.954V187.029C30.5359 83.901 114.437 0 217.565 0C320.693 0 404.595 83.901 404.595 187.029V317.954C404.595 329.208 395.473 338.33 384.22 338.33Z" fill="#C86D5C"/>
<path d="M418.066 352.928L217.565 328.142L17.065 352.928C17.065 352.928 13.546 444.57 74.071 499.14C83.239 507.406 95.136 512.001 107.481 512.001H327.65C339.994 512.001 351.891 507.406 361.06 499.14C421.585 444.57 418.066 352.928 418.066 352.928Z" fill="#C86D5C"/>
<path d="M132.497 434.647C128.229 434.647 124.771 431.188 124.771 426.921V411.525C124.771 407.258 128.229 403.799 132.497 403.799C136.765 403.799 140.223 407.258 140.223 411.525V426.921C140.224 431.187 136.765 434.647 132.497 434.647Z" fill="#3B484A"/>
<path d="M302.634 434.647C298.366 434.647 294.908 431.188 294.908 426.921V411.525C294.908 407.258 298.366 403.799 302.634 403.799C306.902 403.799 310.36 407.258 310.36 411.525V426.921C310.36 431.187 306.901 434.647 302.634 434.647Z" fill="#3B484A"/>
<path d="M217.565 442.865C207.153 442.865 197.38 438.517 190.752 430.933C187.943 427.72 188.271 422.839 191.484 420.031C194.695 417.224 199.577 417.55 202.385 420.763C206.078 424.988 211.61 427.411 217.564 427.411C223.517 427.411 229.049 424.988 232.743 420.763C235.551 417.55 240.433 417.222 243.644 420.031C246.857 422.839 247.186 427.72 244.376 430.933C237.75 438.516 227.978 442.865 217.565 442.865Z" fill="#3B484A"/>
<path d="M189.078 205.135C218.15 205.507 235.028 172.38 217.64 149.08C226.978 121.545 200.688 95.2571 173.155 104.595C149.853 87.2071 116.728 104.085 117.1 133.157C93.362 149.945 99.178 186.665 126.941 195.294C135.57 223.057 172.291 228.872 189.078 205.135Z" fill="#E63E4C"/>
<path d="M166.633 176.748C178.313 176.748 187.782 167.279 187.782 155.599C187.782 143.919 178.313 134.45 166.633 134.45C154.953 134.45 145.484 143.919 145.484 155.599C145.484 167.279 154.953 176.748 166.633 176.748Z" fill="#FAA330"/>
<path d="M246.053 205.135C216.981 205.507 200.103 172.38 217.491 149.08C208.153 121.545 234.443 95.2571 261.976 104.595C285.278 87.2071 318.403 104.085 318.031 133.157C341.769 149.945 335.953 186.665 308.19 195.294C299.561 223.057 262.84 228.872 246.053 205.135Z" fill="#FAA330"/>
<path d="M268.498 176.748C280.178 176.748 289.647 167.279 289.647 155.599C289.647 143.919 280.178 134.45 268.498 134.45C256.818 134.45 247.349 143.919 247.349 155.599C247.349 167.279 256.818 176.748 268.498 176.748Z" fill="#FF78A2"/>
<path d="M58.273 352.928L238.169 330.689L217.565 328.143L17.065 352.929C17.065 352.929 13.546 444.571 74.071 499.141C83.239 507.406 95.136 512.001 107.481 512.001H148.688C136.344 512.001 124.447 507.406 115.278 499.14C54.754 444.569 58.273 352.928 58.273 352.928Z" fill="#B24D40"/>
<path d="M71.2869 317.954V187.029C71.2869 176.225 72.4749 165.695 74.7079 155.552C72.5109 155.355 70.3069 155.253 68.1019 155.253C55.2969 155.253 42.8399 158.632 31.8629 164.796C30.9959 172.09 30.5359 179.506 30.5359 187.029V317.953C30.5359 329.207 39.6579 338.329 50.9119 338.329C62.1659 338.329 71.2869 329.208 71.2869 317.954Z" fill="#B24D40"/>
<path d="M404.595 317.954V187.029C404.595 179.506 404.136 172.089 403.268 164.796C392.29 158.632 379.833 155.253 367.029 155.253C364.824 155.253 362.621 155.355 360.423 155.552C362.656 165.695 363.844 176.225 363.844 187.029V317.953C363.844 329.207 372.966 338.329 384.22 338.329C395.475 338.329 404.595 329.208 404.595 317.954Z" fill="#B24D40"/>
<path d="M418.066 303.355H17.066C7.641 303.355 0 310.996 0 320.421V335.862C0 345.287 7.641 352.928 17.066 352.928H418.065C427.49 352.928 435.131 345.287 435.131 335.862V320.421C435.13 310.996 427.491 303.355 418.066 303.355Z" fill="#DF8B78"/>
<path d="M41.208 335.863V320.423C41.208 310.998 48.849 303.357 58.274 303.357H17.067C7.64197 303.357 0.000976562 310.998 0.000976562 320.423V335.863C0.000976562 345.288 7.64197 352.929 17.067 352.929H58.274C48.848 352.928 41.208 345.287 41.208 335.863Z" fill="#C86D5C"/>
<path d="M152.553 224.297C153.018 187.923 111.573 166.807 82.4189 188.562C47.9699 176.88 15.0789 209.77 26.7609 244.22C5.00589 273.373 26.1219 314.818 62.4959 314.354C83.4989 344.054 129.441 336.777 140.24 302.04C174.976 291.243 182.252 245.302 152.553 224.297Z" fill="#FF78A2"/>
<path d="M282.578 224.297C282.113 187.923 323.558 166.807 352.712 188.562C387.161 176.88 420.052 209.77 408.37 244.22C430.125 273.373 409.009 314.818 372.635 314.354C351.632 344.054 305.69 336.777 294.891 302.04C260.155 291.243 252.879 245.302 282.578 224.297Z" fill="#FF78A2"/>
<path d="M90.585 278.843C105.198 278.843 117.044 266.997 117.044 252.384C117.044 237.771 105.198 225.925 90.585 225.925C75.9721 225.925 64.126 237.771 64.126 252.384C64.126 266.997 75.9721 278.843 90.585 278.843Z" fill="#FAA330"/>
<path d="M344.546 278.843C359.159 278.843 371.005 266.997 371.005 252.384C371.005 237.771 359.159 225.925 344.546 225.925C329.933 225.925 318.087 237.771 318.087 252.384C318.087 266.997 329.933 278.843 344.546 278.843Z" fill="#FAA330"/>
</svg>
