<svg width="202" height="66" viewBox="0 0 202 66" fill="none" xmlns="http://www.w3.org/2000/svg">
<path d="M16.6019 63.85C12.0686 63.85 8.61193 62.575 6.23193 60.025C3.85193 57.4183 2.66193 53.7067 2.66193 48.89V17.61C2.66193 12.7933 3.85193 9.11 6.23193 6.56C8.61193 3.95333 12.0686 2.65 16.6019 2.65C21.1353 2.65 24.5919 3.95333 26.9719 6.56C29.3519 9.11 30.5419 12.7933 30.5419 17.61V22.71H21.7019V17.015C21.7019 13.105 20.0869 11.15 16.8569 11.15C13.6269 11.15 12.0119 13.105 12.0119 17.015V49.57C12.0119 53.4233 13.6269 55.35 16.8569 55.35C20.0869 55.35 21.7019 53.4233 21.7019 49.57V37.925H17.0269V29.425H30.5419V48.89C30.5419 53.7067 29.3519 57.4183 26.9719 60.025C24.5919 62.575 21.1353 63.85 16.6019 63.85ZM43.7701 3.5H56.4351L66.1251 63H56.7751L55.0751 51.185V51.355H44.4501L42.7501 63H34.0801L43.7701 3.5ZM53.9701 43.28L49.8051 13.87H49.6351L45.5551 43.28H53.9701ZM70.6613 3.5H84.5163C89.3329 3.5 92.8463 4.63333 95.0563 6.9C97.2663 9.11 98.3713 12.5383 98.3713 17.185V20.84C98.3713 27.0167 96.3313 30.9267 92.2513 32.57V32.74C94.5179 33.42 96.1046 34.8083 97.0113 36.905C97.9746 39.0017 98.4563 41.8067 98.4563 45.32V55.775C98.4563 57.475 98.5129 58.8633 98.6263 59.94C98.7396 60.96 99.0229 61.98 99.4763 63H89.9563C89.6163 62.0367 89.3896 61.13 89.2763 60.28C89.1629 59.43 89.1063 57.9 89.1063 55.69V44.81C89.1063 42.09 88.6529 40.1917 87.7463 39.115C86.8963 38.0383 85.3946 37.5 83.2413 37.5H80.0113V63H70.6613V3.5ZM83.4113 29C85.2813 29 86.6696 28.5183 87.5763 27.555C88.5396 26.5917 89.0213 24.9767 89.0213 22.71V18.12C89.0213 15.9667 88.6246 14.4083 87.8313 13.445C87.0946 12.4817 85.9046 12 84.2613 12H80.0113V29H83.4113ZM104.943 3.5H119.223C123.87 3.5 127.355 4.74666 129.678 7.24C132.002 9.73333 133.163 13.3883 133.163 18.205V48.295C133.163 53.1117 132.002 56.7667 129.678 59.26C127.355 61.7533 123.87 63 119.223 63H104.943V3.5ZM119.053 54.5C120.583 54.5 121.745 54.0467 122.538 53.14C123.388 52.2333 123.813 50.76 123.813 48.72V17.78C123.813 15.74 123.388 14.2667 122.538 13.36C121.745 12.4533 120.583 12 119.053 12H114.293V54.5H119.053ZM139.475 3.5H164.975V12H148.825V27.725H161.66V36.225H148.825V54.5H164.975V63H139.475V3.5ZM170.354 3.5H182.084L191.179 39.115H191.349V3.5H199.679V63H190.074L178.854 19.565H178.684V63H170.354V3.5Z" fill="#367A17"/>
<path d="M6.23193 60.025L4.75496 61.3735L4.76235 61.3816L4.76982 61.3896L6.23193 60.025ZM6.23193 6.56L7.69405 7.92463L7.70152 7.91663L7.70891 7.90854L6.23193 6.56ZM26.9719 6.56L25.495 7.90854L25.5023 7.91663L25.5098 7.92463L26.9719 6.56ZM30.5419 22.71V24.71H32.5419V22.71H30.5419ZM21.7019 22.71H19.7019V24.71H21.7019V22.71ZM21.7019 37.925H23.7019V35.925H21.7019V37.925ZM17.0269 37.925H15.0269V39.925H17.0269V37.925ZM17.0269 29.425V27.425H15.0269V29.425H17.0269ZM30.5419 29.425H32.5419V27.425H30.5419V29.425ZM26.9719 60.025L28.434 61.3896L28.4415 61.3816L28.4489 61.3735L26.9719 60.025ZM16.6019 61.85C12.4479 61.85 9.59093 60.6927 7.69405 58.6604L4.76982 61.3896C7.63293 64.4572 11.6893 65.85 16.6019 65.85V61.85ZM7.70891 58.6765C5.77164 56.5547 4.66193 53.3915 4.66193 48.89H0.661934C0.661934 54.0218 1.93223 58.282 4.75496 61.3735L7.70891 58.6765ZM4.66193 48.89V17.61H0.661934V48.89H4.66193ZM4.66193 17.61C4.66193 13.1051 5.77294 9.98296 7.69405 7.92463L4.76982 5.19536C1.93093 8.23704 0.661934 12.4815 0.661934 17.61H4.66193ZM7.70891 7.90854C9.60895 5.82754 12.4609 4.65 16.6019 4.65V0.649997C11.6763 0.649997 7.61492 2.07912 4.75496 5.21146L7.70891 7.90854ZM16.6019 4.65C20.743 4.65 23.5949 5.82754 25.495 7.90854L28.4489 5.21146C25.589 2.07912 21.5275 0.649997 16.6019 0.649997V4.65ZM25.5098 7.92463C27.4309 9.98296 28.5419 13.1051 28.5419 17.61H32.5419C32.5419 12.4815 31.2729 8.23703 28.434 5.19536L25.5098 7.92463ZM28.5419 17.61V22.71H32.5419V17.61H28.5419ZM30.5419 20.71H21.7019V24.71H30.5419V20.71ZM23.7019 22.71V17.015H19.7019V22.71H23.7019ZM23.7019 17.015C23.7019 14.8348 23.2595 12.8277 22.0326 11.3425C20.7453 9.78413 18.8916 9.15 16.8569 9.15V13.15C18.0523 13.15 18.6211 13.4934 18.9488 13.89C19.3369 14.3598 19.7019 15.2852 19.7019 17.015H23.7019ZM16.8569 9.15C14.8223 9.15 12.9686 9.78413 11.6813 11.3425C10.4544 12.8277 10.0119 14.8348 10.0119 17.015H14.0119C14.0119 15.2852 14.377 14.3598 14.7651 13.89C15.0928 13.4934 15.6616 13.15 16.8569 13.15V9.15ZM10.0119 17.015V49.57H14.0119V17.015H10.0119ZM10.0119 49.57C10.0119 51.7274 10.4567 53.7179 11.6904 55.1898C12.9809 56.7293 14.8319 57.35 16.8569 57.35V53.35C15.652 53.35 15.0805 53.0074 14.7559 52.6202C14.3747 52.1654 14.0119 51.266 14.0119 49.57H10.0119ZM16.8569 57.35C18.882 57.35 20.733 56.7293 22.0234 55.1898C23.2572 53.7179 23.7019 51.7274 23.7019 49.57H19.7019C19.7019 51.266 19.3392 52.1654 18.9579 52.6202C18.6334 53.0074 18.0619 53.35 16.8569 53.35V57.35ZM23.7019 49.57V37.925H19.7019V49.57H23.7019ZM21.7019 35.925H17.0269V39.925H21.7019V35.925ZM19.0269 37.925V29.425H15.0269V37.925H19.0269ZM17.0269 31.425H30.5419V27.425H17.0269V31.425ZM28.5419 29.425V48.89H32.5419V29.425H28.5419ZM28.5419 48.89C28.5419 53.3915 27.4322 56.5547 25.495 58.6765L28.4489 61.3735C31.2716 58.282 32.5419 54.0218 32.5419 48.89H28.5419ZM25.5098 58.6604C23.6129 60.6927 20.756 61.85 16.6019 61.85V65.85C21.5146 65.85 25.5709 64.4572 28.434 61.3896L25.5098 58.6604ZM43.7701 3.5V1.5H42.0694L41.7961 3.17852L43.7701 3.5ZM56.4351 3.5L58.4091 3.17852L58.1357 1.5H56.4351V3.5ZM66.1251 63V65H68.4771L68.0991 62.6785L66.1251 63ZM56.7751 63L54.7954 63.2848L55.0422 65H56.7751V63ZM55.0751 51.185L57.0547 50.9002L53.0751 51.185H55.0751ZM55.0751 51.355V53.355H57.0751V51.355H55.0751ZM44.4501 51.355V49.355H42.7208L42.471 51.0661L44.4501 51.355ZM42.7501 63V65H44.4793L44.7291 63.2889L42.7501 63ZM34.0801 63L32.1061 62.6785L31.728 65H34.0801V63ZM53.9701 43.28V45.28H56.2733L55.9503 42.9996L53.9701 43.28ZM49.8051 13.87L51.7853 13.5896L51.5418 11.87H49.8051V13.87ZM49.6351 13.87V11.87H47.8934L47.654 13.5952L49.6351 13.87ZM45.5551 43.28L43.574 43.0052L43.2584 45.28H45.5551V43.28ZM43.7701 5.5H56.4351V1.5H43.7701V5.5ZM54.4611 3.82147L64.1511 63.3215L68.0991 62.6785L58.4091 3.17852L54.4611 3.82147ZM66.1251 61H56.7751V65H66.1251V61ZM58.7547 62.7152L57.0547 50.9002L53.0954 51.4698L54.7954 63.2848L58.7547 62.7152ZM53.0751 51.185V51.355H57.0751V51.185H53.0751ZM55.0751 49.355H44.4501V53.355H55.0751V49.355ZM42.471 51.0661L40.771 62.7111L44.7291 63.2889L46.4291 51.6439L42.471 51.0661ZM42.7501 61H34.0801V65H42.7501V61ZM36.0541 63.3215L45.744 3.82147L41.7961 3.17852L32.1061 62.6785L36.0541 63.3215ZM55.9503 42.9996L51.7853 13.5896L47.8248 14.1504L51.9898 43.5604L55.9503 42.9996ZM49.8051 11.87H49.6351V15.87H49.8051V11.87ZM47.654 13.5952L43.574 43.0052L47.5361 43.5548L51.6161 14.1448L47.654 13.5952ZM45.5551 45.28H53.9701V41.28H45.5551V45.28ZM70.6613 3.5V1.5H68.6613V3.5H70.6613ZM95.0563 6.9L93.6243 8.2962L93.6331 8.30526L93.6421 8.31421L95.0563 6.9ZM92.2513 32.57L91.504 30.7148L90.2513 31.2194V32.57H92.2513ZM92.2513 32.74H90.2513V34.2281L91.6766 34.6557L92.2513 32.74ZM97.0113 36.905L95.1756 37.6988L95.1845 37.7195L95.1939 37.74L97.0113 36.905ZM98.6263 59.94L96.6372 60.1494L96.6385 60.1609L98.6263 59.94ZM99.4763 63V65H102.554L101.304 62.1877L99.4763 63ZM89.9563 63L88.0703 63.6656L88.5412 65H89.9563V63ZM87.7463 39.115L86.1765 40.3543L86.1961 40.3791L86.2164 40.4033L87.7463 39.115ZM80.0113 37.5V35.5H78.0113V37.5H80.0113ZM80.0113 63V65H82.0113V63H80.0113ZM70.6613 63H68.6613V65H70.6613V63ZM87.5763 27.555L86.1621 26.1408L86.1406 26.1622L86.1199 26.1843L87.5763 27.555ZM87.8313 13.445L86.2426 14.6599L86.2645 14.6886L86.2874 14.7164L87.8313 13.445ZM80.0113 12V10H78.0113V12H80.0113ZM80.0113 29H78.0113V31H80.0113V29ZM70.6613 5.5H84.5163V1.5H70.6613V5.5ZM84.5163 5.5C89.0711 5.5 91.9481 6.57704 93.6243 8.2962L96.4883 5.5038C93.7444 2.68962 89.5948 1.5 84.5163 1.5V5.5ZM93.6421 8.31421C95.3282 10.0003 96.3713 12.8127 96.3713 17.185H100.371C100.371 12.2639 99.2044 8.21967 96.4705 5.48578L93.6421 8.31421ZM96.3713 17.185V20.84H100.371V17.185H96.3713ZM96.3713 20.84C96.3713 23.7278 95.8915 25.9017 95.0681 27.4799C94.2678 29.0138 93.1009 30.0716 91.504 30.7148L92.9985 34.4252C95.4816 33.425 97.3748 31.7062 98.6144 29.3301C99.831 26.9983 100.371 24.1289 100.371 20.84H96.3713ZM90.2513 32.57V32.74H94.2513V32.57H90.2513ZM91.6766 34.6557C93.4013 35.1731 94.5126 36.1658 95.1756 37.6988L98.847 36.1112C97.6966 33.4508 95.6345 31.6669 92.826 30.8243L91.6766 34.6557ZM95.1939 37.74C95.9907 39.4741 96.4563 41.9585 96.4563 45.32H100.456C100.456 41.6548 99.9586 38.5293 98.8286 36.07L95.1939 37.74ZM96.4563 45.32V55.775H100.456V45.32H96.4563ZM96.4563 55.775C96.4563 57.5104 96.5137 58.9757 96.6373 60.1494L100.615 59.7306C100.512 58.751 100.456 57.4396 100.456 55.775H96.4563ZM96.6385 60.1609C96.7764 61.4021 97.1192 62.6209 97.6487 63.8123L101.304 62.1877C100.927 61.3391 100.703 60.5179 100.614 59.7191L96.6385 60.1609ZM99.4763 61H89.9563V65H99.4763V61ZM91.8423 62.3344C91.5397 61.4772 91.3508 60.7059 91.2587 60.0157L87.2938 60.5443C87.4285 61.5541 87.6928 62.5961 88.0703 63.6656L91.8423 62.3344ZM91.2587 60.0157C91.1651 59.3137 91.1063 57.907 91.1063 55.69H87.1063C87.1063 57.893 87.1608 59.5463 87.2938 60.5443L91.2587 60.0157ZM91.1063 55.69V44.81H87.1063V55.69H91.1063ZM91.1063 44.81C91.1063 41.9977 90.6638 39.4746 89.2761 37.8267L86.2164 40.4033C86.6421 40.9087 87.1063 42.1823 87.1063 44.81H91.1063ZM89.316 37.8757C87.9123 36.0976 85.6551 35.5 83.2413 35.5V39.5C85.1341 39.5 85.8803 39.979 86.1765 40.3543L89.316 37.8757ZM83.2413 35.5H80.0113V39.5H83.2413V35.5ZM78.0113 37.5V63H82.0113V37.5H78.0113ZM80.0113 61H70.6613V65H80.0113V61ZM72.6613 63V3.5H68.6613V63H72.6613ZM83.4113 31C85.5999 31 87.6136 30.4335 89.0327 28.9257L86.1199 26.1843C85.7256 26.6032 84.9626 27 83.4113 27V31ZM88.9905 28.9692C90.5124 27.4473 91.0213 25.1739 91.0213 22.71H87.0213C87.0213 24.7794 86.5668 25.736 86.1621 26.1408L88.9905 28.9692ZM91.0213 22.71V18.12H87.0213V22.71H91.0213ZM91.0213 18.12C91.0213 15.8079 90.6118 13.6753 89.3751 12.1736L86.2874 14.7164C86.6374 15.1414 87.0213 16.1254 87.0213 18.12H91.0213ZM89.42 12.2301C88.1808 10.6096 86.2899 10 84.2613 10V14C85.5193 14 86.0084 14.3537 86.2426 14.6599L89.42 12.2301ZM84.2613 10H80.0113V14H84.2613V10ZM78.0113 12V29H82.0113V12H78.0113ZM80.0113 31H83.4113V27H80.0113V31ZM104.943 3.5V1.5H102.943V3.5H104.943ZM129.678 7.24L128.215 8.60345V8.60345L129.678 7.24ZM129.678 59.26L128.215 57.8965L129.678 59.26ZM104.943 63H102.943V65H104.943V63ZM122.538 53.14L121.079 51.7721L121.056 51.7972L121.033 51.823L122.538 53.14ZM122.538 13.36L121.033 14.677L121.056 14.7028L121.079 14.7279L122.538 13.36ZM114.294 12V10H112.294V12H114.294ZM114.294 54.5H112.294V56.5H114.294V54.5ZM104.943 5.5H119.223V1.5H104.943V5.5ZM119.223 5.5C123.524 5.5 126.392 6.64721 128.215 8.60345L131.142 5.87655C128.318 2.84611 124.216 1.5 119.223 1.5V5.5ZM128.215 8.60345C130.073 10.5976 131.163 13.6851 131.163 18.205H135.163C135.163 13.0916 133.93 8.86908 131.142 5.87655L128.215 8.60345ZM131.163 18.205V48.295H135.163V18.205H131.163ZM131.163 48.295C131.163 52.8149 130.073 55.9024 128.215 57.8965L131.142 60.6235C133.93 57.6309 135.163 53.4084 135.163 48.295H131.163ZM128.215 57.8965C126.392 59.8528 123.524 61 119.223 61V65C124.216 65 128.318 63.6539 131.142 60.6235L128.215 57.8965ZM119.223 61H104.943V65H119.223V61ZM106.943 63V3.5H102.943V63H106.943ZM119.053 56.5C120.993 56.5 122.773 55.9094 124.044 54.457L121.033 51.823C120.718 52.1839 120.174 52.5 119.053 52.5V56.5ZM123.998 54.5079C125.36 53.0548 125.813 50.9608 125.813 48.72H121.813C121.813 50.5592 121.417 51.4119 121.079 51.7721L123.998 54.5079ZM125.813 48.72V17.78H121.813V48.72H125.813ZM125.813 17.78C125.813 15.5392 125.36 13.4452 123.998 11.9921L121.079 14.7279C121.417 15.0881 121.813 15.9408 121.813 17.78H125.813ZM124.044 12.043C122.773 10.5906 120.993 10 119.053 10V14C120.174 14 120.718 14.3161 121.033 14.677L124.044 12.043ZM119.053 10H114.294V14H119.053V10ZM112.294 12V54.5H116.294V12H112.294ZM114.294 56.5H119.053V52.5H114.294V56.5ZM139.475 3.5V1.5H137.475V3.5H139.475ZM164.975 3.5H166.975V1.5H164.975V3.5ZM164.975 12V14H166.975V12H164.975ZM148.825 12V10H146.825V12H148.825ZM148.825 27.725H146.825V29.725H148.825V27.725ZM161.66 27.725H163.66V25.725H161.66V27.725ZM161.66 36.225V38.225H163.66V36.225H161.66ZM148.825 36.225V34.225H146.825V36.225H148.825ZM148.825 54.5H146.825V56.5H148.825V54.5ZM164.975 54.5H166.975V52.5H164.975V54.5ZM164.975 63V65H166.975V63H164.975ZM139.475 63H137.475V65H139.475V63ZM139.475 5.5H164.975V1.5H139.475V5.5ZM162.975 3.5V12H166.975V3.5H162.975ZM164.975 10H148.825V14H164.975V10ZM146.825 12V27.725H150.825V12H146.825ZM148.825 29.725H161.66V25.725H148.825V29.725ZM159.66 27.725V36.225H163.66V27.725H159.66ZM161.66 34.225H148.825V38.225H161.66V34.225ZM146.825 36.225V54.5H150.825V36.225H146.825ZM148.825 56.5H164.975V52.5H148.825V56.5ZM162.975 54.5V63H166.975V54.5H162.975ZM164.975 61H139.475V65H164.975V61ZM141.475 63V3.5H137.475V63H141.475ZM170.354 3.5V1.5H168.354V3.5H170.354ZM182.084 3.5L184.021 3.00514L183.637 1.5H182.084V3.5ZM191.179 39.115L189.241 39.6099L189.625 41.115H191.179V39.115ZM191.349 39.115V41.115H193.349V39.115H191.349ZM191.349 3.5V1.5H189.349V3.5H191.349ZM199.679 3.5H201.679V1.5H199.679V3.5ZM199.679 63V65H201.679V63H199.679ZM190.074 63L188.137 63.5002L188.525 65H190.074V63ZM178.854 19.565L180.79 19.0648L180.403 17.565H178.854V19.565ZM178.684 19.565V17.565H176.684V19.565H178.684ZM178.684 63V65H180.684V63H178.684ZM170.354 63H168.354V65H170.354V63ZM170.354 5.5H182.084V1.5H170.354V5.5ZM180.146 3.99485L189.241 39.6099L193.116 38.6201L184.021 3.00514L180.146 3.99485ZM191.179 41.115H191.349V37.115H191.179V41.115ZM193.349 39.115V3.5H189.349V39.115H193.349ZM191.349 5.5H199.679V1.5H191.349V5.5ZM197.679 3.5V63H201.679V3.5H197.679ZM199.679 61H190.074V65H199.679V61ZM192.01 62.4998L180.79 19.0648L176.917 20.0652L188.137 63.5002L192.01 62.4998ZM178.854 17.565H178.684V21.565H178.854V17.565ZM176.684 19.565V63H180.684V19.565H176.684ZM178.684 61H170.354V65H178.684V61ZM172.354 63V3.5H168.354V63H172.354Z" fill="white"/>
</svg>
