<svg width="167" height="51" viewBox="0 0 167 51" fill="none" xmlns="http://www.w3.org/2000/svg">
<path d="M11.8162 51C7.9735 51 5.04348 49.9375 3.02609 47.8125C1.0087 45.6403 0 42.5472 0 38.5333V12.4667C0 8.45278 1.0087 5.38333 3.02609 3.25833C5.04348 1.08611 7.9735 0 11.8162 0C15.6588 0 18.5888 1.08611 20.6062 3.25833C22.6236 5.38333 23.6323 8.45278 23.6323 12.4667V16.7167H16.1391V11.9708C16.1391 8.7125 14.7702 7.08333 12.0323 7.08333C9.29441 7.08333 7.92547 8.7125 7.92547 11.9708V39.1C7.92547 42.3111 9.29441 43.9167 12.0323 43.9167C14.7702 43.9167 16.1391 42.3111 16.1391 39.1V29.3958H12.1764V22.3125H23.6323V38.5333C23.6323 42.5472 22.6236 45.6403 20.6062 47.8125C18.5888 49.9375 15.6588 51 11.8162 51Z" fill="white"/>
<path d="M34.8451 0.708333H45.5805L53.7941 50.2917H45.8687L44.4277 40.4458V40.5875H35.4214L33.9805 50.2917H26.6314L34.8451 0.708333ZM43.491 33.8583L39.9606 9.35H39.8165L36.3581 33.8583H43.491Z" fill="white"/>
<path d="M57.6392 0.708333H69.3833C73.4661 0.708333 76.4442 1.65278 78.3175 3.54167C80.1908 5.38333 81.1274 8.24028 81.1274 12.1125V15.1583C81.1274 20.3056 79.3982 23.5639 75.9398 24.9333V25.075C77.8612 25.6417 79.2061 26.7986 79.9746 28.5458C80.7912 30.2931 81.1995 32.6306 81.1995 35.5583V44.2708C81.1995 45.6875 81.2475 46.8444 81.3436 47.7417C81.4396 48.5917 81.6798 49.4417 82.0641 50.2917H73.9945C73.7063 49.4889 73.5142 48.7333 73.4181 48.025C73.322 47.3167 73.274 46.0417 73.274 44.2V35.1333C73.274 32.8667 72.8897 31.2847 72.1212 30.3875C71.4007 29.4903 70.1278 29.0417 68.3026 29.0417H65.5647V50.2917H57.6392V0.708333ZM68.4467 21.9583C70.0318 21.9583 71.2086 21.5569 71.9771 20.7542C72.7937 19.9514 73.202 18.6056 73.202 16.7167V12.8917C73.202 11.0972 72.8657 9.79861 72.1933 8.99584C71.5688 8.19306 70.5601 7.79167 69.1672 7.79167H65.5647V21.9583H68.4467Z" fill="white"/>
<path d="M86.6983 0.708333H98.8027C102.741 0.708333 105.695 1.74722 107.665 3.825C109.634 5.90278 110.619 8.94861 110.619 12.9625V38.0375C110.619 42.0514 109.634 45.0972 107.665 47.175C105.695 49.2528 102.741 50.2917 98.8027 50.2917H86.6983V0.708333ZM98.6586 43.2083C99.9555 43.2083 100.94 42.8306 101.613 42.075C102.333 41.3194 102.693 40.0917 102.693 38.3917V12.6083C102.693 10.9083 102.333 9.68056 101.613 8.925C100.94 8.16944 99.9555 7.79167 98.6586 7.79167H94.6238V43.2083H98.6586Z" fill="white"/>
<path d="M115.969 0.708333H137.583V7.79167H123.894V20.8958H134.774V27.9792H123.894V43.2083H137.583V50.2917H115.969V0.708333Z" fill="white"/>
<path d="M142.143 0.708333H152.086L159.795 30.3875H159.939V0.708333H167V50.2917H158.858L149.348 14.0958H149.204V50.2917H142.143V0.708333Z" fill="white"/>
</svg>
