<svg width="44" height="45" viewBox="0 0 44 45" fill="none" xmlns="http://www.w3.org/2000/svg">
<path d="M22 0.703125C9.84943 0.703125 0 10.4616 0 22.5C0 34.5384 9.84943 44.2969 22 44.2969C34.1506 44.2969 44 34.5384 44 22.5C44 10.4616 34.1506 0.703125 22 0.703125ZM29.2999 32.1328C28.954 32.4738 28.5911 32.8315 28.2966 33.1242C28.0314 33.3879 27.8442 33.7131 27.7493 34.0655C27.6153 34.563 27.5071 35.0657 27.3261 35.5482L25.7835 39.6659C24.5628 39.9296 23.2996 40.0781 22 40.0781V37.6717C22.1499 36.5625 21.3223 34.4848 19.9925 33.1673C19.4602 32.6399 19.1613 31.9245 19.1613 31.1783V28.3649C19.1613 27.3419 18.6051 26.4015 17.7011 25.9066C16.4264 25.2079 14.6131 24.2314 13.3712 23.6118C12.3528 23.1038 11.4107 22.4569 10.5635 21.7002L10.4926 21.6369C9.88675 21.0951 9.34886 20.4831 8.89048 19.8141C8.05839 18.6038 6.7029 16.6131 5.82202 15.3193C7.6379 11.3203 10.9104 8.10879 14.9769 6.36416L17.1068 7.41973C18.0506 7.8873 19.1613 7.20791 19.1613 6.16201V5.16885C19.8701 5.05547 20.5913 4.9834 21.3249 4.95615L23.8354 7.44346C24.3898 7.99277 24.3898 8.88311 23.8354 9.43242L23.4194 9.84375L22.5021 10.7525C22.2253 11.0268 22.2253 11.4724 22.5021 11.7466L22.9181 12.1588C23.1949 12.433 23.1949 12.8786 22.9181 13.1528L22.2085 13.856C22.0752 13.9877 21.8946 14.0617 21.7064 14.0616H20.9089C20.7244 14.0616 20.5469 14.1328 20.4139 14.2611L19.5339 15.1093C19.426 15.2134 19.3543 15.3487 19.3291 15.4958C19.3039 15.6428 19.3265 15.794 19.3937 15.9275L20.7767 18.6688C21.0127 19.1364 20.6694 19.6866 20.1424 19.6866H19.6421C19.4709 19.6866 19.3059 19.6251 19.1773 19.5144L18.354 18.806C18.1677 18.6458 17.9426 18.5365 17.7007 18.4887C17.4589 18.441 17.2086 18.4564 16.9746 18.5335L14.2095 19.4467C13.9984 19.5164 13.8148 19.6502 13.6847 19.8291C13.5547 20.008 13.4847 20.2229 13.4848 20.4434C13.4848 20.8415 13.7119 21.2045 14.0711 21.3829L15.054 21.8698C15.8888 22.2838 16.8096 22.4991 17.7428 22.4991C18.676 22.4991 19.7468 24.8977 20.5815 25.3116H26.5029C27.256 25.3116 27.9773 25.6078 28.5104 26.1352L29.7248 27.3384C30.2322 27.8412 30.5171 28.5232 30.517 29.2342C30.5168 29.7729 30.4092 30.3064 30.2004 30.8038C29.9915 31.3012 29.6855 31.7529 29.2999 32.1328ZM36.9919 24.104C36.4783 23.9766 36.0303 23.6646 35.7367 23.2277L34.1417 20.8573C33.9083 20.511 33.7838 20.1039 33.7838 19.6875C33.7838 19.2711 33.9083 18.864 34.1417 18.5177L35.8795 15.9354C36.0853 15.6305 36.3674 15.3826 36.6992 15.2191L37.8506 14.6487C39.05 17.0147 39.7419 19.6761 39.7419 22.5C39.7419 23.262 39.6763 24.0082 39.5805 24.7447L36.9919 24.104Z" fill="white"/>
</svg>
