<svg width="472" height="512" viewBox="0 0 472 512" fill="none" xmlns="http://www.w3.org/2000/svg">
<path d="M133.101 34.2297C145.989 29.4067 160.345 35.9437 165.168 48.8307L201.167 145.018L154.498 162.485L118.499 66.2977C113.677 53.4097 120.213 39.0527 133.101 34.2297Z" fill="#F09318"/>
<path d="M319.608 80.9877C329.741 70.8547 346.169 70.8547 356.302 80.9877C366.435 91.1208 366.435 107.549 356.302 117.682C366.435 107.549 382.863 107.549 392.996 117.682C403.129 127.815 403.129 144.243 392.996 154.376L347.154 200.218L227.273 320.097L187.129 360.241L40.3545 213.466L80.4985 173.322L200.378 53.4418L246.22 7.59975C256.353 -2.53325 272.781 -2.53325 282.914 7.59975C293.047 17.7327 293.047 34.1608 282.914 44.2938C293.047 34.1608 309.475 34.1608 319.608 44.2938C329.741 54.4268 329.741 70.8547 319.608 80.9877Z" fill="#FAA330"/>
<path d="M80.4985 173.322L227.273 320.097C234.574 327.397 234.574 339.232 227.273 346.531L182.406 391.398C170.145 403.66 150.262 403.66 138.001 391.398L9.1965 262.595C-3.0655 250.333 -3.0655 230.451 9.1965 218.189L54.0635 173.322C61.3635 166.022 73.1985 166.023 80.4985 173.322Z" fill="#F09318"/>
<path d="M204.358 145.634C217.246 140.811 231.602 147.348 236.425 160.235L272.424 256.422L225.755 273.889L189.756 177.702C184.933 164.815 191.471 150.457 204.358 145.634Z" fill="#F09318"/>
<path d="M390.866 192.391C400.999 182.258 417.427 182.258 427.56 192.391C437.693 202.524 437.693 218.952 427.56 229.085C437.693 218.952 454.121 218.952 464.254 229.085C474.387 239.218 474.387 255.646 464.254 265.779L298.532 431.502L258.388 471.646L111.613 324.87L151.757 284.726L317.479 119.004C327.612 108.871 344.04 108.871 354.173 119.004C364.306 129.137 364.306 145.565 354.173 155.698C364.306 145.565 380.734 145.565 390.867 155.698C400.999 165.83 400.999 182.259 390.866 192.391Z" fill="#FFCE1C"/>
<path d="M464.255 229.085C460.436 225.266 455.722 222.887 450.788 221.948C452.343 230.104 449.964 238.861 443.651 245.175L277.929 410.898L237.785 451.042L258.389 471.646L298.533 431.502L464.255 265.78C474.387 255.647 474.387 239.218 464.255 229.085Z" fill="#FAA330"/>
<path d="M151.757 284.727L298.532 431.502C305.832 438.802 305.832 450.637 298.532 457.936L253.665 502.803C241.403 515.065 221.521 515.065 209.259 502.803L80.4546 374C68.1926 361.738 68.1926 341.856 80.4546 329.594L125.322 284.727C132.623 277.427 144.457 277.427 151.757 284.727Z" fill="#FAA330"/>
<path d="M209.259 502.804C221.521 515.066 241.403 515.066 253.665 502.804L298.532 457.937C305.832 450.637 305.832 438.802 298.532 431.503L267.627 400.596C274.927 407.896 274.927 419.731 267.627 427.03L222.76 471.897C210.498 484.159 190.616 484.159 178.354 471.897L209.259 502.804Z" fill="#F09318"/>
</svg>
