<svg xmlns="http://www.w3.org/2000/svg" viewBox="0 0 506.83 383.49"><defs><style>.cls-1{fill:#7aa838;}.cls-2{fill:#a3e24b;}.cls-3{fill:#e52e62;}.cls-4{fill:#ff4370;}.cls-5{fill:#ff748f;}.cls-6{fill:#fd5f7e;}.cls-7{fill:#ff889e;}.cls-8{fill:#f9d888;}.cls-9{fill:#f5c956;}.cls-10{fill:#f9ed80;}.cls-11{fill:#f9496e;}</style></defs><g id="Layer_2" data-name="Layer 2"><g id="Layer_1-2" data-name="Layer 1"><path class="cls-1" d="M114.73,57.59A36.41,36.41,0,0,0,142.18,0,36.42,36.42,0,0,0,108,38.45"/><path class="cls-2" d="M114.74,57.58A36.4,36.4,0,0,0,57.16,30.13a36.4,36.4,0,0,0,57.58,27.45Z"/><path class="cls-2" d="M506.83,252.23A131.27,131.27,0,0,1,375.56,383.49H98.28A98.28,98.28,0,0,1,64.3,193a169.62,169.62,0,0,1,12.62-47.33A31.1,31.1,0,0,1,92.17,85.39c0-.25,0-.49,0-.74a31.1,31.1,0,0,1,55.62-19.14,169.68,169.68,0,0,1,86-23.23A170.35,170.35,0,0,1,377.51,121a131,131,0,0,1,33.4,4.81h0A27.66,27.66,0,0,1,464.29,136a27.94,27.94,0,0,1-.49,5.12A27.8,27.8,0,0,1,491,189.62,130.61,130.61,0,0,1,506.83,252.23Z"/><path class="cls-1" d="M270.26,46.2C225.76,38.89,204,77,198.72,124.4a51.59,51.59,0,0,0-66.82,49.27s-37.5,4.07-33.12,43.25c0,0-92,64.24-.51,166.57a98.28,98.28,0,0,1-34-190.5,170,170,0,0,1,12.62-47.34,31.1,31.1,0,0,1,8.68-61,31.58,31.58,0,0,1,6.58.7c0-.25,0-.48,0-.73A31.11,31.11,0,0,1,147.77,65.5a169.75,169.75,0,0,1,86-23.22A171.55,171.55,0,0,1,270.26,46.2Z"/><path class="cls-1" d="M207.55,256.09a7.76,7.76,0,1,1,0-15.51,21.3,21.3,0,1,0-12.16-38.78,7.75,7.75,0,0,1-12.09-7.62,44.86,44.86,0,0,0,.59-7.18,43.81,43.81,0,0,0-87.61,0,7.76,7.76,0,0,1-15.52,0,59.32,59.32,0,0,1,118.54-3.6,36.81,36.81,0,1,1,8.25,72.69Z"/><path class="cls-1" d="M282.89,309.67a7.75,7.75,0,0,1-7.75-7.76,42.18,42.18,0,0,1,42.13-42.13c.59,0,1.18,0,1.76,0A47.94,47.94,0,0,1,412,276.37a7.76,7.76,0,0,1-15.52,0,32.42,32.42,0,0,0-64.18-6.49,7.76,7.76,0,0,1-9.26,6,27.17,27.17,0,0,0-5.73-.62,26.65,26.65,0,0,0-26.62,26.61A7.75,7.75,0,0,1,282.89,309.67Z"/><path class="cls-1" d="M452.26,113.19c-18.07,0-28.37,8.33-34.21,17-2.86,4.27-9.48.48-7.26-4.16l.12-.25h0a27.66,27.66,0,0,1,41.34-12.61Z"/><circle class="cls-3" cx="122.35" cy="256.09" r="19.2"/><circle class="cls-3" cx="210.12" cy="324.66" r="19.2"/><circle class="cls-3" cx="266.09" cy="101.02" r="19.2" transform="matrix(0.16, -0.99, 0.99, 0.16, 123.75, 347.49)"/><circle class="cls-3" cx="366.08" cy="177.3" r="19.2"/><path class="cls-3" d="M394.44,329.59a19.22,19.22,0,0,1-13.95,18.48,19.42,19.42,0,0,1-5.26.73,19.2,19.2,0,1,1,0-38.4,19.42,19.42,0,0,1,5.26.73A19.19,19.19,0,0,1,394.44,329.59Z"/><path class="cls-4" d="M394.44,329.59a19.22,19.22,0,0,1-13.95,18.48,19.2,19.2,0,0,1,0-36.94A19.19,19.19,0,0,1,394.44,329.59Z"/><path class="cls-4" d="M229.32,324.66a19.21,19.21,0,0,1-13.95,18.47,19.19,19.19,0,0,1,0-36.93A19.19,19.19,0,0,1,229.32,324.66Z"/><path class="cls-4" d="M141.55,256.09a19.21,19.21,0,0,1-14,18.47,19.19,19.19,0,0,1,0-36.93A19.19,19.19,0,0,1,141.55,256.09Z"/><path class="cls-4" d="M385.28,177.3a19.2,19.2,0,0,1-13.95,18.47,19.2,19.2,0,0,1,0-36.94A19.19,19.19,0,0,1,385.28,177.3Z"/><path class="cls-4" d="M285.29,101a19.19,19.19,0,0,1-14,18.47,19.19,19.19,0,0,1,0-36.93A19.17,19.17,0,0,1,285.29,101Z"/><path class="cls-1" d="M436.62,44.56a36.39,36.39,0,0,0,0,63.78,36.39,36.39,0,0,0,0-63.78Z"/><path class="cls-5" d="M140.24,215.73a7.24,7.24,0,0,0-5.86-1.75l-2.54.37a7.36,7.36,0,0,1-4.11-.6l-2.32-1.08a7.2,7.2,0,0,0-6.12,0L117,213.75a7.35,7.35,0,0,1-4.11.6l-2.54-.37a7.26,7.26,0,0,0-7.9,9.58c2.14,6.13,6.51,16.84,12.72,23.16h14.42c6.21-6.32,10.58-17,12.72-23.16A7.26,7.26,0,0,0,140.24,215.73Z"/><path class="cls-6" d="M98.94,230a7.25,7.25,0,0,0-11.43,4.85l-.37,2.54a7.18,7.18,0,0,1-1.74,3.76l-1.7,1.92A7.32,7.32,0,0,0,82,249l.38,2.53a7.26,7.26,0,0,1-.59,4.11l-1.07,2.32a7.25,7.25,0,0,0,6.94,10.3c6.48-.31,18-1.45,25.82-5.61l4.09-13.83c-4.3-7.75-13.32-15-18.59-18.77Z"/><path class="cls-5" d="M122.63,268.42l-12-8c-8.68,1.82-18.25,8.3-23.43,12.21A7.26,7.26,0,0,0,88.46,285l2.31,1.1a7.22,7.22,0,0,1,3.09,2.78L95.19,291a7.24,7.24,0,0,0,5.09,3.4l2.53.39a7.39,7.39,0,0,1,3.76,1.78l1.9,1.72a7.27,7.27,0,0,0,11.89-3.59C122,288.45,124.29,277.12,122.63,268.42Z"/><path class="cls-6" d="M122.07,268.42l12-8c8.68,1.82,18.25,8.3,23.43,12.21A7.26,7.26,0,0,1,156.24,285l-2.31,1.1a7.14,7.14,0,0,0-3.08,2.78L149.51,291a7.22,7.22,0,0,1-5.09,3.4l-2.53.39a7.32,7.32,0,0,0-3.75,1.78l-1.91,1.72a7.27,7.27,0,0,1-11.89-3.59c-1.62-6.29-3.93-17.62-2.27-26.32Z"/><path class="cls-5" d="M145.76,230a7.25,7.25,0,0,1,11.43,4.85l.37,2.54a7.26,7.26,0,0,0,1.74,3.76l1.7,1.92a7.32,7.32,0,0,1,1.74,5.88l-.38,2.53a7.26,7.26,0,0,0,.59,4.11l1.08,2.32a7.27,7.27,0,0,1-6.95,10.3c-6.48-.31-18-1.45-25.81-5.61l-4.1-13.83c4.3-7.75,13.32-15,18.59-18.77Z"/><path class="cls-7" d="M137.25,252.21a4.16,4.16,0,0,1-1.86-4.48h0a4.17,4.17,0,0,0-5-5h0a4.2,4.2,0,0,1-4.49-1.86,4.17,4.17,0,0,0-7.08,0,4.19,4.19,0,0,1-4.48,1.86h0a4.18,4.18,0,0,0-5,5h0a4.16,4.16,0,0,1-1.86,4.48,4.19,4.19,0,0,0,0,7.09,4.16,4.16,0,0,1,1.86,4.48h0a4.18,4.18,0,0,0,5,5h0a4.19,4.19,0,0,1,4.48,1.86,4.17,4.17,0,0,0,7.08,0,4.2,4.2,0,0,1,4.49-1.86h0a4.18,4.18,0,0,0,5-5h0a4.16,4.16,0,0,1,1.86-4.48,4.18,4.18,0,0,0,0-7.09Z"/><path class="cls-8" d="M155.42,226.77c-9.22,6.7-19.68,16.53-25.39,26.29-1.39,2.29-2.46,4.57-2.45,4.55a4.41,4.41,0,1,1-7.77-4.17c11.12-18.86,32.29-30.67,32.79-31Z"/><path class="cls-9" d="M152.6,222.41c-.2.14-3.56,2-8.25,5.42a10.34,10.34,0,0,0,3.48,5c2.55-2.2,5.12-4.23,7.6-6Z"/><circle class="cls-10" cx="154.04" cy="224.74" r="4.85"/><path class="cls-6" d="M91.51,269.53c-1.63,1.11-3.09,2.17-4.31,3.09A7.26,7.26,0,0,0,88.46,285l2.31,1.1a7.22,7.22,0,0,1,3.09,2.78L95.19,291a7.24,7.24,0,0,0,5.09,3.4l2.53.39a7.32,7.32,0,0,1,3.75,1.78l1.91,1.72a7.28,7.28,0,0,0,8.45.91C104.5,292.83,94.85,281.3,91.51,269.53Z"/><path class="cls-11" d="M90.26,260.86a49.9,49.9,0,0,1,10-29.9l-1.3-.94a7.25,7.25,0,0,0-11.43,4.85l-.37,2.54a7.21,7.21,0,0,1-1.74,3.76l-1.7,1.92A7.32,7.32,0,0,0,82,249l.38,2.53a7.26,7.26,0,0,1-.59,4.11l-1.07,2.32a7.25,7.25,0,0,0,6.94,10.3c1-.05,2.23-.12,3.5-.22a31.53,31.53,0,0,1-.86-7.15Z"/><path class="cls-6" d="M103.65,226.91A46.89,46.89,0,0,1,127,213.4l-1.58-.73a7.27,7.27,0,0,0-6.12,0L117,213.75a7.35,7.35,0,0,1-4.11.6l-2.54-.37a7.26,7.26,0,0,0-7.9,9.58C102.77,224.57,103.19,225.7,103.65,226.91Z"/><path d="M163.68,251.69l.37-2.53a8.6,8.6,0,0,0-2.06-6.95l-1.69-1.92c-2.59-2.93-.58-6.17-3.72-9.91a6.18,6.18,0,1,0-8.64-6.63c-1.69,1.11-3.67,2.47-5.82,4.07.49-1.25,1-2.52,1.41-3.82a8.59,8.59,0,0,0-9.35-11.34l-2.53.37a5.85,5.85,0,0,1-3.35-.49L126,211.46a8.57,8.57,0,0,0-7.24,0l-2.32,1.08a5.88,5.88,0,0,1-3.36.49l-2.53-.37A8.59,8.59,0,0,0,101.17,224c.83,2.38,2,5.45,3.48,8.71-1.78-1.45-3.47-2.72-4.93-3.77a8.6,8.6,0,0,0-13.53,5.74c-.39,1.82-.1,3.7-1.79,5.61l-1.69,1.92a8.6,8.6,0,0,0-2.06,6.95l.38,2.53c.37,2.53-.9,4-1.56,5.68a8.6,8.6,0,0,0,7.8,12.2c.41,0,1.58-.07,2-.1-1.09.76-2,1.47-2.87,2.09a8.59,8.59,0,0,0,1.49,14.62l2.31,1.1c2.31,1.1,2.79,3,3.85,4.46a8.61,8.61,0,0,0,6,4c1.81.41,3.7.13,5.6,1.84l1.9,1.71a8.6,8.6,0,0,0,14.07-4.24c.25-1,.48-1.93.7-2.89.23,1,.47,2,.7,2.89a8.59,8.59,0,0,0,14.07,4.24c1.47-1.14,2.45-2.77,5-3.16l2.53-.39a8.61,8.61,0,0,0,6-4c1.07-1.52,1.55-3.37,3.85-4.46l2.31-1.1a8.59,8.59,0,0,0,1.49-14.62c-1-.72-1.9-1.41-2.86-2.09.41,0,1.58.1,2,.1a8.6,8.6,0,0,0,7.79-12.2c-.66-1.73-1.93-3.15-1.55-5.68ZM154,221.23h.08a3.52,3.52,0,1,1-3.59,3.44h0A3.5,3.5,0,0,1,154,221.23Zm-50.36,1.89a5.92,5.92,0,0,1,6.45-7.82l2.54.37a8.64,8.64,0,0,0,4.86-.71l2.32-1.08a5.91,5.91,0,0,1,5,0l2.32,1.08a8.67,8.67,0,0,0,4.87.71l2.53-.37a5.92,5.92,0,0,1,6.45,7.82c-1,2.81-2.05,5.52-3.2,8.07a99.34,99.34,0,0,0-10.21,9.64,3.12,3.12,0,0,1-.59-.67,5.42,5.42,0,0,0-3.34-2.43v-8a1.33,1.33,0,0,0-2.66,0v8a5.49,5.49,0,0,0-3.34,2.42,2.86,2.86,0,0,1-3.06,1.27,5,5,0,0,0-.89-.13c-1.17-1.33-2.42-2.62-3.69-3.84a89.28,89.28,0,0,1-6.36-14.33Zm15,29.65a5.71,5.71,0,0,0-.55,4.58,5.74,5.74,0,0,0,10.66.84h0v0a58.69,58.69,0,0,1,5.22-8.74c.38,2.69,2.29,3.63,2.95,4.22a2.86,2.86,0,0,1,.93,2.11,2.79,2.79,0,0,1-1.34,2.41,5.57,5.57,0,0,0-2.45,5.92,2.42,2.42,0,0,1,.07.47h0a2.84,2.84,0,0,1-3.48,2.94,5.52,5.52,0,0,0-5.39,1.74,6.49,6.49,0,0,0-.53.71,2.84,2.84,0,0,1-4.82,0A5.54,5.54,0,0,0,114,267.5a2.85,2.85,0,0,1-3.19-1.5,2.82,2.82,0,0,1-.22-1.92,5.55,5.55,0,0,0-.54-3.89h0a5.53,5.53,0,0,0-1.91-2,2.85,2.85,0,0,1,0-4.83,5.51,5.51,0,0,0,2.45-5.91A2.85,2.85,0,0,1,114,244a5.53,5.53,0,0,0,5.91-2.44,2.83,2.83,0,0,1,4.82,0,6.28,6.28,0,0,0,1.08,1.25,71,71,0,0,0-7.18,10Zm.41,41.64a5.93,5.93,0,0,1-9.71,2.93l-1.9-1.72c-2.63-2.37-5.39-2.11-7-2.49a5.94,5.94,0,0,1-4.17-2.78L95,288.17c-1.84-3-4.55-3.57-6-4.39a5.93,5.93,0,0,1-1-10.09,95.52,95.52,0,0,1,10.57-7,1.33,1.33,0,0,0,.51-1.81h0a1.33,1.33,0,0,0-1.81-.52c-1.11.63-2.31,1.34-3.39,2-2.07.22-4.2.39-6.32.49a5.93,5.93,0,0,1-5.67-8.41c.56-1.54,2.29-3.68,1.77-7.19l-.38-2.53A5.93,5.93,0,0,1,84.7,244l1.7-1.92c2.34-2.66,2.06-5.4,2.43-7a5.92,5.92,0,0,1,9.33-4A87,87,0,0,1,110.74,242,5.5,5.5,0,0,0,108,248a2.86,2.86,0,0,1-1.25,3,29.31,29.31,0,0,0-10.62-2.64,1.33,1.33,0,0,0-.15,2.66,26.63,26.63,0,0,1,8.83,2,5.52,5.52,0,0,0,1.59,7.09c-1.43.49-3,1.1-4.36,1.74a1.34,1.34,0,0,0-.66,1.77h0a1.34,1.34,0,0,0,1.77.66,42.69,42.69,0,0,1,4.89-1.91c.14,1.09-.45,1.66-.06,3.44a5.48,5.48,0,0,0,1.49,2.71,5.3,5.3,0,0,0,1.73,1.17,34.21,34.21,0,0,0-4,7.6,1.33,1.33,0,0,0,2.5.93,31.57,31.57,0,0,1,4.5-8.16l.39-.07a2.84,2.84,0,0,1,3.05,1.27,5.45,5.45,0,0,0,2.52,2.15,63.21,63.21,0,0,0,.8,11.67c-.47,3-1.12,6.08-1.93,9.23Zm37.63-20.72a5.93,5.93,0,0,1-1,10.09l-2.31,1.1c-3.2,1.51-4,4.15-5,5.47a5.94,5.94,0,0,1-4.16,2.78l-2.53.39c-3.5.54-5.05,2.83-6.35,3.82a5.94,5.94,0,0,1-9.71-2.93c-3.27-12.69-2.76-20.28-2.78-20.48a5.54,5.54,0,0,0,4.17-2.57,2.86,2.86,0,0,1,3.06-1.27l.38.08a31.35,31.35,0,0,1,4.5,8.15,1.33,1.33,0,0,0,2.5-.93,34.59,34.59,0,0,0-4-7.6,5.54,5.54,0,0,0,3.13-3.53A71.48,71.48,0,0,0,149.93,269c2.26,1.43,4.53,3,6.77,4.7Zm6.1-10.2a5.89,5.89,0,0,1-5.65,3.41c-4.6-.22-13.24-.95-20.46-3.42a2.84,2.84,0,0,1,1.26-3.05,5.51,5.51,0,0,0,1.92-7.31,26.63,26.63,0,0,1,8.83-2,1.33,1.33,0,0,0-.15-2.66,29.31,29.31,0,0,0-10.62,2.64,2.88,2.88,0,0,1-1.18-1.51c-.44-1.34.32-1.82,0-3.69a90,90,0,0,1,6.85-7.4,1.33,1.33,0,0,0,0-1.88h0a1.34,1.34,0,0,0-1.88,0,78.16,78.16,0,0,0-12.86,15.82c-3.34,5.69,0,0,0,0-1.07,1.78-2.29,4.16-2.49,4.65h0a3.08,3.08,0,1,1-5.43-2.91,68.76,68.76,0,0,1,7.92-10.71,104,104,0,0,1,19.33-16.64c0,.07.05.13.07.2v0a6.17,6.17,0,0,0,1.62,2.35c-1.28,1-2.9,2.4-4.24,3.59a1.33,1.33,0,0,0,1.77,2c1.55-1.38,3.28-2.83,5-4.2.22.05.44.1.66.13l0,0a5.89,5.89,0,0,1,2.73,4.18c.37,1.61.09,4.34,2.43,7L160,244a5.93,5.93,0,0,1,1.42,4.8c-.11,1.64-1.16,4.18.32,7.4l1.08,2.32a5.91,5.91,0,0,1,0,5Z"/><path class="cls-5" d="M288.16,68a7.23,7.23,0,0,0-5.87-1.76l-2.53.37a7.26,7.26,0,0,1-4.11-.6l-2.32-1.08a7.3,7.3,0,0,0-6.13,0L264.88,66a7.26,7.26,0,0,1-4.11.6l-2.53-.37a7.26,7.26,0,0,0-7.9,9.58c2.14,6.13,6.5,16.84,12.71,23.16h14.42c6.22-6.32,10.58-17,12.72-23.16A7.25,7.25,0,0,0,288.16,68Z"/><path class="cls-6" d="M246.85,82.27a7.26,7.26,0,0,0-11.43,4.85l-.36,2.54a7.3,7.3,0,0,1-1.75,3.77l-1.69,1.92a7.22,7.22,0,0,0-1.74,5.87l.37,2.53a7.17,7.17,0,0,1-.59,4.11l-1.07,2.32a7.26,7.26,0,0,0,6.94,10.3c6.49-.31,18-1.45,25.82-5.61l4.1-13.83c-4.3-7.75-13.32-15-18.6-18.77Z"/><path class="cls-5" d="M270.54,120.67l-12-8c-8.67,1.81-18.24,8.29-23.43,12.21a7.25,7.25,0,0,0,1.26,12.35l2.31,1.1a7.29,7.29,0,0,1,3.09,2.78l1.33,2.19a7.26,7.26,0,0,0,5.1,3.4l2.53.38a7.3,7.3,0,0,1,3.75,1.79l1.9,1.71A7.27,7.27,0,0,0,268.27,147C269.89,140.7,272.2,129.38,270.54,120.67Z"/><path class="cls-6" d="M270,120.67l12-8c8.68,1.81,18.25,8.29,23.43,12.21a7.26,7.26,0,0,1-1.25,12.35l-2.32,1.1a7.32,7.32,0,0,0-3.08,2.78l-1.33,2.19a7.28,7.28,0,0,1-5.1,3.4l-2.53.38a7.26,7.26,0,0,0-3.75,1.79l-1.9,1.71A7.27,7.27,0,0,1,272.26,147c-1.63-6.29-3.93-17.61-2.27-26.32Z"/><path class="cls-5" d="M293.67,82.27a7.27,7.27,0,0,1,11.44,4.85l.36,2.54a7.22,7.22,0,0,0,1.75,3.77l1.69,1.92a7.26,7.26,0,0,1,1.74,5.87l-.38,2.53a7.26,7.26,0,0,0,.6,4.11l1.07,2.32a7.26,7.26,0,0,1-6.94,10.3c-6.49-.31-18-1.45-25.82-5.61L275.08,101c4.3-7.75,13.32-15,18.59-18.77Z"/><path class="cls-7" d="M285.16,104.46A4.18,4.18,0,0,1,283.3,100h0a4.17,4.17,0,0,0-5-5h0a4.18,4.18,0,0,1-4.48-1.86,4.18,4.18,0,0,0-7.09,0A4.18,4.18,0,0,1,262.24,95h0a4.18,4.18,0,0,0-5,5h0a4.2,4.2,0,0,1-1.86,4.49,4.17,4.17,0,0,0,0,7.08,4.19,4.19,0,0,1,1.86,4.48h0a4.18,4.18,0,0,0,5,5h0a4.17,4.17,0,0,1,4.48,1.85,4.18,4.18,0,0,0,7.09,0,4.17,4.17,0,0,1,4.48-1.85h0a4.18,4.18,0,0,0,5-5h0a4.19,4.19,0,0,1,1.86-4.48,4.18,4.18,0,0,0,0-7.09Z"/><path class="cls-8" d="M303.34,79c-9.22,6.71-19.69,16.53-25.4,26.29-1.38,2.29-2.46,4.57-2.45,4.55a4.41,4.41,0,1,1-7.77-4.16C278.85,86.83,300,75,300.51,74.66Z"/><path class="cls-9" d="M300.51,74.66c-.19.14-3.56,2-8.24,5.42a10.16,10.16,0,0,0,3.48,5c2.54-2.19,5.11-4.22,7.59-6Z"/><circle class="cls-10" cx="301.96" cy="77" r="4.85"/><path class="cls-6" d="M239.43,121.79c-1.64,1.1-3.1,2.17-4.32,3.09a7.25,7.25,0,0,0,1.26,12.35l2.31,1.1a7.29,7.29,0,0,1,3.09,2.78l1.33,2.19a7.26,7.26,0,0,0,5.1,3.4l2.53.38a7.36,7.36,0,0,1,3.75,1.78l1.9,1.72a7.26,7.26,0,0,0,5.86,1.79,7.17,7.17,0,0,0,2.59-.88C252.42,145.08,242.76,133.56,239.43,121.79Z"/><path class="cls-11" d="M238.17,113.11a49.85,49.85,0,0,1,10-29.89c-.45-.34-.89-.66-1.3-1a7.26,7.26,0,0,0-11.43,4.85l-.36,2.54a7.3,7.3,0,0,1-1.75,3.77l-1.69,1.92a7.22,7.22,0,0,0-1.74,5.87l.37,2.53a7.17,7.17,0,0,1-.59,4.11l-1.07,2.32a7.26,7.26,0,0,0,6.94,10.3c1.05,0,2.23-.12,3.51-.22a30.93,30.93,0,0,1-.87-7.15Z"/><path class="cls-6" d="M251.57,79.16A46.94,46.94,0,0,1,274.9,65.65l-1.57-.73a7.3,7.3,0,0,0-6.13,0L264.88,66a7.26,7.26,0,0,1-4.11.6l-2.53-.37a7.26,7.26,0,0,0-7.9,9.58C250.69,76.82,251.1,78,251.57,79.16Z"/><path d="M311.59,104l.38-2.54a8.6,8.6,0,0,0-2.06-7l-1.7-1.91c-2.59-2.94-.57-6.18-3.71-9.91A6.18,6.18,0,1,0,295.86,76c-1.7,1.11-3.68,2.47-5.83,4.07.49-1.25,1-2.52,1.42-3.82a8.59,8.59,0,0,0-9.35-11.33l-2.54.37a6,6,0,0,1-3.35-.5l-2.32-1.07a8.52,8.52,0,0,0-7.25,0l-2.32,1.07a6,6,0,0,1-3.36.5l-2.53-.37a8.59,8.59,0,0,0-9.35,11.33c.83,2.38,2,5.45,3.48,8.71-1.78-1.45-3.46-2.72-4.93-3.77a8.59,8.59,0,0,0-13.52,5.74c-.4,1.82-.1,3.7-1.79,5.62l-1.7,1.91a8.6,8.6,0,0,0-2.06,7l.38,2.54c.37,2.53-.9,4-1.56,5.68a8.59,8.59,0,0,0,7.8,12.19c.42,0,1.58-.07,2-.1-1.08.77-2.05,1.48-2.87,2.09a8.6,8.6,0,0,0,1.49,14.62l2.31,1.1c2.32,1.1,2.79,2.95,3.86,4.46a8.56,8.56,0,0,0,6,4c1.82.41,3.7.13,5.6,1.84l1.9,1.72a8.6,8.6,0,0,0,14.07-4.25c.25-1,.48-1.93.7-2.89.24,1,.48,2,.71,2.89A8.59,8.59,0,0,0,285,151.57c1.46-1.15,2.44-2.78,5-3.17l2.53-.39a8.58,8.58,0,0,0,6-4c1.08-1.52,1.55-3.36,3.85-4.46l2.32-1.1a8.59,8.59,0,0,0,1.48-14.62c-.94-.71-1.9-1.41-2.86-2.09.41,0,1.59.1,2,.1a8.59,8.59,0,0,0,7.8-12.19c-.67-1.74-1.94-3.16-1.56-5.68ZM302,73.48H302a3.52,3.52,0,1,1-3.6,3.44h0A3.51,3.51,0,0,1,302,73.48Zm-50.36,1.9a5.93,5.93,0,0,1,6.46-7.83l2.53.37a8.55,8.55,0,0,0,4.86-.71l2.32-1.08a5.93,5.93,0,0,1,5,0l2.32,1.08a8.55,8.55,0,0,0,4.86.71l2.53-.37a5.93,5.93,0,0,1,6.45,7.83c-1,2.8-2.05,5.51-3.2,8.06a99.34,99.34,0,0,0-10.21,9.64,3.07,3.07,0,0,1-.58-.67A5.51,5.51,0,0,0,271.6,90V82a1.34,1.34,0,0,0-2.67,0v8a5.46,5.46,0,0,0-3.34,2.43,2.84,2.84,0,0,1-3.06,1.26,8.16,8.16,0,0,0-.88-.13c-1.18-1.33-2.43-2.62-3.7-3.84a90.53,90.53,0,0,1-6.36-14.32Zm15,29.64a5.74,5.74,0,1,0,10.12,5.42h0v0a57.5,57.5,0,0,1,5.22-8.74c.37,2.7,2.28,3.63,2.94,4.22a2.84,2.84,0,0,1,.93,2.11,2.77,2.77,0,0,1-1.34,2.41,5.53,5.53,0,0,0-2.44,5.92,3.78,3.78,0,0,1,.06.47h0a2.84,2.84,0,0,1-3.48,2.94,5.52,5.52,0,0,0-5.39,1.74,5.88,5.88,0,0,0-.52.71,2.85,2.85,0,0,1-4.83,0,5.53,5.53,0,0,0-5.92-2.45,2.84,2.84,0,0,1-3.18-1.49,2.8,2.8,0,0,1-.23-1.93,5.47,5.47,0,0,0-.54-3.88h0a5.48,5.48,0,0,0-1.91-2,2.85,2.85,0,0,1,0-4.83,5.49,5.49,0,0,0,2.45-5.91,2.85,2.85,0,0,1,3.42-3.41,5.53,5.53,0,0,0,5.91-2.45,2.84,2.84,0,0,1,4.83,0,5.93,5.93,0,0,0,1.07,1.25,71.61,71.61,0,0,0-7.18,10Zm.41,41.64a5.93,5.93,0,0,1-9.71,2.93l-1.9-1.72c-2.63-2.36-5.38-2.11-7-2.49a5.92,5.92,0,0,1-4.16-2.78l-1.33-2.18c-1.84-3-4.55-3.57-6-4.39a5.93,5.93,0,0,1-1-10.09,95.52,95.52,0,0,1,10.57-7,1.33,1.33,0,0,0,.51-1.81h0a1.33,1.33,0,0,0-1.81-.51c-1.12.62-2.31,1.33-3.4,2-2.07.23-4.19.39-6.32.49a5.93,5.93,0,0,1-5.67-8.41c.56-1.54,2.29-3.68,1.77-7.19L231.2,101a5.9,5.9,0,0,1,1.42-4.79l1.69-1.92c2.34-2.65,2.06-5.4,2.43-7a5.93,5.93,0,0,1,9.34-4A86.38,86.38,0,0,1,258.65,94.2a5.52,5.52,0,0,0-2.72,6.08,2.83,2.83,0,0,1-1.25,3,29.31,29.31,0,0,0-10.62-2.64,1.33,1.33,0,0,0-.14,2.66,26.5,26.5,0,0,1,8.82,2,5.52,5.52,0,0,0,1.6,7.09c-1.44.49-3,1.11-4.37,1.75a1.32,1.32,0,0,0-.65,1.76h0a1.33,1.33,0,0,0,1.76.66,42.69,42.69,0,0,1,4.89-1.91c.15,1.09-.45,1.66-.06,3.44a5.48,5.48,0,0,0,1.49,2.71,5.72,5.72,0,0,0,1.73,1.18,33.88,33.88,0,0,0-4,7.59,1.33,1.33,0,1,0,2.49.93,31.35,31.35,0,0,1,4.5-8.15l.39-.08a2.85,2.85,0,0,1,3,1.27,5.58,5.58,0,0,0,2.52,2.16,64,64,0,0,0,.8,11.66c-.47,3-1.12,6.09-1.93,9.23Zm37.63-20.72a5.93,5.93,0,0,1-1,10.09l-2.31,1.1c-3.19,1.52-4,4.15-5,5.47a5.92,5.92,0,0,1-4.16,2.78l-2.53.39c-3.5.54-5,2.83-6.34,3.82a5.93,5.93,0,0,1-9.71-2.93c-3.28-12.69-2.77-20.28-2.79-20.48a5.59,5.59,0,0,0,4.18-2.57,2.86,2.86,0,0,1,3.06-1.27,2.87,2.87,0,0,0,.38.08,31.65,31.65,0,0,1,4.5,8.15,1.33,1.33,0,1,0,2.49-.93,33.88,33.88,0,0,0-4-7.59,5.58,5.58,0,0,0,3.13-3.54,70.62,70.62,0,0,0,13.32,2.73c2.25,1.43,4.52,3,6.76,4.7Zm6.11-10.2a5.91,5.91,0,0,1-5.66,3.41c-4.6-.22-13.24-1-20.46-3.42a2.86,2.86,0,0,1,1.26-3,5.51,5.51,0,0,0,1.93-7.31,26.5,26.5,0,0,1,8.82-2,1.33,1.33,0,1,0-.15-2.66,29.31,29.31,0,0,0-10.62,2.64,2.86,2.86,0,0,1-1.17-1.51c-.44-1.33.31-1.81,0-3.69a93.63,93.63,0,0,1,6.85-7.4,1.33,1.33,0,0,0,0-1.88h0a1.33,1.33,0,0,0-1.88,0,78.49,78.49,0,0,0-12.87,15.82h0c-1.08,1.78-2.3,4.17-2.5,4.65h0a3.08,3.08,0,1,1-5.42-2.91,69.17,69.17,0,0,1,7.91-10.71A104.35,104.35,0,0,1,296.11,79a1.19,1.19,0,0,0,.08.2v0a6.17,6.17,0,0,0,1.62,2.35c-1.27,1-2.9,2.4-4.24,3.59a1.33,1.33,0,0,0,1.77,2c1.56-1.38,3.28-2.83,5-4.2a5,5,0,0,0,.67.13l0,0a5.9,5.9,0,0,1,2.74,4.18c.37,1.61.08,4.34,2.43,7l1.69,1.92a5.9,5.9,0,0,1,1.42,4.79c-.1,1.64-1.16,4.18.33,7.4l1.07,2.32a5.94,5.94,0,0,1,0,5Z"/><path class="cls-5" d="M228,284.31a7.29,7.29,0,0,0-5.86-1.76l-2.54.37a7.19,7.19,0,0,1-4.11-.6l-2.32-1.08a7.27,7.27,0,0,0-6.12,0l-2.32,1.08a7.19,7.19,0,0,1-4.11.6l-2.54-.37a7.27,7.27,0,0,0-7.9,9.59c2.14,6.13,6.51,16.83,12.72,23.16h14.42c6.21-6.33,10.58-17,12.72-23.16A7.26,7.26,0,0,0,228,284.31Z"/><path class="cls-6" d="M186.71,298.59a7.26,7.26,0,0,0-11.43,4.86l-.37,2.53a7.29,7.29,0,0,1-1.74,3.77l-1.7,1.92a7.29,7.29,0,0,0-1.74,5.87l.38,2.53a7.26,7.26,0,0,1-.59,4.11l-1.07,2.33a7.26,7.26,0,0,0,6.94,10.3c6.48-.31,18-1.46,25.82-5.62l4.09-13.82c-4.3-7.76-13.32-15-18.59-18.78Z"/><path class="cls-5" d="M210.4,337l-12-8c-8.68,1.81-18.25,8.3-23.43,12.21a7.25,7.25,0,0,0,1.26,12.35l2.31,1.1a7.27,7.27,0,0,1,3.08,2.78l1.34,2.19a7.27,7.27,0,0,0,5.09,3.4l2.53.39a7.17,7.17,0,0,1,3.75,1.78l1.91,1.71a7.26,7.26,0,0,0,11.89-3.59C209.75,357,212.06,345.7,210.4,337Z"/><path class="cls-6" d="M209.84,337l12-8c8.68,1.81,18.25,8.3,23.43,12.21A7.25,7.25,0,0,1,244,353.55l-2.31,1.1a7.27,7.27,0,0,0-3.08,2.78l-1.34,2.19a7.27,7.27,0,0,1-5.09,3.4l-2.53.39a7.17,7.17,0,0,0-3.75,1.78L224,366.9a7.26,7.26,0,0,1-11.89-3.59c-1.62-6.28-3.93-17.61-2.27-26.32Z"/><path class="cls-5" d="M233.53,298.59A7.26,7.26,0,0,1,245,303.45l.37,2.53a7.29,7.29,0,0,0,1.74,3.77l1.7,1.92a7.29,7.29,0,0,1,1.74,5.87l-.38,2.53a7.26,7.26,0,0,0,.59,4.11l1.07,2.33a7.26,7.26,0,0,1-6.94,10.3c-6.48-.31-18-1.46-25.82-5.62l-4.09-13.82c4.3-7.76,13.32-15,18.59-18.78Z"/><path class="cls-7" d="M225,320.79a4.17,4.17,0,0,1-1.86-4.48h0a4.18,4.18,0,0,0-5-5h0a4.18,4.18,0,0,1-4.49-1.86,4.18,4.18,0,0,0-7.08,0,4.17,4.17,0,0,1-4.48,1.86h0a4.18,4.18,0,0,0-5,5h0a4.17,4.17,0,0,1-1.86,4.48,4.18,4.18,0,0,0,0,7.08,4.18,4.18,0,0,1,1.86,4.49h0a4.18,4.18,0,0,0,5,5h0a4.17,4.17,0,0,1,4.48,1.86,4.17,4.17,0,0,0,7.08,0,4.18,4.18,0,0,1,4.49-1.86h0a4.18,4.18,0,0,0,5-5h0a4.18,4.18,0,0,1,1.86-4.49,4.17,4.17,0,0,0,0-7.08Z"/><path class="cls-8" d="M243.19,295.35c-9.22,6.7-19.68,16.53-25.39,26.28-1.39,2.3-2.46,4.57-2.45,4.55a4.41,4.41,0,1,1-7.77-4.16c11.12-18.87,32.29-30.67,32.79-31Z"/><path class="cls-9" d="M240.37,291c-.2.15-3.56,2-8.25,5.43a10.25,10.25,0,0,0,3.48,5c2.55-2.19,5.11-4.22,7.59-6Z"/><circle class="cls-10" cx="241.81" cy="293.32" r="4.85"/><path class="cls-6" d="M179.28,338.11c-1.63,1.11-3.09,2.17-4.31,3.09a7.25,7.25,0,0,0,1.26,12.35l2.31,1.1a7.27,7.27,0,0,1,3.08,2.78l1.34,2.19a7.27,7.27,0,0,0,5.09,3.4l2.53.39a7.17,7.17,0,0,1,3.75,1.78l1.91,1.71a7.23,7.23,0,0,0,8.45.91C192.27,361.41,182.62,349.88,179.28,338.11Z"/><path class="cls-11" d="M178,329.43a49.92,49.92,0,0,1,10-29.89l-1.29-1a7.26,7.26,0,0,0-11.43,4.86l-.37,2.53a7.29,7.29,0,0,1-1.74,3.77l-1.7,1.92a7.29,7.29,0,0,0-1.74,5.87l.38,2.53a7.26,7.26,0,0,1-.59,4.11l-1.07,2.33a7.26,7.26,0,0,0,6.94,10.3c1.05-.05,2.23-.13,3.5-.23a31.41,31.41,0,0,1-.87-7.15Z"/><path class="cls-6" d="M191.42,295.48A46.88,46.88,0,0,1,214.76,282l-1.58-.74a7.27,7.27,0,0,0-6.12,0l-2.32,1.08a7.19,7.19,0,0,1-4.11.6l-2.54-.37a7.27,7.27,0,0,0-7.9,9.59C190.54,293.14,191,294.27,191.42,295.48Z"/><path d="M251.45,320.27l.37-2.53a8.58,8.58,0,0,0-2.06-6.95l-1.69-1.92c-2.59-2.93-.58-6.18-3.72-9.91a6.18,6.18,0,1,0-8.64-6.64c-1.69,1.11-3.67,2.48-5.82,4.08.49-1.26,1-2.53,1.41-3.82A8.59,8.59,0,0,0,222,281.24l-2.53.37a5.88,5.88,0,0,1-3.36-.49L213.74,280a8.57,8.57,0,0,0-7.24,0l-2.32,1.08a5.88,5.88,0,0,1-3.36.49l-2.53-.37a8.59,8.59,0,0,0-9.35,11.34c.83,2.37,2,5.45,3.48,8.7-1.78-1.44-3.47-2.71-4.93-3.77A8.6,8.6,0,0,0,174,303.26c-.39,1.82-.1,3.7-1.79,5.61l-1.69,1.92a8.58,8.58,0,0,0-2.06,6.95l.38,2.53c.37,2.53-.91,4-1.56,5.68A8.59,8.59,0,0,0,175,338.14c.42,0,1.59-.07,2-.09-1.09.76-2,1.47-2.87,2.09a8.59,8.59,0,0,0,1.49,14.62l2.31,1.09c2.31,1.1,2.79,3,3.85,4.46a8.55,8.55,0,0,0,6,4c1.81.41,3.7.14,5.59,1.85l1.91,1.71a8.6,8.6,0,0,0,14.07-4.24c.25-1,.48-1.94.7-2.9.23,1,.47,2,.7,2.9a8.6,8.6,0,0,0,14.07,4.24c1.47-1.15,2.45-2.78,5-3.17l2.53-.39a8.55,8.55,0,0,0,6-4c1.07-1.52,1.54-3.36,3.85-4.46l2.31-1.09a8.59,8.59,0,0,0,1.49-14.62c-.95-.72-1.9-1.42-2.86-2.09.41,0,1.58.09,2,.09A8.59,8.59,0,0,0,253,326c-.66-1.74-1.93-3.16-1.55-5.68Zm-9.64-30.47h.08a3.52,3.52,0,1,1-3.6,3.45h0A3.52,3.52,0,0,1,241.81,289.8Zm-50.36,1.9a5.94,5.94,0,0,1,6.45-7.83l2.54.37a8.55,8.55,0,0,0,4.86-.71l2.32-1.08a5.91,5.91,0,0,1,5,0l2.32,1.08a8.55,8.55,0,0,0,4.86.71l2.54-.37a5.94,5.94,0,0,1,6.45,7.83c-1,2.8-2,5.51-3.2,8.06a100.44,100.44,0,0,0-10.22,9.64,2.89,2.89,0,0,1-.58-.67,5.46,5.46,0,0,0-3.34-2.43v-8a1.33,1.33,0,0,0-2.66,0v8a5.46,5.46,0,0,0-3.34,2.43,2.85,2.85,0,0,1-3.06,1.26,8,8,0,0,0-.89-.13c-1.17-1.33-2.42-2.61-3.69-3.83a89.28,89.28,0,0,1-6.36-14.33Zm15,29.65a5.71,5.71,0,0,0-.55,4.58,5.8,5.8,0,0,0,3,3.5,5.73,5.73,0,0,0,7.67-2.67h0a58.74,58.74,0,0,1,5.22-8.75c.38,2.7,2.29,3.64,2.95,4.22a2.88,2.88,0,0,1,.93,2.11,2.79,2.79,0,0,1-1.34,2.41,5.57,5.57,0,0,0-2.45,5.92,2.54,2.54,0,0,1,.07.47h0a2.85,2.85,0,0,1-3.49,2.94,5.51,5.51,0,0,0-5.38,1.74,6.1,6.1,0,0,0-.53.71,2.84,2.84,0,0,1-4.82,0,5.54,5.54,0,0,0-5.92-2.45,2.83,2.83,0,0,1-3.41-3.42,5.53,5.53,0,0,0-.54-3.88h0a5.56,5.56,0,0,0-1.91-2,2.84,2.84,0,0,1,0-4.82,5.52,5.52,0,0,0,2.45-5.92,2.85,2.85,0,0,1,3.42-3.41,5.52,5.52,0,0,0,5.91-2.45,2.83,2.83,0,0,1,4.82,0,6.07,6.07,0,0,0,1.08,1.26,71,71,0,0,0-7.18,10Zm.41,41.63a5.93,5.93,0,0,1-9.71,2.93l-1.9-1.71c-2.63-2.37-5.39-2.12-7-2.5a6,6,0,0,1-4.17-2.77l-1.33-2.19c-1.84-3-4.55-3.57-6-4.39a5.93,5.93,0,0,1-1-10.09,95.52,95.52,0,0,1,10.57-7,1.33,1.33,0,0,0,.51-1.81h0A1.33,1.33,0,0,0,185,333c-1.11.62-2.31,1.33-3.4,2-2.06.23-4.19.39-6.31.5a5.93,5.93,0,0,1-5.67-8.41c.56-1.55,2.29-3.69,1.77-7.19l-.38-2.53a5.94,5.94,0,0,1,1.42-4.8l1.7-1.92c2.34-2.65,2.06-5.4,2.43-7a5.93,5.93,0,0,1,9.33-4,87.06,87.06,0,0,1,12.58,10.86,5.51,5.51,0,0,0-2.73,6.08,2.84,2.84,0,0,1-1.24,3A29.11,29.11,0,0,0,183.92,317a1.33,1.33,0,0,0-.15,2.65,26.86,26.86,0,0,1,8.83,2,5.5,5.5,0,0,0,1.59,7.08c-1.43.49-3,1.11-4.36,1.75a1.33,1.33,0,0,0-.66,1.76h0a1.34,1.34,0,0,0,1.77.66,40.87,40.87,0,0,1,4.89-1.9c.14,1.08-.45,1.65-.06,3.44a5.49,5.49,0,0,0,1.49,2.7,5.33,5.33,0,0,0,1.73,1.18,33.77,33.77,0,0,0-4,7.6,1.33,1.33,0,0,0,2.5.92,31.35,31.35,0,0,1,4.5-8.15l.38-.07a2.84,2.84,0,0,1,3.06,1.26,5.47,5.47,0,0,0,2.52,2.16,63,63,0,0,0,.8,11.66c-.47,3-1.12,6.09-1.93,9.23Zm37.63-20.72a5.93,5.93,0,0,1-1,10.09l-2.31,1.1c-3.2,1.52-4,4.15-5,5.48A6,6,0,0,1,232,361.7l-2.52.39c-3.5.54-5.05,2.83-6.35,3.82A5.93,5.93,0,0,1,213.4,363c-3.27-12.68-2.76-20.28-2.78-20.48a5.53,5.53,0,0,0,4.17-2.57,2.84,2.84,0,0,1,3.06-1.26l.38.07a31.35,31.35,0,0,1,4.5,8.15,1.33,1.33,0,1,0,2.5-.92,33.77,33.77,0,0,0-4-7.6,5.51,5.51,0,0,0,3.13-3.53,70.92,70.92,0,0,0,13.32,2.72c2.26,1.43,4.53,3,6.77,4.7Zm6.1-10.19a5.92,5.92,0,0,1-5.65,3.41c-4.6-.22-13.24-1-20.47-3.43a2.86,2.86,0,0,1,1.27-3.05,5.5,5.5,0,0,0,1.92-7.3,26.86,26.86,0,0,1,8.83-2,1.33,1.33,0,0,0-.15-2.65,29.11,29.11,0,0,0-10.62,2.64,2.89,2.89,0,0,1-1.18-1.52c-.44-1.33.32-1.81,0-3.68a92,92,0,0,1,6.86-7.41,1.33,1.33,0,0,0,0-1.88h0a1.33,1.33,0,0,0-1.88,0A79.11,79.11,0,0,0,216.65,321h0c-1.07,1.78-2.29,4.17-2.5,4.66h0a3.08,3.08,0,1,1-5.43-2.9A69.31,69.31,0,0,1,216.64,312,103.6,103.6,0,0,1,236,295.35c0,.06.05.13.07.2h0a6.09,6.09,0,0,0,1.62,2.35c-1.28,1-2.9,2.4-4.24,3.59a1.34,1.34,0,0,0,1.77,2c1.55-1.39,3.28-2.84,5-4.21.22.06.44.1.66.14l0,0a5.91,5.91,0,0,1,2.73,4.19c.37,1.6.09,4.34,2.43,7l1.7,1.92a5.94,5.94,0,0,1,1.42,4.8c-.11,1.64-1.16,4.18.32,7.39l1.08,2.33a5.91,5.91,0,0,1,0,5Z"/><path class="cls-5" d="M375.35,134.57a7.24,7.24,0,0,0-5.86-1.75l-2.54.37a7.36,7.36,0,0,1-4.11-.6l-2.32-1.08a7.2,7.2,0,0,0-6.12,0l-2.32,1.08a7.35,7.35,0,0,1-4.11.6l-2.53-.37a7.26,7.26,0,0,0-7.91,9.58c2.14,6.13,6.51,16.84,12.72,23.16h14.42c6.21-6.32,10.58-17,12.72-23.16A7.26,7.26,0,0,0,375.35,134.57Z"/><path class="cls-6" d="M334.05,148.86a7.25,7.25,0,0,0-11.43,4.85l-.37,2.53a7.21,7.21,0,0,1-1.74,3.77l-1.69,1.92a7.25,7.25,0,0,0-1.74,5.88l.37,2.53a7.27,7.27,0,0,1-.59,4.11l-1.07,2.32a7.25,7.25,0,0,0,6.94,10.3c6.49-.31,18-1.46,25.82-5.61l4.09-13.83c-4.3-7.75-13.32-15-18.59-18.77Z"/><path class="cls-5" d="M357.74,187.26l-12-8c-8.67,1.82-18.25,8.3-23.43,12.21a7.26,7.26,0,0,0,1.26,12.36l2.31,1.1A7.22,7.22,0,0,1,329,207.7l1.33,2.18a7.24,7.24,0,0,0,5.09,3.4l2.53.39a7.39,7.39,0,0,1,3.76,1.78l1.9,1.72a7.27,7.27,0,0,0,11.89-3.59C357.09,207.29,359.4,196,357.74,187.26Z"/><path class="cls-6" d="M357.18,187.26l12-8c8.68,1.82,18.25,8.3,23.43,12.21a7.26,7.26,0,0,1-1.26,12.36l-2.31,1.1A7.14,7.14,0,0,0,386,207.7l-1.34,2.18a7.22,7.22,0,0,1-5.09,3.4l-2.53.39a7.32,7.32,0,0,0-3.75,1.78l-1.91,1.72a7.27,7.27,0,0,1-11.89-3.59c-1.62-6.29-3.92-17.62-2.27-26.32Z"/><path class="cls-5" d="M380.87,148.86a7.25,7.25,0,0,1,11.43,4.85l.37,2.53a7.29,7.29,0,0,0,1.74,3.77l1.7,1.92a7.32,7.32,0,0,1,1.74,5.88l-.38,2.53a7.27,7.27,0,0,0,.59,4.11l1.08,2.32a7.27,7.27,0,0,1-6.95,10.3c-6.48-.31-18-1.46-25.81-5.61l-4.1-13.83c4.3-7.75,13.32-15,18.59-18.77Z"/><path class="cls-7" d="M372.36,171.05a4.16,4.16,0,0,1-1.86-4.48h0a4.17,4.17,0,0,0-5-5h0A4.2,4.2,0,0,1,361,159.7a4.17,4.17,0,0,0-7.08,0,4.19,4.19,0,0,1-4.48,1.86h0a4.18,4.18,0,0,0-5,5h0a4.17,4.17,0,0,1-1.85,4.48,4.18,4.18,0,0,0,0,7.09,4.17,4.17,0,0,1,1.85,4.48h0a4.18,4.18,0,0,0,5,5h0a4.19,4.19,0,0,1,4.48,1.86,4.17,4.17,0,0,0,7.08,0,4.2,4.2,0,0,1,4.49-1.86h0a4.18,4.18,0,0,0,5-5h0a4.16,4.16,0,0,1,1.86-4.48,4.18,4.18,0,0,0,0-7.09Z"/><path class="cls-8" d="M390.54,145.61c-9.23,6.7-19.69,16.53-25.4,26.29-1.39,2.29-2.46,4.57-2.45,4.55a4.41,4.41,0,1,1-7.77-4.17c11.12-18.86,32.29-30.67,32.79-31Z"/><path class="cls-9" d="M387.71,141.25c-.2.14-3.56,2-8.25,5.42a10.27,10.27,0,0,0,3.48,5c2.55-2.19,5.12-4.22,7.6-6Z"/><circle class="cls-10" cx="389.15" cy="143.58" r="4.85"/><path class="cls-6" d="M326.62,188.37c-1.63,1.11-3.09,2.17-4.31,3.09a7.26,7.26,0,0,0,1.26,12.36l2.31,1.1A7.22,7.22,0,0,1,329,207.7l1.33,2.18a7.24,7.24,0,0,0,5.09,3.4l2.53.39a7.39,7.39,0,0,1,3.76,1.78l1.9,1.71a7.27,7.27,0,0,0,8.45.92C339.61,211.67,330,200.14,326.62,188.37Z"/><path class="cls-11" d="M325.37,179.7a49.9,49.9,0,0,1,10-29.9l-1.3-.94a7.25,7.25,0,0,0-11.43,4.85l-.37,2.53a7.21,7.21,0,0,1-1.74,3.77l-1.69,1.92a7.25,7.25,0,0,0-1.74,5.88l.37,2.53a7.27,7.27,0,0,1-.59,4.11l-1.07,2.32a7.25,7.25,0,0,0,6.94,10.3c1,0,2.23-.12,3.5-.22a31.53,31.53,0,0,1-.86-7.15Z"/><path class="cls-6" d="M338.76,145.75a46.94,46.94,0,0,1,23.34-13.51l-1.58-.73a7.2,7.2,0,0,0-6.12,0l-2.32,1.08a7.35,7.35,0,0,1-4.11.6l-2.53-.37a7.26,7.26,0,0,0-7.91,9.58C337.88,143.41,338.3,144.54,338.76,145.75Z"/><path d="M398.79,170.53l.37-2.53a8.6,8.6,0,0,0-2.06-6.95l-1.69-1.92c-2.59-2.93-.58-6.17-3.72-9.91a6.18,6.18,0,1,0-8.64-6.63c-1.69,1.11-3.67,2.47-5.82,4.07.49-1.25,1-2.53,1.41-3.82a8.59,8.59,0,0,0-9.35-11.34l-2.53.37a5.86,5.86,0,0,1-3.35-.49l-2.33-1.08a8.57,8.57,0,0,0-7.24,0l-2.32,1.08a5.88,5.88,0,0,1-3.36.49l-2.53-.37a8.59,8.59,0,0,0-9.35,11.34c.83,2.38,2,5.45,3.48,8.71-1.78-1.45-3.47-2.72-4.93-3.77a8.6,8.6,0,0,0-13.53,5.74c-.39,1.82-.1,3.7-1.79,5.61l-1.69,1.92a8.6,8.6,0,0,0-2.06,6.95l.38,2.53c.37,2.53-.9,4-1.56,5.68a8.6,8.6,0,0,0,7.8,12.2c.41,0,1.58-.07,2-.1-1.09.76-2.05,1.47-2.87,2.09A8.59,8.59,0,0,0,323,205l2.31,1.1c2.31,1.1,2.79,2.95,3.85,4.46a8.61,8.61,0,0,0,6,4c1.81.41,3.7.13,5.6,1.84l1.9,1.71a8.6,8.6,0,0,0,14.07-4.24c.25-1,.48-1.93.7-2.89.23,1,.47,2,.7,2.89a8.6,8.6,0,0,0,14.07,4.24c1.47-1.14,2.45-2.78,5-3.16l2.53-.39a8.61,8.61,0,0,0,6-4c1.07-1.52,1.55-3.37,3.85-4.46l2.31-1.1a8.59,8.59,0,0,0,1.49-14.62c-1-.72-1.9-1.41-2.86-2.09.41,0,1.58.1,2,.1a8.6,8.6,0,0,0,7.79-12.2c-.66-1.73-1.93-3.15-1.55-5.68Zm-9.64-30.46h.08a3.52,3.52,0,1,1-3.59,3.44h0A3.5,3.5,0,0,1,389.15,140.07ZM338.79,142a5.92,5.92,0,0,1,6.45-7.82l2.54.37a8.64,8.64,0,0,0,4.86-.71l2.32-1.08a5.91,5.91,0,0,1,5,0l2.32,1.08a8.67,8.67,0,0,0,4.87.71l2.53-.37a5.92,5.92,0,0,1,6.45,7.82c-1,2.8-2.05,5.52-3.2,8.06a100.6,100.6,0,0,0-10.21,9.65,3.21,3.21,0,0,1-.59-.68,5.44,5.44,0,0,0-3.34-2.42v-8a1.33,1.33,0,0,0-2.66,0v8a5.45,5.45,0,0,0-3.34,2.42,2.86,2.86,0,0,1-3.06,1.27,5,5,0,0,0-.89-.13c-1.17-1.33-2.42-2.62-3.69-3.84A89.28,89.28,0,0,1,338.79,142Zm15,29.65a5.71,5.71,0,0,0-.55,4.58,5.75,5.75,0,0,0,10.67.84h0a59.25,59.25,0,0,1,5.22-8.75c.38,2.7,2.29,3.64,2.95,4.23a2.86,2.86,0,0,1,.93,2.11,2.79,2.79,0,0,1-1.34,2.41,5.57,5.57,0,0,0-2.45,5.92,2.42,2.42,0,0,1,.07.47h0a2.84,2.84,0,0,1-3.48,2.94,5.52,5.52,0,0,0-5.39,1.74,6.49,6.49,0,0,0-.53.71,2.84,2.84,0,0,1-4.82,0,5.54,5.54,0,0,0-5.92-2.45,2.85,2.85,0,0,1-3.19-1.5,2.82,2.82,0,0,1-.22-1.92,5.55,5.55,0,0,0-.54-3.89h0a5.53,5.53,0,0,0-1.91-2,2.85,2.85,0,0,1,0-4.83,5.51,5.51,0,0,0,2.45-5.91,2.85,2.85,0,0,1,3.42-3.42,5.52,5.52,0,0,0,5.91-2.45,2.84,2.84,0,0,1,4.82,0,6.07,6.07,0,0,0,1.08,1.26,71,71,0,0,0-7.18,10Zm.41,41.63a5.93,5.93,0,0,1-9.71,2.93l-1.9-1.71c-2.63-2.37-5.39-2.11-7-2.49a5.9,5.9,0,0,1-4.16-2.78L330.1,207c-1.84-3-4.55-3.56-6-4.38a5.93,5.93,0,0,1-1-10.09,94.12,94.12,0,0,1,10.57-7,1.33,1.33,0,0,0,.51-1.81c-.36-.65,0,0,0,0a1.33,1.33,0,0,0-1.81-.51c-1.11.63-2.31,1.34-3.39,2-2.07.22-4.2.39-6.32.49a5.93,5.93,0,0,1-5.67-8.41c.56-1.54,2.29-3.68,1.77-7.19l-.38-2.53a6,6,0,0,1,1.42-4.8l1.7-1.91c2.34-2.66,2.06-5.41,2.43-7a5.92,5.92,0,0,1,9.33-4,87,87,0,0,1,12.58,10.85,5.5,5.5,0,0,0-2.72,6.08,2.86,2.86,0,0,1-1.25,3,29.31,29.31,0,0,0-10.62-2.64,1.33,1.33,0,0,0-.15,2.66,26.63,26.63,0,0,1,8.83,2,5.52,5.52,0,0,0,1.59,7.09c-1.43.49-3,1.1-4.36,1.74a1.34,1.34,0,0,0-.66,1.77h0a1.34,1.34,0,0,0,1.77.66,42.69,42.69,0,0,1,4.89-1.91c.14,1.09-.45,1.66-.06,3.44a5.48,5.48,0,0,0,1.49,2.71,5.3,5.3,0,0,0,1.73,1.17,34.63,34.63,0,0,0-4,7.6,1.33,1.33,0,0,0,2.5.93,31.57,31.57,0,0,1,4.5-8.16l.39-.07a2.84,2.84,0,0,1,3.05,1.27,5.45,5.45,0,0,0,2.52,2.15,63.21,63.21,0,0,0,.8,11.67c-.47,3-1.12,6.08-1.93,9.22Zm37.63-20.71a5.93,5.93,0,0,1-1,10.09l-2.31,1.09c-3.2,1.52-4,4.16-5,5.48a5.94,5.94,0,0,1-4.16,2.78l-2.53.39c-3.5.53-5.05,2.83-6.35,3.81a5.93,5.93,0,0,1-9.71-2.93C357.47,200.56,358,193,358,192.77a5.54,5.54,0,0,0,4.17-2.57,2.85,2.85,0,0,1,3.06-1.27,3.1,3.1,0,0,0,.38.07,31.57,31.57,0,0,1,4.5,8.16,1.33,1.33,0,0,0,2.5-.93,34.59,34.59,0,0,0-4-7.6,5.56,5.56,0,0,0,3.13-3.53A71.48,71.48,0,0,0,385,187.83c2.26,1.43,4.53,3,6.77,4.7Zm6.1-10.2a5.89,5.89,0,0,1-5.65,3.41c-4.6-.22-13.24-1-20.46-3.42a2.84,2.84,0,0,1,1.26-3A5.51,5.51,0,0,0,375,172a26.63,26.63,0,0,1,8.83-2,1.33,1.33,0,0,0-.15-2.66A29.31,29.31,0,0,0,373,169.91a2.88,2.88,0,0,1-1.18-1.51c-.44-1.34.32-1.82,0-3.69a90,90,0,0,1,6.85-7.4,1.33,1.33,0,0,0,0-1.88h0a1.34,1.34,0,0,0-1.88,0A78.16,78.16,0,0,0,364,171.22h0c-1.08,1.78-2.3,4.16-2.5,4.65h0a3.08,3.08,0,1,1-5.43-2.91A69.31,69.31,0,0,1,364,162.24a104.35,104.35,0,0,1,19.33-16.63c0,.07.05.13.07.2v0a6.17,6.17,0,0,0,1.62,2.35c-1.28,1-2.9,2.4-4.24,3.59a1.33,1.33,0,0,0,1.77,2c1.55-1.38,3.28-2.83,5-4.2.22.05.44.1.66.13l0,0A5.93,5.93,0,0,1,391,153.9c.37,1.61.09,4.34,2.43,7l1.7,1.91a5.93,5.93,0,0,1,1.42,4.8c-.11,1.64-1.16,4.18.32,7.4l1.08,2.32a5.91,5.91,0,0,1,0,5Z"/><path class="cls-5" d="M385.82,291.21a7.27,7.27,0,0,0-5.87-1.76l-2.53.37a7.18,7.18,0,0,1-4.11-.6L371,288.14a7.27,7.27,0,0,0-6.12,0l-2.32,1.08a7.19,7.19,0,0,1-4.11.6l-2.54-.37A7.27,7.27,0,0,0,348,299c2.14,6.13,6.51,16.83,12.72,23.15h14.42c6.21-6.32,10.58-17,12.72-23.15A7.25,7.25,0,0,0,385.82,291.21Z"/><path class="cls-6" d="M344.52,305.49a7.26,7.26,0,0,0-11.43,4.86l-.37,2.53a7.29,7.29,0,0,1-1.74,3.77l-1.7,1.92a7.29,7.29,0,0,0-1.74,5.87l.38,2.53a7.26,7.26,0,0,1-.59,4.11l-1.08,2.33a7.26,7.26,0,0,0,6.95,10.29c6.48-.3,18-1.45,25.81-5.61l4.1-13.83c-4.3-7.75-13.32-15-18.59-18.77Z"/><path class="cls-5" d="M368.21,343.89l-12-8c-8.68,1.81-18.25,8.29-23.43,12.21A7.25,7.25,0,0,0,334,360.45l2.31,1.1a7.27,7.27,0,0,1,3.08,2.78l1.34,2.19a7.25,7.25,0,0,0,5.09,3.4l2.53.39a7.17,7.17,0,0,1,3.75,1.78l1.91,1.71a7.26,7.26,0,0,0,11.89-3.59C367.56,363.92,369.86,352.6,368.21,343.89Z"/><path class="cls-6" d="M367.65,343.89l12-8c8.67,1.81,18.25,8.29,23.43,12.21a7.25,7.25,0,0,1-1.26,12.35l-2.31,1.1a7.35,7.35,0,0,0-3.09,2.78l-1.33,2.19a7.27,7.27,0,0,1-5.09,3.4l-2.53.39a7.24,7.24,0,0,0-3.76,1.78l-1.9,1.71a7.26,7.26,0,0,1-11.89-3.59c-1.62-6.29-3.93-17.61-2.27-26.32Z"/><path class="cls-5" d="M391.34,305.49a7.26,7.26,0,0,1,11.43,4.86l.37,2.53a7.21,7.21,0,0,0,1.74,3.77l1.69,1.92a7.22,7.22,0,0,1,1.74,5.87l-.37,2.53a7.26,7.26,0,0,0,.59,4.11l1.07,2.33a7.25,7.25,0,0,1-6.94,10.29c-6.49-.3-18-1.45-25.82-5.61l-4.09-13.83c4.3-7.75,13.32-15,18.59-18.77Z"/><path class="cls-7" d="M382.83,327.69A4.18,4.18,0,0,1,381,323.2h0a4.18,4.18,0,0,0-5-5h0a4.17,4.17,0,0,1-4.48-1.86,4.17,4.17,0,0,0-7.08,0,4.18,4.18,0,0,1-4.49,1.86h0a4.18,4.18,0,0,0-5,5h0a4.18,4.18,0,0,1-1.86,4.49,4.17,4.17,0,0,0,0,7.08,4.18,4.18,0,0,1,1.86,4.49h0a4.18,4.18,0,0,0,5,5h0a4.18,4.18,0,0,1,4.49,1.86,4.18,4.18,0,0,0,7.08,0,4.17,4.17,0,0,1,4.48-1.86h0a4.18,4.18,0,0,0,5-5h0a4.17,4.17,0,0,1,1.86-4.48,4.18,4.18,0,0,0,0-7.08Z"/><path class="cls-8" d="M401,302.25c-9.22,6.7-19.69,16.53-25.39,26.28-1.39,2.29-2.46,4.57-2.45,4.55a4.41,4.41,0,1,1-7.77-4.16c11.12-18.87,32.29-30.68,32.78-31Z"/><path class="cls-9" d="M398.17,297.88c-.19.14-3.55,2-8.24,5.43a10.25,10.25,0,0,0,3.48,5c2.54-2.19,5.11-4.22,7.59-6Z"/><circle class="cls-10" cx="399.62" cy="300.22" r="4.85"/><path class="cls-6" d="M337.09,345c-1.63,1.11-3.09,2.17-4.31,3.09A7.25,7.25,0,0,0,334,360.45l2.31,1.1a7.27,7.27,0,0,1,3.08,2.78l1.34,2.19a7.25,7.25,0,0,0,5.09,3.4l2.53.39a7.17,7.17,0,0,1,3.75,1.78l1.91,1.71a7.23,7.23,0,0,0,8.45.91C350.08,368.31,340.43,356.78,337.09,345Z"/><path class="cls-11" d="M335.83,336.33a49.92,49.92,0,0,1,10-29.89l-1.29-.95a7.26,7.26,0,0,0-11.43,4.86l-.37,2.53a7.29,7.29,0,0,1-1.74,3.77l-1.7,1.92a7.29,7.29,0,0,0-1.74,5.87l.38,2.53a7.26,7.26,0,0,1-.59,4.11l-1.08,2.33a7.27,7.27,0,0,0,6.95,10.3c1,0,2.23-.13,3.5-.23a30.93,30.93,0,0,1-.87-7.15Z"/><path class="cls-6" d="M349.23,302.38a47,47,0,0,1,23.34-13.51l-1.58-.73a7.27,7.27,0,0,0-6.12,0l-2.32,1.08a7.19,7.19,0,0,1-4.11.6l-2.54-.37A7.27,7.27,0,0,0,348,299C348.35,300,348.76,301.17,349.23,302.38Z"/><path d="M409.25,327.17l.38-2.53a8.58,8.58,0,0,0-2.06-6.95l-1.69-1.92c-2.59-2.93-.58-6.18-3.72-9.91a6.18,6.18,0,1,0-8.64-6.64c-1.69,1.11-3.68,2.47-5.82,4.07.49-1.25,1-2.52,1.41-3.82a8.58,8.58,0,0,0-9.35-11.33l-2.53.37a6.05,6.05,0,0,1-3.36-.49l-2.32-1.08a8.57,8.57,0,0,0-7.24,0L362,288a6,6,0,0,1-3.35.49l-2.53-.37a8.58,8.58,0,0,0-9.35,11.33c.82,2.38,2,5.46,3.48,8.71-1.78-1.44-3.47-2.72-4.93-3.77a8.6,8.6,0,0,0-13.53,5.75c-.39,1.81-.1,3.7-1.79,5.61l-1.69,1.92a8.58,8.58,0,0,0-2.06,6.95l.37,2.53c.38,2.53-.9,4-1.55,5.68A8.59,8.59,0,0,0,332.84,345c.42,0,1.59-.07,2-.09-1.08.76-2,1.47-2.86,2.09a8.59,8.59,0,0,0,1.49,14.61l2.31,1.1c2.31,1.1,2.78,3,3.85,4.46a8.58,8.58,0,0,0,6,4c1.81.41,3.7.14,5.59,1.84l1.91,1.72a8.59,8.59,0,0,0,14.06-4.25c.25-1,.49-1.93.71-2.89.23,1,.47,2,.7,2.89a8.6,8.6,0,0,0,14.07,4.25c1.47-1.15,2.45-2.78,5-3.17l2.53-.39a8.58,8.58,0,0,0,6-4c1.07-1.52,1.54-3.36,3.85-4.46l2.31-1.1A8.59,8.59,0,0,0,403.88,347c-.95-.72-1.91-1.42-2.86-2.09.41,0,1.58.09,2,.09a8.59,8.59,0,0,0,7.8-12.19c-.66-1.74-1.93-3.16-1.56-5.68Zm-9.63-30.47h.08a3.52,3.52,0,1,1-3.6,3.44h0A3.52,3.52,0,0,1,399.62,296.7Zm-50.36,1.9a5.94,5.94,0,0,1,6.45-7.83l2.53.37a8.59,8.59,0,0,0,4.87-.71l2.32-1.08a5.91,5.91,0,0,1,5,0l2.32,1.08a8.55,8.55,0,0,0,4.86.71l2.54-.37a5.94,5.94,0,0,1,6.45,7.83c-1,2.8-2.05,5.51-3.2,8.06a99.4,99.4,0,0,0-10.22,9.64,3.11,3.11,0,0,1-.58-.67,5.46,5.46,0,0,0-3.34-2.43v-8a1.33,1.33,0,1,0-2.66,0v8a5.46,5.46,0,0,0-3.34,2.43,2.85,2.85,0,0,1-3.06,1.26,8.32,8.32,0,0,0-.89-.13c-1.17-1.33-2.42-2.61-3.69-3.84a89.23,89.23,0,0,1-6.36-14.32Zm15,29.65a5.67,5.67,0,0,0-.55,4.58,5.83,5.83,0,0,0,3,3.5,5.73,5.73,0,0,0,7.67-2.67h0a58.74,58.74,0,0,1,5.22-8.75c.37,2.7,2.29,3.64,2.94,4.22a2.83,2.83,0,0,1,.94,2.11,2.79,2.79,0,0,1-1.34,2.41,5.57,5.57,0,0,0-2.45,5.92,2.54,2.54,0,0,1,.07.47h0a2.85,2.85,0,0,1-3.49,2.94,5.51,5.51,0,0,0-5.38,1.74,5.31,5.31,0,0,0-.53.71,2.84,2.84,0,0,1-4.82,0A5.54,5.54,0,0,0,359.6,343a2.83,2.83,0,0,1-3.41-3.42,5.53,5.53,0,0,0-.54-3.88h0a5.48,5.48,0,0,0-1.91-2,2.83,2.83,0,0,1,0-4.82,5.52,5.52,0,0,0,2.45-5.92,2.84,2.84,0,0,1,3.42-3.41,5.52,5.52,0,0,0,5.91-2.45,2.83,2.83,0,0,1,4.82,0,5.47,5.47,0,0,0,1.08,1.25,70.88,70.88,0,0,0-7.18,10Zm.41,41.63a5.93,5.93,0,0,1-9.71,2.93L353,371.1c-2.63-2.37-5.38-2.12-7-2.5a5.94,5.94,0,0,1-4.16-2.78l-1.33-2.18c-1.84-3-4.55-3.57-6-4.39a5.93,5.93,0,0,1-1-10.09,95.52,95.52,0,0,1,10.57-7,1.33,1.33,0,0,0,.51-1.81h0a1.33,1.33,0,0,0-1.81-.51c-1.12.62-2.31,1.33-3.4,2-2.06.23-4.19.39-6.32.5a5.94,5.94,0,0,1-5.67-8.42c.57-1.54,2.3-3.68,1.78-7.18l-.38-2.54a5.9,5.9,0,0,1,1.42-4.79l1.7-1.92c2.34-2.65,2.06-5.4,2.43-7a5.93,5.93,0,0,1,9.33-4,87,87,0,0,1,12.58,10.85,5.53,5.53,0,0,0-2.73,6.08,2.83,2.83,0,0,1-1.24,3,29.33,29.33,0,0,0-10.62-2.63,1.33,1.33,0,0,0-.15,2.65,26.61,26.61,0,0,1,8.83,2,5.5,5.5,0,0,0,1.59,7.08c-1.44.49-3,1.11-4.36,1.75a1.33,1.33,0,0,0-.66,1.76h0a1.33,1.33,0,0,0,1.76.66,43.58,43.58,0,0,1,4.9-1.91c.14,1.09-.46,1.66-.06,3.45a5.48,5.48,0,0,0,1.48,2.7,5.55,5.55,0,0,0,1.73,1.18,34.15,34.15,0,0,0-4,7.6,1.33,1.33,0,1,0,2.5.92,31.35,31.35,0,0,1,4.5-8.15l.38-.08a2.87,2.87,0,0,1,3.06,1.27,5.53,5.53,0,0,0,2.52,2.16,63,63,0,0,0,.8,11.66c-.47,3-1.12,6.09-1.93,9.23Zm37.63-20.72a5.93,5.93,0,0,1-1,10.09l-2.31,1.1c-3.2,1.52-4,4.15-5,5.48a5.92,5.92,0,0,1-4.16,2.77l-2.53.39c-3.49.54-5,2.83-6.34,3.82a5.93,5.93,0,0,1-9.71-2.93c-3.27-12.69-2.76-20.28-2.78-20.48a5.53,5.53,0,0,0,4.17-2.57,2.84,2.84,0,0,1,3.06-1.26l.38.07a31.35,31.35,0,0,1,4.5,8.15,1.33,1.33,0,0,0,2.5-.92,33.77,33.77,0,0,0-4-7.6,5.53,5.53,0,0,0,3.13-3.53,71.73,71.73,0,0,0,13.32,2.72c2.25,1.43,4.53,3,6.77,4.7Zm6.1-10.19a5.9,5.9,0,0,1-5.66,3.4c-4.6-.21-13.24-.95-20.46-3.42a2.86,2.86,0,0,1,1.27-3.05,5.51,5.51,0,0,0,1.92-7.31,26.88,26.88,0,0,1,8.83-2,1.33,1.33,0,0,0-.15-2.66,29.52,29.52,0,0,0-10.62,2.64,2.83,2.83,0,0,1-1.18-1.51c-.44-1.33.32-1.81,0-3.68a90.37,90.37,0,0,1,6.86-7.41,1.32,1.32,0,0,0,0-1.88h0a1.33,1.33,0,0,0-1.88,0,79.11,79.11,0,0,0-12.87,15.82h0c-1.07,1.78-2.29,4.17-2.5,4.65h0a3.08,3.08,0,1,1-5.43-2.91,69.71,69.71,0,0,1,7.92-10.71,103.6,103.6,0,0,1,19.33-16.63l.07.19v0a6.09,6.09,0,0,0,1.62,2.35c-1.28,1-2.9,2.4-4.24,3.59a1.33,1.33,0,1,0,1.77,2c1.55-1.38,3.28-2.83,5-4.2.22.06.44.1.66.14l0,0a5.94,5.94,0,0,1,2.73,4.19c.37,1.6.09,4.33,2.43,7l1.7,1.92a5.93,5.93,0,0,1,1.42,4.79c-.11,1.65-1.17,4.18.32,7.4l1.07,2.32a5.93,5.93,0,0,1,0,5Z"/></g></g></svg>