<?xml version="1.0" encoding="utf-8"?>
<!-- Generator: Adobe Illustrator 25.0.0, SVG Export Plug-In . SVG Version: 6.00 Build 0)  -->
<svg version="1.1" id="Layer_1" xmlns="http://www.w3.org/2000/svg" xmlns:xlink="http://www.w3.org/1999/xlink" x="0px" y="0px"
	 viewBox="0 0 512 512" style="enable-background:new 0 0 512 512;" xml:space="preserve">
<style type="text/css">
	.st0{fill:#027E2A;}
	.st1{fill:#026A23;}
	.st2{fill:#029532;}
	.st3{fill:#027226;}
	.st4{fill:#FF3444;}
	.st5{fill:#961B20;}
	.st6{fill:#E82F3E;}
	.st7{fill:#FBB540;}
</style>
<g id="flat_3_">
	<g>
		<path class="st0" d="M126.2,91.4l16.7,51.5c7.2,22.1,20.9,41.6,39.4,55.7l2.3,1.7c22.8,17.5,51.4,25.8,80.1,23.3l30.5-2.7
			l-5.3-30.2c-5-28.3-20.4-53.8-43.3-71.3C229,106.1,207.9,98,185.8,96.2L126.2,91.4z"/>
		<path class="st0" d="M235,160.4l4.4-45.9c2.4,1.6,4.8,3.3,7.2,5.1c0.5,0.4,1,0.8,1.5,1.2l-3.9,40.5c-0.2,2.5-2.5,4.4-5.1,4.2
			C236.7,165.3,234.8,163,235,160.4L235,160.4z"/>
		<path class="st0" d="M126.2,91.4l8.5,0.7l41.6,31.9l3.2-28.3l6.3,0.5c1,0.1,1.9,0.2,2.9,0.3l-3.8,34.1l22,16.9l5-46.1
			c2,0.7,4.1,1.4,6.1,2.1c1,0.4,1.9,0.8,2.9,1.2l-5.1,47.5c0,0.4-0.1,0.8-0.3,1.1c0.3,0.4,0.6,0.9,0.8,1.3l77.8,59.7l1.2,6.7
			l-6.8,0.6l-78.1-59.9l-47.9,17.4c-2-2.5-3.9-5.1-5.7-7.8l44.8-16.3l-22.3-17.1l-34.8,9.4c-0.5-1.4-1-2.9-1.5-4.4l-1.4-4.4
			l28.5-7.7l-41.3-31.7L126.2,91.4z"/>
	</g>
	<path class="st1" d="M235,160.4l4.4-45.9c2.4,1.6,4.8,3.3,7.2,5.1c0.5,0.4,1,0.8,1.5,1.2l-3.9,40.5c-0.2,2.5-2.5,4.4-5.1,4.2
		C236.7,165.3,234.8,163,235,160.4L235,160.4z"/>
	<path class="st1" d="M126.2,91.4l8.5,0.7l41.6,31.9l3.2-28.3l6.3,0.5c1,0.1,1.9,0.2,2.9,0.3l-3.8,34.1l22,16.9l5-46.1
		c2,0.7,4.1,1.4,6.1,2.1c1,0.4,1.9,0.8,2.9,1.2l-5.1,47.5c0,0.4-0.1,0.8-0.3,1.1c0.3,0.4,0.6,0.9,0.8,1.3l77.8,59.7l1.2,6.7
		l-6.8,0.6l-78.1-59.9l-47.9,17.4c-2-2.5-3.9-5.1-5.7-7.8l44.8-16.3l-22.3-17.1l-34.8,9.4c-0.5-1.4-1-2.9-1.5-4.4l-1.4-4.4l28.5-7.7
		l-41.3-31.7L126.2,91.4z"/>
	<g>
		<path class="st2" d="M394.8,91.4L378,143c-7.2,22.1-20.9,41.6-39.4,55.7l-2.3,1.7c-22.8,17.5-51.4,25.8-80.1,23.3l-30.5-2.7
			l5.3-30.2c5-28.3,20.4-53.8,43.3-71.3c17.6-13.5,38.7-21.6,60.8-23.4L394.8,91.4z"/>
		<path class="st2" d="M272.8,120.8c0.5-0.4,1-0.8,1.5-1.2c2.3-1.8,4.7-3.5,7.2-5.1l4.4,45.9c0.2,2.5-1.6,4.8-4.2,5.1
			c-2.5,0.2-4.8-1.6-5.1-4.2L272.8,120.8z"/>
		<path class="st2" d="M304.8,154.6c0.2-0.5,0.5-0.9,0.8-1.3c-0.1-0.4-0.2-0.7-0.3-1.1l-5.1-47.5c0.9-0.4,1.9-0.8,2.9-1.2
			c2-0.8,4-1.5,6.1-2.1l5,46.1l22-16.9l-3.8-34.1c1-0.1,1.9-0.2,2.9-0.3l6.3-0.5l3.2,28.3l41.6-31.9l8.5-0.7l-2.5,7.8L351,130.9
			l28.5,7.7L378,143c-0.5,1.5-1,2.9-1.5,4.4l-34.8-9.4l-22.3,17.1l44.8,16.3c-1.8,2.7-3.7,5.3-5.7,7.8l-47.9-17.4l-78.1,59.9
			l-6.8-0.6l1.2-6.7L304.8,154.6z"/>
	</g>
	<path class="st3" d="M272.8,120.8c0.5-0.4,1-0.8,1.5-1.2c2.3-1.8,4.7-3.5,7.2-5.1l4.4,45.9c0.2,2.5-1.6,4.8-4.2,5.1
		c-2.5,0.2-4.8-1.6-5.1-4.2L272.8,120.8z"/>
	<path class="st3" d="M222.9,217.4l4-3.1l77.8-59.7c0.2-0.5,0.5-0.9,0.8-1.3c-0.1-0.4-0.2-0.7-0.3-1.1l-5.1-47.5
		c0.9-0.4,1.9-0.8,2.9-1.2c2-0.8,4-1.5,6.1-2.1l5,46.1l22-16.9l-3.8-34.1c1-0.1,1.9-0.2,2.9-0.3l6.3-0.5l3.2,28.3l41.6-31.9l8.5-0.7
		l-2.5,7.8L351,130.9l28.5,7.7L378,143c-0.5,1.5-1,2.9-1.5,4.4l-34.8-9.4l-22.3,17.1l44.8,16.3c-1.8,2.7-3.7,5.3-5.7,7.8l-47.9-17.4
		l-78.1,59.9l-4,3.1c-2,1.5-5,1.1-6.5-0.9C220.6,221.8,221,218.9,222.9,217.4L222.9,217.4z"/>
	<path class="st4" d="M172.7,225.3c-2.7,3.1-4.7,6.7-5.9,10.7c-7.9,4.2-11.7,13.5-8.9,22.1c0.1,0.2,0.1,0.4,0.2,0.5
		c-8.6,5.5-11.2,16.9-5.7,25.6c3.6,5.7,10.1,9,16.8,8.6c0.1,0.2,0.1,0.4,0.2,0.6c2.8,8.5,11.3,13.8,20.1,12.6c3.3,2.5,7,4.2,11,5.2
		c12.2,2.8,24.8-1.7,32.6-11.4l12.5-18c7.8-11.2,12.9-24,14.9-37.5c-9.6-9.7-21.2-17.1-34.1-21.5l-20.7-7.2
		C193.7,212.1,180.8,215.9,172.7,225.3L172.7,225.3z"/>
	<path class="st5" d="M234.8,236.3c3.1,0,6.3,0.2,9.4,0.7l17,2.6c2.5,0.4,4.3,2.7,3.9,5.3c-0.1,1-0.6,1.9-1.3,2.6l-12.2,12
		c-7,6.9-15.6,12.1-24.9,15.1c-2.4,0.8-5-0.5-5.8-3c-0.8-2.4,0.5-5,3-5.8l0,0c8-2.6,15.3-7,21.3-12.9l5.6-5.6l-7.8-1.2
		c-8.3-1.2-16.8-0.5-24.8,2c-2.4,0.8-5-0.5-5.8-3s0.5-5,3-5.8C221.5,237.4,228.1,236.3,234.8,236.3L234.8,236.3z"/>
	<path class="st6" d="M215.4,321.9c2.1,3.5,4.9,6.5,8.3,8.9c1.6,8.8,9.3,15.3,18.2,15.3c0.2,0,0.4,0,0.6,0
		c2.6,9.9,12.7,15.9,22.6,13.3c6.5-1.7,11.6-6.8,13.3-13.3c0.2,0,0.4,0,0.6,0c9,0,16.7-6.4,18.2-15.3c3.4-2.4,6.2-5.4,8.3-8.9
		c6.4-10.7,6.1-24.1-0.8-34.5L291.5,270c-8.2-10.9-18.8-19.7-31-25.8c-12.2,6.1-22.8,14.9-31,25.8l-13.2,17.4
		C209.3,297.8,209,311.2,215.4,321.9L215.4,321.9z"/>
	<path class="st5" d="M260.5,239.6c1.8,0,3.4,1,4.1,2.6l7.7,15.4c4.4,8.8,6.7,18.5,6.7,28.4c0,2.6-2.1,4.6-4.6,4.6
		c-2.6,0-4.6-2.1-4.6-4.6c0-8.4-2-16.7-5.7-24.2l-3.5-7.1l-3.5,7.1c-3.8,7.5-5.7,15.8-5.7,24.2c0,2.6-2.1,4.6-4.6,4.6
		s-4.6-2.1-4.6-4.6c0-9.9,2.3-19.6,6.7-28.4l7.7-15.4C257.1,240.5,258.7,239.6,260.5,239.6L260.5,239.6z"/>
	<path class="st4" d="M320.5,311.1c4-0.9,7.8-2.7,11-5.2c8.9,1.2,17.4-4.1,20.2-12.6c0.1-0.2,0.1-0.4,0.2-0.6
		c10.2,0.6,19-7.1,19.6-17.3c0.4-6.7-2.9-13.2-8.6-16.8c0.1-0.2,0.1-0.4,0.2-0.5c2.8-8.5-1-17.8-8.9-22.1c-1.2-3.9-3.2-7.6-5.9-10.7
		c-8.2-9.4-21.1-13.3-33.1-9.9l-20.7,7.2c-12.9,4.5-24.5,11.8-34.1,21.5c2,13.5,7.1,26.3,14.9,37.5l12.5,18
		C295.6,309.4,308.3,313.9,320.5,311.1L320.5,311.1z"/>
	<path class="st5" d="M286.2,236.3c6.7,0,13.3,1,19.7,3.1c2.4,0.8,3.8,3.4,3,5.8c-0.8,2.4-3.4,3.8-5.8,3c-8-2.6-16.5-3.3-24.8-2
		l-7.8,1.2l5.6,5.6c6,5.9,13.3,10.3,21.3,12.9c2.4,0.8,3.8,3.4,3,5.8c-0.8,2.4-3.4,3.8-5.8,3c-9.4-3.1-17.9-8.2-24.9-15.1l-12.2-12
		c-1.8-1.8-1.8-4.7,0-6.5c0.7-0.7,1.6-1.2,2.6-1.3l17-2.6C279.9,236.6,283,236.3,286.2,236.3L286.2,236.3z"/>
	<path class="st6" d="M342.6,207.8c0.4-4.1-0.2-8.2-1.5-12.1c3.9-8.1,1.5-17.8-5.8-23.1c-0.2-0.1-0.3-0.2-0.5-0.3
		c3.8-9.5-0.9-20.3-10.4-24c-6.3-2.5-13.4-1.4-18.6,2.9c-0.2-0.1-0.3-0.2-0.5-0.4c-7.3-5.3-17.3-4.6-23.7,1.6
		c-4.1-0.1-8.2,0.7-11.9,2.3c-11.5,4.9-19.1,15.9-19.6,28.4l0.4,21.9c0.3,13.6,3.7,27,10,39.1c13.4,2.2,27.2,1.3,40.2-2.6l20.9-6.3
		C333.4,230.9,341.5,220.2,342.6,207.8L342.6,207.8z"/>
	<path class="st5" d="M273.7,197.7c2.6,0,4.6,2.1,4.6,4.6c0,1-0.3,1.9-0.9,2.7c-4.9,6.8-8.2,14.7-9.6,23l-1.3,7.8l7-3.6
		c7.5-3.9,13.9-9.4,18.9-16.3c1.5-2,4.4-2.4,6.5-0.9c2,1.5,2.4,4.3,1,6.3c-5.8,8-13.4,14.5-22.1,19l-15.2,7.9
		c-2.3,1.2-5.1,0.3-6.2-2c-0.5-0.9-0.6-1.9-0.5-2.9l2.8-16.9c1.6-9.7,5.5-18.9,11.3-26.9C270.9,198.4,272.3,197.7,273.7,197.7
		L273.7,197.7z"/>
	<path class="st4" d="M251.3,154.8c-3.8-1.6-7.8-2.4-11.9-2.3c-6.5-6.2-16.5-6.9-23.7-1.6c-0.2,0.1-0.3,0.2-0.5,0.4
		c-7.9-6.5-19.6-5.4-26.1,2.5c-4.3,5.2-5.4,12.3-2.9,18.6c-0.2,0.1-0.3,0.2-0.5,0.3c-7.3,5.3-9.7,15-5.8,23.1
		c-1.3,3.9-1.8,8-1.5,12.1c1.1,12.4,9.3,23.1,20.9,27.4l20.9,6.3c13,3.9,26.8,4.8,40.2,2.6c6.3-12.1,9.7-25.5,10-39.1l0.4-21.9
		C270.4,170.8,262.7,159.7,251.3,154.8L251.3,154.8z"/>
	<path class="st5" d="M247.2,197.7c1.5,0,2.9,0.7,3.8,1.9c5.8,8,9.6,17.2,11.3,26.9l2.8,16.9c0.4,2.5-1.3,4.9-3.8,5.3
		c-1,0.2-2,0-2.9-0.5l-15.2-7.9c-8.7-4.6-16.3-11.1-22.1-19c-1.5-2.1-0.9-5,1.1-6.4c2-1.4,4.8-1,6.3,1c5,6.8,11.4,12.4,18.9,16.3
		l7,3.6l-1.3-7.8c-1.4-8.3-4.7-16.2-9.6-23c-1.5-2.1-1-5,1-6.5C245.3,198,246.2,197.7,247.2,197.7L247.2,197.7z"/>
	<path class="st5" d="M260.5,239.6c2.6,0,4.6,2.1,4.6,4.6c0,2-1.3,3.8-3.2,4.4c-35,11.7-65.1,34.7-85.7,65.4l-6.5,8.9
		c-1.4,2.1-2.4,0.6-4.5-0.8c-2.1-1.4-5.1-0.8-3.6-2.9l6.9-10.4c21.7-32.4,53.5-56.7,90.4-69.1C259.5,239.6,260,239.6,260.5,239.6
		L260.5,239.6z"/>
	<path class="st7" d="M154,343.6L154,343.6c-4.4-2.6-5.9-8.2-3.4-12.7l4.6-8c2.6-4.4,8.2-5.9,12.7-3.4l0,0c4.4,2.6,5.9,8.2,3.4,12.7
		l-4.6,8C164.1,344.6,158.4,346.1,154,343.6z"/>
</g>
<g id="flat_2_">
	<g>
		<path class="st0" d="M401.3,369.9l-16.7-51.5c-7.2-22.1-20.9-41.6-39.4-55.7l-2.3-1.7c-22.8-17.5-51.4-25.8-80.1-23.3l-30.5,2.7
			l5.3,30.2c5,28.3,20.4,53.8,43.3,71.3c17.6,13.5,38.7,21.6,60.8,23.4L401.3,369.9z"/>
		<path class="st0" d="M292.5,300.8l-4.4,45.9c-2.4-1.6-4.8-3.3-7.2-5.1c-0.5-0.4-1-0.8-1.5-1.2l3.9-40.5c0.2-2.5,2.5-4.4,5.1-4.2
			C290.9,296,292.7,298.3,292.5,300.8L292.5,300.8z"/>
		<path class="st0" d="M401.3,369.9l-8.5-0.7l-41.6-31.9l-3.2,28.3l-6.3-0.5c-1-0.1-1.9-0.2-2.9-0.3l3.8-34.1l-22-16.9l-5,46.1
			c-2-0.7-4.1-1.4-6.1-2.1c-1-0.4-1.9-0.8-2.9-1.2l5.1-47.5c0-0.4,0.1-0.8,0.3-1.1c-0.3-0.4-0.6-0.9-0.8-1.3L233.5,247l-1.2-6.7
			l6.8-0.6l78.1,59.9l47.9-17.4c2,2.5,3.9,5.1,5.7,7.8l-44.8,16.3l22.3,17.1l34.8-9.4c0.5,1.4,1,2.9,1.5,4.4l1.4,4.4l-28.5,7.7
			l41.3,31.7L401.3,369.9z"/>
	</g>
	<path class="st1" d="M292.5,300.8l-4.4,45.9c-2.4-1.6-4.8-3.3-7.2-5.1c-0.5-0.4-1-0.8-1.5-1.2l3.9-40.5c0.2-2.5,2.5-4.4,5.1-4.2
		C290.9,296,292.7,298.3,292.5,300.8L292.5,300.8z"/>
	<path class="st1" d="M401.3,369.9l-8.5-0.7l-41.6-31.9l-3.2,28.3l-6.3-0.5c-1-0.1-1.9-0.2-2.9-0.3l3.8-34.1l-22-16.9l-5,46.1
		c-2-0.7-4.1-1.4-6.1-2.1c-1-0.4-1.9-0.8-2.9-1.2l5.1-47.5c0-0.4,0.1-0.8,0.3-1.1c-0.3-0.4-0.6-0.9-0.8-1.3L233.5,247l-1.2-6.7
		l6.8-0.6l78.1,59.9l47.9-17.4c2,2.5,3.9,5.1,5.7,7.8l-44.8,16.3l22.3,17.1l34.8-9.4c0.5,1.4,1,2.9,1.5,4.4l1.4,4.4l-28.5,7.7
		l41.3,31.7L401.3,369.9z"/>
	<g>
		<path class="st2" d="M132.7,369.9l16.7-51.5c7.2-22.1,20.9-41.6,39.4-55.7l2.3-1.7c22.8-17.5,51.4-25.8,80.1-23.3l30.5,2.7
			l-5.3,30.2c-5,28.3-20.4,53.8-43.3,71.3c-17.6,13.5-38.7,21.6-60.8,23.4L132.7,369.9z"/>
		<path class="st2" d="M254.7,340.5c-0.5,0.4-1,0.8-1.5,1.2c-2.3,1.8-4.7,3.5-7.2,5.1l-4.4-45.9c-0.2-2.5,1.6-4.8,4.2-5.1
			c2.5-0.2,4.8,1.6,5.1,4.2L254.7,340.5z"/>
		<path class="st2" d="M222.7,306.7c-0.2,0.5-0.5,0.9-0.8,1.3c0.1,0.4,0.2,0.7,0.3,1.1l5.1,47.5c-0.9,0.4-1.9,0.8-2.9,1.2
			c-2,0.8-4,1.5-6.1,2.1l-5-46.1l-22,16.9l3.8,34.1c-1,0.1-1.9,0.2-2.9,0.3l-6.3,0.5l-3.2-28.3l-41.6,31.9l-8.5,0.7l2.5-7.8
			l41.3-31.7l-28.5-7.7l1.4-4.4c0.5-1.5,1-2.9,1.5-4.4l34.8,9.4l22.3-17.1l-44.8-16.3c1.8-2.7,3.7-5.3,5.7-7.8l47.9,17.4l78.1-59.9
			l6.8,0.6l-1.2,6.7L222.7,306.7z"/>
	</g>
	<path class="st3" d="M254.7,340.5c-0.5,0.4-1,0.8-1.5,1.2c-2.3,1.8-4.7,3.5-7.2,5.1l-4.4-45.9c-0.2-2.5,1.6-4.8,4.2-5.1
		c2.5-0.2,4.8,1.6,5.1,4.2L254.7,340.5z"/>
	<path class="st3" d="M304.6,243.9l-4,3.1l-77.8,59.7c-0.2,0.5-0.5,0.9-0.8,1.3c0.1,0.4,0.2,0.7,0.3,1.1l5.1,47.5
		c-0.9,0.4-1.9,0.8-2.9,1.2c-2,0.8-4,1.5-6.1,2.1l-5-46.1l-22,16.9l3.8,34.1c-1,0.1-1.9,0.2-2.9,0.3l-6.3,0.5l-3.2-28.3l-41.6,31.9
		l-8.5,0.7l2.5-7.8l41.3-31.7l-28.5-7.7l1.4-4.4c0.5-1.5,1-2.9,1.5-4.4l34.8,9.4l22.3-17.1l-44.8-16.3c1.8-2.7,3.7-5.3,5.7-7.8
		l47.9,17.4l78.1-59.9l4-3.1c2-1.5,5-1.1,6.5,0.9C306.9,239.5,306.6,242.3,304.6,243.9L304.6,243.9z"/>
	<path class="st4" d="M354.9,235.9c2.7-3.1,4.7-6.7,5.9-10.7c7.9-4.2,11.7-13.5,8.9-22.1c-0.1-0.2-0.1-0.4-0.2-0.5
		c8.6-5.5,11.2-16.9,5.7-25.6c-3.6-5.7-10.1-9-16.8-8.6c-0.1-0.2-0.1-0.4-0.2-0.6c-2.8-8.5-11.3-13.8-20.1-12.6
		c-3.3-2.5-7-4.2-11-5.2c-12.2-2.8-24.8,1.7-32.6,11.4l-12.5,18c-7.8,11.2-12.9,24-14.9,37.5c9.6,9.7,21.2,17.1,34.1,21.5l20.7,7.2
		C333.8,249.2,346.7,245.3,354.9,235.9L354.9,235.9z"/>
	<path class="st5" d="M292.7,224.9c-3.1,0-6.3-0.2-9.4-0.7l-17-2.6c-2.5-0.4-4.3-2.7-3.9-5.3c0.1-1,0.6-1.9,1.3-2.6l12.2-12
		c7-6.9,15.6-12.1,24.9-15.1c2.4-0.8,5,0.5,5.8,3s-0.5,5-3,5.8l0,0c-8,2.6-15.3,7-21.3,12.9l-5.6,5.6l7.8,1.2
		c8.3,1.2,16.8,0.5,24.8-2c2.4-0.8,5,0.5,5.8,3s-0.5,5-3,5.8C306,223.9,299.4,224.9,292.7,224.9L292.7,224.9z"/>
	<path class="st6" d="M312.1,139.4c-2.1-3.5-4.9-6.5-8.3-8.9c-1.6-8.8-9.3-15.3-18.2-15.3c-0.2,0-0.4,0-0.6,0
		c-2.6-9.9-12.7-15.9-22.6-13.3c-6.5,1.7-11.6,6.8-13.3,13.3c-0.2,0-0.4,0-0.6,0c-9,0-16.7,6.4-18.2,15.3c-3.4,2.4-6.2,5.4-8.3,8.9
		c-6.4,10.7-6.1,24.1,0.8,34.5l13.2,17.4c8.2,10.9,18.8,19.7,31,25.8c12.2-6.1,22.8-14.9,31-25.8l13.2-17.4
		C318.2,163.5,318.5,150.1,312.1,139.4L312.1,139.4z"/>
	<path class="st5" d="M267,221.7c-1.8,0-3.4-1-4.1-2.6l-7.7-15.4c-4.4-8.8-6.7-18.5-6.7-28.4c0-2.6,2.1-4.6,4.6-4.6s4.6,2.1,4.6,4.6
		c0,8.4,2,16.7,5.7,24.2l3.5,7.1l3.5-7.1c3.8-7.5,5.7-15.8,5.7-24.2c0-2.6,2.1-4.6,4.6-4.6c2.6,0,4.6,2.1,4.6,4.6
		c0,9.9-2.3,19.6-6.7,28.4l-7.7,15.4C270.4,220.7,268.8,221.7,267,221.7L267,221.7z"/>
	<path class="st4" d="M207,150.2c-4,0.9-7.8,2.7-11,5.2c-8.9-1.2-17.4,4.1-20.2,12.6c-0.1,0.2-0.1,0.4-0.2,0.6
		c-10.2-0.6-19,7.1-19.6,17.3c-0.4,6.7,2.9,13.2,8.6,16.8c-0.1,0.2-0.1,0.4-0.2,0.5c-2.8,8.5,1,17.8,8.9,22.1
		c1.2,3.9,3.2,7.6,5.9,10.7c8.2,9.4,21.1,13.3,33.1,9.9l20.7-7.2c12.9-4.5,24.5-11.8,34.1-21.5c-2-13.5-7.1-26.3-14.9-37.5l-12.5-18
		C231.9,151.9,219.2,147.4,207,150.2L207,150.2z"/>
	<path class="st5" d="M241.3,224.9c-6.7,0-13.3-1-19.7-3.1c-2.4-0.8-3.8-3.4-3-5.8c0.8-2.4,3.4-3.8,5.8-3c8,2.6,16.5,3.3,24.8,2
		l7.8-1.2l-5.6-5.6c-6-5.9-13.3-10.3-21.3-12.9c-2.4-0.8-3.8-3.4-3-5.8s3.4-3.8,5.8-3c9.4,3.1,17.9,8.2,24.9,15.1l12.2,12
		c1.8,1.8,1.8,4.7,0,6.5c-0.7,0.7-1.6,1.2-2.6,1.3l-17,2.6C247.6,224.7,244.5,224.9,241.3,224.9L241.3,224.9z"/>
	<path class="st6" d="M184.9,253.5c-0.4,4.1,0.2,8.2,1.5,12.1c-3.9,8.1-1.5,17.8,5.8,23.1c0.2,0.1,0.3,0.2,0.5,0.3
		c-3.8,9.5,0.9,20.3,10.4,24c6.3,2.5,13.4,1.4,18.6-2.9c0.2,0.1,0.3,0.2,0.5,0.4c7.3,5.3,17.3,4.6,23.7-1.6
		c4.1,0.1,8.2-0.7,11.9-2.3c11.5-4.9,19.1-15.9,19.6-28.4l-0.4-21.9c-0.3-13.6-3.7-27-10-39.1c-13.4-2.2-27.2-1.3-40.2,2.6
		l-20.9,6.3C194.1,230.4,186,241.1,184.9,253.5L184.9,253.5z"/>
	<path class="st5" d="M253.8,263.6c-2.6,0-4.6-2.1-4.6-4.6c0-1,0.3-1.9,0.9-2.7c4.9-6.8,8.2-14.7,9.6-23l1.3-7.8l-7,3.6
		c-7.5,3.9-13.9,9.4-18.9,16.3c-1.5,2-4.4,2.4-6.5,0.9c-2-1.5-2.4-4.3-1-6.3c5.8-8,13.4-14.5,22.1-19l15.2-7.9
		c2.3-1.2,5.1-0.3,6.2,2c0.5,0.9,0.6,1.9,0.5,2.9l-2.8,16.9c-1.6,9.7-5.5,18.9-11.3,26.9C256.6,262.9,255.3,263.6,253.8,263.6
		L253.8,263.6z"/>
	<path class="st4" d="M276.3,306.4c3.8,1.6,7.8,2.4,11.9,2.3c6.5,6.2,16.5,6.9,23.7,1.6c0.2-0.1,0.3-0.2,0.5-0.4
		c7.9,6.5,19.6,5.4,26.1-2.5c4.3-5.2,5.4-12.3,2.9-18.6c0.2-0.1,0.3-0.2,0.5-0.3c7.3-5.3,9.7-15,5.8-23.1c1.3-3.9,1.8-8,1.5-12.1
		c-1.1-12.4-9.3-23.1-20.9-27.4l-20.9-6.3c-13-3.9-26.8-4.8-40.2-2.6c-6.3,12.1-9.7,25.5-10,39.1l-0.4,21.9
		C257.1,290.5,264.8,301.6,276.3,306.4L276.3,306.4z"/>
	<path class="st5" d="M280.3,263.6c-1.5,0-2.9-0.7-3.8-1.9c-5.8-8-9.6-17.2-11.3-26.9l-2.8-16.9c-0.4-2.5,1.3-4.9,3.8-5.3
		c1-0.2,2,0,2.9,0.5l15.2,7.9c8.7,4.6,16.3,11.1,22.1,19c1.5,2.1,0.9,5-1.1,6.4c-2,1.4-4.8,1-6.3-1c-5-6.8-11.4-12.4-18.9-16.3
		l-7-3.6l1.3,7.8c1.4,8.3,4.7,16.2,9.6,23c1.5,2.1,1,5-1,6.5C282.2,263.3,281.3,263.6,280.3,263.6L280.3,263.6z"/>
	<path class="st5" d="M267,221.7c-2.6,0-4.6-2.1-4.6-4.6c0-2,1.3-3.8,3.2-4.4c35-11.7,65.1-34.7,85.7-65.4l6.5-8.9
		c1.4-2.1,2.4-0.6,4.5,0.8c2.1,1.4,5.1,0.8,3.6,2.9l-6.9,10.4c-21.7,32.4-53.5,56.7-90.4,69.1C268,221.6,267.5,221.7,267,221.7
		L267,221.7z"/>
	<path class="st7" d="M373.5,117.7L373.5,117.7c4.4,2.6,5.9,8.2,3.4,12.7l-4.6,8c-2.6,4.4-8.2,5.9-12.7,3.4l0,0
		c-4.4-2.6-5.9-8.2-3.4-12.7l4.6-8C363.4,116.7,369.1,115.1,373.5,117.7z"/>
</g>
<g id="flat">
	<g>
		<path class="st0" d="M495.3,427.8l-16.7-51.5c-7.2-22.1-20.9-41.6-39.4-55.7l-2.3-1.7c-22.8-17.5-51.4-25.8-80.1-23.3l-30.5,2.7
			l5.3,30.2c5,28.3,20.4,53.8,43.3,71.3c17.6,13.5,38.7,21.6,60.8,23.4L495.3,427.8z"/>
		<path class="st0" d="M386.4,358.8l-4.4,45.9c-2.4-1.6-4.8-3.3-7.2-5.1c-0.5-0.4-1-0.8-1.5-1.2l3.9-40.5c0.2-2.5,2.5-4.4,5.1-4.2
			S386.7,356.2,386.4,358.8L386.4,358.8z"/>
		<path class="st0" d="M495.3,427.8l-8.5-0.7l-41.6-31.9l-3.2,28.3l-6.3-0.5c-1-0.1-1.9-0.2-2.9-0.3l3.8-34.1l-22-16.9l-5,46.1
			c-2-0.7-4.1-1.4-6.1-2.1c-1-0.4-1.9-0.8-2.9-1.2l5.1-47.5c0-0.4,0.1-0.8,0.3-1.1c-0.3-0.4-0.6-0.9-0.8-1.3l-77.8-59.7l-1.2-6.7
			l6.8-0.6l78.1,59.9l47.9-17.4c2,2.5,3.9,5.1,5.7,7.8l-44.8,16.3l22.3,17.1l34.8-9.4c0.5,1.4,1,2.9,1.5,4.4l1.4,4.4l-28.5,7.7
			l41.3,31.7L495.3,427.8z"/>
	</g>
	<path class="st1" d="M386.4,358.8l-4.4,45.9c-2.4-1.6-4.8-3.3-7.2-5.1c-0.5-0.4-1-0.8-1.5-1.2l3.9-40.5c0.2-2.5,2.5-4.4,5.1-4.2
		S386.7,356.2,386.4,358.8L386.4,358.8z"/>
	<path class="st1" d="M495.3,427.8l-8.5-0.7l-41.6-31.9l-3.2,28.3l-6.3-0.5c-1-0.1-1.9-0.2-2.9-0.3l3.8-34.1l-22-16.9l-5,46.1
		c-2-0.7-4.1-1.4-6.1-2.1c-1-0.4-1.9-0.8-2.9-1.2l5.1-47.5c0-0.4,0.1-0.8,0.3-1.1c-0.3-0.4-0.6-0.9-0.8-1.3l-77.8-59.7l-1.2-6.7
		l6.8-0.6l78.1,59.9l47.9-17.4c2,2.5,3.9,5.1,5.7,7.8l-44.8,16.3l22.3,17.1l34.8-9.4c0.5,1.4,1,2.9,1.5,4.4l1.4,4.4l-28.5,7.7
		l41.3,31.7L495.3,427.8z"/>
	<g>
		<path class="st2" d="M226.7,427.8l16.7-51.5c7.2-22.1,20.9-41.6,39.4-55.7l2.3-1.7c22.8-17.5,51.4-25.8,80.1-23.3l30.5,2.7
			l-5.3,30.2c-5,28.3-20.4,53.8-43.3,71.3c-17.6,13.5-38.7,21.6-60.8,23.4L226.7,427.8z"/>
		<path class="st2" d="M348.7,398.4c-0.5,0.4-1,0.8-1.5,1.2c-2.3,1.8-4.7,3.5-7.2,5.1l-4.4-45.9c-0.2-2.5,1.6-4.8,4.2-5.1
			c2.5-0.2,4.8,1.6,5.1,4.2L348.7,398.4z"/>
		<path class="st2" d="M316.7,364.6c-0.2,0.5-0.5,0.9-0.8,1.3c0.1,0.4,0.2,0.7,0.3,1.1l5.1,47.5c-0.9,0.4-1.9,0.8-2.9,1.2
			c-2,0.8-4,1.5-6.1,2.1l-5-46.1l-22,16.9l3.8,34.1c-1,0.1-1.9,0.2-2.9,0.3l-6.3,0.5l-3.2-28.3l-41.6,31.9l-8.5,0.7l2.5-7.8
			l41.3-31.7l-28.5-7.7l1.4-4.4c0.5-1.5,1-2.9,1.5-4.4l34.8,9.4l22.3-17.1l-44.8-16.3c1.8-2.7,3.7-5.3,5.7-7.8l47.9,17.4l78.1-59.9
			l6.8,0.6l-1.2,6.7L316.7,364.6z"/>
	</g>
	<path class="st3" d="M348.7,398.4c-0.5,0.4-1,0.8-1.5,1.2c-2.3,1.8-4.7,3.5-7.2,5.1l-4.4-45.9c-0.2-2.5,1.6-4.8,4.2-5.1
		c2.5-0.2,4.8,1.6,5.1,4.2L348.7,398.4z"/>
	<path class="st3" d="M398.6,301.9l-4,3.1l-77.8,59.7c-0.2,0.5-0.5,0.9-0.8,1.3c0.1,0.4,0.2,0.7,0.3,1.1l5.1,47.5
		c-0.9,0.4-1.9,0.8-2.9,1.2c-2,0.8-4,1.5-6.1,2.1l-5-46.1l-22,16.9l3.8,34.1c-1,0.1-1.9,0.2-2.9,0.3l-6.3,0.5l-3.2-28.3l-41.6,31.9
		l-8.5,0.7l2.5-7.8l41.3-31.7l-28.5-7.7l1.4-4.4c0.5-1.5,1-2.9,1.5-4.4l34.8,9.4l22.3-17.1l-44.8-16.3c1.8-2.7,3.7-5.3,5.7-7.8
		l47.9,17.4l78.1-59.9l4-3.1c2-1.5,5-1.1,6.5,0.9C400.9,297.5,400.5,300.3,398.6,301.9L398.6,301.9z"/>
	<path class="st4" d="M448.8,293.9c2.7-3.1,4.7-6.7,5.9-10.7c7.9-4.2,11.7-13.5,8.9-22.1c-0.1-0.2-0.1-0.4-0.2-0.5
		c8.6-5.5,11.2-16.9,5.7-25.6c-3.6-5.7-10.1-9-16.8-8.6c-0.1-0.2-0.1-0.4-0.2-0.6c-2.8-8.5-11.3-13.8-20.1-12.6
		c-3.3-2.5-7-4.2-11-5.2c-12.2-2.8-24.8,1.7-32.6,11.4l-12.5,18c-7.8,11.2-12.9,24-14.9,37.5c9.6,9.7,21.2,17.1,34.1,21.5l20.7,7.2
		C427.8,307.1,440.6,303.3,448.8,293.9L448.8,293.9z"/>
	<path class="st5" d="M386.7,282.9c-3.1,0-6.3-0.2-9.4-0.7l-17-2.6c-2.5-0.4-4.3-2.7-3.9-5.3c0.1-1,0.6-1.9,1.3-2.6l12.2-12
		c7-6.9,15.6-12.1,24.9-15.1c2.4-0.8,5,0.5,5.8,3c0.8,2.4-0.5,5-3,5.8l0,0c-8,2.6-15.3,7-21.3,12.9l-5.6,5.6l7.8,1.2
		c8.3,1.2,16.8,0.5,24.8-2c2.4-0.8,5,0.5,5.8,3c0.8,2.4-0.5,5-3,5.8C400,281.8,393.4,282.9,386.7,282.9L386.7,282.9z"/>
	<path class="st6" d="M406.1,197.3c-2.1-3.5-4.9-6.5-8.3-8.9c-1.6-8.8-9.3-15.3-18.2-15.3c-0.2,0-0.4,0-0.6,0
		c-2.6-9.9-12.7-15.9-22.6-13.3c-6.5,1.7-11.6,6.8-13.3,13.3c-0.2,0-0.4,0-0.6,0c-9,0-16.7,6.4-18.2,15.3c-3.4,2.4-6.2,5.4-8.3,8.9
		c-6.4,10.7-6.1,24.1,0.8,34.5l13.2,17.4c8.2,10.9,18.8,19.7,31,25.8c12.2-6.1,22.8-14.9,31-25.8l13.2-17.4
		C412.2,221.5,412.5,208,406.1,197.3L406.1,197.3z"/>
	<path class="st5" d="M361,279.7c-1.8,0-3.4-1-4.1-2.6l-7.7-15.4c-4.4-8.8-6.7-18.5-6.7-28.4c0-2.6,2.1-4.6,4.6-4.6
		c2.6,0,4.6,2.1,4.6,4.6c0,8.4,2,16.7,5.7,24.2l3.5,7.1l3.5-7.1c3.8-7.5,5.7-15.8,5.7-24.2c0-2.6,2.1-4.6,4.6-4.6s4.6,2.1,4.6,4.6
		c0,9.9-2.3,19.6-6.7,28.4l-7.7,15.4C364.4,278.7,362.8,279.7,361,279.7L361,279.7z"/>
	<path class="st4" d="M301,208.2c-4,0.9-7.8,2.7-11,5.2c-8.9-1.2-17.4,4.1-20.2,12.6c-0.1,0.2-0.1,0.4-0.2,0.6
		c-10.2-0.6-19,7.1-19.6,17.3c-0.4,6.7,2.9,13.2,8.6,16.8c-0.1,0.2-0.1,0.4-0.2,0.5c-2.8,8.5,1,17.8,8.9,22.1
		c1.2,3.9,3.2,7.6,5.9,10.7c8.2,9.4,21.1,13.3,33.1,9.9l20.7-7.2c12.9-4.5,24.5-11.8,34.1-21.5c-2-13.5-7.1-26.3-14.9-37.5l-12.5-18
		C325.9,209.8,313.2,205.4,301,208.2L301,208.2z"/>
	<path class="st5" d="M335.3,282.9c-6.7,0-13.3-1-19.7-3.1c-2.4-0.8-3.8-3.4-3-5.8c0.8-2.4,3.4-3.8,5.8-3c8,2.6,16.5,3.3,24.8,2
		l7.8-1.2l-5.6-5.6c-6-5.9-13.3-10.3-21.3-12.9c-2.4-0.8-3.8-3.4-3-5.8s3.4-3.8,5.8-3c9.4,3.1,17.9,8.2,24.9,15.1l12.2,12
		c1.8,1.8,1.8,4.7,0,6.5c-0.7,0.7-1.6,1.2-2.6,1.3l-17,2.6C341.6,282.7,338.5,282.9,335.3,282.9L335.3,282.9z"/>
	<path class="st6" d="M278.9,311.4c-0.4,4.1,0.2,8.2,1.5,12.1c-3.9,8.1-1.5,17.8,5.8,23.1c0.2,0.1,0.3,0.2,0.5,0.3
		c-3.8,9.5,0.9,20.3,10.4,24c6.3,2.5,13.4,1.4,18.6-2.9c0.2,0.1,0.3,0.2,0.5,0.4c7.3,5.3,17.3,4.6,23.7-1.6
		c4.1,0.1,8.2-0.7,11.9-2.3c11.5-4.9,19.1-15.9,19.6-28.4l-0.4-21.9c-0.3-13.6-3.7-27-10-39.1c-13.4-2.2-27.2-1.3-40.2,2.6
		l-20.9,6.3C288.1,288.3,280,299,278.9,311.4L278.9,311.4z"/>
	<path class="st5" d="M347.7,321.6c-2.6,0-4.6-2.1-4.6-4.6c0-1,0.3-1.9,0.9-2.7c4.9-6.8,8.2-14.7,9.6-23l1.3-7.8l-7,3.6
		c-7.5,3.9-13.9,9.4-18.9,16.3c-1.5,2-4.4,2.4-6.5,0.9c-2-1.5-2.4-4.3-1-6.3c5.8-8,13.4-14.5,22.1-19l15.2-7.9
		c2.3-1.2,5.1-0.3,6.2,2c0.5,0.9,0.6,1.9,0.5,2.9l-2.8,16.9c-1.6,9.7-5.5,18.9-11.3,26.9C350.6,320.9,349.2,321.6,347.7,321.6
		L347.7,321.6z"/>
	<path class="st4" d="M370.2,364.4c3.8,1.6,7.8,2.4,11.9,2.3c6.5,6.2,16.5,6.9,23.7,1.6c0.2-0.1,0.3-0.2,0.5-0.4
		c7.9,6.5,19.6,5.4,26.1-2.5c4.3-5.2,5.4-12.3,2.9-18.6c0.2-0.1,0.3-0.2,0.5-0.3c7.3-5.3,9.7-15,5.8-23.1c1.3-3.9,1.8-8,1.5-12.1
		c-1.1-12.4-9.3-23.1-20.9-27.4l-20.9-6.3c-13-3.9-26.8-4.8-40.2-2.6c-6.3,12.1-9.7,25.5-10,39.1l-0.4,21.9
		C351.1,348.5,358.7,359.5,370.2,364.4L370.2,364.4z"/>
	<path class="st5" d="M374.3,321.6c-1.5,0-2.9-0.7-3.8-1.9c-5.8-8-9.6-17.2-11.3-26.9l-2.8-16.9c-0.4-2.5,1.3-4.9,3.8-5.3
		c1-0.2,2,0,2.9,0.5l15.2,7.9c8.7,4.6,16.3,11.1,22.1,19c1.5,2.1,0.9,5-1.1,6.4c-2,1.4-4.8,1-6.3-1c-5-6.8-11.4-12.4-18.9-16.3
		l-7-3.6l1.3,7.8c1.4,8.3,4.7,16.2,9.6,23c1.5,2.1,1,5-1,6.5C376.2,321.2,375.2,321.6,374.3,321.6L374.3,321.6z"/>
	<path class="st5" d="M361,279.7c-2.6,0-4.6-2.1-4.6-4.6c0-2,1.3-3.8,3.2-4.4c35-11.7,65.1-34.7,85.7-65.4l6.5-8.9
		c1.4-2.1,2.4-0.6,4.5,0.8c2.1,1.4,5.1,0.8,3.6,2.9l-6.9,10.4c-21.7,32.4-53.5,56.7-90.4,69.1C362,279.6,361.5,279.7,361,279.7
		L361,279.7z"/>
	<path class="st7" d="M467.5,175.7L467.5,175.7c4.4,2.6,5.9,8.2,3.4,12.7l-4.6,8c-2.6,4.4-8.2,5.9-12.7,3.4l0,0
		c-4.4-2.6-5.9-8.2-3.4-12.7l4.6-8C457.4,174.6,463.1,173.1,467.5,175.7z"/>
</g>
<g id="flat_1_">
	<g>
		<path class="st0" d="M276.7,427.8L260,376.3c-7.2-22.1-20.9-41.6-39.4-55.7l-2.3-1.7c-22.8-17.5-51.4-25.8-80.1-23.3l-30.5,2.7
			l5.3,30.2c5,28.3,20.4,53.8,43.3,71.3c17.6,13.5,38.7,21.6,60.8,23.4L276.7,427.8z"/>
		<path class="st0" d="M167.9,358.8l-4.4,45.9c-2.4-1.6-4.8-3.3-7.2-5.1c-0.5-0.4-1-0.8-1.5-1.2l3.9-40.5c0.2-2.5,2.5-4.4,5.1-4.2
			C166.3,354,168.1,356.2,167.9,358.8L167.9,358.8z"/>
		<path class="st0" d="M276.7,427.8l-8.5-0.7l-41.6-31.9l-3.2,28.3l-6.3-0.5c-1-0.1-1.9-0.2-2.9-0.3l3.8-34.1l-22-16.9l-5,46.1
			c-2-0.7-4.1-1.4-6.1-2.1c-1-0.4-1.9-0.8-2.9-1.2l5.1-47.5c0-0.4,0.1-0.8,0.3-1.1c-0.3-0.4-0.6-0.9-0.8-1.3l-77.8-59.7l-1.2-6.7
			l6.8-0.6l78.1,59.9l47.9-17.4c2,2.5,3.9,5.1,5.7,7.8l-44.8,16.3l22.3,17.1l34.8-9.4c0.5,1.4,1,2.9,1.5,4.4l1.4,4.4l-28.5,7.7
			l41.3,31.7L276.7,427.8z"/>
	</g>
	<path class="st1" d="M167.9,358.8l-4.4,45.9c-2.4-1.6-4.8-3.3-7.2-5.1c-0.5-0.4-1-0.8-1.5-1.2l3.9-40.5c0.2-2.5,2.5-4.4,5.1-4.2
		C166.3,354,168.1,356.2,167.9,358.8L167.9,358.8z"/>
	<path class="st1" d="M276.7,427.8l-8.5-0.7l-41.6-31.9l-3.2,28.3l-6.3-0.5c-1-0.1-1.9-0.2-2.9-0.3l3.8-34.1l-22-16.9l-5,46.1
		c-2-0.7-4.1-1.4-6.1-2.1c-1-0.4-1.9-0.8-2.9-1.2l5.1-47.5c0-0.4,0.1-0.8,0.3-1.1c-0.3-0.4-0.6-0.9-0.8-1.3l-77.8-59.7l-1.2-6.7
		l6.8-0.6l78.1,59.9l47.9-17.4c2,2.5,3.9,5.1,5.7,7.8l-44.8,16.3l22.3,17.1l34.8-9.4c0.5,1.4,1,2.9,1.5,4.4l1.4,4.4l-28.5,7.7
		l41.3,31.7L276.7,427.8z"/>
	<g>
		<path class="st2" d="M8.2,427.8l16.7-51.5c7.2-22.1,20.9-41.6,39.4-55.7l2.3-1.7c22.8-17.5,51.4-25.8,80.1-23.3l30.5,2.7
			l-5.3,30.2c-5,28.3-20.4,53.8-43.3,71.3C111,413.1,89.9,421.3,67.8,423L8.2,427.8z"/>
		<path class="st2" d="M130.1,398.4c-0.5,0.4-1,0.8-1.5,1.2c-2.3,1.8-4.7,3.5-7.2,5.1l-4.4-45.9c-0.2-2.5,1.6-4.8,4.2-5.1
			c2.5-0.2,4.8,1.6,5.1,4.2L130.1,398.4z"/>
		<path class="st2" d="M98.2,364.6c-0.2,0.5-0.5,0.9-0.8,1.3c0.1,0.4,0.2,0.7,0.3,1.1l5.1,47.5c-0.9,0.4-1.9,0.8-2.9,1.2
			c-2,0.8-4,1.5-6.1,2.1l-5-46.1l-22,16.9l3.8,34.1c-1,0.1-1.9,0.2-2.9,0.3l-6.3,0.5l-3.2-28.3l-41.6,31.9l-8.5,0.7l2.5-7.8
			L52,388.4l-28.5-7.7l1.4-4.4c0.5-1.5,1-2.9,1.5-4.4l34.8,9.4l22.3-17.1l-44.8-16.3c1.8-2.7,3.7-5.3,5.7-7.8l47.9,17.4l78.1-59.9
			l6.8,0.6l-1.2,6.7L98.2,364.6z"/>
	</g>
	<path class="st3" d="M130.1,398.4c-0.5,0.4-1,0.8-1.5,1.2c-2.3,1.8-4.7,3.5-7.2,5.1l-4.4-45.9c-0.2-2.5,1.6-4.8,4.2-5.1
		c2.5-0.2,4.8,1.6,5.1,4.2L130.1,398.4z"/>
	<path class="st3" d="M180,301.9l-4,3.1l-77.8,59.7c-0.2,0.5-0.5,0.9-0.8,1.3c0.1,0.4,0.2,0.7,0.3,1.1l5.1,47.5
		c-0.9,0.4-1.9,0.8-2.9,1.2c-2,0.8-4,1.5-6.1,2.1l-5-46.1l-22,16.9l3.8,34.1c-1,0.1-1.9,0.2-2.9,0.3l-6.3,0.5l-3.2-28.3l-41.6,31.9
		l-8.5,0.7l2.5-7.8L52,388.4l-28.5-7.7l1.4-4.4c0.5-1.5,1-2.9,1.5-4.4l34.8,9.4l22.3-17.1l-44.8-16.3c1.8-2.7,3.7-5.3,5.7-7.8
		l47.9,17.4l78.1-59.9l4-3.1c2-1.5,5-1.1,6.5,0.9C182.4,297.5,182,300.3,180,301.9L180,301.9z"/>
	<path class="st4" d="M230.3,293.9c2.7-3.1,4.7-6.7,5.9-10.7c7.9-4.2,11.7-13.5,8.9-22.1c-0.1-0.2-0.1-0.4-0.2-0.5
		c8.6-5.5,11.2-16.9,5.7-25.6c-3.6-5.7-10.1-9-16.8-8.6c-0.1-0.2-0.1-0.4-0.2-0.6c-2.8-8.5-11.3-13.8-20.1-12.6
		c-3.3-2.5-7-4.2-11-5.2c-12.2-2.8-24.8,1.7-32.6,11.4l-12.5,18c-7.8,11.2-12.9,24-14.9,37.5c9.6,9.7,21.2,17.1,34.1,21.5l20.7,7.2
		C209.2,307.1,222.1,303.3,230.3,293.9L230.3,293.9z"/>
	<path class="st5" d="M168.2,282.9c-3.1,0-6.3-0.2-9.4-0.7l-17-2.6c-2.5-0.4-4.3-2.7-3.9-5.3c0.1-1,0.6-1.9,1.3-2.6l12.2-12
		c7-6.9,15.6-12.1,24.9-15.1c2.4-0.8,5,0.5,5.8,3c0.8,2.4-0.5,5-3,5.8l0,0c-8,2.6-15.3,7-21.3,12.9l-5.6,5.6l7.8,1.2
		c8.3,1.2,16.8,0.5,24.8-2c2.4-0.8,5,0.5,5.8,3c0.8,2.4-0.5,5-3,5.8C181.5,281.8,174.8,282.9,168.2,282.9L168.2,282.9z"/>
	<path class="st6" d="M187.5,197.3c-2.1-3.5-4.9-6.5-8.3-8.9c-1.6-8.8-9.3-15.3-18.2-15.3c-0.2,0-0.4,0-0.6,0
		c-2.6-9.9-12.7-15.9-22.6-13.3c-6.5,1.7-11.6,6.8-13.3,13.3c-0.2,0-0.4,0-0.6,0c-9,0-16.7,6.4-18.2,15.3c-3.4,2.4-6.2,5.4-8.3,8.9
		c-6.4,10.7-6.1,24.1,0.8,34.5l13.2,17.4c8.2,10.9,18.8,19.7,31,25.8c12.2-6.1,22.8-14.9,31-25.8l13.2-17.4
		C193.6,221.5,193.9,208,187.5,197.3L187.5,197.3z"/>
	<path class="st5" d="M142.5,279.7c-1.8,0-3.4-1-4.1-2.6l-7.7-15.4c-4.4-8.8-6.7-18.5-6.7-28.4c0-2.6,2.1-4.6,4.6-4.6
		c2.6,0,4.6,2.1,4.6,4.6c0,8.4,2,16.7,5.7,24.2l3.5,7.1l3.5-7.1c3.8-7.5,5.7-15.8,5.7-24.2c0-2.6,2.1-4.6,4.6-4.6s4.6,2.1,4.6,4.6
		c0,9.9-2.3,19.6-6.7,28.4l-7.7,15.4C145.8,278.7,144.2,279.7,142.5,279.7L142.5,279.7z"/>
	<path class="st4" d="M82.5,208.2c-4,0.9-7.8,2.7-11,5.2c-8.9-1.2-17.4,4.1-20.2,12.6c-0.1,0.2-0.1,0.4-0.2,0.6
		c-10.2-0.6-19,7.1-19.6,17.3c-0.4,6.7,2.9,13.2,8.6,16.8c-0.1,0.2-0.1,0.4-0.2,0.5c-2.8,8.5,1,17.8,8.9,22.1
		c1.2,3.9,3.2,7.6,5.9,10.7c8.2,9.4,21.1,13.3,33.1,9.9l20.7-7.2c12.9-4.5,24.5-11.8,34.1-21.5c-2-13.5-7.1-26.3-14.9-37.5l-12.5-18
		C107.3,209.8,94.6,205.4,82.5,208.2L82.5,208.2z"/>
	<path class="st5" d="M116.8,282.9c-6.7,0-13.3-1-19.7-3.1c-2.4-0.8-3.8-3.4-3-5.8c0.8-2.4,3.4-3.8,5.8-3c8,2.6,16.5,3.3,24.8,2
		l7.8-1.2l-5.6-5.6c-6-5.9-13.3-10.3-21.3-12.9c-2.4-0.8-3.8-3.4-3-5.8s3.4-3.8,5.8-3c9.4,3.1,17.9,8.2,24.9,15.1l12.2,12
		c1.8,1.8,1.8,4.7,0,6.5c-0.7,0.7-1.6,1.2-2.6,1.3l-17,2.6C123.1,282.7,119.9,282.9,116.8,282.9L116.8,282.9z"/>
	<path class="st6" d="M60.3,311.4c-0.4,4.1,0.2,8.2,1.5,12.1c-3.9,8.1-1.5,17.8,5.8,23.1c0.2,0.1,0.3,0.2,0.5,0.3
		c-3.8,9.5,0.9,20.3,10.4,24c6.3,2.5,13.4,1.4,18.6-2.9c0.2,0.1,0.3,0.2,0.5,0.4c7.3,5.3,17.3,4.6,23.7-1.6
		c4.1,0.1,8.2-0.7,11.9-2.3c11.5-4.9,19.1-15.9,19.6-28.4l-0.4-21.9c-0.3-13.6-3.7-27-10-39.1c-13.4-2.2-27.2-1.3-40.2,2.6L81.3,284
		C69.6,288.3,61.4,299,60.3,311.4L60.3,311.4z"/>
	<path class="st5" d="M129.2,321.6c-2.6,0-4.6-2.1-4.6-4.6c0-1,0.3-1.9,0.9-2.7c4.9-6.8,8.2-14.7,9.6-23l1.3-7.8l-7,3.6
		c-7.5,3.9-13.9,9.4-18.9,16.3c-1.5,2-4.4,2.4-6.5,0.9c-2-1.5-2.4-4.3-1-6.3c5.8-8,13.4-14.5,22.1-19l15.2-7.9
		c2.3-1.2,5.1-0.3,6.2,2c0.5,0.9,0.6,1.9,0.5,2.9l-2.8,16.9c-1.6,9.7-5.5,18.9-11.3,26.9C132.1,320.9,130.7,321.6,129.2,321.6
		L129.2,321.6z"/>
	<path class="st4" d="M151.7,364.4c3.8,1.6,7.8,2.4,11.9,2.3c6.5,6.2,16.5,6.9,23.7,1.6c0.2-0.1,0.3-0.2,0.5-0.4
		c7.9,6.5,19.6,5.4,26.1-2.5c4.3-5.2,5.4-12.3,2.9-18.6c0.2-0.1,0.3-0.2,0.5-0.3c7.3-5.3,9.7-15,5.8-23.1c1.3-3.9,1.8-8,1.5-12.1
		c-1.1-12.4-9.3-23.1-20.9-27.4l-20.9-6.3c-13-3.9-26.8-4.8-40.2-2.6c-6.3,12.1-9.7,25.5-10,39.1l-0.4,21.9
		C132.6,348.5,140.2,359.5,151.7,364.4L151.7,364.4z"/>
	<path class="st5" d="M155.7,321.6c-1.5,0-2.9-0.7-3.8-1.9c-5.8-8-9.6-17.2-11.3-26.9l-2.8-16.9c-0.4-2.5,1.3-4.9,3.8-5.3
		c1-0.2,2,0,2.9,0.5l15.2,7.9c8.7,4.6,16.3,11.1,22.1,19c1.5,2.1,0.9,5-1.1,6.4c-2,1.4-4.8,1-6.3-1c-5-6.8-11.4-12.4-18.9-16.3
		l-7-3.6l1.3,7.8c1.4,8.3,4.7,16.2,9.6,23c1.5,2.1,1,5-1,6.5C157.6,321.2,156.7,321.6,155.7,321.6L155.7,321.6z"/>
	<path class="st5" d="M142.5,279.7c-2.6,0-4.6-2.1-4.6-4.6c0-2,1.3-3.8,3.2-4.4c35-11.7,65.1-34.7,85.7-65.4l6.5-8.9
		c1.4-2.1,2.4-0.6,4.5,0.8c2.1,1.4,5.1,0.8,3.6,2.9l-6.9,10.4c-21.7,32.4-53.5,56.7-90.4,69.1C143.4,279.6,143,279.7,142.5,279.7
		L142.5,279.7z"/>
	<path class="st7" d="M249,175.7L249,175.7c4.4,2.6,5.9,8.2,3.4,12.7l-4.6,8c-2.6,4.4-8.2,5.9-12.7,3.4l0,0
		c-4.4-2.6-5.9-8.2-3.4-12.7l4.6-8C238.9,174.6,244.5,173.1,249,175.7z"/>
</g>
</svg>
