<?xml version="1.0" encoding="utf-8"?>
<!-- Generator: Adobe Illustrator 25.0.0, SVG Export Plug-In . SVG Version: 6.00 Build 0)  -->
<svg version="1.1" id="Layer_1" xmlns="http://www.w3.org/2000/svg" xmlns:xlink="http://www.w3.org/1999/xlink" x="0px" y="0px"
	 viewBox="0 0 512 512" style="enable-background:new 0 0 512 512;" xml:space="preserve">
<path d="M62.7,32.3c59.7,37.8,55,91.7,49.5,154c-3.6,40.9-14.5,113.6,38.3,166.5c33.8,33.8,78.8,52.5,126.7,52.5
	c26.4,0,52-5.7,75.3-16.5V497c0,8.3,6.7,15,15,15s15-6.7,15-15V371.1c7.6-5.5,14.7-11.6,21.5-18.4c69.8-69.9,69.8-183.6,0-253.5
	c-44.8-44.8-100.3-74.8-165.1-89.2C187.9-1.2,130.8-3,68.8,4.7c-6.3,0.8-11.4,5.4-12.8,11.6C54.7,22.5,57.3,28.9,62.7,32.3z
	 M382.7,120.5c58.9,58.9,58,155-1.8,212.8c-7.6-85.1-43.4-164.8-102.5-227.3c-30.2-31.9-64.7-57.3-100.5-74.7
	C261.2,37.9,329.9,67.7,382.7,120.5L382.7,120.5z M142.1,188.9c2.8-32,5.7-65.2-1.1-96.2c-4.4-19.7-12.3-37-24.1-52.1
	c15.9,4,32.1,10,48.1,17.8c32.9,16.1,64.6,39.6,91.7,68.2c58.9,62.2,92.6,142.8,95.6,228.4c-22.5,13.1-48.2,20.1-75,20.1
	c-39.9,0-77.3-15.5-105.5-43.7C132.9,292.8,137.4,242.3,142.1,188.9L142.1,188.9z"/>
</svg>
