<svg width="390" height="125" viewBox="0 0 390 125" fill="none" xmlns="http://www.w3.org/2000/svg">
<g filter="url(#filter0_d)">
<path d="M158.072 60.68V53.552L153.92 60.68H158.072ZM162.44 60.68H164.624V64.28H162.44V68H158.072V64.28H149.336V61.256L156.248 49.904H162.44V60.68ZM174.394 53.888H166.834V49.904H181.69L171.322 68H166.138L174.394 53.888ZM186.363 58.928C186.363 59.728 186.435 60.456 186.579 61.112C186.723 61.768 186.923 62.336 187.179 62.816C187.451 63.296 187.771 63.672 188.139 63.944C188.507 64.2 188.923 64.328 189.387 64.328C189.835 64.328 190.243 64.2 190.611 63.944C190.995 63.672 191.315 63.296 191.571 62.816C191.827 62.336 192.027 61.768 192.171 61.112C192.315 60.456 192.387 59.728 192.387 58.928C192.387 58.144 192.315 57.424 192.171 56.768C192.027 56.096 191.827 55.528 191.571 55.064C191.315 54.584 190.995 54.216 190.611 53.96C190.243 53.688 189.835 53.552 189.387 53.552C188.923 53.552 188.507 53.688 188.139 53.96C187.771 54.216 187.451 54.584 187.179 55.064C186.923 55.528 186.723 56.096 186.579 56.768C186.435 57.424 186.363 58.144 186.363 58.928ZM181.707 58.928C181.707 57.488 181.891 56.184 182.259 55.016C182.643 53.832 183.171 52.824 183.843 51.992C184.531 51.16 185.339 50.52 186.267 50.072C187.211 49.608 188.251 49.376 189.387 49.376C190.507 49.376 191.539 49.608 192.483 50.072C193.427 50.52 194.235 51.16 194.907 51.992C195.579 52.824 196.099 53.832 196.467 55.016C196.851 56.184 197.043 57.488 197.043 58.928C197.043 60.368 196.851 61.68 196.467 62.864C196.099 64.032 195.579 65.04 194.907 65.888C194.235 66.72 193.427 67.368 192.483 67.832C191.539 68.28 190.507 68.504 189.387 68.504C188.251 68.504 187.211 68.28 186.267 67.832C185.339 67.368 184.531 66.72 183.843 65.888C183.171 65.04 182.643 64.032 182.259 62.864C181.891 61.68 181.707 60.368 181.707 58.928ZM200.371 63.416H204.451L200.035 71.36H197.251L200.371 63.416ZM210.831 58.928C210.831 59.728 210.903 60.456 211.047 61.112C211.191 61.768 211.391 62.336 211.647 62.816C211.919 63.296 212.239 63.672 212.607 63.944C212.975 64.2 213.391 64.328 213.855 64.328C214.303 64.328 214.711 64.2 215.079 63.944C215.463 63.672 215.783 63.296 216.039 62.816C216.295 62.336 216.495 61.768 216.639 61.112C216.783 60.456 216.855 59.728 216.855 58.928C216.855 58.144 216.783 57.424 216.639 56.768C216.495 56.096 216.295 55.528 216.039 55.064C215.783 54.584 215.463 54.216 215.079 53.96C214.711 53.688 214.303 53.552 213.855 53.552C213.391 53.552 212.975 53.688 212.607 53.96C212.239 54.216 211.919 54.584 211.647 55.064C211.391 55.528 211.191 56.096 211.047 56.768C210.903 57.424 210.831 58.144 210.831 58.928ZM206.175 58.928C206.175 57.488 206.359 56.184 206.727 55.016C207.111 53.832 207.639 52.824 208.311 51.992C208.999 51.16 209.807 50.52 210.735 50.072C211.679 49.608 212.719 49.376 213.855 49.376C214.975 49.376 216.007 49.608 216.951 50.072C217.895 50.52 218.703 51.16 219.375 51.992C220.047 52.824 220.567 53.832 220.935 55.016C221.319 56.184 221.511 57.488 221.511 58.928C221.511 60.368 221.319 61.68 220.935 62.864C220.567 64.032 220.047 65.04 219.375 65.888C218.703 66.72 217.895 67.368 216.951 67.832C216.007 68.28 214.975 68.504 213.855 68.504C212.719 68.504 211.679 68.28 210.735 67.832C209.807 67.368 208.999 66.72 208.311 65.888C207.639 65.04 207.111 64.032 206.727 62.864C206.359 61.68 206.175 60.368 206.175 58.928ZM227.144 58.928C227.144 59.728 227.216 60.456 227.36 61.112C227.504 61.768 227.704 62.336 227.96 62.816C228.232 63.296 228.552 63.672 228.92 63.944C229.288 64.2 229.704 64.328 230.168 64.328C230.616 64.328 231.024 64.2 231.392 63.944C231.776 63.672 232.096 63.296 232.352 62.816C232.608 62.336 232.808 61.768 232.952 61.112C233.096 60.456 233.168 59.728 233.168 58.928C233.168 58.144 233.096 57.424 232.952 56.768C232.808 56.096 232.608 55.528 232.352 55.064C232.096 54.584 231.776 54.216 231.392 53.96C231.024 53.688 230.616 53.552 230.168 53.552C229.704 53.552 229.288 53.688 228.92 53.96C228.552 54.216 228.232 54.584 227.96 55.064C227.704 55.528 227.504 56.096 227.36 56.768C227.216 57.424 227.144 58.144 227.144 58.928ZM222.488 58.928C222.488 57.488 222.672 56.184 223.04 55.016C223.424 53.832 223.952 52.824 224.624 51.992C225.312 51.16 226.12 50.52 227.048 50.072C227.992 49.608 229.032 49.376 230.168 49.376C231.288 49.376 232.32 49.608 233.264 50.072C234.208 50.52 235.016 51.16 235.688 51.992C236.36 52.824 236.88 53.832 237.248 55.016C237.632 56.184 237.824 57.488 237.824 58.928C237.824 60.368 237.632 61.68 237.248 62.864C236.88 64.032 236.36 65.04 235.688 65.888C235.016 66.72 234.208 67.368 233.264 67.832C232.32 68.28 231.288 68.504 230.168 68.504C229.032 68.504 227.992 68.28 227.048 67.832C226.12 67.368 225.312 66.72 224.624 65.888C223.952 65.04 223.424 64.032 223.04 62.864C222.672 61.68 222.488 60.368 222.488 58.928ZM243.456 58.928C243.456 59.728 243.528 60.456 243.672 61.112C243.816 61.768 244.016 62.336 244.272 62.816C244.544 63.296 244.864 63.672 245.232 63.944C245.6 64.2 246.016 64.328 246.48 64.328C246.928 64.328 247.336 64.2 247.704 63.944C248.088 63.672 248.408 63.296 248.664 62.816C248.92 62.336 249.12 61.768 249.264 61.112C249.408 60.456 249.48 59.728 249.48 58.928C249.48 58.144 249.408 57.424 249.264 56.768C249.12 56.096 248.92 55.528 248.664 55.064C248.408 54.584 248.088 54.216 247.704 53.96C247.336 53.688 246.928 53.552 246.48 53.552C246.016 53.552 245.6 53.688 245.232 53.96C244.864 54.216 244.544 54.584 244.272 55.064C244.016 55.528 243.816 56.096 243.672 56.768C243.528 57.424 243.456 58.144 243.456 58.928ZM238.8 58.928C238.8 57.488 238.984 56.184 239.352 55.016C239.736 53.832 240.264 52.824 240.936 51.992C241.624 51.16 242.432 50.52 243.36 50.072C244.304 49.608 245.344 49.376 246.48 49.376C247.6 49.376 248.632 49.608 249.576 50.072C250.52 50.52 251.328 51.16 252 51.992C252.672 52.824 253.192 53.832 253.56 55.016C253.944 56.184 254.136 57.488 254.136 58.928C254.136 60.368 253.944 61.68 253.56 62.864C253.192 64.032 252.672 65.04 252 65.888C251.328 66.72 250.52 67.368 249.576 67.832C248.632 68.28 247.6 68.504 246.48 68.504C245.344 68.504 244.304 68.28 243.36 67.832C242.432 67.368 241.624 66.72 240.936 65.888C240.264 65.04 239.736 64.032 239.352 62.864C238.984 61.68 238.8 60.368 238.8 58.928ZM153.95 83.666H159.044V78.428H162.572V92H159.044V86.402H153.95V92H150.422V78.428H153.95V83.666ZM173.138 81.416H168.944V83.684H172.904V86.672H168.944V89.012H173.138V92H165.416V78.428H173.138V81.416ZM183.062 86.96L181.478 82.442L179.894 86.96H183.062ZM183.998 89.642H178.958L178.148 92H174.386L179.552 78.428H183.404L188.57 92H184.808L183.998 89.642ZM193.641 89.012H194.451C195.063 89.012 195.609 88.916 196.089 88.724C196.569 88.532 196.971 88.268 197.295 87.932C197.631 87.596 197.883 87.2 198.051 86.744C198.231 86.276 198.321 85.766 198.321 85.214C198.321 84.674 198.231 84.17 198.051 83.702C197.871 83.234 197.613 82.832 197.277 82.496C196.953 82.16 196.551 81.896 196.071 81.704C195.591 81.512 195.051 81.416 194.451 81.416H193.641V89.012ZM190.113 78.428H195.333C196.257 78.428 197.121 78.614 197.925 78.986C198.741 79.358 199.449 79.856 200.049 80.48C200.661 81.092 201.141 81.812 201.489 82.64C201.837 83.456 202.011 84.314 202.011 85.214C202.011 86.102 201.837 86.96 201.489 87.788C201.153 88.604 200.679 89.324 200.067 89.948C199.467 90.572 198.759 91.07 197.943 91.442C197.139 91.814 196.269 92 195.333 92H190.113V78.428ZM211.716 81.902C211.332 81.59 210.948 81.362 210.564 81.218C210.18 81.062 209.808 80.984 209.448 80.984C208.992 80.984 208.62 81.092 208.332 81.308C208.044 81.524 207.9 81.806 207.9 82.154C207.9 82.394 207.972 82.592 208.116 82.748C208.26 82.904 208.446 83.042 208.674 83.162C208.914 83.27 209.178 83.366 209.466 83.45C209.766 83.534 210.06 83.624 210.348 83.72C211.5 84.104 212.34 84.62 212.868 85.268C213.408 85.904 213.678 86.738 213.678 87.77C213.678 88.466 213.558 89.096 213.318 89.66C213.09 90.224 212.748 90.71 212.292 91.118C211.848 91.514 211.296 91.82 210.636 92.036C209.988 92.264 209.25 92.378 208.422 92.378C206.706 92.378 205.116 91.868 203.652 90.848L205.164 88.004C205.692 88.472 206.214 88.82 206.73 89.048C207.246 89.276 207.756 89.39 208.26 89.39C208.836 89.39 209.262 89.258 209.538 88.994C209.826 88.73 209.97 88.43 209.97 88.094C209.97 87.89 209.934 87.716 209.862 87.572C209.79 87.416 209.67 87.278 209.502 87.158C209.334 87.026 209.112 86.906 208.836 86.798C208.572 86.69 208.248 86.57 207.864 86.438C207.408 86.294 206.958 86.138 206.514 85.97C206.082 85.79 205.692 85.556 205.344 85.268C205.008 84.98 204.732 84.62 204.516 84.188C204.312 83.744 204.21 83.186 204.21 82.514C204.21 81.842 204.318 81.236 204.534 80.696C204.762 80.144 205.074 79.676 205.47 79.292C205.878 78.896 206.37 78.59 206.946 78.374C207.534 78.158 208.188 78.05 208.908 78.05C209.58 78.05 210.282 78.146 211.014 78.338C211.746 78.518 212.448 78.788 213.12 79.148L211.716 81.902ZM225.096 85.214C225.096 85.754 225.198 86.252 225.402 86.708C225.606 87.164 225.882 87.56 226.23 87.896C226.578 88.232 226.98 88.496 227.436 88.688C227.904 88.868 228.396 88.958 228.912 88.958C229.428 88.958 229.914 88.868 230.37 88.688C230.838 88.496 231.246 88.232 231.594 87.896C231.954 87.56 232.236 87.164 232.44 86.708C232.644 86.252 232.746 85.754 232.746 85.214C232.746 84.674 232.644 84.176 232.44 83.72C232.236 83.264 231.954 82.868 231.594 82.532C231.246 82.196 230.838 81.938 230.37 81.758C229.914 81.566 229.428 81.47 228.912 81.47C228.396 81.47 227.904 81.566 227.436 81.758C226.98 81.938 226.578 82.196 226.23 82.532C225.882 82.868 225.606 83.264 225.402 83.72C225.198 84.176 225.096 84.674 225.096 85.214ZM221.406 85.214C221.406 84.206 221.592 83.27 221.964 82.406C222.336 81.53 222.852 80.768 223.512 80.12C224.172 79.472 224.958 78.968 225.87 78.608C226.794 78.236 227.808 78.05 228.912 78.05C230.004 78.05 231.012 78.236 231.936 78.608C232.86 78.968 233.652 79.472 234.312 80.12C234.984 80.768 235.506 81.53 235.878 82.406C236.25 83.27 236.436 84.206 236.436 85.214C236.436 86.222 236.25 87.164 235.878 88.04C235.506 88.904 234.984 89.66 234.312 90.308C233.652 90.956 232.86 91.466 231.936 91.838C231.012 92.198 230.004 92.378 228.912 92.378C227.808 92.378 226.794 92.198 225.87 91.838C224.958 91.466 224.172 90.956 223.512 90.308C222.852 89.66 222.336 88.904 221.964 88.04C221.592 87.164 221.406 86.222 221.406 85.214ZM246.44 81.416H242.192V83.684H246.062V86.672H242.192V92H238.664V78.428H246.44V81.416ZM258.188 78.428V89.012H262.418V92H254.66V78.428H258.188ZM271.962 81.416H267.768V83.684H271.728V86.672H267.768V89.012H271.962V92H264.24V78.428H271.962V81.416ZM279.654 81.416V92H276.126V81.416H273.228V78.428H282.552V81.416H279.654ZM289.269 81.416V92H285.741V81.416H282.843V78.428H292.167V81.416H289.269ZM297.264 78.428V85.808C297.264 86.204 297.276 86.612 297.3 87.032C297.336 87.44 297.426 87.812 297.57 88.148C297.726 88.484 297.966 88.76 298.29 88.976C298.614 89.18 299.07 89.282 299.658 89.282C300.246 89.282 300.696 89.18 301.008 88.976C301.332 88.76 301.572 88.484 301.728 88.148C301.884 87.812 301.974 87.44 301.998 87.032C302.034 86.612 302.052 86.204 302.052 85.808V78.428H305.562V86.294C305.562 88.406 305.076 89.948 304.104 90.92C303.144 91.892 301.662 92.378 299.658 92.378C297.654 92.378 296.166 91.892 295.194 90.92C294.222 89.948 293.736 88.406 293.736 86.294V78.428H297.264ZM318.188 82.964C317.372 81.968 316.364 81.47 315.164 81.47C314.636 81.47 314.144 81.566 313.688 81.758C313.244 81.95 312.86 82.214 312.536 82.55C312.212 82.874 311.954 83.264 311.762 83.72C311.582 84.176 311.492 84.668 311.492 85.196C311.492 85.736 311.582 86.234 311.762 86.69C311.954 87.146 312.212 87.542 312.536 87.878C312.872 88.214 313.262 88.478 313.706 88.67C314.15 88.862 314.63 88.958 315.146 88.958C316.274 88.958 317.288 88.478 318.188 87.518V91.694L317.828 91.82C317.288 92.012 316.784 92.15 316.316 92.234C315.848 92.33 315.386 92.378 314.93 92.378C313.994 92.378 313.094 92.204 312.23 91.856C311.378 91.496 310.622 90.998 309.962 90.362C309.314 89.714 308.792 88.952 308.396 88.076C308 87.188 307.802 86.222 307.802 85.178C307.802 84.134 307.994 83.18 308.378 82.316C308.774 81.44 309.296 80.69 309.944 80.066C310.604 79.43 311.366 78.938 312.23 78.59C313.094 78.23 314 78.05 314.948 78.05C315.488 78.05 316.016 78.11 316.532 78.23C317.06 78.338 317.612 78.512 318.188 78.752V82.964ZM328.142 81.416H323.948V83.684H327.908V86.672H323.948V89.012H328.142V92H320.42V78.428H328.142V81.416Z" fill="white"/>
</g>
<path d="M99.9091 84.7767C98.6279 84.7767 97.5338 83.8031 97.4113 82.5045C97.2811 81.1262 98.2955 79.9033 99.6767 79.7737C99.7883 79.7632 110.903 78.7127 115.296 77.7442C116.65 77.4463 117.991 78.2993 118.29 79.6514C118.589 81.0034 117.734 82.3414 116.379 82.6403C111.684 83.6756 100.616 84.7217 100.147 84.7659C100.067 84.773 99.9878 84.7767 99.9091 84.7767Z" fill="#367A17"/>
<path d="M123.162 63.4179C120.684 60.2358 115.697 59.1008 115.697 59.1008C115.697 59.1008 119.819 55.0938 120.324 52.8819C120.829 50.6697 112.397 30.3319 107.213 27.7448C104.296 26.2888 100.45 28.3002 96.749 31.4301C95.6141 30.1935 94.2542 29.1215 92.6792 28.2878L88.2542 25.945C89.0611 22.4301 89 19.3606 87.3238 17.5351C81.0727 10.7285 60.3307 11.5794 50.3859 12.4302C45.4845 12.8496 44.3111 20.1582 44.3806 27.4631L44.2544 27.4728C39.3057 27.8527 35.2721 31.5866 34.5202 36.4835L21.2788 101.445L12.6781 110.817C10.5724 113.111 10.6438 116.652 12.8402 118.86L17.1772 123.22C19.5546 125.593 23.4092 125.593 25.7865 123.22L38.242 110.788L102.558 92.2901C107.162 90.6788 110.225 86.3851 110.316 81.5902C115.555 81.0468 121.116 80.0895 122.647 78.4271C125.748 75.0605 125.641 66.6003 123.162 63.4179Z" fill="#94D56C"/>
<path d="M123.162 63.418C121.432 61.1975 118.484 59.9749 116.858 59.438L108.514 62.2737C107.406 59.2823 105.112 56.9292 102.273 55.6873L103.127 67.533C103.441 71.8875 100.795 75.9121 96.6674 77.3567L49.1985 94.3186C46.1442 95.4099 43.2049 96.7988 40.4231 98.4651L32.5124 103.204C30.5258 105.187 27.3047 105.187 25.3181 103.204L21.6939 99.5601C21.6849 99.5508 21.6773 99.5408 21.668 99.5315L21.2781 101.445L12.6774 110.817C10.5717 113.112 10.6434 116.652 12.8398 118.86L17.1767 123.22C19.5542 125.593 23.4086 125.593 25.786 123.22L38.2416 110.788L57.9709 105.114C81.1639 104.753 113.253 103.897 114.991 101.915C116.723 99.9392 118.131 88.7476 118.188 80.354C120.275 79.8506 121.918 79.219 122.647 78.4275C125.748 75.0606 125.641 66.6004 123.162 63.418Z" fill="#579B38"/>
<path d="M62.9511 106.188C61.8602 106.188 60.8559 105.473 60.5386 104.375C60.1548 103.044 60.9236 101.655 62.2569 101.272L101.79 89.9018C105.614 88.5319 108.075 84.7639 107.783 80.7143L106.696 65.6446C106.506 63.0039 105.174 60.5853 103.043 59.0091C100.912 57.4327 98.2063 56.8651 95.6195 57.452C94.6316 57.6763 93.6033 57.285 93.0155 56.4595C92.4278 55.6341 92.3955 54.5372 92.9329 53.6785L96.2916 48.3145C98.1694 45.3158 98.6977 41.7833 97.779 38.368C96.8603 34.9528 94.6311 32.1593 91.5015 30.5024L83.6832 26.363C77.8614 23.2807 70.7649 25.1169 67.1765 30.6344L63.6491 36.0582C63.1132 36.8827 62.1437 37.3182 61.1702 37.1727C60.1964 37.0272 59.3978 36.327 59.1271 35.3822C58.066 31.6757 54.502 29.2011 50.6504 29.4958L44.4464 29.9723C43.0584 30.0773 41.8554 29.0453 41.7493 27.665C41.6429 26.2846 42.678 25.0793 44.061 24.9731L50.2654 24.4965C54.8298 24.1462 59.1466 26.207 61.798 29.6952L62.9626 27.9045C65.3711 24.2011 69.0554 21.5515 73.3371 20.4433C77.6197 19.3354 82.1293 19.8647 86.0365 21.9335L93.8547 26.0729C98.1665 28.3556 101.365 32.3632 102.63 37.068C103.896 41.7731 103.138 46.8409 100.551 50.972L99.682 52.3602C101.956 52.6932 104.141 53.5809 106.033 54.9805C109.343 57.4283 111.41 61.1839 111.706 65.2845L112.793 80.3542C113.249 86.6772 109.382 92.5583 103.389 94.6559C103.344 94.6716 103.299 94.686 103.253 94.6992L63.6472 106.09C63.4153 106.156 63.1815 106.188 62.9511 106.188Z" fill="#367A17"/>
<path d="M49.9021 99.4028C49.3026 99.4028 48.7359 99.0434 48.5011 98.4533C48.1936 97.6814 48.572 96.8066 49.3454 96.5002C51.6632 95.5815 59.2315 92.1686 65.9089 89.1574C70.9537 86.8825 75.7189 84.7338 77.6884 83.8993C78.4557 83.5744 79.3392 83.9315 79.6648 84.6962C79.9898 85.4608 79.6325 86.3441 78.8664 86.6686C76.9287 87.4897 72.1787 89.6315 67.15 91.8991C60.115 95.0715 52.8404 98.3518 50.4583 99.2961C50.2754 99.3686 50.087 99.4028 49.9021 99.4028Z" fill="#367A17"/>
<path d="M86.5094 82.7103C85.9808 82.7103 85.4682 82.4325 85.1923 81.9393C84.7862 81.214 85.0465 80.2977 85.7732 79.8924C87.1326 79.1346 88.5271 78.546 89.8753 77.9769C90.7757 77.5968 91.7071 77.204 92.6336 76.7589C93.3838 76.3991 94.2841 76.7135 94.6449 77.4623C95.0059 78.2111 94.6906 79.11 93.9405 79.4701C92.9481 79.9466 91.9827 80.3541 91.0494 80.7481C89.717 81.3104 88.4584 81.8416 87.243 82.5191C87.0103 82.6485 86.7579 82.7103 86.5094 82.7103Z" fill="#367A17"/>
<path d="M66.1648 77.507C65.7001 77.507 65.2412 77.2932 64.9463 76.8893C64.4556 76.2182 64.6028 75.2772 65.2752 74.7875L85.3878 60.136C86.0607 59.646 87.0031 59.7932 87.4935 60.4644C87.9842 61.1355 87.837 62.0765 87.1646 62.5662L67.052 77.2177C66.7839 77.413 66.473 77.507 66.1648 77.507Z" fill="#367A17"/>
<path d="M56.1386 85.3545C55.6868 85.3545 55.2399 85.1526 54.943 84.7673C54.4354 84.1088 54.559 83.1642 55.2186 82.6579L59.8139 79.1296C60.4733 78.6233 61.4196 78.7461 61.9272 79.4048C62.4347 80.0633 62.3112 81.0079 61.6515 81.5142L57.0563 85.0425C56.7826 85.2527 56.4592 85.3545 56.1386 85.3545Z" fill="#367A17"/>
<path d="M36.6759 75.6718C36.5267 75.6718 36.3755 75.6584 36.2236 75.6311C34.8588 75.3833 33.9535 74.0781 34.2018 72.7158C35.6373 64.8377 38.514 55.1552 41.7097 47.4468C42.24 46.1672 43.71 45.5593 44.9909 46.0889C46.2728 46.6184 46.8819 48.0847 46.3516 49.364C43.2824 56.7672 40.5207 66.0591 39.1446 73.6128C38.9237 74.8235 37.8663 75.6718 36.6759 75.6718Z" fill="white"/>
<path d="M48.7514 42.9863C47.9398 42.9863 47.1434 42.5945 46.6594 41.8696C45.8899 40.7175 46.2017 39.1611 47.356 38.393C47.9616 37.9899 49.5698 36.9195 51.0782 36.058C52.2826 35.3702 53.8172 35.7867 54.5058 36.9884C55.195 38.1901 54.7775 39.7219 53.5736 40.4096C52.2139 41.1865 50.7089 42.188 50.1424 42.5649C49.7144 42.8498 49.2301 42.9863 48.7514 42.9863Z" fill="white"/>
<path d="M7.31512 22.0585L8.84556 26.354C8.91111 26.5378 9.04074 26.6835 9.20462 26.7573L13.0281 28.4768C13.5682 28.7197 13.5682 29.5788 13.0281 29.8217L9.20462 31.5412C9.04099 31.6147 8.91111 31.7605 8.84556 31.9446L7.31512 36.24C7.0989 36.8469 6.33429 36.8469 6.11807 36.24L4.58764 31.9446C4.52208 31.7607 4.39245 31.615 4.22857 31.5412L0.40505 29.8217C-0.135017 29.5788 -0.135017 28.7197 0.40505 28.4768L4.22857 26.7573C4.3922 26.6835 4.52208 26.5378 4.58764 26.354L6.11807 22.0585C6.33429 21.4516 7.0989 21.4516 7.31512 22.0585Z" fill="#FEF2A8"/>
<path d="M34.1869 7.1184C36.1562 7.1184 37.7526 5.52489 37.7526 3.5592C37.7526 1.59351 36.1562 0 34.1869 0C32.2176 0 30.6212 1.59351 30.6212 3.5592C30.6212 5.52489 32.2176 7.1184 34.1869 7.1184Z" fill="#94D56C"/>
<path d="M17.4133 50.9354C18.4865 50.9354 19.3566 50.0669 19.3566 48.9956C19.3566 47.9244 18.4865 47.0559 17.4133 47.0559C16.34 47.0559 15.47 47.9244 15.47 48.9956C15.47 50.0669 16.34 50.9354 17.4133 50.9354Z" fill="#94D56C"/>
<defs>
<filter id="filter0_d" x="145.336" y="49.376" width="186.806" height="51.002" filterUnits="userSpaceOnUse" color-interpolation-filters="sRGB">
<feFlood flood-opacity="0" result="BackgroundImageFix"/>
<feColorMatrix in="SourceAlpha" type="matrix" values="0 0 0 0 0 0 0 0 0 0 0 0 0 0 0 0 0 0 127 0"/>
<feOffset dy="4"/>
<feGaussianBlur stdDeviation="2"/>
<feColorMatrix type="matrix" values="0 0 0 0 0.120716 0 0 0 0 0.279167 0 0 0 0 0.117483 0 0 0 0.75 0"/>
<feBlend mode="normal" in2="BackgroundImageFix" result="effect1_dropShadow"/>
<feBlend mode="normal" in="SourceGraphic" in2="effect1_dropShadow" result="shape"/>
</filter>
</defs>
</svg>
