<?xml version="1.0" encoding="utf-8"?>
<!-- Generator: Adobe Illustrator 25.0.0, SVG Export Plug-In . SVG Version: 6.00 Build 0)  -->
<svg version="1.1" id="Layer_1" xmlns="http://www.w3.org/2000/svg" xmlns:xlink="http://www.w3.org/1999/xlink" x="0px" y="0px"
	 viewBox="0 0 682 682" style="enable-background:new 0 0 682 682;" xml:space="preserve">
<style type="text/css">
	.st0{fill:#FFFFFF;}
</style>
<path class="st0" d="M650.9,95.5c-9.2-29-21.8-49.8-22.3-50.7c-2.1-3.4-6.3-5.1-10.1-4.3c-1,0.2-24.6,5.7-51.9,19.4
	c-36.8,18.4-62.5,42.9-74.4,71c-9.9,23.3-11.3,51.9-4.3,83.4C473,197.6,456.3,183,438,170.8c-5.6-11-20.3-38.2-43.4-66.5
	c-7.6-9.3-22.2,2.4-14.5,11.8c15.5,19.1,27.2,37.9,34.6,50.8l-85.3-16.6L248.2,39.7c7.9,0.1,15.8,0.9,23.6,2.4
	c24.9,4.9,49.5,17.6,73.2,37.7c9.3,7.9,21.3-6.5,12.1-14.3c-26.1-22.3-53.6-36.3-81.7-41.8c-42.9-8.4-93,2.6-144.8,31.9
	c-38.6,21.8-64.4,45.8-65.5,46.8c-3.5,3.2-4,9.1-1.1,12.9c3.8,7.8,18.1,35.8,42,65.9c14.1,17.8,28.9,33,44.3,45.5
	c-4.4,3.7-8.6,7.5-12.7,11.5c-21.9,21.5-38.8,46.8-49.8,74.5c-9.8,24.5-15,50.8-15.3,77.9c-0.5,44.4,12.4,87.1,37.2,123.7
	c24.2,35.7,58.1,63.2,98,79.3c11.2,4.5,18.2-12.8,7-17.4c-14.4-5.9-28-13.4-40.5-22.3c1.6-8.9,5.3-40.8-15.9-73.9
	c-3-4.6,5.9-22.8,11.2-33.6c5.5-11.2,11.1-22.7,13.8-33.6c2.8-11.6-0.4-21.3-9.1-28.1c-6.4-5-14.8-7.6-22.3-9.9
	c-4.8-1.5-10.3-3.2-12.2-4.8c-4-3.4-10.6-15.8-15.9-25.8c-5.9-11.1-11.4-21.6-17.1-28.1c12.8-30.4,33.4-57.3,59.1-77.9
	c23.5,16,50.4,27.1,78.9,29.3c-33.1,25.6-43.8,58.4-28.5,89.9c17.9,36.7,54.7,30.9,87.1,25.7c5.6-0.9,11.4-1.8,17-2.5
	c2.1-0.3,2.7,0.3,3.1,0.7c7.1,6.3,6.9,36.5,6.7,58.6c-0.2,30.5-0.4,59.3,11,74.1c5.8,7.5,14,11.4,23.5,11.4c5.7,0,12-1.4,18.5-4.2
	c28.2-12.1,57.6-48.5,53.1-77.3c-3.9-25.2-6.5-41.8-0.4-55.2c5.6-12.4,19.3-23.9,46.2-38.6c3.2,14.5,4.8,29.6,4.7,45.1
	c-0.6,52.8-21.7,102.2-59.4,139.2c-42.2,41.3-101.5,61.7-160.2,55.2c-12-1.3-14,17.3-2,18.6c64.2,7.1,129.1-15.3,175.3-60.4
	c41.3-40.4,64.4-94.6,65.1-152.4c0.8-76.7-38.5-144.6-98.4-183.7c12.4-8.8,21.6-16.5,26.7-20.9c21.8,15.7,41.2,35,57.3,57.4
	c38.7,54,54,119.8,43.2,185.3C512,568.7,383.8,660.6,248.6,638.2C183,627.4,125.6,591.7,87,537.7c-38.7-54-54-119.8-43.2-185.3
	c1.9-11.8-16.5-14.9-18.5-3.1c-11.6,70.5,4.9,141.2,46.5,199.3c41.6,58,103.3,96.4,173.8,108.1c14.7,2.4,29.5,3.6,44.1,3.6
	c55.4,0,109.2-17.2,155.1-50.1c58.1-41.6,96.4-103.3,108.1-173.8c8.5-51.6,1.9-103.4-18.6-150.3c9.5-2.8,25.6-8.2,43.2-17
	c36.8-18.4,62.5-42.9,74.4-71C663.7,170.2,663.4,134.7,650.9,95.5z M107.3,353c7,13.2,13.6,25.7,20.4,31.4
	c4.9,4.1,11.6,6.1,18.7,8.3c18.3,5.6,20.4,8.4,18.7,15.6c-2.2,8.9-7.4,19.5-12.4,29.8c-9.7,19.8-18.8,38.5-10.2,52
	c12.3,19.1,14.4,38,14.2,49.7C101,489.6,78.2,410.2,99,337.9C101.8,342.7,104.7,348.1,107.3,353z M560.4,169l-26.6-64.5
	c13-12.1,28-21.2,40.8-27.6c10.9-5.5,21.3-9.6,29.6-12.5L560.4,169z M621.5,71.6c3.7,8,8,18.3,11.7,29.9c4,12.8,7.7,28.6,8.5,45.2
	l-62.4,25.7L621.5,71.6z M509.5,138.1c2.8-6.5,6.3-12.6,10.5-18.2l30.3,73.4l-27.2,65c-3.8-8.1-8.3-18.8-12.1-30.8
	C503.2,203.3,496.8,168.1,509.5,138.1z M569.5,252.3c-10.5,5.3-20.5,9.3-28.7,12.1L569,197l71.8-29.6c-1,8-3,16-6.3,23.7
	C621.9,221,592.2,240.9,569.5,252.3z M231.7,247c-3.3-0.6-6.6-1.4-9.8-2.3l103.7-76l85.4,16.6C379.9,209.8,304.2,261.2,231.7,247z
	 M137,188.4c-22.2-23.9-38.4-49.4-47.8-65.8l108.6,21.2L137,188.4z M156.2,63.4l45.4,62L92.3,104.1
	C106.1,93.2,128.8,76.9,156.2,63.4z M228.7,130.7l-55.1-75.2c16.5-6.8,34.2-12.1,52.4-14.5l76.2,104L228.7,130.7z M222.9,148.6
	l77.7,15.1l-99.7,73.1c-18.8-8.7-35.7-21.2-50.5-35L222.9,148.6z M477.1,331.5c-33.8,18-50.3,32.1-58.1,49.4
	c-8.4,18.5-5.3,38.4-1.1,65.9c2.5,16.2-16.7,46.4-42,57.2c-9.3,4-16,3.5-19.8-1.4c-7.4-9.7-7.2-39-7.1-62.6
	c0.2-32.6,0.4-60.7-13-72.7c-4.8-4.3-11-6.1-17.9-5.3c-5.9,0.7-11.9,1.7-17.6,2.6c-34.4,5.5-56.1,7.7-67.3-15.4
	c-18.2-37.4,18.6-65.1,35.3-75.2c3.4-2.1,6.5-4.5,9.5-7.2c40.3-4.8,78.4-22.1,112.3-43.8C430.9,247.4,462.1,285.8,477.1,331.5z"/>
</svg>
