<svg width="309" height="246" viewBox="0 0 309 246" fill="none" xmlns="http://www.w3.org/2000/svg">
<path d="M46.1879 146.903L191.622 10.7656L190.194 54.9863L44.7594 191.055L46.1879 146.903Z" fill="#B7B694"/>
<path d="M46.1879 146.903L191.622 10.7656L190.194 54.9863L44.7594 191.055L46.1879 146.903Z" fill="#B7B694"/>
<path d="M1.4285 136.137L146.863 0L191.622 10.7656L46.1879 146.903L1.4285 136.137Z" fill="#D5D3AC"/>
<path d="M46.1879 146.903L44.7594 191.055L0 180.29L1.42849 136.137L46.1879 146.903Z" fill="#A5A485"/>
<path opacity="0.6" d="M48 123.181C48 123.181 48.5156 137.349 50.8416 142.249C53.1676 147.148 57.1723 149.042 63.2512 152.048C69.33 155.053 74.7495 157.225 77.3393 167.024C79.9291 176.823 85.4804 182 85.4804 182C85.4804 182 93.2379 167.832 96.2114 161.847C99.1849 155.861 102.938 124.545 103.969 120.731C105 116.918 105 110.655 105 110.655C105 110.655 101.127 109.569 98.4056 106.841C95.6958 104.114 87.5427 93.5066 84.5812 92.1428C81.6077 90.779 74.9893 93.8349 73.1308 87.8242C71.2724 81.8135 72.0398 78 72.0398 78L48 123.181Z" fill="url(#paint0_linear)"/>
<path d="M46.5281 137.772L191.962 1.70343L200.601 30.3209L55.167 166.458L46.5281 137.772Z" fill="#D88370"/>
<path d="M1.4285 136.137L146.863 0L191.962 1.70342L46.5281 137.772L1.4285 136.137Z" fill="#FEA794"/>
<path d="M1.4285 136.137L46.5281 137.841L55.167 166.458C55.167 166.458 27.8216 169.047 17.8222 162.847C7.8227 156.578 1.4285 136.137 1.4285 136.137Z" fill="#B16D5E"/>
<defs>
<linearGradient id="paint0_linear" x1="48.0015" y1="129.984" x2="105.001" y2="129.984" gradientUnits="userSpaceOnUse">
<stop offset="0.005618" stop-color="#DBF2F7"/>
<stop offset="1" stop-color="#B3E2EE"/>
</linearGradient>
</defs>
</svg>
