<svg width="371" height="309" viewBox="0 0 371 309" fill="none" xmlns="http://www.w3.org/2000/svg">
<g clip-path="url(#clip0)">
<path d="M46.1879 146.903L191.622 10.7656L190.194 54.9863L44.7594 191.055L46.1879 146.903Z" fill="#B7B694"/>
<path d="M46.1879 146.903L191.622 10.7656L190.194 54.9863L44.7594 191.055L46.1879 146.903Z" fill="#B7B694"/>
<path d="M1.4285 136.137L146.863 0L191.622 10.7656L46.1879 146.903L1.4285 136.137Z" fill="#D5D3AC"/>
<path d="M46.1879 146.903L44.7594 191.055L0 180.29L1.42849 136.137L46.1879 146.903Z" fill="#A5A485"/>
<path opacity="0.6" d="M47.6164 150.378C47.6164 150.378 50.5414 188.602 63.738 201.821C76.9345 215.039 99.6544 220.15 134.142 228.258C168.63 236.366 199.377 242.226 214.07 268.663C228.763 295.1 260.258 309.068 260.258 309.068C260.258 309.068 304.269 270.843 321.139 254.695C338.009 238.547 359.3 154.057 365.15 143.768C371 133.48 371 116.582 371 116.582C371 116.582 349.028 113.652 333.587 106.293C318.214 98.9345 271.958 70.3171 255.156 66.6377C238.286 62.9583 200.737 71.2029 190.194 54.9863C179.65 38.7698 184.003 28.4811 184.003 28.4811L47.6164 150.378Z" fill="url(#paint0_linear)"/>
<path d="M46.5281 137.772L191.962 1.70343L200.601 30.3209L55.167 166.458L46.5281 137.772Z" fill="#D88370"/>
<path d="M1.4285 136.137L146.863 0L191.962 1.70342L46.5281 137.772L1.4285 136.137Z" fill="#FEA794"/>
<path d="M1.4285 136.137L46.5281 137.841L55.167 166.458C55.167 166.458 27.8216 169.047 17.8222 162.847C7.8227 156.578 1.4285 136.137 1.4285 136.137Z" fill="#B16D5E"/>
<path opacity="0.5" d="M68.9078 181.925C68.9078 181.925 188.425 144.45 214.07 151.809L68.9078 181.925Z" fill="url(#paint1_linear)"/>
<path opacity="0.5" d="M262.503 92.3253C262.503 92.3253 289.644 142.269 276.447 245.837L262.503 92.3253Z" fill="url(#paint2_linear)"/>
<path opacity="0.5" d="M307.942 113.652C307.942 113.652 311.615 170.955 290.324 223.829L307.942 113.652Z" fill="url(#paint3_linear)"/>
<g filter="url(#filter0_d)">
<path d="M164.683 113L167.243 97.92H171.123L174.143 105.96L177.143 97.92H181.023L183.583 113H179.683L178.383 104.32L174.823 113H173.263L169.883 104.32L168.583 113H164.683ZM189.146 107.82C189.146 108.167 189.206 108.487 189.326 108.78C189.46 109.06 189.626 109.307 189.826 109.52C190.04 109.733 190.286 109.9 190.566 110.02C190.86 110.14 191.166 110.2 191.486 110.2C191.806 110.2 192.106 110.14 192.386 110.02C192.68 109.9 192.926 109.733 193.126 109.52C193.34 109.307 193.506 109.06 193.626 108.78C193.76 108.487 193.826 108.173 193.826 107.84C193.826 107.52 193.76 107.22 193.626 106.94C193.506 106.647 193.34 106.393 193.126 106.18C192.926 105.967 192.68 105.8 192.386 105.68C192.106 105.56 191.806 105.5 191.486 105.5C191.166 105.5 190.86 105.56 190.566 105.68C190.286 105.8 190.04 105.967 189.826 106.18C189.626 106.393 189.46 106.64 189.326 106.92C189.206 107.2 189.146 107.5 189.146 107.82ZM185.326 107.78C185.326 107.02 185.48 106.313 185.786 105.66C186.093 104.993 186.52 104.42 187.066 103.94C187.613 103.447 188.26 103.06 189.006 102.78C189.766 102.5 190.593 102.36 191.486 102.36C192.366 102.36 193.18 102.5 193.926 102.78C194.686 103.047 195.34 103.427 195.886 103.92C196.446 104.4 196.88 104.98 197.186 105.66C197.493 106.327 197.646 107.067 197.646 107.88C197.646 108.693 197.486 109.44 197.166 110.12C196.86 110.787 196.433 111.367 195.886 111.86C195.34 112.34 194.68 112.713 193.906 112.98C193.146 113.247 192.32 113.38 191.426 113.38C190.546 113.38 189.733 113.247 188.986 112.98C188.24 112.713 187.593 112.333 187.046 111.84C186.513 111.347 186.093 110.76 185.786 110.08C185.48 109.387 185.326 108.62 185.326 107.78ZM206.53 105.38C205.864 105.033 205.21 104.86 204.57 104.86C204.237 104.86 203.964 104.927 203.75 105.06C203.55 105.193 203.45 105.373 203.45 105.6C203.45 105.72 203.464 105.82 203.49 105.9C203.53 105.967 203.604 106.033 203.71 106.1C203.83 106.167 203.997 106.227 204.21 106.28C204.437 106.333 204.73 106.4 205.09 106.48C206.09 106.68 206.837 107.04 207.33 107.56C207.824 108.067 208.07 108.72 208.07 109.52C208.07 110.12 207.95 110.66 207.71 111.14C207.47 111.62 207.137 112.027 206.71 112.36C206.284 112.68 205.77 112.927 205.17 113.1C204.57 113.287 203.91 113.38 203.19 113.38C201.804 113.38 200.437 112.987 199.09 112.2L200.41 109.64C201.424 110.333 202.384 110.68 203.29 110.68C203.624 110.68 203.897 110.607 204.11 110.46C204.324 110.313 204.43 110.127 204.43 109.9C204.43 109.767 204.41 109.66 204.37 109.58C204.344 109.487 204.277 109.407 204.17 109.34C204.064 109.26 203.904 109.193 203.69 109.14C203.49 109.073 203.224 109.007 202.89 108.94C201.77 108.713 200.984 108.38 200.53 107.94C200.09 107.487 199.87 106.867 199.87 106.08C199.87 105.507 199.977 104.993 200.19 104.54C200.404 104.073 200.71 103.68 201.11 103.36C201.51 103.04 201.99 102.793 202.55 102.62C203.124 102.447 203.757 102.36 204.45 102.36C205.584 102.36 206.684 102.58 207.75 103.02L206.53 105.38ZM214.219 105.76V113H210.599V105.76H209.399V102.74H210.599V99.66H214.219V102.74H216.279V105.76H214.219ZM228.357 105.76V113H224.737V105.76H223.437V102.74H224.737V101.2C224.737 100.347 224.817 99.6667 224.977 99.16C225.111 98.7333 225.324 98.34 225.617 97.98C225.911 97.6067 226.251 97.2867 226.637 97.02C227.037 96.7533 227.464 96.5467 227.917 96.4C228.371 96.2533 228.817 96.18 229.257 96.18C229.564 96.18 229.844 96.2133 230.097 96.28C230.364 96.3467 230.631 96.44 230.897 96.56V99.72C230.657 99.6 230.431 99.5133 230.217 99.46C230.017 99.3933 229.804 99.36 229.577 99.36C229.431 99.36 229.277 99.3867 229.117 99.44C228.971 99.48 228.831 99.5733 228.697 99.72C228.564 99.8667 228.471 100.08 228.417 100.36C228.377 100.627 228.357 100.993 228.357 101.46V102.74H230.897V105.76H228.357ZM235.846 107.82C235.846 108.167 235.906 108.487 236.026 108.78C236.159 109.06 236.326 109.307 236.526 109.52C236.739 109.733 236.986 109.9 237.266 110.02C237.559 110.14 237.866 110.2 238.186 110.2C238.506 110.2 238.806 110.14 239.086 110.02C239.379 109.9 239.626 109.733 239.826 109.52C240.039 109.307 240.206 109.06 240.326 108.78C240.459 108.487 240.526 108.173 240.526 107.84C240.526 107.52 240.459 107.22 240.326 106.94C240.206 106.647 240.039 106.393 239.826 106.18C239.626 105.967 239.379 105.8 239.086 105.68C238.806 105.56 238.506 105.5 238.186 105.5C237.866 105.5 237.559 105.56 237.266 105.68C236.986 105.8 236.739 105.967 236.526 106.18C236.326 106.393 236.159 106.64 236.026 106.92C235.906 107.2 235.846 107.5 235.846 107.82ZM232.026 107.78C232.026 107.02 232.179 106.313 232.486 105.66C232.792 104.993 233.219 104.42 233.766 103.94C234.312 103.447 234.959 103.06 235.706 102.78C236.466 102.5 237.292 102.36 238.186 102.36C239.066 102.36 239.879 102.5 240.626 102.78C241.386 103.047 242.039 103.427 242.586 103.92C243.146 104.4 243.579 104.98 243.886 105.66C244.192 106.327 244.346 107.067 244.346 107.88C244.346 108.693 244.186 109.44 243.866 110.12C243.559 110.787 243.132 111.367 242.586 111.86C242.039 112.34 241.379 112.713 240.606 112.98C239.846 113.247 239.019 113.38 238.126 113.38C237.246 113.38 236.432 113.247 235.686 112.98C234.939 112.713 234.292 112.333 233.746 111.84C233.212 111.347 232.792 110.76 232.486 110.08C232.179 109.387 232.026 108.62 232.026 107.78ZM249.849 107.82C249.849 108.167 249.909 108.487 250.029 108.78C250.163 109.06 250.329 109.307 250.529 109.52C250.743 109.733 250.989 109.9 251.269 110.02C251.563 110.14 251.869 110.2 252.189 110.2C252.509 110.2 252.809 110.14 253.089 110.02C253.383 109.9 253.629 109.733 253.829 109.52C254.043 109.307 254.209 109.06 254.329 108.78C254.463 108.487 254.529 108.173 254.529 107.84C254.529 107.52 254.463 107.22 254.329 106.94C254.209 106.647 254.043 106.393 253.829 106.18C253.629 105.967 253.383 105.8 253.089 105.68C252.809 105.56 252.509 105.5 252.189 105.5C251.869 105.5 251.563 105.56 251.269 105.68C250.989 105.8 250.743 105.967 250.529 106.18C250.329 106.393 250.163 106.64 250.029 106.92C249.909 107.2 249.849 107.5 249.849 107.82ZM246.029 107.78C246.029 107.02 246.183 106.313 246.489 105.66C246.796 104.993 247.223 104.42 247.769 103.94C248.316 103.447 248.963 103.06 249.709 102.78C250.469 102.5 251.296 102.36 252.189 102.36C253.069 102.36 253.883 102.5 254.629 102.78C255.389 103.047 256.043 103.427 256.589 103.92C257.149 104.4 257.583 104.98 257.889 105.66C258.196 106.327 258.349 107.067 258.349 107.88C258.349 108.693 258.189 109.44 257.869 110.12C257.563 110.787 257.136 111.367 256.589 111.86C256.043 112.34 255.383 112.713 254.609 112.98C253.849 113.247 253.023 113.38 252.129 113.38C251.249 113.38 250.436 113.247 249.689 112.98C248.943 112.713 248.296 112.333 247.749 111.84C247.216 111.347 246.796 110.76 246.489 110.08C246.183 109.387 246.029 108.62 246.029 107.78ZM263.793 107.84C263.793 108.173 263.853 108.487 263.973 108.78C264.093 109.06 264.253 109.307 264.453 109.52C264.667 109.733 264.913 109.9 265.193 110.02C265.487 110.14 265.8 110.2 266.133 110.2C266.453 110.2 266.753 110.14 267.033 110.02C267.327 109.9 267.573 109.733 267.773 109.52C267.987 109.307 268.153 109.06 268.273 108.78C268.407 108.5 268.473 108.2 268.473 107.88C268.473 107.56 268.407 107.26 268.273 106.98C268.153 106.687 267.987 106.433 267.773 106.22C267.573 106.007 267.327 105.84 267.033 105.72C266.753 105.6 266.453 105.54 266.133 105.54C265.813 105.54 265.507 105.6 265.213 105.72C264.933 105.84 264.687 106.007 264.473 106.22C264.273 106.433 264.107 106.68 263.973 106.96C263.853 107.227 263.793 107.52 263.793 107.84ZM268.353 96.4H271.993V113H268.353V111.86C267.58 112.833 266.533 113.32 265.213 113.32C264.467 113.32 263.78 113.18 263.153 112.9C262.527 112.62 261.98 112.233 261.513 111.74C261.047 111.247 260.68 110.667 260.413 110C260.16 109.333 260.033 108.613 260.033 107.84C260.033 107.107 260.153 106.413 260.393 105.76C260.647 105.093 261 104.513 261.453 104.02C261.907 103.527 262.447 103.14 263.073 102.86C263.713 102.567 264.413 102.42 265.173 102.42C266.453 102.42 267.513 102.867 268.353 103.76V96.4ZM159.893 134.9C159.893 134.58 159.833 134.28 159.713 134C159.606 133.707 159.446 133.453 159.233 133.24C159.019 133.027 158.766 132.86 158.473 132.74C158.193 132.607 157.886 132.54 157.553 132.54C157.233 132.54 156.933 132.6 156.653 132.72C156.373 132.84 156.126 133.007 155.913 133.22C155.713 133.433 155.546 133.687 155.413 133.98C155.293 134.26 155.233 134.56 155.233 134.88C155.233 135.2 155.293 135.5 155.413 135.78C155.533 136.06 155.699 136.307 155.913 136.52C156.126 136.72 156.373 136.887 156.653 137.02C156.946 137.14 157.253 137.2 157.573 137.2C157.893 137.2 158.193 137.14 158.473 137.02C158.753 136.9 158.993 136.733 159.193 136.52C159.406 136.307 159.573 136.06 159.693 135.78C159.826 135.5 159.893 135.207 159.893 134.9ZM155.333 145.12H151.713V129.74H155.333V130.88C156.106 129.907 157.159 129.42 158.493 129.42C159.226 129.42 159.906 129.567 160.533 129.86C161.173 130.14 161.726 130.527 162.193 131.02C162.659 131.513 163.019 132.093 163.273 132.76C163.539 133.427 163.673 134.14 163.673 134.9C163.673 135.66 163.539 136.367 163.273 137.02C163.019 137.673 162.659 138.247 162.193 138.74C161.739 139.233 161.199 139.62 160.573 139.9C159.946 140.18 159.266 140.32 158.533 140.32C157.253 140.32 156.186 139.88 155.333 139V145.12ZM169.096 134.84C169.096 135.173 169.156 135.487 169.276 135.78C169.396 136.06 169.556 136.307 169.756 136.52C169.969 136.733 170.216 136.9 170.496 137.02C170.789 137.14 171.103 137.2 171.436 137.2C171.756 137.2 172.056 137.14 172.336 137.02C172.629 136.9 172.876 136.733 173.076 136.52C173.289 136.307 173.456 136.06 173.576 135.78C173.709 135.5 173.776 135.2 173.776 134.88C173.776 134.56 173.709 134.26 173.576 133.98C173.456 133.687 173.289 133.433 173.076 133.22C172.876 133.007 172.629 132.84 172.336 132.72C172.056 132.6 171.756 132.54 171.436 132.54C171.103 132.54 170.789 132.6 170.496 132.72C170.216 132.84 169.969 133.007 169.756 133.22C169.556 133.433 169.396 133.68 169.276 133.96C169.156 134.227 169.096 134.52 169.096 134.84ZM173.656 129.74H177.296V140H173.656V138.86C172.883 139.833 171.836 140.32 170.516 140.32C169.769 140.32 169.083 140.187 168.456 139.92C167.829 139.64 167.283 139.253 166.816 138.76C166.349 138.267 165.983 137.687 165.716 137.02C165.463 136.353 165.336 135.627 165.336 134.84C165.336 134.107 165.463 133.413 165.716 132.76C165.969 132.093 166.323 131.513 166.776 131.02C167.229 130.527 167.769 130.14 168.396 129.86C169.023 129.567 169.716 129.42 170.476 129.42C171.756 129.42 172.816 129.867 173.656 130.76V129.74ZM187.5 133.06C186.873 132.633 186.24 132.42 185.6 132.42C185.253 132.42 184.926 132.48 184.62 132.6C184.326 132.72 184.066 132.893 183.84 133.12C183.613 133.333 183.433 133.593 183.3 133.9C183.18 134.193 183.12 134.527 183.12 134.9C183.12 135.26 183.18 135.593 183.3 135.9C183.433 136.193 183.606 136.453 183.82 136.68C184.046 136.893 184.313 137.06 184.62 137.18C184.926 137.3 185.253 137.36 185.6 137.36C186.28 137.36 186.913 137.127 187.5 136.66V139.74C186.606 140.127 185.76 140.32 184.96 140.32C184.213 140.32 183.5 140.193 182.82 139.94C182.153 139.687 181.56 139.327 181.04 138.86C180.533 138.38 180.126 137.813 179.82 137.16C179.513 136.493 179.36 135.753 179.36 134.94C179.36 134.127 179.506 133.387 179.8 132.72C180.093 132.04 180.493 131.46 181 130.98C181.506 130.487 182.106 130.107 182.8 129.84C183.506 129.56 184.26 129.42 185.06 129.42C185.94 129.42 186.753 129.607 187.5 129.98V133.06ZM193.692 123.4V133.44L197.492 129.74H202.452L197.312 134.48L202.752 140H197.672L193.692 135.82V140H190.072V123.4H193.692ZM206.772 134.84C206.772 135.173 206.832 135.487 206.952 135.78C207.072 136.06 207.232 136.307 207.432 136.52C207.645 136.733 207.892 136.9 208.172 137.02C208.465 137.14 208.779 137.2 209.112 137.2C209.432 137.2 209.732 137.14 210.012 137.02C210.305 136.9 210.552 136.733 210.752 136.52C210.965 136.307 211.132 136.06 211.252 135.78C211.385 135.5 211.452 135.2 211.452 134.88C211.452 134.56 211.385 134.26 211.252 133.98C211.132 133.687 210.965 133.433 210.752 133.22C210.552 133.007 210.305 132.84 210.012 132.72C209.732 132.6 209.432 132.54 209.112 132.54C208.779 132.54 208.465 132.6 208.172 132.72C207.892 132.84 207.645 133.007 207.432 133.22C207.232 133.433 207.072 133.68 206.952 133.96C206.832 134.227 206.772 134.52 206.772 134.84ZM211.332 129.74H214.972V140H211.332V138.86C210.559 139.833 209.512 140.32 208.192 140.32C207.445 140.32 206.759 140.187 206.132 139.92C205.505 139.64 204.959 139.253 204.492 138.76C204.025 138.267 203.659 137.687 203.392 137.02C203.139 136.353 203.012 135.627 203.012 134.84C203.012 134.107 203.139 133.413 203.392 132.76C203.645 132.093 203.999 131.513 204.452 131.02C204.905 130.527 205.445 130.14 206.072 129.86C206.699 129.567 207.392 129.42 208.152 129.42C209.432 129.42 210.492 129.867 211.332 130.76V129.74ZM220.795 134.82C220.795 135.153 220.855 135.467 220.975 135.76C221.095 136.04 221.255 136.287 221.455 136.5C221.669 136.713 221.915 136.88 222.195 137C222.489 137.12 222.802 137.18 223.135 137.18C223.455 137.18 223.755 137.12 224.035 137C224.329 136.88 224.575 136.713 224.775 136.5C224.989 136.287 225.155 136.04 225.275 135.76C225.409 135.467 225.475 135.16 225.475 134.84C225.475 134.507 225.409 134.2 225.275 133.92C225.155 133.64 224.989 133.393 224.775 133.18C224.562 132.967 224.309 132.8 224.015 132.68C223.735 132.56 223.442 132.5 223.135 132.5C222.815 132.5 222.515 132.567 222.235 132.7C221.955 132.82 221.709 132.987 221.495 133.2C221.282 133.4 221.109 133.64 220.975 133.92C220.855 134.2 220.795 134.5 220.795 134.82ZM228.915 129.74V139.3C228.915 139.873 228.882 140.387 228.815 140.84C228.749 141.293 228.655 141.693 228.535 142.04C228.375 142.48 228.122 142.887 227.775 143.26C227.442 143.647 227.035 143.98 226.555 144.26C226.075 144.54 225.529 144.76 224.915 144.92C224.315 145.08 223.662 145.16 222.955 145.16C222.155 145.16 221.422 145.06 220.755 144.86C220.089 144.66 219.502 144.38 218.995 144.02C218.502 143.673 218.095 143.26 217.775 142.78C217.455 142.313 217.242 141.8 217.135 141.24H221.215C221.469 141.92 222.042 142.26 222.935 142.26C223.695 142.26 224.275 142.047 224.675 141.62C225.089 141.193 225.295 140.6 225.295 139.84V138.86C225.029 139.113 224.769 139.327 224.515 139.5C224.275 139.66 224.029 139.793 223.775 139.9C223.522 140.007 223.255 140.08 222.975 140.12C222.695 140.173 222.389 140.2 222.055 140.2C221.322 140.2 220.649 140.073 220.035 139.82C219.422 139.567 218.889 139.213 218.435 138.76C217.995 138.307 217.649 137.767 217.395 137.14C217.155 136.5 217.035 135.793 217.035 135.02C217.035 134.233 217.169 133.507 217.435 132.84C217.702 132.16 218.062 131.573 218.515 131.08C218.982 130.573 219.529 130.18 220.155 129.9C220.795 129.607 221.489 129.46 222.235 129.46C223.449 129.46 224.469 129.913 225.295 130.82V129.74H228.915ZM235.001 129.74V140H231.381V129.74H235.001ZM231.141 125.8C231.141 125.52 231.194 125.26 231.301 125.02C231.407 124.767 231.554 124.547 231.741 124.36C231.927 124.173 232.141 124.027 232.381 123.92C232.634 123.813 232.901 123.76 233.181 123.76C233.461 123.76 233.721 123.813 233.961 123.92C234.214 124.027 234.434 124.173 234.621 124.36C234.807 124.547 234.954 124.767 235.061 125.02C235.167 125.26 235.221 125.52 235.221 125.8C235.221 126.08 235.167 126.347 235.061 126.6C234.954 126.84 234.807 127.053 234.621 127.24C234.434 127.427 234.214 127.573 233.961 127.68C233.721 127.787 233.461 127.84 233.181 127.84C232.901 127.84 232.634 127.787 232.381 127.68C232.141 127.573 231.927 127.427 231.741 127.24C231.554 127.053 231.407 126.84 231.301 126.6C231.194 126.347 231.141 126.08 231.141 125.8ZM237.474 129.74H241.094V131.04C241.588 130.44 242.088 130.04 242.594 129.84C243.101 129.627 243.694 129.52 244.374 129.52C245.094 129.52 245.708 129.64 246.214 129.88C246.734 130.107 247.174 130.433 247.534 130.86C247.828 131.207 248.028 131.593 248.134 132.02C248.241 132.447 248.294 132.933 248.294 133.48V140H244.674V134.82C244.674 134.313 244.634 133.907 244.554 133.6C244.488 133.28 244.361 133.027 244.174 132.84C244.014 132.68 243.834 132.567 243.634 132.5C243.434 132.433 243.221 132.4 242.994 132.4C242.381 132.4 241.908 132.587 241.574 132.96C241.254 133.32 241.094 133.84 241.094 134.52V140H237.474V129.74ZM254.116 134.82C254.116 135.153 254.176 135.467 254.296 135.76C254.416 136.04 254.576 136.287 254.776 136.5C254.989 136.713 255.236 136.88 255.516 137C255.809 137.12 256.122 137.18 256.456 137.18C256.776 137.18 257.076 137.12 257.356 137C257.649 136.88 257.896 136.713 258.096 136.5C258.309 136.287 258.476 136.04 258.596 135.76C258.729 135.467 258.796 135.16 258.796 134.84C258.796 134.507 258.729 134.2 258.596 133.92C258.476 133.64 258.309 133.393 258.096 133.18C257.882 132.967 257.629 132.8 257.336 132.68C257.056 132.56 256.762 132.5 256.456 132.5C256.136 132.5 255.836 132.567 255.556 132.7C255.276 132.82 255.029 132.987 254.816 133.2C254.602 133.4 254.429 133.64 254.296 133.92C254.176 134.2 254.116 134.5 254.116 134.82ZM262.236 129.74V139.3C262.236 139.873 262.202 140.387 262.136 140.84C262.069 141.293 261.976 141.693 261.856 142.04C261.696 142.48 261.442 142.887 261.096 143.26C260.762 143.647 260.356 143.98 259.876 144.26C259.396 144.54 258.849 144.76 258.236 144.92C257.636 145.08 256.982 145.16 256.276 145.16C255.476 145.16 254.742 145.06 254.076 144.86C253.409 144.66 252.822 144.38 252.316 144.02C251.822 143.673 251.416 143.26 251.096 142.78C250.776 142.313 250.562 141.8 250.456 141.24H254.536C254.789 141.92 255.362 142.26 256.256 142.26C257.016 142.26 257.596 142.047 257.996 141.62C258.409 141.193 258.616 140.6 258.616 139.84V138.86C258.349 139.113 258.089 139.327 257.836 139.5C257.596 139.66 257.349 139.793 257.096 139.9C256.842 140.007 256.576 140.08 256.296 140.12C256.016 140.173 255.709 140.2 255.376 140.2C254.642 140.2 253.969 140.073 253.356 139.82C252.742 139.567 252.209 139.213 251.756 138.76C251.316 138.307 250.969 137.767 250.716 137.14C250.476 136.5 250.356 135.793 250.356 135.02C250.356 134.233 250.489 133.507 250.756 132.84C251.022 132.16 251.382 131.573 251.836 131.08C252.302 130.573 252.849 130.18 253.476 129.9C254.116 129.607 254.809 129.46 255.556 129.46C256.769 129.46 257.789 129.913 258.616 130.82V129.74H262.236ZM275.118 129.74V140H271.498V129.74H275.118ZM271.258 125.8C271.258 125.52 271.311 125.26 271.418 125.02C271.524 124.767 271.671 124.547 271.858 124.36C272.044 124.173 272.258 124.027 272.498 123.92C272.751 123.813 273.018 123.76 273.298 123.76C273.578 123.76 273.838 123.813 274.078 123.92C274.331 124.027 274.551 124.173 274.738 124.36C274.924 124.547 275.071 124.767 275.178 125.02C275.284 125.26 275.338 125.52 275.338 125.8C275.338 126.08 275.284 126.347 275.178 126.6C275.071 126.84 274.924 127.053 274.738 127.24C274.551 127.427 274.331 127.573 274.078 127.68C273.838 127.787 273.578 127.84 273.298 127.84C273.018 127.84 272.751 127.787 272.498 127.68C272.258 127.573 272.044 127.427 271.858 127.24C271.671 127.053 271.524 126.84 271.418 126.6C271.311 126.347 271.258 126.08 271.258 125.8ZM284.392 132.38C283.725 132.033 283.072 131.86 282.432 131.86C282.098 131.86 281.825 131.927 281.612 132.06C281.412 132.193 281.312 132.373 281.312 132.6C281.312 132.72 281.325 132.82 281.352 132.9C281.392 132.967 281.465 133.033 281.572 133.1C281.692 133.167 281.858 133.227 282.072 133.28C282.298 133.333 282.592 133.4 282.952 133.48C283.952 133.68 284.698 134.04 285.192 134.56C285.685 135.067 285.932 135.72 285.932 136.52C285.932 137.12 285.812 137.66 285.572 138.14C285.332 138.62 284.998 139.027 284.572 139.36C284.145 139.68 283.632 139.927 283.032 140.1C282.432 140.287 281.772 140.38 281.052 140.38C279.665 140.38 278.298 139.987 276.952 139.2L278.272 136.64C279.285 137.333 280.245 137.68 281.152 137.68C281.485 137.68 281.758 137.607 281.972 137.46C282.185 137.313 282.292 137.127 282.292 136.9C282.292 136.767 282.272 136.66 282.232 136.58C282.205 136.487 282.138 136.407 282.032 136.34C281.925 136.26 281.765 136.193 281.552 136.14C281.352 136.073 281.085 136.007 280.752 135.94C279.632 135.713 278.845 135.38 278.392 134.94C277.952 134.487 277.732 133.867 277.732 133.08C277.732 132.507 277.838 131.993 278.052 131.54C278.265 131.073 278.572 130.68 278.972 130.36C279.372 130.04 279.852 129.793 280.412 129.62C280.985 129.447 281.618 129.36 282.312 129.36C283.445 129.36 284.545 129.58 285.612 130.02L284.392 132.38ZM134.978 159.38C134.311 159.033 133.658 158.86 133.018 158.86C132.684 158.86 132.411 158.927 132.198 159.06C131.998 159.193 131.898 159.373 131.898 159.6C131.898 159.72 131.911 159.82 131.938 159.9C131.978 159.967 132.051 160.033 132.158 160.1C132.278 160.167 132.444 160.227 132.658 160.28C132.884 160.333 133.178 160.4 133.538 160.48C134.538 160.68 135.284 161.04 135.778 161.56C136.271 162.067 136.518 162.72 136.518 163.52C136.518 164.12 136.398 164.66 136.158 165.14C135.918 165.62 135.584 166.027 135.158 166.36C134.731 166.68 134.218 166.927 133.618 167.1C133.018 167.287 132.358 167.38 131.638 167.38C130.251 167.38 128.884 166.987 127.538 166.2L128.858 163.64C129.871 164.333 130.831 164.68 131.738 164.68C132.071 164.68 132.344 164.607 132.558 164.46C132.771 164.313 132.878 164.127 132.878 163.9C132.878 163.767 132.858 163.66 132.817 163.58C132.791 163.487 132.724 163.407 132.618 163.34C132.511 163.26 132.351 163.193 132.138 163.14C131.938 163.073 131.671 163.007 131.338 162.94C130.218 162.713 129.431 162.38 128.978 161.94C128.538 161.487 128.318 160.867 128.318 160.08C128.318 159.507 128.424 158.993 128.638 158.54C128.851 158.073 129.158 157.68 129.558 157.36C129.958 157.04 130.438 156.793 130.998 156.62C131.571 156.447 132.204 156.36 132.898 156.36C134.031 156.36 135.131 156.58 136.198 157.02L134.978 159.38ZM141.973 156.74V167H138.353V156.74H141.973ZM138.113 152.8C138.113 152.52 138.167 152.26 138.273 152.02C138.38 151.767 138.527 151.547 138.713 151.36C138.9 151.173 139.113 151.027 139.353 150.92C139.607 150.813 139.873 150.76 140.153 150.76C140.433 150.76 140.693 150.813 140.933 150.92C141.187 151.027 141.407 151.173 141.593 151.36C141.78 151.547 141.927 151.767 142.033 152.02C142.14 152.26 142.193 152.52 142.193 152.8C142.193 153.08 142.14 153.347 142.033 153.6C141.927 153.84 141.78 154.053 141.593 154.24C141.407 154.427 141.187 154.573 140.933 154.68C140.693 154.787 140.433 154.84 140.153 154.84C139.873 154.84 139.607 154.787 139.353 154.68C139.113 154.573 138.9 154.427 138.713 154.24C138.527 154.053 138.38 153.84 138.273 153.6C138.167 153.347 138.113 153.08 138.113 152.8ZM144.447 156.74H148.067V158.04C148.56 157.44 149.06 157.04 149.567 156.84C150.074 156.627 150.667 156.52 151.347 156.52C152.067 156.52 152.68 156.64 153.187 156.88C153.707 157.107 154.147 157.433 154.507 157.86C154.8 158.207 155 158.593 155.107 159.02C155.214 159.447 155.267 159.933 155.267 160.48V167H151.647V161.82C151.647 161.313 151.607 160.907 151.527 160.6C151.46 160.28 151.334 160.027 151.147 159.84C150.987 159.68 150.807 159.567 150.607 159.5C150.407 159.433 150.194 159.4 149.967 159.4C149.354 159.4 148.88 159.587 148.547 159.96C148.227 160.32 148.067 160.84 148.067 161.52V167H144.447V156.74ZM161.088 161.82C161.088 162.153 161.148 162.467 161.268 162.76C161.388 163.04 161.548 163.287 161.748 163.5C161.962 163.713 162.208 163.88 162.488 164C162.782 164.12 163.095 164.18 163.428 164.18C163.748 164.18 164.048 164.12 164.328 164C164.622 163.88 164.868 163.713 165.068 163.5C165.282 163.287 165.448 163.04 165.568 162.76C165.702 162.467 165.768 162.16 165.768 161.84C165.768 161.507 165.702 161.2 165.568 160.92C165.448 160.64 165.282 160.393 165.068 160.18C164.855 159.967 164.602 159.8 164.308 159.68C164.028 159.56 163.735 159.5 163.428 159.5C163.108 159.5 162.808 159.567 162.528 159.7C162.248 159.82 162.002 159.987 161.788 160.2C161.575 160.4 161.402 160.64 161.268 160.92C161.148 161.2 161.088 161.5 161.088 161.82ZM169.208 156.74V166.3C169.208 166.873 169.175 167.387 169.108 167.84C169.042 168.293 168.948 168.693 168.828 169.04C168.668 169.48 168.415 169.887 168.068 170.26C167.735 170.647 167.328 170.98 166.848 171.26C166.368 171.54 165.822 171.76 165.208 171.92C164.608 172.08 163.955 172.16 163.248 172.16C162.448 172.16 161.715 172.06 161.048 171.86C160.382 171.66 159.795 171.38 159.288 171.02C158.795 170.673 158.388 170.26 158.068 169.78C157.748 169.313 157.535 168.8 157.428 168.24H161.508C161.762 168.92 162.335 169.26 163.228 169.26C163.988 169.26 164.568 169.047 164.968 168.62C165.382 168.193 165.588 167.6 165.588 166.84V165.86C165.322 166.113 165.062 166.327 164.808 166.5C164.568 166.66 164.322 166.793 164.068 166.9C163.815 167.007 163.548 167.08 163.268 167.12C162.988 167.173 162.682 167.2 162.348 167.2C161.615 167.2 160.942 167.073 160.328 166.82C159.715 166.567 159.182 166.213 158.728 165.76C158.288 165.307 157.942 164.767 157.688 164.14C157.448 163.5 157.328 162.793 157.328 162.02C157.328 161.233 157.462 160.507 157.728 159.84C157.995 159.16 158.355 158.573 158.808 158.08C159.275 157.573 159.822 157.18 160.448 156.9C161.088 156.607 161.782 156.46 162.528 156.46C163.742 156.46 164.762 156.913 165.588 157.82V156.74H169.208ZM175.645 150.4V167H172.025V150.4H175.645ZM185.619 160.38C185.499 159.873 185.252 159.467 184.879 159.16C184.506 158.853 184.052 158.7 183.519 158.7C182.959 158.7 182.499 158.847 182.139 159.14C181.792 159.433 181.572 159.847 181.479 160.38H185.619ZM181.379 162.48C181.379 164.04 182.112 164.82 183.579 164.82C184.366 164.82 184.959 164.5 185.359 163.86H188.859C188.152 166.207 186.386 167.38 183.559 167.38C182.692 167.38 181.899 167.253 181.179 167C180.459 166.733 179.839 166.36 179.319 165.88C178.812 165.4 178.419 164.827 178.139 164.16C177.859 163.493 177.719 162.747 177.719 161.92C177.719 161.067 177.852 160.3 178.119 159.62C178.386 158.927 178.766 158.34 179.259 157.86C179.752 157.38 180.346 157.013 181.039 156.76C181.746 156.493 182.539 156.36 183.419 156.36C184.286 156.36 185.066 156.493 185.759 156.76C186.452 157.013 187.039 157.387 187.519 157.88C187.999 158.373 188.366 158.98 188.619 159.7C188.872 160.407 188.999 161.207 188.999 162.1V162.48H181.379ZM189.828 160.14H195.568V163.16H189.828V160.14ZM200.43 156.74V162.52C200.43 163.787 201.044 164.42 202.27 164.42C203.497 164.42 204.11 163.787 204.11 162.52V156.74H207.73V163.22C207.73 164.607 207.27 165.647 206.35 166.34C205.444 167.033 204.084 167.38 202.27 167.38C200.457 167.38 199.09 167.033 198.17 166.34C197.264 165.647 196.81 164.607 196.81 163.22V156.74H200.43ZM216.989 159.38C216.323 159.033 215.669 158.86 215.029 158.86C214.696 158.86 214.423 158.927 214.209 159.06C214.009 159.193 213.909 159.373 213.909 159.6C213.909 159.72 213.923 159.82 213.949 159.9C213.989 159.967 214.063 160.033 214.169 160.1C214.289 160.167 214.456 160.227 214.669 160.28C214.896 160.333 215.189 160.4 215.549 160.48C216.549 160.68 217.296 161.04 217.789 161.56C218.283 162.067 218.529 162.72 218.529 163.52C218.529 164.12 218.409 164.66 218.169 165.14C217.929 165.62 217.596 166.027 217.169 166.36C216.743 166.68 216.229 166.927 215.629 167.1C215.029 167.287 214.369 167.38 213.649 167.38C212.263 167.38 210.896 166.987 209.549 166.2L210.869 163.64C211.883 164.333 212.843 164.68 213.749 164.68C214.083 164.68 214.356 164.607 214.569 164.46C214.783 164.313 214.889 164.127 214.889 163.9C214.889 163.767 214.869 163.66 214.829 163.58C214.803 163.487 214.736 163.407 214.629 163.34C214.523 163.26 214.363 163.193 214.149 163.14C213.949 163.073 213.683 163.007 213.349 162.94C212.229 162.713 211.443 162.38 210.989 161.94C210.549 161.487 210.329 160.867 210.329 160.08C210.329 159.507 210.436 158.993 210.649 158.54C210.863 158.073 211.169 157.68 211.569 157.36C211.969 157.04 212.449 156.793 213.009 156.62C213.583 156.447 214.216 156.36 214.909 156.36C216.043 156.36 217.143 156.58 218.209 157.02L216.989 159.38ZM227.865 160.38C227.745 159.873 227.498 159.467 227.125 159.16C226.752 158.853 226.298 158.7 225.765 158.7C225.205 158.7 224.745 158.847 224.385 159.14C224.038 159.433 223.818 159.847 223.725 160.38H227.865ZM223.625 162.48C223.625 164.04 224.358 164.82 225.825 164.82C226.612 164.82 227.205 164.5 227.605 163.86H231.105C230.398 166.207 228.632 167.38 225.805 167.38C224.938 167.38 224.145 167.253 223.425 167C222.705 166.733 222.085 166.36 221.565 165.88C221.058 165.4 220.665 164.827 220.385 164.16C220.105 163.493 219.965 162.747 219.965 161.92C219.965 161.067 220.098 160.3 220.365 159.62C220.632 158.927 221.012 158.34 221.505 157.86C221.998 157.38 222.592 157.013 223.285 156.76C223.992 156.493 224.785 156.36 225.665 156.36C226.532 156.36 227.312 156.493 228.005 156.76C228.698 157.013 229.285 157.387 229.765 157.88C230.245 158.373 230.612 158.98 230.865 159.7C231.118 160.407 231.245 161.207 231.245 162.1V162.48H223.625ZM234.434 163.18H237.834L234.154 169.8H231.834L234.434 163.18ZM250.268 161.84C250.268 162.173 250.328 162.487 250.448 162.78C250.568 163.06 250.728 163.307 250.928 163.52C251.141 163.733 251.388 163.9 251.668 164.02C251.961 164.14 252.275 164.2 252.608 164.2C252.928 164.2 253.228 164.14 253.508 164.02C253.801 163.9 254.048 163.733 254.248 163.52C254.461 163.307 254.628 163.06 254.748 162.78C254.881 162.5 254.948 162.2 254.948 161.88C254.948 161.56 254.881 161.26 254.748 160.98C254.628 160.687 254.461 160.433 254.248 160.22C254.048 160.007 253.801 159.84 253.508 159.72C253.228 159.6 252.928 159.54 252.608 159.54C252.275 159.54 251.961 159.6 251.668 159.72C251.388 159.84 251.141 160.007 250.928 160.22C250.728 160.433 250.568 160.68 250.448 160.96C250.328 161.227 250.268 161.52 250.268 161.84ZM254.828 156.74H258.468V167H254.828V165.86C254.055 166.833 253.008 167.32 251.688 167.32C250.941 167.32 250.255 167.187 249.628 166.92C249.001 166.64 248.455 166.253 247.988 165.76C247.521 165.267 247.155 164.687 246.888 164.02C246.635 163.353 246.508 162.627 246.508 161.84C246.508 161.107 246.635 160.413 246.888 159.76C247.141 159.093 247.495 158.513 247.948 158.02C248.401 157.527 248.941 157.14 249.568 156.86C250.195 156.567 250.888 156.42 251.648 156.42C252.928 156.42 253.988 156.867 254.828 157.76V156.74ZM260.931 156.74H264.551V158.04C265.045 157.44 265.545 157.04 266.051 156.84C266.558 156.627 267.151 156.52 267.831 156.52C268.551 156.52 269.165 156.64 269.671 156.88C270.191 157.107 270.631 157.433 270.991 157.86C271.285 158.207 271.485 158.593 271.591 159.02C271.698 159.447 271.751 159.933 271.751 160.48V167H268.131V161.82C268.131 161.313 268.091 160.907 268.011 160.6C267.945 160.28 267.818 160.027 267.631 159.84C267.471 159.68 267.291 159.567 267.091 159.5C266.891 159.433 266.678 159.4 266.451 159.4C265.838 159.4 265.365 159.587 265.031 159.96C264.711 160.32 264.551 160.84 264.551 161.52V167H260.931V156.74ZM277.573 161.84C277.573 162.173 277.633 162.487 277.753 162.78C277.873 163.06 278.033 163.307 278.233 163.52C278.446 163.733 278.693 163.9 278.973 164.02C279.266 164.14 279.579 164.2 279.913 164.2C280.233 164.2 280.533 164.14 280.813 164.02C281.106 163.9 281.353 163.733 281.553 163.52C281.766 163.307 281.933 163.06 282.053 162.78C282.186 162.5 282.253 162.2 282.253 161.88C282.253 161.56 282.186 161.26 282.053 160.98C281.933 160.687 281.766 160.433 281.553 160.22C281.353 160.007 281.106 159.84 280.813 159.72C280.533 159.6 280.233 159.54 279.913 159.54C279.593 159.54 279.286 159.6 278.993 159.72C278.713 159.84 278.466 160.007 278.253 160.22C278.053 160.433 277.886 160.68 277.753 160.96C277.633 161.227 277.573 161.52 277.573 161.84ZM282.133 150.4H285.773V167H282.133V165.86C281.359 166.833 280.313 167.32 278.993 167.32C278.246 167.32 277.559 167.18 276.933 166.9C276.306 166.62 275.759 166.233 275.293 165.74C274.826 165.247 274.459 164.667 274.193 164C273.939 163.333 273.813 162.613 273.813 161.84C273.813 161.107 273.933 160.413 274.173 159.76C274.426 159.093 274.779 158.513 275.233 158.02C275.686 157.527 276.226 157.14 276.853 156.86C277.493 156.567 278.193 156.42 278.953 156.42C280.233 156.42 281.293 156.867 282.133 157.76V150.4ZM298.653 156.74V167H295.033V156.74H298.653ZM294.793 152.8C294.793 152.52 294.846 152.26 294.953 152.02C295.06 151.767 295.206 151.547 295.393 151.36C295.58 151.173 295.793 151.027 296.033 150.92C296.286 150.813 296.553 150.76 296.833 150.76C297.113 150.76 297.373 150.813 297.613 150.92C297.866 151.027 298.086 151.173 298.273 151.36C298.46 151.547 298.606 151.767 298.713 152.02C298.82 152.26 298.873 152.52 298.873 152.8C298.873 153.08 298.82 153.347 298.713 153.6C298.606 153.84 298.46 154.053 298.273 154.24C298.086 154.427 297.866 154.573 297.613 154.68C297.373 154.787 297.113 154.84 296.833 154.84C296.553 154.84 296.286 154.787 296.033 154.68C295.793 154.573 295.58 154.427 295.393 154.24C295.206 154.053 295.06 153.84 294.953 153.6C294.846 153.347 294.793 153.08 294.793 152.8ZM307.927 159.38C307.26 159.033 306.607 158.86 305.967 158.86C305.633 158.86 305.36 158.927 305.147 159.06C304.947 159.193 304.847 159.373 304.847 159.6C304.847 159.72 304.86 159.82 304.887 159.9C304.927 159.967 305 160.033 305.107 160.1C305.227 160.167 305.393 160.227 305.607 160.28C305.833 160.333 306.127 160.4 306.487 160.48C307.487 160.68 308.233 161.04 308.727 161.56C309.22 162.067 309.467 162.72 309.467 163.52C309.467 164.12 309.347 164.66 309.107 165.14C308.867 165.62 308.533 166.027 308.107 166.36C307.68 166.68 307.167 166.927 306.567 167.1C305.967 167.287 305.307 167.38 304.587 167.38C303.2 167.38 301.833 166.987 300.487 166.2L301.807 163.64C302.82 164.333 303.78 164.68 304.687 164.68C305.02 164.68 305.293 164.607 305.507 164.46C305.72 164.313 305.827 164.127 305.827 163.9C305.827 163.767 305.807 163.66 305.767 163.58C305.74 163.487 305.673 163.407 305.567 163.34C305.46 163.26 305.3 163.193 305.087 163.14C304.887 163.073 304.62 163.007 304.287 162.94C303.167 162.713 302.38 162.38 301.927 161.94C301.487 161.487 301.267 160.867 301.267 160.08C301.267 159.507 301.373 158.993 301.587 158.54C301.8 158.073 302.107 157.68 302.507 157.36C302.907 157.04 303.387 156.793 303.947 156.62C304.52 156.447 305.153 156.36 305.847 156.36C306.98 156.36 308.08 156.58 309.147 157.02L307.927 159.38ZM112.198 183.74V194H108.578V183.74H112.198ZM108.338 179.8C108.338 179.52 108.391 179.26 108.498 179.02C108.605 178.767 108.751 178.547 108.938 178.36C109.125 178.173 109.338 178.027 109.578 177.92C109.831 177.813 110.098 177.76 110.378 177.76C110.658 177.76 110.918 177.813 111.158 177.92C111.411 178.027 111.631 178.173 111.818 178.36C112.005 178.547 112.151 178.767 112.258 179.02C112.365 179.26 112.418 179.52 112.418 179.8C112.418 180.08 112.365 180.347 112.258 180.6C112.151 180.84 112.005 181.053 111.818 181.24C111.631 181.427 111.411 181.573 111.158 181.68C110.918 181.787 110.658 181.84 110.378 181.84C110.098 181.84 109.831 181.787 109.578 181.68C109.338 181.573 109.125 181.427 108.938 181.24C108.751 181.053 108.605 180.84 108.498 180.6C108.391 180.347 108.338 180.08 108.338 179.8ZM114.672 183.74H118.292V185C119.278 184.053 120.385 183.58 121.612 183.58C123.132 183.58 124.292 184.22 125.092 185.5C125.905 184.207 127.065 183.56 128.572 183.56C129.052 183.56 129.505 183.633 129.932 183.78C130.358 183.913 130.725 184.133 131.032 184.44C131.338 184.733 131.578 185.12 131.752 185.6C131.938 186.08 132.032 186.66 132.032 187.34V194H128.412V188.94C128.412 188.42 128.372 187.993 128.292 187.66C128.225 187.327 128.118 187.067 127.972 186.88C127.838 186.693 127.678 186.567 127.492 186.5C127.305 186.433 127.105 186.4 126.892 186.4C125.732 186.4 125.152 187.247 125.152 188.94V194H121.532V188.94C121.532 188.42 121.498 187.993 121.432 187.66C121.365 187.313 121.265 187.04 121.132 186.84C121.012 186.64 120.852 186.507 120.652 186.44C120.452 186.36 120.218 186.32 119.952 186.32C119.725 186.32 119.512 186.353 119.312 186.42C119.112 186.487 118.932 186.62 118.772 186.82C118.625 187.007 118.505 187.273 118.412 187.62C118.332 187.953 118.292 188.393 118.292 188.94V194H114.672V183.74ZM143.047 188.9C143.047 188.58 142.987 188.28 142.867 188C142.76 187.707 142.6 187.453 142.387 187.24C142.174 187.027 141.92 186.86 141.627 186.74C141.347 186.607 141.04 186.54 140.707 186.54C140.387 186.54 140.087 186.6 139.807 186.72C139.527 186.84 139.28 187.007 139.067 187.22C138.867 187.433 138.7 187.687 138.567 187.98C138.447 188.26 138.387 188.56 138.387 188.88C138.387 189.2 138.447 189.5 138.567 189.78C138.687 190.06 138.854 190.307 139.067 190.52C139.28 190.72 139.527 190.887 139.807 191.02C140.1 191.14 140.407 191.2 140.727 191.2C141.047 191.2 141.347 191.14 141.627 191.02C141.907 190.9 142.147 190.733 142.347 190.52C142.56 190.307 142.727 190.06 142.847 189.78C142.98 189.5 143.047 189.207 143.047 188.9ZM138.487 199.12H134.867V183.74H138.487V184.88C139.26 183.907 140.314 183.42 141.647 183.42C142.38 183.42 143.06 183.567 143.687 183.86C144.327 184.14 144.88 184.527 145.347 185.02C145.814 185.513 146.174 186.093 146.427 186.76C146.694 187.427 146.827 188.14 146.827 188.9C146.827 189.66 146.694 190.367 146.427 191.02C146.174 191.673 145.814 192.247 145.347 192.74C144.894 193.233 144.354 193.62 143.727 193.9C143.1 194.18 142.42 194.32 141.687 194.32C140.407 194.32 139.34 193.88 138.487 193V199.12ZM148.89 183.74H152.51V185.42C152.897 184.807 153.37 184.34 153.93 184.02C154.49 183.687 155.144 183.52 155.89 183.52C155.984 183.52 156.084 183.52 156.19 183.52C156.31 183.52 156.444 183.533 156.59 183.56V187.02C156.11 186.78 155.59 186.66 155.03 186.66C154.19 186.66 153.557 186.913 153.13 187.42C152.717 187.913 152.51 188.64 152.51 189.6V194H148.89V183.74ZM161.705 188.82C161.705 189.167 161.765 189.487 161.885 189.78C162.018 190.06 162.185 190.307 162.385 190.52C162.598 190.733 162.845 190.9 163.125 191.02C163.418 191.14 163.725 191.2 164.045 191.2C164.365 191.2 164.665 191.14 164.945 191.02C165.238 190.9 165.485 190.733 165.685 190.52C165.898 190.307 166.065 190.06 166.185 189.78C166.318 189.487 166.385 189.173 166.385 188.84C166.385 188.52 166.318 188.22 166.185 187.94C166.065 187.647 165.898 187.393 165.685 187.18C165.485 186.967 165.238 186.8 164.945 186.68C164.665 186.56 164.365 186.5 164.045 186.5C163.725 186.5 163.418 186.56 163.125 186.68C162.845 186.8 162.598 186.967 162.385 187.18C162.185 187.393 162.018 187.64 161.885 187.92C161.765 188.2 161.705 188.5 161.705 188.82ZM157.885 188.78C157.885 188.02 158.038 187.313 158.345 186.66C158.652 185.993 159.078 185.42 159.625 184.94C160.172 184.447 160.818 184.06 161.565 183.78C162.325 183.5 163.152 183.36 164.045 183.36C164.925 183.36 165.738 183.5 166.485 183.78C167.245 184.047 167.898 184.427 168.445 184.92C169.005 185.4 169.438 185.98 169.745 186.66C170.052 187.327 170.205 188.067 170.205 188.88C170.205 189.693 170.045 190.44 169.725 191.12C169.418 191.787 168.992 192.367 168.445 192.86C167.898 193.34 167.238 193.713 166.465 193.98C165.705 194.247 164.878 194.38 163.985 194.38C163.105 194.38 162.292 194.247 161.545 193.98C160.798 193.713 160.152 193.333 159.605 192.84C159.072 192.347 158.652 191.76 158.345 191.08C158.038 190.387 157.885 189.62 157.885 188.78ZM180.469 188.9C180.469 188.58 180.409 188.28 180.289 188C180.182 187.707 180.022 187.453 179.809 187.24C179.595 187.027 179.342 186.86 179.049 186.74C178.769 186.607 178.462 186.54 178.129 186.54C177.809 186.54 177.509 186.6 177.229 186.72C176.949 186.84 176.702 187.007 176.489 187.22C176.289 187.433 176.122 187.687 175.989 187.98C175.869 188.26 175.809 188.56 175.809 188.88C175.809 189.2 175.869 189.5 175.989 189.78C176.109 190.06 176.275 190.307 176.489 190.52C176.702 190.72 176.949 190.887 177.229 191.02C177.522 191.14 177.829 191.2 178.149 191.2C178.469 191.2 178.769 191.14 179.049 191.02C179.329 190.9 179.569 190.733 179.769 190.52C179.982 190.307 180.149 190.06 180.269 189.78C180.402 189.5 180.469 189.207 180.469 188.9ZM175.909 199.12H172.289V183.74H175.909V184.88C176.682 183.907 177.735 183.42 179.069 183.42C179.802 183.42 180.482 183.567 181.109 183.86C181.749 184.14 182.302 184.527 182.769 185.02C183.235 185.513 183.595 186.093 183.849 186.76C184.115 187.427 184.249 188.14 184.249 188.9C184.249 189.66 184.115 190.367 183.849 191.02C183.595 191.673 183.235 192.247 182.769 192.74C182.315 193.233 181.775 193.62 181.149 193.9C180.522 194.18 179.842 194.32 179.109 194.32C177.829 194.32 176.762 193.88 175.909 193V199.12ZM193.812 187.38C193.692 186.873 193.446 186.467 193.072 186.16C192.699 185.853 192.246 185.7 191.712 185.7C191.152 185.7 190.692 185.847 190.332 186.14C189.986 186.433 189.766 186.847 189.672 187.38H193.812ZM189.572 189.48C189.572 191.04 190.306 191.82 191.772 191.82C192.559 191.82 193.152 191.5 193.552 190.86H197.052C196.346 193.207 194.579 194.38 191.752 194.38C190.886 194.38 190.092 194.253 189.372 194C188.652 193.733 188.032 193.36 187.512 192.88C187.006 192.4 186.612 191.827 186.332 191.16C186.052 190.493 185.912 189.747 185.912 188.92C185.912 188.067 186.046 187.3 186.312 186.62C186.579 185.927 186.959 185.34 187.452 184.86C187.946 184.38 188.539 184.013 189.232 183.76C189.939 183.493 190.732 183.36 191.612 183.36C192.479 183.36 193.259 183.493 193.952 183.76C194.646 184.013 195.232 184.387 195.712 184.88C196.192 185.373 196.559 185.98 196.812 186.7C197.066 187.407 197.192 188.207 197.192 189.1V189.48H189.572ZM199.261 183.74H202.881V185.42C203.268 184.807 203.741 184.34 204.301 184.02C204.861 183.687 205.515 183.52 206.261 183.52C206.355 183.52 206.455 183.52 206.561 183.52C206.681 183.52 206.815 183.533 206.961 183.56V187.02C206.481 186.78 205.961 186.66 205.401 186.66C204.561 186.66 203.928 186.913 203.501 187.42C203.088 187.913 202.881 188.64 202.881 189.6V194H199.261V183.74ZM212.198 177.4V194H208.578V177.4H212.198ZM218.587 192.6L213.627 183.74H217.827L220.567 189L223.227 183.74H227.387L219.147 199.12H215.087L218.587 192.6ZM238.793 188.84C238.793 189.173 238.853 189.487 238.973 189.78C239.093 190.06 239.253 190.307 239.453 190.52C239.667 190.733 239.913 190.9 240.193 191.02C240.487 191.14 240.8 191.2 241.133 191.2C241.453 191.2 241.753 191.14 242.033 191.02C242.327 190.9 242.573 190.733 242.773 190.52C242.987 190.307 243.153 190.06 243.273 189.78C243.407 189.5 243.473 189.2 243.473 188.88C243.473 188.56 243.407 188.26 243.273 187.98C243.153 187.687 242.987 187.433 242.773 187.22C242.573 187.007 242.327 186.84 242.033 186.72C241.753 186.6 241.453 186.54 241.133 186.54C240.813 186.54 240.507 186.6 240.213 186.72C239.933 186.84 239.687 187.007 239.473 187.22C239.273 187.433 239.107 187.68 238.973 187.96C238.853 188.227 238.793 188.52 238.793 188.84ZM243.353 177.4H246.993V194H243.353V192.86C242.58 193.833 241.533 194.32 240.213 194.32C239.467 194.32 238.78 194.18 238.153 193.9C237.527 193.62 236.98 193.233 236.513 192.74C236.047 192.247 235.68 191.667 235.413 191C235.16 190.333 235.033 189.613 235.033 188.84C235.033 188.107 235.153 187.413 235.393 186.76C235.647 186.093 236 185.513 236.453 185.02C236.907 184.527 237.447 184.14 238.073 183.86C238.713 183.567 239.413 183.42 240.173 183.42C241.453 183.42 242.513 183.867 243.353 184.76V177.4ZM253.077 183.74V194H249.457V183.74H253.077ZM249.217 179.8C249.217 179.52 249.27 179.26 249.377 179.02C249.483 178.767 249.63 178.547 249.817 178.36C250.003 178.173 250.217 178.027 250.457 177.92C250.71 177.813 250.977 177.76 251.257 177.76C251.537 177.76 251.797 177.813 252.037 177.92C252.29 178.027 252.51 178.173 252.697 178.36C252.883 178.547 253.03 178.767 253.137 179.02C253.243 179.26 253.297 179.52 253.297 179.8C253.297 180.08 253.243 180.347 253.137 180.6C253.03 180.84 252.883 181.053 252.697 181.24C252.51 181.427 252.29 181.573 252.037 181.68C251.797 181.787 251.537 181.84 251.257 181.84C250.977 181.84 250.71 181.787 250.457 181.68C250.217 181.573 250.003 181.427 249.817 181.24C249.63 181.053 249.483 180.84 249.377 180.6C249.27 180.347 249.217 180.08 249.217 179.8ZM262.351 186.38C261.684 186.033 261.031 185.86 260.391 185.86C260.057 185.86 259.784 185.927 259.571 186.06C259.371 186.193 259.271 186.373 259.271 186.6C259.271 186.72 259.284 186.82 259.311 186.9C259.351 186.967 259.424 187.033 259.531 187.1C259.651 187.167 259.817 187.227 260.031 187.28C260.257 187.333 260.551 187.4 260.911 187.48C261.911 187.68 262.657 188.04 263.151 188.56C263.644 189.067 263.891 189.72 263.891 190.52C263.891 191.12 263.771 191.66 263.531 192.14C263.291 192.62 262.957 193.027 262.531 193.36C262.104 193.68 261.591 193.927 260.991 194.1C260.391 194.287 259.731 194.38 259.011 194.38C257.624 194.38 256.257 193.987 254.911 193.2L256.231 190.64C257.244 191.333 258.204 191.68 259.111 191.68C259.444 191.68 259.717 191.607 259.931 191.46C260.144 191.313 260.251 191.127 260.251 190.9C260.251 190.767 260.231 190.66 260.191 190.58C260.164 190.487 260.097 190.407 259.991 190.34C259.884 190.26 259.724 190.193 259.511 190.14C259.311 190.073 259.044 190.007 258.711 189.94C257.591 189.713 256.804 189.38 256.351 188.94C255.911 188.487 255.691 187.867 255.691 187.08C255.691 186.507 255.797 185.993 256.011 185.54C256.224 185.073 256.531 184.68 256.931 184.36C257.331 184.04 257.811 183.793 258.371 183.62C258.944 183.447 259.577 183.36 260.271 183.36C261.404 183.36 262.504 183.58 263.571 184.02L262.351 186.38ZM273.906 188.9C273.906 188.58 273.846 188.28 273.726 188C273.62 187.707 273.46 187.453 273.246 187.24C273.033 187.027 272.78 186.86 272.486 186.74C272.206 186.607 271.9 186.54 271.566 186.54C271.246 186.54 270.946 186.6 270.666 186.72C270.386 186.84 270.14 187.007 269.926 187.22C269.726 187.433 269.56 187.687 269.426 187.98C269.306 188.26 269.246 188.56 269.246 188.88C269.246 189.2 269.306 189.5 269.426 189.78C269.546 190.06 269.713 190.307 269.926 190.52C270.14 190.72 270.386 190.887 270.666 191.02C270.96 191.14 271.266 191.2 271.586 191.2C271.906 191.2 272.206 191.14 272.486 191.02C272.766 190.9 273.006 190.733 273.206 190.52C273.42 190.307 273.586 190.06 273.706 189.78C273.84 189.5 273.906 189.207 273.906 188.9ZM269.346 199.12H265.726V183.74H269.346V184.88C270.12 183.907 271.173 183.42 272.506 183.42C273.24 183.42 273.92 183.567 274.546 183.86C275.186 184.14 275.74 184.527 276.206 185.02C276.673 185.513 277.033 186.093 277.286 186.76C277.553 187.427 277.686 188.14 277.686 188.9C277.686 189.66 277.553 190.367 277.286 191.02C277.033 191.673 276.673 192.247 276.206 192.74C275.753 193.233 275.213 193.62 274.586 193.9C273.96 194.18 273.28 194.32 272.546 194.32C271.266 194.32 270.2 193.88 269.346 193V199.12ZM283.17 188.82C283.17 189.167 283.23 189.487 283.35 189.78C283.483 190.06 283.65 190.307 283.85 190.52C284.063 190.733 284.31 190.9 284.59 191.02C284.883 191.14 285.19 191.2 285.51 191.2C285.83 191.2 286.13 191.14 286.41 191.02C286.703 190.9 286.95 190.733 287.15 190.52C287.363 190.307 287.53 190.06 287.65 189.78C287.783 189.487 287.85 189.173 287.85 188.84C287.85 188.52 287.783 188.22 287.65 187.94C287.53 187.647 287.363 187.393 287.15 187.18C286.95 186.967 286.703 186.8 286.41 186.68C286.13 186.56 285.83 186.5 285.51 186.5C285.19 186.5 284.883 186.56 284.59 186.68C284.31 186.8 284.063 186.967 283.85 187.18C283.65 187.393 283.483 187.64 283.35 187.92C283.23 188.2 283.17 188.5 283.17 188.82ZM279.35 188.78C279.35 188.02 279.503 187.313 279.81 186.66C280.116 185.993 280.543 185.42 281.09 184.94C281.636 184.447 282.283 184.06 283.03 183.78C283.79 183.5 284.616 183.36 285.51 183.36C286.39 183.36 287.203 183.5 287.95 183.78C288.71 184.047 289.363 184.427 289.91 184.92C290.47 185.4 290.903 185.98 291.21 186.66C291.516 187.327 291.67 188.067 291.67 188.88C291.67 189.693 291.51 190.44 291.19 191.12C290.883 191.787 290.456 192.367 289.91 192.86C289.363 193.34 288.703 193.713 287.93 193.98C287.17 194.247 286.343 194.38 285.45 194.38C284.57 194.38 283.756 194.247 283.01 193.98C282.263 193.713 281.616 193.333 281.07 192.84C280.536 192.347 280.116 191.76 279.81 191.08C279.503 190.387 279.35 189.62 279.35 188.78ZM300.554 186.38C299.887 186.033 299.234 185.86 298.594 185.86C298.26 185.86 297.987 185.927 297.774 186.06C297.574 186.193 297.474 186.373 297.474 186.6C297.474 186.72 297.487 186.82 297.514 186.9C297.554 186.967 297.627 187.033 297.734 187.1C297.854 187.167 298.02 187.227 298.234 187.28C298.46 187.333 298.754 187.4 299.114 187.48C300.114 187.68 300.86 188.04 301.354 188.56C301.847 189.067 302.094 189.72 302.094 190.52C302.094 191.12 301.974 191.66 301.734 192.14C301.494 192.62 301.16 193.027 300.734 193.36C300.307 193.68 299.794 193.927 299.194 194.1C298.594 194.287 297.934 194.38 297.214 194.38C295.827 194.38 294.46 193.987 293.114 193.2L294.434 190.64C295.447 191.333 296.407 191.68 297.314 191.68C297.647 191.68 297.92 191.607 298.134 191.46C298.347 191.313 298.454 191.127 298.454 190.9C298.454 190.767 298.434 190.66 298.394 190.58C298.367 190.487 298.3 190.407 298.194 190.34C298.087 190.26 297.927 190.193 297.714 190.14C297.514 190.073 297.247 190.007 296.914 189.94C295.794 189.713 295.007 189.38 294.554 188.94C294.114 188.487 293.894 187.867 293.894 187.08C293.894 186.507 294 185.993 294.214 185.54C294.427 185.073 294.734 184.68 295.134 184.36C295.534 184.04 296.014 183.793 296.574 183.62C297.147 183.447 297.78 183.36 298.474 183.36C299.607 183.36 300.707 183.58 301.774 184.02L300.554 186.38ZM311.429 187.38C311.309 186.873 311.063 186.467 310.689 186.16C310.316 185.853 309.863 185.7 309.329 185.7C308.769 185.7 308.309 185.847 307.949 186.14C307.603 186.433 307.383 186.847 307.289 187.38H311.429ZM307.189 189.48C307.189 191.04 307.923 191.82 309.389 191.82C310.176 191.82 310.769 191.5 311.169 190.86H314.669C313.963 193.207 312.196 194.38 309.369 194.38C308.503 194.38 307.709 194.253 306.989 194C306.269 193.733 305.649 193.36 305.129 192.88C304.623 192.4 304.229 191.827 303.949 191.16C303.669 190.493 303.529 189.747 303.529 188.92C303.529 188.067 303.663 187.3 303.929 186.62C304.196 185.927 304.576 185.34 305.069 184.86C305.563 184.38 306.156 184.013 306.849 183.76C307.556 183.493 308.349 183.36 309.229 183.36C310.096 183.36 310.876 183.493 311.569 183.76C312.263 184.013 312.849 184.387 313.329 184.88C313.809 185.373 314.176 185.98 314.429 186.7C314.683 187.407 314.809 188.207 314.809 189.1V189.48H307.189ZM320.239 188.84C320.239 189.173 320.299 189.487 320.419 189.78C320.539 190.06 320.699 190.307 320.899 190.52C321.112 190.733 321.359 190.9 321.639 191.02C321.932 191.14 322.245 191.2 322.579 191.2C322.899 191.2 323.199 191.14 323.479 191.02C323.772 190.9 324.019 190.733 324.219 190.52C324.432 190.307 324.599 190.06 324.719 189.78C324.852 189.5 324.919 189.2 324.919 188.88C324.919 188.56 324.852 188.26 324.719 187.98C324.599 187.687 324.432 187.433 324.219 187.22C324.019 187.007 323.772 186.84 323.479 186.72C323.199 186.6 322.899 186.54 322.579 186.54C322.259 186.54 321.952 186.6 321.659 186.72C321.379 186.84 321.132 187.007 320.919 187.22C320.719 187.433 320.552 187.68 320.419 187.96C320.299 188.227 320.239 188.52 320.239 188.84ZM324.799 177.4H328.439V194H324.799V192.86C324.025 193.833 322.979 194.32 321.659 194.32C320.912 194.32 320.225 194.18 319.599 193.9C318.972 193.62 318.425 193.233 317.959 192.74C317.492 192.247 317.125 191.667 316.859 191C316.605 190.333 316.479 189.613 316.479 188.84C316.479 188.107 316.599 187.413 316.839 186.76C317.092 186.093 317.445 185.513 317.899 185.02C318.352 184.527 318.892 184.14 319.519 183.86C320.159 183.567 320.859 183.42 321.619 183.42C322.899 183.42 323.959 183.867 324.799 184.76V177.4ZM212.252 215.82C212.252 216.167 212.312 216.487 212.432 216.78C212.565 217.06 212.732 217.307 212.932 217.52C213.145 217.733 213.392 217.9 213.672 218.02C213.965 218.14 214.272 218.2 214.592 218.2C214.912 218.2 215.212 218.14 215.492 218.02C215.785 217.9 216.032 217.733 216.232 217.52C216.445 217.307 216.612 217.06 216.732 216.78C216.865 216.487 216.932 216.173 216.932 215.84C216.932 215.52 216.865 215.22 216.732 214.94C216.612 214.647 216.445 214.393 216.232 214.18C216.032 213.967 215.785 213.8 215.492 213.68C215.212 213.56 214.912 213.5 214.592 213.5C214.272 213.5 213.965 213.56 213.672 213.68C213.392 213.8 213.145 213.967 212.932 214.18C212.732 214.393 212.565 214.64 212.432 214.92C212.312 215.2 212.252 215.5 212.252 215.82ZM208.432 215.78C208.432 215.02 208.585 214.313 208.892 213.66C209.198 212.993 209.625 212.42 210.172 211.94C210.718 211.447 211.365 211.06 212.112 210.78C212.872 210.5 213.698 210.36 214.592 210.36C215.472 210.36 216.285 210.5 217.032 210.78C217.792 211.047 218.445 211.427 218.992 211.92C219.552 212.4 219.985 212.98 220.292 213.66C220.598 214.327 220.752 215.067 220.752 215.88C220.752 216.693 220.592 217.44 220.272 218.12C219.965 218.787 219.538 219.367 218.992 219.86C218.445 220.34 217.785 220.713 217.012 220.98C216.252 221.247 215.425 221.38 214.532 221.38C213.652 221.38 212.838 221.247 212.092 220.98C211.345 220.713 210.698 220.333 210.152 219.84C209.618 219.347 209.198 218.76 208.892 218.08C208.585 217.387 208.432 216.62 208.432 215.78ZM226.756 213.76V221H223.136V213.76H221.836V210.74H223.136V209.2C223.136 208.347 223.216 207.667 223.376 207.16C223.509 206.733 223.722 206.34 224.016 205.98C224.309 205.607 224.649 205.287 225.036 205.02C225.436 204.753 225.862 204.547 226.316 204.4C226.769 204.253 227.216 204.18 227.656 204.18C227.962 204.18 228.242 204.213 228.496 204.28C228.762 204.347 229.029 204.44 229.296 204.56V207.72C229.056 207.6 228.829 207.513 228.616 207.46C228.416 207.393 228.202 207.36 227.976 207.36C227.829 207.36 227.676 207.387 227.516 207.44C227.369 207.48 227.229 207.573 227.096 207.72C226.962 207.867 226.869 208.08 226.816 208.36C226.776 208.627 226.756 208.993 226.756 209.46V210.74H229.296V213.76H226.756Z" fill="#367A17"/>
</g>
</g>
<defs>
<filter id="filter0_d" x="104.338" y="96.18" width="228.101" height="133.2" filterUnits="userSpaceOnUse" color-interpolation-filters="sRGB">
<feFlood flood-opacity="0" result="BackgroundImageFix"/>
<feColorMatrix in="SourceAlpha" type="matrix" values="0 0 0 0 0 0 0 0 0 0 0 0 0 0 0 0 0 0 127 0"/>
<feOffset dy="4"/>
<feGaussianBlur stdDeviation="2"/>
<feColorMatrix type="matrix" values="0 0 0 0 0 0 0 0 0 0 0 0 0 0 0 0 0 0 0.25 0"/>
<feBlend mode="normal" in2="BackgroundImageFix" result="effect1_dropShadow"/>
<feBlend mode="normal" in="SourceGraphic" in2="effect1_dropShadow" result="shape"/>
</filter>
<linearGradient id="paint0_linear" x1="47.6252" y1="168.732" x2="371.005" y2="168.732" gradientUnits="userSpaceOnUse">
<stop offset="0.005618" stop-color="#DBF2F7"/>
<stop offset="1" stop-color="#B3E2EE"/>
</linearGradient>
<linearGradient id="paint1_linear" x1="68.8907" y1="166.419" x2="214.081" y2="166.419" gradientUnits="userSpaceOnUse">
<stop offset="0.005618" stop-color="#DBF2F7"/>
<stop offset="1" stop-color="#B3E2EE"/>
</linearGradient>
<linearGradient id="paint2_linear" x1="262.479" y1="169.1" x2="280.032" y2="169.1" gradientUnits="userSpaceOnUse">
<stop offset="0.005618" stop-color="#DBF2F7"/>
<stop offset="1" stop-color="#B3E2EE"/>
</linearGradient>
<linearGradient id="paint3_linear" x1="290.344" y1="168.733" x2="308.184" y2="168.733" gradientUnits="userSpaceOnUse">
<stop offset="0.005618" stop-color="#DBF2F7"/>
<stop offset="1" stop-color="#B3E2EE"/>
</linearGradient>
<clipPath id="clip0">
<rect width="371" height="309" fill="white"/>
</clipPath>
</defs>
</svg>
