<svg id="Layer_1" data-name="Layer 1" xmlns="http://www.w3.org/2000/svg" viewBox="0 0 476.92 474.52"><defs><style>.cls-1{fill:#1e7517;}.cls-2{fill:#8a5221;}.cls-3,.cls-5,.cls-7{fill:#c90014;}.cls-3,.cls-4,.cls-5,.cls-6,.cls-7,.cls-8{stroke:#72111b;stroke-miterlimit:10;}.cls-3{stroke-width:1.27px;}.cls-4,.cls-6,.cls-8{fill:none;stroke-linecap:round;}.cls-4{stroke-width:2.54px;}.cls-5{stroke-width:1.63px;}.cls-6{stroke-width:3.27px;}.cls-7{stroke-width:1.46px;}.cls-8{stroke-width:2.91px;}</style></defs><g id="s2HOrW"><path class="cls-1" d="M106.8,110.23s-7.23,11.9-6,25.93,7.73,20.33,7.73,20.33,9.27-2.48,7.14-19.91S106.8,110.23,106.8,110.23Z"/><path class="cls-1" d="M86.8,122.14s-1.36,11.67,4.56,22S104.44,157,104.44,157s6.24-5.16-1.52-17.78S86.8,122.14,86.8,122.14Z"/><path class="cls-1" d="M73.1,135.57s3,10.07,11.4,16.49,15.24,6,15.24,6,3.33-6.42-7.44-14.09S73.1,135.57,73.1,135.57Z"/><path class="cls-1" d="M86.66,174.29S97,176,106.46,171.18s12.06-11.11,12.06-11.11-4.34-5.79-15.93.58S86.66,174.29,86.66,174.29Z"/><path class="cls-1" d="M248.92,123.06s7.86,11.13,20.57,13.83S290,134.54,290,134.54s1.09-10.59-14.9-13.36S248.92,123.06,248.92,123.06Z"/><path class="cls-1" d="M232.77,209.09s10.35,1.72,19.8-3.11,12.05-11.11,12.05-11.11-4.33-5.78-15.93.59S232.77,209.09,232.77,209.09Z"/><path class="cls-1" d="M345.55,193s9.55-4.36,14.69-13.64S364,163.42,364,163.42s-6.82-2.38-12.88,9.38S345.55,193,345.55,193Z"/><path class="cls-1" d="M302.45,204.72s9.54-4.35,14.69-13.63,3.79-16,3.79-16-6.83-2.38-12.88,9.38S302.45,204.72,302.45,204.72Z"/><path class="cls-1" d="M120.05,186.27s10.35,1.72,19.8-3.11,12.05-11.11,12.05-11.11-4.33-5.78-15.92.59S120.05,186.27,120.05,186.27Z"/><path class="cls-1" d="M237.09,125.75s1.09,10.44,8.24,18.27,13.91,8.68,13.91,8.68,4.43-5.71-4.79-15.2S237.09,125.75,237.09,125.75Z"/><path class="cls-1" d="M285.08,85.21s9.55-4.32,14.74-13.58,3.85-15.93,3.85-15.93-6.82-2.4-12.92,9.33S285.08,85.21,285.08,85.21Z"/><path class="cls-1" d="M284.33,89.22s2.48-10.19-1.64-20S272.5,56.41,272.5,56.41s-6.09,3.9-.59,15.93S284.33,89.22,284.33,89.22Z"/><path class="cls-1" d="M252.23,110.23s8.27-6.45,11.13-16.67,0-16.39,0-16.39-7.2-.73-10.36,12.11S252.23,110.23,252.23,110.23Z"/><path class="cls-1" d="M195.46,152a31.33,31.33,0,0,0,15.67-2.86c7.58-3.77,9.82-8.38,9.82-8.38s-3.23-4-12.54.92S195.46,152,195.46,152Z"/><path class="cls-1" d="M277.27,224.38a31.3,31.3,0,0,0,15.66-2.86c7.58-3.77,9.82-8.38,9.82-8.38s-3.23-4-12.54.92S277.27,224.38,277.27,224.38Z"/><path class="cls-1" d="M204.57,148.52s-13,5-20.59,16.84-6.35,20.8-6.35,20.8,8.84,3.72,17.84-11.35S204.57,148.52,204.57,148.52Z"/><path class="cls-1" d="M263.93,158.47s-13.91,6.14-22.56,19.37-7.89,22.79-7.89,22.79,9,3.48,19.35-13.3S263.93,158.47,263.93,158.47Z"/><path class="cls-1" d="M390.45,157.42s-14.94,2.76-26.42,13.64-12.94,20.35-12.94,20.35,8,5.47,21.9-8.47S390.45,157.42,390.45,157.42Z"/><path class="cls-1" d="M177.67,113.12s5.17,12.92,17.15,20.32,20.91,6,20.91,6,3.58-8.9-11.63-17.67S177.67,113.12,177.67,113.12Z"/><path class="cls-1" d="M323.28,196.16s5.18,12.92,17.16,20.33,20.9,6,20.9,6,3.58-8.91-11.63-17.67S323.28,196.16,323.28,196.16Z"/><path class="cls-1" d="M275.21,94.05s9.93,9.76,23.87,11.74,21.57-2.87,21.57-2.87-.29-9.59-17.74-11.51S275.21,94.05,275.21,94.05Z"/><path class="cls-1" d="M203.33,41.05s2.48,9.58,10.43,14.18,14.53,2.67,14.53,2.67,3.46-7.3-6.69-12.65S203.33,41.05,203.33,41.05Z"/><path class="cls-1" d="M203.87,51.73s-9.13,3.71-12.7,12.17-.85,14.72-.85,14.72,7.61,2.46,11.64-8.27S203.87,51.73,203.87,51.73Z"/><path class="cls-1" d="M255.5,40.94s-11.39,2.61-19,11.59-7.6,16.57-7.6,16.57,7,4.15,16.14-7.34S255.5,40.94,255.5,40.94Z"/><path class="cls-1" d="M321.09,55.91s-11.39,2.6-19,11.58-7.6,16.58-7.6,16.58,7,4.15,16.14-7.34S321.09,55.91,321.09,55.91Z"/><path class="cls-1" d="M249.87,31.46A28.23,28.23,0,0,0,238,39.17c-4.95,5.66-5.27,10.16-5.27,10.16s3.95,2.14,9.92-5.07S249.87,31.46,249.87,31.46Z"/><path class="cls-1" d="M208.06,66.87s-.94,9.85,5,16.89,12.75,7.46,12.75,7.46,5.74-5.67-2-14.17S208.06,66.87,208.06,66.87Z"/><path class="cls-1" d="M158.79,41s-.93,9.85,5,16.88S176.5,65.3,176.5,65.3s5.74-5.68-2-14.17S158.79,41,158.79,41Z"/><path class="cls-1" d="M184.25,33.1s-6.72,9.2-6.3,20.53,5.62,16.72,5.62,16.72,8-1.52,7-15.63S184.25,33.1,184.25,33.1Z"/><path class="cls-1" d="M181.47,145.67s-8.22,8.39-9.87,20.17S174,184,174,184s8.1-.26,9.7-15S181.47,145.67,181.47,145.67Z"/><path class="cls-1" d="M285,178.11s-8.22,8.39-9.87,20.16,2.44,18.2,2.44,18.2,8.1-.26,9.7-15S285,178.11,285,178.11Z"/><path class="cls-1" d="M162.42,147.89s-3.84,9.76-1.1,20S169.66,182,169.66,182s6.57-3,2.76-15.7S162.42,147.89,162.42,147.89Z"/><path class="cls-1" d="M155.14,184s-.5,11.19,5.82,20.6S174.27,216,174.27,216s5.58-5.33-2.65-16.81S155.14,184,155.14,184Z"/><path class="cls-1" d="M145.63,200.16s3.55,8.77,11.71,13.76,14.21,4,14.21,4,2.41-6.06-8-12S145.63,200.16,145.63,200.16Z"/><path class="cls-1" d="M141.15,214.93a28.67,28.67,0,0,0,14.41,7.24c8.44,1.27,13.09-1.63,13.09-1.63s-.13-5.81-10.7-7.07S141.15,214.93,141.15,214.93Z"/><path class="cls-1" d="M267.43,229.28a28.61,28.61,0,0,0,14.41,7.23c8.45,1.27,13.09-1.62,13.09-1.62s-.13-5.82-10.7-7.08S267.43,229.28,267.43,229.28Z"/><path class="cls-1" d="M136.71,120.3s-6,12.58-3.23,26.4,9.8,19.42,9.8,19.42,9-3.43,5-20.54S136.71,120.3,136.71,120.3Z"/><path class="cls-1" d="M329.9,148.52s-6,12.59-3.24,26.4,9.8,19.43,9.8,19.43,9-3.43,5-20.54S329.9,148.52,329.9,148.52Z"/><path class="cls-2" d="M306.77,436.44a187.68,187.68,0,0,0-30.38-11.39c-17.08-4.75-34.17-9.5-37-59.81s-11.39-81.63,0-96.82,47.46-80.69,134.8-75c0,0-26.58-19.93-125.31,38,0,0-18.15,8.54-15.25-67.4,5.76-36.07,43.73-89.23,82.65-72.14,0,0-5.69-11.39-25.63-9.49S242.41,131.73,233.3,126s4.44-81.63,0-81.63-6.27,67.39-12.91,66.44S207.1,60.53,153,57.69c35.19,22.78,44.68,41.76,62.65,74,0,0,6.15,44.42-.38,69.37,0,0-1.49,8.32-40.7-19.6,0,0-37-30.9-91.49-24.66,0,0,78.27,2.38,118.67,61.19,0,0-22.28-11.28-39.8,2.68,0,0,35.35-8,44.56,12.77s13.36,28.52,9.8,93.28,10.69,80-63.57,109.68c0,0,14,9.44,55-14.33,0,0-.59,19,1.19,23.17,0,0,12.48-21.39,27.63-22s25.25,12.48,34.16,13.37S301.88,432.94,306.77,436.44Z"/><path class="cls-3" d="M161.94,102.85c-.58,2.4-1.81,5-4.48,5,4,3.09,6.17,0,6.17,0s-.35,3.8,2.43,4.27a3.81,3.81,0,0,1,.89-4.64c.31-.12.19,3.58,2.35,4.08.62-2-.92-3.59.49-4.51,1.43,1.55,4.87.8,4.87.8s-3.8-.16-5.26-4.86a16.82,16.82,0,1,0-7.46-.13Z"/><path class="cls-4" d="M168.52,97.8s8.92-.31,8.92-10.78-8.92-10.78-8.92-10.78"/><path class="cls-3" d="M277.18,125c-.57,2.41-1.8,5-4.47,5,4,3.08,6.16,0,6.16,0s-.34,3.79,2.44,4.26a3.78,3.78,0,0,1,.89-4.63c.31-.13.19,3.58,2.35,4.07.61-2-.92-3.59.49-4.5,1.42,1.54,4.87.8,4.87.8s-3.81-.16-5.26-4.86a16.84,16.84,0,1,0-7.47-.14Z"/><path class="cls-4" d="M283.77,120s8.92-.3,8.92-10.78-8.92-10.78-8.92-10.78"/><path class="cls-5" d="M319.74,243.39c-.71,3.21-2.24,6.67-5.55,6.67,5,4.12,7.65,0,7.65,0s-.43,5.07,3,5.7a5.32,5.32,0,0,1,1.11-6.19c.38-.16.23,4.78,2.91,5.44.77-2.72-1.14-4.8.61-6,1.77,2.06,6.05,1.07,6.05,1.07s-4.73-.21-6.53-6.49c9.44-2.13,16.54-11.14,16.54-21.94,0-12.39-9.34-22.43-20.85-22.43s-20.85,10-20.85,22.43C303.85,232.18,310.63,241,319.74,243.39Z"/><path class="cls-6" d="M327.91,236.65S339,236.24,339,222.26s-11.07-14.4-11.07-14.4"/><path class="cls-3" d="M174.56,250.67c-.57,2.41-1.8,5-4.47,5,4,3.08,6.16,0,6.16,0s-.34,3.79,2.44,4.27a3.79,3.79,0,0,1,.89-4.64c.31-.12.19,3.58,2.35,4.07.61-2-.92-3.59.49-4.5,1.42,1.54,4.87.8,4.87.8s-3.81-.16-5.26-4.86a16.84,16.84,0,1,0-7.47-.14Z"/><path class="cls-4" d="M181.15,245.62s8.92-.3,8.92-10.77-8.92-10.79-8.92-10.79"/><path class="cls-7" d="M117.7,204.1c-.65,2.81-2,5.84-5,5.84,4.54,3.61,6.95,0,6.95,0s-.39,4.44,2.75,5a4.54,4.54,0,0,1,1-5.42c.34-.14.2,4.19,2.64,4.77.7-2.39-1-4.2.56-5.27,1.6,1.8,5.49.93,5.49.93s-4.29-.19-5.93-5.68a19.49,19.49,0,0,0,15-19.22c0-10.85-8.49-19.65-19-19.65s-18.94,8.8-18.94,19.65A19.5,19.5,0,0,0,117.7,204.1Z"/><path class="cls-8" d="M125.12,198.19s10.06-.35,10.06-12.6S125.12,173,125.12,173"/></g></svg>