<svg width="352" height="118" viewBox="0 0 352 118" fill="none" xmlns="http://www.w3.org/2000/svg">
<g filter="url(#filter0_d)">
<path d="M153.24 55.3488H138.672L143.16 50.6928C144.344 49.4608 145.272 48.4208 145.944 47.5728C146.616 46.7088 147.112 45.9808 147.432 45.3888C147.768 44.7968 147.976 44.3168 148.056 43.9488C148.136 43.5808 148.176 43.2688 148.176 43.0128C148.176 42.7408 148.128 42.4768 148.032 42.2208C147.952 41.9648 147.824 41.7408 147.648 41.5488C147.472 41.3408 147.256 41.1808 147 41.0688C146.76 40.9408 146.472 40.8768 146.136 40.8768C145.496 40.8768 144.992 41.0848 144.624 41.5008C144.272 41.9168 144.096 42.4368 144.096 43.0608C144.096 43.2368 144.12 43.4928 144.168 43.8288H139.032C139.032 42.7728 139.2 41.8128 139.536 40.9488C139.888 40.0848 140.376 39.3408 141 38.7168C141.624 38.0928 142.36 37.6128 143.208 37.2768C144.072 36.9408 145.016 36.7728 146.04 36.7728C147.048 36.7728 147.976 36.9328 148.824 37.2528C149.688 37.5728 150.432 38.0208 151.056 38.5968C151.68 39.1728 152.168 39.8608 152.52 40.6608C152.872 41.4448 153.048 42.3008 153.048 43.2288C153.048 44.2208 152.832 45.1408 152.4 45.9888C151.984 46.8208 151.312 47.6768 150.384 48.5568L147.384 51.3648H153.24V55.3488ZM157.145 50.7648H161.225L156.809 58.7088H154.024L157.145 50.7648ZM171.541 48.0288V40.9008L167.389 48.0288H171.541ZM175.909 48.0288H178.093V51.6288H175.909V55.3488H171.541V51.6288H162.805V48.6048L169.717 37.2528H175.909V48.0288ZM183.917 46.2768C183.917 47.0768 183.989 47.8048 184.133 48.4608C184.277 49.1168 184.477 49.6848 184.733 50.1648C185.005 50.6448 185.325 51.0208 185.693 51.2928C186.061 51.5488 186.477 51.6768 186.941 51.6768C187.389 51.6768 187.797 51.5488 188.165 51.2928C188.549 51.0208 188.869 50.6448 189.125 50.1648C189.381 49.6848 189.581 49.1168 189.725 48.4608C189.869 47.8048 189.941 47.0768 189.941 46.2768C189.941 45.4928 189.869 44.7728 189.725 44.1168C189.581 43.4448 189.381 42.8768 189.125 42.4128C188.869 41.9328 188.549 41.5648 188.165 41.3088C187.797 41.0368 187.389 40.9008 186.941 40.9008C186.477 40.9008 186.061 41.0368 185.693 41.3088C185.325 41.5648 185.005 41.9328 184.733 42.4128C184.477 42.8768 184.277 43.4448 184.133 44.1168C183.989 44.7728 183.917 45.4928 183.917 46.2768ZM179.261 46.2768C179.261 44.8368 179.445 43.5328 179.813 42.3648C180.197 41.1808 180.725 40.1728 181.397 39.3408C182.085 38.5088 182.893 37.8688 183.821 37.4208C184.765 36.9568 185.805 36.7248 186.941 36.7248C188.061 36.7248 189.093 36.9568 190.037 37.4208C190.981 37.8688 191.789 38.5088 192.461 39.3408C193.133 40.1728 193.653 41.1808 194.021 42.3648C194.405 43.5328 194.597 44.8368 194.597 46.2768C194.597 47.7168 194.405 49.0288 194.021 50.2128C193.653 51.3808 193.133 52.3888 192.461 53.2368C191.789 54.0688 190.981 54.7168 190.037 55.1808C189.093 55.6288 188.061 55.8528 186.941 55.8528C185.805 55.8528 184.765 55.6288 183.821 55.1808C182.893 54.7168 182.085 54.0688 181.397 53.2368C180.725 52.3888 180.197 51.3808 179.813 50.2128C179.445 49.0288 179.261 47.7168 179.261 46.2768ZM200.23 46.2768C200.23 47.0768 200.302 47.8048 200.446 48.4608C200.59 49.1168 200.79 49.6848 201.046 50.1648C201.318 50.6448 201.638 51.0208 202.006 51.2928C202.374 51.5488 202.79 51.6768 203.254 51.6768C203.702 51.6768 204.11 51.5488 204.478 51.2928C204.862 51.0208 205.182 50.6448 205.438 50.1648C205.694 49.6848 205.894 49.1168 206.038 48.4608C206.182 47.8048 206.254 47.0768 206.254 46.2768C206.254 45.4928 206.182 44.7728 206.038 44.1168C205.894 43.4448 205.694 42.8768 205.438 42.4128C205.182 41.9328 204.862 41.5648 204.478 41.3088C204.11 41.0368 203.702 40.9008 203.254 40.9008C202.79 40.9008 202.374 41.0368 202.006 41.3088C201.638 41.5648 201.318 41.9328 201.046 42.4128C200.79 42.8768 200.59 43.4448 200.446 44.1168C200.302 44.7728 200.23 45.4928 200.23 46.2768ZM195.574 46.2768C195.574 44.8368 195.758 43.5328 196.126 42.3648C196.51 41.1808 197.038 40.1728 197.71 39.3408C198.398 38.5088 199.206 37.8688 200.134 37.4208C201.078 36.9568 202.118 36.7248 203.254 36.7248C204.374 36.7248 205.406 36.9568 206.35 37.4208C207.294 37.8688 208.102 38.5088 208.774 39.3408C209.446 40.1728 209.966 41.1808 210.334 42.3648C210.718 43.5328 210.91 44.8368 210.91 46.2768C210.91 47.7168 210.718 49.0288 210.334 50.2128C209.966 51.3808 209.446 52.3888 208.774 53.2368C208.102 54.0688 207.294 54.7168 206.35 55.1808C205.406 55.6288 204.374 55.8528 203.254 55.8528C202.118 55.8528 201.078 55.6288 200.134 55.1808C199.206 54.7168 198.398 54.0688 197.71 53.2368C197.038 52.3888 196.51 51.3808 196.126 50.2128C195.758 49.0288 195.574 47.7168 195.574 46.2768ZM214.238 50.7648H218.318L213.902 58.7088H211.118L214.238 50.7648ZM224.699 46.2768C224.699 47.0768 224.771 47.8048 224.915 48.4608C225.059 49.1168 225.259 49.6848 225.515 50.1648C225.787 50.6448 226.107 51.0208 226.475 51.2928C226.843 51.5488 227.259 51.6768 227.723 51.6768C228.171 51.6768 228.579 51.5488 228.947 51.2928C229.331 51.0208 229.651 50.6448 229.907 50.1648C230.163 49.6848 230.363 49.1168 230.507 48.4608C230.651 47.8048 230.723 47.0768 230.723 46.2768C230.723 45.4928 230.651 44.7728 230.507 44.1168C230.363 43.4448 230.163 42.8768 229.907 42.4128C229.651 41.9328 229.331 41.5648 228.947 41.3088C228.579 41.0368 228.171 40.9008 227.723 40.9008C227.259 40.9008 226.843 41.0368 226.475 41.3088C226.107 41.5648 225.787 41.9328 225.515 42.4128C225.259 42.8768 225.059 43.4448 224.915 44.1168C224.771 44.7728 224.699 45.4928 224.699 46.2768ZM220.043 46.2768C220.043 44.8368 220.227 43.5328 220.595 42.3648C220.979 41.1808 221.507 40.1728 222.179 39.3408C222.867 38.5088 223.675 37.8688 224.603 37.4208C225.547 36.9568 226.587 36.7248 227.723 36.7248C228.843 36.7248 229.875 36.9568 230.819 37.4208C231.763 37.8688 232.571 38.5088 233.243 39.3408C233.915 40.1728 234.435 41.1808 234.803 42.3648C235.187 43.5328 235.379 44.8368 235.379 46.2768C235.379 47.7168 235.187 49.0288 234.803 50.2128C234.435 51.3808 233.915 52.3888 233.243 53.2368C232.571 54.0688 231.763 54.7168 230.819 55.1808C229.875 55.6288 228.843 55.8528 227.723 55.8528C226.587 55.8528 225.547 55.6288 224.603 55.1808C223.675 54.7168 222.867 54.0688 222.179 53.2368C221.507 52.3888 220.979 51.3808 220.595 50.2128C220.227 49.0288 220.043 47.7168 220.043 46.2768ZM241.011 46.2768C241.011 47.0768 241.083 47.8048 241.227 48.4608C241.371 49.1168 241.571 49.6848 241.827 50.1648C242.099 50.6448 242.419 51.0208 242.787 51.2928C243.155 51.5488 243.571 51.6768 244.035 51.6768C244.483 51.6768 244.891 51.5488 245.259 51.2928C245.643 51.0208 245.963 50.6448 246.219 50.1648C246.475 49.6848 246.675 49.1168 246.819 48.4608C246.963 47.8048 247.035 47.0768 247.035 46.2768C247.035 45.4928 246.963 44.7728 246.819 44.1168C246.675 43.4448 246.475 42.8768 246.219 42.4128C245.963 41.9328 245.643 41.5648 245.259 41.3088C244.891 41.0368 244.483 40.9008 244.035 40.9008C243.571 40.9008 243.155 41.0368 242.787 41.3088C242.419 41.5648 242.099 41.9328 241.827 42.4128C241.571 42.8768 241.371 43.4448 241.227 44.1168C241.083 44.7728 241.011 45.4928 241.011 46.2768ZM236.355 46.2768C236.355 44.8368 236.539 43.5328 236.907 42.3648C237.291 41.1808 237.819 40.1728 238.491 39.3408C239.179 38.5088 239.987 37.8688 240.915 37.4208C241.859 36.9568 242.899 36.7248 244.035 36.7248C245.155 36.7248 246.187 36.9568 247.131 37.4208C248.075 37.8688 248.883 38.5088 249.555 39.3408C250.227 40.1728 250.747 41.1808 251.115 42.3648C251.499 43.5328 251.691 44.8368 251.691 46.2768C251.691 47.7168 251.499 49.0288 251.115 50.2128C250.747 51.3808 250.227 52.3888 249.555 53.2368C248.883 54.0688 248.075 54.7168 247.131 55.1808C246.187 55.6288 245.155 55.8528 244.035 55.8528C242.899 55.8528 241.859 55.6288 240.915 55.1808C239.987 54.7168 239.179 54.0688 238.491 53.2368C237.819 52.3888 237.291 51.3808 236.907 50.2128C236.539 49.0288 236.355 47.7168 236.355 46.2768ZM257.324 46.2768C257.324 47.0768 257.396 47.8048 257.54 48.4608C257.684 49.1168 257.884 49.6848 258.14 50.1648C258.412 50.6448 258.732 51.0208 259.1 51.2928C259.468 51.5488 259.884 51.6768 260.348 51.6768C260.796 51.6768 261.204 51.5488 261.572 51.2928C261.956 51.0208 262.276 50.6448 262.532 50.1648C262.788 49.6848 262.988 49.1168 263.132 48.4608C263.276 47.8048 263.348 47.0768 263.348 46.2768C263.348 45.4928 263.276 44.7728 263.132 44.1168C262.988 43.4448 262.788 42.8768 262.532 42.4128C262.276 41.9328 261.956 41.5648 261.572 41.3088C261.204 41.0368 260.796 40.9008 260.348 40.9008C259.884 40.9008 259.468 41.0368 259.1 41.3088C258.732 41.5648 258.412 41.9328 258.14 42.4128C257.884 42.8768 257.684 43.4448 257.54 44.1168C257.396 44.7728 257.324 45.4928 257.324 46.2768ZM252.668 46.2768C252.668 44.8368 252.852 43.5328 253.22 42.3648C253.604 41.1808 254.132 40.1728 254.804 39.3408C255.492 38.5088 256.3 37.8688 257.228 37.4208C258.172 36.9568 259.212 36.7248 260.348 36.7248C261.468 36.7248 262.5 36.9568 263.444 37.4208C264.388 37.8688 265.196 38.5088 265.868 39.3408C266.54 40.1728 267.06 41.1808 267.428 42.3648C267.812 43.5328 268.004 44.8368 268.004 46.2768C268.004 47.7168 267.812 49.0288 267.428 50.2128C267.06 51.3808 266.54 52.3888 265.868 53.2368C265.196 54.0688 264.388 54.7168 263.444 55.1808C262.5 55.6288 261.468 55.8528 260.348 55.8528C259.212 55.8528 258.172 55.6288 257.228 55.1808C256.3 54.7168 255.492 54.0688 254.804 53.2368C254.132 52.3888 253.604 51.3808 253.22 50.2128C252.852 49.0288 252.668 47.7168 252.668 46.2768ZM142.95 72.0048H144.12C145.416 72.0048 146.064 71.4408 146.064 70.3128C146.064 69.1848 145.416 68.6208 144.12 68.6208H142.95V72.0048ZM142.95 79.3488H139.422V65.7768H145.038C146.562 65.7768 147.726 66.1728 148.53 66.9648C149.346 67.7568 149.754 68.8728 149.754 70.3128C149.754 71.7528 149.346 72.8688 148.53 73.6608C147.726 74.4528 146.562 74.8488 145.038 74.8488H142.95V79.3488ZM154.699 72.5628C154.699 73.1028 154.801 73.6008 155.005 74.0568C155.209 74.5128 155.485 74.9088 155.833 75.2448C156.181 75.5808 156.583 75.8448 157.039 76.0368C157.507 76.2168 157.999 76.3068 158.515 76.3068C159.031 76.3068 159.517 76.2168 159.973 76.0368C160.441 75.8448 160.849 75.5808 161.197 75.2448C161.557 74.9088 161.839 74.5128 162.043 74.0568C162.247 73.6008 162.349 73.1028 162.349 72.5628C162.349 72.0228 162.247 71.5248 162.043 71.0688C161.839 70.6128 161.557 70.2168 161.197 69.8808C160.849 69.5448 160.441 69.2868 159.973 69.1068C159.517 68.9148 159.031 68.8188 158.515 68.8188C157.999 68.8188 157.507 68.9148 157.039 69.1068C156.583 69.2868 156.181 69.5448 155.833 69.8808C155.485 70.2168 155.209 70.6128 155.005 71.0688C154.801 71.5248 154.699 72.0228 154.699 72.5628ZM151.009 72.5628C151.009 71.5548 151.195 70.6188 151.567 69.7548C151.939 68.8788 152.455 68.1168 153.115 67.4688C153.775 66.8208 154.561 66.3168 155.473 65.9568C156.397 65.5848 157.411 65.3988 158.515 65.3988C159.607 65.3988 160.615 65.5848 161.539 65.9568C162.463 66.3168 163.255 66.8208 163.915 67.4688C164.587 68.1168 165.109 68.8788 165.481 69.7548C165.853 70.6188 166.039 71.5548 166.039 72.5628C166.039 73.5708 165.853 74.5128 165.481 75.3888C165.109 76.2528 164.587 77.0088 163.915 77.6568C163.255 78.3048 162.463 78.8148 161.539 79.1868C160.615 79.5468 159.607 79.7268 158.515 79.7268C157.411 79.7268 156.397 79.5468 155.473 79.1868C154.561 78.8148 153.775 78.3048 153.115 77.6568C152.455 77.0088 151.939 76.2528 151.567 75.3888C151.195 74.5128 151.009 73.5708 151.009 72.5628ZM173.275 68.7648V79.3488H169.747V68.7648H166.849V65.7768H176.173V68.7648H173.275ZM184.49 74.3088L182.906 69.7908L181.322 74.3088H184.49ZM185.426 76.9908H180.386L179.576 79.3488H175.814L180.979 65.7768H184.832L189.998 79.3488H186.236L185.426 76.9908ZM196.091 68.7648V79.3488H192.563V68.7648H189.665V65.7768H198.989V68.7648H196.091ZM203.514 72.5628C203.514 73.1028 203.616 73.6008 203.82 74.0568C204.024 74.5128 204.3 74.9088 204.648 75.2448C204.996 75.5808 205.398 75.8448 205.854 76.0368C206.322 76.2168 206.814 76.3068 207.33 76.3068C207.846 76.3068 208.332 76.2168 208.788 76.0368C209.256 75.8448 209.664 75.5808 210.012 75.2448C210.372 74.9088 210.654 74.5128 210.858 74.0568C211.062 73.6008 211.164 73.1028 211.164 72.5628C211.164 72.0228 211.062 71.5248 210.858 71.0688C210.654 70.6128 210.372 70.2168 210.012 69.8808C209.664 69.5448 209.256 69.2868 208.788 69.1068C208.332 68.9148 207.846 68.8188 207.33 68.8188C206.814 68.8188 206.322 68.9148 205.854 69.1068C205.398 69.2868 204.996 69.5448 204.648 69.8808C204.3 70.2168 204.024 70.6128 203.82 71.0688C203.616 71.5248 203.514 72.0228 203.514 72.5628ZM199.824 72.5628C199.824 71.5548 200.01 70.6188 200.382 69.7548C200.754 68.8788 201.27 68.1168 201.93 67.4688C202.59 66.8208 203.376 66.3168 204.288 65.9568C205.212 65.5848 206.226 65.3988 207.33 65.3988C208.422 65.3988 209.43 65.5848 210.354 65.9568C211.278 66.3168 212.07 66.8208 212.73 67.4688C213.402 68.1168 213.924 68.8788 214.296 69.7548C214.668 70.6188 214.854 71.5548 214.854 72.5628C214.854 73.5708 214.668 74.5128 214.296 75.3888C213.924 76.2528 213.402 77.0088 212.73 77.6568C212.07 78.3048 211.278 78.8148 210.354 79.1868C209.43 79.5468 208.422 79.7268 207.33 79.7268C206.226 79.7268 205.212 79.5468 204.288 79.1868C203.376 78.8148 202.59 78.3048 201.93 77.6568C201.27 77.0088 200.754 76.2528 200.382 75.3888C200.01 74.5128 199.824 73.5708 199.824 72.5628ZM224.804 68.7648H220.61V71.0328H224.57V74.0208H220.61V76.3608H224.804V79.3488H217.082V65.7768H224.804V68.7648ZM234.8 69.2508C234.416 68.9388 234.032 68.7108 233.648 68.5668C233.264 68.4108 232.892 68.3328 232.532 68.3328C232.076 68.3328 231.704 68.4408 231.416 68.6568C231.128 68.8728 230.984 69.1548 230.984 69.5028C230.984 69.7428 231.056 69.9408 231.2 70.0968C231.344 70.2528 231.53 70.3908 231.758 70.5108C231.998 70.6188 232.262 70.7148 232.55 70.7988C232.85 70.8828 233.144 70.9728 233.432 71.0688C234.584 71.4528 235.424 71.9688 235.952 72.6168C236.492 73.2528 236.762 74.0868 236.762 75.1188C236.762 75.8148 236.642 76.4448 236.402 77.0088C236.174 77.5728 235.832 78.0588 235.376 78.4668C234.932 78.8628 234.38 79.1688 233.72 79.3848C233.072 79.6128 232.334 79.7268 231.506 79.7268C229.79 79.7268 228.2 79.2168 226.736 78.1968L228.248 75.3528C228.776 75.8208 229.298 76.1688 229.814 76.3968C230.33 76.6248 230.84 76.7388 231.344 76.7388C231.92 76.7388 232.346 76.6068 232.622 76.3428C232.91 76.0788 233.054 75.7788 233.054 75.4428C233.054 75.2388 233.018 75.0648 232.946 74.9208C232.874 74.7648 232.754 74.6268 232.586 74.5068C232.418 74.3748 232.196 74.2548 231.92 74.1468C231.656 74.0388 231.332 73.9188 230.948 73.7868C230.492 73.6428 230.042 73.4868 229.598 73.3188C229.166 73.1388 228.776 72.9048 228.428 72.6168C228.092 72.3288 227.816 71.9688 227.6 71.5368C227.396 71.0928 227.294 70.5348 227.294 69.8628C227.294 69.1908 227.402 68.5848 227.618 68.0448C227.846 67.4928 228.158 67.0248 228.554 66.6408C228.962 66.2448 229.454 65.9388 230.03 65.7228C230.618 65.5068 231.272 65.3988 231.992 65.3988C232.664 65.3988 233.366 65.4948 234.098 65.6868C234.83 65.8668 235.532 66.1368 236.204 66.4968L234.8 69.2508Z" fill="white"/>
</g>
<path d="M67.2517 113.563L60.9573 115.287C39.5896 121.139 19.1777 114.685 8.04445 94C-3.08884 73.3148 -0.350744 49.8415 2.6582 37.7342C5.66688 25.6266 12.988 8.33705 30.8576 3.44332C51.6769 -2.25831 73.3951 9.49205 77.8209 28.8525L81.9519 46.9223C82.3961 48.8653 83.028 50.7689 83.8406 52.6106L90.9583 68.7456C99.0626 87.1178 88.0932 107.856 67.2517 113.563Z" fill="#DAA88D"/>
<path d="M60.9572 115.287C68.0124 113.545 75.5618 111.259 80.9638 106.675C91.45 98.3274 96.2043 84.9703 92.2566 72.214C91.8968 71.0515 91.4649 69.8941 90.9583 68.7457L83.8405 52.6106C82.459 49.6767 81.6846 45.7624 80.9699 42.6267L77.8211 28.8525C77.4724 27.3546 77.0271 25.8766 76.4658 24.4343C73.6842 17.2723 68.4188 11.4241 61.7981 7.49579C66.1427 10.6397 69.3269 14.9501 70.5435 20.2814L71.0229 39.416C71.0244 41.9878 71.5195 44.5477 72.5686 46.9359C72.5753 46.9512 73.3017 48.2667 73.3084 48.282L78.0195 57.6256C84.7378 72.8395 75.5979 90.03 58.2668 94.7763L53.0324 96.2098C35.2637 101.076 17.7345 97.0976 8.50048 79.9697C-0.733277 62.8418 2.13444 42.0408 4.64782 32.0074C4.95758 30.7706 5.32223 29.4687 5.75079 28.1285C4.43264 31.3997 3.48043 34.447 2.65732 37.7341C0.101166 48.0202 -2.25759 66.5098 3.91672 84.5238C5.03438 87.7788 6.38242 90.9094 8.04357 94.0001C12.9144 103.05 19.5611 109.376 27.287 113.139C29.2752 114.107 31.3472 114.914 33.4871 115.546C41.948 118.06 51.3557 117.917 60.9572 115.287Z" fill="#B57551"/>
<path d="M17.3949 57.3444C16.0142 57.3444 14.8514 56.3698 14.7584 55.0984C14.0832 45.8491 15.7446 36.5935 19.563 28.3325C20.1292 27.1077 21.6803 26.5328 23.026 27.0472C24.3728 27.5621 25.0052 28.9721 24.4393 30.1967C20.9378 37.7721 19.4153 46.2726 20.0364 54.7799C20.133 56.1052 19.0298 57.2511 17.5725 57.339C17.5132 57.3427 17.4537 57.3444 17.3949 57.3444Z" fill="white"/>
<path d="M28.0976 22.281C27.4526 22.281 26.8063 22.068 26.2971 21.637C25.2276 20.7321 25.1668 19.2101 26.1618 18.2377C26.5849 17.824 26.9836 17.3696 27.4057 16.8882C28.3345 15.8293 29.3872 14.6294 30.8919 13.7242C32.1108 12.9916 33.7514 13.2961 34.5567 14.4039C35.3623 15.5122 35.0275 17.0045 33.8094 17.7371C33.0012 18.2229 32.3245 18.9945 31.5408 19.8879C31.0759 20.4183 30.595 20.9665 30.035 21.5137C29.5137 22.0235 28.8063 22.281 28.0976 22.281Z" fill="white"/>
<path d="M47.8748 58.6822C46.9983 58.6822 46.2878 58.036 46.2878 57.2389V54.3605C46.2878 53.5634 46.9983 52.9172 47.8748 52.9172C48.751 52.9172 49.4617 53.5634 49.4617 54.3605V57.2389C49.4615 58.036 48.751 58.6822 47.8748 58.6822Z" fill="#924F1F"/>
<path d="M63.4373 52.9438C62.5608 52.9438 61.8503 52.2976 61.8503 51.5005V48.6222C61.8503 47.8251 62.5608 47.1789 63.4373 47.1789C64.3137 47.1789 65.0242 47.8251 65.0242 48.6222V51.5005C65.0242 52.2976 64.3137 52.9438 63.4373 52.9438Z" fill="#924F1F"/>
<path d="M58.9157 64.5157C58.0395 64.5157 57.3287 63.8696 57.3287 63.0725V60.1942C57.3287 59.3971 58.0392 58.751 58.9157 58.751C59.7921 58.751 60.5026 59.3971 60.5026 60.1942V63.0725C60.5026 63.8696 59.7921 64.5157 58.9157 64.5157Z" fill="#924F1F"/>
<path d="M34.2047 76.0876C33.3282 76.0876 32.6177 75.4415 32.6177 74.6444V71.766C32.6177 70.9689 33.3282 70.3228 34.2047 70.3228C35.0809 70.3228 35.7916 70.9689 35.7916 71.766V74.6444C35.7916 75.4412 35.0811 76.0876 34.2047 76.0876Z" fill="#924F1F"/>
<path d="M53.4477 81.0602C52.5715 81.0602 51.8607 80.4141 51.8607 79.617V76.7387C51.8607 75.9419 52.5712 75.2955 53.4477 75.2955C54.3241 75.2955 55.0346 75.9416 55.0346 76.7387V79.617C55.0346 80.4141 54.3241 81.0602 53.4477 81.0602Z" fill="#924F1F"/>
<path d="M37.6471 36.897C36.7707 36.897 36.0602 36.2508 36.0602 35.4536V32.5754C36.0602 31.7783 36.7707 31.1321 37.6471 31.1321C38.5236 31.1321 39.234 31.7783 39.234 32.5754V35.4539C39.2338 36.2508 38.5233 36.897 37.6471 36.897Z" fill="#924F1F"/>
<path d="M60.1752 101.8C59.5969 101.8 59.0395 101.512 58.7596 101.011C58.3623 100.301 58.6733 99.4318 59.4547 99.0706C69.0113 94.6498 74.8089 88.1767 76.686 79.8313C78.1126 73.4877 76.6625 68.202 76.3453 67.4649C75.9598 66.8499 76.1211 66.0551 76.7543 65.6098C77.448 65.1223 78.444 65.2381 78.9803 65.8688C79.6818 66.6943 81.5514 73.3285 79.6619 80.9734C78.1361 87.1481 73.641 95.7464 60.8932 101.643C60.6628 101.75 60.4172 101.8 60.1752 101.8ZM76.4682 67.6327C76.4687 67.6332 76.469 67.6339 76.4695 67.6343C76.469 67.6339 76.4687 67.6334 76.4682 67.6327ZM76.3298 67.4302V67.4304C76.3298 67.4304 76.3298 67.4304 76.3298 67.4302Z" fill="#924F1F"/>
<path d="M47.6074 105.832C46.8333 105.832 46.1558 105.316 46.0396 104.599C45.912 103.81 46.5114 103.077 47.3789 102.961C50.386 102.558 52.9932 101.686 53.0192 101.677C53.8402 101.399 54.7538 101.781 55.0589 102.528C55.364 103.275 54.9448 104.106 54.1232 104.383C54.0044 104.423 51.174 105.371 47.8407 105.817C47.7623 105.827 47.6845 105.832 47.6074 105.832Z" fill="#924F1F"/>
<path d="M96.9557 0.588696L99.1281 6.14437C99.2211 6.38226 99.4054 6.5707 99.6376 6.66586L105.065 8.88986C105.831 9.20416 105.831 10.3151 105.065 10.6294L99.6376 12.8534C99.4051 12.9486 99.2211 13.137 99.1281 13.3749L96.9557 18.9306C96.6487 19.7155 95.5633 19.7155 95.2564 18.9306L93.0839 13.3749C92.9909 13.137 92.8069 12.9486 92.5744 12.8534L87.1472 10.6294C86.3805 10.3151 86.3805 9.20416 87.1472 8.88986L92.5744 6.66586C92.8069 6.5707 92.9909 6.38226 93.0839 6.14437L95.2564 0.588696C95.5633 -0.196232 96.6487 -0.196232 96.9557 0.588696Z" fill="#FEF2A8"/>
<path d="M119.241 37.2348C119.66 34.883 117.904 32.6675 115.318 32.2862C112.732 31.905 110.296 33.5024 109.877 35.8542C109.458 38.206 111.214 40.4215 113.8 40.8028C116.386 41.184 118.822 39.5866 119.241 37.2348Z" fill="#E9A385"/>
<defs>
<filter id="filter0_d" x="134.672" y="36.7247" width="137.331" height="51.002" filterUnits="userSpaceOnUse" color-interpolation-filters="sRGB">
<feFlood flood-opacity="0" result="BackgroundImageFix"/>
<feColorMatrix in="SourceAlpha" type="matrix" values="0 0 0 0 0 0 0 0 0 0 0 0 0 0 0 0 0 0 127 0"/>
<feOffset dy="4"/>
<feGaussianBlur stdDeviation="2"/>
<feColorMatrix type="matrix" values="0 0 0 0 0.120716 0 0 0 0 0.279167 0 0 0 0 0.117483 0 0 0 0.75 0"/>
<feBlend mode="normal" in2="BackgroundImageFix" result="effect1_dropShadow"/>
<feBlend mode="normal" in="SourceGraphic" in2="effect1_dropShadow" result="shape"/>
</filter>
</defs>
</svg>
