<svg xmlns="http://www.w3.org/2000/svg" viewBox="0 0 809.73 180.93"><defs><style>.cls-1{fill:#1f841c;}.cls-2{fill:#1fa31c;}.cls-3{fill:#4c3516;}</style></defs><g id="Layer_2" data-name="Layer 2"><g id="Layer_1-2" data-name="Layer 1"><path class="cls-1" d="M672.91,65.9S647.13,17.65,563.38,12.77c0,0,21.28,52.52,91.51,47.63,0,0,19.58,16.16,22.61,26.4V33.53S670.77,56.74,672.91,65.9Z"/><path class="cls-2" d="M643.29,49.78s-22-19.91-60.46-27.85C582.83,21.93,597.49,49.55,643.29,49.78Z"/><path class="cls-1" d="M682.1,65.9s25.78-48.25,109.53-53.13c0,0-21.28,52.52-91.51,47.63,0,0-19.58,16.16-22.62,26.4V33.53S684.24,56.74,682.1,65.9Z"/><path class="cls-2" d="M711.72,49.78s22-19.91,60.46-27.85C772.18,21.93,757.52,49.55,711.72,49.78Z"/><path class="cls-1" d="M408.2,53.13S382.42,4.89,298.66,0c0,0,21.29,52.52,91.52,47.64,0,0,19.57,16.15,22.61,26.39V20.76S406.06,44,408.2,53.13Z"/><path class="cls-2" d="M378.58,37s-22-19.92-60.46-27.86C318.12,9.16,332.77,36.78,378.58,37Z"/><path class="cls-1" d="M417.39,53.13S443.16,4.89,526.92,0c0,0-21.29,52.52-91.52,47.64,0,0-19.57,16.15-22.61,26.39V20.76S419.52,44,417.39,53.13Z"/><path class="cls-2" d="M447,37S469,17.1,507.46,9.16C507.46,9.16,492.81,36.78,447,37Z"/><path class="cls-1" d="M109.53,81S83.76,32.74,0,27.86c0,0,21.29,52.52,91.52,47.63,0,0,19.57,16.15,22.61,26.4V48.62S107.39,71.83,109.53,81Z"/><path class="cls-2" d="M79.91,64.87S57.93,45,19.45,37C19.45,37,34.11,64.64,79.91,64.87Z"/><path class="cls-1" d="M118.72,81S144.5,32.74,228.26,27.86c0,0-21.29,52.52-91.52,47.63,0,0-19.57,16.15-22.61,26.4V48.62S120.86,71.83,118.72,81Z"/><path class="cls-2" d="M148.34,64.87S170.33,45,208.8,37C208.8,37,194.15,64.64,148.34,64.87Z"/><rect class="cls-3" x="15.85" y="107.45" width="793.88" height="73.47"/><ellipse class="cls-3" cx="110" cy="109.68" rx="94.15" ry="44.53"/><ellipse class="cls-3" cx="258.92" cy="97.44" rx="94.85" ry="56.77"/><ellipse class="cls-3" cx="387.98" cy="88.53" rx="104.64" ry="65.68"/><ellipse class="cls-3" cx="564.87" cy="114.13" rx="91.24" ry="40.08"/><ellipse class="cls-3" cx="564.87" cy="88.53" rx="91.28" ry="52.32"/><ellipse class="cls-3" cx="709.59" cy="107.45" rx="100.14" ry="56.77"/></g></g></svg>