<svg width="59" height="59" viewBox="0 0 59 59" fill="none" xmlns="http://www.w3.org/2000/svg">
<g clip-path="url(#clip0)">
<path d="M29.5 18.4375C23.4041 18.4375 18.4375 23.4041 18.4375 29.5C18.4375 35.5959 23.4041 40.5625 29.5 40.5625C35.5959 40.5625 40.5625 35.5959 40.5625 29.5C40.5625 23.4041 35.5959 18.4375 29.5 18.4375ZM57.8938 27.7139L46.9811 22.2633L50.8414 10.6938C51.36 9.12656 49.8734 7.64004 48.3178 8.17012L36.7482 12.0305L31.2861 1.10625C30.5486 -0.36875 28.4514 -0.36875 27.7139 1.10625L22.2633 12.0189L10.6822 8.15859C9.11504 7.64004 7.62852 9.12656 8.1586 10.6822L12.0189 22.2518L1.10625 27.7139C-0.36875 28.4514 -0.36875 30.5486 1.10625 31.2861L12.0189 36.7367L8.1586 48.3178C7.64004 49.885 9.12656 51.3715 10.6822 50.8414L22.2518 46.9811L27.7023 57.8937C28.4398 59.3687 30.5371 59.3687 31.2746 57.8937L36.7252 46.9811L48.2947 50.8414C49.8619 51.36 51.3484 49.8734 50.8184 48.3178L46.958 36.7482L57.8707 31.2977C59.3688 30.5486 59.3688 28.4514 57.8938 27.7139ZM39.9287 39.9287C34.1785 45.6789 24.8215 45.6789 19.0713 39.9287C13.3211 34.1785 13.3211 24.8215 19.0713 19.0713C24.8215 13.3211 34.1785 13.3211 39.9287 19.0713C45.6789 24.8215 45.6789 34.1785 39.9287 39.9287Z" fill="white"/>
</g>
<defs>
<clipPath id="clip0">
<rect width="59" height="59" fill="white"/>
</clipPath>
</defs>
</svg>
