<svg xmlns="http://www.w3.org/2000/svg" viewBox="0 0 373.33 371.59"><defs><style>.cls-1{fill:#65b54e;}.cls-2{fill:#2f3a5a;}.cls-3{fill:#ffc943;}.cls-4{fill:#84879c;}.cls-5{opacity:0.5;}.cls-6{fill:#707583;}.cls-7{fill:#3aad34;}</style></defs><g id="Layer_2" data-name="Layer 2"><g id="icon"><path class="cls-1" d="M251.4,368.68c-68.91-119.18-18.67-211.09-16.5-214.95l10.26,5.78-5.13-2.9,5.14,2.89c-.5.88-49,90.15,16.42,203.28Z"/><path class="cls-2" d="M251.4,371.59a2.89,2.89,0,0,1-2.51-1.46c-69.73-120.6-18.73-213.91-16.52-217.82a2.91,2.91,0,0,1,3.95-1.11L246.59,157a2.91,2.91,0,0,1,1.11,4h0c-.49.87-47.95,89.08,16.41,200.4a2.9,2.9,0,0,1-1.06,4h0l-10.2,5.9a2.94,2.94,0,0,1-1.45.39ZM236.08,157.73c-7.93,15.85-44.21,99.88,16.39,207l5.17-3c-58-102.68-23.74-185.53-16.32-201l-2.72-1.53,0,0Z"/><path class="cls-3" d="M191.94,12.66c-11.28,43.26,10.84,96.65,49.4,119.26C252.63,88.66,230.51,35.27,191.94,12.66Z"/><path class="cls-2" d="M241.34,134.83a3,3,0,0,1-1.47-.4c-39.55-23.19-62.31-78.14-50.74-122.5a2.91,2.91,0,0,1,3.54-2.08,2.83,2.83,0,0,1,.74.31C233,33.34,255.72,88.3,244.15,132.66a2.91,2.91,0,0,1-2.81,2.17ZM193.84,17.25c-8.45,40,11.34,87.79,45.6,110.08C247.89,87.33,228.1,39.56,193.84,17.25Z"/><path class="cls-3" d="M241.34,131.92c-11.28,43.26,10.83,96.65,49.4,119.26,11.29-43.25-10.83-96.65-49.4-119.26Z"/><path class="cls-2" d="M290.74,254.09a3,3,0,0,1-1.47-.4c-39.55-23.19-62.31-78.14-50.74-122.5a2.91,2.91,0,0,1,3.54-2.08,2.83,2.83,0,0,1,.74.31c39.55,23.18,62.31,78.14,50.74,122.5A2.91,2.91,0,0,1,290.74,254.09Zm-47.5-117.58c-8.45,40,11.34,87.78,45.59,110.09,8.46-40-11.33-87.78-45.59-110.09Z"/><path class="cls-3" d="M360.6,82.52C317.35,71.24,264,93.36,241.34,131.92,284.6,143.2,338,121.09,360.6,82.52Z"/><path class="cls-2" d="M264.86,137.75a96.18,96.18,0,0,1-24.24-3,2.91,2.91,0,0,1-2.08-3.54,2.63,2.63,0,0,1,.31-.73C262,90.91,317,68.17,361.33,79.71a2.9,2.9,0,0,1,2.08,3.54,2.81,2.81,0,0,1-.3.74c-19.1,32.57-59.74,53.76-98.25,53.76ZM245.93,130c40,8.45,87.78-11.34,110.08-45.58C316,76,268.24,95.76,245.93,130Z"/><path class="cls-3" d="M241.34,131.92c-43.26-11.28-96.65,10.84-119.26,49.4C165.34,192.61,218.73,170.49,241.34,131.92Z"/><path class="cls-2" d="M145.59,187.15a96.18,96.18,0,0,1-24.24-3,2.91,2.91,0,0,1-2.08-3.54,2.83,2.83,0,0,1,.31-.74c23.18-39.55,78.13-62.3,122.49-50.74a2.89,2.89,0,0,1,1.77,4.28C224.75,166,184.11,187.15,145.59,187.15Zm-18.92-7.73c40,8.46,87.77-11.33,110.08-45.58C196.74,125.37,149,145.16,126.67,179.42Z"/><path class="cls-3" d="M290.74,12.66c-38.57,22.61-60.68,76-49.4,119.26C279.91,109.31,302,55.92,290.74,12.66Z"/><path class="cls-2" d="M241.34,134.83a2.92,2.92,0,0,1-2.81-2.17C227,88.3,249.72,33.35,289.27,10.16a2.91,2.91,0,0,1,4,1,3.19,3.19,0,0,1,.3.74c11.57,44.36-11.19,99.3-50.74,122.5a2.9,2.9,0,0,1-1.47.4Zm47.5-117.58c-34.26,22.31-54,70.08-45.58,110.08C277.5,105,297.29,57.25,288.84,17.25Z"/><path class="cls-3" d="M241.34,131.92c-38.56,22.61-60.68,76-49.4,119.26,38.57-22.61,60.69-76,49.4-119.26Z"/><path class="cls-2" d="M191.94,254.09a2.92,2.92,0,0,1-2.81-2.17c-11.57-44.36,11.19-99.3,50.74-122.5a2.91,2.91,0,0,1,4,1,2.81,2.81,0,0,1,.3.74c11.57,44.36-11.19,99.3-50.74,122.5a2.92,2.92,0,0,1-1.47.4Zm47.5-117.58c-34.26,22.31-54.05,70.09-45.58,110.09,34.24-22.31,54-70.09,45.58-110.09Z"/><path class="cls-3" d="M360.6,181.32c-22.6-38.56-76-60.68-119.26-49.4C264,170.49,317.35,192.61,360.6,181.32Z"/><path class="cls-2" d="M337.09,187.15c-38.52,0-79.16-21.2-98.25-53.76a2.9,2.9,0,0,1,1-4,2.77,2.77,0,0,1,.73-.31c44.35-11.57,99.3,11.19,122.5,50.74a2.91,2.91,0,0,1-1,4,2.81,2.81,0,0,1-.74.3A96.13,96.13,0,0,1,337.09,187.15Zm-91.16-53.33C268.24,168.09,316,187.87,356,179.41,333.71,145.16,285.93,125.37,245.93,133.82Z"/><path class="cls-3" d="M241.34,131.92c-22.61-38.56-76-60.68-119.26-49.4C144.69,121.09,198.08,143.2,241.34,131.92Z"/><path class="cls-2" d="M217.82,137.75c-38.52,0-79.16-21.2-98.25-53.76a2.9,2.9,0,0,1,1-4,2.83,2.83,0,0,1,.74-.31c44.35-11.57,99.3,11.2,122.5,50.75a2.91,2.91,0,0,1-1,4,3.19,3.19,0,0,1-.74.3A96.13,96.13,0,0,1,217.82,137.75ZM126.67,84.43c22.3,34.26,70.07,54,110.08,45.58C214.44,95.76,166.68,76,126.67,84.43Z"/><path class="cls-3" d="M241.34,2.84c-27,35.64-27,93.44,0,129.08C268.32,96.28,268.32,38.48,241.34,2.84Z"/><path class="cls-2" d="M241.34,134.83a2.92,2.92,0,0,1-2.32-1.17c-27.66-36.54-27.66-96,0-132.57a3,3,0,0,1,4.64,0c27.67,36.56,27.67,96,0,132.6a2.92,2.92,0,0,1-2.32,1.14Zm0-127c-23.11,33.72-23.11,85.43,0,119.16C264.46,93.23,264.46,41.52,241.34,7.8Z"/><path class="cls-3" d="M241.34,131.92c-27,35.65-27,93.44,0,129.09C268.32,225.36,268.32,167.57,241.34,131.92Z"/><path class="cls-2" d="M241.34,263.91a2.91,2.91,0,0,1-2.32-1.16c-27.66-36.55-27.66-96,0-132.59a3,3,0,0,1,4.24-.4,2.52,2.52,0,0,1,.4.4c27.67,36.55,27.67,96,0,132.59A2.88,2.88,0,0,1,241.34,263.91Zm0-127c-23.11,33.72-23.11,85.43,0,119.16,23.11-33.73,23.11-85.44,0-119.16Z"/><path class="cls-3" d="M370.43,131.92c-35.65-27-93.44-27-129.09,0C277,158.9,334.78,158.9,370.43,131.92Z"/><path class="cls-2" d="M305.88,155c-24,0-48-6.91-66.29-20.75a2.9,2.9,0,0,1-.57-4.06,3.08,3.08,0,0,1,.57-.57c36.56-27.67,96-27.66,132.59,0a2.91,2.91,0,0,1,.57,4.07,3.35,3.35,0,0,1-.57.56C353.9,148.07,329.9,155,305.88,155Zm-59.57-23.06C280,155,331.74,155,365.46,131.92c-33.72-23.1-85.44-23.1-119.15,0Z"/><path class="cls-3" d="M241.34,131.92c-35.64-27-93.44-27-129.08,0C147.9,158.9,205.7,158.9,241.34,131.92Z"/><path class="cls-2" d="M176.8,155c-24,0-48-6.91-66.3-20.75a2.89,2.89,0,0,1-.56-4.06,2.75,2.75,0,0,1,.56-.57c36.56-27.66,96-27.67,132.6,0a2.91,2.91,0,0,1,.56,4.07,3,3,0,0,1-.56.56C224.82,148.07,200.81,155,176.8,155Zm-59.58-23.06c33.72,23.12,85.44,23.12,119.16,0C202.66,108.82,150.94,108.82,117.22,131.92Z"/><path class="cls-3" d="M332.62,40.65c-44.28,6.13-85.15,47-91.28,91.27C285.62,125.79,326.49,84.93,332.62,40.65Z"/><path class="cls-2" d="M241.34,134.83a2.92,2.92,0,0,1-2.9-2.91,2.69,2.69,0,0,1,0-.4c6.28-45.4,48.34-87.45,93.75-93.75A2.91,2.91,0,0,1,335.5,41c-6.29,45.41-48.35,87.47-93.76,93.76a2.69,2.69,0,0,1-.4,0Zm87.77-90.67c-40.19,7.5-76.76,44.06-84.26,84.25C285,120.91,321.61,84.34,329.11,44.16Z"/><path class="cls-3" d="M241.34,131.92c-44.28,6.13-85.15,47-91.28,91.29C194.35,217.07,235.21,176.21,241.34,131.92Z"/><path class="cls-2" d="M150.06,226.12a2.9,2.9,0,0,1-2.9-2.91,2.56,2.56,0,0,1,0-.39c6.28-45.42,48.34-87.48,93.75-93.76a2.91,2.91,0,0,1,3.28,2.48,3.48,3.48,0,0,1,0,.79c-6.29,45.4-48.35,87.46-93.76,93.75l-.4,0Zm87.77-90.69c-40.19,7.5-76.76,44.07-84.26,84.26C193.76,212.18,230.33,175.62,237.83,135.43Z"/><path class="cls-3" d="M332.62,223.21c-6.13-44.29-47-85.16-91.28-91.29C247.47,176.21,288.34,217.07,332.62,223.21Z"/><path class="cls-2" d="M332.62,226.12a2.69,2.69,0,0,1-.4,0c-45.41-6.3-87.47-48.36-93.75-93.76a2.89,2.89,0,0,1,.82-2.45,2.93,2.93,0,0,1,2.45-.82c45.41,6.28,87.47,48.34,93.76,93.76a2.91,2.91,0,0,1-2.48,3.27A2.69,2.69,0,0,1,332.62,226.12Zm-87.77-90.69c7.5,40.19,44.07,76.75,84.26,84.26C321.61,179.5,285,142.93,244.85,135.43Z"/><path class="cls-3" d="M241.34,131.92c-6.13-44.28-47-85.14-91.28-91.27C156.19,84.93,197.06,125.79,241.34,131.92Z"/><path class="cls-2" d="M241.34,134.83l-.4,0c-45.41-6.29-87.47-48.35-93.75-93.76a2.89,2.89,0,0,1,.82-2.45,3,3,0,0,1,2.45-.82c45.41,6.3,87.47,48.35,93.76,93.75a2.91,2.91,0,0,1-2.48,3.28c-.13,0-.27,0-.4,0ZM153.57,44.16c7.5,40.18,44.07,76.75,84.26,84.25-7.5-40.19-44.07-76.75-84.26-84.25Z"/><circle class="cls-4" cx="241.34" cy="131.92" r="37.5"/><g class="cls-5"><path class="cls-6" d="M278.85,131.93a37.5,37.5,0,0,1-72.57,13.28,37.49,37.49,0,0,0,62-39.37A37.32,37.32,0,0,1,278.85,131.93Z"/></g><path class="cls-2" d="M241.34,172.32a40.4,40.4,0,1,1,40.4-40.4h0A40.44,40.44,0,0,1,241.34,172.32Zm0-75a34.6,34.6,0,1,0,34.59,34.6h0A34.63,34.63,0,0,0,241.34,97.33Z"/><circle class="cls-6" cx="248.28" cy="108.43" r="2.6"/><circle class="cls-6" cx="260.03" cy="112.96" r="2.6"/><circle class="cls-6" cx="252.94" cy="122.75" r="2.6"/><circle class="cls-6" cx="240.99" cy="130.97" r="2.6"/><circle class="cls-6" cx="215.5" cy="131.92" r="2.6"/><circle class="cls-6" cx="220.03" cy="118.15" r="2.6"/><circle class="cls-6" cx="230.75" cy="109.51" r="2.6"/><circle class="cls-6" cx="240.99" cy="116.72" r="2.6"/><circle class="cls-6" cx="265.22" cy="125.35" r="2.6"/><circle class="cls-6" cx="238.39" cy="101.72" r="2.6"/><circle class="cls-6" cx="231.74" cy="124.03" r="2.6"/><circle class="cls-6" cx="255.53" cy="135.65" r="2.6"/><circle class="cls-6" cx="257.43" cy="151.59" r="2.6"/><circle class="cls-6" cx="266.79" cy="139.86" r="2.6"/><circle class="cls-6" cx="243.59" cy="142.45" r="2.6" transform="translate(63.95 360.08) rotate(-80.78)"/><circle class="cls-6" cx="243.59" cy="154.75" r="2.6" transform="translate(51.81 370.4) rotate(-80.78)"/><circle class="cls-6" cx="225.22" cy="156.62" r="2.6"/><circle class="cls-6" cx="227.82" cy="139.09" r="2.6"/><circle class="cls-6" cx="215.5" cy="146.69" r="2.6"/><path class="cls-1" d="M250.05,330s-22.18-69.14,62-68.81c0,0-5.19,8-3.79,29.1S285.87,347.32,250.05,330Z"/><path class="cls-7" d="M308.29,290.3c1.38,21.08-22.41,57-58.24,39.72a52.33,52.33,0,0,1-1.47-6.3c32.18,10.36,53-22.52,51.76-42.31a79.73,79.73,0,0,1,.82-19.82c3.42-.26,7-.41,10.9-.38C312.06,261.21,306.87,269.22,308.29,290.3Z"/><path class="cls-2" d="M268.55,337.53a45.29,45.29,0,0,1-19.74-4.88,2.89,2.89,0,0,1-1.5-1.73c-.39-1.19-9.16-29.36,6.36-50.56,10.72-14.64,30.17-22.07,57.84-22.07a3.39,3.39,0,0,1,3.12,1.53,2.91,2.91,0,0,1-.12,3s-4.63,7.76-3.33,27.32c.81,12.23-6.39,30.67-21.33,40.75a37.8,37.8,0,0,1-21.3,6.68ZM252.49,328c15.42,7,27,2.85,34.1-1.92,12.67-8.55,19.5-24.79,18.79-35.55a70.76,70.76,0,0,1,2.32-26.34c-23.65.63-40.23,7.21-49.32,19.6-12.13,16.51-7.29,38.86-5.89,44.21Z"/><path class="cls-2" d="M247.42,337.7a2.91,2.91,0,0,1-2.91-2.9,2.83,2.83,0,0,1,.14-.87c.6-1.93,15.09-47.33,50.47-61.25a2.9,2.9,0,0,1,2.12,5.4c-32.75,12.88-46.91,57.13-47,57.58A2.88,2.88,0,0,1,247.42,337.7Z"/><path class="cls-1" d="M260,309.17l19-6"/><path class="cls-2" d="M260,312.06a2.9,2.9,0,0,1-.87-5.67l19-6a2.9,2.9,0,0,1,1.74,5.54h0l-19,6a2.87,2.87,0,0,1-.87.13Z"/><path class="cls-1" d="M270.29,293.89l3.89-12.8"/><path class="cls-2" d="M270.29,296.79a2.94,2.94,0,0,1-.84-.12,2.91,2.91,0,0,1-1.94-3.62l3.89-12.81a2.91,2.91,0,0,1,5.56,1.69l-3.89,12.8a2.9,2.9,0,0,1-2.78,2.06Z"/><path class="cls-1" d="M218.76,301.71s-29-66.57-92-10.77c0,0,9.19,2.59,22.07,19.35S203.27,338.34,218.76,301.71Z"/><path class="cls-7" d="M148.79,310.3c12.88,16.75,54.48,28.06,70-8.6a55.87,55.87,0,0,0-3.06-5.71c-17.33,29-54.72,18.1-66.81,2.38A79.52,79.52,0,0,0,135.2,284c-2.74,2.06-5.55,4.34-8.43,6.9,0,0,9.17,2.6,22,19.37Z"/><path class="cls-2" d="M183.77,329c-15.84,0-30.6-8.19-37.27-16.89-11.93-15.55-20.48-18.31-20.57-18.34a2.92,2.92,0,0,1-1.94-3.64,2.85,2.85,0,0,1,.84-1.31c20.94-18.54,40.61-25.94,58.44-22,25.66,5.68,37.66,32.64,38.16,33.78a2.94,2.94,0,0,1,0,2.29c-8,18.92-21.83,24.44-32,25.74a42.51,42.51,0,0,1-5.64.37ZM132,290.26a71.05,71.05,0,0,1,19.12,18.27c6.57,8.55,22.43,16.26,37.58,14.3,8.46-1.08,19.89-5.64,26.88-21.06-2.48-4.94-13.59-24.92-33.59-29.33-15-3.31-31.81,2.69-50,17.82Z"/><path class="cls-2" d="M223.89,306.46a2.85,2.85,0,0,1-1.51-.43c-.4-.24-40.23-24.14-73.35-12.19a2.9,2.9,0,0,1-2-5.46c35.75-12.89,76.62,11.65,78.34,12.7a2.9,2.9,0,0,1,1,4,2.87,2.87,0,0,1-2.47,1.39Z"/><path class="cls-1" d="M197.56,292.57l-18.24,8"/><path class="cls-2" d="M179.32,303.52a2.91,2.91,0,0,1-1.18-5.57l18.25-8a2.91,2.91,0,0,1,2.34,5.32l-18.24,8A3.15,3.15,0,0,1,179.32,303.52Z"/><path class="cls-1" d="M179.71,287.92l-11.37-7.06"/><path class="cls-2" d="M179.7,290.82a2.88,2.88,0,0,1-1.52-.43l-11.38-7.07a2.91,2.91,0,0,1,3.07-4.94l11.37,7.06a2.9,2.9,0,0,1-1.54,5.37Z"/><path class="cls-1" d="M142.05,368.68c-68.91-119.18-18.67-211.09-16.5-214.95l10.26,5.78-5.13-2.9,5.14,2.89c-.5.88-49,90.15,16.42,203.28Z"/><path class="cls-2" d="M142.05,371.59a2.91,2.91,0,0,1-2.52-1.46C69.81,249.53,120.81,156.22,123,152.31a2.91,2.91,0,0,1,4-1.11L137.24,157a2.91,2.91,0,0,1,1.11,4h0c-.49.87-47.95,89.08,16.41,200.4a2.91,2.91,0,0,1-1.06,4h0l-10.2,5.9a2.94,2.94,0,0,1-1.45.39ZM126.73,157.73c-7.93,15.85-44.21,99.88,16.39,207l5.17-3c-58-102.68-23.74-185.53-16.32-201l-2.72-1.53-.05,0Z"/><path class="cls-3" d="M82.59,12.66C71.31,55.92,93.43,109.31,132,131.92,143.27,88.66,121.16,35.27,82.59,12.66Z"/><path class="cls-2" d="M132,134.83a3,3,0,0,1-1.47-.4C91,111.24,68.21,56.29,79.78,11.93a2.91,2.91,0,0,1,3.54-2.08,2.83,2.83,0,0,1,.74.31c39.55,23.18,62.31,78.14,50.74,122.5a2.91,2.91,0,0,1-2.81,2.17ZM84.49,17.25C76,57.25,95.83,105,130.09,127.33,138.54,87.33,118.75,39.56,84.49,17.25Z"/><path class="cls-3" d="M132,131.92c-11.28,43.26,10.83,96.65,49.4,119.26,11.29-43.25-10.83-96.65-49.4-119.26Z"/><path class="cls-2" d="M181.39,254.09a3,3,0,0,1-1.47-.4c-39.55-23.19-62.31-78.14-50.74-122.5a2.91,2.91,0,0,1,3.54-2.08,2.83,2.83,0,0,1,.74.31c39.55,23.18,62.31,78.14,50.74,122.5A2.91,2.91,0,0,1,181.39,254.09Zm-47.5-117.58c-8.45,40,11.34,87.78,45.59,110.09,8.46-40-11.33-87.78-45.59-110.09Z"/><path class="cls-3" d="M251.25,82.52C208,71.24,154.6,93.36,132,131.92,175.25,143.2,228.64,121.09,251.25,82.52Z"/><path class="cls-2" d="M155.51,137.75a96.18,96.18,0,0,1-24.24-3,2.91,2.91,0,0,1-2.08-3.54,2.63,2.63,0,0,1,.31-.73C152.67,90.91,207.64,68.17,252,79.71a2.9,2.9,0,0,1,2.08,3.54,2.81,2.81,0,0,1-.3.74c-19.1,32.57-59.74,53.76-98.25,53.76ZM136.58,130c40,8.45,87.78-11.34,110.08-45.58C206.65,76,158.89,95.76,136.58,130Z"/><path class="cls-3" d="M132,131.92c-43.26-11.28-96.65,10.84-119.26,49.4C56,192.61,109.38,170.49,132,131.92Z"/><path class="cls-2" d="M36.24,187.15a96.18,96.18,0,0,1-24.24-3,2.91,2.91,0,0,1-2.08-3.54,2.83,2.83,0,0,1,.31-.74c23.18-39.55,78.13-62.3,122.49-50.74a2.89,2.89,0,0,1,1.77,4.28C115.4,166,74.76,187.15,36.24,187.15Zm-18.92-7.73c40,8.46,87.77-11.33,110.08-45.58C87.39,125.37,39.62,145.16,17.32,179.42Z"/><path class="cls-3" d="M181.39,12.66c-38.57,22.61-60.68,76-49.4,119.26C170.56,109.31,192.68,55.92,181.39,12.66Z"/><path class="cls-2" d="M132,134.83a2.92,2.92,0,0,1-2.81-2.17c-11.57-44.36,11.19-99.31,50.74-122.5a2.91,2.91,0,0,1,4,1,3.19,3.19,0,0,1,.3.74c11.57,44.36-11.19,99.3-50.74,122.5a2.9,2.9,0,0,1-1.47.4Zm47.5-117.58c-34.26,22.31-54.05,70.08-45.59,110.08C168.15,105,187.94,57.25,179.49,17.25Z"/><path class="cls-3" d="M132,131.92c-38.56,22.61-60.68,76-49.4,119.26,38.57-22.61,60.68-76,49.4-119.26Z"/><path class="cls-2" d="M82.59,254.09a2.92,2.92,0,0,1-2.81-2.17c-11.57-44.36,11.19-99.3,50.74-122.5a2.91,2.91,0,0,1,4,1,3.19,3.19,0,0,1,.3.74c11.57,44.36-11.19,99.3-50.74,122.5a2.92,2.92,0,0,1-1.47.4Zm47.5-117.58C95.83,158.82,76,206.6,84.51,246.6c34.24-22.31,54-70.09,45.58-110.09Z"/><path class="cls-3" d="M251.25,181.32c-22.61-38.56-76-60.68-119.26-49.4C154.6,170.49,208,192.61,251.25,181.32Z"/><path class="cls-2" d="M227.74,187.15c-38.52,0-79.16-21.2-98.25-53.76a2.9,2.9,0,0,1,1-4,2.77,2.77,0,0,1,.73-.31c44.35-11.57,99.3,11.19,122.5,50.74a2.91,2.91,0,0,1-1,4,2.81,2.81,0,0,1-.74.3A96.18,96.18,0,0,1,227.74,187.15Zm-91.16-53.33c22.31,34.27,70.08,54.05,110.08,45.59C224.36,145.16,176.58,125.37,136.58,133.82Z"/><path class="cls-3" d="M132,131.92C109.38,93.36,56,71.24,12.73,82.52,35.34,121.09,88.73,143.2,132,131.92Z"/><path class="cls-2" d="M108.47,137.75C70,137.75,29.31,116.55,10.22,84a2.9,2.9,0,0,1,1-4,2.83,2.83,0,0,1,.74-.31c44.35-11.57,99.3,11.2,122.5,50.75a2.91,2.91,0,0,1-1,4,3.19,3.19,0,0,1-.74.3A96.13,96.13,0,0,1,108.47,137.75ZM17.32,84.43c22.3,34.26,70.07,54,110.08,45.58C105.09,95.76,57.33,76,17.32,84.43Z"/><path class="cls-3" d="M132,2.84c-27,35.64-27,93.44,0,129.08C159,96.28,159,38.48,132,2.84Z"/><path class="cls-2" d="M132,134.83a2.92,2.92,0,0,1-2.32-1.17c-27.66-36.54-27.66-96,0-132.57a3,3,0,0,1,4.64,0c27.67,36.56,27.67,96,0,132.6a2.92,2.92,0,0,1-2.32,1.14Zm0-127C108.88,41.52,108.88,93.23,132,127,155.11,93.23,155.11,41.52,132,7.8Z"/><path class="cls-3" d="M132,131.92c-27,35.65-27,93.44,0,129.09C159,225.36,159,167.57,132,131.92Z"/><path class="cls-2" d="M132,263.91a2.91,2.91,0,0,1-2.32-1.16c-27.66-36.55-27.66-96,0-132.59a3,3,0,0,1,4.24-.4,2.52,2.52,0,0,1,.4.4c27.67,36.55,27.67,96,0,132.59A2.88,2.88,0,0,1,132,263.91Zm0-127c-23.11,33.72-23.11,85.43,0,119.16,23.11-33.73,23.11-85.44,0-119.16Z"/><path class="cls-3" d="M261.08,131.92c-35.65-27-93.44-27-129.09,0C167.64,158.9,225.43,158.9,261.08,131.92Z"/><path class="cls-2" d="M196.53,155c-24,0-48-6.91-66.29-20.75a2.9,2.9,0,0,1-.57-4.06,2.8,2.8,0,0,1,.57-.57c36.56-27.67,96-27.66,132.59,0a2.9,2.9,0,0,1,.56,4.07,3,3,0,0,1-.56.56C244.55,148.07,220.55,155,196.53,155ZM137,131.92c33.71,23.12,85.43,23.12,119.15,0-33.72-23.1-85.44-23.1-119.15,0Z"/><path class="cls-3" d="M132,131.92c-35.65-27-93.44-27-129.08,0C38.55,158.9,96.34,158.9,132,131.92Z"/><path class="cls-2" d="M67.45,155c-24,0-48-6.91-66.3-20.75a2.89,2.89,0,0,1-.56-4.06,2.75,2.75,0,0,1,.56-.57c36.56-27.66,96-27.67,132.6,0a2.91,2.91,0,0,1,.56,4.07,3,3,0,0,1-.56.56C115.47,148.07,91.46,155,67.45,155ZM7.87,131.92C41.59,155,93.31,155,127,131.92,93.31,108.82,41.59,108.82,7.87,131.92Z"/><path class="cls-3" d="M223.27,40.65c-44.28,6.13-85.15,47-91.28,91.27C176.27,125.79,217.14,84.93,223.27,40.65Z"/><path class="cls-2" d="M132,134.83a2.92,2.92,0,0,1-2.9-2.91,2.69,2.69,0,0,1,0-.4c6.28-45.4,48.34-87.45,93.75-93.75a2.92,2.92,0,0,1,2.45.82,2.86,2.86,0,0,1,.82,2.45c-6.28,45.41-48.34,87.47-93.75,93.76a2.69,2.69,0,0,1-.4,0Zm87.77-90.67c-40.19,7.5-76.76,44.06-84.26,84.25C175.69,120.91,212.26,84.34,219.76,44.16Z"/><path class="cls-3" d="M132,131.92c-44.28,6.13-85.15,47-91.28,91.29C85,217.07,125.86,176.21,132,131.92Z"/><path class="cls-2" d="M40.71,226.12a2.9,2.9,0,0,1-2.9-2.91,2.56,2.56,0,0,1,0-.39c6.28-45.42,48.34-87.48,93.75-93.76a2.91,2.91,0,0,1,3.28,2.48,3.48,3.48,0,0,1,0,.79c-6.29,45.4-48.35,87.46-93.76,93.75l-.4,0Zm87.77-90.69c-40.19,7.5-76.76,44.07-84.26,84.26C84.41,212.18,121,175.62,128.48,135.43Z"/><path class="cls-3" d="M223.27,223.21c-6.13-44.29-47-85.16-91.28-91.29C138.12,176.21,179,217.07,223.27,223.21Z"/><path class="cls-2" d="M223.27,226.12a2.69,2.69,0,0,1-.4,0c-45.41-6.3-87.47-48.36-93.75-93.76a2.89,2.89,0,0,1,.82-2.45,2.92,2.92,0,0,1,2.45-.82c45.41,6.28,87.47,48.34,93.75,93.76a2.9,2.9,0,0,1-2.47,3.27A2.69,2.69,0,0,1,223.27,226.12ZM135.5,135.43c7.5,40.19,44.07,76.75,84.26,84.26C212.26,179.5,175.69,142.93,135.5,135.43Z"/><path class="cls-3" d="M132,131.92c-6.13-44.28-47-85.14-91.28-91.27C46.84,84.93,87.71,125.79,132,131.92Z"/><path class="cls-2" d="M132,134.83l-.4,0C86.18,128.51,44.12,86.45,37.84,41a2.89,2.89,0,0,1,.82-2.45,3,3,0,0,1,2.45-.82c45.41,6.3,87.47,48.35,93.76,93.75a2.91,2.91,0,0,1-2.48,3.28c-.13,0-.27,0-.4,0ZM44.22,44.16c7.5,40.18,44.07,76.75,84.26,84.25C121,88.22,84.41,51.66,44.22,44.16Z"/><circle class="cls-4" cx="131.99" cy="131.92" r="37.5"/><g class="cls-5"><path class="cls-6" d="M169.5,131.93a37.5,37.5,0,0,1-72.57,13.28,37.49,37.49,0,0,0,62-39.37A37.32,37.32,0,0,1,169.5,131.93Z"/></g><path class="cls-2" d="M132,172.32a40.4,40.4,0,1,1,40.4-40.4h0A40.44,40.44,0,0,1,132,172.32Zm0-75a34.6,34.6,0,1,0,34.59,34.6h0A34.63,34.63,0,0,0,132,97.33Z"/><circle class="cls-6" cx="138.93" cy="108.43" r="2.6"/><circle class="cls-6" cx="150.68" cy="112.96" r="2.6"/><circle class="cls-6" cx="143.59" cy="122.75" r="2.6"/><circle class="cls-6" cx="131.64" cy="130.97" r="2.6"/><circle class="cls-6" cx="106.15" cy="131.92" r="2.6"/><circle class="cls-6" cx="110.68" cy="118.15" r="2.6"/><circle class="cls-6" cx="121.4" cy="109.51" r="2.6"/><circle class="cls-6" cx="131.64" cy="116.72" r="2.6"/><circle class="cls-6" cx="155.87" cy="125.35" r="2.6"/><circle class="cls-6" cx="129.04" cy="101.72" r="2.6"/><circle class="cls-6" cx="122.39" cy="124.03" r="2.6"/><circle class="cls-6" cx="146.18" cy="135.65" r="2.6"/><circle class="cls-6" cx="148.08" cy="151.59" r="2.6"/><circle class="cls-6" cx="157.44" cy="139.86" r="2.6"/><circle class="cls-6" cx="134.24" cy="142.45" r="2.6" transform="translate(-27.88 252.14) rotate(-80.78)"/><circle class="cls-6" cx="134.24" cy="154.75" r="2.6" transform="translate(-40.02 262.47) rotate(-80.78)"/><circle class="cls-6" cx="115.87" cy="156.62" r="2.6"/><circle class="cls-6" cx="118.47" cy="139.09" r="2.6"/><circle class="cls-6" cx="106.15" cy="146.69" r="2.6"/><path class="cls-1" d="M140.7,330s-22.18-69.14,62-68.81c0,0-5.19,8-3.79,29.1S176.52,347.32,140.7,330Z"/><path class="cls-7" d="M198.94,290.3c1.38,21.08-22.41,57-58.24,39.72a52.33,52.33,0,0,1-1.47-6.3c32.18,10.36,53.05-22.52,51.76-42.31a79.73,79.73,0,0,1,.82-19.82c3.42-.26,7-.41,10.9-.38C202.71,261.21,197.52,269.22,198.94,290.3Z"/><path class="cls-2" d="M159.2,337.53a45.29,45.29,0,0,1-19.74-4.88,2.89,2.89,0,0,1-1.5-1.73c-.39-1.19-9.17-29.36,6.36-50.56,10.72-14.64,30.17-22.07,57.84-22.07a3.39,3.39,0,0,1,3.12,1.53,2.91,2.91,0,0,1-.12,3s-4.63,7.76-3.33,27.32c.81,12.23-6.39,30.67-21.33,40.75a37.8,37.8,0,0,1-21.3,6.68ZM143.14,328c15.42,7,27,2.85,34.1-1.92,12.67-8.55,19.5-24.79,18.79-35.55a70.76,70.76,0,0,1,2.32-26.34c-23.65.63-40.23,7.21-49.32,19.6-12.13,16.51-7.29,38.86-5.89,44.21Z"/><path class="cls-2" d="M138.07,337.7a2.91,2.91,0,0,1-2.91-2.9,2.83,2.83,0,0,1,.14-.87c.6-1.93,15.09-47.33,50.47-61.25a2.9,2.9,0,0,1,2.12,5.4c-32.75,12.88-46.91,57.13-47,57.58A2.88,2.88,0,0,1,138.07,337.7Z"/><path class="cls-1" d="M150.6,309.17l19-6"/><path class="cls-2" d="M150.6,312.06a2.9,2.9,0,0,1-.87-5.67l19-6a2.9,2.9,0,1,1,1.74,5.54h0l-19,6a2.87,2.87,0,0,1-.87.13Z"/><path class="cls-1" d="M160.94,293.89l3.89-12.8"/><path class="cls-2" d="M160.94,296.79a2.94,2.94,0,0,1-.84-.12,2.91,2.91,0,0,1-1.94-3.62l3.89-12.81a2.91,2.91,0,0,1,5.56,1.69l-3.89,12.8a2.9,2.9,0,0,1-2.78,2.06Z"/><path class="cls-1" d="M109.41,301.71s-29-66.57-92-10.77c0,0,9.19,2.59,22.07,19.35S93.92,338.34,109.41,301.71Z"/><path class="cls-7" d="M39.44,310.3c12.88,16.75,54.48,28.06,70-8.6a55.87,55.87,0,0,0-3.06-5.71c-17.33,29-54.72,18.1-66.81,2.38A79.52,79.52,0,0,0,25.85,284c-2.74,2.06-5.56,4.34-8.44,6.9,0,0,9.18,2.6,22,19.37Z"/><path class="cls-2" d="M74.42,329c-15.84,0-30.6-8.19-37.27-16.89-11.93-15.55-20.48-18.31-20.57-18.34a2.92,2.92,0,0,1-1.94-3.64,2.85,2.85,0,0,1,.84-1.31c20.94-18.54,40.61-25.94,58.44-22,25.66,5.68,37.66,32.64,38.16,33.78a2.94,2.94,0,0,1,0,2.29c-8,18.92-21.83,24.44-32,25.74a42.51,42.51,0,0,1-5.64.37ZM22.64,290.26a71.05,71.05,0,0,1,19.12,18.27c6.57,8.55,22.43,16.26,37.58,14.3,8.46-1.08,19.89-5.64,26.88-21.06-2.48-4.94-13.59-24.92-33.59-29.33-15-3.31-31.81,2.69-50,17.82Z"/><path class="cls-2" d="M114.54,306.46A2.85,2.85,0,0,1,113,306c-.4-.24-40.23-24.14-73.35-12.19a2.9,2.9,0,0,1-2-5.46c35.75-12.89,76.62,11.65,78.34,12.7a2.9,2.9,0,0,1-1.51,5.38Z"/><path class="cls-1" d="M88.21,292.57l-18.24,8"/><path class="cls-2" d="M70,303.52A2.91,2.91,0,0,1,68.79,298l18.25-8a2.91,2.91,0,0,1,2.34,5.32l-18.24,8A3.15,3.15,0,0,1,70,303.52Z"/><path class="cls-1" d="M70.36,287.92,59,280.86"/><path class="cls-2" d="M70.35,290.82a3,3,0,0,1-1.53-.43l-11.37-7.07a2.91,2.91,0,0,1,3.06-4.94l11.38,7.06a2.9,2.9,0,0,1-1.54,5.37Z"/></g></g></svg>