<svg id="icon" height="512" viewBox="0 0 128 128" width="512" xmlns="http://www.w3.org/2000/svg"><path d="m67.464 127c-23.732-41.048-6.431-72.7-5.682-74.03l3.533 1.991-1.767-1 1.769.994c-.171.306-16.867 31.049 5.658 70.011z" fill="#65b54e"/><path d="m67.465 128a1 1 0 0 1 -.867-.5c-24.015-41.538-6.448-73.674-5.688-75.021a1 1 0 0 1 1.362-.38l3.535 1.987a1 1 0 0 1 .382 1.362c-.167.3-16.515 30.679 5.653 69.021a1 1 0 0 1 -.365 1.367l-3.512 2.03a1 1 0 0 1 -.5.134zm-5.277-73.654c-2.732 5.459-15.225 34.4 5.645 71.286l1.78-1.029c-19.988-35.366-8.175-63.9-5.619-69.239l-.937-.528-.019-.01z" fill="#2f3a5a"/><path d="m46.987 4.384c-3.887 14.898 3.731 33.288 17.013 41.074 3.886-14.898-3.731-33.287-17.013-41.074z" fill="#ffc943"/><path d="m64 46.458a1 1 0 0 1 -.506-.137c-13.621-7.985-21.46-26.911-17.475-42.189a1 1 0 0 1 1.473-.611c13.621 7.986 21.46 26.912 17.476 42.19a1 1 0 0 1 -.968.747zm-16.359-40.494c-2.911 13.777 3.906 30.236 15.705 37.914 2.91-13.778-3.907-30.231-15.705-37.914z" fill="#2f3a5a"/><path d="m64 45.458c-3.886 14.9 3.731 33.288 17.014 41.075 3.886-14.898-3.732-33.288-17.014-41.075z" fill="#ffc943"/><path d="m81.014 87.533a1 1 0 0 1 -.506-.137c-13.621-7.986-21.46-26.912-17.476-42.19a1 1 0 0 1 1.474-.61c13.621 7.985 21.46 26.911 17.475 42.189a1 1 0 0 1 -.967.748zm-16.36-40.494c-2.91 13.775 3.907 30.231 15.7 37.914 2.916-13.776-3.901-30.231-15.7-37.914z" fill="#2f3a5a"/><path d="m105.074 28.445c-14.898-3.886-33.287 3.731-41.074 17.014 14.9 3.885 33.288-3.732 41.074-17.014z" fill="#ffc943"/><path d="m72.1 47.464a33.092 33.092 0 0 1 -8.349-1.038 1 1 0 0 1 -.61-1.473c7.982-13.621 26.912-21.453 42.185-17.476a1 1 0 0 1 .611 1.474c-6.576 11.216-20.573 18.513-33.837 18.513zm-6.52-2.664c13.779 2.911 30.231-3.906 37.914-15.7-13.781-2.911-30.231 3.905-37.914 15.7z" fill="#2f3a5a"/><path d="m64 45.459c-14.9-3.887-33.288 3.731-41.074 17.013 14.898 3.886 33.287-3.731 41.074-17.013z" fill="#ffc943"/><path d="m31.022 64.478a33.089 33.089 0 0 1 -8.348-1.038 1 1 0 0 1 -.611-1.474c7.985-13.621 26.911-21.459 42.189-17.475a1 1 0 0 1 .61 1.473c-6.576 11.217-20.573 18.514-33.84 18.514zm-6.516-2.66c13.777 2.912 30.229-3.905 37.914-15.7-13.781-2.918-30.232 3.9-37.914 15.7z" fill="#2f3a5a"/><path d="m81.014 4.384c-13.283 7.787-20.9 26.176-17.014 41.074 13.282-7.786 20.9-26.176 17.014-41.074z" fill="#ffc943"/><path d="m64 46.458a1 1 0 0 1 -.968-.747c-3.984-15.278 3.855-34.2 17.476-42.19a1 1 0 0 1 1.473.611c3.985 15.278-3.854 34.2-17.475 42.189a1 1 0 0 1 -.506.137zm16.359-40.494c-11.8 7.683-18.615 24.138-15.7 37.914 11.794-7.678 18.611-24.137 15.7-37.914z" fill="#2f3a5a"/><path d="m64 45.458c-13.282 7.787-20.9 26.177-17.013 41.075 13.282-7.787 20.899-26.177 17.013-41.075z" fill="#ffc943"/><path d="m46.986 87.533a1 1 0 0 1 -.967-.748c-3.985-15.278 3.854-34.2 17.475-42.189a1 1 0 0 1 1.474.61c3.984 15.278-3.855 34.2-17.476 42.19a1 1 0 0 1 -.506.137zm16.36-40.494c-11.8 7.683-18.616 24.138-15.7 37.914 11.793-7.683 18.61-24.139 15.7-37.914z" fill="#2f3a5a"/><path d="m105.074 62.472c-7.786-13.282-26.174-20.9-41.074-17.013 7.787 13.282 26.176 20.899 41.074 17.013z" fill="#ffc943"/><path d="m96.978 64.478c-13.268 0-27.264-7.3-33.84-18.514a1 1 0 0 1 .61-1.473c15.273-3.986 34.2 3.854 42.189 17.475a1 1 0 0 1 -.611 1.474 33.089 33.089 0 0 1 -8.348 1.038zm-31.398-18.365c7.684 11.8 24.138 18.615 37.914 15.7-7.682-11.795-24.138-18.613-37.914-15.7z" fill="#2f3a5a"/><path d="m64 45.459c-7.787-13.283-26.176-20.9-41.074-17.014 7.786 13.282 26.174 20.899 41.074 17.014z" fill="#ffc943"/><path d="m55.9 47.464c-13.268 0-27.264-7.3-33.84-18.513a1 1 0 0 1 .611-1.474c15.275-3.985 34.2 3.855 42.188 17.476a1 1 0 0 1 -.61 1.473 33.092 33.092 0 0 1 -8.349 1.038zm-31.394-18.364c7.682 11.8 24.134 18.613 37.914 15.7-7.684-11.795-24.135-18.613-37.914-15.7z" fill="#2f3a5a"/><path d="m64 1c-9.291 12.277-9.291 32.182 0 44.458 9.291-12.276 9.291-32.181 0-44.458z" fill="#ffc943"/><path d="m64 46.458a1 1 0 0 1 -.8-.4c-9.525-12.586-9.525-33.072 0-45.658a1.038 1.038 0 0 1 1.6 0c9.527 12.59 9.527 33.076 0 45.666a1 1 0 0 1 -.8.392zm0-43.748c-7.961 11.614-7.961 29.424 0 41.038 7.961-11.614 7.961-29.424 0-41.038z" fill="#2f3a5a"/><path d="m64 45.458c-9.291 12.277-9.291 32.182 0 44.459 9.291-12.277 9.291-32.182 0-44.459z" fill="#ffc943"/><path d="m64 90.917a1 1 0 0 1 -.8-.4c-9.527-12.59-9.527-33.076 0-45.666a1.038 1.038 0 0 1 1.6 0c9.527 12.59 9.527 33.076 0 45.666a1 1 0 0 1 -.8.4zm0-43.748c-7.96 11.613-7.96 29.424 0 41.038 7.96-11.614 7.96-29.425 0-41.038z" fill="#2f3a5a"/><path d="m108.458 45.459c-12.276-9.292-32.181-9.292-44.458 0 12.277 9.291 32.182 9.291 44.458 0z" fill="#ffc943"/><path d="m86.229 53.4c-8.269 0-16.538-2.382-22.833-7.146a1 1 0 0 1 0-1.595c12.591-9.53 33.077-9.528 45.666 0a1 1 0 0 1 0 1.595c-6.295 4.766-14.562 7.146-22.833 7.146zm-20.519-7.942c11.612 7.961 29.424 7.962 41.038 0-11.614-7.958-29.426-7.958-41.038 0z" fill="#2f3a5a"/><path d="m64 45.459c-12.277-9.292-32.182-9.292-44.458 0 12.276 9.291 32.181 9.291 44.458 0z" fill="#ffc943"/><path d="m41.771 53.4c-8.269 0-16.538-2.382-22.833-7.146a1 1 0 0 1 0-1.595c12.59-9.527 33.076-9.529 45.666 0a1 1 0 0 1 0 1.595c-6.295 4.766-14.564 7.146-22.833 7.146zm-20.519-7.942c11.614 7.962 29.426 7.961 41.038 0-11.612-7.958-29.424-7.958-41.038 0z" fill="#2f3a5a"/><path d="m95.437 14.022c-15.251 2.111-29.326 16.185-31.437 31.436 15.251-2.111 29.326-16.185 31.437-31.436z" fill="#ffc943"/><path d="m64 46.458a1 1 0 0 1 -.99-1.137c2.165-15.639 16.65-30.121 32.29-32.29a1.013 1.013 0 0 1 .844.283 1 1 0 0 1 .283.845c-2.164 15.64-16.65 30.125-32.29 32.29a.893.893 0 0 1 -.137.009zm30.228-31.227c-13.841 2.583-26.435 15.177-29.019 29.018 13.842-2.582 26.436-15.177 29.019-29.018z" fill="#2f3a5a"/><path d="m64 45.458c-15.251 2.111-29.326 16.186-31.437 31.442 15.251-2.116 29.326-16.19 31.437-31.442z" fill="#ffc943"/><path d="m32.563 77.9a1 1 0 0 1 -.99-1.137c2.164-15.641 16.65-30.126 32.29-32.291a1 1 0 0 1 1.127 1.128c-2.165 15.635-16.65 30.121-32.29 32.286a.893.893 0 0 1 -.137.014zm30.228-31.232c-13.842 2.582-26.436 15.177-29.019 29.019 13.841-2.587 26.435-15.178 29.019-29.019z" fill="#2f3a5a"/><path d="m95.437 76.9c-2.111-15.256-16.186-29.331-31.437-31.442 2.111 15.252 16.186 29.326 31.437 31.442z" fill="#ffc943"/><path d="m95.437 77.9a.893.893 0 0 1 -.137-.01c-15.64-2.169-30.125-16.655-32.29-32.29a1 1 0 0 1 .283-.845 1.012 1.012 0 0 1 .844-.283c15.64 2.165 30.126 16.65 32.29 32.291a1 1 0 0 1 -.99 1.137zm-30.228-31.232c2.584 13.841 15.178 26.432 29.019 29.019-2.583-13.842-15.177-26.437-29.019-29.019z" fill="#2f3a5a"/><path d="m64 45.458c-2.111-15.251-16.186-29.325-31.437-31.436 2.111 15.251 16.186 29.325 31.437 31.436z" fill="#ffc943"/><path d="m64 46.458a.893.893 0 0 1 -.137-.009c-15.64-2.165-30.126-16.65-32.29-32.29a1 1 0 0 1 .283-.845 1.02 1.02 0 0 1 .844-.283c15.64 2.169 30.125 16.651 32.29 32.29a1 1 0 0 1 -.99 1.137zm-30.228-31.227c2.583 13.841 15.177 26.436 29.019 29.018-2.584-13.841-15.178-26.435-29.019-29.018z" fill="#2f3a5a"/><circle cx="64" cy="45.458" fill="#84879c" r="12.914"/><g opacity=".5"><path d="m76.917 45.46a12.916 12.916 0 0 1 -24.992 4.576 12.913 12.913 0 0 0 21.349-13.562 12.847 12.847 0 0 1 3.643 8.986z" fill="#707583"/></g><path d="m64 59.373a13.915 13.915 0 1 1 13.914-13.915 13.93 13.93 0 0 1 -13.914 13.915zm0-25.829a11.915 11.915 0 1 0 11.914 11.914 11.928 11.928 0 0 0 -11.914-11.914z" fill="#2f3a5a"/><g fill="#707583"><circle cx="66.388" cy="37.368" r=".894"/><circle cx="70.436" cy="38.926" r=".894"/><circle cx="67.993" cy="42.3" r=".894"/><circle cx="63.879" cy="45.131" r=".894"/><circle cx="55.1" cy="45.458" r=".894"/><circle cx="56.661" cy="40.714" r=".894"/><circle cx="60.352" cy="37.74" r=".894"/><circle cx="63.879" cy="40.221" r=".894"/><circle cx="72.224" cy="43.194" r=".894"/><circle cx="62.985" cy="35.058" r=".894"/><circle cx="60.692" cy="42.739" r=".894"/><circle cx="68.887" cy="46.743" r=".894"/><circle cx="69.542" cy="52.232" r=".894"/><circle cx="72.765" cy="48.191" r=".894"/><circle cx="64.773" cy="49.085" r=".894"/><circle cx="64.773" cy="53.321" r=".894"/><circle cx="58.449" cy="53.965" r=".894"/><circle cx="59.343" cy="47.926" r=".894"/><circle cx="55.1" cy="50.545" r=".894"/></g><path d="m67 113.689s-7.639-23.812 21.355-23.7c0 0-1.788 2.761-1.306 10.022s-7.713 19.633-20.049 13.678z" fill="#65b54e"/><path d="m87.057 100.005c.476 7.261-7.717 19.642-20.058 13.679a18.572 18.572 0 0 1 -.507-2.17c11.083 3.57 18.273-7.757 17.827-14.572a27.438 27.438 0 0 1 .284-6.824c1.176-.091 2.423-.142 3.752-.132 0 0-1.785 2.758-1.298 10.019z" fill="#3aad34"/><path d="m73.371 116.271a15.552 15.552 0 0 1 -6.8-1.682 1 1 0 0 1 -.517-.595c-.132-.409-3.155-10.11 2.192-17.413 3.691-5.041 10.392-7.6 19.919-7.6a1.168 1.168 0 0 1 1.076.525 1 1 0 0 1 -.041 1.019c-.009.017-1.595 2.674-1.147 9.411.279 4.211-2.2 10.561-7.348 14.034a13.012 13.012 0 0 1 -7.334 2.301zm-5.53-3.294c5.309 2.4 9.305.984 11.743-.661 4.363-2.944 6.716-8.537 6.47-12.243a24.375 24.375 0 0 1 .8-9.071c-8.146.217-13.855 2.484-16.985 6.75-4.179 5.686-2.513 13.383-2.028 15.225z" fill="#2f3a5a"/><path d="m66.093 116.33a1 1 0 0 1 -.955-1.3c.207-.663 5.2-16.3 17.382-21.095a1 1 0 0 1 .732 1.861c-11.28 4.437-16.156 19.677-16.2 19.83a1 1 0 0 1 -.959.704z" fill="#2f3a5a"/><path d="m70.408 106.503 6.549-2.067" fill="#65b54e"/><path d="m70.408 107.5a1 1 0 0 1 -.3-1.954l6.549-2.067a1 1 0 0 1 .6 1.909l-6.549 2.066a1.014 1.014 0 0 1 -.3.046z" fill="#2f3a5a"/><path d="m73.97 101.242 1.339-4.411" fill="#65b54e"/><path d="m73.97 102.241a.971.971 0 0 1 -.29-.043 1 1 0 0 1 -.667-1.247l1.339-4.41a1 1 0 0 1 1.914.58l-1.339 4.41a1 1 0 0 1 -.957.71z" fill="#2f3a5a"/><path d="m56.222 103.936s-9.977-22.93-31.688-3.711c0 0 3.166.893 7.6 6.666s18.754 9.66 24.088-2.955z" fill="#65b54e"/><path d="m32.125 106.893c4.434 5.769 18.762 9.663 24.1-2.962a18.638 18.638 0 0 0 -1.052-1.965c-5.97 10-18.848 6.233-23.01.819a27.431 27.431 0 0 0 -4.718-4.939c-.944.708-1.914 1.493-2.906 2.377-.002 0 3.161.894 7.586 6.67z" fill="#3aad34"/><path d="m44.172 113.316c-5.454 0-10.538-2.822-12.835-5.816-4.111-5.356-7.056-6.308-7.085-6.316a1.006 1.006 0 0 1 -.381-1.708c7.213-6.384 13.987-8.933 20.129-7.576 8.838 1.956 12.969 11.241 13.141 11.634a1 1 0 0 1 0 .789c-2.755 6.516-7.516 8.418-11.025 8.867a15.4 15.4 0 0 1 -1.944.126zm-17.833-13.324a24.413 24.413 0 0 1 6.584 6.291c2.262 2.946 7.726 5.6 12.942 4.926 2.915-.373 6.853-1.942 9.258-7.254-.852-1.7-4.68-8.584-11.569-10.1-5.162-1.141-10.954.924-17.215 6.137z" fill="#2f3a5a"/><path d="m57.988 105.569a.993.993 0 0 1 -.519-.146c-.138-.083-13.856-8.316-25.262-4.2a1 1 0 0 1 -.678-1.881c12.311-4.439 26.388 4.014 26.981 4.376a1 1 0 0 1 -.522 1.853z" fill="#2f3a5a"/><path d="m48.921 100.786-6.283 2.77" fill="#65b54e"/><path d="m42.639 104.556a1 1 0 0 1 -.405-1.915l6.284-2.77a1 1 0 0 1 .806 1.83l-6.283 2.77a1.012 1.012 0 0 1 -.402.085z" fill="#2f3a5a"/><path d="m42.773 99.184-3.917-2.429" fill="#65b54e"/><path d="m42.771 100.185a1 1 0 0 1 -.526-.151l-3.917-2.434a1 1 0 0 1 1.055-1.7l3.917 2.43a1 1 0 0 1 -.529 1.85z" fill="#2f3a5a"/></svg>