<svg width="350" height="121" viewBox="0 0 350 121" fill="none" xmlns="http://www.w3.org/2000/svg">
<g filter="url(#filter0_d)">
<path d="M90.4518 55.888H87.8118V51.904H95.1558V70H90.4518V55.888ZM102.439 65.416H106.519L102.103 73.36H99.3194L102.439 65.416ZM123.004 70H108.436L112.924 65.344C114.108 64.112 115.036 63.072 115.708 62.224C116.38 61.36 116.876 60.632 117.196 60.04C117.532 59.448 117.74 58.968 117.82 58.6C117.9 58.232 117.94 57.92 117.94 57.664C117.94 57.392 117.892 57.128 117.796 56.872C117.716 56.616 117.588 56.392 117.412 56.2C117.236 55.992 117.02 55.832 116.764 55.72C116.524 55.592 116.236 55.528 115.9 55.528C115.26 55.528 114.756 55.736 114.388 56.152C114.036 56.568 113.86 57.088 113.86 57.712C113.86 57.888 113.884 58.144 113.932 58.48H108.796C108.796 57.424 108.964 56.464 109.3 55.6C109.652 54.736 110.14 53.992 110.764 53.368C111.388 52.744 112.124 52.264 112.972 51.928C113.836 51.592 114.78 51.424 115.804 51.424C116.812 51.424 117.74 51.584 118.588 51.904C119.452 52.224 120.196 52.672 120.82 53.248C121.444 53.824 121.932 54.512 122.284 55.312C122.636 56.096 122.812 56.952 122.812 57.88C122.812 58.872 122.596 59.792 122.164 60.64C121.748 61.472 121.076 62.328 120.148 63.208L117.148 66.016H123.004V70ZM129.212 60.928C129.212 61.728 129.284 62.456 129.428 63.112C129.572 63.768 129.772 64.336 130.028 64.816C130.3 65.296 130.62 65.672 130.988 65.944C131.356 66.2 131.772 66.328 132.236 66.328C132.684 66.328 133.092 66.2 133.46 65.944C133.844 65.672 134.164 65.296 134.42 64.816C134.676 64.336 134.876 63.768 135.02 63.112C135.164 62.456 135.236 61.728 135.236 60.928C135.236 60.144 135.164 59.424 135.02 58.768C134.876 58.096 134.676 57.528 134.42 57.064C134.164 56.584 133.844 56.216 133.46 55.96C133.092 55.688 132.684 55.552 132.236 55.552C131.772 55.552 131.356 55.688 130.988 55.96C130.62 56.216 130.3 56.584 130.028 57.064C129.772 57.528 129.572 58.096 129.428 58.768C129.284 59.424 129.212 60.144 129.212 60.928ZM124.556 60.928C124.556 59.488 124.74 58.184 125.108 57.016C125.492 55.832 126.02 54.824 126.692 53.992C127.38 53.16 128.188 52.52 129.116 52.072C130.06 51.608 131.1 51.376 132.236 51.376C133.356 51.376 134.388 51.608 135.332 52.072C136.276 52.52 137.084 53.16 137.756 53.992C138.428 54.824 138.948 55.832 139.316 57.016C139.7 58.184 139.892 59.488 139.892 60.928C139.892 62.368 139.7 63.68 139.316 64.864C138.948 66.032 138.428 67.04 137.756 67.888C137.084 68.72 136.276 69.368 135.332 69.832C134.388 70.28 133.356 70.504 132.236 70.504C131.1 70.504 130.06 70.28 129.116 69.832C128.188 69.368 127.38 68.72 126.692 67.888C126.02 67.04 125.492 66.032 125.108 64.864C124.74 63.68 124.556 62.368 124.556 60.928ZM145.525 60.928C145.525 61.728 145.597 62.456 145.741 63.112C145.885 63.768 146.085 64.336 146.341 64.816C146.613 65.296 146.933 65.672 147.301 65.944C147.669 66.2 148.085 66.328 148.549 66.328C148.997 66.328 149.405 66.2 149.773 65.944C150.157 65.672 150.477 65.296 150.733 64.816C150.989 64.336 151.189 63.768 151.333 63.112C151.477 62.456 151.549 61.728 151.549 60.928C151.549 60.144 151.477 59.424 151.333 58.768C151.189 58.096 150.989 57.528 150.733 57.064C150.477 56.584 150.157 56.216 149.773 55.96C149.405 55.688 148.997 55.552 148.549 55.552C148.085 55.552 147.669 55.688 147.301 55.96C146.933 56.216 146.613 56.584 146.341 57.064C146.085 57.528 145.885 58.096 145.741 58.768C145.597 59.424 145.525 60.144 145.525 60.928ZM140.869 60.928C140.869 59.488 141.053 58.184 141.421 57.016C141.805 55.832 142.333 54.824 143.005 53.992C143.693 53.16 144.501 52.52 145.429 52.072C146.373 51.608 147.413 51.376 148.549 51.376C149.669 51.376 150.701 51.608 151.645 52.072C152.589 52.52 153.397 53.16 154.069 53.992C154.741 54.824 155.261 55.832 155.629 57.016C156.013 58.184 156.205 59.488 156.205 60.928C156.205 62.368 156.013 63.68 155.629 64.864C155.261 66.032 154.741 67.04 154.069 67.888C153.397 68.72 152.589 69.368 151.645 69.832C150.701 70.28 149.669 70.504 148.549 70.504C147.413 70.504 146.373 70.28 145.429 69.832C144.501 69.368 143.693 68.72 143.005 67.888C142.333 67.04 141.805 66.032 141.421 64.864C141.053 63.68 140.869 62.368 140.869 60.928ZM159.533 65.416H163.613L159.197 73.36H156.413L159.533 65.416ZM169.993 60.928C169.993 61.728 170.065 62.456 170.209 63.112C170.353 63.768 170.553 64.336 170.809 64.816C171.081 65.296 171.401 65.672 171.769 65.944C172.137 66.2 172.553 66.328 173.017 66.328C173.465 66.328 173.873 66.2 174.241 65.944C174.625 65.672 174.945 65.296 175.201 64.816C175.457 64.336 175.657 63.768 175.801 63.112C175.945 62.456 176.017 61.728 176.017 60.928C176.017 60.144 175.945 59.424 175.801 58.768C175.657 58.096 175.457 57.528 175.201 57.064C174.945 56.584 174.625 56.216 174.241 55.96C173.873 55.688 173.465 55.552 173.017 55.552C172.553 55.552 172.137 55.688 171.769 55.96C171.401 56.216 171.081 56.584 170.809 57.064C170.553 57.528 170.353 58.096 170.209 58.768C170.065 59.424 169.993 60.144 169.993 60.928ZM165.337 60.928C165.337 59.488 165.521 58.184 165.889 57.016C166.273 55.832 166.801 54.824 167.473 53.992C168.161 53.16 168.969 52.52 169.897 52.072C170.841 51.608 171.881 51.376 173.017 51.376C174.137 51.376 175.169 51.608 176.113 52.072C177.057 52.52 177.865 53.16 178.537 53.992C179.209 54.824 179.729 55.832 180.097 57.016C180.481 58.184 180.673 59.488 180.673 60.928C180.673 62.368 180.481 63.68 180.097 64.864C179.729 66.032 179.209 67.04 178.537 67.888C177.865 68.72 177.057 69.368 176.113 69.832C175.169 70.28 174.137 70.504 173.017 70.504C171.881 70.504 170.841 70.28 169.897 69.832C168.969 69.368 168.161 68.72 167.473 67.888C166.801 67.04 166.273 66.032 165.889 64.864C165.521 63.68 165.337 62.368 165.337 60.928ZM186.306 60.928C186.306 61.728 186.378 62.456 186.522 63.112C186.666 63.768 186.866 64.336 187.122 64.816C187.394 65.296 187.714 65.672 188.082 65.944C188.45 66.2 188.866 66.328 189.33 66.328C189.778 66.328 190.186 66.2 190.554 65.944C190.938 65.672 191.258 65.296 191.514 64.816C191.77 64.336 191.97 63.768 192.114 63.112C192.258 62.456 192.33 61.728 192.33 60.928C192.33 60.144 192.258 59.424 192.114 58.768C191.97 58.096 191.77 57.528 191.514 57.064C191.258 56.584 190.938 56.216 190.554 55.96C190.186 55.688 189.778 55.552 189.33 55.552C188.866 55.552 188.45 55.688 188.082 55.96C187.714 56.216 187.394 56.584 187.122 57.064C186.866 57.528 186.666 58.096 186.522 58.768C186.378 59.424 186.306 60.144 186.306 60.928ZM181.65 60.928C181.65 59.488 181.834 58.184 182.202 57.016C182.586 55.832 183.114 54.824 183.786 53.992C184.474 53.16 185.282 52.52 186.21 52.072C187.154 51.608 188.194 51.376 189.33 51.376C190.45 51.376 191.482 51.608 192.426 52.072C193.37 52.52 194.178 53.16 194.85 53.992C195.522 54.824 196.042 55.832 196.41 57.016C196.794 58.184 196.986 59.488 196.986 60.928C196.986 62.368 196.794 63.68 196.41 64.864C196.042 66.032 195.522 67.04 194.85 67.888C194.178 68.72 193.37 69.368 192.426 69.832C191.482 70.28 190.45 70.504 189.33 70.504C188.194 70.504 187.154 70.28 186.21 69.832C185.282 69.368 184.474 68.72 183.786 67.888C183.114 67.04 182.586 66.032 182.202 64.864C181.834 63.68 181.65 62.368 181.65 60.928ZM202.618 60.928C202.618 61.728 202.69 62.456 202.834 63.112C202.978 63.768 203.178 64.336 203.434 64.816C203.706 65.296 204.026 65.672 204.394 65.944C204.762 66.2 205.178 66.328 205.642 66.328C206.09 66.328 206.498 66.2 206.866 65.944C207.25 65.672 207.57 65.296 207.826 64.816C208.082 64.336 208.282 63.768 208.426 63.112C208.57 62.456 208.642 61.728 208.642 60.928C208.642 60.144 208.57 59.424 208.426 58.768C208.282 58.096 208.082 57.528 207.826 57.064C207.57 56.584 207.25 56.216 206.866 55.96C206.498 55.688 206.09 55.552 205.642 55.552C205.178 55.552 204.762 55.688 204.394 55.96C204.026 56.216 203.706 56.584 203.434 57.064C203.178 57.528 202.978 58.096 202.834 58.768C202.69 59.424 202.618 60.144 202.618 60.928ZM197.962 60.928C197.962 59.488 198.146 58.184 198.514 57.016C198.898 55.832 199.426 54.824 200.098 53.992C200.786 53.16 201.594 52.52 202.522 52.072C203.466 51.608 204.506 51.376 205.642 51.376C206.762 51.376 207.794 51.608 208.738 52.072C209.682 52.52 210.49 53.16 211.162 53.992C211.834 54.824 212.354 55.832 212.722 57.016C213.106 58.184 213.298 59.488 213.298 60.928C213.298 62.368 213.106 63.68 212.722 64.864C212.354 66.032 211.834 67.04 211.162 67.888C210.49 68.72 209.682 69.368 208.738 69.832C207.794 70.28 206.762 70.504 205.642 70.504C204.506 70.504 203.466 70.28 202.522 69.832C201.594 69.368 200.786 68.72 200.098 67.888C199.426 67.04 198.898 66.032 198.514 64.864C198.146 63.68 197.962 62.368 197.962 60.928ZM113.718 83.416V94H110.19V83.416H107.292V80.428H116.616V83.416H113.718ZM121.141 87.214C121.141 87.754 121.243 88.252 121.447 88.708C121.651 89.164 121.927 89.56 122.275 89.896C122.623 90.232 123.025 90.496 123.481 90.688C123.949 90.868 124.441 90.958 124.957 90.958C125.473 90.958 125.959 90.868 126.415 90.688C126.883 90.496 127.291 90.232 127.639 89.896C127.999 89.56 128.281 89.164 128.485 88.708C128.689 88.252 128.791 87.754 128.791 87.214C128.791 86.674 128.689 86.176 128.485 85.72C128.281 85.264 127.999 84.868 127.639 84.532C127.291 84.196 126.883 83.938 126.415 83.758C125.959 83.566 125.473 83.47 124.957 83.47C124.441 83.47 123.949 83.566 123.481 83.758C123.025 83.938 122.623 84.196 122.275 84.532C121.927 84.868 121.651 85.264 121.447 85.72C121.243 86.176 121.141 86.674 121.141 87.214ZM117.451 87.214C117.451 86.206 117.637 85.27 118.009 84.406C118.381 83.53 118.897 82.768 119.557 82.12C120.217 81.472 121.003 80.968 121.915 80.608C122.839 80.236 123.853 80.05 124.957 80.05C126.049 80.05 127.057 80.236 127.981 80.608C128.905 80.968 129.697 81.472 130.357 82.12C131.029 82.768 131.551 83.53 131.923 84.406C132.295 85.27 132.481 86.206 132.481 87.214C132.481 88.222 132.295 89.164 131.923 90.04C131.551 90.904 131.029 91.66 130.357 92.308C129.697 92.956 128.905 93.466 127.981 93.838C127.057 94.198 126.049 94.378 124.957 94.378C123.853 94.378 122.839 94.198 121.915 93.838C121.003 93.466 120.217 92.956 119.557 92.308C118.897 91.66 118.381 90.904 118.009 90.04C117.637 89.164 117.451 88.222 117.451 87.214ZM134.097 94L136.401 80.428H139.893L142.611 87.664L145.311 80.428H148.803L151.107 94H147.597L146.427 86.188L143.223 94H141.819L138.777 86.188L137.607 94H134.097ZM160.722 88.96L159.138 84.442L157.554 88.96H160.722ZM161.658 91.642H156.618L155.808 94H152.046L157.212 80.428H161.064L166.23 94H162.468L161.658 91.642ZM172.324 83.416V94H168.796V83.416H165.898V80.428H175.222V83.416H172.324ZM179.746 87.214C179.746 87.754 179.848 88.252 180.052 88.708C180.256 89.164 180.532 89.56 180.88 89.896C181.228 90.232 181.63 90.496 182.086 90.688C182.554 90.868 183.046 90.958 183.562 90.958C184.078 90.958 184.564 90.868 185.02 90.688C185.488 90.496 185.896 90.232 186.244 89.896C186.604 89.56 186.886 89.164 187.09 88.708C187.294 88.252 187.396 87.754 187.396 87.214C187.396 86.674 187.294 86.176 187.09 85.72C186.886 85.264 186.604 84.868 186.244 84.532C185.896 84.196 185.488 83.938 185.02 83.758C184.564 83.566 184.078 83.47 183.562 83.47C183.046 83.47 182.554 83.566 182.086 83.758C181.63 83.938 181.228 84.196 180.88 84.532C180.532 84.868 180.256 85.264 180.052 85.72C179.848 86.176 179.746 86.674 179.746 87.214ZM176.056 87.214C176.056 86.206 176.242 85.27 176.614 84.406C176.986 83.53 177.502 82.768 178.162 82.12C178.822 81.472 179.608 80.968 180.52 80.608C181.444 80.236 182.458 80.05 183.562 80.05C184.654 80.05 185.662 80.236 186.586 80.608C187.51 80.968 188.302 81.472 188.962 82.12C189.634 82.768 190.156 83.53 190.528 84.406C190.9 85.27 191.086 86.206 191.086 87.214C191.086 88.222 190.9 89.164 190.528 90.04C190.156 90.904 189.634 91.66 188.962 92.308C188.302 92.956 187.51 93.466 186.586 93.838C185.662 94.198 184.654 94.378 183.562 94.378C182.458 94.378 181.444 94.198 180.52 93.838C179.608 93.466 178.822 92.956 178.162 92.308C177.502 91.66 176.986 90.904 176.614 90.04C176.242 89.164 176.056 88.222 176.056 87.214ZM201.037 83.416H196.843V85.684H200.803V88.672H196.843V91.012H201.037V94H193.315V80.428H201.037V83.416ZM211.032 83.902C210.648 83.59 210.264 83.362 209.88 83.218C209.496 83.062 209.124 82.984 208.764 82.984C208.308 82.984 207.936 83.092 207.648 83.308C207.36 83.524 207.216 83.806 207.216 84.154C207.216 84.394 207.288 84.592 207.432 84.748C207.576 84.904 207.762 85.042 207.99 85.162C208.23 85.27 208.494 85.366 208.782 85.45C209.082 85.534 209.376 85.624 209.664 85.72C210.816 86.104 211.656 86.62 212.184 87.268C212.724 87.904 212.994 88.738 212.994 89.77C212.994 90.466 212.874 91.096 212.634 91.66C212.406 92.224 212.064 92.71 211.608 93.118C211.164 93.514 210.612 93.82 209.952 94.036C209.304 94.264 208.566 94.378 207.738 94.378C206.022 94.378 204.432 93.868 202.968 92.848L204.48 90.004C205.008 90.472 205.53 90.82 206.046 91.048C206.562 91.276 207.072 91.39 207.576 91.39C208.152 91.39 208.578 91.258 208.854 90.994C209.142 90.73 209.286 90.43 209.286 90.094C209.286 89.89 209.25 89.716 209.178 89.572C209.106 89.416 208.986 89.278 208.818 89.158C208.65 89.026 208.428 88.906 208.152 88.798C207.888 88.69 207.564 88.57 207.18 88.438C206.724 88.294 206.274 88.138 205.83 87.97C205.398 87.79 205.008 87.556 204.66 87.268C204.324 86.98 204.048 86.62 203.832 86.188C203.628 85.744 203.526 85.186 203.526 84.514C203.526 83.842 203.634 83.236 203.85 82.696C204.078 82.144 204.39 81.676 204.786 81.292C205.194 80.896 205.686 80.59 206.262 80.374C206.85 80.158 207.504 80.05 208.224 80.05C208.896 80.05 209.598 80.146 210.33 80.338C211.062 80.518 211.764 80.788 212.436 81.148L211.032 83.902Z" fill="white"/>
</g>
<path d="M343.481 77.0387C343.481 100.121 321.711 119.484 302.606 119.985C298.017 120.105 293.466 119.484 288.64 119.484C283.75 119.484 279.145 120.097 274.499 119.943C260.717 119.484 233.799 100.063 233.799 77.0389C233.799 54.0107 245.814 29.9983 274.51 29.5122C279.154 29.4335 288.64 33.4373 288.64 33.4373C288.64 33.4373 297.811 29.4018 302.302 29.4016C331.269 29.3997 343.481 53.8577 343.481 77.0387Z" fill="#FD4949"/>
<path d="M319.424 32.8542C319.423 32.8539 319.423 32.8535 319.422 32.853C319.422 32.853 319.422 32.853 319.422 32.853C318.918 32.6261 318.405 32.4091 317.884 32.2026C313.352 30.4073 294.4 34.5459 288.64 33.7879C284.736 33.2742 259.361 32.3929 259.36 32.3927C258.087 32.9041 256.843 33.4814 255.635 34.1235C255.635 34.1245 255.636 34.1254 255.636 34.1261C240.442 42.2636 233.799 59.9207 233.799 77.038C233.799 100.062 260.717 119.484 274.499 119.942C279.145 120.096 283.751 119.483 288.64 119.483C293.466 119.483 298.016 120.104 302.605 119.984C321.71 119.483 343.481 100.12 343.481 77.0378C343.481 59.0962 336.162 40.3926 319.424 32.8542ZM298.183 107.541C294.224 107.644 290.299 107.109 286.136 107.109C281.918 107.109 277.945 107.638 273.937 107.504C262.049 107.109 238.829 90.3559 238.829 70.4943C238.829 56.4796 243.989 42.044 255.72 34.6089C255.829 34.9462 256.047 35.2631 256.395 35.5122L265.948 42.3534C266.955 43.0745 266.955 44.5375 265.948 45.2589L256.395 52.1001C254.906 53.166 255.76 55.4598 257.606 55.3546L278.383 54.1701C278.978 54.1361 279.554 54.3815 279.931 54.8298L289.246 65.9052C289.99 66.789 291.381 66.789 292.124 65.9052L301.439 54.8298C301.816 54.3815 302.392 54.1361 302.987 54.1701L323.764 55.3546C325.61 55.4598 326.464 53.166 324.976 52.1001L315.423 45.2589C314.415 44.5375 314.415 43.0748 315.423 42.3534L321.393 38.2792C329.701 46.2787 333.443 58.5803 333.443 70.494C333.443 90.4055 314.663 107.109 298.183 107.541Z" fill="#CE2C2C"/>
<path d="M244.358 84.7769C243.199 84.7769 242.163 83.9868 241.923 82.8415C240.898 77.9438 240.905 72.6489 241.946 67.1041C242.218 65.6585 242.563 64.1913 242.972 62.7436C243.336 61.4569 244.706 60.7008 246.03 61.054C247.355 61.4077 248.134 62.7375 247.769 64.0242C247.398 65.336 247.086 66.6639 246.84 67.971C245.914 72.9074 245.899 77.5866 246.798 81.8784C247.071 83.1862 246.202 84.4619 244.856 84.7277C244.689 84.761 244.522 84.7769 244.358 84.7769Z" fill="white"/>
<path d="M247.782 59.0829C247.445 59.0829 247.102 59.0162 246.775 58.8748C245.519 58.3339 244.952 56.9063 245.509 55.6864C245.864 54.9094 246.244 54.1397 246.64 53.3991C247.273 52.2145 248.775 51.7526 249.994 52.3674C251.213 52.9821 251.689 54.4409 251.056 55.6252C250.707 56.2784 250.371 56.9581 250.057 57.645C249.645 58.5472 248.735 59.0829 247.782 59.0829Z" fill="white"/>
<path d="M293.461 15.2949C294.815 16.8108 293.949 30.4302 293.949 30.4302C294.326 30.8786 298.299 28.4233 303.423 27.5017C308.547 26.5802 321.719 26.2214 321.719 26.2214C323.565 26.1161 324.419 28.4099 322.93 29.4759L313.377 36.317C312.37 37.0384 312.37 38.5011 313.377 39.2225L322.93 46.0636C324.419 47.1295 323.565 49.4233 321.719 49.3181L300.942 48.1336C300.347 48.0996 299.771 48.345 299.394 48.7933L290.079 59.8686C289.335 60.7524 287.944 60.7524 287.201 59.8686L277.886 48.7933C277.509 48.345 276.933 48.0996 276.338 48.1336L255.561 49.3181C253.715 49.4233 252.861 47.1295 254.349 46.0636L263.902 39.2225C264.91 38.5011 264.91 37.0384 263.902 36.317L254.349 29.4759C252.861 28.4099 253.715 26.1161 255.561 26.2214C255.561 26.2214 267.93 27.1471 273.222 27.8435C278.982 28.6014 283.724 31.0443 284.101 30.5959C284.101 30.5959 282.825 17.7371 284.098 15.4632C285.371 13.1895 292.108 13.779 293.461 15.2949Z" fill="#6FA755"/>
<path d="M300.766 80.8134C299.942 80.8134 299.273 80.1641 299.273 79.3635V76.4397C299.273 75.6391 299.942 74.9899 300.766 74.9899C301.59 74.9899 302.259 75.6391 302.259 76.4397V79.3635C302.259 80.1644 301.59 80.8134 300.766 80.8134Z" fill="#BC0000"/>
<path d="M310.489 86.1947C309.665 86.1947 308.997 85.5455 308.997 84.7449V81.8211C308.997 81.0204 309.665 80.3712 310.489 80.3712C311.313 80.3712 311.982 81.0204 311.982 81.8211V84.7449C311.982 85.5455 311.314 86.1947 310.489 86.1947Z" fill="#BC0000"/>
<path d="M318.223 75.927C317.399 75.927 316.731 75.2778 316.731 74.4772V71.5534C316.731 70.7528 317.399 70.1036 318.223 70.1036C319.047 70.1036 319.716 70.7528 319.716 71.5534V74.4772C319.716 75.2778 319.047 75.927 318.223 75.927Z" fill="#BC0000"/>
<path d="M343.523 7.56492L345.144 11.9901C345.213 12.1795 345.35 12.3297 345.524 12.4056L349.571 14.177C350.143 14.4273 350.143 15.3123 349.571 15.5624L345.524 17.3338C345.35 17.4097 345.213 17.5597 345.144 17.7493L343.523 22.1745C343.295 22.7998 342.485 22.7998 342.256 22.1745L340.636 17.7493C340.567 17.5599 340.429 17.4097 340.256 17.3338L336.209 15.5624C335.637 15.3121 335.637 14.4271 336.209 14.177L340.256 12.4056C340.429 12.3297 340.567 12.1797 340.636 11.9901L342.256 7.56492C342.485 6.93962 343.295 6.93962 343.523 7.56492Z" fill="#FFF491"/>
<path d="M321.518 6.3892C322.654 6.3892 323.575 5.4945 323.575 4.39083C323.575 3.28716 322.654 2.39246 321.518 2.39246C320.381 2.39246 319.46 3.28716 319.46 4.39083C319.46 5.4945 320.381 6.3892 321.518 6.3892Z" fill="#FD4949"/>
<path d="M240.44 0.632112L242.624 6.59791C242.717 6.85338 242.902 7.05565 243.136 7.15807L248.593 9.54613C249.364 9.88339 249.364 11.0766 248.593 11.4139L243.136 13.8019C242.903 13.9041 242.717 14.1066 242.624 14.3621L240.44 20.3279C240.131 21.1707 239.04 21.1707 238.731 20.3279L236.547 14.3618C236.453 14.1064 236.268 13.9041 236.035 13.8017L230.578 11.4139C229.807 11.0766 229.807 9.88339 230.578 9.54613L236.035 7.15807C236.268 7.05588 236.454 6.85338 236.547 6.59791L238.731 0.632112C239.04 -0.210704 240.131 -0.210704 240.44 0.632112Z" fill="#FFF491"/>
<defs>
<filter id="filter0_d" x="83.8118" y="51.376" width="133.487" height="51.002" filterUnits="userSpaceOnUse" color-interpolation-filters="sRGB">
<feFlood flood-opacity="0" result="BackgroundImageFix"/>
<feColorMatrix in="SourceAlpha" type="matrix" values="0 0 0 0 0 0 0 0 0 0 0 0 0 0 0 0 0 0 127 0"/>
<feOffset dy="4"/>
<feGaussianBlur stdDeviation="2"/>
<feColorMatrix type="matrix" values="0 0 0 0 0.120716 0 0 0 0 0.279167 0 0 0 0 0.117483 0 0 0 0.75 0"/>
<feBlend mode="normal" in2="BackgroundImageFix" result="effect1_dropShadow"/>
<feBlend mode="normal" in="SourceGraphic" in2="effect1_dropShadow" result="shape"/>
</filter>
</defs>
</svg>
