<svg width="49" height="43" viewBox="0 0 49 43" fill="none" xmlns="http://www.w3.org/2000/svg">
<path d="M43.5555 26.875C43.5555 26.875 38.1111 34.6562 38.1111 37.625C38.1111 40.5938 40.5492 43 43.5555 43C46.5619 43 49 40.5938 49 37.625C49 34.6562 43.5555 26.875 43.5555 26.875ZM42.7584 18.2296L25.0903 0.786934C24.5586 0.262031 23.8619 0 23.1651 0C22.4684 0 21.7717 0.262031 21.2409 0.786934L14.3009 7.63838L6.96956 0.399766C6.43787 -0.125137 5.57611 -0.125137 5.04528 0.399766L3.121 2.29949C2.59016 2.82439 2.59016 3.67516 3.121 4.19922L10.4532 11.437L2.39195 19.3954C-0.797317 22.5431 -0.797317 27.6477 2.39195 30.7962L12.3613 40.6384C13.9555 42.2122 16.0457 43 18.135 43C20.2251 43 22.3144 42.2131 23.9087 40.6384L42.7576 22.0299C43.8209 20.9801 43.8209 19.2795 42.7584 18.2296ZM32.8716 24.19H5.60844C5.72413 23.8675 5.91214 23.5198 6.24051 23.1965L7.35918 22.0921L14.3017 15.2381L19.2868 20.1596C20.3493 21.2086 22.0729 21.2086 23.1354 20.1596C24.1979 19.1106 24.1979 17.4091 23.1354 16.3602L18.1503 11.4387L23.1651 6.48779L36.9839 20.1302L32.8716 24.19Z" fill="white"/>
</svg>
