<?xml version="1.0" encoding="iso-8859-1"?>
<!-- Generator: Adobe Illustrator 21.0.0, SVG Export Plug-In . SVG Version: 6.00 Build 0)  -->
<svg xmlns="http://www.w3.org/2000/svg" xmlns:xlink="http://www.w3.org/1999/xlink" version="1.1" id="Capa_1" x="0px" y="0px" viewBox="0 0 511.975 511.975" style="enable-background:new 0 0 511.975 511.975;" xml:space="preserve" width="512" height="512">
<g>
	<g>
		<path style="fill:#28AC87;" d="M339.001,440.067c-3.71,0-7.341-1.378-10.142-3.948L208.925,326.083    c-3.25-2.981-5.023-7.242-4.848-11.649c0.176-4.407,2.282-8.513,5.758-11.227l208.221-162.545    c5.195-4.057,12.431-4.245,17.83-0.466c5.4,3.779,7.701,10.641,5.67,16.912L353.27,429.689c-1.573,4.858-5.511,8.582-10.449,9.883    C341.559,439.904,340.275,440.067,339.001,440.067z"/>
	</g>
	<g>
		<g>
			<path style="fill:#FFE470;" d="M82.14,384.097c-4.133,0-8.248-1.698-11.211-5.029l-38.231-42.965     C10.39,311.034,0,281.649,0,243.625c0-34.062,10.787-65.945,30.373-89.774c20.557-25.011,48.836-38.785,79.63-38.785     c8.284,0,15,6.716,15,15s-6.716,15-15,15C65.141,145.066,30,188.359,30,243.625c0,30.65,7.744,53.02,25.109,72.535l38.232,42.966     c5.507,6.189,4.954,15.67-1.235,21.177C89.248,382.846,85.687,384.097,82.14,384.097z"/>
		</g>
	</g>
	<g>
		<path style="fill:#00ECCF;" d="M339,440.066H75c-4.287,0-8.369-1.834-11.216-5.04s-4.186-7.476-3.679-11.733l40-336    c0.898-7.545,7.296-13.227,14.895-13.227h184c7.598,0,13.997,5.682,14.895,13.227l40,336c0.507,4.257-0.832,8.527-3.679,11.733    S343.287,440.066,339,440.066z"/>
	</g>
	<path style="fill:#00CAB1;" d="M353.895,423.294l-40-336c-0.898-7.545-7.296-13.227-14.895-13.227h-90.679v366H339   c4.287,0,8.369-1.834,11.216-5.04S354.402,427.55,353.895,423.294z"/>
	<g>
		<path style="fill:#FDBF00;" d="M450.94,200.43c-17.011,0-34.108-5.74-48.132-17.5c-31.687-26.574-35.847-73.973-9.275-105.66    c2.557-3.048,6.219-4.957,10.182-5.304c3.961-0.351,7.902,0.893,10.95,3.449l91.947,77.109c3.048,2.556,4.956,6.219,5.304,10.182    c0.348,3.963-0.893,7.902-3.449,10.95C493.655,191.319,472.367,200.43,450.94,200.43z"/>
	</g>
	<polygon style="fill:#FFF4F4;" points="94.537,134.067 319.463,134.067 315.891,104.067 98.109,104.067  "/>
	<polygon style="fill:#FFF4F4;" points="61.621,410.566 352.379,410.566 348.808,380.566 65.192,380.566  "/>
	<polygon style="fill:#EEE1DC;" points="208.321,134.067 319.463,134.067 315.891,104.067 208.321,104.067  "/>
	<polygon style="fill:#EEE1DC;" points="208.321,410.566 352.379,410.566 348.808,380.566 208.321,380.566  "/>
</g>















</svg>
