<svg width="121" height="75" viewBox="0 0 121 75" fill="none" xmlns="http://www.w3.org/2000/svg">
<path d="M105.336 12.3862C99.27 12.3862 94.9722 15.3692 92.0239 19.2253L91.8514 13.9004C91.8514 11.3077 90.0373 8.96169 87.7981 8.96169H43.2181C40.9808 8.96169 39.1648 11.3077 39.1648 13.9004L38.6636 28.016L12.1967 6.70397C13.4458 3.71064 13.5916 1.21681 12.3075 0.32309C10.4606 -0.960992 6.41155 1.69955 3.26419 6.22746C0.116826 10.7532 -0.93695 15.4805 0.90979 16.7644C2.32535 17.7479 5.02865 16.4215 7.63247 13.7178L37.7572 53.361L37.1389 69.946C37.1389 72.5385 38.9529 74.7057 41.1922 74.7057H89.8236C92.0609 74.7057 93.8769 72.5385 93.8769 69.946L93.5523 61.2251C97.3549 56.5432 101.77 53.3857 106.082 50.1993C113.755 44.5291 121.001 39.2413 121.001 27.451C121.001 18.4014 114.706 12.3862 105.336 12.3862ZM103.292 46.5567C100.065 48.942 96.5989 51.5448 93.31 54.8071L92.367 28.739C93.8501 24.0385 97.3839 17.0823 105.336 17.0823C112.206 17.0823 116.307 20.9816 116.307 27.5187C116.307 36.9423 110.563 41.1845 103.292 46.5567Z" fill="#858686"/>
</svg>
