<svg width="309" height="250" viewBox="0 0 309 250" fill="none" xmlns="http://www.w3.org/2000/svg">
<path d="M46.188 149.117L191.622 11.62L190.194 56.2824L44.7595 193.711L46.188 149.117Z" fill="#B7B694"/>
<path d="M46.188 149.117L191.622 11.62L190.194 56.2824L44.7595 193.711L46.188 149.117Z" fill="#B7B694"/>
<path d="M1.42853 138.244L146.863 0.746826L191.622 11.62L46.188 149.117L1.42853 138.244Z" fill="#D5D3AC"/>
<path d="M46.1879 149.117L44.7594 193.71L0 182.837L1.42849 138.244L46.1879 149.117Z" fill="#A5A485"/>
<path opacity="0.6" d="M48 125.158C48 125.158 48.5156 139.468 50.8416 144.416C53.1676 149.365 57.1723 151.278 63.2512 154.313C69.33 157.348 74.7495 159.542 77.3393 169.439C79.9291 179.336 85.4804 184.565 85.4804 184.565C85.4804 184.565 93.2379 170.255 96.2114 164.21C99.1849 158.165 102.938 126.536 103.969 122.684C105 118.833 105 112.507 105 112.507C105 112.507 101.127 111.41 98.4056 108.655C95.6958 105.9 87.5427 95.1873 84.5812 93.8099C81.6077 92.4325 74.9893 95.5189 73.1308 89.4482C71.2724 83.3775 72.0398 79.5259 72.0398 79.5259L48 125.158Z" fill="url(#paint0_linear)"/>
<path d="M46.5281 139.895L191.962 2.46729L200.601 31.3705L55.1671 168.867L46.5281 139.895Z" fill="#D88370"/>
<path d="M1.42853 138.244L146.863 0.746826L191.962 2.46726L46.5281 139.895L1.42853 138.244Z" fill="#FEA794"/>
<path d="M1.42853 138.244L46.5281 139.964L55.1671 168.867C55.1671 168.867 27.8216 171.483 17.8222 165.22C7.82273 158.889 1.42853 138.244 1.42853 138.244Z" fill="#B16D5E"/>
<defs>
<linearGradient id="paint0_linear" x1="48.0015" y1="132.029" x2="105.001" y2="132.029" gradientUnits="userSpaceOnUse">
<stop offset="0.005618" stopColor="#DBF2F7"/>
<stop offset="1" stopColor="#B3E2EE"/>
</linearGradient>
</defs>
</svg>
