<svg width="371" height="310" viewBox="0 0 371 310" fill="none" xmlns="http://www.w3.org/2000/svg">
<path d="M46.188 146.903L191.622 10.7656L190.194 54.9864L44.7595 191.055L46.188 146.903Z" fill="#B7B694"/>
<path d="M46.188 146.903L191.622 10.7656L190.194 54.9864L44.7595 191.055L46.188 146.903Z" fill="#B7B694"/>
<path d="M1.42847 136.137L146.863 0L191.622 10.7656L46.1879 146.903L1.42847 136.137Z" fill="#D5D3AC"/>
<path d="M46.1879 146.903L44.7594 191.055L0 180.29L1.42849 136.137L46.1879 146.903Z" fill="#A5A485"/>
<path opacity="0.6" d="M47.6165 150.378C47.6165 150.378 50.5415 188.602 63.738 201.821C76.9346 215.04 99.6544 220.15 134.142 228.258C168.63 236.366 199.377 242.226 214.07 268.663C228.763 295.1 260.258 309.068 260.258 309.068C260.258 309.068 304.269 270.844 321.139 254.695C338.009 238.547 359.3 154.057 365.15 143.769C371 133.48 371 116.582 371 116.582C371 116.582 349.028 113.652 333.587 106.293C318.214 98.9346 271.958 70.3171 255.156 66.6378C238.286 62.9584 200.737 71.2029 190.194 54.9864C179.65 38.7698 184.004 28.4812 184.004 28.4812L47.6165 150.378Z" fill="url(#paint0_linear)"/>
<path d="M46.528 137.772L191.962 1.70337L200.601 30.3208L55.167 166.458L46.528 137.772Z" fill="#D88370"/>
<path d="M1.42847 136.137L146.863 0L191.962 1.70342L46.528 137.772L1.42847 136.137Z" fill="#FEA794"/>
<path d="M1.42847 136.137L46.528 137.841L55.167 166.458C55.167 166.458 27.8216 169.047 17.8221 162.847C7.82267 156.578 1.42847 136.137 1.42847 136.137Z" fill="#B16D5E"/>
<path opacity="0.5" d="M68.9078 181.925C68.9078 181.925 188.425 144.45 214.07 151.809L68.9078 181.925Z" fill="url(#paint1_linear)"/>
<path opacity="0.5" d="M262.503 92.3252C262.503 92.3252 289.644 142.269 276.447 245.837L262.503 92.3252Z" fill="url(#paint2_linear)"/>
<path opacity="0.5" d="M307.942 113.652C307.942 113.652 311.615 170.955 290.324 223.829L307.942 113.652Z" fill="url(#paint3_linear)"/>
<g filter="url(#filter0_d)">
<path d="M170.683 120L173.243 104.92H177.123L180.143 112.96L183.143 104.92H187.023L189.583 120H185.683L184.383 111.32L180.823 120H179.263L175.883 111.32L174.583 120H170.683ZM195.146 114.82C195.146 115.167 195.206 115.487 195.326 115.78C195.46 116.06 195.626 116.307 195.826 116.52C196.04 116.733 196.286 116.9 196.566 117.02C196.86 117.14 197.166 117.2 197.486 117.2C197.806 117.2 198.106 117.14 198.386 117.02C198.68 116.9 198.926 116.733 199.126 116.52C199.34 116.307 199.506 116.06 199.626 115.78C199.76 115.487 199.826 115.173 199.826 114.84C199.826 114.52 199.76 114.22 199.626 113.94C199.506 113.647 199.34 113.393 199.126 113.18C198.926 112.967 198.68 112.8 198.386 112.68C198.106 112.56 197.806 112.5 197.486 112.5C197.166 112.5 196.86 112.56 196.566 112.68C196.286 112.8 196.04 112.967 195.826 113.18C195.626 113.393 195.46 113.64 195.326 113.92C195.206 114.2 195.146 114.5 195.146 114.82ZM191.326 114.78C191.326 114.02 191.48 113.313 191.786 112.66C192.093 111.993 192.52 111.42 193.066 110.94C193.613 110.447 194.26 110.06 195.006 109.78C195.766 109.5 196.593 109.36 197.486 109.36C198.366 109.36 199.18 109.5 199.926 109.78C200.686 110.047 201.34 110.427 201.886 110.92C202.446 111.4 202.88 111.98 203.186 112.66C203.493 113.327 203.646 114.067 203.646 114.88C203.646 115.693 203.486 116.44 203.166 117.12C202.86 117.787 202.433 118.367 201.886 118.86C201.34 119.34 200.68 119.713 199.906 119.98C199.146 120.247 198.32 120.38 197.426 120.38C196.546 120.38 195.733 120.247 194.986 119.98C194.24 119.713 193.593 119.333 193.046 118.84C192.513 118.347 192.093 117.76 191.786 117.08C191.48 116.387 191.326 115.62 191.326 114.78ZM212.53 112.38C211.864 112.033 211.21 111.86 210.57 111.86C210.237 111.86 209.964 111.927 209.75 112.06C209.55 112.193 209.45 112.373 209.45 112.6C209.45 112.72 209.464 112.82 209.49 112.9C209.53 112.967 209.604 113.033 209.71 113.1C209.83 113.167 209.997 113.227 210.21 113.28C210.437 113.333 210.73 113.4 211.09 113.48C212.09 113.68 212.837 114.04 213.33 114.56C213.824 115.067 214.07 115.72 214.07 116.52C214.07 117.12 213.95 117.66 213.71 118.14C213.47 118.62 213.137 119.027 212.71 119.36C212.284 119.68 211.77 119.927 211.17 120.1C210.57 120.287 209.91 120.38 209.19 120.38C207.804 120.38 206.437 119.987 205.09 119.2L206.41 116.64C207.424 117.333 208.384 117.68 209.29 117.68C209.624 117.68 209.897 117.607 210.11 117.46C210.324 117.313 210.43 117.127 210.43 116.9C210.43 116.767 210.41 116.66 210.37 116.58C210.344 116.487 210.277 116.407 210.17 116.34C210.064 116.26 209.904 116.193 209.69 116.14C209.49 116.073 209.224 116.007 208.89 115.94C207.77 115.713 206.984 115.38 206.53 114.94C206.09 114.487 205.87 113.867 205.87 113.08C205.87 112.507 205.977 111.993 206.19 111.54C206.404 111.073 206.71 110.68 207.11 110.36C207.51 110.04 207.99 109.793 208.55 109.62C209.124 109.447 209.757 109.36 210.45 109.36C211.584 109.36 212.684 109.58 213.75 110.02L212.53 112.38ZM220.219 112.76V120H216.599V112.76H215.399V109.74H216.599V106.66H220.219V109.74H222.279V112.76H220.219ZM234.357 112.76V120H230.737V112.76H229.437V109.74H230.737V108.2C230.737 107.347 230.817 106.667 230.977 106.16C231.111 105.733 231.324 105.34 231.617 104.98C231.911 104.607 232.251 104.287 232.637 104.02C233.037 103.753 233.464 103.547 233.917 103.4C234.371 103.253 234.817 103.18 235.257 103.18C235.564 103.18 235.844 103.213 236.097 103.28C236.364 103.347 236.631 103.44 236.897 103.56V106.72C236.657 106.6 236.431 106.513 236.217 106.46C236.017 106.393 235.804 106.36 235.577 106.36C235.431 106.36 235.277 106.387 235.117 106.44C234.971 106.48 234.831 106.573 234.697 106.72C234.564 106.867 234.471 107.08 234.417 107.36C234.377 107.627 234.357 107.993 234.357 108.46V109.74H236.897V112.76H234.357ZM241.846 114.82C241.846 115.167 241.906 115.487 242.026 115.78C242.159 116.06 242.326 116.307 242.526 116.52C242.739 116.733 242.986 116.9 243.266 117.02C243.559 117.14 243.866 117.2 244.186 117.2C244.506 117.2 244.806 117.14 245.086 117.02C245.379 116.9 245.626 116.733 245.826 116.52C246.039 116.307 246.206 116.06 246.326 115.78C246.459 115.487 246.526 115.173 246.526 114.84C246.526 114.52 246.459 114.22 246.326 113.94C246.206 113.647 246.039 113.393 245.826 113.18C245.626 112.967 245.379 112.8 245.086 112.68C244.806 112.56 244.506 112.5 244.186 112.5C243.866 112.5 243.559 112.56 243.266 112.68C242.986 112.8 242.739 112.967 242.526 113.18C242.326 113.393 242.159 113.64 242.026 113.92C241.906 114.2 241.846 114.5 241.846 114.82ZM238.026 114.78C238.026 114.02 238.179 113.313 238.486 112.66C238.792 111.993 239.219 111.42 239.766 110.94C240.312 110.447 240.959 110.06 241.706 109.78C242.466 109.5 243.292 109.36 244.186 109.36C245.066 109.36 245.879 109.5 246.626 109.78C247.386 110.047 248.039 110.427 248.586 110.92C249.146 111.4 249.579 111.98 249.886 112.66C250.192 113.327 250.346 114.067 250.346 114.88C250.346 115.693 250.186 116.44 249.866 117.12C249.559 117.787 249.132 118.367 248.586 118.86C248.039 119.34 247.379 119.713 246.606 119.98C245.846 120.247 245.019 120.38 244.126 120.38C243.246 120.38 242.432 120.247 241.686 119.98C240.939 119.713 240.292 119.333 239.746 118.84C239.212 118.347 238.792 117.76 238.486 117.08C238.179 116.387 238.026 115.62 238.026 114.78ZM255.849 114.82C255.849 115.167 255.909 115.487 256.029 115.78C256.163 116.06 256.329 116.307 256.529 116.52C256.743 116.733 256.989 116.9 257.269 117.02C257.563 117.14 257.869 117.2 258.189 117.2C258.509 117.2 258.809 117.14 259.089 117.02C259.383 116.9 259.629 116.733 259.829 116.52C260.043 116.307 260.209 116.06 260.329 115.78C260.463 115.487 260.529 115.173 260.529 114.84C260.529 114.52 260.463 114.22 260.329 113.94C260.209 113.647 260.043 113.393 259.829 113.18C259.629 112.967 259.383 112.8 259.089 112.68C258.809 112.56 258.509 112.5 258.189 112.5C257.869 112.5 257.563 112.56 257.269 112.68C256.989 112.8 256.743 112.967 256.529 113.18C256.329 113.393 256.163 113.64 256.029 113.92C255.909 114.2 255.849 114.5 255.849 114.82ZM252.029 114.78C252.029 114.02 252.183 113.313 252.489 112.66C252.796 111.993 253.223 111.42 253.769 110.94C254.316 110.447 254.963 110.06 255.709 109.78C256.469 109.5 257.296 109.36 258.189 109.36C259.069 109.36 259.883 109.5 260.629 109.78C261.389 110.047 262.043 110.427 262.589 110.92C263.149 111.4 263.583 111.98 263.889 112.66C264.196 113.327 264.349 114.067 264.349 114.88C264.349 115.693 264.189 116.44 263.869 117.12C263.563 117.787 263.136 118.367 262.589 118.86C262.043 119.34 261.383 119.713 260.609 119.98C259.849 120.247 259.023 120.38 258.129 120.38C257.249 120.38 256.436 120.247 255.689 119.98C254.943 119.713 254.296 119.333 253.749 118.84C253.216 118.347 252.796 117.76 252.489 117.08C252.183 116.387 252.029 115.62 252.029 114.78ZM269.793 114.84C269.793 115.173 269.853 115.487 269.973 115.78C270.093 116.06 270.253 116.307 270.453 116.52C270.667 116.733 270.913 116.9 271.193 117.02C271.487 117.14 271.8 117.2 272.133 117.2C272.453 117.2 272.753 117.14 273.033 117.02C273.327 116.9 273.573 116.733 273.773 116.52C273.987 116.307 274.153 116.06 274.273 115.78C274.407 115.5 274.473 115.2 274.473 114.88C274.473 114.56 274.407 114.26 274.273 113.98C274.153 113.687 273.987 113.433 273.773 113.22C273.573 113.007 273.327 112.84 273.033 112.72C272.753 112.6 272.453 112.54 272.133 112.54C271.813 112.54 271.507 112.6 271.213 112.72C270.933 112.84 270.687 113.007 270.473 113.22C270.273 113.433 270.107 113.68 269.973 113.96C269.853 114.227 269.793 114.52 269.793 114.84ZM274.353 103.4H277.993V120H274.353V118.86C273.58 119.833 272.533 120.32 271.213 120.32C270.467 120.32 269.78 120.18 269.153 119.9C268.527 119.62 267.98 119.233 267.513 118.74C267.047 118.247 266.68 117.667 266.413 117C266.16 116.333 266.033 115.613 266.033 114.84C266.033 114.107 266.153 113.413 266.393 112.76C266.647 112.093 267 111.513 267.453 111.02C267.907 110.527 268.447 110.14 269.073 109.86C269.713 109.567 270.413 109.42 271.173 109.42C272.453 109.42 273.513 109.867 274.353 110.76V103.4ZM165.893 141.9C165.893 141.58 165.833 141.28 165.713 141C165.606 140.707 165.446 140.453 165.233 140.24C165.019 140.027 164.766 139.86 164.473 139.74C164.193 139.607 163.886 139.54 163.553 139.54C163.233 139.54 162.933 139.6 162.653 139.72C162.373 139.84 162.126 140.007 161.913 140.22C161.713 140.433 161.546 140.687 161.413 140.98C161.293 141.26 161.233 141.56 161.233 141.88C161.233 142.2 161.293 142.5 161.413 142.78C161.533 143.06 161.699 143.307 161.913 143.52C162.126 143.72 162.373 143.887 162.653 144.02C162.946 144.14 163.253 144.2 163.573 144.2C163.893 144.2 164.193 144.14 164.473 144.02C164.753 143.9 164.993 143.733 165.193 143.52C165.406 143.307 165.573 143.06 165.693 142.78C165.826 142.5 165.893 142.207 165.893 141.9ZM161.333 152.12H157.713V136.74H161.333V137.88C162.106 136.907 163.159 136.42 164.493 136.42C165.226 136.42 165.906 136.567 166.533 136.86C167.173 137.14 167.726 137.527 168.193 138.02C168.659 138.513 169.019 139.093 169.273 139.76C169.539 140.427 169.673 141.14 169.673 141.9C169.673 142.66 169.539 143.367 169.273 144.02C169.019 144.673 168.659 145.247 168.193 145.74C167.739 146.233 167.199 146.62 166.573 146.9C165.946 147.18 165.266 147.32 164.533 147.32C163.253 147.32 162.186 146.88 161.333 146V152.12ZM175.096 141.84C175.096 142.173 175.156 142.487 175.276 142.78C175.396 143.06 175.556 143.307 175.756 143.52C175.969 143.733 176.216 143.9 176.496 144.02C176.789 144.14 177.103 144.2 177.436 144.2C177.756 144.2 178.056 144.14 178.336 144.02C178.629 143.9 178.876 143.733 179.076 143.52C179.289 143.307 179.456 143.06 179.576 142.78C179.709 142.5 179.776 142.2 179.776 141.88C179.776 141.56 179.709 141.26 179.576 140.98C179.456 140.687 179.289 140.433 179.076 140.22C178.876 140.007 178.629 139.84 178.336 139.72C178.056 139.6 177.756 139.54 177.436 139.54C177.103 139.54 176.789 139.6 176.496 139.72C176.216 139.84 175.969 140.007 175.756 140.22C175.556 140.433 175.396 140.68 175.276 140.96C175.156 141.227 175.096 141.52 175.096 141.84ZM179.656 136.74H183.296V147H179.656V145.86C178.883 146.833 177.836 147.32 176.516 147.32C175.769 147.32 175.083 147.187 174.456 146.92C173.829 146.64 173.283 146.253 172.816 145.76C172.349 145.267 171.983 144.687 171.716 144.02C171.463 143.353 171.336 142.627 171.336 141.84C171.336 141.107 171.463 140.413 171.716 139.76C171.969 139.093 172.323 138.513 172.776 138.02C173.229 137.527 173.769 137.14 174.396 136.86C175.023 136.567 175.716 136.42 176.476 136.42C177.756 136.42 178.816 136.867 179.656 137.76V136.74ZM193.5 140.06C192.873 139.633 192.24 139.42 191.6 139.42C191.253 139.42 190.926 139.48 190.62 139.6C190.326 139.72 190.066 139.893 189.84 140.12C189.613 140.333 189.433 140.593 189.3 140.9C189.18 141.193 189.12 141.527 189.12 141.9C189.12 142.26 189.18 142.593 189.3 142.9C189.433 143.193 189.606 143.453 189.82 143.68C190.046 143.893 190.313 144.06 190.62 144.18C190.926 144.3 191.253 144.36 191.6 144.36C192.28 144.36 192.913 144.127 193.5 143.66V146.74C192.606 147.127 191.76 147.32 190.96 147.32C190.213 147.32 189.5 147.193 188.82 146.94C188.153 146.687 187.56 146.327 187.04 145.86C186.533 145.38 186.126 144.813 185.82 144.16C185.513 143.493 185.36 142.753 185.36 141.94C185.36 141.127 185.506 140.387 185.8 139.72C186.093 139.04 186.493 138.46 187 137.98C187.506 137.487 188.106 137.107 188.8 136.84C189.506 136.56 190.26 136.42 191.06 136.42C191.94 136.42 192.753 136.607 193.5 136.98V140.06ZM199.692 130.4V140.44L203.492 136.74H208.452L203.312 141.48L208.752 147H203.672L199.692 142.82V147H196.072V130.4H199.692ZM212.772 141.84C212.772 142.173 212.832 142.487 212.952 142.78C213.072 143.06 213.232 143.307 213.432 143.52C213.645 143.733 213.892 143.9 214.172 144.02C214.465 144.14 214.779 144.2 215.112 144.2C215.432 144.2 215.732 144.14 216.012 144.02C216.305 143.9 216.552 143.733 216.752 143.52C216.965 143.307 217.132 143.06 217.252 142.78C217.385 142.5 217.452 142.2 217.452 141.88C217.452 141.56 217.385 141.26 217.252 140.98C217.132 140.687 216.965 140.433 216.752 140.22C216.552 140.007 216.305 139.84 216.012 139.72C215.732 139.6 215.432 139.54 215.112 139.54C214.779 139.54 214.465 139.6 214.172 139.72C213.892 139.84 213.645 140.007 213.432 140.22C213.232 140.433 213.072 140.68 212.952 140.96C212.832 141.227 212.772 141.52 212.772 141.84ZM217.332 136.74H220.972V147H217.332V145.86C216.559 146.833 215.512 147.32 214.192 147.32C213.445 147.32 212.759 147.187 212.132 146.92C211.505 146.64 210.959 146.253 210.492 145.76C210.025 145.267 209.659 144.687 209.392 144.02C209.139 143.353 209.012 142.627 209.012 141.84C209.012 141.107 209.139 140.413 209.392 139.76C209.645 139.093 209.999 138.513 210.452 138.02C210.905 137.527 211.445 137.14 212.072 136.86C212.699 136.567 213.392 136.42 214.152 136.42C215.432 136.42 216.492 136.867 217.332 137.76V136.74ZM226.795 141.82C226.795 142.153 226.855 142.467 226.975 142.76C227.095 143.04 227.255 143.287 227.455 143.5C227.669 143.713 227.915 143.88 228.195 144C228.489 144.12 228.802 144.18 229.135 144.18C229.455 144.18 229.755 144.12 230.035 144C230.329 143.88 230.575 143.713 230.775 143.5C230.989 143.287 231.155 143.04 231.275 142.76C231.409 142.467 231.475 142.16 231.475 141.84C231.475 141.507 231.409 141.2 231.275 140.92C231.155 140.64 230.989 140.393 230.775 140.18C230.562 139.967 230.309 139.8 230.015 139.68C229.735 139.56 229.442 139.5 229.135 139.5C228.815 139.5 228.515 139.567 228.235 139.7C227.955 139.82 227.709 139.987 227.495 140.2C227.282 140.4 227.109 140.64 226.975 140.92C226.855 141.2 226.795 141.5 226.795 141.82ZM234.915 136.74V146.3C234.915 146.873 234.882 147.387 234.815 147.84C234.749 148.293 234.655 148.693 234.535 149.04C234.375 149.48 234.122 149.887 233.775 150.26C233.442 150.647 233.035 150.98 232.555 151.26C232.075 151.54 231.529 151.76 230.915 151.92C230.315 152.08 229.662 152.16 228.955 152.16C228.155 152.16 227.422 152.06 226.755 151.86C226.089 151.66 225.502 151.38 224.995 151.02C224.502 150.673 224.095 150.26 223.775 149.78C223.455 149.313 223.242 148.8 223.135 148.24H227.215C227.469 148.92 228.042 149.26 228.935 149.26C229.695 149.26 230.275 149.047 230.675 148.62C231.089 148.193 231.295 147.6 231.295 146.84V145.86C231.029 146.113 230.769 146.327 230.515 146.5C230.275 146.66 230.029 146.793 229.775 146.9C229.522 147.007 229.255 147.08 228.975 147.12C228.695 147.173 228.389 147.2 228.055 147.2C227.322 147.2 226.649 147.073 226.035 146.82C225.422 146.567 224.889 146.213 224.435 145.76C223.995 145.307 223.649 144.767 223.395 144.14C223.155 143.5 223.035 142.793 223.035 142.02C223.035 141.233 223.169 140.507 223.435 139.84C223.702 139.16 224.062 138.573 224.515 138.08C224.982 137.573 225.529 137.18 226.155 136.9C226.795 136.607 227.489 136.46 228.235 136.46C229.449 136.46 230.469 136.913 231.295 137.82V136.74H234.915ZM241.001 136.74V147H237.381V136.74H241.001ZM237.141 132.8C237.141 132.52 237.194 132.26 237.301 132.02C237.407 131.767 237.554 131.547 237.741 131.36C237.927 131.173 238.141 131.027 238.381 130.92C238.634 130.813 238.901 130.76 239.181 130.76C239.461 130.76 239.721 130.813 239.961 130.92C240.214 131.027 240.434 131.173 240.621 131.36C240.807 131.547 240.954 131.767 241.061 132.02C241.167 132.26 241.221 132.52 241.221 132.8C241.221 133.08 241.167 133.347 241.061 133.6C240.954 133.84 240.807 134.053 240.621 134.24C240.434 134.427 240.214 134.573 239.961 134.68C239.721 134.787 239.461 134.84 239.181 134.84C238.901 134.84 238.634 134.787 238.381 134.68C238.141 134.573 237.927 134.427 237.741 134.24C237.554 134.053 237.407 133.84 237.301 133.6C237.194 133.347 237.141 133.08 237.141 132.8ZM243.474 136.74H247.094V138.04C247.588 137.44 248.088 137.04 248.594 136.84C249.101 136.627 249.694 136.52 250.374 136.52C251.094 136.52 251.708 136.64 252.214 136.88C252.734 137.107 253.174 137.433 253.534 137.86C253.828 138.207 254.028 138.593 254.134 139.02C254.241 139.447 254.294 139.933 254.294 140.48V147H250.674V141.82C250.674 141.313 250.634 140.907 250.554 140.6C250.488 140.28 250.361 140.027 250.174 139.84C250.014 139.68 249.834 139.567 249.634 139.5C249.434 139.433 249.221 139.4 248.994 139.4C248.381 139.4 247.908 139.587 247.574 139.96C247.254 140.32 247.094 140.84 247.094 141.52V147H243.474V136.74ZM260.116 141.82C260.116 142.153 260.176 142.467 260.296 142.76C260.416 143.04 260.576 143.287 260.776 143.5C260.989 143.713 261.236 143.88 261.516 144C261.809 144.12 262.122 144.18 262.456 144.18C262.776 144.18 263.076 144.12 263.356 144C263.649 143.88 263.896 143.713 264.096 143.5C264.309 143.287 264.476 143.04 264.596 142.76C264.729 142.467 264.796 142.16 264.796 141.84C264.796 141.507 264.729 141.2 264.596 140.92C264.476 140.64 264.309 140.393 264.096 140.18C263.882 139.967 263.629 139.8 263.336 139.68C263.056 139.56 262.762 139.5 262.456 139.5C262.136 139.5 261.836 139.567 261.556 139.7C261.276 139.82 261.029 139.987 260.816 140.2C260.602 140.4 260.429 140.64 260.296 140.92C260.176 141.2 260.116 141.5 260.116 141.82ZM268.236 136.74V146.3C268.236 146.873 268.202 147.387 268.136 147.84C268.069 148.293 267.976 148.693 267.856 149.04C267.696 149.48 267.442 149.887 267.096 150.26C266.762 150.647 266.356 150.98 265.876 151.26C265.396 151.54 264.849 151.76 264.236 151.92C263.636 152.08 262.982 152.16 262.276 152.16C261.476 152.16 260.742 152.06 260.076 151.86C259.409 151.66 258.822 151.38 258.316 151.02C257.822 150.673 257.416 150.26 257.096 149.78C256.776 149.313 256.562 148.8 256.456 148.24H260.536C260.789 148.92 261.362 149.26 262.256 149.26C263.016 149.26 263.596 149.047 263.996 148.62C264.409 148.193 264.616 147.6 264.616 146.84V145.86C264.349 146.113 264.089 146.327 263.836 146.5C263.596 146.66 263.349 146.793 263.096 146.9C262.842 147.007 262.576 147.08 262.296 147.12C262.016 147.173 261.709 147.2 261.376 147.2C260.642 147.2 259.969 147.073 259.356 146.82C258.742 146.567 258.209 146.213 257.756 145.76C257.316 145.307 256.969 144.767 256.716 144.14C256.476 143.5 256.356 142.793 256.356 142.02C256.356 141.233 256.489 140.507 256.756 139.84C257.022 139.16 257.382 138.573 257.836 138.08C258.302 137.573 258.849 137.18 259.476 136.9C260.116 136.607 260.809 136.46 261.556 136.46C262.769 136.46 263.789 136.913 264.616 137.82V136.74H268.236ZM281.118 136.74V147H277.498V136.74H281.118ZM277.258 132.8C277.258 132.52 277.311 132.26 277.418 132.02C277.524 131.767 277.671 131.547 277.858 131.36C278.044 131.173 278.258 131.027 278.498 130.92C278.751 130.813 279.018 130.76 279.298 130.76C279.578 130.76 279.838 130.813 280.078 130.92C280.331 131.027 280.551 131.173 280.738 131.36C280.924 131.547 281.071 131.767 281.178 132.02C281.284 132.26 281.338 132.52 281.338 132.8C281.338 133.08 281.284 133.347 281.178 133.6C281.071 133.84 280.924 134.053 280.738 134.24C280.551 134.427 280.331 134.573 280.078 134.68C279.838 134.787 279.578 134.84 279.298 134.84C279.018 134.84 278.751 134.787 278.498 134.68C278.258 134.573 278.044 134.427 277.858 134.24C277.671 134.053 277.524 133.84 277.418 133.6C277.311 133.347 277.258 133.08 277.258 132.8ZM290.392 139.38C289.725 139.033 289.072 138.86 288.432 138.86C288.098 138.86 287.825 138.927 287.612 139.06C287.412 139.193 287.312 139.373 287.312 139.6C287.312 139.72 287.325 139.82 287.352 139.9C287.392 139.967 287.465 140.033 287.572 140.1C287.692 140.167 287.858 140.227 288.072 140.28C288.298 140.333 288.592 140.4 288.952 140.48C289.952 140.68 290.698 141.04 291.192 141.56C291.685 142.067 291.932 142.72 291.932 143.52C291.932 144.12 291.812 144.66 291.572 145.14C291.332 145.62 290.998 146.027 290.572 146.36C290.145 146.68 289.632 146.927 289.032 147.1C288.432 147.287 287.772 147.38 287.052 147.38C285.665 147.38 284.298 146.987 282.952 146.2L284.272 143.64C285.285 144.333 286.245 144.68 287.152 144.68C287.485 144.68 287.758 144.607 287.972 144.46C288.185 144.313 288.292 144.127 288.292 143.9C288.292 143.767 288.272 143.66 288.232 143.58C288.205 143.487 288.138 143.407 288.032 143.34C287.925 143.26 287.765 143.193 287.552 143.14C287.352 143.073 287.085 143.007 286.752 142.94C285.632 142.713 284.845 142.38 284.392 141.94C283.952 141.487 283.732 140.867 283.732 140.08C283.732 139.507 283.838 138.993 284.052 138.54C284.265 138.073 284.572 137.68 284.972 137.36C285.372 137.04 285.852 136.793 286.412 136.62C286.985 136.447 287.618 136.36 288.312 136.36C289.445 136.36 290.545 136.58 291.612 137.02L290.392 139.38ZM140.978 166.38C140.311 166.033 139.658 165.86 139.018 165.86C138.684 165.86 138.411 165.927 138.198 166.06C137.998 166.193 137.898 166.373 137.898 166.6C137.898 166.72 137.911 166.82 137.938 166.9C137.978 166.967 138.051 167.033 138.158 167.1C138.278 167.167 138.444 167.227 138.658 167.28C138.884 167.333 139.178 167.4 139.538 167.48C140.538 167.68 141.284 168.04 141.778 168.56C142.271 169.067 142.518 169.72 142.518 170.52C142.518 171.12 142.398 171.66 142.158 172.14C141.918 172.62 141.584 173.027 141.158 173.36C140.731 173.68 140.218 173.927 139.618 174.1C139.018 174.287 138.358 174.38 137.638 174.38C136.251 174.38 134.884 173.987 133.538 173.2L134.858 170.64C135.871 171.333 136.831 171.68 137.738 171.68C138.071 171.68 138.344 171.607 138.558 171.46C138.771 171.313 138.878 171.127 138.878 170.9C138.878 170.767 138.858 170.66 138.817 170.58C138.791 170.487 138.724 170.407 138.618 170.34C138.511 170.26 138.351 170.193 138.138 170.14C137.938 170.073 137.671 170.007 137.338 169.94C136.218 169.713 135.431 169.38 134.978 168.94C134.538 168.487 134.318 167.867 134.318 167.08C134.318 166.507 134.424 165.993 134.638 165.54C134.851 165.073 135.158 164.68 135.558 164.36C135.958 164.04 136.438 163.793 136.998 163.62C137.571 163.447 138.204 163.36 138.898 163.36C140.031 163.36 141.131 163.58 142.198 164.02L140.978 166.38ZM147.973 163.74V174H144.353V163.74H147.973ZM144.113 159.8C144.113 159.52 144.167 159.26 144.273 159.02C144.38 158.767 144.527 158.547 144.713 158.36C144.9 158.173 145.113 158.027 145.353 157.92C145.607 157.813 145.873 157.76 146.153 157.76C146.433 157.76 146.693 157.813 146.933 157.92C147.187 158.027 147.407 158.173 147.593 158.36C147.78 158.547 147.927 158.767 148.033 159.02C148.14 159.26 148.193 159.52 148.193 159.8C148.193 160.08 148.14 160.347 148.033 160.6C147.927 160.84 147.78 161.053 147.593 161.24C147.407 161.427 147.187 161.573 146.933 161.68C146.693 161.787 146.433 161.84 146.153 161.84C145.873 161.84 145.607 161.787 145.353 161.68C145.113 161.573 144.9 161.427 144.713 161.24C144.527 161.053 144.38 160.84 144.273 160.6C144.167 160.347 144.113 160.08 144.113 159.8ZM150.447 163.74H154.067V165.04C154.56 164.44 155.06 164.04 155.567 163.84C156.074 163.627 156.667 163.52 157.347 163.52C158.067 163.52 158.68 163.64 159.187 163.88C159.707 164.107 160.147 164.433 160.507 164.86C160.8 165.207 161 165.593 161.107 166.02C161.214 166.447 161.267 166.933 161.267 167.48V174H157.647V168.82C157.647 168.313 157.607 167.907 157.527 167.6C157.46 167.28 157.334 167.027 157.147 166.84C156.987 166.68 156.807 166.567 156.607 166.5C156.407 166.433 156.194 166.4 155.967 166.4C155.354 166.4 154.88 166.587 154.547 166.96C154.227 167.32 154.067 167.84 154.067 168.52V174H150.447V163.74ZM167.088 168.82C167.088 169.153 167.148 169.467 167.268 169.76C167.388 170.04 167.548 170.287 167.748 170.5C167.962 170.713 168.208 170.88 168.488 171C168.782 171.12 169.095 171.18 169.428 171.18C169.748 171.18 170.048 171.12 170.328 171C170.622 170.88 170.868 170.713 171.068 170.5C171.282 170.287 171.448 170.04 171.568 169.76C171.702 169.467 171.768 169.16 171.768 168.84C171.768 168.507 171.702 168.2 171.568 167.92C171.448 167.64 171.282 167.393 171.068 167.18C170.855 166.967 170.602 166.8 170.308 166.68C170.028 166.56 169.735 166.5 169.428 166.5C169.108 166.5 168.808 166.567 168.528 166.7C168.248 166.82 168.002 166.987 167.788 167.2C167.575 167.4 167.402 167.64 167.268 167.92C167.148 168.2 167.088 168.5 167.088 168.82ZM175.208 163.74V173.3C175.208 173.873 175.175 174.387 175.108 174.84C175.042 175.293 174.948 175.693 174.828 176.04C174.668 176.48 174.415 176.887 174.068 177.26C173.735 177.647 173.328 177.98 172.848 178.26C172.368 178.54 171.822 178.76 171.208 178.92C170.608 179.08 169.955 179.16 169.248 179.16C168.448 179.16 167.715 179.06 167.048 178.86C166.382 178.66 165.795 178.38 165.288 178.02C164.795 177.673 164.388 177.26 164.068 176.78C163.748 176.313 163.535 175.8 163.428 175.24H167.508C167.762 175.92 168.335 176.26 169.228 176.26C169.988 176.26 170.568 176.047 170.968 175.62C171.382 175.193 171.588 174.6 171.588 173.84V172.86C171.322 173.113 171.062 173.327 170.808 173.5C170.568 173.66 170.322 173.793 170.068 173.9C169.815 174.007 169.548 174.08 169.268 174.12C168.988 174.173 168.682 174.2 168.348 174.2C167.615 174.2 166.942 174.073 166.328 173.82C165.715 173.567 165.182 173.213 164.728 172.76C164.288 172.307 163.942 171.767 163.688 171.14C163.448 170.5 163.328 169.793 163.328 169.02C163.328 168.233 163.462 167.507 163.728 166.84C163.995 166.16 164.355 165.573 164.808 165.08C165.275 164.573 165.822 164.18 166.448 163.9C167.088 163.607 167.782 163.46 168.528 163.46C169.742 163.46 170.762 163.913 171.588 164.82V163.74H175.208ZM181.645 157.4V174H178.025V157.4H181.645ZM191.619 167.38C191.499 166.873 191.252 166.467 190.879 166.16C190.506 165.853 190.052 165.7 189.519 165.7C188.959 165.7 188.499 165.847 188.139 166.14C187.792 166.433 187.572 166.847 187.479 167.38H191.619ZM187.379 169.48C187.379 171.04 188.112 171.82 189.579 171.82C190.366 171.82 190.959 171.5 191.359 170.86H194.859C194.152 173.207 192.386 174.38 189.559 174.38C188.692 174.38 187.899 174.253 187.179 174C186.459 173.733 185.839 173.36 185.319 172.88C184.812 172.4 184.419 171.827 184.139 171.16C183.859 170.493 183.719 169.747 183.719 168.92C183.719 168.067 183.852 167.3 184.119 166.62C184.386 165.927 184.766 165.34 185.259 164.86C185.752 164.38 186.346 164.013 187.039 163.76C187.746 163.493 188.539 163.36 189.419 163.36C190.286 163.36 191.066 163.493 191.759 163.76C192.452 164.013 193.039 164.387 193.519 164.88C193.999 165.373 194.366 165.98 194.619 166.7C194.872 167.407 194.999 168.207 194.999 169.1V169.48H187.379ZM195.828 167.14H201.568V170.16H195.828V167.14ZM206.43 163.74V169.52C206.43 170.787 207.044 171.42 208.27 171.42C209.497 171.42 210.11 170.787 210.11 169.52V163.74H213.73V170.22C213.73 171.607 213.27 172.647 212.35 173.34C211.444 174.033 210.084 174.38 208.27 174.38C206.457 174.38 205.09 174.033 204.17 173.34C203.264 172.647 202.81 171.607 202.81 170.22V163.74H206.43ZM222.989 166.38C222.323 166.033 221.669 165.86 221.029 165.86C220.696 165.86 220.423 165.927 220.209 166.06C220.009 166.193 219.909 166.373 219.909 166.6C219.909 166.72 219.923 166.82 219.949 166.9C219.989 166.967 220.063 167.033 220.169 167.1C220.289 167.167 220.456 167.227 220.669 167.28C220.896 167.333 221.189 167.4 221.549 167.48C222.549 167.68 223.296 168.04 223.789 168.56C224.283 169.067 224.529 169.72 224.529 170.52C224.529 171.12 224.409 171.66 224.169 172.14C223.929 172.62 223.596 173.027 223.169 173.36C222.743 173.68 222.229 173.927 221.629 174.1C221.029 174.287 220.369 174.38 219.649 174.38C218.263 174.38 216.896 173.987 215.549 173.2L216.869 170.64C217.883 171.333 218.843 171.68 219.749 171.68C220.083 171.68 220.356 171.607 220.569 171.46C220.783 171.313 220.889 171.127 220.889 170.9C220.889 170.767 220.869 170.66 220.829 170.58C220.803 170.487 220.736 170.407 220.629 170.34C220.523 170.26 220.363 170.193 220.149 170.14C219.949 170.073 219.683 170.007 219.349 169.94C218.229 169.713 217.443 169.38 216.989 168.94C216.549 168.487 216.329 167.867 216.329 167.08C216.329 166.507 216.436 165.993 216.649 165.54C216.863 165.073 217.169 164.68 217.569 164.36C217.969 164.04 218.449 163.793 219.009 163.62C219.583 163.447 220.216 163.36 220.909 163.36C222.043 163.36 223.143 163.58 224.209 164.02L222.989 166.38ZM233.865 167.38C233.745 166.873 233.498 166.467 233.125 166.16C232.752 165.853 232.298 165.7 231.765 165.7C231.205 165.7 230.745 165.847 230.385 166.14C230.038 166.433 229.818 166.847 229.725 167.38H233.865ZM229.625 169.48C229.625 171.04 230.358 171.82 231.825 171.82C232.612 171.82 233.205 171.5 233.605 170.86H237.105C236.398 173.207 234.632 174.38 231.805 174.38C230.938 174.38 230.145 174.253 229.425 174C228.705 173.733 228.085 173.36 227.565 172.88C227.058 172.4 226.665 171.827 226.385 171.16C226.105 170.493 225.965 169.747 225.965 168.92C225.965 168.067 226.098 167.3 226.365 166.62C226.632 165.927 227.012 165.34 227.505 164.86C227.998 164.38 228.592 164.013 229.285 163.76C229.992 163.493 230.785 163.36 231.665 163.36C232.532 163.36 233.312 163.493 234.005 163.76C234.698 164.013 235.285 164.387 235.765 164.88C236.245 165.373 236.612 165.98 236.865 166.7C237.118 167.407 237.245 168.207 237.245 169.1V169.48H229.625ZM240.434 170.18H243.834L240.154 176.8H237.834L240.434 170.18ZM256.268 168.84C256.268 169.173 256.328 169.487 256.448 169.78C256.568 170.06 256.728 170.307 256.928 170.52C257.141 170.733 257.388 170.9 257.668 171.02C257.961 171.14 258.275 171.2 258.608 171.2C258.928 171.2 259.228 171.14 259.508 171.02C259.801 170.9 260.048 170.733 260.248 170.52C260.461 170.307 260.628 170.06 260.748 169.78C260.881 169.5 260.948 169.2 260.948 168.88C260.948 168.56 260.881 168.26 260.748 167.98C260.628 167.687 260.461 167.433 260.248 167.22C260.048 167.007 259.801 166.84 259.508 166.72C259.228 166.6 258.928 166.54 258.608 166.54C258.275 166.54 257.961 166.6 257.668 166.72C257.388 166.84 257.141 167.007 256.928 167.22C256.728 167.433 256.568 167.68 256.448 167.96C256.328 168.227 256.268 168.52 256.268 168.84ZM260.828 163.74H264.468V174H260.828V172.86C260.055 173.833 259.008 174.32 257.688 174.32C256.941 174.32 256.255 174.187 255.628 173.92C255.001 173.64 254.455 173.253 253.988 172.76C253.521 172.267 253.155 171.687 252.888 171.02C252.635 170.353 252.508 169.627 252.508 168.84C252.508 168.107 252.635 167.413 252.888 166.76C253.141 166.093 253.495 165.513 253.948 165.02C254.401 164.527 254.941 164.14 255.568 163.86C256.195 163.567 256.888 163.42 257.648 163.42C258.928 163.42 259.988 163.867 260.828 164.76V163.74ZM266.931 163.74H270.551V165.04C271.045 164.44 271.545 164.04 272.051 163.84C272.558 163.627 273.151 163.52 273.831 163.52C274.551 163.52 275.165 163.64 275.671 163.88C276.191 164.107 276.631 164.433 276.991 164.86C277.285 165.207 277.485 165.593 277.591 166.02C277.698 166.447 277.751 166.933 277.751 167.48V174H274.131V168.82C274.131 168.313 274.091 167.907 274.011 167.6C273.945 167.28 273.818 167.027 273.631 166.84C273.471 166.68 273.291 166.567 273.091 166.5C272.891 166.433 272.678 166.4 272.451 166.4C271.838 166.4 271.365 166.587 271.031 166.96C270.711 167.32 270.551 167.84 270.551 168.52V174H266.931V163.74ZM283.573 168.84C283.573 169.173 283.633 169.487 283.753 169.78C283.873 170.06 284.033 170.307 284.233 170.52C284.446 170.733 284.693 170.9 284.973 171.02C285.266 171.14 285.579 171.2 285.913 171.2C286.233 171.2 286.533 171.14 286.813 171.02C287.106 170.9 287.353 170.733 287.553 170.52C287.766 170.307 287.933 170.06 288.053 169.78C288.186 169.5 288.253 169.2 288.253 168.88C288.253 168.56 288.186 168.26 288.053 167.98C287.933 167.687 287.766 167.433 287.553 167.22C287.353 167.007 287.106 166.84 286.813 166.72C286.533 166.6 286.233 166.54 285.913 166.54C285.593 166.54 285.286 166.6 284.993 166.72C284.713 166.84 284.466 167.007 284.253 167.22C284.053 167.433 283.886 167.68 283.753 167.96C283.633 168.227 283.573 168.52 283.573 168.84ZM288.133 157.4H291.773V174H288.133V172.86C287.359 173.833 286.313 174.32 284.993 174.32C284.246 174.32 283.559 174.18 282.933 173.9C282.306 173.62 281.759 173.233 281.293 172.74C280.826 172.247 280.459 171.667 280.193 171C279.939 170.333 279.813 169.613 279.813 168.84C279.813 168.107 279.933 167.413 280.173 166.76C280.426 166.093 280.779 165.513 281.233 165.02C281.686 164.527 282.226 164.14 282.853 163.86C283.493 163.567 284.193 163.42 284.953 163.42C286.233 163.42 287.293 163.867 288.133 164.76V157.4ZM304.653 163.74V174H301.033V163.74H304.653ZM300.793 159.8C300.793 159.52 300.846 159.26 300.953 159.02C301.06 158.767 301.206 158.547 301.393 158.36C301.58 158.173 301.793 158.027 302.033 157.92C302.286 157.813 302.553 157.76 302.833 157.76C303.113 157.76 303.373 157.813 303.613 157.92C303.866 158.027 304.086 158.173 304.273 158.36C304.46 158.547 304.606 158.767 304.713 159.02C304.82 159.26 304.873 159.52 304.873 159.8C304.873 160.08 304.82 160.347 304.713 160.6C304.606 160.84 304.46 161.053 304.273 161.24C304.086 161.427 303.866 161.573 303.613 161.68C303.373 161.787 303.113 161.84 302.833 161.84C302.553 161.84 302.286 161.787 302.033 161.68C301.793 161.573 301.58 161.427 301.393 161.24C301.206 161.053 301.06 160.84 300.953 160.6C300.846 160.347 300.793 160.08 300.793 159.8ZM313.927 166.38C313.26 166.033 312.607 165.86 311.967 165.86C311.633 165.86 311.36 165.927 311.147 166.06C310.947 166.193 310.847 166.373 310.847 166.6C310.847 166.72 310.86 166.82 310.887 166.9C310.927 166.967 311 167.033 311.107 167.1C311.227 167.167 311.393 167.227 311.607 167.28C311.833 167.333 312.127 167.4 312.487 167.48C313.487 167.68 314.233 168.04 314.727 168.56C315.22 169.067 315.467 169.72 315.467 170.52C315.467 171.12 315.347 171.66 315.107 172.14C314.867 172.62 314.533 173.027 314.107 173.36C313.68 173.68 313.167 173.927 312.567 174.1C311.967 174.287 311.307 174.38 310.587 174.38C309.2 174.38 307.833 173.987 306.487 173.2L307.807 170.64C308.82 171.333 309.78 171.68 310.687 171.68C311.02 171.68 311.293 171.607 311.507 171.46C311.72 171.313 311.827 171.127 311.827 170.9C311.827 170.767 311.807 170.66 311.767 170.58C311.74 170.487 311.673 170.407 311.567 170.34C311.46 170.26 311.3 170.193 311.087 170.14C310.887 170.073 310.62 170.007 310.287 169.94C309.167 169.713 308.38 169.38 307.927 168.94C307.487 168.487 307.267 167.867 307.267 167.08C307.267 166.507 307.373 165.993 307.587 165.54C307.8 165.073 308.107 164.68 308.507 164.36C308.907 164.04 309.387 163.793 309.947 163.62C310.52 163.447 311.153 163.36 311.847 163.36C312.98 163.36 314.08 163.58 315.147 164.02L313.927 166.38ZM118.198 190.74V201H114.578V190.74H118.198ZM114.338 186.8C114.338 186.52 114.391 186.26 114.498 186.02C114.605 185.767 114.751 185.547 114.938 185.36C115.125 185.173 115.338 185.027 115.578 184.92C115.831 184.813 116.098 184.76 116.378 184.76C116.658 184.76 116.918 184.813 117.158 184.92C117.411 185.027 117.631 185.173 117.818 185.36C118.005 185.547 118.151 185.767 118.258 186.02C118.365 186.26 118.418 186.52 118.418 186.8C118.418 187.08 118.365 187.347 118.258 187.6C118.151 187.84 118.005 188.053 117.818 188.24C117.631 188.427 117.411 188.573 117.158 188.68C116.918 188.787 116.658 188.84 116.378 188.84C116.098 188.84 115.831 188.787 115.578 188.68C115.338 188.573 115.125 188.427 114.938 188.24C114.751 188.053 114.605 187.84 114.498 187.6C114.391 187.347 114.338 187.08 114.338 186.8ZM120.672 190.74H124.292V192C125.278 191.053 126.385 190.58 127.612 190.58C129.132 190.58 130.292 191.22 131.092 192.5C131.905 191.207 133.065 190.56 134.572 190.56C135.052 190.56 135.505 190.633 135.932 190.78C136.358 190.913 136.725 191.133 137.032 191.44C137.338 191.733 137.578 192.12 137.752 192.6C137.938 193.08 138.032 193.66 138.032 194.34V201H134.412V195.94C134.412 195.42 134.372 194.993 134.292 194.66C134.225 194.327 134.118 194.067 133.972 193.88C133.838 193.693 133.678 193.567 133.492 193.5C133.305 193.433 133.105 193.4 132.892 193.4C131.732 193.4 131.152 194.247 131.152 195.94V201H127.532V195.94C127.532 195.42 127.498 194.993 127.432 194.66C127.365 194.313 127.265 194.04 127.132 193.84C127.012 193.64 126.852 193.507 126.652 193.44C126.452 193.36 126.218 193.32 125.952 193.32C125.725 193.32 125.512 193.353 125.312 193.42C125.112 193.487 124.932 193.62 124.772 193.82C124.625 194.007 124.505 194.273 124.412 194.62C124.332 194.953 124.292 195.393 124.292 195.94V201H120.672V190.74ZM149.047 195.9C149.047 195.58 148.987 195.28 148.867 195C148.76 194.707 148.6 194.453 148.387 194.24C148.174 194.027 147.92 193.86 147.627 193.74C147.347 193.607 147.04 193.54 146.707 193.54C146.387 193.54 146.087 193.6 145.807 193.72C145.527 193.84 145.28 194.007 145.067 194.22C144.867 194.433 144.7 194.687 144.567 194.98C144.447 195.26 144.387 195.56 144.387 195.88C144.387 196.2 144.447 196.5 144.567 196.78C144.687 197.06 144.854 197.307 145.067 197.52C145.28 197.72 145.527 197.887 145.807 198.02C146.1 198.14 146.407 198.2 146.727 198.2C147.047 198.2 147.347 198.14 147.627 198.02C147.907 197.9 148.147 197.733 148.347 197.52C148.56 197.307 148.727 197.06 148.847 196.78C148.98 196.5 149.047 196.207 149.047 195.9ZM144.487 206.12H140.867V190.74H144.487V191.88C145.26 190.907 146.314 190.42 147.647 190.42C148.38 190.42 149.06 190.567 149.687 190.86C150.327 191.14 150.88 191.527 151.347 192.02C151.814 192.513 152.174 193.093 152.427 193.76C152.694 194.427 152.827 195.14 152.827 195.9C152.827 196.66 152.694 197.367 152.427 198.02C152.174 198.673 151.814 199.247 151.347 199.74C150.894 200.233 150.354 200.62 149.727 200.9C149.1 201.18 148.42 201.32 147.687 201.32C146.407 201.32 145.34 200.88 144.487 200V206.12ZM154.89 190.74H158.51V192.42C158.897 191.807 159.37 191.34 159.93 191.02C160.49 190.687 161.144 190.52 161.89 190.52C161.984 190.52 162.084 190.52 162.19 190.52C162.31 190.52 162.444 190.533 162.59 190.56V194.02C162.11 193.78 161.59 193.66 161.03 193.66C160.19 193.66 159.557 193.913 159.13 194.42C158.717 194.913 158.51 195.64 158.51 196.6V201H154.89V190.74ZM167.705 195.82C167.705 196.167 167.765 196.487 167.885 196.78C168.018 197.06 168.185 197.307 168.385 197.52C168.598 197.733 168.845 197.9 169.125 198.02C169.418 198.14 169.725 198.2 170.045 198.2C170.365 198.2 170.665 198.14 170.945 198.02C171.238 197.9 171.485 197.733 171.685 197.52C171.898 197.307 172.065 197.06 172.185 196.78C172.318 196.487 172.385 196.173 172.385 195.84C172.385 195.52 172.318 195.22 172.185 194.94C172.065 194.647 171.898 194.393 171.685 194.18C171.485 193.967 171.238 193.8 170.945 193.68C170.665 193.56 170.365 193.5 170.045 193.5C169.725 193.5 169.418 193.56 169.125 193.68C168.845 193.8 168.598 193.967 168.385 194.18C168.185 194.393 168.018 194.64 167.885 194.92C167.765 195.2 167.705 195.5 167.705 195.82ZM163.885 195.78C163.885 195.02 164.038 194.313 164.345 193.66C164.652 192.993 165.078 192.42 165.625 191.94C166.172 191.447 166.818 191.06 167.565 190.78C168.325 190.5 169.152 190.36 170.045 190.36C170.925 190.36 171.738 190.5 172.485 190.78C173.245 191.047 173.898 191.427 174.445 191.92C175.005 192.4 175.438 192.98 175.745 193.66C176.052 194.327 176.205 195.067 176.205 195.88C176.205 196.693 176.045 197.44 175.725 198.12C175.418 198.787 174.992 199.367 174.445 199.86C173.898 200.34 173.238 200.713 172.465 200.98C171.705 201.247 170.878 201.38 169.985 201.38C169.105 201.38 168.292 201.247 167.545 200.98C166.798 200.713 166.152 200.333 165.605 199.84C165.072 199.347 164.652 198.76 164.345 198.08C164.038 197.387 163.885 196.62 163.885 195.78ZM186.469 195.9C186.469 195.58 186.409 195.28 186.289 195C186.182 194.707 186.022 194.453 185.809 194.24C185.595 194.027 185.342 193.86 185.049 193.74C184.769 193.607 184.462 193.54 184.129 193.54C183.809 193.54 183.509 193.6 183.229 193.72C182.949 193.84 182.702 194.007 182.489 194.22C182.289 194.433 182.122 194.687 181.989 194.98C181.869 195.26 181.809 195.56 181.809 195.88C181.809 196.2 181.869 196.5 181.989 196.78C182.109 197.06 182.275 197.307 182.489 197.52C182.702 197.72 182.949 197.887 183.229 198.02C183.522 198.14 183.829 198.2 184.149 198.2C184.469 198.2 184.769 198.14 185.049 198.02C185.329 197.9 185.569 197.733 185.769 197.52C185.982 197.307 186.149 197.06 186.269 196.78C186.402 196.5 186.469 196.207 186.469 195.9ZM181.909 206.12H178.289V190.74H181.909V191.88C182.682 190.907 183.735 190.42 185.069 190.42C185.802 190.42 186.482 190.567 187.109 190.86C187.749 191.14 188.302 191.527 188.769 192.02C189.235 192.513 189.595 193.093 189.849 193.76C190.115 194.427 190.249 195.14 190.249 195.9C190.249 196.66 190.115 197.367 189.849 198.02C189.595 198.673 189.235 199.247 188.769 199.74C188.315 200.233 187.775 200.62 187.149 200.9C186.522 201.18 185.842 201.32 185.109 201.32C183.829 201.32 182.762 200.88 181.909 200V206.12ZM199.812 194.38C199.692 193.873 199.446 193.467 199.072 193.16C198.699 192.853 198.246 192.7 197.712 192.7C197.152 192.7 196.692 192.847 196.332 193.14C195.986 193.433 195.766 193.847 195.672 194.38H199.812ZM195.572 196.48C195.572 198.04 196.306 198.82 197.772 198.82C198.559 198.82 199.152 198.5 199.552 197.86H203.052C202.346 200.207 200.579 201.38 197.752 201.38C196.886 201.38 196.092 201.253 195.372 201C194.652 200.733 194.032 200.36 193.512 199.88C193.006 199.4 192.612 198.827 192.332 198.16C192.052 197.493 191.912 196.747 191.912 195.92C191.912 195.067 192.046 194.3 192.312 193.62C192.579 192.927 192.959 192.34 193.452 191.86C193.946 191.38 194.539 191.013 195.232 190.76C195.939 190.493 196.732 190.36 197.612 190.36C198.479 190.36 199.259 190.493 199.952 190.76C200.646 191.013 201.232 191.387 201.712 191.88C202.192 192.373 202.559 192.98 202.812 193.7C203.066 194.407 203.192 195.207 203.192 196.1V196.48H195.572ZM205.261 190.74H208.881V192.42C209.268 191.807 209.741 191.34 210.301 191.02C210.861 190.687 211.515 190.52 212.261 190.52C212.355 190.52 212.455 190.52 212.561 190.52C212.681 190.52 212.815 190.533 212.961 190.56V194.02C212.481 193.78 211.961 193.66 211.401 193.66C210.561 193.66 209.928 193.913 209.501 194.42C209.088 194.913 208.881 195.64 208.881 196.6V201H205.261V190.74ZM218.198 184.4V201H214.578V184.4H218.198ZM224.587 199.6L219.627 190.74H223.827L226.567 196L229.227 190.74H233.387L225.147 206.12H221.087L224.587 199.6ZM244.793 195.84C244.793 196.173 244.853 196.487 244.973 196.78C245.093 197.06 245.253 197.307 245.453 197.52C245.667 197.733 245.913 197.9 246.193 198.02C246.487 198.14 246.8 198.2 247.133 198.2C247.453 198.2 247.753 198.14 248.033 198.02C248.327 197.9 248.573 197.733 248.773 197.52C248.987 197.307 249.153 197.06 249.273 196.78C249.407 196.5 249.473 196.2 249.473 195.88C249.473 195.56 249.407 195.26 249.273 194.98C249.153 194.687 248.987 194.433 248.773 194.22C248.573 194.007 248.327 193.84 248.033 193.72C247.753 193.6 247.453 193.54 247.133 193.54C246.813 193.54 246.507 193.6 246.213 193.72C245.933 193.84 245.687 194.007 245.473 194.22C245.273 194.433 245.107 194.68 244.973 194.96C244.853 195.227 244.793 195.52 244.793 195.84ZM249.353 184.4H252.993V201H249.353V199.86C248.58 200.833 247.533 201.32 246.213 201.32C245.467 201.32 244.78 201.18 244.153 200.9C243.527 200.62 242.98 200.233 242.513 199.74C242.047 199.247 241.68 198.667 241.413 198C241.16 197.333 241.033 196.613 241.033 195.84C241.033 195.107 241.153 194.413 241.393 193.76C241.647 193.093 242 192.513 242.453 192.02C242.907 191.527 243.447 191.14 244.073 190.86C244.713 190.567 245.413 190.42 246.173 190.42C247.453 190.42 248.513 190.867 249.353 191.76V184.4ZM259.077 190.74V201H255.457V190.74H259.077ZM255.217 186.8C255.217 186.52 255.27 186.26 255.377 186.02C255.483 185.767 255.63 185.547 255.817 185.36C256.003 185.173 256.217 185.027 256.457 184.92C256.71 184.813 256.977 184.76 257.257 184.76C257.537 184.76 257.797 184.813 258.037 184.92C258.29 185.027 258.51 185.173 258.697 185.36C258.883 185.547 259.03 185.767 259.137 186.02C259.243 186.26 259.297 186.52 259.297 186.8C259.297 187.08 259.243 187.347 259.137 187.6C259.03 187.84 258.883 188.053 258.697 188.24C258.51 188.427 258.29 188.573 258.037 188.68C257.797 188.787 257.537 188.84 257.257 188.84C256.977 188.84 256.71 188.787 256.457 188.68C256.217 188.573 256.003 188.427 255.817 188.24C255.63 188.053 255.483 187.84 255.377 187.6C255.27 187.347 255.217 187.08 255.217 186.8ZM268.351 193.38C267.684 193.033 267.031 192.86 266.391 192.86C266.057 192.86 265.784 192.927 265.571 193.06C265.371 193.193 265.271 193.373 265.271 193.6C265.271 193.72 265.284 193.82 265.311 193.9C265.351 193.967 265.424 194.033 265.531 194.1C265.651 194.167 265.817 194.227 266.031 194.28C266.257 194.333 266.551 194.4 266.911 194.48C267.911 194.68 268.657 195.04 269.151 195.56C269.644 196.067 269.891 196.72 269.891 197.52C269.891 198.12 269.771 198.66 269.531 199.14C269.291 199.62 268.957 200.027 268.531 200.36C268.104 200.68 267.591 200.927 266.991 201.1C266.391 201.287 265.731 201.38 265.011 201.38C263.624 201.38 262.257 200.987 260.911 200.2L262.231 197.64C263.244 198.333 264.204 198.68 265.111 198.68C265.444 198.68 265.717 198.607 265.931 198.46C266.144 198.313 266.251 198.127 266.251 197.9C266.251 197.767 266.231 197.66 266.191 197.58C266.164 197.487 266.097 197.407 265.991 197.34C265.884 197.26 265.724 197.193 265.511 197.14C265.311 197.073 265.044 197.007 264.711 196.94C263.591 196.713 262.804 196.38 262.351 195.94C261.911 195.487 261.691 194.867 261.691 194.08C261.691 193.507 261.797 192.993 262.011 192.54C262.224 192.073 262.531 191.68 262.931 191.36C263.331 191.04 263.811 190.793 264.371 190.62C264.944 190.447 265.577 190.36 266.271 190.36C267.404 190.36 268.504 190.58 269.571 191.02L268.351 193.38ZM279.906 195.9C279.906 195.58 279.846 195.28 279.726 195C279.62 194.707 279.46 194.453 279.246 194.24C279.033 194.027 278.78 193.86 278.486 193.74C278.206 193.607 277.9 193.54 277.566 193.54C277.246 193.54 276.946 193.6 276.666 193.72C276.386 193.84 276.14 194.007 275.926 194.22C275.726 194.433 275.56 194.687 275.426 194.98C275.306 195.26 275.246 195.56 275.246 195.88C275.246 196.2 275.306 196.5 275.426 196.78C275.546 197.06 275.713 197.307 275.926 197.52C276.14 197.72 276.386 197.887 276.666 198.02C276.96 198.14 277.266 198.2 277.586 198.2C277.906 198.2 278.206 198.14 278.486 198.02C278.766 197.9 279.006 197.733 279.206 197.52C279.42 197.307 279.586 197.06 279.706 196.78C279.84 196.5 279.906 196.207 279.906 195.9ZM275.346 206.12H271.726V190.74H275.346V191.88C276.12 190.907 277.173 190.42 278.506 190.42C279.24 190.42 279.92 190.567 280.546 190.86C281.186 191.14 281.74 191.527 282.206 192.02C282.673 192.513 283.033 193.093 283.286 193.76C283.553 194.427 283.686 195.14 283.686 195.9C283.686 196.66 283.553 197.367 283.286 198.02C283.033 198.673 282.673 199.247 282.206 199.74C281.753 200.233 281.213 200.62 280.586 200.9C279.96 201.18 279.28 201.32 278.546 201.32C277.266 201.32 276.2 200.88 275.346 200V206.12ZM289.17 195.82C289.17 196.167 289.23 196.487 289.35 196.78C289.483 197.06 289.65 197.307 289.85 197.52C290.063 197.733 290.31 197.9 290.59 198.02C290.883 198.14 291.19 198.2 291.51 198.2C291.83 198.2 292.13 198.14 292.41 198.02C292.703 197.9 292.95 197.733 293.15 197.52C293.363 197.307 293.53 197.06 293.65 196.78C293.783 196.487 293.85 196.173 293.85 195.84C293.85 195.52 293.783 195.22 293.65 194.94C293.53 194.647 293.363 194.393 293.15 194.18C292.95 193.967 292.703 193.8 292.41 193.68C292.13 193.56 291.83 193.5 291.51 193.5C291.19 193.5 290.883 193.56 290.59 193.68C290.31 193.8 290.063 193.967 289.85 194.18C289.65 194.393 289.483 194.64 289.35 194.92C289.23 195.2 289.17 195.5 289.17 195.82ZM285.35 195.78C285.35 195.02 285.503 194.313 285.81 193.66C286.116 192.993 286.543 192.42 287.09 191.94C287.636 191.447 288.283 191.06 289.03 190.78C289.79 190.5 290.616 190.36 291.51 190.36C292.39 190.36 293.203 190.5 293.95 190.78C294.71 191.047 295.363 191.427 295.91 191.92C296.47 192.4 296.903 192.98 297.21 193.66C297.516 194.327 297.67 195.067 297.67 195.88C297.67 196.693 297.51 197.44 297.19 198.12C296.883 198.787 296.456 199.367 295.91 199.86C295.363 200.34 294.703 200.713 293.93 200.98C293.17 201.247 292.343 201.38 291.45 201.38C290.57 201.38 289.756 201.247 289.01 200.98C288.263 200.713 287.616 200.333 287.07 199.84C286.536 199.347 286.116 198.76 285.81 198.08C285.503 197.387 285.35 196.62 285.35 195.78ZM306.554 193.38C305.887 193.033 305.234 192.86 304.594 192.86C304.26 192.86 303.987 192.927 303.774 193.06C303.574 193.193 303.474 193.373 303.474 193.6C303.474 193.72 303.487 193.82 303.514 193.9C303.554 193.967 303.627 194.033 303.734 194.1C303.854 194.167 304.02 194.227 304.234 194.28C304.46 194.333 304.754 194.4 305.114 194.48C306.114 194.68 306.86 195.04 307.354 195.56C307.847 196.067 308.094 196.72 308.094 197.52C308.094 198.12 307.974 198.66 307.734 199.14C307.494 199.62 307.16 200.027 306.734 200.36C306.307 200.68 305.794 200.927 305.194 201.1C304.594 201.287 303.934 201.38 303.214 201.38C301.827 201.38 300.46 200.987 299.114 200.2L300.434 197.64C301.447 198.333 302.407 198.68 303.314 198.68C303.647 198.68 303.92 198.607 304.134 198.46C304.347 198.313 304.454 198.127 304.454 197.9C304.454 197.767 304.434 197.66 304.394 197.58C304.367 197.487 304.3 197.407 304.194 197.34C304.087 197.26 303.927 197.193 303.714 197.14C303.514 197.073 303.247 197.007 302.914 196.94C301.794 196.713 301.007 196.38 300.554 195.94C300.114 195.487 299.894 194.867 299.894 194.08C299.894 193.507 300 192.993 300.214 192.54C300.427 192.073 300.734 191.68 301.134 191.36C301.534 191.04 302.014 190.793 302.574 190.62C303.147 190.447 303.78 190.36 304.474 190.36C305.607 190.36 306.707 190.58 307.774 191.02L306.554 193.38ZM317.429 194.38C317.309 193.873 317.063 193.467 316.689 193.16C316.316 192.853 315.863 192.7 315.329 192.7C314.769 192.7 314.309 192.847 313.949 193.14C313.603 193.433 313.383 193.847 313.289 194.38H317.429ZM313.189 196.48C313.189 198.04 313.923 198.82 315.389 198.82C316.176 198.82 316.769 198.5 317.169 197.86H320.669C319.963 200.207 318.196 201.38 315.369 201.38C314.503 201.38 313.709 201.253 312.989 201C312.269 200.733 311.649 200.36 311.129 199.88C310.623 199.4 310.229 198.827 309.949 198.16C309.669 197.493 309.529 196.747 309.529 195.92C309.529 195.067 309.663 194.3 309.929 193.62C310.196 192.927 310.576 192.34 311.069 191.86C311.563 191.38 312.156 191.013 312.849 190.76C313.556 190.493 314.349 190.36 315.229 190.36C316.096 190.36 316.876 190.493 317.569 190.76C318.263 191.013 318.849 191.387 319.329 191.88C319.809 192.373 320.176 192.98 320.429 193.7C320.683 194.407 320.809 195.207 320.809 196.1V196.48H313.189ZM326.239 195.84C326.239 196.173 326.299 196.487 326.419 196.78C326.539 197.06 326.699 197.307 326.899 197.52C327.112 197.733 327.359 197.9 327.639 198.02C327.932 198.14 328.245 198.2 328.579 198.2C328.899 198.2 329.199 198.14 329.479 198.02C329.772 197.9 330.019 197.733 330.219 197.52C330.432 197.307 330.599 197.06 330.719 196.78C330.852 196.5 330.919 196.2 330.919 195.88C330.919 195.56 330.852 195.26 330.719 194.98C330.599 194.687 330.432 194.433 330.219 194.22C330.019 194.007 329.772 193.84 329.479 193.72C329.199 193.6 328.899 193.54 328.579 193.54C328.259 193.54 327.952 193.6 327.659 193.72C327.379 193.84 327.132 194.007 326.919 194.22C326.719 194.433 326.552 194.68 326.419 194.96C326.299 195.227 326.239 195.52 326.239 195.84ZM330.799 184.4H334.439V201H330.799V199.86C330.025 200.833 328.979 201.32 327.659 201.32C326.912 201.32 326.225 201.18 325.599 200.9C324.972 200.62 324.425 200.233 323.959 199.74C323.492 199.247 323.125 198.667 322.859 198C322.605 197.333 322.479 196.613 322.479 195.84C322.479 195.107 322.599 194.413 322.839 193.76C323.092 193.093 323.445 192.513 323.899 192.02C324.352 191.527 324.892 191.14 325.519 190.86C326.159 190.567 326.859 190.42 327.619 190.42C328.899 190.42 329.959 190.867 330.799 191.76V184.4ZM218.252 222.82C218.252 223.167 218.312 223.487 218.432 223.78C218.565 224.06 218.732 224.307 218.932 224.52C219.145 224.733 219.392 224.9 219.672 225.02C219.965 225.14 220.272 225.2 220.592 225.2C220.912 225.2 221.212 225.14 221.492 225.02C221.785 224.9 222.032 224.733 222.232 224.52C222.445 224.307 222.612 224.06 222.732 223.78C222.865 223.487 222.932 223.173 222.932 222.84C222.932 222.52 222.865 222.22 222.732 221.94C222.612 221.647 222.445 221.393 222.232 221.18C222.032 220.967 221.785 220.8 221.492 220.68C221.212 220.56 220.912 220.5 220.592 220.5C220.272 220.5 219.965 220.56 219.672 220.68C219.392 220.8 219.145 220.967 218.932 221.18C218.732 221.393 218.565 221.64 218.432 221.92C218.312 222.2 218.252 222.5 218.252 222.82ZM214.432 222.78C214.432 222.02 214.585 221.313 214.892 220.66C215.198 219.993 215.625 219.42 216.172 218.94C216.718 218.447 217.365 218.06 218.112 217.78C218.872 217.5 219.698 217.36 220.592 217.36C221.472 217.36 222.285 217.5 223.032 217.78C223.792 218.047 224.445 218.427 224.992 218.92C225.552 219.4 225.985 219.98 226.292 220.66C226.598 221.327 226.752 222.067 226.752 222.88C226.752 223.693 226.592 224.44 226.272 225.12C225.965 225.787 225.538 226.367 224.992 226.86C224.445 227.34 223.785 227.713 223.012 227.98C222.252 228.247 221.425 228.38 220.532 228.38C219.652 228.38 218.838 228.247 218.092 227.98C217.345 227.713 216.698 227.333 216.152 226.84C215.618 226.347 215.198 225.76 214.892 225.08C214.585 224.387 214.432 223.62 214.432 222.78ZM232.756 220.76V228H229.136V220.76H227.836V217.74H229.136V216.2C229.136 215.347 229.216 214.667 229.376 214.16C229.509 213.733 229.722 213.34 230.016 212.98C230.309 212.607 230.649 212.287 231.036 212.02C231.436 211.753 231.862 211.547 232.316 211.4C232.769 211.253 233.216 211.18 233.656 211.18C233.962 211.18 234.242 211.213 234.496 211.28C234.762 211.347 235.029 211.44 235.296 211.56V214.72C235.056 214.6 234.829 214.513 234.616 214.46C234.416 214.393 234.202 214.36 233.976 214.36C233.829 214.36 233.676 214.387 233.516 214.44C233.369 214.48 233.229 214.573 233.096 214.72C232.962 214.867 232.869 215.08 232.816 215.36C232.776 215.627 232.756 215.993 232.756 216.46V217.74H235.296V220.76H232.756Z" fill="#367A17"/>
</g>
<defs>
<filter id="filter0_d" x="110.338" y="103.18" width="228.101" height="133.2" filterUnits="userSpaceOnUse" color-interpolation-filters="sRGB">
<feFlood flood-opacity="0" result="BackgroundImageFix"/>
<feColorMatrix in="SourceAlpha" type="matrix" values="0 0 0 0 0 0 0 0 0 0 0 0 0 0 0 0 0 0 127 0"/>
<feOffset dy="4"/>
<feGaussianBlur stdDeviation="2"/>
<feColorMatrix type="matrix" values="0 0 0 0 0 0 0 0 0 0 0 0 0 0 0 0 0 0 0.25 0"/>
<feBlend mode="normal" in2="BackgroundImageFix" result="effect1_dropShadow"/>
<feBlend mode="normal" in="SourceGraphic" in2="effect1_dropShadow" result="shape"/>
</filter>
<linearGradient id="paint0_linear" x1="47.6252" y1="168.732" x2="371.005" y2="168.732" gradientUnits="userSpaceOnUse">
<stop offset="0.005618" stopColor="#DBF2F7"/>
<stop offset="1" stopColor="#B3E2EE"/>
</linearGradient>
<linearGradient id="paint1_linear" x1="68.8907" y1="166.419" x2="214.081" y2="166.419" gradientUnits="userSpaceOnUse">
<stop offset="0.005618" stopColor="#DBF2F7"/>
<stop offset="1" stopColor="#B3E2EE"/>
</linearGradient>
<linearGradient id="paint2_linear" x1="262.479" y1="169.1" x2="280.032" y2="169.1" gradientUnits="userSpaceOnUse">
<stop offset="0.005618" stopColor="#DBF2F7"/>
<stop offset="1" stopColor="#B3E2EE"/>
</linearGradient>
<linearGradient id="paint3_linear" x1="290.344" y1="168.733" x2="308.184" y2="168.733" gradientUnits="userSpaceOnUse">
<stop offset="0.005618" stopColor="#DBF2F7"/>
<stop offset="1" stopColor="#B3E2EE"/>
</linearGradient>
</defs>
</svg>
