<svg width="371" height="310" viewBox="0 0 371 310" fill="none" xmlns="http://www.w3.org/2000/svg">
<path d="M46.188 146.903L191.622 10.7656L190.194 54.9864L44.7595 191.055L46.188 146.903Z" fill="#B7B694"/>
<path d="M46.188 146.903L191.622 10.7656L190.194 54.9864L44.7595 191.055L46.188 146.903Z" fill="#B7B694"/>
<path d="M1.42847 136.137L146.863 0L191.622 10.7656L46.1879 146.903L1.42847 136.137Z" fill="#D5D3AC"/>
<path d="M46.1879 146.903L44.7594 191.055L0 180.29L1.42849 136.137L46.1879 146.903Z" fill="#A5A485"/>
<path opacity="0.6" d="M47.6165 150.378C47.6165 150.378 50.5415 188.602 63.738 201.821C76.9346 215.04 99.6544 220.15 134.142 228.258C168.63 236.366 199.377 242.226 214.07 268.663C228.763 295.1 260.258 309.068 260.258 309.068C260.258 309.068 304.269 270.844 321.139 254.695C338.009 238.547 359.3 154.057 365.15 143.769C371 133.48 371 116.582 371 116.582C371 116.582 349.028 113.652 333.587 106.293C318.214 98.9346 271.958 70.3171 255.156 66.6378C238.286 62.9584 200.737 71.2029 190.194 54.9864C179.65 38.7698 184.004 28.4812 184.004 28.4812L47.6165 150.378Z" fill="url(#paint0_linear)"/>
<path d="M46.528 137.772L191.962 1.70337L200.601 30.3208L55.167 166.458L46.528 137.772Z" fill="#D88370"/>
<path d="M1.42847 136.137L146.863 0L191.962 1.70342L46.528 137.772L1.42847 136.137Z" fill="#FEA794"/>
<path d="M1.42847 136.137L46.528 137.841L55.167 166.458C55.167 166.458 27.8216 169.047 17.8221 162.847C7.82267 156.578 1.42847 136.137 1.42847 136.137Z" fill="#B16D5E"/>
<path opacity="0.5" d="M68.9078 181.925C68.9078 181.925 188.425 144.45 214.07 151.809L68.9078 181.925Z" fill="url(#paint1_linear)"/>
<path opacity="0.5" d="M262.503 92.3252C262.503 92.3252 289.644 142.269 276.447 245.837L262.503 92.3252Z" fill="url(#paint2_linear)"/>
<path opacity="0.5" d="M307.942 113.652C307.942 113.652 311.615 170.955 290.324 223.829L307.942 113.652Z" fill="url(#paint3_linear)"/>
<g filter="url(#filter0_d)">
<path d="M129.942 151L129.924 142.648L125.784 149.56H124.74L120.6 142.756V151H118.368V138.4H120.294L125.298 146.752L130.212 138.4H132.138L132.156 151H129.942ZM139.663 151.126C138.691 151.126 137.815 150.916 137.035 150.496C136.255 150.076 135.643 149.494 135.199 148.75C134.767 147.994 134.551 147.142 134.551 146.194C134.551 145.246 134.767 144.4 135.199 143.656C135.643 142.912 136.255 142.33 137.035 141.91C137.815 141.49 138.691 141.28 139.663 141.28C140.647 141.28 141.529 141.49 142.309 141.91C143.089 142.33 143.695 142.912 144.127 143.656C144.571 144.4 144.793 145.246 144.793 146.194C144.793 147.142 144.571 147.994 144.127 148.75C143.695 149.494 143.089 150.076 142.309 150.496C141.529 150.916 140.647 151.126 139.663 151.126ZM139.663 149.2C140.491 149.2 141.175 148.924 141.715 148.372C142.255 147.82 142.525 147.094 142.525 146.194C142.525 145.294 142.255 144.568 141.715 144.016C141.175 143.464 140.491 143.188 139.663 143.188C138.835 143.188 138.151 143.464 137.611 144.016C137.083 144.568 136.819 145.294 136.819 146.194C136.819 147.094 137.083 147.82 137.611 148.372C138.151 148.924 138.835 149.2 139.663 149.2ZM149.915 151.126C149.135 151.126 148.373 151.024 147.629 150.82C146.885 150.616 146.291 150.358 145.847 150.046L146.711 148.336C147.143 148.624 147.659 148.858 148.259 149.038C148.871 149.206 149.471 149.29 150.059 149.29C151.403 149.29 152.075 148.936 152.075 148.228C152.075 147.892 151.901 147.658 151.553 147.526C151.217 147.394 150.671 147.268 149.915 147.148C149.123 147.028 148.475 146.89 147.971 146.734C147.479 146.578 147.047 146.308 146.675 145.924C146.315 145.528 146.135 144.982 146.135 144.286C146.135 143.374 146.513 142.648 147.269 142.108C148.037 141.556 149.069 141.28 150.365 141.28C151.025 141.28 151.685 141.358 152.345 141.514C153.005 141.658 153.545 141.856 153.965 142.108L153.101 143.818C152.285 143.338 151.367 143.098 150.347 143.098C149.687 143.098 149.183 143.2 148.835 143.404C148.499 143.596 148.331 143.854 148.331 144.178C148.331 144.538 148.511 144.796 148.871 144.952C149.243 145.096 149.813 145.234 150.581 145.366C151.349 145.486 151.979 145.624 152.471 145.78C152.963 145.936 153.383 146.2 153.731 146.572C154.091 146.944 154.271 147.472 154.271 148.156C154.271 149.056 153.881 149.776 153.101 150.316C152.321 150.856 151.259 151.126 149.915 151.126ZM161.986 150.478C161.722 150.694 161.398 150.856 161.014 150.964C160.642 151.072 160.246 151.126 159.826 151.126C158.77 151.126 157.954 150.85 157.378 150.298C156.802 149.746 156.514 148.942 156.514 147.886V143.26H154.93V141.46H156.514V139.264H158.764V141.46H161.338V143.26H158.764V147.832C158.764 148.3 158.878 148.66 159.106 148.912C159.334 149.152 159.664 149.272 160.096 149.272C160.6 149.272 161.02 149.14 161.356 148.876L161.986 150.478ZM172.718 139.336C171.77 139.336 171.296 139.852 171.296 140.884V141.46H173.942V143.26H171.368V151H169.118V143.26H167.534V141.46H169.118V140.848C169.118 139.816 169.418 139.006 170.018 138.418C170.618 137.818 171.464 137.518 172.556 137.518C173.42 137.518 174.098 137.692 174.59 138.04L173.96 139.732C173.576 139.468 173.162 139.336 172.718 139.336ZM179.636 151.126C178.664 151.126 177.788 150.916 177.008 150.496C176.228 150.076 175.616 149.494 175.172 148.75C174.74 147.994 174.524 147.142 174.524 146.194C174.524 145.246 174.74 144.4 175.172 143.656C175.616 142.912 176.228 142.33 177.008 141.91C177.788 141.49 178.664 141.28 179.636 141.28C180.62 141.28 181.502 141.49 182.282 141.91C183.062 142.33 183.668 142.912 184.1 143.656C184.544 144.4 184.766 145.246 184.766 146.194C184.766 147.142 184.544 147.994 184.1 148.75C183.668 149.494 183.062 150.076 182.282 150.496C181.502 150.916 180.62 151.126 179.636 151.126ZM179.636 149.2C180.464 149.2 181.148 148.924 181.688 148.372C182.228 147.82 182.498 147.094 182.498 146.194C182.498 145.294 182.228 144.568 181.688 144.016C181.148 143.464 180.464 143.188 179.636 143.188C178.808 143.188 178.124 143.464 177.584 144.016C177.056 144.568 176.792 145.294 176.792 146.194C176.792 147.094 177.056 147.82 177.584 148.372C178.124 148.924 178.808 149.2 179.636 149.2ZM191.237 151.126C190.265 151.126 189.389 150.916 188.609 150.496C187.829 150.076 187.217 149.494 186.773 148.75C186.341 147.994 186.125 147.142 186.125 146.194C186.125 145.246 186.341 144.4 186.773 143.656C187.217 142.912 187.829 142.33 188.609 141.91C189.389 141.49 190.265 141.28 191.237 141.28C192.221 141.28 193.103 141.49 193.883 141.91C194.663 142.33 195.269 142.912 195.701 143.656C196.145 144.4 196.367 145.246 196.367 146.194C196.367 147.142 196.145 147.994 195.701 148.75C195.269 149.494 194.663 150.076 193.883 150.496C193.103 150.916 192.221 151.126 191.237 151.126ZM191.237 149.2C192.065 149.2 192.749 148.924 193.289 148.372C193.829 147.82 194.099 147.094 194.099 146.194C194.099 145.294 193.829 144.568 193.289 144.016C192.749 143.464 192.065 143.188 191.237 143.188C190.409 143.188 189.725 143.464 189.185 144.016C188.657 144.568 188.393 145.294 188.393 146.194C188.393 147.094 188.657 147.82 189.185 148.372C189.725 148.924 190.409 149.2 191.237 149.2ZM207.933 137.644V151H205.773V149.758C205.401 150.214 204.939 150.556 204.387 150.784C203.847 151.012 203.247 151.126 202.587 151.126C201.663 151.126 200.829 150.922 200.085 150.514C199.353 150.106 198.777 149.53 198.357 148.786C197.937 148.03 197.727 147.166 197.727 146.194C197.727 145.222 197.937 144.364 198.357 143.62C198.777 142.876 199.353 142.3 200.085 141.892C200.829 141.484 201.663 141.28 202.587 141.28C203.223 141.28 203.805 141.388 204.333 141.604C204.861 141.82 205.311 142.144 205.683 142.576V137.644H207.933ZM202.857 149.2C203.397 149.2 203.883 149.08 204.315 148.84C204.747 148.588 205.089 148.234 205.341 147.778C205.593 147.322 205.719 146.794 205.719 146.194C205.719 145.594 205.593 145.066 205.341 144.61C205.089 144.154 204.747 143.806 204.315 143.566C203.883 143.314 203.397 143.188 202.857 143.188C202.317 143.188 201.831 143.314 201.399 143.566C200.967 143.806 200.625 144.154 200.373 144.61C200.121 145.066 199.995 145.594 199.995 146.194C199.995 146.794 200.121 147.322 200.373 147.778C200.625 148.234 200.967 148.588 201.399 148.84C201.831 149.08 202.317 149.2 202.857 149.2ZM221.179 141.28C222.115 141.28 222.949 141.484 223.681 141.892C224.425 142.3 225.007 142.876 225.427 143.62C225.847 144.364 226.057 145.222 226.057 146.194C226.057 147.166 225.847 148.03 225.427 148.786C225.007 149.53 224.425 150.106 223.681 150.514C222.949 150.922 222.115 151.126 221.179 151.126C219.883 151.126 218.857 150.694 218.101 149.83V154.492H215.851V141.388H217.993V142.648C218.365 142.192 218.821 141.85 219.361 141.622C219.913 141.394 220.519 141.28 221.179 141.28ZM220.927 149.2C221.755 149.2 222.433 148.924 222.961 148.372C223.501 147.82 223.771 147.094 223.771 146.194C223.771 145.294 223.501 144.568 222.961 144.016C222.433 143.464 221.755 143.188 220.927 143.188C220.387 143.188 219.901 143.314 219.469 143.566C219.037 143.806 218.695 144.154 218.443 144.61C218.191 145.066 218.065 145.594 218.065 146.194C218.065 146.794 218.191 147.322 218.443 147.778C218.695 148.234 219.037 148.588 219.469 148.84C219.901 149.08 220.387 149.2 220.927 149.2ZM231.74 141.28C233.156 141.28 234.236 141.622 234.98 142.306C235.736 142.978 236.114 143.998 236.114 145.366V151H233.99V149.83C233.714 150.25 233.318 150.574 232.802 150.802C232.298 151.018 231.686 151.126 230.966 151.126C230.246 151.126 229.616 151.006 229.076 150.766C228.536 150.514 228.116 150.172 227.816 149.74C227.528 149.296 227.384 148.798 227.384 148.246C227.384 147.382 227.702 146.692 228.338 146.176C228.986 145.648 230 145.384 231.38 145.384H233.864V145.24C233.864 144.568 233.66 144.052 233.252 143.692C232.856 143.332 232.262 143.152 231.47 143.152C230.93 143.152 230.396 143.236 229.868 143.404C229.352 143.572 228.914 143.806 228.554 144.106L227.672 142.468C228.176 142.084 228.782 141.79 229.49 141.586C230.198 141.382 230.948 141.28 231.74 141.28ZM231.434 149.488C231.998 149.488 232.496 149.362 232.928 149.11C233.372 148.846 233.684 148.474 233.864 147.994V146.878H231.542C230.246 146.878 229.598 147.304 229.598 148.156C229.598 148.564 229.76 148.888 230.084 149.128C230.408 149.368 230.858 149.488 231.434 149.488ZM243.499 151.126C242.503 151.126 241.609 150.916 240.817 150.496C240.025 150.076 239.407 149.494 238.963 148.75C238.519 147.994 238.297 147.142 238.297 146.194C238.297 145.246 238.519 144.4 238.963 143.656C239.407 142.912 240.019 142.33 240.799 141.91C241.591 141.49 242.491 141.28 243.499 141.28C244.447 141.28 245.275 141.472 245.983 141.856C246.703 142.24 247.243 142.792 247.603 143.512L245.875 144.52C245.599 144.076 245.251 143.746 244.831 143.53C244.423 143.302 243.973 143.188 243.481 143.188C242.641 143.188 241.945 143.464 241.393 144.016C240.841 144.556 240.565 145.282 240.565 146.194C240.565 147.106 240.835 147.838 241.375 148.39C241.927 148.93 242.629 149.2 243.481 149.2C243.973 149.2 244.423 149.092 244.831 148.876C245.251 148.648 245.599 148.312 245.875 147.868L247.603 148.876C247.231 149.596 246.685 150.154 245.965 150.55C245.257 150.934 244.435 151.126 243.499 151.126ZM253.384 146.878L251.71 148.462V151H249.46V137.644H251.71V145.708L256.372 141.388H259.072L255.058 145.42L259.45 151H256.714L253.384 146.878ZM264.4 141.28C265.816 141.28 266.896 141.622 267.64 142.306C268.396 142.978 268.774 143.998 268.774 145.366V151H266.65V149.83C266.374 150.25 265.978 150.574 265.462 150.802C264.958 151.018 264.346 151.126 263.626 151.126C262.906 151.126 262.276 151.006 261.736 150.766C261.196 150.514 260.776 150.172 260.476 149.74C260.188 149.296 260.044 148.798 260.044 148.246C260.044 147.382 260.362 146.692 260.998 146.176C261.646 145.648 262.66 145.384 264.04 145.384H266.524V145.24C266.524 144.568 266.32 144.052 265.912 143.692C265.516 143.332 264.922 143.152 264.13 143.152C263.59 143.152 263.056 143.236 262.528 143.404C262.012 143.572 261.574 143.806 261.214 144.106L260.332 142.468C260.836 142.084 261.442 141.79 262.15 141.586C262.858 141.382 263.608 141.28 264.4 141.28ZM264.094 149.488C264.658 149.488 265.156 149.362 265.588 149.11C266.032 148.846 266.344 148.474 266.524 147.994V146.878H264.202C262.906 146.878 262.258 147.304 262.258 148.156C262.258 148.564 262.42 148.888 262.744 149.128C263.068 149.368 263.518 149.488 264.094 149.488ZM281.289 141.388V149.542C281.289 152.926 279.561 154.618 276.105 154.618C275.181 154.618 274.305 154.498 273.477 154.258C272.649 154.03 271.965 153.694 271.425 153.25L272.433 151.558C272.853 151.906 273.381 152.182 274.017 152.386C274.665 152.602 275.319 152.71 275.979 152.71C277.035 152.71 277.809 152.47 278.301 151.99C278.793 151.51 279.039 150.778 279.039 149.794V149.29C278.655 149.71 278.187 150.028 277.635 150.244C277.083 150.46 276.477 150.568 275.817 150.568C274.905 150.568 274.077 150.376 273.333 149.992C272.601 149.596 272.019 149.044 271.587 148.336C271.167 147.628 270.957 146.818 270.957 145.906C270.957 144.994 271.167 144.19 271.587 143.494C272.019 142.786 272.601 142.24 273.333 141.856C274.077 141.472 274.905 141.28 275.817 141.28C276.513 141.28 277.143 141.394 277.707 141.622C278.283 141.85 278.763 142.198 279.147 142.666V141.388H281.289ZM276.159 148.66C277.011 148.66 277.707 148.408 278.247 147.904C278.799 147.388 279.075 146.722 279.075 145.906C279.075 145.102 278.799 144.448 278.247 143.944C277.707 143.44 277.011 143.188 276.159 143.188C275.295 143.188 274.587 143.44 274.035 143.944C273.495 144.448 273.225 145.102 273.225 145.906C273.225 146.722 273.495 147.388 274.035 147.904C274.587 148.408 275.295 148.66 276.159 148.66ZM284.247 141.388H286.497V151H284.247V141.388ZM285.381 139.804C284.973 139.804 284.631 139.678 284.355 139.426C284.079 139.162 283.941 138.838 283.941 138.454C283.941 138.07 284.079 137.752 284.355 137.5C284.631 137.236 284.973 137.104 285.381 137.104C285.789 137.104 286.131 137.23 286.407 137.482C286.683 137.722 286.821 138.028 286.821 138.4C286.821 138.796 286.683 139.132 286.407 139.408C286.143 139.672 285.801 139.804 285.381 139.804ZM294.905 141.28C296.117 141.28 297.089 141.634 297.821 142.342C298.553 143.05 298.919 144.1 298.919 145.492V151H296.669V145.78C296.669 144.94 296.471 144.31 296.075 143.89C295.679 143.458 295.115 143.242 294.383 143.242C293.555 143.242 292.901 143.494 292.421 143.998C291.941 144.49 291.701 145.204 291.701 146.14V151H289.451V141.388H291.593V142.63C291.965 142.186 292.433 141.85 292.997 141.622C293.561 141.394 294.197 141.28 294.905 141.28ZM311.401 141.388V149.542C311.401 152.926 309.673 154.618 306.217 154.618C305.293 154.618 304.417 154.498 303.589 154.258C302.761 154.03 302.077 153.694 301.537 153.25L302.545 151.558C302.965 151.906 303.493 152.182 304.129 152.386C304.777 152.602 305.431 152.71 306.091 152.71C307.147 152.71 307.921 152.47 308.413 151.99C308.905 151.51 309.151 150.778 309.151 149.794V149.29C308.767 149.71 308.299 150.028 307.747 150.244C307.195 150.46 306.589 150.568 305.929 150.568C305.017 150.568 304.189 150.376 303.445 149.992C302.713 149.596 302.131 149.044 301.699 148.336C301.279 147.628 301.069 146.818 301.069 145.906C301.069 144.994 301.279 144.19 301.699 143.494C302.131 142.786 302.713 142.24 303.445 141.856C304.189 141.472 305.017 141.28 305.929 141.28C306.625 141.28 307.255 141.394 307.819 141.622C308.395 141.85 308.875 142.198 309.259 142.666V141.388H311.401ZM306.271 148.66C307.123 148.66 307.819 148.408 308.359 147.904C308.911 147.388 309.187 146.722 309.187 145.906C309.187 145.102 308.911 144.448 308.359 143.944C307.819 143.44 307.123 143.188 306.271 143.188C305.407 143.188 304.699 143.44 304.147 143.944C303.607 144.448 303.337 145.102 303.337 145.906C303.337 146.722 303.607 147.388 304.147 147.904C304.699 148.408 305.407 148.66 306.271 148.66ZM319.333 141.388H321.583V151H319.333V141.388ZM320.467 139.804C320.059 139.804 319.717 139.678 319.441 139.426C319.165 139.162 319.027 138.838 319.027 138.454C319.027 138.07 319.165 137.752 319.441 137.5C319.717 137.236 320.059 137.104 320.467 137.104C320.875 137.104 321.217 137.23 321.493 137.482C321.769 137.722 321.907 138.028 321.907 138.4C321.907 138.796 321.769 139.132 321.493 139.408C321.229 139.672 320.887 139.804 320.467 139.804ZM327.507 151.126C326.727 151.126 325.965 151.024 325.221 150.82C324.477 150.616 323.883 150.358 323.439 150.046L324.303 148.336C324.735 148.624 325.251 148.858 325.851 149.038C326.463 149.206 327.063 149.29 327.651 149.29C328.995 149.29 329.667 148.936 329.667 148.228C329.667 147.892 329.493 147.658 329.145 147.526C328.809 147.394 328.263 147.268 327.507 147.148C326.715 147.028 326.067 146.89 325.563 146.734C325.071 146.578 324.639 146.308 324.267 145.924C323.907 145.528 323.727 144.982 323.727 144.286C323.727 143.374 324.105 142.648 324.861 142.108C325.629 141.556 326.661 141.28 327.957 141.28C328.617 141.28 329.277 141.358 329.937 141.514C330.597 141.658 331.137 141.856 331.557 142.108L330.693 143.818C329.877 143.338 328.959 143.098 327.939 143.098C327.279 143.098 326.775 143.2 326.427 143.404C326.091 143.596 325.923 143.854 325.923 144.178C325.923 144.538 326.103 144.796 326.463 144.952C326.835 145.096 327.405 145.234 328.173 145.366C328.941 145.486 329.571 145.624 330.063 145.78C330.555 145.936 330.975 146.2 331.323 146.572C331.683 146.944 331.863 147.472 331.863 148.156C331.863 149.056 331.473 149.776 330.693 150.316C329.913 150.856 328.851 151.126 327.507 151.126ZM148.895 173.126C148.115 173.126 147.353 173.024 146.609 172.82C145.865 172.616 145.271 172.358 144.827 172.046L145.691 170.336C146.123 170.624 146.639 170.858 147.239 171.038C147.851 171.206 148.451 171.29 149.039 171.29C150.383 171.29 151.055 170.936 151.055 170.228C151.055 169.892 150.881 169.658 150.533 169.526C150.197 169.394 149.651 169.268 148.895 169.148C148.103 169.028 147.455 168.89 146.951 168.734C146.459 168.578 146.027 168.308 145.655 167.924C145.295 167.528 145.115 166.982 145.115 166.286C145.115 165.374 145.493 164.648 146.249 164.108C147.017 163.556 148.049 163.28 149.345 163.28C150.005 163.28 150.665 163.358 151.325 163.514C151.985 163.658 152.525 163.856 152.945 164.108L152.081 165.818C151.265 165.338 150.347 165.098 149.327 165.098C148.667 165.098 148.163 165.2 147.815 165.404C147.479 165.596 147.311 165.854 147.311 166.178C147.311 166.538 147.491 166.796 147.851 166.952C148.223 167.096 148.793 167.234 149.561 167.366C150.329 167.486 150.959 167.624 151.451 167.78C151.943 167.936 152.363 168.2 152.711 168.572C153.071 168.944 153.251 169.472 153.251 170.156C153.251 171.056 152.861 171.776 152.081 172.316C151.301 172.856 150.239 173.126 148.895 173.126ZM155.189 163.388H157.439V173H155.189V163.388ZM156.323 161.804C155.915 161.804 155.573 161.678 155.297 161.426C155.021 161.162 154.883 160.838 154.883 160.454C154.883 160.07 155.021 159.752 155.297 159.5C155.573 159.236 155.915 159.104 156.323 159.104C156.731 159.104 157.073 159.23 157.349 159.482C157.625 159.722 157.763 160.028 157.763 160.4C157.763 160.796 157.625 161.132 157.349 161.408C157.085 161.672 156.743 161.804 156.323 161.804ZM165.846 163.28C167.058 163.28 168.03 163.634 168.762 164.342C169.494 165.05 169.86 166.1 169.86 167.492V173H167.61V167.78C167.61 166.94 167.412 166.31 167.016 165.89C166.62 165.458 166.056 165.242 165.324 165.242C164.496 165.242 163.842 165.494 163.362 165.998C162.882 166.49 162.642 167.204 162.642 168.14V173H160.392V163.388H162.534V164.63C162.906 164.186 163.374 163.85 163.938 163.622C164.502 163.394 165.138 163.28 165.846 163.28ZM182.342 163.388V171.542C182.342 174.926 180.614 176.618 177.158 176.618C176.234 176.618 175.358 176.498 174.53 176.258C173.702 176.03 173.018 175.694 172.478 175.25L173.486 173.558C173.906 173.906 174.434 174.182 175.07 174.386C175.718 174.602 176.372 174.71 177.032 174.71C178.088 174.71 178.862 174.47 179.354 173.99C179.846 173.51 180.092 172.778 180.092 171.794V171.29C179.708 171.71 179.24 172.028 178.688 172.244C178.136 172.46 177.53 172.568 176.87 172.568C175.958 172.568 175.13 172.376 174.386 171.992C173.654 171.596 173.072 171.044 172.64 170.336C172.22 169.628 172.01 168.818 172.01 167.906C172.01 166.994 172.22 166.19 172.64 165.494C173.072 164.786 173.654 164.24 174.386 163.856C175.13 163.472 175.958 163.28 176.87 163.28C177.566 163.28 178.196 163.394 178.76 163.622C179.336 163.85 179.816 164.198 180.2 164.666V163.388H182.342ZM177.212 170.66C178.064 170.66 178.76 170.408 179.3 169.904C179.852 169.388 180.128 168.722 180.128 167.906C180.128 167.102 179.852 166.448 179.3 165.944C178.76 165.44 178.064 165.188 177.212 165.188C176.348 165.188 175.64 165.44 175.088 165.944C174.548 166.448 174.278 167.102 174.278 167.906C174.278 168.722 174.548 169.388 175.088 169.904C175.64 170.408 176.348 170.66 177.212 170.66ZM185.3 159.644H187.55V173H185.3V159.644ZM199.539 168.248C199.539 168.404 199.527 168.626 199.503 168.914H191.961C192.093 169.622 192.435 170.186 192.987 170.606C193.551 171.014 194.247 171.218 195.075 171.218C196.131 171.218 197.001 170.87 197.685 170.174L198.891 171.56C198.459 172.076 197.913 172.466 197.253 172.73C196.593 172.994 195.849 173.126 195.021 173.126C193.965 173.126 193.035 172.916 192.231 172.496C191.427 172.076 190.803 171.494 190.359 170.75C189.927 169.994 189.711 169.142 189.711 168.194C189.711 167.258 189.921 166.418 190.341 165.674C190.773 164.918 191.367 164.33 192.123 163.91C192.879 163.49 193.731 163.28 194.679 163.28C195.615 163.28 196.449 163.49 197.181 163.91C197.925 164.318 198.501 164.9 198.909 165.656C199.329 166.4 199.539 167.264 199.539 168.248ZM194.679 165.08C193.959 165.08 193.347 165.296 192.843 165.728C192.351 166.148 192.051 166.712 191.943 167.42H197.397C197.301 166.724 197.007 166.16 196.515 165.728C196.023 165.296 195.411 165.08 194.679 165.08ZM201.39 167.06H206.34V168.932H201.39V167.06ZM218.108 163.388V173H215.966V171.776C215.606 172.208 215.156 172.544 214.616 172.784C214.076 173.012 213.494 173.126 212.87 173.126C211.586 173.126 210.572 172.772 209.828 172.064C209.096 171.344 208.73 170.282 208.73 168.878V163.388H210.98V168.572C210.98 169.436 211.172 170.084 211.556 170.516C211.952 170.936 212.51 171.146 213.23 171.146C214.034 171.146 214.67 170.9 215.138 170.408C215.618 169.904 215.858 169.184 215.858 168.248V163.388H218.108ZM224.024 173.126C223.244 173.126 222.482 173.024 221.738 172.82C220.994 172.616 220.4 172.358 219.956 172.046L220.82 170.336C221.252 170.624 221.768 170.858 222.368 171.038C222.98 171.206 223.58 171.29 224.168 171.29C225.512 171.29 226.184 170.936 226.184 170.228C226.184 169.892 226.01 169.658 225.662 169.526C225.326 169.394 224.78 169.268 224.024 169.148C223.232 169.028 222.584 168.89 222.08 168.734C221.588 168.578 221.156 168.308 220.784 167.924C220.424 167.528 220.244 166.982 220.244 166.286C220.244 165.374 220.622 164.648 221.378 164.108C222.146 163.556 223.178 163.28 224.474 163.28C225.134 163.28 225.794 163.358 226.454 163.514C227.114 163.658 227.654 163.856 228.074 164.108L227.21 165.818C226.394 165.338 225.476 165.098 224.456 165.098C223.796 165.098 223.292 165.2 222.944 165.404C222.608 165.596 222.44 165.854 222.44 166.178C222.44 166.538 222.62 166.796 222.98 166.952C223.352 167.096 223.922 167.234 224.69 167.366C225.458 167.486 226.088 167.624 226.58 167.78C227.072 167.936 227.492 168.2 227.84 168.572C228.2 168.944 228.38 169.472 228.38 170.156C228.38 171.056 227.99 171.776 227.21 172.316C226.43 172.856 225.368 173.126 224.024 173.126ZM239.354 168.248C239.354 168.404 239.342 168.626 239.318 168.914H231.776C231.908 169.622 232.25 170.186 232.802 170.606C233.366 171.014 234.062 171.218 234.89 171.218C235.946 171.218 236.816 170.87 237.5 170.174L238.706 171.56C238.274 172.076 237.728 172.466 237.068 172.73C236.408 172.994 235.664 173.126 234.836 173.126C233.78 173.126 232.85 172.916 232.046 172.496C231.242 172.076 230.618 171.494 230.174 170.75C229.742 169.994 229.526 169.142 229.526 168.194C229.526 167.258 229.736 166.418 230.156 165.674C230.588 164.918 231.182 164.33 231.938 163.91C232.694 163.49 233.546 163.28 234.494 163.28C235.43 163.28 236.264 163.49 236.996 163.91C237.74 164.318 238.316 164.9 238.724 165.656C239.144 166.4 239.354 167.264 239.354 168.248ZM234.494 165.08C233.774 165.08 233.162 165.296 232.658 165.728C232.166 166.148 231.866 166.712 231.758 167.42H237.212C237.116 166.724 236.822 166.16 236.33 165.728C235.838 165.296 235.226 165.08 234.494 165.08ZM242.253 170.138C242.673 170.138 243.021 170.276 243.297 170.552C243.573 170.828 243.711 171.188 243.711 171.632C243.711 171.824 243.681 172.028 243.621 172.244C243.573 172.448 243.465 172.76 243.297 173.18L242.379 175.718H240.921L241.641 172.964C241.377 172.856 241.167 172.688 241.011 172.46C240.867 172.22 240.795 171.944 240.795 171.632C240.795 171.188 240.933 170.828 241.209 170.552C241.485 170.276 241.833 170.138 242.253 170.138ZM254.556 163.28C255.972 163.28 257.052 163.622 257.796 164.306C258.552 164.978 258.93 165.998 258.93 167.366V173H256.806V171.83C256.53 172.25 256.134 172.574 255.618 172.802C255.114 173.018 254.502 173.126 253.782 173.126C253.062 173.126 252.432 173.006 251.892 172.766C251.352 172.514 250.932 172.172 250.632 171.74C250.344 171.296 250.2 170.798 250.2 170.246C250.2 169.382 250.518 168.692 251.154 168.176C251.802 167.648 252.816 167.384 254.196 167.384H256.68V167.24C256.68 166.568 256.476 166.052 256.068 165.692C255.672 165.332 255.078 165.152 254.286 165.152C253.746 165.152 253.212 165.236 252.684 165.404C252.168 165.572 251.73 165.806 251.37 166.106L250.488 164.468C250.992 164.084 251.598 163.79 252.306 163.586C253.014 163.382 253.764 163.28 254.556 163.28ZM254.25 171.488C254.814 171.488 255.312 171.362 255.744 171.11C256.188 170.846 256.5 170.474 256.68 169.994V168.878H254.358C253.062 168.878 252.414 169.304 252.414 170.156C252.414 170.564 252.576 170.888 252.9 171.128C253.224 171.368 253.674 171.488 254.25 171.488ZM267.272 163.28C268.484 163.28 269.456 163.634 270.188 164.342C270.92 165.05 271.286 166.1 271.286 167.492V173H269.036V167.78C269.036 166.94 268.838 166.31 268.442 165.89C268.046 165.458 267.482 165.242 266.75 165.242C265.922 165.242 265.268 165.494 264.788 165.998C264.308 166.49 264.068 167.204 264.068 168.14V173H261.818V163.388H263.96V164.63C264.332 164.186 264.8 163.85 265.364 163.622C265.928 163.394 266.564 163.28 267.272 163.28ZM283.642 159.644V173H281.482V171.758C281.11 172.214 280.648 172.556 280.096 172.784C279.556 173.012 278.956 173.126 278.296 173.126C277.372 173.126 276.538 172.922 275.794 172.514C275.062 172.106 274.486 171.53 274.066 170.786C273.646 170.03 273.436 169.166 273.436 168.194C273.436 167.222 273.646 166.364 274.066 165.62C274.486 164.876 275.062 164.3 275.794 163.892C276.538 163.484 277.372 163.28 278.296 163.28C278.932 163.28 279.514 163.388 280.042 163.604C280.57 163.82 281.02 164.144 281.392 164.576V159.644H283.642ZM278.566 171.2C279.106 171.2 279.592 171.08 280.024 170.84C280.456 170.588 280.798 170.234 281.05 169.778C281.302 169.322 281.428 168.794 281.428 168.194C281.428 167.594 281.302 167.066 281.05 166.61C280.798 166.154 280.456 165.806 280.024 165.566C279.592 165.314 279.106 165.188 278.566 165.188C278.026 165.188 277.54 165.314 277.108 165.566C276.676 165.806 276.334 166.154 276.082 166.61C275.83 167.066 275.704 167.594 275.704 168.194C275.704 168.794 275.83 169.322 276.082 169.778C276.334 170.234 276.676 170.588 277.108 170.84C277.54 171.08 278.026 171.2 278.566 171.2ZM291.56 163.388H293.81V173H291.56V163.388ZM292.694 161.804C292.286 161.804 291.944 161.678 291.668 161.426C291.392 161.162 291.254 160.838 291.254 160.454C291.254 160.07 291.392 159.752 291.668 159.5C291.944 159.236 292.286 159.104 292.694 159.104C293.102 159.104 293.444 159.23 293.72 159.482C293.996 159.722 294.134 160.028 294.134 160.4C294.134 160.796 293.996 161.132 293.72 161.408C293.456 161.672 293.114 161.804 292.694 161.804ZM299.733 173.126C298.953 173.126 298.191 173.024 297.447 172.82C296.703 172.616 296.109 172.358 295.665 172.046L296.529 170.336C296.961 170.624 297.477 170.858 298.077 171.038C298.689 171.206 299.289 171.29 299.877 171.29C301.221 171.29 301.893 170.936 301.893 170.228C301.893 169.892 301.719 169.658 301.371 169.526C301.035 169.394 300.489 169.268 299.733 169.148C298.941 169.028 298.293 168.89 297.789 168.734C297.297 168.578 296.865 168.308 296.493 167.924C296.133 167.528 295.953 166.982 295.953 166.286C295.953 165.374 296.331 164.648 297.087 164.108C297.855 163.556 298.887 163.28 300.183 163.28C300.843 163.28 301.503 163.358 302.163 163.514C302.823 163.658 303.363 163.856 303.783 164.108L302.919 165.818C302.103 165.338 301.185 165.098 300.165 165.098C299.505 165.098 299.001 165.2 298.653 165.404C298.317 165.596 298.149 165.854 298.149 166.178C298.149 166.538 298.329 166.796 298.689 166.952C299.061 167.096 299.631 167.234 300.399 167.366C301.167 167.486 301.797 167.624 302.289 167.78C302.781 167.936 303.201 168.2 303.549 168.572C303.909 168.944 304.089 169.472 304.089 170.156C304.089 171.056 303.699 171.776 302.919 172.316C302.139 172.856 301.077 173.126 299.733 173.126ZM119.039 185.388H121.289V195H119.039V185.388ZM120.173 183.804C119.765 183.804 119.423 183.678 119.147 183.426C118.871 183.162 118.733 182.838 118.733 182.454C118.733 182.07 118.871 181.752 119.147 181.5C119.423 181.236 119.765 181.104 120.173 181.104C120.581 181.104 120.923 181.23 121.199 181.482C121.475 181.722 121.613 182.028 121.613 182.4C121.613 182.796 121.475 183.132 121.199 183.408C120.935 183.672 120.593 183.804 120.173 183.804ZM136.375 185.28C137.587 185.28 138.547 185.634 139.255 186.342C139.963 187.038 140.317 188.088 140.317 189.492V195H138.067V189.78C138.067 188.94 137.881 188.31 137.509 187.89C137.137 187.458 136.603 187.242 135.907 187.242C135.151 187.242 134.545 187.494 134.089 187.998C133.633 188.49 133.405 189.198 133.405 190.122V195H131.155V189.78C131.155 188.94 130.969 188.31 130.597 187.89C130.225 187.458 129.691 187.242 128.995 187.242C128.227 187.242 127.615 187.488 127.159 187.98C126.715 188.472 126.493 189.186 126.493 190.122V195H124.243V185.388H126.385V186.612C126.745 186.18 127.195 185.85 127.735 185.622C128.275 185.394 128.875 185.28 129.535 185.28C130.255 185.28 130.891 185.418 131.443 185.694C132.007 185.958 132.451 186.354 132.775 186.882C133.171 186.378 133.681 185.988 134.305 185.712C134.929 185.424 135.619 185.28 136.375 185.28ZM148.52 185.28C149.456 185.28 150.29 185.484 151.022 185.892C151.766 186.3 152.348 186.876 152.768 187.62C153.188 188.364 153.398 189.222 153.398 190.194C153.398 191.166 153.188 192.03 152.768 192.786C152.348 193.53 151.766 194.106 151.022 194.514C150.29 194.922 149.456 195.126 148.52 195.126C147.224 195.126 146.198 194.694 145.442 193.83V198.492H143.192V185.388H145.334V186.648C145.706 186.192 146.162 185.85 146.702 185.622C147.254 185.394 147.86 185.28 148.52 185.28ZM148.268 193.2C149.096 193.2 149.774 192.924 150.302 192.372C150.842 191.82 151.112 191.094 151.112 190.194C151.112 189.294 150.842 188.568 150.302 188.016C149.774 187.464 149.096 187.188 148.268 187.188C147.728 187.188 147.242 187.314 146.81 187.566C146.378 187.806 146.036 188.154 145.784 188.61C145.532 189.066 145.406 189.594 145.406 190.194C145.406 190.794 145.532 191.322 145.784 191.778C146.036 192.234 146.378 192.588 146.81 192.84C147.242 193.08 147.728 193.2 148.268 193.2ZM157.674 186.792C158.322 185.784 159.462 185.28 161.094 185.28V187.422C160.902 187.386 160.728 187.368 160.572 187.368C159.696 187.368 159.012 187.626 158.52 188.142C158.028 188.646 157.782 189.378 157.782 190.338V195H155.532V185.388H157.674V186.792ZM167.234 195.126C166.262 195.126 165.386 194.916 164.606 194.496C163.826 194.076 163.214 193.494 162.77 192.75C162.338 191.994 162.122 191.142 162.122 190.194C162.122 189.246 162.338 188.4 162.77 187.656C163.214 186.912 163.826 186.33 164.606 185.91C165.386 185.49 166.262 185.28 167.234 185.28C168.218 185.28 169.1 185.49 169.88 185.91C170.66 186.33 171.266 186.912 171.698 187.656C172.142 188.4 172.364 189.246 172.364 190.194C172.364 191.142 172.142 191.994 171.698 192.75C171.266 193.494 170.66 194.076 169.88 194.496C169.1 194.916 168.218 195.126 167.234 195.126ZM167.234 193.2C168.062 193.2 168.746 192.924 169.286 192.372C169.826 191.82 170.096 191.094 170.096 190.194C170.096 189.294 169.826 188.568 169.286 188.016C168.746 187.464 168.062 187.188 167.234 187.188C166.406 187.188 165.722 187.464 165.182 188.016C164.654 188.568 164.39 189.294 164.39 190.194C164.39 191.094 164.654 191.82 165.182 192.372C165.722 192.924 166.406 193.2 167.234 193.2ZM179.844 185.28C180.78 185.28 181.614 185.484 182.346 185.892C183.09 186.3 183.672 186.876 184.092 187.62C184.512 188.364 184.722 189.222 184.722 190.194C184.722 191.166 184.512 192.03 184.092 192.786C183.672 193.53 183.09 194.106 182.346 194.514C181.614 194.922 180.78 195.126 179.844 195.126C178.548 195.126 177.522 194.694 176.766 193.83V198.492H174.516V185.388H176.658V186.648C177.03 186.192 177.486 185.85 178.026 185.622C178.578 185.394 179.184 185.28 179.844 185.28ZM179.592 193.2C180.42 193.2 181.098 192.924 181.626 192.372C182.166 191.82 182.436 191.094 182.436 190.194C182.436 189.294 182.166 188.568 181.626 188.016C181.098 187.464 180.42 187.188 179.592 187.188C179.052 187.188 178.566 187.314 178.134 187.566C177.702 187.806 177.36 188.154 177.108 188.61C176.856 189.066 176.73 189.594 176.73 190.194C176.73 190.794 176.856 191.322 177.108 191.778C177.36 192.234 177.702 192.588 178.134 192.84C178.566 193.08 179.052 193.2 179.592 193.2ZM195.892 190.248C195.892 190.404 195.88 190.626 195.856 190.914H188.314C188.446 191.622 188.788 192.186 189.34 192.606C189.904 193.014 190.6 193.218 191.428 193.218C192.484 193.218 193.354 192.87 194.038 192.174L195.244 193.56C194.812 194.076 194.266 194.466 193.606 194.73C192.946 194.994 192.202 195.126 191.374 195.126C190.318 195.126 189.388 194.916 188.584 194.496C187.78 194.076 187.156 193.494 186.712 192.75C186.28 191.994 186.064 191.142 186.064 190.194C186.064 189.258 186.274 188.418 186.694 187.674C187.126 186.918 187.72 186.33 188.476 185.91C189.232 185.49 190.084 185.28 191.032 185.28C191.968 185.28 192.802 185.49 193.534 185.91C194.278 186.318 194.854 186.9 195.262 187.656C195.682 188.4 195.892 189.264 195.892 190.248ZM191.032 187.08C190.312 187.08 189.7 187.296 189.196 187.728C188.704 188.148 188.404 188.712 188.296 189.42H193.75C193.654 188.724 193.36 188.16 192.868 187.728C192.376 187.296 191.764 187.08 191.032 187.08ZM200.195 186.792C200.843 185.784 201.983 185.28 203.615 185.28V187.422C203.423 187.386 203.249 187.368 203.093 187.368C202.217 187.368 201.533 187.626 201.041 188.142C200.549 188.646 200.303 189.378 200.303 190.338V195H198.053V185.388H200.195V186.792ZM205.524 181.644H207.774V195H205.524V181.644ZM219.727 185.388L215.227 195.774C214.807 196.818 214.297 197.55 213.697 197.97C213.097 198.402 212.371 198.618 211.519 198.618C211.039 198.618 210.565 198.54 210.097 198.384C209.629 198.228 209.245 198.012 208.945 197.736L209.845 196.08C210.061 196.284 210.313 196.446 210.601 196.566C210.901 196.686 211.201 196.746 211.501 196.746C211.897 196.746 212.221 196.644 212.473 196.44C212.737 196.236 212.977 195.894 213.193 195.414L213.355 195.036L209.161 185.388H211.501L214.525 192.498L217.567 185.388H219.727ZM235.522 181.644V195H233.362V193.758C232.99 194.214 232.528 194.556 231.976 194.784C231.436 195.012 230.836 195.126 230.176 195.126C229.252 195.126 228.418 194.922 227.674 194.514C226.942 194.106 226.366 193.53 225.946 192.786C225.526 192.03 225.316 191.166 225.316 190.194C225.316 189.222 225.526 188.364 225.946 187.62C226.366 186.876 226.942 186.3 227.674 185.892C228.418 185.484 229.252 185.28 230.176 185.28C230.812 185.28 231.394 185.388 231.922 185.604C232.45 185.82 232.9 186.144 233.272 186.576V181.644H235.522ZM230.446 193.2C230.986 193.2 231.472 193.08 231.904 192.84C232.336 192.588 232.678 192.234 232.93 191.778C233.182 191.322 233.308 190.794 233.308 190.194C233.308 189.594 233.182 189.066 232.93 188.61C232.678 188.154 232.336 187.806 231.904 187.566C231.472 187.314 230.986 187.188 230.446 187.188C229.906 187.188 229.42 187.314 228.988 187.566C228.556 187.806 228.214 188.154 227.962 188.61C227.71 189.066 227.584 189.594 227.584 190.194C227.584 190.794 227.71 191.322 227.962 191.778C228.214 192.234 228.556 192.588 228.988 192.84C229.42 193.08 229.906 193.2 230.446 193.2ZM238.465 185.388H240.715V195H238.465V185.388ZM239.599 183.804C239.191 183.804 238.849 183.678 238.573 183.426C238.297 183.162 238.159 182.838 238.159 182.454C238.159 182.07 238.297 181.752 238.573 181.5C238.849 181.236 239.191 181.104 239.599 181.104C240.007 181.104 240.349 181.23 240.625 181.482C240.901 181.722 241.039 182.028 241.039 182.4C241.039 182.796 240.901 183.132 240.625 183.408C240.361 183.672 240.019 183.804 239.599 183.804ZM246.638 195.126C245.858 195.126 245.096 195.024 244.352 194.82C243.608 194.616 243.014 194.358 242.57 194.046L243.434 192.336C243.866 192.624 244.382 192.858 244.982 193.038C245.594 193.206 246.194 193.29 246.782 193.29C248.126 193.29 248.798 192.936 248.798 192.228C248.798 191.892 248.624 191.658 248.276 191.526C247.94 191.394 247.394 191.268 246.638 191.148C245.846 191.028 245.198 190.89 244.694 190.734C244.202 190.578 243.77 190.308 243.398 189.924C243.038 189.528 242.858 188.982 242.858 188.286C242.858 187.374 243.236 186.648 243.992 186.108C244.76 185.556 245.792 185.28 247.088 185.28C247.748 185.28 248.408 185.358 249.068 185.514C249.728 185.658 250.268 185.856 250.688 186.108L249.824 187.818C249.008 187.338 248.09 187.098 247.07 187.098C246.41 187.098 245.906 187.2 245.558 187.404C245.222 187.596 245.054 187.854 245.054 188.178C245.054 188.538 245.234 188.796 245.594 188.952C245.966 189.096 246.536 189.234 247.304 189.366C248.072 189.486 248.702 189.624 249.194 189.78C249.686 189.936 250.106 190.2 250.454 190.572C250.814 190.944 250.994 191.472 250.994 192.156C250.994 193.056 250.604 193.776 249.824 194.316C249.044 194.856 247.982 195.126 246.638 195.126ZM258.26 185.28C259.196 185.28 260.03 185.484 260.762 185.892C261.506 186.3 262.088 186.876 262.508 187.62C262.928 188.364 263.138 189.222 263.138 190.194C263.138 191.166 262.928 192.03 262.508 192.786C262.088 193.53 261.506 194.106 260.762 194.514C260.03 194.922 259.196 195.126 258.26 195.126C256.964 195.126 255.938 194.694 255.182 193.83V198.492H252.932V185.388H255.074V186.648C255.446 186.192 255.902 185.85 256.442 185.622C256.994 185.394 257.6 185.28 258.26 185.28ZM258.008 193.2C258.836 193.2 259.514 192.924 260.042 192.372C260.582 191.82 260.852 191.094 260.852 190.194C260.852 189.294 260.582 188.568 260.042 188.016C259.514 187.464 258.836 187.188 258.008 187.188C257.468 187.188 256.982 187.314 256.55 187.566C256.118 187.806 255.776 188.154 255.524 188.61C255.272 189.066 255.146 189.594 255.146 190.194C255.146 190.794 255.272 191.322 255.524 191.778C255.776 192.234 256.118 192.588 256.55 192.84C256.982 193.08 257.468 193.2 258.008 193.2ZM269.592 195.126C268.62 195.126 267.744 194.916 266.964 194.496C266.184 194.076 265.572 193.494 265.128 192.75C264.696 191.994 264.48 191.142 264.48 190.194C264.48 189.246 264.696 188.4 265.128 187.656C265.572 186.912 266.184 186.33 266.964 185.91C267.744 185.49 268.62 185.28 269.592 185.28C270.576 185.28 271.458 185.49 272.238 185.91C273.018 186.33 273.624 186.912 274.056 187.656C274.5 188.4 274.722 189.246 274.722 190.194C274.722 191.142 274.5 191.994 274.056 192.75C273.624 193.494 273.018 194.076 272.238 194.496C271.458 194.916 270.576 195.126 269.592 195.126ZM269.592 193.2C270.42 193.2 271.104 192.924 271.644 192.372C272.184 191.82 272.454 191.094 272.454 190.194C272.454 189.294 272.184 188.568 271.644 188.016C271.104 187.464 270.42 187.188 269.592 187.188C268.764 187.188 268.08 187.464 267.54 188.016C267.012 188.568 266.748 189.294 266.748 190.194C266.748 191.094 267.012 191.82 267.54 192.372C268.08 192.924 268.764 193.2 269.592 193.2ZM279.843 195.126C279.063 195.126 278.301 195.024 277.557 194.82C276.813 194.616 276.219 194.358 275.775 194.046L276.639 192.336C277.071 192.624 277.587 192.858 278.187 193.038C278.799 193.206 279.399 193.29 279.987 193.29C281.331 193.29 282.003 192.936 282.003 192.228C282.003 191.892 281.829 191.658 281.481 191.526C281.145 191.394 280.599 191.268 279.843 191.148C279.051 191.028 278.403 190.89 277.899 190.734C277.407 190.578 276.975 190.308 276.603 189.924C276.243 189.528 276.063 188.982 276.063 188.286C276.063 187.374 276.441 186.648 277.197 186.108C277.965 185.556 278.997 185.28 280.293 185.28C280.953 185.28 281.613 185.358 282.273 185.514C282.933 185.658 283.473 185.856 283.893 186.108L283.029 187.818C282.213 187.338 281.295 187.098 280.275 187.098C279.615 187.098 279.111 187.2 278.763 187.404C278.427 187.596 278.259 187.854 278.259 188.178C278.259 188.538 278.439 188.796 278.799 188.952C279.171 189.096 279.741 189.234 280.509 189.366C281.277 189.486 281.907 189.624 282.399 189.78C282.891 189.936 283.311 190.2 283.659 190.572C284.019 190.944 284.199 191.472 284.199 192.156C284.199 193.056 283.809 193.776 283.029 194.316C282.249 194.856 281.187 195.126 279.843 195.126ZM295.173 190.248C295.173 190.404 295.161 190.626 295.137 190.914H287.595C287.727 191.622 288.069 192.186 288.621 192.606C289.185 193.014 289.881 193.218 290.709 193.218C291.765 193.218 292.635 192.87 293.319 192.174L294.525 193.56C294.093 194.076 293.547 194.466 292.887 194.73C292.227 194.994 291.483 195.126 290.655 195.126C289.599 195.126 288.669 194.916 287.865 194.496C287.061 194.076 286.437 193.494 285.993 192.75C285.561 191.994 285.345 191.142 285.345 190.194C285.345 189.258 285.555 188.418 285.975 187.674C286.407 186.918 287.001 186.33 287.757 185.91C288.513 185.49 289.365 185.28 290.313 185.28C291.249 185.28 292.083 185.49 292.815 185.91C293.559 186.318 294.135 186.9 294.543 187.656C294.963 188.4 295.173 189.264 295.173 190.248ZM290.313 187.08C289.593 187.08 288.981 187.296 288.477 187.728C287.985 188.148 287.685 188.712 287.577 189.42H293.031C292.935 188.724 292.641 188.16 292.149 187.728C291.657 187.296 291.045 187.08 290.313 187.08ZM306.748 181.644V195H304.588V193.758C304.216 194.214 303.754 194.556 303.202 194.784C302.662 195.012 302.062 195.126 301.402 195.126C300.478 195.126 299.644 194.922 298.9 194.514C298.168 194.106 297.592 193.53 297.172 192.786C296.752 192.03 296.542 191.166 296.542 190.194C296.542 189.222 296.752 188.364 297.172 187.62C297.592 186.876 298.168 186.3 298.9 185.892C299.644 185.484 300.478 185.28 301.402 185.28C302.038 185.28 302.62 185.388 303.148 185.604C303.676 185.82 304.126 186.144 304.498 186.576V181.644H306.748ZM301.672 193.2C302.212 193.2 302.698 193.08 303.13 192.84C303.562 192.588 303.904 192.234 304.156 191.778C304.408 191.322 304.534 190.794 304.534 190.194C304.534 189.594 304.408 189.066 304.156 188.61C303.904 188.154 303.562 187.806 303.13 187.566C302.698 187.314 302.212 187.188 301.672 187.188C301.132 187.188 300.646 187.314 300.214 187.566C299.782 187.806 299.44 188.154 299.188 188.61C298.936 189.066 298.81 189.594 298.81 190.194C298.81 190.794 298.936 191.322 299.188 191.778C299.44 192.234 299.782 192.588 300.214 192.84C300.646 193.08 301.132 193.2 301.672 193.2ZM318.986 195.126C318.014 195.126 317.138 194.916 316.358 194.496C315.578 194.076 314.966 193.494 314.522 192.75C314.09 191.994 313.874 191.142 313.874 190.194C313.874 189.246 314.09 188.4 314.522 187.656C314.966 186.912 315.578 186.33 316.358 185.91C317.138 185.49 318.014 185.28 318.986 185.28C319.97 185.28 320.852 185.49 321.632 185.91C322.412 186.33 323.018 186.912 323.45 187.656C323.894 188.4 324.116 189.246 324.116 190.194C324.116 191.142 323.894 191.994 323.45 192.75C323.018 193.494 322.412 194.076 321.632 194.496C320.852 194.916 319.97 195.126 318.986 195.126ZM318.986 193.2C319.814 193.2 320.498 192.924 321.038 192.372C321.578 191.82 321.848 191.094 321.848 190.194C321.848 189.294 321.578 188.568 321.038 188.016C320.498 187.464 319.814 187.188 318.986 187.188C318.158 187.188 317.474 187.464 316.934 188.016C316.406 188.568 316.142 189.294 316.142 190.194C316.142 191.094 316.406 191.82 316.934 192.372C317.474 192.924 318.158 193.2 318.986 193.2ZM330.174 183.336C329.226 183.336 328.752 183.852 328.752 184.884V185.46H331.398V187.26H328.824V195H326.574V187.26H324.99V185.46H326.574V184.848C326.574 183.816 326.874 183.006 327.474 182.418C328.074 181.818 328.92 181.518 330.012 181.518C330.876 181.518 331.554 181.692 332.046 182.04L331.416 183.732C331.032 183.468 330.618 183.336 330.174 183.336Z" fill="white"/>
</g>
<defs>
<filter id="filter0_d" x="114.368" y="137.104" width="221.678" height="69.514" filterUnits="userSpaceOnUse" color-interpolation-filters="sRGB">
<feFlood flood-opacity="0" result="BackgroundImageFix"/>
<feColorMatrix in="SourceAlpha" type="matrix" values="0 0 0 0 0 0 0 0 0 0 0 0 0 0 0 0 0 0 127 0"/>
<feOffset dy="4"/>
<feGaussianBlur stdDeviation="2"/>
<feColorMatrix type="matrix" values="0 0 0 0 0 0 0 0 0 0 0 0 0 0 0 0 0 0 0.25 0"/>
<feBlend mode="normal" in2="BackgroundImageFix" result="effect1_dropShadow"/>
<feBlend mode="normal" in="SourceGraphic" in2="effect1_dropShadow" result="shape"/>
</filter>
<linearGradient id="paint0_linear" x1="47.6252" y1="168.732" x2="371.005" y2="168.732" gradientUnits="userSpaceOnUse">
<stop offset="0.005618" stop-color="#DBF2F7" stop-opacity="0.36"/>
<stop offset="1" stop-color="#B3E2EE" stop-opacity="0.4"/>
</linearGradient>
<linearGradient id="paint1_linear" x1="68.8907" y1="166.419" x2="214.081" y2="166.419" gradientUnits="userSpaceOnUse">
<stop offset="0.005618" stop-color="#DBF2F7"/>
<stop offset="1" stop-color="#B3E2EE"/>
</linearGradient>
<linearGradient id="paint2_linear" x1="262.479" y1="169.1" x2="280.032" y2="169.1" gradientUnits="userSpaceOnUse">
<stop offset="0.005618" stop-color="#DBF2F7"/>
<stop offset="1" stop-color="#B3E2EE"/>
</linearGradient>
<linearGradient id="paint3_linear" x1="290.344" y1="168.733" x2="308.184" y2="168.733" gradientUnits="userSpaceOnUse">
<stop offset="0.005618" stop-color="#DBF2F7"/>
<stop offset="1" stop-color="#B3E2EE"/>
</linearGradient>
</defs>
</svg>
