<svg id="Capa_1" data-name="Capa 1" xmlns="http://www.w3.org/2000/svg" viewBox="0 0 512 512"><defs><style>.cls-1{fill:#be785a;}.cls-2{fill:#704536;}.cls-3{fill:#27771e;}.cls-4{fill:#478e3d;}</style></defs><rect class="cls-1" x="216.09" y="213.41" width="53.71" height="298.59"/><polygon class="cls-2" points="216.09 292.9 269.8 338.49 269.8 359.94 216.09 315.31 216.09 292.9"/><polygon class="cls-2" points="216.09 368.93 269.8 414.52 269.8 435.97 216.09 391.33 216.09 368.93"/><polygon class="cls-2" points="216.09 444.96 269.8 490.55 269.8 512 216.09 467.37 216.09 444.96"/><path class="cls-3" d="M243,258.05V93.63S202.32,24.94,186.6,9.22s29.49,108.47,29.49,108.47S153.48,38,140.91,39.55s37.72,95.89,37.72,95.89-62.87-37.73-75.45-34.58S216.09,258.05,216.09,258.05Z"/><path class="cls-4" d="M243,258.05V93.63s37.87-67.44,53.59-83.16S269.8,117.69,269.8,117.69,332.41,38,345,39.55s-37.73,95.89-37.73,95.89,62.88-37.73,75.45-34.58S269.8,258.05,269.8,258.05Z"/></svg>