<svg xmlns="http://www.w3.org/2000/svg" viewBox="0 0 178.04 319.09"><defs><style>.cls-1{fill:#be785a;}.cls-2{fill:#704536;}.cls-3{fill:#27771e;}.cls-4{fill:#478e3d;}</style></defs><g id="Layer_2" data-name="Layer 2"><g id="Capa_1" data-name="Capa 1"><rect class="cls-1" x="72.02" y="130.11" width="34" height="188.98"/><polygon class="cls-2" points="72.02 180.42 106.02 209.27 106.02 222.85 72.02 194.6 72.02 180.42"/><polygon class="cls-2" points="72.02 228.54 106.02 257.39 106.02 270.97 72.02 242.72 72.02 228.54"/><polygon class="cls-2" points="72.02 276.66 106.02 305.51 106.02 319.09 72.02 290.84 72.02 276.66"/><path class="cls-3" d="M89,158.36V54.3S63.3,10.82,53.35.87,72,69.52,72,69.52,32.4,19.07,24.44,20.07,48.31,80.76,48.31,80.76,8.52,56.88.56,58.87,72,158.36,72,158.36Z"/><path class="cls-4" d="M89,158.36V54.3s24-42.69,33.92-52.64S106,69.52,106,69.52s39.62-50.45,47.58-49.45-23.88,60.69-23.88,60.69,39.8-23.88,47.76-21.89S106,158.36,106,158.36Z"/></g></g></svg>