<svg width="102" height="121" viewBox="0 0 102 121" fill="none" xmlns="http://www.w3.org/2000/svg">
<path d="M81.8716 91.2263C53.5743 120.401 8.9214 120.77 3.82656 104.963C-0.559534 91.3559 20.4461 91.8286 48.7434 62.6539C77.0409 33.4793 75.6538 -2.29448 87.9236 0.246141C104.602 3.69989 110.169 62.0515 81.8716 91.2263Z" fill="#FEF2A8"/>
<path d="M92.0856 2.40723C101.251 12.6635 96.7687 55.5576 71.7213 81.3818C44.0441 109.917 7.48681 115.91 3.4715 103.642C3.5622 104.068 3.67845 104.507 3.8254 104.963C8.92025 120.77 53.5731 120.401 81.8706 91.2262C107.656 64.6415 105.322 13.8328 92.0856 2.40723Z" fill="#EEB6A8"/>
<path d="M81.7701 92.2654C52.7268 120.698 8.92044 120.77 3.8256 104.963C-0.183154 92.5265 16.652 91.4828 41.4939 69.6604C42.8493 68.4698 67.1176 71.3631 67.1176 71.3631C70.5943 72.3541 106.305 68.2467 81.7701 92.2654Z" fill="#FFE266"/>
<path d="M67.1176 71.3633C67.1176 71.3633 42.8493 68.4699 41.4939 69.6608C39.4459 71.4598 37.4537 73.115 35.5218 74.6497C39.3763 74.4898 52.108 76.0076 52.108 76.0076C54.5012 76.6899 79.0839 73.8622 62.1946 90.3966C42.2017 109.969 12.0456 110.018 8.53841 99.1379C7.04005 94.4897 9.77263 92.1528 15.3189 88.5842C6.1663 94.385 1.50575 97.7668 3.8256 104.964C8.92044 120.77 52.7268 120.698 81.77 92.266C106.305 68.2468 70.5943 72.3542 67.1176 71.3633Z" fill="#EFAA66"/>
<path d="M69.6191 70.7725C72.6716 64.469 55.7861 39.325 45.8657 40.8642C35.9453 42.4031 4.81792 65.261 8.90566 70.9743C12.2031 75.5828 26.619 70.0877 41.7751 70.2149C54.5286 70.3218 67.5723 74.9992 69.6191 70.7725Z" fill="#FFE266"/>
<path d="M69.5746 69.2761C75.8781 66.2236 101.345 74.8983 99.8061 84.8184C98.2672 94.7388 87.8094 122.138 80.8555 120C77.6108 119.002 76.4874 105.716 73.1731 94.5656C69.6289 82.6408 64.7945 71.5908 69.5746 69.2761Z" fill="#FFE266"/>
<path d="M25.9813 106.033C25.3497 106.033 24.7738 105.607 24.6095 104.967C24.415 104.209 24.8723 103.437 25.6302 103.242C34.2384 101.035 50.1161 95.3512 59.7381 82.0937C60.1982 81.4602 61.0844 81.3196 61.7177 81.7792C62.3512 82.2391 62.4918 83.1252 62.0322 83.7588C57.6152 89.8445 51.5828 95.0015 44.103 99.0866C38.7337 102.019 32.7555 104.341 26.3343 105.988C26.2164 106.018 26.0978 106.033 25.9813 106.033Z" fill="#D0844B"/>
<path d="M17.3853 107.703C16.6674 107.703 16.0517 107.16 15.9772 106.43C15.8975 105.651 16.464 104.955 17.2424 104.876C17.2529 104.875 18.3113 104.764 20.0874 104.449C20.8585 104.313 21.5938 104.827 21.7302 105.598C21.8668 106.368 21.3528 107.104 20.582 107.24C18.6917 107.576 17.5775 107.691 17.5309 107.696C17.4821 107.701 17.4334 107.703 17.3853 107.703Z" fill="#D0844B"/>
<path d="M85.4926 16.6833C85.4661 16.6833 85.4397 16.6828 85.4127 16.6821C84.1089 16.6388 83.087 15.5466 83.1304 14.2428C83.1561 13.4649 83.1693 12.6729 83.1693 11.8887C83.1693 10.5842 84.2268 9.52667 85.5313 9.52667C86.8358 9.52667 87.8933 10.5842 87.8933 11.8887C87.8933 12.725 87.8795 13.5696 87.8518 14.3996C87.8096 15.6767 86.7608 16.6833 85.4926 16.6833Z" fill="white"/>
<path d="M70.5951 54.9895C69.9515 54.9895 69.3105 54.7282 68.8443 54.214C67.9694 53.2488 68.0411 51.7582 69.0034 50.8814C69.1089 50.7848 79.5857 41.0004 82.4427 21.8714C82.6354 20.5811 83.8389 19.6926 85.1277 19.8841C86.418 20.0768 87.3076 21.2791 87.115 22.5691C83.995 43.4594 72.6616 53.9416 72.1806 54.3775C71.7285 54.7875 71.1609 54.9895 70.5951 54.9895Z" fill="white"/>
<path d="M58.1886 97.3685C57.7693 97.3685 57.3545 97.1834 57.0746 96.8285C56.5902 96.214 56.6954 95.3229 57.31 94.8382C57.3428 94.8122 60.6226 92.2125 62.4615 89.6965C62.9237 89.0646 63.8101 88.9268 64.4422 89.3885C65.0741 89.8505 65.2119 90.7371 64.7502 91.3692C62.6792 94.2026 59.2112 96.949 59.0647 97.0645C58.8048 97.2694 58.4954 97.3685 58.1886 97.3685Z" fill="#D0844B"/>
<path d="M48.4638 103.844C47.9613 103.844 47.4745 103.576 47.2176 103.104C46.8435 102.416 47.0978 101.556 47.7853 101.182C48.8484 100.604 50.5387 99.6103 50.9678 99.2135C51.5425 98.6819 52.4392 98.7166 52.9706 99.2913C53.5021 99.866 53.4672 100.762 52.8927 101.294C52.0523 102.071 49.6188 103.411 49.1397 103.672C48.9245 103.789 48.6925 103.844 48.4638 103.844Z" fill="#D0844B"/>
<path d="M44.1585 5.8897L46.1106 11.3788C46.1943 11.6138 46.3595 11.7999 46.5684 11.8942L51.4452 14.0914C52.1343 14.4017 52.1343 15.4995 51.4452 15.8101L46.5684 18.0074C46.3595 18.1013 46.1941 18.2877 46.1106 18.5228L44.1585 24.0118C43.8827 24.7874 42.9074 24.7874 42.6316 24.0118L40.6795 18.5228C40.5958 18.2877 40.4305 18.1016 40.2215 18.0074L35.3446 15.8101C34.6556 15.4998 34.6556 14.402 35.3446 14.0914L40.2215 11.8942C40.4303 11.8002 40.5958 11.6138 40.6795 11.3788L42.6316 5.8897C42.9074 5.11416 43.8829 5.11416 44.1585 5.8897Z" fill="#FEF2A8"/>
<path d="M6.92127 29.6833L8.36924 33.7551C8.43135 33.9294 8.55393 34.0675 8.70885 34.1373L12.3264 35.7672C12.8376 35.9973 12.8376 36.8118 12.3264 37.0419L8.70885 38.6718C8.55393 38.7416 8.43111 38.8797 8.36924 39.054L6.92127 43.1258C6.71666 43.701 5.99315 43.701 5.78854 43.1258L4.34057 39.054C4.27846 38.8797 4.15588 38.7416 4.00096 38.6718L0.383379 37.0419C-0.127793 36.8118 -0.127793 35.9973 0.383379 35.7672L4.00096 34.1373C4.15588 34.0675 4.27869 33.9294 4.34057 33.7551L5.78854 29.6833C5.99338 29.1081 6.71666 29.1081 6.92127 29.6833Z" fill="#FEF2A8"/>
<path d="M19.1129 25.2559C19.4788 23.7145 18.526 22.1684 16.9846 21.8025C15.4433 21.4365 13.8972 22.3894 13.5312 23.9307C13.1653 25.4721 14.1182 27.0182 15.6595 27.3841C17.2008 27.7501 18.747 26.7972 19.1129 25.2559Z" fill="#FFE266"/>
</svg>
