<svg width="35" height="32" viewBox="0 0 35 32" fill="none" xmlns="http://www.w3.org/2000/svg">
<path d="M31.8831 21.2619C37.7876 16.0009 34.5294 6.83525 26.3699 5.75141C22.7212 -1.00698 12.1775 -1.00698 8.52828 5.75141C0.368781 6.83485 -2.889 16.0013 3.01467 21.2619C1.62089 28.6905 10.1505 34.3553 17.4484 30.848C24.7472 34.3549 33.2764 28.6905 31.8831 21.2619Z" fill="#FF5E6B"/>
<path d="M17.449 21.4569C20.5659 21.4569 23.0927 19.1472 23.0927 16.2979C23.0927 13.4487 20.5659 11.1389 17.449 11.1389C14.332 11.1389 11.8052 13.4487 11.8052 16.2979C11.8052 19.1472 14.332 21.4569 17.449 21.4569Z" fill="#FAA330"/>
</svg>
