<svg width="132" height="132" viewBox="0 0 132 132" fill="none" xmlns="http://www.w3.org/2000/svg">
<path d="M32.3817 73.1723L28.0502 85.8896C26.1616 91.4346 29.1258 97.4606 34.6707 99.3491C40.2155 101.238 46.2417 98.2735 48.1302 92.7286L49.2483 89.4459C50.5835 85.5258 53.8625 82.583 57.9037 81.678L61.3008 80.9175C67.314 79.5711 72.4004 75.5866 75.1475 70.0708L78.5213 63.2965C80.2734 59.7785 78.5231 55.5226 74.8026 54.2555C72.3069 53.4055 69.5448 54.1489 67.8131 56.1371L62.7502 61.1369C62.7502 61.1369 60.0271 63.7567 57.2587 62.8138C54.4903 61.8708 53.2749 60.5503 53.9532 57.6894C56.9665 43.203 66.0296 33.8082 67.7912 26.6554C68.6619 23.1203 69.1846 18.7149 61.4086 15.6558L59.2934 15.1471C53.2286 14.7367 50.2562 17.671 47.7998 22.232C45.3106 26.854 43.525 33.1448 43.525 33.1448L39.9168 32.2423C35.8129 31.2157 31.6468 33.681 30.5718 37.7725C29.7229 41.0032 31.0467 44.4133 33.8529 46.2249L35.6802 47.4046L28.4757 58.5818C26.7663 62.8989 29.7255 67.7719 31.7749 71.9384L32.3817 73.1723Z" fill="#FFDCB6"/>
<path d="M61.3008 80.9173C67.314 79.571 72.4003 75.5866 75.1475 70.0707L78.5213 63.2964C80.2735 59.7782 78.523 55.5225 74.8026 54.2554C73.8862 53.9433 72.9342 53.848 72.0103 53.9483L69.2225 59.5456C66.9452 64.1179 62.7288 67.4208 57.7441 68.537L54.928 69.1675C51.578 69.9177 48.8598 72.3571 47.753 75.6067L46.8263 78.3279C45.2607 82.9244 40.2654 85.3815 35.669 83.816C33.2087 82.978 31.3624 81.1571 30.4168 78.9409L28.0502 85.8894C26.1616 91.4344 29.1258 97.4604 34.6707 99.3489C40.2155 101.237 46.2415 98.2735 48.1302 92.7285L49.2483 89.4457C50.5835 85.5257 53.8625 82.5829 57.9037 81.6779L61.3008 80.9173Z" fill="#EFA5B6"/>
<path d="M73.1361 120.103C81.1253 119.46 87.0807 112.462 86.4379 104.473C85.7951 96.4837 78.7975 90.5283 70.8083 91.1711C62.819 91.8139 56.8636 98.8115 57.5064 106.801C58.1492 114.79 65.1468 120.745 73.1361 120.103Z" fill="#D49C8D"/>
<path d="M73.1361 120.103C81.1253 119.46 87.0807 112.462 86.4379 104.473C85.7951 96.4837 78.7975 90.5283 70.8083 91.1711C62.819 91.8139 56.8636 98.8115 57.5064 106.801C58.1492 114.79 65.1468 120.745 73.1361 120.103Z" fill="#C7758D"/>
<path d="M63.0548 112.129C68.795 117.014 77.4088 116.321 82.2941 110.581C87.1795 104.84 86.4864 96.2266 80.7461 91.3413C75.0059 86.456 66.3921 87.149 61.5068 92.8893C56.6214 98.6295 57.3145 107.243 63.0548 112.129Z" fill="#FFDCB6"/>
<path d="M80.7461 91.3412C80.3184 90.9772 79.8731 90.6479 79.4163 90.3456C82.8518 94.2065 83.006 100.105 79.5612 104.153C75.794 108.58 69.1516 109.114 64.7251 105.347C60.6775 101.902 59.8864 96.0542 62.6606 91.6938C62.258 92.0652 61.871 92.4614 61.507 92.8891C56.6217 98.6294 57.3147 107.243 63.055 112.129C68.7953 117.014 77.409 116.321 82.2944 110.581C87.1797 104.84 86.4863 96.2264 80.7461 91.3412Z" fill="#EFA5B6"/>
<path d="M61.8411 113.554C59.3889 111.467 57.6703 108.721 56.8707 105.612C56.608 104.59 56.4488 103.537 56.3977 102.482C56.3477 101.449 57.1446 100.571 58.1774 100.521C59.2104 100.471 60.0884 101.268 60.1383 102.301C60.1771 103.103 60.2981 103.903 60.4976 104.679C61.1036 107.036 62.4076 109.119 64.2682 110.702C69.213 114.91 76.6597 114.311 80.8679 109.366C82.4141 107.55 83.3627 105.341 83.6113 102.98C83.7254 101.896 83.6893 100.801 83.5038 99.7265C83.3281 98.7073 84.0118 97.7386 85.031 97.5629C86.0501 97.3873 87.0187 98.0711 87.1945 99.0899C87.4385 100.505 87.4861 101.945 87.3358 103.372C87.0078 106.487 85.7576 109.4 83.72 111.794C78.1733 118.311 68.3585 119.101 61.8411 113.554Z" fill="#D58A9C"/>
<path d="M28.8937 58.8169C28.4586 58.4465 28.3677 57.799 28.7012 57.3202C29.0557 56.8112 29.7559 56.6859 30.265 57.0403C30.3236 57.0812 36.209 61.1474 42.434 62.8885C43.0316 63.0556 43.3804 63.6755 43.2135 64.2729C43.0464 64.8706 42.4263 65.2195 41.8289 65.0523C35.2287 63.2065 29.2327 59.0597 28.9807 58.884C28.9502 58.8628 28.9213 58.8404 28.8937 58.8169Z" fill="#D58A9C"/>
<path d="M32.5264 74.893C32.0539 74.4909 31.9968 73.7818 32.3989 73.3093C32.8008 72.8371 33.5091 72.7799 33.9817 73.1811C34.0337 73.2249 37.1762 75.8375 43.0418 77.8986C43.6273 78.1045 43.935 78.746 43.7294 79.331C43.5237 79.9164 42.8823 80.2241 42.2969 80.0184C35.9851 77.8003 32.6647 75.0107 32.5264 74.893Z" fill="#D58A9C"/>
<path d="M28.5859 86.0795C28.3568 85.8845 28.2194 85.759 28.1895 85.7314C27.7334 85.3107 27.7047 84.6 28.1253 84.1439C28.546 83.6878 29.2565 83.6615 29.7127 84.0796C29.773 84.1348 33.8577 87.8491 37.8396 88.4366C38.4535 88.527 38.8775 89.0984 38.7871 89.7121C38.6965 90.326 38.1254 90.7502 37.5117 90.6595C33.5727 90.0782 29.7979 87.111 28.5859 86.0795Z" fill="#D58A9C"/>
<path d="M55.8393 79.3353C51.429 75.5818 51.2024 70.4623 51.1938 70.2024C51.1736 69.5823 51.6599 69.0629 52.2799 69.0428C52.8991 69.0227 53.4174 69.5073 53.4394 70.1257C53.4502 70.3924 53.7683 76.4873 60.1255 79.4103C60.6889 79.6687 60.9362 80.3366 60.6771 80.9002C60.4178 81.4641 59.7507 81.711 59.187 81.4517C57.8644 80.8439 56.7606 80.1193 55.8393 79.3353Z" fill="#D58A9C"/>
<path d="M68.5915 76.8352C68.5777 76.8236 68.5642 76.8116 68.5508 76.799C64.725 73.2156 63.8385 69.2212 63.8028 69.0529C63.6735 68.446 64.0606 67.8491 64.6674 67.7199C65.2733 67.5907 65.869 67.9763 65.9998 68.5816C66.0133 68.6418 66.8128 72.0923 70.087 75.1592C70.5398 75.5833 70.5632 76.2943 70.1388 76.7471C69.7272 77.1867 69.0452 77.2214 68.5915 76.8352Z" fill="#D58A9C"/>
<path d="M49.2458 40.4747C48.3749 39.7334 48.0465 39.237 47.9754 39.1191L49.8982 37.9561L49.8845 37.9341C49.8997 37.9572 51.5097 40.2708 58.6178 42.9169C59.1995 43.1333 59.4953 43.7801 59.2787 44.3617C59.0623 44.9432 58.4152 45.2393 57.8339 45.0227C53.0957 43.2591 50.5564 41.5901 49.2458 40.4747Z" fill="#D58A9C"/>
<path d="M47.0604 25.1221C46.5879 24.72 46.5309 24.0109 46.933 23.5384C47.335 23.0661 48.0437 23.009 48.5161 23.4105C48.5512 23.4404 52.086 26.4172 57.9616 29.3293C58.5173 29.605 58.7447 30.279 58.4693 30.8348C58.1937 31.3909 57.5196 31.6182 56.9636 31.3427C50.8224 28.2985 47.2112 25.2505 47.0604 25.1221Z" fill="#D58A9C"/>
<path d="M45.3522 41.9757C44.7376 41.4527 44.5113 40.5696 44.8536 39.7936C45.7542 37.7528 46.6813 35.716 47.5778 33.7464C48.613 31.4722 49.5906 29.3242 50.3838 27.484C50.7932 26.5343 51.8949 26.0963 52.8445 26.5056C53.7942 26.915 54.2323 28.0168 53.8229 28.9663C53.0149 30.8412 52.0296 33.006 50.9864 35.2979C50.0942 37.258 49.1716 39.2847 48.2797 41.3057C47.8621 42.2518 46.7566 42.6803 45.8105 42.2627C45.6403 42.1877 45.4869 42.0903 45.3522 41.9757Z" fill="white"/>
<path d="M54.9393 24.2146C54.7714 24.0718 54.6262 23.8968 54.5135 23.6924C54.0145 22.7866 54.344 21.6477 55.2497 21.1485C55.409 21.0607 55.5937 20.9288 55.7892 20.7892C56.3803 20.3667 57.1902 19.7881 58.348 19.6806C59.3775 19.5849 60.29 20.3419 60.3859 21.3718C60.4815 22.4015 59.7244 23.3138 58.6947 23.4095C58.5442 23.4235 58.2634 23.624 57.9666 23.8363C57.7049 24.0232 57.4085 24.235 57.0574 24.4286C56.3561 24.8149 55.515 24.7046 54.9393 24.2146Z" fill="white"/>
<path d="M36.3935 58.0397C35.758 57.4989 35.5427 56.5779 35.9252 55.7934L39.0078 49.4731C39.4612 48.5436 40.5823 48.1575 41.5118 48.6108C42.4414 49.0629 42.8273 50.1852 42.374 51.1146L39.2914 57.4348C38.838 58.3644 37.7169 58.7505 36.7874 58.2971C36.6426 58.2266 36.5109 58.1396 36.3935 58.0397Z" fill="white"/>
<path d="M90.5572 26.2182L89.3467 29.4009C89.2948 29.5371 89.298 29.6828 89.3552 29.8037L90.6937 32.629C90.8828 33.0282 90.467 33.5168 90.0427 33.3939L87.0397 32.5245C86.911 32.4872 86.7669 32.5074 86.6407 32.5804L83.6925 34.2842C83.2759 34.5249 82.8418 34.1555 83.0128 33.7057L84.2233 30.5231C84.2752 30.3868 84.272 30.2412 84.2148 30.1203L82.8764 27.2949C82.6872 26.8957 83.103 26.4072 83.5274 26.53L86.5304 27.3995C86.659 27.4368 86.8031 27.4165 86.9293 27.3435L89.8775 25.6398C90.2941 25.399 90.7282 25.7685 90.5572 26.2182Z" fill="#FEF2A8"/>
<path d="M89.8648 78.801C90.8246 79.6178 92.2649 79.5019 93.0817 78.5421C93.8986 77.5823 93.7827 76.1421 92.8229 75.3252C91.8631 74.5084 90.4228 74.6243 89.606 75.5841C88.7891 76.5439 88.905 77.9841 89.8648 78.801Z" fill="#FFE266"/>
<path d="M82.6122 44.7963C81.9777 45.5418 80.859 45.6316 80.1136 44.9973C79.3681 44.3628 79.2781 43.2442 79.9126 42.4987C80.5471 41.7532 81.6656 41.6632 82.4111 42.2977C83.1565 42.9321 83.2465 44.0509 82.6122 44.7963Z" fill="#FFE266"/>
<path d="M105.354 52.8616L103.722 57.1523C103.652 57.3359 103.656 57.5322 103.733 57.6953L105.538 61.5043C105.793 62.0424 105.232 62.7011 104.66 62.5354L100.612 61.3634C100.438 61.3132 100.244 61.3406 100.074 61.4388L96.0991 63.7356C95.5377 64.06 94.9524 63.5619 95.1829 62.9558L96.8147 58.6651C96.8846 58.4813 96.8804 58.2851 96.8031 58.1221L94.9989 54.3131C94.744 53.775 95.3046 53.1162 95.8765 53.282L99.9249 54.454C100.098 54.5042 100.293 54.4768 100.463 54.3786L104.437 52.0818C104.999 51.7572 105.584 52.2553 105.354 52.8616Z" fill="#FEF2A8"/>
</svg>
