<svg width="84" height="100" viewBox="0 0 84 100" fill="none" xmlns="http://www.w3.org/2000/svg">
<path d="M55.702 97.1614H56.6936C57.1591 91.0057 56.4774 83.7993 54.4859 76.3476C52.4721 68.812 49.4241 62.1627 45.9015 57.0417C45.6937 56.7397 45.2208 56.8667 45.1914 57.2325C44.6946 63.4332 45.371 70.7197 47.3849 78.2553C49.3474 85.5983 52.2932 92.0956 55.702 97.1614Z" fill="#09A76D"/>
<path d="M55.7006 97.1608H56.6944C56.7901 95.8862 56.8363 94.5663 56.8328 93.2092C54.4497 88.876 52.4036 83.8069 50.9196 78.2545C49.3404 72.3457 48.5856 66.5913 48.5717 61.3923C47.7206 59.8445 46.827 58.3893 45.9001 57.0409C45.6925 56.7389 45.2196 56.8661 45.1904 57.2317C44.6936 63.4324 45.37 70.7189 47.3839 78.2545C49.3466 85.5973 52.292 92.095 55.7006 97.1608V97.1608Z" fill="#02905D"/>
<path d="M72.7845 97.1606C76.1933 92.0948 79.1391 85.5975 81.1014 78.2543C83.1153 70.7187 83.7917 63.4324 83.2949 57.2315C83.2655 56.8657 82.7926 56.7387 82.5848 57.0407C79.0622 62.1617 76.0143 68.811 74.0004 76.3466C72.0089 83.7985 71.3272 91.0047 71.7927 97.1604H72.7845V97.1606Z" fill="#09A76D"/>
<path d="M72.7882 97.1606C73.6911 95.8173 74.5611 94.373 75.3893 92.8399C75.4368 87.7376 76.1909 82.1167 77.7329 76.3468C79.1748 70.9512 81.1482 66.0124 83.4451 61.7614C83.4595 60.2002 83.41 58.6858 83.2946 57.2323C83.2656 56.8665 82.7924 56.7394 82.5847 57.0415C79.0622 62.1625 76.0144 68.8115 74.0007 76.3469C72.0094 83.7981 71.3262 91.0051 71.7914 97.1606H72.7882Z" fill="#02905D"/>
<path d="M11.2156 97.1614H12.2073C12.6728 91.0057 11.9911 83.7993 9.99961 76.3476C7.98572 68.812 4.93776 62.1627 1.41517 57.0417C1.20734 56.7397 0.734467 56.8667 0.705083 57.2325C0.208278 63.4332 0.884696 70.7197 2.89858 78.2553C4.86128 85.5983 7.80689 92.0956 11.2156 97.1614Z" fill="#09A76D"/>
<path d="M11.2153 97.1614H12.2081C12.3305 95.5413 12.3745 93.8493 12.3348 92.0981C10.2063 88.0178 8.37511 83.3396 7.01624 78.2551C5.54898 72.7647 4.79181 67.4068 4.68108 62.5043C3.65517 60.5375 2.56056 58.7082 1.41517 57.0421C1.20734 56.7399 0.734273 56.8669 0.705083 57.2327C0.208278 63.4334 0.884696 70.7197 2.89858 78.2551C4.86108 85.5979 7.8065 92.0956 11.2153 97.1614V97.1614Z" fill="#02905D"/>
<path d="M28.2987 97.1606C31.7074 92.0948 34.653 85.5975 36.6156 78.2543C38.6294 70.7187 39.3059 63.4324 38.8091 57.2315C38.7797 56.8657 38.3068 56.7387 38.099 57.0407C34.5764 62.1617 31.5284 68.811 29.5145 76.3466C27.523 83.7985 26.8414 91.0047 27.3068 97.1604H28.2987V97.1606Z" fill="#09A76D"/>
<path d="M28.3009 97.1606C29.0378 96.0631 29.7529 94.8986 30.4418 93.6739C30.5315 88.7018 31.2868 83.2539 32.7799 77.667C34.3174 71.9139 36.4597 66.6816 38.9539 62.2474C38.9852 60.5135 38.9369 58.8364 38.8091 57.2327C38.7799 56.8667 38.3068 56.7393 38.099 57.0415C34.5766 62.1623 31.5288 68.8116 29.5149 76.3468C27.5234 83.7981 26.8402 91.0051 27.3057 97.1606H28.3009Z" fill="#02905D"/>
<path d="M82.5405 96.9655H65.7025V64.7527C65.5781 64.8588 65.4507 64.9622 65.3185 65.0617C65.0064 65.2968 64.6343 65.4211 64.243 65.4211C63.8517 65.4211 63.4796 65.2968 63.1675 65.0617C63.0355 64.9624 62.9081 64.859 62.7835 64.7527V96.9655H21.2165V64.7527C21.0921 64.8588 20.9647 64.9622 20.8326 65.0617C20.5204 65.2968 20.1483 65.4211 19.757 65.4211C19.3657 65.4211 18.9936 65.2968 18.6815 65.0617C18.5495 64.9624 18.4219 64.859 18.2975 64.7527V96.9655H1.45948C0.653261 96.9655 0 97.6207 0 98.4288C0 99.2369 0.653261 99.892 1.45948 99.892H82.5405C83.3467 99.892 84 99.2369 84 98.4288C84 97.6207 83.3467 96.9655 82.5405 96.9655V96.9655Z" fill="#017B4E"/>
<path d="M63.1677 9.82482C63.4798 9.58972 63.8519 9.46544 64.2432 9.46544C64.6345 9.46544 65.0066 9.58972 65.3187 9.82482C65.9839 10.3256 66.5507 10.917 67.0135 11.5735C68.0195 10.2388 68.6168 8.57734 68.6168 6.77519C68.6168 4.16707 67.3669 1.85298 65.4357 0.39869C64.7301 -0.132571 63.7563 -0.132571 63.0507 0.39869C61.1193 1.85278 59.8696 4.16707 59.8696 6.77519C59.8696 8.57734 60.467 10.2388 61.4729 11.5735C61.9357 10.917 62.5025 10.3256 63.1677 9.82482Z" fill="#6F3F8A"/>
<path d="M61.2804 20.4296L61.3474 20.3247L61.2804 20.2197C60.4851 18.971 60.0648 17.5275 60.0648 16.0451C60.0648 14.8483 60.3327 13.7 60.8315 12.664C59.1506 11.4905 57.119 11.0427 55.1699 11.3207C54.2962 11.4452 53.6077 12.1357 53.4835 13.0115C53.1434 15.4089 53.8918 17.9313 55.7313 19.7756C57.0655 21.1134 58.7559 21.8724 60.4964 22.0601C60.6935 21.4912 60.9533 20.9433 61.2804 20.4296V20.4296Z" fill="#814BA2"/>
<path d="M75.0042 13.0115C74.8798 12.1357 74.1913 11.4452 73.3176 11.3208C71.3685 11.0429 69.3367 11.4905 67.6558 12.664C68.1546 13.7 68.4225 14.8484 68.4225 16.0451C68.4225 17.5273 68.0022 18.9709 67.2071 20.2197L67.1401 20.3247L67.2071 20.4297C67.5342 20.9434 67.794 21.4912 67.9911 22.0601C69.7316 21.8724 71.422 21.1133 72.7562 19.7757C74.5959 17.9314 75.3443 15.4089 75.0042 13.0115V13.0115Z" fill="#814BA2"/>
<path d="M65.4364 9.66871C64.7308 9.13745 63.757 9.13745 63.0514 9.66871C61.12 11.1228 59.8701 13.4371 59.8701 16.0452C59.8701 18.6533 61.12 20.9674 63.0514 22.4217C63.757 22.953 64.7308 22.953 65.4364 22.4217C67.3677 20.9676 68.6176 18.6533 68.6176 16.0452C68.6176 13.4371 67.3677 11.1228 65.4364 9.66871V9.66871Z" fill="#925CB4"/>
<path d="M61.2804 28.989L61.3474 28.884L61.2804 28.779C60.4851 27.5304 60.0648 26.0868 60.0648 24.6044C60.0648 23.4286 60.3333 22.2786 60.8399 21.2294C59.1574 20.0514 57.1223 19.6016 55.1699 19.8799C54.2962 20.0043 53.6077 20.6948 53.4835 21.5706C53.1434 23.968 53.8918 26.4905 55.7313 28.3348C57.0655 29.6724 58.7559 30.4315 60.4964 30.6192C60.6935 30.0507 60.9533 29.5028 61.2804 28.989V28.989Z" fill="#925CB4"/>
<path d="M75.0042 21.5707C74.8798 20.6949 74.1913 20.0045 73.3176 19.88C71.3652 19.6016 69.3301 20.0515 67.6476 21.2293C68.154 22.2786 68.4225 23.4285 68.4225 24.6044C68.4225 26.0866 68.0022 27.5301 67.2071 28.779L67.1401 28.8839L67.2071 28.9889C67.5342 29.5026 67.794 30.0504 67.9911 30.6194C69.7316 30.4317 71.422 29.6725 72.7562 28.3349C74.5959 26.4906 75.3443 23.9683 75.0042 21.5707V21.5707Z" fill="#925CB4"/>
<path d="M65.4364 18.228C64.7308 17.6968 63.757 17.6968 63.0514 18.228C61.12 19.6821 59.8701 21.9964 59.8701 24.6045C59.8701 27.2127 61.12 29.5268 63.0514 30.981C63.757 31.5123 64.7308 31.5123 65.4364 30.981C67.3677 29.5269 68.6176 27.2127 68.6176 24.6045C68.6176 21.9964 67.3677 19.6821 65.4364 18.228V18.228Z" fill="#6F3F8A"/>
<path d="M61.2804 37.5482L61.3474 37.4432L61.2804 37.3382C60.4851 36.0896 60.0648 34.646 60.0648 33.1636C60.0648 31.9878 60.3333 30.8378 60.8399 29.7886C59.1574 28.6106 57.1223 28.1608 55.1699 28.4391C54.2962 28.5635 53.6077 29.254 53.4835 30.1298C53.1434 32.5272 53.8918 35.0497 55.7313 36.894C57.0655 38.2316 58.7559 38.9907 60.4964 39.1784C60.6935 38.6097 60.9533 38.0619 61.2804 37.5482Z" fill="#814BA2"/>
<path d="M75.0042 30.13C74.8798 29.2542 74.1913 28.5637 73.3176 28.4392C71.3652 28.1608 69.3301 28.6107 67.6476 29.7886C68.154 30.8378 68.4225 31.9877 68.4225 33.1636C68.4225 34.6458 68.0022 36.0894 67.2071 37.3382L67.1401 37.4432L67.2071 37.5481C67.5342 38.0618 67.794 38.6097 67.9911 39.1786C69.7316 38.9909 71.422 38.2318 72.7562 36.8941C74.5959 35.0499 75.3443 32.5274 75.0042 30.13V30.13Z" fill="#814BA2"/>
<path d="M65.4364 26.7871C64.7308 26.2559 63.757 26.2559 63.0514 26.7871C61.12 28.2412 59.8701 30.5555 59.8701 33.1636C59.8701 35.7717 61.12 38.0858 63.0514 39.5401C63.757 40.0714 64.7308 40.0714 65.4364 39.5401C67.3677 38.086 68.6176 35.7717 68.6176 33.1636C68.6176 30.5555 67.3677 28.2412 65.4364 26.7871V26.7871Z" fill="#925CB4"/>
<path d="M61.2804 46.1075L61.3474 46.0025L61.2804 45.8976C60.4851 44.6489 60.0648 43.2053 60.0648 41.723C60.0648 40.5471 60.3333 39.3972 60.8399 38.3479C59.1574 37.1699 57.1223 36.7202 55.1699 36.9984C54.2962 37.1229 53.6077 37.8133 53.4835 38.6891C53.1434 41.0865 53.8918 43.609 55.7313 45.4533C57.0655 46.7911 58.7559 47.5501 60.4964 47.7377C60.6935 47.169 60.9533 46.6212 61.2804 46.1075Z" fill="#925CB4"/>
<path d="M75.0045 38.6891C74.8801 37.8133 74.1916 37.1228 73.3179 36.9983C71.3655 36.7199 69.3304 37.1698 67.6479 38.3477C68.1543 39.3969 68.423 40.5468 68.423 41.7227C68.423 43.2049 68.0027 44.6485 67.2076 45.8973L67.1406 46.0023L67.2076 46.1072C67.5347 46.6209 67.7945 47.1688 67.9916 47.7377C69.7321 47.55 71.4225 46.7909 72.7567 45.4533C74.5962 43.6092 75.3446 41.0867 75.0045 38.6891V38.6891Z" fill="#925CB4"/>
<path d="M65.4364 35.3464C64.7308 34.8152 63.757 34.8152 63.0514 35.3464C61.12 36.8005 59.8701 39.1148 59.8701 41.7229C59.8701 44.331 61.12 46.6451 63.0514 48.0994C63.757 48.6307 64.7308 48.6307 65.4364 48.0994C67.3677 46.6453 68.6176 44.331 68.6176 41.7229C68.6174 39.1148 67.3677 36.8005 65.4364 35.3464V35.3464Z" fill="#6F3F8A"/>
<path d="M61.2804 54.6666L61.3474 54.5616L61.2804 54.4567C60.4851 53.208 60.0648 51.7645 60.0648 50.2821C60.0648 49.1062 60.3333 47.9563 60.8399 46.907C59.1574 45.729 57.1223 45.2793 55.1699 45.5575C54.2962 45.682 53.6077 46.3724 53.4835 47.2483C53.1434 49.6457 53.8918 52.1681 55.7313 54.0124C57.0655 55.35 58.7559 56.1092 60.4964 56.2969C60.6935 55.7283 60.9533 55.1803 61.2804 54.6666Z" fill="#814BA2"/>
<path d="M75.0045 47.2484C74.8801 46.3726 74.1916 45.6821 73.3179 45.5577C71.3655 45.2793 69.3304 45.7292 67.6479 46.907C68.1543 47.9562 68.423 49.1062 68.423 50.282C68.423 51.7642 68.0027 53.2078 67.2076 54.4566L67.1406 54.5616L67.2076 54.6666C67.5347 55.1803 67.7945 55.7281 67.9916 56.297C69.7321 56.1093 71.4225 55.3502 72.7567 54.0126C74.5962 52.1683 75.3446 49.6458 75.0045 47.2484V47.2484Z" fill="#814BA2"/>
<path d="M65.4364 43.9055C64.7308 43.3743 63.757 43.3743 63.0514 43.9055C61.12 45.3596 59.8701 47.6739 59.8701 50.282C59.8701 52.8901 61.12 55.2042 63.0514 56.6585C63.757 57.1898 64.7308 57.1898 65.4364 56.6585C67.3677 55.2044 68.6176 52.8901 68.6176 50.282C68.6174 47.6739 67.3677 45.3598 65.4364 43.9055V43.9055Z" fill="#925CB4"/>
<path d="M60.0648 58.8414C60.0648 57.6655 60.3333 56.5156 60.8399 55.4663C59.1574 54.2883 57.1223 53.8386 55.1699 54.1168C54.2962 54.2413 53.6077 54.9317 53.4835 55.8075C53.1434 58.205 53.8918 60.7274 55.7313 62.5717C57.5706 64.4158 60.0866 65.1662 62.4778 64.8253C62.5838 64.8101 62.6872 64.7863 62.7872 64.7553C61.0512 63.2743 60.0648 61.1457 60.0648 58.8414V58.8414Z" fill="#925CB4"/>
<path d="M75.0045 55.8077C74.8802 54.9319 74.1917 54.2414 73.318 54.117C71.3656 53.8386 69.3305 54.2885 67.648 55.4663C68.1544 56.5155 68.4231 57.6655 68.4231 58.8413C68.4231 61.1457 67.4367 63.2744 65.7007 64.7553C65.8007 64.7865 65.9038 64.8103 66.0101 64.8253C68.4013 65.1663 70.9172 64.416 72.7568 62.5717C74.5963 60.7276 75.3447 58.2051 75.0045 55.8077Z" fill="#925CB4"/>
<path d="M65.4364 52.4648C64.7308 51.9336 63.757 51.9336 63.0514 52.4648C61.12 53.9189 59.8701 56.2332 59.8701 58.8413C59.8701 61.4494 61.12 63.7635 63.0514 65.2178C63.757 65.7491 64.7308 65.7491 65.4364 65.2178C67.3677 63.7637 68.6176 61.4494 68.6176 58.8413C68.6176 56.2332 67.3677 53.9189 65.4364 52.4648V52.4648Z" fill="#6F3F8A"/>
<path d="M20.9498 0.398446C20.2442 -0.132815 19.2705 -0.132815 18.5649 0.398446C16.6335 1.85254 15.3838 4.16683 15.3838 6.77495C15.3838 8.5771 15.981 10.2386 16.9871 11.5733C17.4498 10.9168 18.0167 10.3254 18.6818 9.82458C18.9939 9.58948 19.366 9.4652 19.7574 9.4652C20.1487 9.4652 20.5208 9.58948 20.8329 9.82458C21.498 10.3254 22.0649 10.9168 22.5276 11.5731C23.5337 10.2384 24.1309 8.5769 24.1309 6.77475C24.1311 4.16683 22.8812 1.85273 20.9498 0.398446V0.398446Z" fill="#6F3F8A"/>
<path d="M16.7931 20.4296L16.8601 20.3247L16.7931 20.2197C15.998 18.9708 15.5777 17.5273 15.5777 16.0451C15.5777 14.8483 15.8456 13.7 16.3444 12.664C14.6635 11.4905 12.6317 11.0427 10.6826 11.3207C9.80904 11.4452 9.12037 12.1357 8.99621 13.0115C8.65606 15.4089 9.40448 17.9313 11.244 19.7756C12.5783 21.1134 14.2688 21.8726 16.0091 22.0601C16.2062 21.4912 16.466 20.9433 16.7931 20.4296V20.4296Z" fill="#814BA2"/>
<path d="M30.5177 13.0115C30.3933 12.1357 29.7048 11.4452 28.8313 11.3208C26.8822 11.0429 24.8504 11.4905 23.1697 12.664C23.6684 13.7 23.9364 14.8484 23.9364 16.0451C23.9364 17.5275 23.5161 18.9711 22.7207 20.2197L22.6538 20.3247L22.7207 20.4297C23.0479 20.9434 23.3078 21.4912 23.505 22.0601C25.2454 21.8724 26.9359 21.1133 28.2701 19.7757C30.1094 17.9314 30.8578 15.4089 30.5177 13.0115V13.0115Z" fill="#814BA2"/>
<path d="M20.9489 9.66871C20.2433 9.13745 19.2695 9.13745 18.5639 9.66871C16.6325 11.1228 15.3828 13.4371 15.3828 16.0452C15.3828 18.6533 16.6327 20.9674 18.5639 22.4217C19.2695 22.953 20.2433 22.953 20.9489 22.4217C22.8802 20.9676 24.1299 18.6533 24.1299 16.0452C24.1299 13.4371 22.8802 11.1228 20.9489 9.66871V9.66871Z" fill="#925CB4"/>
<path d="M16.7929 28.9888L16.8599 28.8838L16.7929 28.7789C15.9978 27.53 15.5775 26.0865 15.5775 24.6043C15.5775 23.4284 15.846 22.2787 16.3526 21.2292C14.6701 20.0512 12.635 19.6015 10.6826 19.8799C9.80904 20.0044 9.12037 20.6948 8.99621 21.5706C8.65606 23.968 9.40448 26.4905 11.244 28.3348C12.5783 29.6726 14.2688 30.4316 16.0091 30.6193C16.206 30.0505 16.4658 29.5027 16.7929 28.9888V28.9888Z" fill="#925CB4"/>
<path d="M30.5167 21.5707C30.3923 20.6949 29.7038 20.0044 28.8303 19.8799C26.8779 19.6015 24.8428 20.0514 23.1603 21.2294C23.6669 22.2787 23.9354 23.4284 23.9354 24.6045C23.9354 26.0869 23.5151 27.5304 22.7198 28.7791L22.6528 28.8841L22.7198 28.989C23.0469 29.5027 23.3069 30.0506 23.504 30.6195C25.2445 30.4318 26.9349 29.6727 28.2691 28.335C30.1084 26.4906 30.8568 23.9683 30.5167 21.5707V21.5707Z" fill="#925CB4"/>
<path d="M20.9489 18.228C20.2433 17.6967 19.2695 17.6967 18.5639 18.228C16.6325 19.6821 15.3828 21.9964 15.3828 24.6045C15.3828 27.2126 16.6327 29.5267 18.5639 30.981C19.2695 31.5122 20.2433 31.5122 20.9489 30.981C22.8802 29.5269 24.1299 27.2126 24.1299 24.6045C24.1299 21.9964 22.8802 19.6821 20.9489 18.228Z" fill="#6F3F8A"/>
<path d="M16.7929 37.5481L16.8599 37.4431L16.7929 37.3382C15.9978 36.0893 15.5775 34.6458 15.5775 33.1636C15.5775 31.9877 15.846 30.838 16.3526 29.7885C14.6701 28.6105 12.635 28.1608 10.6826 28.4392C9.80904 28.5637 9.12037 29.2541 8.99621 30.1299C8.65606 32.5273 9.40448 35.0498 11.244 36.8941C12.5783 38.2319 14.2688 38.9909 16.0091 39.1785C16.206 38.6098 16.4658 38.0618 16.7929 37.5481V37.5481Z" fill="#6F3F8A"/>
<path d="M30.5167 30.1299C30.3923 29.2541 29.7038 28.5636 28.8303 28.4392C26.8779 28.1608 24.8428 28.6107 23.1603 29.7887C23.6669 30.8379 23.9354 31.9877 23.9354 33.1637C23.9354 34.6461 23.5151 36.0897 22.7198 37.3383L22.6528 37.4433L22.7198 37.5483C23.0469 38.062 23.3069 38.6098 23.504 39.1787C25.2445 38.991 26.9349 38.2319 28.2691 36.8943C30.1084 35.0498 30.8568 32.5273 30.5167 30.1299V30.1299Z" fill="#6F3F8A"/>
<path d="M20.9489 26.787C20.2433 26.2558 19.2695 26.2558 18.5639 26.787C16.6325 28.2411 15.3828 30.5554 15.3828 33.1635C15.3828 35.7716 16.6327 38.0857 18.5639 39.54C19.2695 40.0713 20.2433 40.0713 20.9489 39.54C22.8802 38.0859 24.1299 35.7716 24.1299 33.1635C24.1299 30.5554 22.8802 28.2411 20.9489 26.787Z" fill="#925CB4"/>
<path d="M16.7929 46.1074L16.8599 46.0024L16.7929 45.8975C15.9978 44.6486 15.5775 43.2051 15.5775 41.7229C15.5775 40.547 15.846 39.3971 16.3526 38.3478C14.6701 37.1698 12.635 36.7201 10.6826 36.9985C9.80904 37.123 9.12037 37.8134 8.99621 38.6893C8.65606 41.0867 9.40448 43.6091 11.244 45.4534C12.5783 46.7912 14.2688 47.5504 16.0091 47.7379C16.206 47.169 16.4658 46.6211 16.7929 46.1074V46.1074Z" fill="#925CB4"/>
<path d="M30.5167 38.6891C30.3923 37.8133 29.7038 37.1228 28.8303 36.9983C26.8779 36.7199 24.8428 37.1698 23.1603 38.3479C23.6669 39.3971 23.9354 40.5468 23.9354 41.7229C23.9354 43.2053 23.5151 44.6489 22.7198 45.8975L22.6528 46.0025L22.7198 46.1074C23.0469 46.6211 23.3069 47.169 23.504 47.7377C25.2445 47.55 26.9349 46.7909 28.2691 45.4533C30.1084 43.6092 30.8568 41.0867 30.5167 38.6891V38.6891Z" fill="#925CB4"/>
<path d="M20.9489 35.3464C20.2433 34.8152 19.2695 34.8152 18.5639 35.3464C16.6325 36.8005 15.3828 39.1148 15.3828 41.7229C15.3828 44.331 16.6327 46.6451 18.5639 48.0994C19.2695 48.6307 20.2433 48.6307 20.9489 48.0994C22.8802 46.6453 24.1299 44.331 24.1299 41.7229C24.1301 39.1148 22.8802 36.8005 20.9489 35.3464Z" fill="#6F3F8A"/>
<path d="M16.7929 54.6665L16.8599 54.5615L16.7929 54.4566C15.9978 53.2077 15.5775 51.7642 15.5775 50.282C15.5775 49.1061 15.846 47.9562 16.3526 46.9069C14.6701 45.7289 12.635 45.2792 10.6826 45.5576C9.80904 45.6821 9.12037 46.3725 8.99621 47.2483C8.65606 49.6457 9.40448 52.1682 11.244 54.0125C12.5783 55.3503 14.2688 56.1093 16.0091 56.297C16.206 55.7282 16.4658 55.1802 16.7929 54.6665V54.6665Z" fill="#6F3F8A"/>
<path d="M30.5167 47.2484C30.3923 46.3726 29.7038 45.6821 28.8303 45.5576C26.8779 45.2792 24.8428 45.7291 23.1603 46.9072C23.6669 47.9564 23.9354 49.1061 23.9354 50.2822C23.9354 51.7646 23.5151 53.2081 22.7198 54.4568L22.6528 54.5618L22.7198 54.6667C23.0469 55.1804 23.3069 55.7283 23.504 56.297C25.2445 56.1093 26.9349 55.3502 28.2691 54.0125C30.1084 52.1683 30.8568 49.6458 30.5167 47.2484Z" fill="#6F3F8A"/>
<path d="M20.9489 43.9055C20.2433 43.3742 19.2695 43.3742 18.5639 43.9055C16.6325 45.3596 15.3828 47.6739 15.3828 50.282C15.3828 52.8901 16.6327 55.2042 18.5639 56.6585C19.2695 57.1898 20.2433 57.1898 20.9489 56.6585C22.8802 55.2044 24.1299 52.8901 24.1299 50.282C24.1301 47.6739 22.8802 45.3598 20.9489 43.9055Z" fill="#925CB4"/>
<path d="M15.5775 58.8413C15.5775 57.6654 15.846 56.5155 16.3526 55.4662C14.6701 54.2882 12.635 53.8385 10.6826 54.1169C9.80904 54.2414 9.12037 54.9318 8.99621 55.8076C8.65606 58.205 9.40448 60.7275 11.244 62.5718C13.0835 64.4159 15.5993 65.1663 17.9907 64.8254C18.0969 64.8102 18.2001 64.7864 18.3001 64.7554C16.5639 63.2742 15.5775 61.1456 15.5775 58.8413V58.8413Z" fill="#925CB4"/>
<path d="M30.517 55.8077C30.3927 54.9318 29.7042 54.2414 28.8307 54.1169C26.8783 53.8385 24.8432 54.2884 23.1607 55.4664C23.6672 56.5157 23.9358 57.6654 23.9358 58.8415C23.9358 61.1458 22.9494 63.2746 21.2134 64.7554C21.3134 64.7866 21.4167 64.8104 21.5228 64.8254C23.914 65.1665 26.4299 64.4161 28.2695 62.5718C30.1088 60.7275 30.8572 58.2051 30.517 55.8077V55.8077Z" fill="#925CB4"/>
<path d="M20.9489 52.4648C20.2433 51.9335 19.2695 51.9335 18.5639 52.4648C16.6325 53.9189 15.3828 56.2332 15.3828 58.8413C15.3828 61.4494 16.6327 63.7635 18.5639 65.2178C19.2695 65.7491 20.2433 65.7491 20.9489 65.2178C22.8802 63.7637 24.1299 61.4494 24.1299 58.8413C24.1299 56.2332 22.8802 53.9189 20.9489 52.4648Z" fill="#6F3F8A"/>
</svg>
