<svg width="125" height="125" viewBox="0 0 125 125" fill="none" xmlns="http://www.w3.org/2000/svg">
<path d="M99.9091 84.7767C98.6279 84.7767 97.5338 83.8031 97.4113 82.5045C97.2811 81.1262 98.2955 79.9033 99.6767 79.7737C99.7883 79.7632 110.903 78.7127 115.296 77.7442C116.65 77.4463 117.991 78.2993 118.29 79.6514C118.589 81.0034 117.734 82.3414 116.379 82.6403C111.684 83.6756 100.616 84.7217 100.147 84.7659C100.067 84.773 99.9878 84.7767 99.9091 84.7767Z" fill="#367A17"/>
<path d="M123.162 63.4179C120.684 60.2358 115.697 59.1008 115.697 59.1008C115.697 59.1008 119.819 55.0938 120.324 52.8819C120.829 50.6697 112.397 30.3319 107.213 27.7448C104.296 26.2888 100.45 28.3002 96.749 31.4301C95.6141 30.1935 94.2542 29.1215 92.6792 28.2878L88.2542 25.945C89.0611 22.4301 89 19.3606 87.3238 17.5351C81.0727 10.7285 60.3307 11.5794 50.3859 12.4302C45.4845 12.8496 44.3111 20.1582 44.3806 27.4631L44.2544 27.4728C39.3057 27.8527 35.2721 31.5866 34.5202 36.4835L21.2788 101.445L12.6781 110.817C10.5724 113.111 10.6438 116.652 12.8402 118.86L17.1772 123.22C19.5546 125.593 23.4092 125.593 25.7865 123.22L38.242 110.788L102.558 92.2901C107.162 90.6788 110.225 86.3851 110.316 81.5902C115.555 81.0468 121.116 80.0895 122.647 78.4271C125.748 75.0605 125.641 66.6003 123.162 63.4179Z" fill="#94D56C"/>
<path d="M123.162 63.418C121.432 61.1975 118.484 59.9749 116.858 59.438L108.514 62.2737C107.406 59.2823 105.112 56.9292 102.273 55.6873L103.127 67.533C103.441 71.8875 100.795 75.9121 96.6674 77.3567L49.1985 94.3186C46.1442 95.4099 43.2049 96.7988 40.4231 98.4651L32.5124 103.204C30.5258 105.187 27.3047 105.187 25.3181 103.204L21.6939 99.5601C21.6849 99.5508 21.6773 99.5408 21.668 99.5315L21.2781 101.445L12.6774 110.817C10.5717 113.112 10.6434 116.652 12.8398 118.86L17.1767 123.22C19.5542 125.593 23.4086 125.593 25.786 123.22L38.2416 110.788L57.9709 105.114C81.1639 104.753 113.253 103.897 114.991 101.915C116.723 99.9392 118.131 88.7476 118.188 80.354C120.275 79.8506 121.918 79.219 122.647 78.4275C125.748 75.0606 125.641 66.6004 123.162 63.418Z" fill="#579B38"/>
<path d="M62.9511 106.188C61.8602 106.188 60.8559 105.473 60.5386 104.375C60.1548 103.044 60.9236 101.655 62.2569 101.272L101.79 89.9018C105.614 88.5319 108.075 84.7639 107.783 80.7143L106.696 65.6446C106.506 63.0039 105.174 60.5853 103.043 59.0091C100.912 57.4327 98.2063 56.8651 95.6195 57.452C94.6316 57.6763 93.6033 57.285 93.0155 56.4595C92.4278 55.6341 92.3955 54.5372 92.9329 53.6785L96.2916 48.3145C98.1694 45.3158 98.6977 41.7833 97.779 38.368C96.8603 34.9528 94.6311 32.1593 91.5015 30.5024L83.6832 26.363C77.8614 23.2807 70.7649 25.1169 67.1765 30.6344L63.6491 36.0582C63.1132 36.8827 62.1437 37.3182 61.1702 37.1727C60.1964 37.0272 59.3978 36.327 59.1271 35.3822C58.066 31.6757 54.502 29.2011 50.6504 29.4958L44.4464 29.9723C43.0584 30.0773 41.8554 29.0453 41.7493 27.665C41.6429 26.2846 42.678 25.0793 44.061 24.9731L50.2654 24.4965C54.8298 24.1462 59.1466 26.207 61.798 29.6952L62.9626 27.9045C65.3711 24.2011 69.0554 21.5515 73.3371 20.4433C77.6197 19.3354 82.1293 19.8647 86.0365 21.9335L93.8547 26.0729C98.1665 28.3556 101.365 32.3632 102.63 37.068C103.896 41.7731 103.138 46.8409 100.551 50.972L99.682 52.3602C101.956 52.6932 104.141 53.5809 106.033 54.9805C109.343 57.4283 111.41 61.1839 111.706 65.2845L112.793 80.3542C113.249 86.6772 109.382 92.5583 103.389 94.6559C103.344 94.6716 103.299 94.686 103.253 94.6992L63.6472 106.09C63.4153 106.156 63.1815 106.188 62.9511 106.188Z" fill="#367A17"/>
<path d="M49.9021 99.4028C49.3026 99.4028 48.7359 99.0434 48.5011 98.4533C48.1936 97.6814 48.572 96.8066 49.3454 96.5002C51.6632 95.5815 59.2315 92.1686 65.9089 89.1574C70.9537 86.8825 75.7189 84.7338 77.6884 83.8993C78.4557 83.5744 79.3392 83.9315 79.6648 84.6962C79.9898 85.4608 79.6325 86.3441 78.8664 86.6686C76.9287 87.4897 72.1787 89.6315 67.15 91.8991C60.115 95.0715 52.8404 98.3518 50.4583 99.2961C50.2754 99.3686 50.087 99.4028 49.9021 99.4028Z" fill="#367A17"/>
<path d="M86.5094 82.7103C85.9808 82.7103 85.4682 82.4325 85.1923 81.9393C84.7862 81.214 85.0465 80.2977 85.7732 79.8924C87.1326 79.1346 88.5271 78.546 89.8753 77.9769C90.7757 77.5968 91.7071 77.204 92.6336 76.7589C93.3838 76.3991 94.2841 76.7135 94.6449 77.4623C95.0059 78.2111 94.6906 79.11 93.9405 79.4701C92.9481 79.9466 91.9827 80.3541 91.0494 80.7481C89.717 81.3104 88.4584 81.8416 87.243 82.5191C87.0103 82.6485 86.7579 82.7103 86.5094 82.7103Z" fill="#367A17"/>
<path d="M66.1648 77.507C65.7001 77.507 65.2412 77.2932 64.9463 76.8893C64.4556 76.2182 64.6028 75.2772 65.2752 74.7875L85.3878 60.136C86.0607 59.646 87.0031 59.7932 87.4935 60.4644C87.9842 61.1355 87.837 62.0765 87.1646 62.5662L67.052 77.2177C66.7839 77.413 66.473 77.507 66.1648 77.507Z" fill="#367A17"/>
<path d="M56.1386 85.3545C55.6868 85.3545 55.2399 85.1526 54.943 84.7673C54.4354 84.1088 54.559 83.1642 55.2186 82.6579L59.8139 79.1296C60.4733 78.6233 61.4196 78.7461 61.9272 79.4048C62.4347 80.0633 62.3112 81.0079 61.6515 81.5142L57.0563 85.0425C56.7826 85.2527 56.4592 85.3545 56.1386 85.3545Z" fill="#367A17"/>
<path d="M36.6759 75.6718C36.5267 75.6718 36.3755 75.6584 36.2236 75.6311C34.8588 75.3833 33.9535 74.0781 34.2018 72.7158C35.6373 64.8377 38.514 55.1552 41.7097 47.4468C42.24 46.1672 43.71 45.5593 44.9909 46.0889C46.2728 46.6184 46.8819 48.0847 46.3516 49.364C43.2824 56.7672 40.5207 66.0591 39.1446 73.6128C38.9237 74.8235 37.8663 75.6718 36.6759 75.6718Z" fill="white"/>
<path d="M48.7514 42.9863C47.9398 42.9863 47.1434 42.5945 46.6594 41.8696C45.8899 40.7175 46.2017 39.1611 47.356 38.393C47.9616 37.9899 49.5698 36.9195 51.0782 36.058C52.2826 35.3702 53.8172 35.7867 54.5058 36.9884C55.195 38.1901 54.7775 39.7219 53.5736 40.4096C52.2139 41.1865 50.7089 42.188 50.1424 42.5649C49.7144 42.8498 49.2301 42.9863 48.7514 42.9863Z" fill="white"/>
<path d="M7.31512 22.0585L8.84556 26.354C8.91111 26.5378 9.04074 26.6835 9.20462 26.7573L13.0281 28.4768C13.5682 28.7197 13.5682 29.5788 13.0281 29.8217L9.20462 31.5412C9.04099 31.6147 8.91111 31.7605 8.84556 31.9446L7.31512 36.24C7.0989 36.8469 6.33429 36.8469 6.11807 36.24L4.58764 31.9446C4.52208 31.7607 4.39245 31.615 4.22857 31.5412L0.40505 29.8217C-0.135017 29.5788 -0.135017 28.7197 0.40505 28.4768L4.22857 26.7573C4.3922 26.6835 4.52208 26.5378 4.58764 26.354L6.11807 22.0585C6.33429 21.4516 7.0989 21.4516 7.31512 22.0585Z" fill="#FEF2A8"/>
<path d="M34.1869 7.1184C36.1562 7.1184 37.7526 5.52489 37.7526 3.5592C37.7526 1.59351 36.1562 0 34.1869 0C32.2176 0 30.6212 1.59351 30.6212 3.5592C30.6212 5.52489 32.2176 7.1184 34.1869 7.1184Z" fill="#94D56C"/>
<path d="M17.4133 50.9354C18.4865 50.9354 19.3566 50.0669 19.3566 48.9956C19.3566 47.9244 18.4865 47.0559 17.4133 47.0559C16.34 47.0559 15.47 47.9244 15.47 48.9956C15.47 50.0669 16.34 50.9354 17.4133 50.9354Z" fill="#94D56C"/>
</svg>
