<svg width="115" height="113" viewBox="0 0 115 113" fill="none" xmlns="http://www.w3.org/2000/svg">
<g opacity="0.35">
<path d="M66.1617 83.8327C81.1505 77.2704 87.9815 59.7996 81.4191 44.8108C74.8567 29.8219 57.386 22.9909 42.3972 29.5533C27.4083 36.1157 20.5773 53.5864 27.1397 68.5753C33.7021 83.5641 51.1728 90.3951 66.1617 83.8327Z" fill="#FFA585"/>
<path d="M81.8846 67.4872C87.8439 52.2458 80.3193 35.0594 65.078 29.1001C62.4409 28.069 59.7455 27.4422 57.0601 27.1885C57.9635 29.1562 62.5917 36.0666 58.6043 35.6271C54.3228 35.1553 41.4454 37.3285 34.1616 52.6121C26.1405 69.4427 41.6087 83.2862 40.0427 82.6783C40.1147 82.7191 40.1876 82.7586 40.2601 82.7989C41.2962 83.3541 42.3752 83.8552 43.4972 84.2939C58.7387 90.2531 75.9253 82.7285 81.8846 67.4872Z" fill="#EF7C85"/>
<path d="M65.0441 29.3969C66.125 26.3693 67.1844 21.8355 67.5379 19.3857C67.7302 17.8971 67.3936 16.3957 65.9883 15.8462C64.5829 15.2967 63.1915 16.1749 62.772 17.665C62.3238 19.2579 61.3053 24.3611 60.3228 27.7876L65.0441 29.3969Z" fill="#C49A8B"/>
<path d="M52.1991 35.3085C51.6676 35.1006 51.2756 34.6012 51.2342 33.9939C51.1771 33.1553 51.8105 32.4293 52.649 32.3723C52.9781 32.3498 53.3122 32.3341 53.6425 32.3255C54.4817 32.3031 55.1815 32.9666 55.2035 33.8068C55.2255 34.647 54.5624 35.3459 53.722 35.3678C53.4341 35.3754 53.1425 35.3891 52.8556 35.4086C52.6245 35.4244 52.4015 35.3876 52.1991 35.3085Z" fill="white"/>
<path d="M36.7037 42.8825C36.5351 42.8166 36.3755 42.7192 36.2336 42.59C35.6123 42.0241 35.5672 41.0617 36.1332 40.4402C38.34 38.017 41.0836 35.9998 44.0678 34.6066C44.97 34.1853 45.9051 33.8153 46.8474 33.5071C47.646 33.2456 48.5055 33.6815 48.7669 34.4803C49.0282 35.279 48.5925 36.1384 47.7936 36.3997C46.9675 36.6701 46.1471 36.9946 45.3554 37.3644C42.7325 38.589 40.3216 40.3613 38.3835 42.4896C37.9465 42.969 37.2737 43.1053 36.7037 42.8825Z" fill="white"/>
<path d="M96.9093 38.0941C97.9962 40.1827 96.9081 42.9656 94.6928 43.7631C90.5396 45.2581 83.7993 46.8496 77.7725 44.4931C68.2223 40.759 64.08 28.5256 64.08 28.5256C64.08 28.5256 75.4215 22.3464 84.9718 26.0805C90.9987 28.437 94.8719 34.1785 96.9093 38.0941Z" fill="#78EAC4"/>
<path d="M96.9094 38.0941C96.0321 36.408 94.8132 34.3837 93.2297 32.4365C93.2474 32.6004 93.3741 32.8756 93.6396 33.2799C94.599 34.7415 92.5943 38.0885 90.898 38.5116C87.7178 39.305 82.5137 40.0305 77.6665 38.1353C69.9858 35.1322 64.9396 28.3187 64.9396 28.3187C64.9396 28.3187 66.6331 27.3769 69.156 26.4322C66.1014 27.424 64.0798 28.5254 64.0798 28.5254C64.0798 28.5254 68.222 40.7588 77.7723 44.4929C83.7993 46.8494 90.5396 45.2578 94.6927 43.7629C96.9081 42.9656 97.9962 40.1825 96.9094 38.0941Z" fill="#71AFC4"/>
<path d="M64.5373 29.6493C64.2304 29.5293 63.9993 29.2472 63.9612 28.8972C63.9068 28.3963 64.2681 27.946 64.7688 27.8911C64.8869 27.8782 67.7048 27.5818 71.8268 28.2371C75.621 28.8405 81.2871 30.4039 86.7318 34.4266C87.1373 34.7264 87.2232 35.298 86.9236 35.7037C86.6237 36.1091 86.0518 36.1947 85.6465 35.8954C75.8204 28.6356 65.0742 29.6949 64.9668 29.7065C64.8161 29.7227 64.6696 29.701 64.5373 29.6493Z" fill="#518699"/>
<path d="M73.8887 88.3826C86.421 82.8958 92.1324 68.2884 86.6456 55.7561C81.1587 43.2239 66.5513 37.5124 54.0191 42.9993C41.4868 48.4861 35.7754 63.0935 41.2622 75.6258C46.7491 88.158 61.3564 93.8695 73.8887 88.3826Z" fill="#FFC7B6"/>
<path d="M69.8116 46.3327C65.6059 45.0576 61.2573 45.2256 57.3418 46.5846C56.5246 46.8683 56.1265 47.7929 56.4734 48.5853L62.5241 62.4053C63.0555 63.6192 64.7894 63.5846 65.272 62.3504L70.7659 48.2994C71.0817 47.4913 70.6419 46.5845 69.8116 46.3327Z" fill="#FFDCB6"/>
<path d="M83.3262 71.5422C84.6013 67.3365 84.4333 62.9879 83.0742 59.0724C82.7906 58.2552 81.866 57.8571 81.0736 58.204L67.2536 64.2546C66.0397 64.7861 66.0743 66.52 67.3085 67.0026L81.3594 72.4964C82.1677 72.8123 83.0746 72.3725 83.3262 71.5422Z" fill="#FFDCB6"/>
<path d="M81.7927 56.1449C79.8375 52.4905 76.7561 49.4173 72.8009 47.5015C72.0201 47.1234 71.0819 47.4913 70.7659 48.2994L65.272 62.3503C64.7895 63.5845 66.04 64.786 67.2539 64.2545L81.074 58.2039C81.8661 57.8571 82.2008 56.9076 81.7927 56.1449Z" fill="#FFDCB6"/>
<path d="M54.4143 47.8664C50.7598 49.8216 47.6867 52.903 45.7709 56.8582C45.3928 57.639 45.7607 58.5772 46.5688 58.8932L60.6197 64.3871C61.8539 64.8696 63.0554 63.6191 62.5239 62.4052L56.4733 48.5851C56.1265 47.793 55.177 47.4583 54.4143 47.8664Z" fill="#FFDCB6"/>
<path d="M65.4044 68.9842L71.4551 82.8043C71.802 83.5966 72.7514 83.9313 73.5141 83.5232C77.1686 81.5679 80.2417 78.4866 82.1575 74.5314C82.5357 73.7505 82.1678 72.8123 81.3597 72.4964L67.3086 67.0025C66.0745 66.5198 64.873 67.7703 65.4044 68.9842Z" fill="#FFDCB6"/>
<path d="M44.6021 59.8475C43.3271 64.0532 43.4951 68.4018 44.8541 72.3173C45.1377 73.1345 46.0623 73.5326 46.8547 73.1857L60.6747 67.1351C61.8887 66.6036 61.854 64.8697 60.6198 64.3871L46.5688 58.8932C45.7608 58.5773 44.8539 59.0172 44.6021 59.8475Z" fill="#FFDCB6"/>
<path d="M58.117 85.0567C62.3226 86.3318 66.6713 86.1638 70.5868 84.8047C71.404 84.5211 71.8021 83.5965 71.4552 82.8041L65.4045 68.9841C64.873 67.7701 63.1392 67.8048 62.6566 69.039L57.1627 83.0899C56.8467 83.8981 57.2866 84.805 58.117 85.0567Z" fill="#FFDCB6"/>
<path d="M46.1358 75.2445C48.0911 78.899 51.1725 81.9721 55.1276 83.8879C55.9085 84.2661 56.8467 83.8981 57.1627 83.09L62.6565 69.0391C63.1391 67.8049 61.8886 66.6034 60.6746 67.1349L46.8546 73.1855C46.0624 73.5325 45.7277 74.4819 46.1358 75.2445Z" fill="#FFDCB6"/>
<path d="M72.9648 42.6132C60.0637 37.5689 45.5162 43.9381 40.4719 56.8392C35.4276 69.7402 41.7968 84.2878 54.6978 89.332C67.5989 94.3763 82.1466 88.0072 87.1909 75.1061C92.2351 62.2052 85.866 47.6575 72.9648 42.6132ZM54.5982 80.1502C44.3095 76.1273 39.2301 64.5256 43.253 54.2367C47.2758 43.948 58.8776 38.8686 69.1663 42.8914C79.455 46.9143 84.5346 58.5161 80.5117 68.8048C76.4887 79.0936 64.8869 84.173 54.5982 80.1502Z" fill="#EF95B6"/>
<path d="M54.9361 79.9397C51.8239 78.7228 49.195 76.8037 47.1571 74.4359C47.0969 74.5016 47.064 74.5713 47.0477 74.6183C47.0205 74.6966 46.9885 74.8531 47.0786 75.0214C49.0088 78.629 51.9708 81.4764 55.6446 83.2558C55.822 83.3417 55.9789 83.3023 56.0572 83.2716C56.1358 83.2408 56.2782 83.1619 56.3496 82.9793L57.2469 80.6843C56.4719 80.4854 55.7003 80.2385 54.9361 79.9397Z" fill="#EFA5B6"/>
<path d="M79.4003 70.8718L81.8083 71.8133C81.9999 71.8882 82.1614 71.8363 82.2407 71.7988C82.3197 71.7612 82.4612 71.6692 82.5197 71.4757C83.7363 67.4436 83.6248 63.1956 82.1975 59.1908C82.1308 59.004 81.9871 58.9177 81.9076 58.883C81.9015 58.8803 81.8949 58.8776 81.8881 58.8749C81.8402 58.8562 81.7708 58.8377 81.6894 58.8369C82.0822 62.0479 81.7108 65.389 80.4555 68.5997C80.1471 69.3883 79.7936 70.1458 79.4003 70.8718Z" fill="#EFA5B6"/>
<path d="M69.416 79.7808C66.1229 80.9964 62.4999 81.3916 58.8803 80.8256L57.8214 83.5338C57.7473 83.7234 57.8023 83.8845 57.8419 83.9637C57.8813 84.0428 57.9766 84.1849 58.1752 84.2451C62.3096 85.5058 66.6475 85.4488 70.7202 84.0808C70.9102 84.017 70.9967 83.8753 71.031 83.7965C71.0664 83.7159 71.113 83.5524 71.0282 83.3637L69.416 79.7808Z" fill="#EFA5B6"/>
<path d="M81.717 73.2389L78.8857 72.1319C76.7984 75.1989 73.9662 77.5983 70.73 79.1818L72.3743 82.8708C72.4611 83.0654 72.6196 83.1447 72.7068 83.175C72.7916 83.2045 72.9613 83.2396 73.1434 83.1438C77.041 81.091 80.1105 77.9279 82.0199 73.9963C82.1115 73.8077 82.0685 73.638 82.0351 73.5539C82.0013 73.4696 81.915 73.3164 81.717 73.2389Z" fill="#EFA5B6"/>
<path d="M63.0097 64.0445C62.4291 63.8176 61.9488 63.3679 61.6876 62.7714L55.6371 48.9514C55.3689 48.3391 55.3686 47.6366 55.6365 47.0239C55.9028 46.4142 56.4154 45.9397 57.0424 45.722C61.2831 44.2503 65.7901 44.1593 70.0765 45.4588L69.8117 46.3325L70.0765 45.4588C70.7145 45.6517 71.2484 46.1077 71.5399 46.7082C71.8314 47.3089 71.8593 48.0099 71.6162 48.6317L66.1223 62.6825C65.7675 63.5899 64.9088 64.1889 63.9347 64.2085C63.6114 64.2151 63.298 64.1572 63.0097 64.0445ZM69.5467 47.2064C65.6317 46.0194 61.515 46.1028 57.6412 47.4472C57.4392 47.5172 57.3469 47.6702 57.3097 47.755C57.2718 47.8416 57.2216 48.0172 57.3098 48.2188L63.3603 62.0388C63.4993 62.3562 63.7828 62.385 63.8981 62.3828C64.0135 62.3805 64.2954 62.3403 64.4215 62.0177L69.9154 47.9668C69.9951 47.7629 69.9381 47.5903 69.897 47.5058C69.856 47.4213 69.7532 47.2692 69.5467 47.2064Z" fill="#D58A9C"/>
<path d="M81.0271 73.3467L66.9762 67.8529C66.0688 67.4981 65.4698 66.6394 65.4504 65.6651C65.4309 64.6909 65.9949 63.809 66.8876 63.418L80.7077 57.3674C81.3198 57.0995 82.0197 57.0976 82.6351 57.3668C83.2448 57.6332 83.7193 58.1457 83.937 58.7727C85.4088 63.0133 85.4999 67.5204 84.2002 71.8069C84.0067 72.4454 83.5511 72.9787 82.9508 73.2702C82.3498 73.5621 81.6487 73.5898 81.0271 73.3467ZM81.8832 59.0317C81.7911 58.9957 81.6267 58.9586 81.4401 59.0403L67.62 65.0909C67.3027 65.2298 67.2738 65.5132 67.2762 65.6285C67.2785 65.7439 67.3187 66.0258 67.6413 66.152L81.6922 71.6458C81.8961 71.7256 82.0685 71.6685 82.1532 71.6274C82.2379 71.5864 82.3892 71.4864 82.4526 71.277C83.6396 67.362 83.5564 63.2451 82.2119 59.3715C82.1418 59.1696 81.9888 59.0772 81.9039 59.0401C81.8975 59.0374 81.8907 59.0346 81.8832 59.0317Z" fill="#D58A9C"/>
<path d="M65.785 65.1296C65.4965 65.0168 65.2274 64.847 64.9942 64.6228C64.2915 63.9477 64.0668 62.9251 64.4216 62.0177L69.9155 47.9668C70.1585 47.3452 70.6546 46.849 71.2762 46.6053C71.8977 46.3617 72.5973 46.3879 73.1989 46.6798C77.2301 48.6324 80.4801 51.7564 82.5979 55.7141L82.5979 55.7143C82.911 56.2994 82.9657 56.9957 82.7479 57.6242C82.529 58.2561 82.0525 58.7722 81.4402 59.0403L67.62 65.0909C67.0237 65.3519 66.3656 65.3566 65.785 65.1296ZM72.3595 48.3042C72.1805 48.2343 72.0234 48.2737 71.9424 48.3055C71.8548 48.3399 71.6958 48.4279 71.6161 48.6318L66.1223 62.6827C65.9961 63.0053 66.1761 63.2261 66.2592 63.306C66.3424 63.3859 66.5702 63.5571 66.8875 63.4179L80.7077 57.3673C80.9093 57.2791 80.9913 57.1158 81.0223 57.0265C81.0527 56.9389 81.0884 56.7639 80.9877 56.5754C79.0533 52.96 76.0846 50.1063 72.4028 48.323C72.3883 48.3162 72.3738 48.3098 72.3595 48.3042Z" fill="#D58A9C"/>
<path d="M60.2872 65.2375L46.2363 59.7436C45.6147 59.5006 45.1184 59.0047 44.8748 58.3829C44.6312 57.7615 44.6583 57.0606 44.9493 56.4602C46.9019 52.4291 50.026 49.1788 53.9837 47.0614C54.5688 46.7483 55.2652 46.6936 55.8938 46.9114C56.5279 47.1312 57.0416 47.607 57.3098 48.2193L63.3603 62.0392C63.7513 62.9319 63.5675 63.9625 62.8924 64.6651C62.2173 65.3675 61.1947 65.5923 60.2872 65.2375ZM54.845 48.6715C51.2298 50.6058 48.3761 53.5744 46.5926 57.2562C46.4974 57.453 46.5406 57.629 46.575 57.7168C46.6094 57.8044 46.6973 57.9633 46.9012 58.043L60.9521 63.5368C61.2749 63.663 61.4958 63.4831 61.5756 63.3998C61.6556 63.3166 61.8264 63.0889 61.6876 62.7715L55.6371 48.9515C55.5486 48.7495 55.3837 48.667 55.296 48.6368C55.2085 48.6065 55.0334 48.5706 54.845 48.6715Z" fill="#D58A9C"/>
<path d="M71.9466 84.4461C71.3551 84.2148 70.8742 83.7543 70.6186 83.1706L64.5679 69.3507C64.1771 68.4581 64.3609 67.4274 65.0361 66.7247C65.7114 66.0221 66.7338 65.7974 67.6412 66.1522L81.6921 71.646C82.3137 71.8891 82.81 72.3851 83.0536 73.0067C83.2972 73.6282 83.2701 74.329 82.9791 74.9295C81.0266 78.9608 77.9026 82.2109 73.9447 84.3283C73.3595 84.6414 72.6631 84.6962 72.0344 84.4783C72.005 84.4682 71.9757 84.4575 71.9466 84.4461ZM66.2408 68.6183L72.2914 82.4383C72.3799 82.6402 72.5446 82.7234 72.6322 82.7531C72.7198 82.7834 72.8949 82.8192 73.0833 82.7183C76.6987 80.7841 79.5523 77.8156 81.3357 74.1336C81.4309 73.9368 81.3878 73.7606 81.3534 73.673C81.319 73.5854 81.231 73.4265 81.0271 73.3468L66.9762 67.8529C66.6536 67.7268 66.4327 67.9066 66.3529 67.9899C66.2729 68.0732 66.1018 68.301 66.2408 68.6183Z" fill="#D58A9C"/>
<path d="M45.3798 74.0584C45.3507 74.0471 45.3218 74.0351 45.2932 74.0226C44.6836 73.7563 44.209 73.2438 43.9914 72.6168C42.5198 68.3763 42.4287 63.8691 43.7282 59.5827C43.9217 58.9441 44.3773 58.4108 44.9777 58.1193C45.5784 57.8277 46.2795 57.8 46.9011 58.043L60.9519 63.5369C61.8595 63.8917 62.4584 64.7506 62.4778 65.7246C62.4973 66.6989 61.9332 67.5808 61.0405 67.9715L47.2206 74.0222C46.6371 74.2777 45.9714 74.2898 45.3798 74.0584ZM45.4759 60.1123C44.289 64.0274 44.3723 68.1444 45.7166 72.0179C45.7866 72.2198 45.9396 72.3122 46.0246 72.3493C46.1093 72.3869 46.2865 72.4376 46.4886 72.3492L60.3085 66.2985C60.6258 66.1595 60.6548 65.8763 60.6525 65.7609C60.6501 65.6455 60.61 65.3635 60.2873 65.2373L46.2364 59.7434C46.0325 59.6637 45.86 59.7208 45.7753 59.7618C45.6907 59.8031 45.5394 59.9032 45.4759 60.1123Z" fill="#D58A9C"/>
<path d="M57.6759 85.8697C57.116 85.6507 56.6529 85.2255 56.3886 84.6811C56.0971 84.0804 56.0692 83.3794 56.3123 82.7577L61.8061 68.7068C62.1609 67.7994 63.0196 67.2005 63.9939 67.181C64.9683 67.1614 65.8502 67.7258 66.2409 68.6183L72.2914 82.4383C72.5595 83.0507 72.5597 83.7534 72.2918 84.366C72.0255 84.9756 71.513 85.4499 70.8861 85.6677C66.6455 87.1395 62.1384 87.2304 57.8518 85.9308C57.7922 85.9126 57.7336 85.8923 57.6759 85.8697ZM64.2634 69.0475C64.1705 69.0112 64.083 69.0058 64.0304 69.0068C63.9151 69.0091 63.6332 69.0493 63.507 69.3719L58.0132 83.4228C57.9334 83.6267 57.9905 83.7991 58.0316 83.8838C58.0726 83.9685 58.1742 84.1198 58.3818 84.1831C62.2969 85.3702 66.4138 85.2869 70.2875 83.9425C70.4893 83.8724 70.5817 83.7196 70.6188 83.6347C70.6568 83.548 70.7071 83.3724 70.6189 83.1707L64.5683 69.3508C64.4924 69.178 64.374 69.0908 64.2634 69.0475Z" fill="#D58A9C"/>
<path d="M54.9005 84.7844C54.8426 84.7619 54.7858 84.737 54.7296 84.7098C50.6983 82.7571 47.4484 79.6331 45.3308 75.6754C45.0176 75.0902 44.963 74.394 45.1808 73.7653C45.3997 73.1334 45.8762 72.6174 46.4886 72.3494L60.3085 66.2986C61.2011 65.9079 62.2316 66.0917 62.9345 66.7667C63.637 67.4417 63.8617 68.4643 63.5069 69.3717L58.0131 83.4226C57.77 84.0442 57.274 84.5405 56.6523 84.7841C56.089 85.0049 55.4603 85.0033 54.9005 84.7844ZM61.4703 67.9553C61.3596 67.912 61.2134 67.8958 61.0407 67.9714L47.2208 74.0221C47.0192 74.1104 46.9371 74.2736 46.9061 74.3628C46.8759 74.4504 46.84 74.6255 46.9409 74.8139C48.8752 78.4292 51.8438 81.2829 55.5257 83.0663C55.7202 83.1601 55.8986 83.1182 55.9861 83.0839C56.0737 83.0495 56.2326 82.9615 56.3123 82.7576L61.8061 68.7067C61.9323 68.3841 61.7523 68.1633 61.6692 68.0834C61.6313 68.0469 61.5633 67.9916 61.4703 67.9553Z" fill="#D58A9C"/>
<path d="M32.5653 63.6103C32.0957 63.4267 31.8638 62.8971 32.0475 62.4274L32.6426 60.9053C32.8262 60.4357 33.3558 60.2038 33.8255 60.3874C34.2951 60.5711 34.527 61.1007 34.3434 61.5703L33.7482 63.0924C33.5646 63.5621 33.035 63.7939 32.5653 63.6103Z" fill="#BE545E"/>
<path d="M30.0332 57.0915C29.5636 56.9079 29.3317 56.3783 29.5154 55.9086L30.1105 54.3865C30.2941 53.9169 30.8237 53.685 31.2934 53.8686C31.763 54.0523 31.9949 54.5819 31.8113 55.0515L31.2162 56.5735C31.0325 57.0433 30.5029 57.2751 30.0332 57.0915Z" fill="#BE545E"/>
<path d="M35.312 55.1578C34.8424 54.9742 34.6105 54.4445 34.7942 53.9749L35.3892 52.4529C35.5729 51.9833 36.1025 51.7514 36.5721 51.935C37.0418 52.1187 37.2736 52.6483 37.09 53.1179L36.4949 54.6399C36.3113 55.1095 35.7815 55.3414 35.312 55.1578Z" fill="#BE545E"/>
<path d="M51.5599 8.28118L51.4378 12.2136C51.4326 12.3819 51.4908 12.5397 51.599 12.6503L54.126 15.2316C54.4831 15.5963 54.2132 16.2867 53.7034 16.3126L50.0956 16.4952C49.9412 16.503 49.7913 16.5794 49.681 16.7068L47.1034 19.6791C46.7392 20.099 46.1258 19.8592 46.143 19.3036L46.2651 15.3712C46.2704 15.2029 46.2122 15.0449 46.104 14.9345L43.5769 12.3532C43.22 11.9886 43.4899 11.2981 43.9996 11.2722L47.6073 11.0896C47.7617 11.0818 47.9116 11.0054 48.022 10.878L50.5996 7.90569C50.9637 7.48575 51.5772 7.72561 51.5599 8.28118Z" fill="#FFDCB6"/>
<path d="M32.0164 17.0325L31.9259 19.9496C31.922 20.0745 31.9652 20.1915 32.0455 20.2735L33.92 22.1883C34.1849 22.4587 33.9846 22.9709 33.6065 22.99L30.9304 23.1255C30.8158 23.1312 30.7047 23.188 30.6228 23.2824L28.7106 25.4873C28.4405 25.7988 27.9855 25.6208 27.9983 25.2088L28.0889 22.2917C28.0927 22.1667 28.0496 22.0498 27.9693 21.9677L26.0948 20.053C25.8299 19.7825 26.0302 19.2703 26.4083 19.2512L29.0844 19.1157C29.199 19.11 29.3101 19.0532 29.392 18.9588L31.3041 16.754C31.5742 16.4425 32.0293 16.6204 32.0164 17.0325Z" fill="#FFDCB6"/>
<path d="M39.7481 7.99323C39.4068 8.86608 38.4224 9.29706 37.5495 8.95578C36.6767 8.6145 36.2456 7.63005 36.5869 6.7572C36.9282 5.8842 37.9126 5.45322 38.7856 5.79456C39.6586 6.13589 40.0894 7.12023 39.7481 7.99323Z" fill="#FFC7B6"/>
</g>
</svg>
