<svg width="142" height="145" viewBox="0 0 142 145" fill="none" xmlns="http://www.w3.org/2000/svg">
<g opacity="0.35">
<path d="M71.9013 50.2081C72.2482 49.3572 68.5528 33.8954 66.2686 27.3523C63.9801 20.7965 77.6895 28.6294 79.7864 33.6131C79.7864 33.6131 79.0366 25.325 75.353 17.3812C72.6197 11.4869 87.3718 14.6738 89.1541 28.9616L90.056 29.3293C101.32 20.3605 113.921 27.9802 108.02 30.6994C99.9685 34.4095 92.9697 38.9676 92.9697 38.9676C98.4999 36.5428 113.328 40.9154 107.108 44.0026C100.9 47.0837 87.9186 54.8421 87.5717 55.693L71.9013 50.2081Z" fill="#BDF4E3"/>
<path d="M103.743 39.2039C95.9923 44.6556 86.8213 46.424 78.6998 43.1129C74.6363 41.4562 71.1643 38.6752 68.6016 35.1742C70.1616 40.8229 72.1322 49.642 71.9015 50.208L87.5717 55.6928C87.9186 54.8419 100.9 47.0835 107.108 44.0024C110.414 42.3614 107.773 40.3573 103.743 39.2039Z" fill="#B1B7E3"/>
<path d="M84.8826 53.0972L75.5528 49.2935C61.6122 43.6099 45.7036 50.3036 40.0201 64.2442L30.403 87.8329C24.7194 101.774 31.4131 117.682 45.3537 123.366L54.6835 127.169C68.6241 132.853 84.5327 126.159 90.2163 112.219L99.8334 88.63C105.517 74.6894 98.8233 58.7808 84.8826 53.0972Z" fill="#FFE266"/>
<path d="M83.9177 52.7037L76.5179 49.6868C76.2811 49.5903 76.0439 49.4976 75.8062 49.4081C89.7995 55.5508 96.4291 71.7641 90.6247 86.0011L86.6021 95.8676C80.7013 110.341 64.1846 117.291 49.711 111.39C38.2183 106.704 31.4709 95.3255 32.1328 83.5908L30.7966 86.8682C24.8957 101.342 31.8453 117.858 46.3189 123.759L53.7187 126.776C68.1923 132.677 84.709 125.728 90.6099 111.254L99.4401 89.5952C105.341 75.1216 98.3913 58.6046 83.9177 52.7037Z" fill="#EFAA66"/>
<path d="M100.118 84.8649C99.87 84.7639 99.6492 84.59 99.4903 84.3501L95.3831 78.1481L88.1105 79.7106C87.556 79.8297 86.985 79.5967 86.6721 79.1242L82.566 72.9226L75.294 74.4853C74.7393 74.6044 74.1683 74.3713 73.8556 73.8989L69.7495 67.6976L62.4781 69.2603C61.9236 69.3794 61.3527 69.1467 61.0396 68.6736L56.9345 62.4727L49.6639 64.0358C49.1093 64.1553 48.5383 63.9223 48.2252 63.4492L44.4116 57.6879C43.9917 57.0533 44.1656 56.1983 44.8001 55.7783C45.4347 55.3584 46.2896 55.5321 46.7097 56.1668L50.0041 61.1438L57.2745 59.5809C57.8291 59.4615 58.4 59.6943 58.7131 60.1674L62.8182 66.3683L70.0896 64.8055C70.6441 64.6864 71.2152 64.9193 71.5281 65.392L75.6342 71.5936L82.9063 70.0309C83.4607 69.9115 84.0317 70.1445 84.3446 70.6173L88.4507 76.8189L95.7234 75.2564C96.2777 75.1372 96.8488 75.37 97.1617 75.8428L101.788 82.8288C102.208 83.4633 102.034 84.3184 101.4 84.7385C101.005 84.9994 100.525 85.0311 100.118 84.8649Z" fill="#D0844B"/>
<path d="M92.5407 103.45C92.293 103.349 92.0722 103.175 91.9132 102.935L87.8061 96.7329L80.5334 98.2953C79.9791 98.4145 79.4081 98.1817 79.0951 97.7089L74.989 91.5074L67.717 93.0701C67.1622 93.1891 66.5912 92.9561 66.2786 92.4837L62.1724 86.2823L54.9011 87.8451C54.3468 87.9643 53.7757 87.7314 53.4626 87.2584L49.3575 81.0574L42.0869 82.6205C41.5322 82.74 40.9613 82.507 40.6482 82.0339L36.0248 75.0491C35.6049 74.4145 35.7789 73.5595 36.4133 73.1395C37.0479 72.7196 37.9028 72.8932 38.3229 73.528L42.4271 79.7283L49.6976 78.1654C50.2522 78.0461 50.8231 78.2788 51.1361 78.7519L55.2413 84.9528L62.5126 83.3901C63.0672 83.271 63.6382 83.5038 63.9512 83.9766L68.0573 90.1781L75.3293 88.6154C75.8837 88.496 76.4547 88.729 76.7677 89.2018L80.8738 95.4034L88.1464 93.8409C88.7008 93.7217 89.2718 93.9546 89.5848 94.4273L94.211 101.413C94.6312 102.048 94.4575 102.903 93.8227 103.323C93.4284 103.584 92.9483 103.616 92.5407 103.45Z" fill="#D0844B"/>
<path d="M33.7005 101.135C33.4492 101.032 33.2283 100.856 33.0717 100.619L28.4484 93.6346C28.0284 92.9999 28.2024 92.145 28.8368 91.725C29.4715 91.305 30.3263 91.4787 30.7464 92.1134L34.8507 98.3137L42.1211 96.7508C42.6757 96.6315 43.2466 96.8643 43.5597 97.3373L47.6648 103.538L54.9362 101.976C55.4907 101.856 56.0618 102.089 56.3747 102.562L60.4808 108.764L67.7529 107.201C68.3073 107.081 68.8782 107.314 69.1912 107.787L73.2973 113.989L80.57 112.426C81.1243 112.307 81.6949 112.54 82.0083 113.013L85.7487 118.661C86.169 119.296 85.9952 120.151 85.3605 120.571C84.7263 120.991 83.8712 120.818 83.4508 120.183L80.2294 115.318L72.9568 116.881C72.4025 117 71.8314 116.767 71.5184 116.294L67.4123 110.093L60.1403 111.655C59.5856 111.774 59.0146 111.541 58.7019 111.069L54.5958 104.868L47.3244 106.43C46.7699 106.55 46.199 106.317 45.8859 105.844L41.7808 99.6428L34.5102 101.206C34.2332 101.265 33.9517 101.237 33.7005 101.135Z" fill="#D0844B"/>
<path d="M75.3376 83.1232C74.6329 82.8359 74.2946 82.0317 74.5818 81.3271L75.6309 78.7539C75.9182 78.0493 76.7224 77.7109 77.427 77.9982C78.1316 78.2855 78.47 79.0897 78.1827 79.7943L77.1337 82.3674C76.8464 83.0721 76.0422 83.4104 75.3376 83.1232Z" fill="#D0844B"/>
<path d="M82.4923 89.7955C81.7877 89.5083 81.4493 88.7041 81.7366 87.9994L82.7857 85.4263C83.0729 84.7217 83.8771 84.3833 84.5818 84.6706C85.2864 84.9579 85.6248 85.7621 85.3375 86.4667L84.2884 89.0398C84.0014 89.7445 83.1972 90.0829 82.4923 89.7955Z" fill="#D0844B"/>
<path d="M47.2516 93.8995C46.547 93.6123 46.2086 92.8081 46.4959 92.1034L47.5449 89.5303C47.8322 88.8257 48.6364 88.4873 49.341 88.7746C50.0457 89.0619 50.384 89.866 50.0968 90.5707L49.0477 93.1438C48.7606 93.8485 47.9562 94.1868 47.2516 93.8995Z" fill="#D0844B"/>
<path d="M127.584 53.2726L127.327 58.931C127.316 59.1732 127.397 59.4015 127.55 59.563L131.134 63.3311C131.641 63.8634 131.238 64.8517 130.503 64.8784L125.306 65.0664C125.084 65.0746 124.867 65.1814 124.705 65.3624L120.933 69.5877C120.4 70.1845 119.522 69.8265 119.558 69.0272L119.815 63.3689C119.827 63.1266 119.746 62.8982 119.592 62.7369L116.008 58.9688C115.502 58.4365 115.905 57.4482 116.639 57.4215L121.836 57.2334C122.059 57.2253 122.276 57.1184 122.438 56.9375L126.21 52.7122C126.743 52.1151 127.621 52.4731 127.584 53.2726Z" fill="#FEF2A8"/>
<path d="M33.877 39.6062L33.6862 43.8035C33.6782 43.9832 33.7379 44.1525 33.8518 44.2723L36.5103 47.0675C36.8859 47.4624 36.587 48.1955 36.0424 48.2152L32.1873 48.3548C32.0222 48.3608 31.8611 48.4402 31.7412 48.5743L28.9428 51.7086C28.5476 52.1514 27.8962 51.8858 27.9232 51.2929L28.114 47.0955C28.122 46.9158 28.0623 46.7464 27.9485 46.6267L25.2899 43.8314C24.9143 43.4365 25.2132 42.7034 25.7578 42.6837L29.6129 42.5441C29.778 42.5381 29.9391 42.4588 30.059 42.3247L32.8573 39.1905C33.2526 38.7475 33.9038 39.013 33.877 39.6062Z" fill="#FEF2A8"/>
<path d="M49.3229 34.2392C50.8634 34.2302 52.1049 32.9741 52.096 31.4336C52.087 29.8931 50.8309 28.6516 49.2904 28.6605C47.7499 28.6695 46.5084 29.9256 46.5173 31.4661C46.5263 33.0066 47.7824 34.2481 49.3229 34.2392Z" fill="#FFE266"/>
<path d="M44.5455 78.0432C43.386 77.5704 42.8171 76.253 43.2736 75.0823C43.9105 73.4493 44.6195 71.8719 45.3805 70.3944C48.6202 64.105 52.7963 59.5032 57.7929 56.7168C58.9006 56.0992 60.2993 56.4963 60.9173 57.6041C61.535 58.7119 61.1378 60.1108 60.03 60.7286C55.8373 63.0666 52.2823 67.0263 49.4641 72.4979C48.7756 73.8346 48.1327 75.2657 47.5533 76.7511C47.0926 77.9328 45.761 78.5172 44.5791 78.0564C44.5677 78.0522 44.5566 78.0477 44.5455 78.0432Z" fill="white"/>
<path d="M65.9592 57.9577C65.1335 57.621 64.5452 56.8172 64.5291 55.8692C64.5075 54.601 65.5181 53.5553 66.7862 53.5339C67.9656 53.5138 68.9509 53.5904 70.2169 54.0335C71.4147 54.453 72.0448 55.7626 71.6257 56.9598C71.2067 58.1569 69.8965 58.7877 68.6993 58.3687C68.0615 58.1454 67.6178 58.1136 66.8644 58.1263C66.5442 58.1317 66.238 58.0713 65.9592 57.9577Z" fill="white"/>
</g>
</svg>
