<svg width="120" height="118" viewBox="0 0 120 118" fill="none" xmlns="http://www.w3.org/2000/svg">
<path d="M67.2517 113.563L60.9573 115.287C39.5896 121.139 19.1777 114.685 8.04445 94C-3.08884 73.3148 -0.350744 49.8415 2.6582 37.7342C5.66688 25.6266 12.988 8.33705 30.8576 3.44332C51.6769 -2.25831 73.3951 9.49205 77.8209 28.8525L81.9519 46.9223C82.3961 48.8653 83.028 50.7689 83.8406 52.6106L90.9583 68.7456C99.0626 87.1178 88.0932 107.856 67.2517 113.563Z" fill="#DAA88D"/>
<path d="M60.9572 115.287C68.0124 113.545 75.5618 111.259 80.9638 106.675C91.45 98.3274 96.2043 84.9703 92.2566 72.214C91.8968 71.0515 91.4649 69.8941 90.9583 68.7457L83.8405 52.6106C82.459 49.6767 81.6846 45.7624 80.9699 42.6267L77.8211 28.8525C77.4724 27.3546 77.0271 25.8766 76.4658 24.4343C73.6842 17.2723 68.4188 11.4241 61.7981 7.49579C66.1427 10.6397 69.3269 14.9501 70.5435 20.2814L71.0229 39.416C71.0244 41.9878 71.5195 44.5477 72.5686 46.9359C72.5753 46.9512 73.3017 48.2667 73.3084 48.282L78.0195 57.6256C84.7378 72.8395 75.5979 90.03 58.2668 94.7763L53.0324 96.2098C35.2637 101.076 17.7345 97.0976 8.50048 79.9697C-0.733277 62.8418 2.13444 42.0408 4.64782 32.0074C4.95758 30.7706 5.32223 29.4687 5.75079 28.1285C4.43264 31.3997 3.48043 34.447 2.65732 37.7341C0.101166 48.0202 -2.25759 66.5098 3.91672 84.5238C5.03438 87.7788 6.38242 90.9094 8.04357 94.0001C12.9144 103.05 19.5611 109.376 27.287 113.139C29.2752 114.107 31.3472 114.914 33.4871 115.546C41.948 118.06 51.3557 117.917 60.9572 115.287Z" fill="#B57551"/>
<path d="M17.3949 57.3444C16.0142 57.3444 14.8514 56.3698 14.7584 55.0984C14.0832 45.8491 15.7446 36.5935 19.563 28.3325C20.1292 27.1077 21.6803 26.5328 23.026 27.0472C24.3728 27.5621 25.0052 28.9721 24.4393 30.1967C20.9378 37.7721 19.4153 46.2726 20.0364 54.7799C20.133 56.1052 19.0298 57.2511 17.5725 57.339C17.5132 57.3427 17.4537 57.3444 17.3949 57.3444Z" fill="white"/>
<path d="M28.0976 22.281C27.4526 22.281 26.8063 22.068 26.2971 21.637C25.2276 20.7321 25.1668 19.2101 26.1618 18.2377C26.5849 17.824 26.9836 17.3696 27.4057 16.8882C28.3345 15.8293 29.3872 14.6294 30.8919 13.7242C32.1108 12.9916 33.7514 13.2961 34.5567 14.4039C35.3623 15.5122 35.0275 17.0045 33.8094 17.7371C33.0012 18.2229 32.3245 18.9945 31.5408 19.8879C31.0759 20.4183 30.595 20.9665 30.035 21.5137C29.5137 22.0235 28.8063 22.281 28.0976 22.281Z" fill="white"/>
<path d="M47.8748 58.6822C46.9983 58.6822 46.2878 58.036 46.2878 57.2389V54.3605C46.2878 53.5634 46.9983 52.9172 47.8748 52.9172C48.751 52.9172 49.4617 53.5634 49.4617 54.3605V57.2389C49.4615 58.036 48.751 58.6822 47.8748 58.6822Z" fill="#924F1F"/>
<path d="M63.4373 52.9438C62.5608 52.9438 61.8503 52.2976 61.8503 51.5005V48.6222C61.8503 47.8251 62.5608 47.1789 63.4373 47.1789C64.3137 47.1789 65.0242 47.8251 65.0242 48.6222V51.5005C65.0242 52.2976 64.3137 52.9438 63.4373 52.9438Z" fill="#924F1F"/>
<path d="M58.9157 64.5157C58.0395 64.5157 57.3287 63.8696 57.3287 63.0725V60.1942C57.3287 59.3971 58.0392 58.751 58.9157 58.751C59.7921 58.751 60.5026 59.3971 60.5026 60.1942V63.0725C60.5026 63.8696 59.7921 64.5157 58.9157 64.5157Z" fill="#924F1F"/>
<path d="M34.2047 76.0876C33.3282 76.0876 32.6177 75.4415 32.6177 74.6444V71.766C32.6177 70.9689 33.3282 70.3228 34.2047 70.3228C35.0809 70.3228 35.7916 70.9689 35.7916 71.766V74.6444C35.7916 75.4412 35.0811 76.0876 34.2047 76.0876Z" fill="#924F1F"/>
<path d="M53.4477 81.0602C52.5715 81.0602 51.8607 80.4141 51.8607 79.617V76.7387C51.8607 75.9419 52.5712 75.2955 53.4477 75.2955C54.3241 75.2955 55.0346 75.9416 55.0346 76.7387V79.617C55.0346 80.4141 54.3241 81.0602 53.4477 81.0602Z" fill="#924F1F"/>
<path d="M37.6471 36.897C36.7707 36.897 36.0602 36.2508 36.0602 35.4536V32.5754C36.0602 31.7783 36.7707 31.1321 37.6471 31.1321C38.5236 31.1321 39.234 31.7783 39.234 32.5754V35.4539C39.2338 36.2508 38.5233 36.897 37.6471 36.897Z" fill="#924F1F"/>
<path d="M60.1752 101.8C59.5969 101.8 59.0395 101.512 58.7596 101.011C58.3623 100.301 58.6733 99.4318 59.4547 99.0706C69.0113 94.6498 74.8089 88.1767 76.686 79.8313C78.1126 73.4877 76.6625 68.202 76.3453 67.4649C75.9598 66.8499 76.1211 66.0551 76.7543 65.6098C77.448 65.1223 78.444 65.2381 78.9803 65.8688C79.6818 66.6943 81.5514 73.3285 79.6619 80.9734C78.1361 87.1481 73.641 95.7464 60.8932 101.643C60.6628 101.75 60.4172 101.8 60.1752 101.8ZM76.4682 67.6327C76.4687 67.6332 76.469 67.6339 76.4695 67.6343C76.469 67.6339 76.4687 67.6334 76.4682 67.6327ZM76.3298 67.4302V67.4304C76.3298 67.4304 76.3298 67.4304 76.3298 67.4302Z" fill="#924F1F"/>
<path d="M47.6074 105.832C46.8333 105.832 46.1558 105.316 46.0396 104.599C45.912 103.81 46.5114 103.077 47.3789 102.961C50.386 102.558 52.9932 101.686 53.0192 101.677C53.8402 101.399 54.7538 101.781 55.0589 102.528C55.364 103.275 54.9448 104.106 54.1232 104.383C54.0044 104.423 51.174 105.371 47.8407 105.817C47.7623 105.827 47.6845 105.832 47.6074 105.832Z" fill="#924F1F"/>
<path d="M96.9557 0.588696L99.1281 6.14437C99.2211 6.38226 99.4054 6.5707 99.6376 6.66586L105.065 8.88986C105.831 9.20416 105.831 10.3151 105.065 10.6294L99.6376 12.8534C99.4051 12.9486 99.2211 13.137 99.1281 13.3749L96.9557 18.9306C96.6487 19.7155 95.5633 19.7155 95.2564 18.9306L93.0839 13.3749C92.9909 13.137 92.8069 12.9486 92.5744 12.8534L87.1472 10.6294C86.3805 10.3151 86.3805 9.20416 87.1472 8.88986L92.5744 6.66586C92.8069 6.5707 92.9909 6.38226 93.0839 6.14437L95.2564 0.588696C95.5633 -0.196232 96.6487 -0.196232 96.9557 0.588696Z" fill="#FEF2A8"/>
<path d="M119.241 37.2348C119.66 34.883 117.904 32.6675 115.318 32.2862C112.732 31.905 110.296 33.5024 109.877 35.8542C109.458 38.206 111.214 40.4215 113.8 40.8028C116.386 41.184 118.822 39.5866 119.241 37.2348Z" fill="#E9A385"/>
</svg>
