<svg width="100" height="100" viewBox="0 0 100 100" fill="none" xmlns="http://www.w3.org/2000/svg">
<path d="M48.2759 70.6897H51.7242V100H48.2759V70.6897Z" fill="#763A02"/>
<path d="M44.8276 5.17241L50.0001 0L55.1725 5.17241V67.2414L50.0001 72.4138L44.8276 67.2414V5.17241Z" fill="#FFA900"/>
<path d="M13.793 36.2069L18.9654 41.3793H81.0343L86.2068 36.2069L81.0343 31.0345H18.9654L13.793 36.2069Z" fill="#FFA900"/>
<path d="M75.8618 62.0689V55.1724L31.0342 10.3448H24.1377V17.2414L68.9653 62.0689H75.8618Z" fill="#FFA900"/>
<path d="M68.9653 10.3448H75.8618V17.2414L31.0342 62.0689H24.1377V55.1724L68.9653 10.3448Z" fill="#FFA900"/>
<path d="M33.3447 9.51379L36.1447 2.7569L42.9016 5.55517L66.6551 62.9L63.8551 69.6569L57.0982 66.8586L33.3447 9.51379Z" fill="#FF8800"/>
<path d="M16.5498 50.0621L23.3067 52.8621L80.6515 29.1086L83.4498 22.3517L76.6929 19.5517L19.3481 43.3052L16.5498 50.0621Z" fill="#FF8800"/>
<path d="M83.7898 50.2034L81.1518 43.831L22.5811 19.5707L16.2104 22.2103L18.8484 28.5827L77.4191 52.8431L83.7898 50.2034Z" fill="#FF8800"/>
<path d="M57.6246 5.05517L63.997 2.41724L66.6367 8.78793L42.3763 67.3586L36.0039 69.9966L33.3643 63.6259L57.6246 5.05517Z" fill="#FF8800"/>
<path d="M50.0002 15.5172C61.4267 15.5172 70.6899 24.7804 70.6899 36.2069C70.6899 47.6334 61.4267 56.8966 50.0002 56.8966C38.5737 56.8966 29.3105 47.6334 29.3105 36.2069C29.3105 24.7804 38.5737 15.5172 50.0002 15.5172Z" fill="#763A02"/>
<path d="M32.7585 79.3103H10.3447V81.0345C10.3561 91.5041 18.8406 99.9886 29.3102 100H51.724V98.2759C51.7126 87.8062 43.2281 79.3218 32.7585 79.3103Z" fill="#33BC00"/>
<path d="M67.2414 79.3103C56.7718 79.3218 48.2873 87.8062 48.2759 98.2759V100H70.6897C81.1593 99.9886 89.6438 91.5041 89.6552 81.0345V79.3103H67.2414Z" fill="#008100"/>
<path d="M66.9945 24.4241C65.1195 39.9511 51.9788 51.6534 36.3394 51.7241C44.8999 59.2784 57.9635 58.4627 65.5178 49.9022C71.8163 42.7649 72.4266 32.2491 66.9963 24.431L66.9945 24.4241Z" fill="#804300"/>
</svg>
