<svg width="120" height="120" viewBox="0 0 120 120" fill="none" xmlns="http://www.w3.org/2000/svg">
<path d="M113.481 77.0387C113.481 100.121 91.7108 119.484 72.6055 119.985C68.0166 120.105 63.4661 119.484 58.64 119.484C53.7505 119.484 49.1447 120.097 44.4988 119.943C30.7169 119.484 3.79926 100.063 3.79926 77.0389C3.79926 54.0107 15.814 29.9983 44.5099 29.5122C49.1541 29.4335 58.6398 33.4373 58.6398 33.4373C58.6398 33.4373 67.8108 29.4018 72.3018 29.4016C101.269 29.3997 113.481 53.8577 113.481 77.0387Z" fill="#FD4949"/>
<path d="M89.424 32.8542C89.4233 32.8539 89.4226 32.8535 89.4218 32.853C89.4218 32.853 89.4218 32.853 89.4216 32.853C88.9175 32.6261 88.4048 32.4091 87.8837 32.2026C83.3522 30.4073 64.3997 34.5459 58.6398 33.7879C54.7359 33.2742 29.3608 32.3929 29.36 32.3927C28.0868 32.9041 26.8435 33.4814 25.6354 34.1235C25.6354 34.1245 25.6356 34.1254 25.6356 34.1261C10.4415 42.2636 3.79932 59.9207 3.79932 77.038C3.79932 100.062 30.717 119.484 44.4989 119.942C49.1447 120.096 53.7505 119.483 58.6398 119.483C63.4659 119.483 68.0162 120.104 72.6053 119.984C91.7104 119.483 113.481 100.12 113.481 77.0378C113.481 59.0962 106.162 40.3926 89.424 32.8542ZM68.1827 107.541C64.224 107.644 60.2989 107.109 56.1358 107.109C51.918 107.109 47.9449 107.638 43.9372 107.504C32.0486 107.109 8.82855 90.3559 8.82855 70.4943C8.82855 56.4796 13.989 42.044 25.7203 34.6089C25.8294 34.9462 26.0468 35.2631 26.3947 35.5122L35.9477 42.3534C36.955 43.0745 36.955 44.5375 35.9477 45.2589L26.3947 52.1001C24.9062 53.166 25.7601 55.4598 27.6062 55.3546L48.3835 54.1701C48.9785 54.1361 49.5542 54.3815 49.9313 54.8298L59.2464 65.9052C59.9898 66.789 61.3808 66.789 62.1241 65.9052L71.4392 54.8298C71.8164 54.3815 72.3921 54.1361 72.9868 54.1701L93.7641 55.3546C95.6102 55.4598 96.4641 53.166 94.9756 52.1001L85.4226 45.2589C84.4153 44.5375 84.4153 43.0748 85.4226 42.3534L91.3933 38.2792C99.7011 46.2787 103.443 58.5803 103.443 70.494C103.443 90.4055 84.6633 107.109 68.1827 107.541Z" fill="#CE2C2C"/>
<path d="M14.3578 84.7769C13.1994 84.7769 12.1626 83.9868 11.9228 82.8415C10.8976 77.9438 10.9053 72.6489 11.9462 67.1041C12.2176 65.6585 12.5629 64.1913 12.9724 62.7436C13.3364 61.4569 14.706 60.7008 16.0301 61.054C17.355 61.4077 18.1336 62.7375 17.7695 64.0242C17.3984 65.336 17.0857 66.6639 16.8403 67.971C15.9136 72.9074 15.8993 77.5866 16.7976 81.8784C17.0715 83.1862 16.2019 84.4619 14.8555 84.7277C14.6891 84.761 14.5223 84.7769 14.3578 84.7769Z" fill="white"/>
<path d="M17.7815 59.0829C17.4447 59.0829 17.1023 59.0162 16.7747 58.8748C15.5188 58.3339 14.9521 56.9063 15.5089 55.6864C15.8636 54.9094 16.2441 54.1397 16.6398 53.3991C17.2729 52.2145 18.7747 51.7526 19.9936 52.3674C21.213 52.9821 21.6886 54.4409 21.0557 55.6252C20.7066 56.2784 20.3707 56.9581 20.0571 57.645C19.6452 58.5472 18.7353 59.0829 17.7815 59.0829Z" fill="white"/>
<path d="M63.4615 15.2949C64.8153 16.8108 63.9493 30.4302 63.9493 30.4302C64.3265 30.8786 68.2994 28.4233 73.4234 27.5017C78.5475 26.5802 91.719 26.2214 91.719 26.2214C93.565 26.1161 94.4189 28.4099 92.9304 29.4759L83.3774 36.317C82.3701 37.0384 82.3701 38.5011 83.3774 39.2225L92.9304 46.0636C94.4189 47.1295 93.565 49.4233 91.719 49.3181L70.9416 48.1336C70.3466 48.0996 69.7709 48.345 69.3938 48.7933L60.0787 59.8686C59.3353 60.7524 57.9444 60.7524 57.201 59.8686L47.8859 48.7933C47.5088 48.345 46.9331 48.0996 46.3381 48.1336L25.5607 49.3181C23.7147 49.4233 22.8608 47.1295 24.3493 46.0636L33.9023 39.2225C34.9096 38.5011 34.9096 37.0384 33.9023 36.317L24.3493 29.4759C22.8608 28.4099 23.7147 26.1161 25.5607 26.2214C25.5607 26.2214 37.9302 27.1471 43.2224 27.8435C48.9823 28.6014 53.7241 31.0443 54.1013 30.5959C54.1013 30.5959 52.8246 17.7371 54.0979 15.4632C55.3709 13.1895 62.1077 13.779 63.4615 15.2949Z" fill="#6FA755"/>
<path d="M70.766 80.8134C69.9418 80.8134 69.2734 80.1641 69.2734 79.3635V76.4397C69.2734 75.6391 69.9418 74.9899 70.766 74.9899C71.5902 74.9899 72.2586 75.6391 72.2586 76.4397V79.3635C72.2586 80.1644 71.5902 80.8134 70.766 80.8134Z" fill="#BC0000"/>
<path d="M80.4891 86.1947C79.6649 86.1947 78.9965 85.5455 78.9965 84.7449V81.8211C78.9965 81.0204 79.6649 80.3712 80.4891 80.3712C81.3133 80.3712 81.9816 81.0204 81.9816 81.8211V84.7449C81.9816 85.5455 81.3135 86.1947 80.4891 86.1947Z" fill="#BC0000"/>
<path d="M88.2231 75.927C87.3989 75.927 86.7305 75.2778 86.7305 74.4772V71.5534C86.7305 70.7528 87.3989 70.1036 88.2231 70.1036C89.0473 70.1036 89.7157 70.7528 89.7157 71.5534V74.4772C89.7157 75.2778 89.0473 75.927 88.2231 75.927Z" fill="#BC0000"/>
<path d="M113.523 7.56492L115.144 11.9901C115.213 12.1795 115.35 12.3297 115.524 12.4056L119.571 14.177C120.143 14.4273 120.143 15.3123 119.571 15.5624L115.524 17.3338C115.35 17.4097 115.213 17.5597 115.144 17.7493L113.523 22.1745C113.295 22.7998 112.485 22.7998 112.256 22.1745L110.636 17.7493C110.567 17.5599 110.429 17.4097 110.256 17.3338L106.209 15.5624C105.637 15.3121 105.637 14.4271 106.209 14.177L110.256 12.4056C110.429 12.3297 110.567 12.1797 110.636 11.9901L112.256 7.56492C112.485 6.93962 113.295 6.93962 113.523 7.56492Z" fill="#FFF491"/>
<path d="M91.5177 6.3892C92.654 6.3892 93.5751 5.4945 93.5751 4.39083C93.5751 3.28716 92.654 2.39246 91.5177 2.39246C90.3815 2.39246 89.4603 3.28716 89.4603 4.39083C89.4603 5.4945 90.3815 6.3892 91.5177 6.3892Z" fill="#FD4949"/>
<path d="M10.4395 0.632112L12.6236 6.59791C12.7172 6.85338 12.9023 7.05565 13.1358 7.15807L18.5926 9.54613C19.3635 9.88339 19.3635 11.0766 18.5926 11.4139L13.1361 13.8019C12.9025 13.9041 12.7172 14.1066 12.6238 14.3621L10.4398 20.3279C10.1312 21.1707 9.03986 21.1707 8.73126 20.3279L6.54695 14.3618C6.45333 14.1064 6.26827 13.9041 6.03471 13.8017L0.578167 11.4139C-0.192722 11.0766 -0.192722 9.88339 0.578167 9.54613L6.03471 7.15807C6.26827 7.05588 6.45358 6.85338 6.54695 6.59791L8.73102 0.632112C9.03986 -0.210704 10.1309 -0.210704 10.4395 0.632112Z" fill="#FFF491"/>
</svg>
