<svg width="98" height="98" viewBox="0 0 98 98" fill="none" xmlns="http://www.w3.org/2000/svg">
<g clip-path="url(#clip0)">
<path d="M94.9674 53.7175C94.9674 58.7691 94.0896 63.621 92.4722 68.1449C86.7325 84.1935 71.6882 96.0684 53.5477 97.7847C52.053 97.9271 50.5346 98.0002 49.0003 98.0002C23.6135 98.0002 3.0332 78.1732 3.0332 53.7177C3.0332 45.5738 5.31687 38.7505 9.29887 33.2719C12.5671 28.7779 16.9783 25.1892 22.2098 22.5181C22.4531 22.3935 22.7002 22.271 22.9473 22.1505C30.3518 18.5442 39.3282 16.7231 49.0003 16.7231C50.5346 16.7231 52.0511 16.7687 53.5477 16.8615C61.2112 17.3282 68.3191 18.9969 74.4088 21.844C74.6559 21.9568 74.9011 22.0754 75.1444 22.1939C87.122 28.0616 94.9674 38.6179 94.9674 53.7175Z" fill="#CD2A00"/>
<path d="M94.967 53.7175C94.967 58.7691 94.0892 63.621 92.4718 68.1449C85.0832 79.3435 72.6171 87.1276 58.1956 88.4919C56.701 88.6343 55.1825 88.7074 53.6482 88.7074C28.2615 88.7074 7.68115 68.8805 7.68115 44.4249C7.68115 40.3795 8.24465 36.6605 9.29853 33.2717C12.5668 28.7777 16.9779 25.189 22.2094 22.5179C29.7522 18.6682 39.0034 16.7227 48.9997 16.7227C50.5341 16.7227 52.0506 16.7683 53.5472 16.8611C61.5211 17.3475 68.8939 19.1329 75.1437 22.1935C87.1217 28.0616 94.967 38.6178 94.967 53.7175Z" fill="#FF3501"/>
<path d="M75.6383 37.0579L65.3609 27.8344C64.0481 26.654 64.5582 24.4534 66.2506 24.0046L73.8617 21.9881C74.0466 21.9391 74.0695 21.684 73.8955 21.6049C67.9635 18.9076 61.0656 17.0738 53.6791 16.6073L53.7093 4.70973C53.7093 2.11925 51.5899 0 48.9996 0C46.4093 0 44.29 2.11925 44.29 4.70954L44.2598 16.6096C36.8334 17.0813 29.9541 18.9122 24.0039 21.6488C23.6528 21.8101 23.7068 22.3256 24.0831 22.4127L30.5643 23.9152C32.3339 24.3244 32.8658 26.6378 31.4599 27.8103L21.6769 35.9761C20.7773 36.7254 21.5623 38.1926 22.6656 37.8208L41.7669 31.3674C42.9473 30.97 44.2146 31.662 44.5469 32.8858L47.912 45.2926C48.1987 46.3464 49.6637 46.3346 49.9327 45.2748L53.0507 32.9926C53.3768 31.7035 54.7293 30.9957 55.9432 31.4761L74.5701 38.8608C75.6599 39.2941 76.5161 37.8486 75.6383 37.0579Z" fill="#5EAC24"/>
</g>
<defs>
<clipPath id="clip0">
<rect width="98" height="98" fill="white"/>
</clipPath>
</defs>
</svg>
